  0
SECTION
  2
HEADER
  9
$ACADVER
  1
AC1027
  9
$ACADMAINTVER
 70
105
  9
$DWGCODEPAGE
  3
ANSI_1252
  9
$LASTSAVEDBY
  1
ezdxf
  9
$REQUIREDVERSIONS
160
0
  9
$INSBASE
 10
0.0
 20
0.0
 30
0.0
  9
$EXTMIN
 10
1e+20
 20
1e+20
 30
1e+20
  9
$EXTMAX
 10
-1e+20
 20
-1e+20
 30
-1e+20
  9
$LIMMIN
 10
0.0
 20
0.0
  9
$LIMMAX
 10
420.0
 20
297.0
  9
$ORTHOMODE
 70
0
  9
$REGENMODE
 70
1
  9
$FILLMODE
 70
1
  9
$QTEXTMODE
 70
0
  9
$MIRRTEXT
 70
1
  9
$LTSCALE
 40
1.0
  9
$ATTMODE
 70
1
  9
$TEXTSIZE
 40
2.5
  9
$TRACEWID
 40
1.0
  9
$TEXTSTYLE
  7
Standard
  9
$CLAYER
  8
0
  9
$CELTYPE
  6
ByLayer
  9
$CECOLOR
 62
256
  9
$CELTSCALE
 40
1.0
  9
$DISPSILH
 70
0
  9
$DIMSCALE
 40
1.0
  9
$DIMASZ
 40
2.5
  9
$DIMEXO
 40
0.625
  9
$DIMDLI
 40
3.75
  9
$DIMRND
 40
0.0
  9
$DIMDLE
 40
0.0
  9
$DIMEXE
 40
1.25
  9
$DIMTP
 40
0.0
  9
$DIMTM
 40
0.0
  9
$DIMTXT
 40
2.5
  9
$DIMCEN
 40
2.5
  9
$DIMTSZ
 40
0.0
  9
$DIMTOL
 70
0
  9
$DIMLIM
 70
0
  9
$DIMTIH
 70
0
  9
$DIMTOH
 70
0
  9
$DIMSE1
 70
0
  9
$DIMSE2
 70
0
  9
$DIMTAD
 70
1
  9
$DIMZIN
 70
8
  9
$DIMBLK
  1

  9
$DIMASO
 70
1
  9
$DIMSHO
 70
1
  9
$DIMPOST
  1

  9
$DIMAPOST
  1

  9
$DIMALT
 70
0
  9
$DIMALTD
 70
3
  9
$DIMALTF
 40
0.03937007874
  9
$DIMLFAC
 40
1.0
  9
$DIMTOFL
 70
1
  9
$DIMTVP
 40
0.0
  9
$DIMTIX
 70
0
  9
$DIMSOXD
 70
0
  9
$DIMSAH
 70
0
  9
$DIMBLK1
  1

  9
$DIMBLK2
  1

  9
$DIMSTYLE
  2
ISO-25
  9
$DIMCLRD
 70
0
  9
$DIMCLRE
 70
0
  9
$DIMCLRT
 70
0
  9
$DIMTFAC
 40
1.0
  9
$DIMGAP
 40
0.625
  9
$DIMJUST
 70
0
  9
$DIMSD1
 70
0
  9
$DIMSD2
 70
0
  9
$DIMTOLJ
 70
0
  9
$DIMTZIN
 70
8
  9
$DIMALTZ
 70
0
  9
$DIMALTTZ
 70
0
  9
$DIMUPT
 70
0
  9
$DIMDEC
 70
2
  9
$DIMTDEC
 70
2
  9
$DIMALTU
 70
2
  9
$DIMALTTD
 70
3
  9
$DIMTXSTY
  7
Standard
  9
$DIMAUNIT
 70
0
  9
$DIMADEC
 70
0
  9
$DIMALTRND
 40
0.0
  9
$DIMAZIN
 70
0
  9
$DIMDSEP
 70
44
  9
$DIMATFIT
 70
3
  9
$DIMFRAC
 70
0
  9
$DIMLDRBLK
  1

  9
$DIMLUNIT
 70
2
  9
$DIMLWD
 70
-2
  9
$DIMLWE
 70
-2
  9
$DIMTMOVE
 70
0
  9
$DIMFXL
 40
1.0
  9
$DIMFXLON
 70
0
  9
$DIMJOGANG
 40
0.785398163397
  9
$DIMTFILL
 70
0
  9
$DIMTFILLCLR
 70
0
  9
$DIMARCSYM
 70
0
  9
$DIMLTYPE
  6

  9
$DIMLTEX1
  6

  9
$DIMLTEX2
  6

  9
$DIMTXTDIRECTION
 70
0
  9
$LUNITS
 70
2
  9
$LUPREC
 70
4
  9
$SKETCHINC
 40
1.0
  9
$FILLETRAD
 40
10.0
  9
$AUNITS
 70
0
  9
$AUPREC
 70
2
  9
$MENU
  1
.
  9
$ELEVATION
 40
0.0
  9
$PELEVATION
 40
0.0
  9
$THICKNESS
 40
0.0
  9
$LIMCHECK
 70
0
  9
$CHAMFERA
 40
0.0
  9
$CHAMFERB
 40
0.0
  9
$CHAMFERC
 40
0.0
  9
$CHAMFERD
 40
0.0
  9
$SKPOLY
 70
0
  9
$TDCREATE
 40
2451545.0
  9
$TDUCREATE
 40
2451545.0
  9
$TDUPDATE
 40
2451545.0
  9
$TDUUPDATE
 40
2451545.0
  9
$TDINDWG
 40
0.0
  9
$TDUSRTIMER
 40
0.0
  9
$USRTIMER
 70
1
  9
$ANGBASE
 50
0.0
  9
$ANGDIR
 70
0
  9
$PDMODE
 70
0
  9
$PDSIZE
 40
0.0
  9
$PLINEWID
 40
0.0
  9
$SPLFRAME
 70
0
  9
$SPLINETYPE
 70
6
  9
$SPLINESEGS
 70
8
  9
$HANDSEED
  5
5D
  9
$SURFTAB1
 70
6
  9
$SURFTAB2
 70
6
  9
$SURFTYPE
 70
6
  9
$SURFU
 70
6
  9
$SURFV
 70
6
  9
$UCSBASE
  2

  9
$UCSNAME
  2

  9
$UCSORG
 10
0.0
 20
0.0
 30
0.0
  9
$UCSXDIR
 10
1.0
 20
0.0
 30
0.0
  9
$UCSYDIR
 10
0.0
 20
1.0
 30
0.0
  9
$UCSORTHOREF
  2

  9
$UCSORTHOVIEW
 70
0
  9
$UCSORGTOP
 10
0.0
 20
0.0
 30
0.0
  9
$UCSORGBOTTOM
 10
0.0
 20
0.0
 30
0.0
  9
$UCSORGLEFT
 10
0.0
 20
0.0
 30
0.0
  9
$UCSORGRIGHT
 10
0.0
 20
0.0
 30
0.0
  9
$UCSORGFRONT
 10
0.0
 20
0.0
 30
0.0
  9
$UCSORGBACK
 10
0.0
 20
0.0
 30
0.0
  9
$PUCSBASE
  2

  9
$PUCSNAME
  2

  9
$PUCSORG
 10
0.0
 20
0.0
 30
0.0
  9
$PUCSXDIR
 10
1.0
 20
0.0
 30
0.0
  9
$PUCSYDIR
 10
0.0
 20
1.0
 30
0.0
  9
$PUCSORTHOREF
  2

  9
$PUCSORTHOVIEW
 70
0
  9
$PUCSORGTOP
 10
0.0
 20
0.0
 30
0.0
  9
$PUCSORGBOTTOM
 10
0.0
 20
0.0
 30
0.0
  9
$PUCSORGLEFT
 10
0.0
 20
0.0
 30
0.0
  9
$PUCSORGRIGHT
 10
0.0
 20
0.0
 30
0.0
  9
$PUCSORGFRONT
 10
0.0
 20
0.0
 30
0.0
  9
$PUCSORGBACK
 10
0.0
 20
0.0
 30
0.0
  9
$USERI1
 70
0
  9
$USERI2
 70
0
  9
$USERI3
 70
0
  9
$USERI4
 70
0
  9
$USERI5
 70
0
  9
$USERR1
 40
0.0
  9
$USERR2
 40
0.0
  9
$USERR3
 40
0.0
  9
$USERR4
 40
0.0
  9
$USERR5
 40
0.0
  9
$WORLDVIEW
 70
1
  9
$SHADEDGE
 70
3
  9
$SHADEDIF
 70
70
  9
$TILEMODE
 70
1
  9
$MAXACTVP
 70
64
  9
$PINSBASE
 10
0.0
 20
0.0
 30
0.0
  9
$PLIMCHECK
 70
0
  9
$PEXTMIN
 10
1e+20
 20
1e+20
 30
1e+20
  9
$PEXTMAX
 10
-1e+20
 20
-1e+20
 30
-1e+20
  9
$PLIMMIN
 10
0.0
 20
0.0
  9
$PLIMMAX
 10
420.0
 20
297.0
  9
$UNITMODE
 70
0
  9
$VISRETAIN
 70
1
  9
$PLINEGEN
 70
0
  9
$PSLTSCALE
 70
1
  9
$TREEDEPTH
 70
3020
  9
$CMLSTYLE
  2
Standard
  9
$CMLJUST
 70
0
  9
$CMLSCALE
 40
20.0
  9
$PROXYGRAPHICS
 70
1
  9
$MEASUREMENT
 70
1
  9
$CELWEIGHT
370
-1
  9
$ENDCAPS
280
0
  9
$JOINSTYLE
280
0
  9
$LWDISPLAY
290
0
  9
$INSUNITS
 70
4
  9
$HYPERLINKBASE
  1

  9
$STYLESHEET
  1

  9
$XEDIT
290
1
  9
$CEPSNTYPE
380
0
  9
$PSTYLEMODE
290
1
  9
$FINGERPRINTGUID
  2
{00000000-0000-0000-0000-000000000000}
  9
$VERSIONGUID
  2
{00000000-0000-0000-0000-000000000000}
  9
$EXTNAMES
290
1
  9
$PSVPSCALE
 40
0.0
  9
$OLESTARTUP
290
0
  9
$SORTENTS
280
127
  9
$INDEXCTL
280
0
  9
$HIDETEXT
280
1
  9
$XCLIPFRAME
280
1
  9
$HALOGAP
280
0
  9
$OBSCOLOR
 70
257
  9
$OBSLTYPE
280
0
  9
$INTERSECTIONDISPLAY
280
0
  9
$INTERSECTIONCOLOR
 70
257
  9
$DIMASSOC
280
2
  9
$PROJECTNAME
  1

  9
$CAMERADISPLAY
290
0
  9
$LENSLENGTH
 40
50.0
  9
$CAMERAHEIGHT
 40
0.0
  9
$STEPSPERSEC
 40
24.0
  9
$STEPSIZE
 40
100.0
  9
$3DDWFPREC
 40
2.0
  9
$PSOLWIDTH
 40
0.005
  9
$PSOLHEIGHT
 40
0.08
  9
$LOFTANG1
 40
1.570796326795
  9
$LOFTANG2
 40
1.570796326795
  9
$LOFTMAG1
 40
0.0
  9
$LOFTMAG2
 40
0.0
  9
$LOFTPARAM
 70
7
  9
$LOFTNORMALS
280
1
  9
$LATITUDE
 40
37.795
  9
$LONGITUDE
 40
-122.394
  9
$NORTHDIRECTION
 40
0.0
  9
$TIMEZONE
 70
-8000
  9
$LIGHTGLYPHDISPLAY
280
1
  9
$TILEMODELIGHTSYNCH
280
1
  9
$CMATERIAL
347
20
  9
$SOLIDHIST
280
0
  9
$SHOWHIST
280
1
  9
$DWFFRAME
280
2
  9
$DGNFRAME
280
2
  9
$REALWORLDSCALE
290
1
  9
$INTERFERECOLOR
 62
256
  9
$CSHADOW
280
0
  9
$SHADOWPLANELOCATION
 40
0.0
  0
ENDSEC
  0
SECTION
  2
CLASSES
  0
CLASS
  1
ACDBDETAILVIEWSTYLE
  2
AcDbDetailViewStyle
  3
ObjectDBX Classes
 90
1025
 91
0
280
0
281
0
  0
CLASS
  1
ACDBDICTIONARYWDFLT
  2
AcDbDictionaryWithDefault
  3
ObjectDBX Classes
 90
0
 91
0
280
0
281
0
  0
CLASS
  1
ACDBPLACEHOLDER
  2
AcDbPlaceHolder
  3
ObjectDBX Classes
 90
0
 91
0
280
0
281
0
  0
CLASS
  1
ACDBSECTIONVIEWSTYLE
  2
AcDbSectionViewStyle
  3
ObjectDBX Classes
 90
1025
 91
0
280
0
281
0
  0
CLASS
  1
CELLSTYLEMAP
  2
AcDbCellStyleMap
  3
ObjectDBX Classes
 90
1152
 91
0
280
0
281
0
  0
CLASS
  1
DICTIONARYVAR
  2
AcDbDictionaryVar
  3
ObjectDBX Classes
 90
0
 91
0
280
0
281
0
  0
CLASS
  1
LAYOUT
  2
AcDbLayout
  3
ObjectDBX Classes
 90
0
 91
0
280
0
281
0
  0
CLASS
  1
MATERIAL
  2
AcDbMaterial
  3
ObjectDBX Classes
 90
1153
 91
0
280
0
281
0
  0
CLASS
  1
MENTALRAYRENDERSETTINGS
  2
AcDbMentalRayRenderSettings
  3
SCENEOE
 90
1024
 91
0
280
0
281
0
  0
CLASS
  1
MLEADERSTYLE
  2
AcDbMLeaderStyle
  3
ACDB_MLEADERSTYLE_CLASS
 90
4095
 91
0
280
0
281
0
  0
CLASS
  1
RASTERVARIABLES
  2
AcDbRasterVariables
  3
ISM
 90
0
 91
0
280
0
281
0
  0
CLASS
  1
SCALE
  2
AcDbScale
  3
ObjectDBX Classes
 90
1153
 91
0
280
0
281
0
  0
CLASS
  1
SUN
  2
AcDbSun
  3
SCENEOE
 90
1153
 91
0
280
0
281
0
  0
CLASS
  1
TABLESTYLE
  2
AcDbTableStyle
  3
ObjectDBX Classes
 90
4095
 91
0
280
0
281
0
  0
CLASS
  1
VISUALSTYLE
  2
AcDbVisualStyle
  3
ObjectDBX Classes
 90
4095
 91
0
280
0
281
0
  0
ENDSEC
  0
SECTION
  2
TABLES
  0
TABLE
  2
VPORT
  5
8
330
0
100
AcDbSymbolTable
 70
1
  0
VPORT
  5
59
330
8
100
AcDbSymbolTableRecord
100
AcDbViewportTableRecord
  2
*Active
 70
0
 10
0.0
 20
0.0
 11
1.0
 21
1.0
 12
222.6723416623486
 22
161.5383986203294
 13
0.0
 23
0.0
 14
0.5
 24
0.5
 15
0.5
 25
0.5
 16
0.0
 26
0.0
 36
1.0
 17
0.0
 27
0.0
 37
0.0
 40
274.5232027593412
 41
1.34
 42
50.0
 43
0.0
 44
0.0
 50
0.0
 51
0.0
 71
0
 72
1000
 73
1
 74
3
 75
0
 76
0
 77
0
 78
0
281
0
 65
1
110
0.0
120
0.0
130
0.0
111
1.0
121
0.0
131
0.0
112
0.0
122
1.0
132
0.0
 79
0
146
0.0
  0
ENDTAB
  0
TABLE
  2
LTYPE
  5
2
330
0
100
AcDbSymbolTable
 70
3
  0
LTYPE
  5
24
330
2
100
AcDbSymbolTableRecord
100
AcDbLinetypeTableRecord
  2
ByBlock
 70
0
  3

 72
65
 73
0
 40
0.0
  0
LTYPE
  5
25
330
2
100
AcDbSymbolTableRecord
100
AcDbLinetypeTableRecord
  2
ByLayer
 70
0
  3

 72
65
 73
0
 40
0.0
  0
LTYPE
  5
26
330
2
100
AcDbSymbolTableRecord
100
AcDbLinetypeTableRecord
  2
Continuous
 70
0
  3

 72
65
 73
0
 40
0.0
  0
ENDTAB
  0
TABLE
  2
LAYER
  5
1
330
0
100
AcDbSymbolTable
 70
3
  0
LAYER
  5
27
330
1
100
AcDbSymbolTableRecord
100
AcDbLayerTableRecord
  2
0
 70
0
 62
7
  6
Continuous
370
-3
390
13
347
21
  0
LAYER
  5
28
330
1
100
AcDbSymbolTableRecord
100
AcDbLayerTableRecord
  2
Defpoints
 70
0
 62
7
  6
Continuous
290
0
370
-3
390
13
347
21
  0
LAYER
  5
2F
330
1
100
AcDbSymbolTableRecord
100
AcDbLayerTableRecord
  2
CUT
 70
0
 62
7
  6
Continuous
370
-3
390
13
347
21
  0
ENDTAB
  0
TABLE
  2
STYLE
  5
5
330
0
100
AcDbSymbolTable
 70
1
  0
STYLE
  5
29
330
5
100
AcDbSymbolTableRecord
100
AcDbTextStyleTableRecord
  2
Standard
 70
0
 40
0.0
 41
1.0
 50
0.0
 71
0
 42
2.5
  3
txt
  4

  0
ENDTAB
  0
TABLE
  2
VIEW
  5
7
330
0
100
AcDbSymbolTable
 70
0
  0
ENDTAB
  0
TABLE
  2
UCS
  5
6
330
0
100
AcDbSymbolTable
 70
0
  0
ENDTAB
  0
TABLE
  2
APPID
  5
3
330
0
100
AcDbSymbolTable
 70
3
  0
APPID
  5
2A
330
3
100
AcDbSymbolTableRecord
100
AcDbRegAppTableRecord
  2
ACAD
 70
0
  0
APPID
  5
5A
330
3
100
AcDbSymbolTableRecord
100
AcDbRegAppTableRecord
  2
HATCHBACKGROUNDCOLOR
 70
0
  0
APPID
  5
5B
330
3
100
AcDbSymbolTableRecord
100
AcDbRegAppTableRecord
  2
EZDXF
 70
0
  0
ENDTAB
  0
TABLE
  2
DIMSTYLE
  5
4
330
0
100
AcDbSymbolTable
 70
1
100
AcDbDimStyleTable
  0
DIMSTYLE
105
2B
330
4
100
AcDbSymbolTableRecord
100
AcDbDimStyleTableRecord
  2
Standard
 70
0
 40
1.0
 41
2.5
 42
0.625
 43
3.75
 44
1.25
 45
0.0
 46
0.0
 47
0.0
 48
0.0
 49
2.5
140
2.5
141
2.5
142
0.0
143
0.03937007874
144
1.0
145
0.0
146
1.0
147
0.625
148
0.0
 69
0
 70
0
 71
0
 72
0
 73
0
 74
0
 75
0
 76
0
 77
1
 78
8
 79
3
170
0
171
3
172
1
173
0
174
0
175
0
176
0
177
0
178
0
179
2
271
2
272
2
273
2
274
3
275
0
276
0
277
2
278
44
279
0
280
0
281
0
282
0
283
0
284
8
285
0
286
0
288
0
289
3
290
0
371
-2
372
-2
  0
ENDTAB
  0
TABLE
  2
BLOCK_RECORD
  5
9
330
0
100
AcDbSymbolTable
 70
2
  0
BLOCK_RECORD
  5
17
330
9
100
AcDbSymbolTableRecord
100
AcDbBlockTableRecord
  2
*Model_Space
340
1A
 70
0
280
1
281
0
  0
BLOCK_RECORD
  5
1B
330
9
100
AcDbSymbolTableRecord
100
AcDbBlockTableRecord
  2
*Paper_Space
340
1E
 70
0
280
1
281
0
  0
ENDTAB
  0
ENDSEC
  0
SECTION
  2
BLOCKS
  0
BLOCK
  5
18
330
17
100
AcDbEntity
  8
0
100
AcDbBlockBegin
  2
*Model_Space
 70
0
 10
0.0
 20
0.0
 30
0.0
  3
*Model_Space
  1

  0
ENDBLK
  5
19
330
17
100
AcDbEntity
  8
0
100
AcDbBlockEnd
  0
BLOCK
  5
1C
330
1B
100
AcDbEntity
  8
0
100
AcDbBlockBegin
  2
*Paper_Space
 70
0
 10
0.0
 20
0.0
 30
0.0
  3
*Paper_Space
  1

  0
ENDBLK
  5
1D
330
1B
100
AcDbEntity
  8
0
100
AcDbBlockEnd
  0
ENDSEC
  0
SECTION
  2
ENTITIES
  0
SPLINE
  5
30
330
17
100
AcDbEntity
  8
CUT
100
AcDbSpline
 70
0
 71
3
 72
119
 73
115
 74
0
 40
0.0
 40
0.0
 40
0.0
 40
0.0
 40
3.728023356336408
 40
3.728023356336408
 40
3.728023356336408
 40
5.835842450019754
 40
5.835842450019754
 40
5.835842450019754
 40
12.104069438158383
 40
12.104069438158383
 40
12.104069438158383
 40
17.276833266383754
 40
17.276833266383754
 40
17.276833266383754
 40
18.58927584455077
 40
18.58927584455077
 40
18.58927584455077
 40
19.666203193797415
 40
19.666203193797415
 40
19.666203193797415
 40
20.502086506357514
 40
20.502086506357514
 40
20.502086506357514
 40
21.096513406535344
 40
21.096513406535344
 40
21.096513406535344
 40
21.451590700024042
 40
21.451590700024042
 40
21.451590700024042
 40
21.569656037654525
 40
21.569656037654525
 40
21.569656037654525
 40
21.687721375285008
 40
21.687721375285008
 40
21.687721375285008
 40
22.042798668773706
 40
22.042798668773706
 40
22.042798668773706
 40
22.637225568951536
 40
22.637225568951536
 40
22.637225568951536
 40
23.473108881511635
 40
23.473108881511635
 40
23.473108881511635
 40
25.862478808925324
 40
25.862478808925324
 40
25.862478808925324
 40
29.132399616035833
 40
29.132399616035833
 40
29.132399616035833
 40
35.17106836792827
 40
35.17106836792827
 40
35.17106836792827
 40
41.45190756119827
 40
41.45190756119827
 40
41.45190756119827
 40
43.39646610188765
 40
43.39646610188765
 40
43.39646610188765
 40
46.97815681408512
 40
46.97815681408512
 40
46.97815681408512
 40
50.299481851002824
 40
50.299481851002824
 40
50.299481851002824
 40
53.604751580827056
 40
53.604751580827056
 40
53.604751580827056
 40
58.62744559986237
 40
58.62744559986237
 40
58.62744559986237
 40
63.43133010539144
 40
63.43133010539144
 40
63.43133010539144
 40
66.42382767754206
 40
66.42382767754206
 40
66.42382767754206
 40
69.12971554537742
 40
69.12971554537742
 40
69.12971554537742
 40
71.99258356966448
 40
71.99258356966448
 40
71.99258356966448
 40
72.6047871754905
 40
72.6047871754905
 40
72.6047871754905
 40
72.76009686637066
 40
72.76009686637066
 40
72.76009686637066
 40
73.21699078131687
 40
73.21699078131687
 40
73.21699078131687
 40
73.94978638166592
 40
73.94978638166592
 40
73.94978638166592
 40
74.91961574858087
 40
74.91961574858087
 40
74.91961574858087
 40
76.07985880560548
 40
76.07985880560548
 40
76.07985880560548
 40
77.38270250111339
 40
77.38270250111339
 40
77.38270250111339
 40
80.25722334364852
 40
80.25722334364852
 40
80.25722334364852
 40
83.3409952901741
 40
83.3409952901741
 40
83.3409952901741
 40
86.5821287511263
 40
86.5821287511263
 40
86.5821287511263
 40
92.34356911057449
 40
92.34356911057449
 40
92.34356911057449
 40
92.34356911057449
 10
409.00000009999997
 20
40.11183253082328
 30
0.0
 10
409.6851025565765
 20
39.07297519721888
 30
0.0
 10
410.50138491397007
 20
38.1273421571189
 30
0.0
 10
411.36903047515005
 20
37.23849441155119
 30
0.0
 10
411.86148797155016
 20
36.73695781764425
 30
0.0
 10
412.3677095646958
 20
36.24972542734682
 30
0.0
 10
412.8876952545867
 20
35.776797240658794
 30
0.0
 10
414.4307756781944
 20
34.36731496617139
 30
0.0
 10
416.055447892993
 20
33.05152438831314
 30
0.0
 10
417.6231458505076
 20
31.67019552286061
 30
0.0
 10
418.9144184847332
 20
30.529743166880934
 30
0.0
 10
420.1801737093447
 20
29.348736318488847
 30
0.0
 10
421.28000009999994
 20
28.018466991461054
 30
0.0
 10
421.559207078446
 20
27.682079172162418
 30
0.0
 10
421.82330179986866
 20
27.333304917882543
 30
0.0
 10
422.07228426426786
 20
26.97214422862163
 30
0.0
 10
422.27669083441424
 20
26.673728614350352
 30
0.0
 10
422.4658827447352
 20
26.368654797203163
 30
0.0
 10
422.6398599952297
 20
26.056922777180176
 30
0.0
 10
422.77414426955465
 20
25.81592561733089
 30
0.0
 10
422.89751056021026
 20
25.573155462355345
 30
0.0
 10
423.002598683516
 20
25.303848042351888
 30
0.0
 10
423.07733065440647
 20
25.112333781375185
 30
0.0
 10
423.142819086923
 20
24.90739923471392
 30
0.0
 10
423.19622196799685
 20
24.741839712020408
 30
0.0
 10
423.2281218542076
 20
24.642943738080362
 30
0.0
 10
423.255709376898
 20
24.55809755059758
 30
0.0
 10
423.2694073674382
 20
24.39438643219728
 30
0.0
 10
423.2739620317538
 20
24.33995149979725
 30
0.0
 10
423.2769810658772
 20
24.27679724065885
 30
0.0
 10
423.28000010000005
 20
24.276797240658794
 30
0.0
 10
423.28301913412275
 20
24.276797240658794
 30
0.0
 10
423.28603816824614
 20
24.33995149979745
 30
0.0
 10
423.2905928325618
 20
24.394386432197308
 30
0.0
 10
423.3042908231017
 20
24.558097550597495
 30
0.0
 10
423.33187834579235
 20
24.642943738080504
 30
0.0
 10
423.363778232003
 20
24.74183971202035
 30
0.0
 10
423.4171811130772
 20
24.90739923471375
 30
0.0
 10
423.4826695455937
 20
25.11233378137527
 30
0.0
 10
423.5574015164841
 20
25.303848042351774
 30
0.0
 10
423.6624896397896
 20
25.57315546235526
 30
0.0
 10
423.7858559304455
 20
25.815925617330834
 30
0.0
 10
423.92014020477035
 20
26.056922777180176
 30
0.0
 10
424.3049267892969
 20
26.750156997847625
 30
0.0
 10
424.77435488474384
 20
27.407680855648465
 30
0.0
 10
425.2800001
 20
28.018466991461082
 30
0.0
 10
425.97372181245674
 20
28.859352827432446
 30
0.0
 10
426.73817542354243
 20
29.64077700742166
 30
0.0
 10
427.52934980110064
 20
30.38967121256337
 30
0.0
 10
428.9927471763731
 20
31.772850917834745
 30
0.0
 10
430.5503654579259
 20
33.050334533485966
 30
0.0
 10
432.0745484510578
 20
34.364597075264385
 30
0.0
 10
433.6567482843662
 20
35.73209966581902
 30
0.0
 10
435.2245627336891
 20
37.134886792178975
 30
0.0
 10
436.55631154943086
 20
38.75505860778418
 30
0.0
 10
436.96949393825304
 20
39.25608542781072
 30
0.0
 10
437.3505691351815
 20
39.78042026217443
 30
0.0
 10
437.6995371402149
 20
40.32806311087512
 30
0.0
 10
438.3378087712352
 20
41.33625719624365
 30
0.0
 10
438.84415214746247
 20
42.43980276194421
 30
0.0
 10
439.0980397822573
 20
43.61048063900935
 30
0.0
 10
439.33553526205435
 20
44.69360060763134
 30
0.0
 10
439.3446833246972
 20
45.82914103020633
 30
0.0
 10
439.09803978225716
 20
46.91180613085851
 30
0.0
 10
438.8554270598269
 20
47.98954500882712
 30
0.0
 10
438.36754167190537
 20
49.007692442812015
 30
0.0
 10
437.699537140215
 20
49.885785408286864
 30
0.0
 10
436.6851021033555
 20
51.22205270333683
 30
0.0
 10
435.2620481727162
 20
52.241847356108906
 30
0.0
 10
433.67230494541326
 20
52.77679724065885
 30
0.0
 10
432.15408338183175
 20
53.29276297716612
 30
0.0
 10
430.4754617841411
 20
53.34587066472139
 30
0.0
 10
428.9368543494924
 20
52.88339895845701
 30
0.0
 10
427.9785909135879
 20
52.59895719027804
 30
0.0
 10
427.0797665967981
 20
52.12230794692894
 30
0.0
 10
426.2992140310562
 20
51.499355633111264
 30
0.0
 10
425.5927646718835
 20
50.93645741303436
 30
0.0
 10
424.98107762157974
 20
50.256638918230976
 30
0.0
 10
424.4877159357322
 20
49.50087051116441
 30
0.0
 10
423.9683398857367
 20
48.700844255907526
 30
0.0
 10
423.56735534580145
 20
47.816503657674815
 30
0.0
 10
423.3637782320031
 20
46.88273967520007
 30
0.0
 10
423.3182936756737
 20
46.682943632266785
 30
0.0
 10
423.2903676316729
 20
46.480962820753206
 30
0.0
 10
423.2800001
 20
46.276797240658794
 30
0.0
 10
423.2779069261424
 20
46.22501523151823
 30
0.0
 10
423.27435356074807
 20
46.33991204342598
 30
0.0
 10
423.26940736743813
 20
46.43174527742639
 30
0.0
 10
423.25485653282783
 20
46.701902571326144
 30
0.0
 10
423.22825170064345
 20
46.77245996550877
 30
0.0
 10
423.19622196799685
 20
46.88273967520007
 30
0.0
 10
423.14485064000115
 20
47.05961330696877
 30
0.0
 10
423.07952441188877
 20
47.338667789652305
 30
0.0
 10
423.0025986835159
 20
47.58949240112136
 30
0.0
 10
422.9007901704574
 20
47.92145000844292
 30
0.0
 10
422.77866443971203
 20
48.2039613098122
 30
0.0
 10
422.6398599952297
 20
48.4889309176138
 30
0.0
 10
422.47380305935127
 20
48.82985069195152
 30
0.0
 10
422.28387516539806
 20
49.174288850902855
 30
0.0
 10
422.07228426426786
 20
49.50087051116441
 30
0.0
 10
421.8342790070855
 20
49.86731723863255
 30
0.0
 10
421.57018428566295
 20
50.2120695648633
 30
0.0
 10
421.28000010000005
 20
50.53512748985645
 30
0.0
 10
420.6411433562243
 20
51.24928533283173
 30
0.0
 10
419.8789419987283
 20
51.85815367782686
 30
0.0
 10
419.03065039889935
 20
52.30682673365672
 30
0.0
 10
418.121477147974
 20
52.789997817944595
 30
0.0
 10
417.11392890006266
 20
53.08779892940257
 30
0.0
 10
416.08746678257233
 20
53.17302048327326
 30
0.0
 10
415.008526492086
 20
53.26434577023008
 30
0.0
 10
413.9128293786088
 20
53.12283975622802
 30
0.0
 10
412.8876952545868
 20
52.77679724065885
 30
0.0
 10
411.0642558487845
 20
52.16357019487248
 30
0.0
 10
409.4596322087927
 20
50.91075402294868
 30
0.0
 10
408.4403491038035
 20
49.276797240658794
 30
0.0
  0
LINE
  5
31
330
17
100
AcDbEntity
  8
CUT
100
AcDbLine
 10
6.0
 20
117.35000000000002
 30
0.0
 11
12.35
 21
117.35000000000002
 31
0.0
  0
LINE
  5
32
330
17
100
AcDbEntity
  8
CUT
100
AcDbLine
 10
6.0
 20
147.35000000000002
 30
0.0
 11
6.0
 21
117.35000000000002
 31
0.0
  0
LINE
  5
33
330
17
100
AcDbEntity
  8
CUT
100
AcDbLine
 10
6.0
 20
210.10000000000002
 30
0.0
 11
12.35
 21
210.10000000000002
 31
0.0
  0
LINE
  5
34
330
17
100
AcDbEntity
  8
CUT
100
AcDbLine
 10
6.0
 20
240.10000000000002
 30
0.0
 11
6.0
 21
210.10000000000002
 31
0.0
  0
LINE
  5
35
330
17
100
AcDbEntity
  8
CUT
100
AcDbLine
 10
6.000000099999994
 20
33.276797240658794
 30
0.0
 11
409.00000009999997
 21
33.276797240658794
 31
0.0
  0
LINE
  5
36
330
17
100
AcDbEntity
  8
CUT
100
AcDbLine
 10
6.000000099999994
 20
49.276797240658794
 30
0.0
 11
6.000000099999994
 21
33.276797240658794
 31
0.0
  0
LINE
  5
37
330
17
100
AcDbEntity
  8
CUT
100
AcDbLine
 10
12.35
 20
59.20000000000002
 30
0.0
 11
87.75
 21
59.20000000000002
 31
0.0
  0
LINE
  5
38
330
17
100
AcDbEntity
  8
CUT
100
AcDbLine
 10
12.35
 20
117.35000000000002
 30
0.0
 11
12.35
 21
59.20000000000002
 31
0.0
  0
LINE
  5
39
330
17
100
AcDbEntity
  8
CUT
100
AcDbLine
 10
12.35
 20
147.35000000000002
 30
0.0
 11
6.0
 21
147.35000000000002
 31
0.0
  0
LINE
  5
3A
330
17
100
AcDbEntity
  8
CUT
100
AcDbLine
 10
12.35
 20
210.10000000000002
 30
0.0
 11
12.35
 21
147.35000000000002
 31
0.0
  0
LINE
  5
3B
330
17
100
AcDbEntity
  8
CUT
100
AcDbLine
 10
12.35
 20
240.10000000000002
 30
0.0
 11
6.0
 21
240.10000000000002
 31
0.0
  0
LINE
  5
3C
330
17
100
AcDbEntity
  8
CUT
100
AcDbLine
 10
12.35
 20
298.8
 30
0.0
 11
12.35
 21
240.10000000000002
 31
0.0
  0
LINE
  5
3D
330
17
100
AcDbEntity
  8
CUT
100
AcDbLine
 10
55.5
 20
65.65000000000002
 30
0.0
 11
55.5
 21
72.50000000000001
 31
0.0
  0
LINE
  5
3E
330
17
100
AcDbEntity
  8
CUT
100
AcDbLine
 10
55.5
 20
72.50000000000001
 30
0.0
 11
80.0
 21
72.50000000000001
 31
0.0
  0
LINE
  5
3F
330
17
100
AcDbEntity
  8
CUT
100
AcDbLine
 10
80.0
 20
65.65000000000002
 30
0.0
 11
55.5
 21
65.65000000000002
 31
0.0
  0
LINE
  5
40
330
17
100
AcDbEntity
  8
CUT
100
AcDbLine
 10
80.0
 20
72.50000000000001
 30
0.0
 11
80.0
 21
65.65000000000002
 31
0.0
  0
LINE
  5
41
330
17
100
AcDbEntity
  8
CUT
100
AcDbLine
 10
87.75
 20
59.20000000000002
 30
0.0
 11
87.75
 21
71.20000000000002
 31
0.0
  0
LINE
  5
42
330
17
100
AcDbEntity
  8
CUT
100
AcDbLine
 10
87.75
 20
71.20000000000002
 30
0.0
 11
111.75
 21
71.20000000000002
 31
0.0
  0
LINE
  5
43
330
17
100
AcDbEntity
  8
CUT
100
AcDbLine
 10
111.75
 20
59.20000000000002
 30
0.0
 11
392.65
 21
59.20000000000002
 31
0.0
  0
LINE
  5
44
330
17
100
AcDbEntity
  8
CUT
100
AcDbLine
 10
111.75
 20
71.20000000000002
 30
0.0
 11
111.75
 21
59.20000000000002
 31
0.0
  0
LINE
  5
45
330
17
100
AcDbEntity
  8
CUT
100
AcDbLine
 10
119.5
 20
65.65000000000002
 30
0.0
 11
119.5
 21
72.50000000000001
 31
0.0
  0
LINE
  5
46
330
17
100
AcDbEntity
  8
CUT
100
AcDbLine
 10
119.5
 20
72.50000000000001
 30
0.0
 11
144.0
 21
72.50000000000001
 31
0.0
  0
LINE
  5
47
330
17
100
AcDbEntity
  8
CUT
100
AcDbLine
 10
144.0
 20
65.65000000000002
 30
0.0
 11
119.5
 21
65.65000000000002
 31
0.0
  0
LINE
  5
48
330
17
100
AcDbEntity
  8
CUT
100
AcDbLine
 10
144.0
 20
72.50000000000001
 30
0.0
 11
144.0
 21
65.65000000000002
 31
0.0
  0
LINE
  5
49
330
17
100
AcDbEntity
  8
CUT
100
AcDbLine
 10
265.15
 20
258.8
 30
0.0
 11
265.15
 21
286.8
 31
0.0
  0
LINE
  5
4A
330
17
100
AcDbEntity
  8
CUT
100
AcDbLine
 10
265.15
 20
286.8
 30
0.0
 11
309.15
 21
286.8
 31
0.0
  0
LINE
  5
4B
330
17
100
AcDbEntity
  8
CUT
100
AcDbLine
 10
309.15
 20
258.8
 30
0.0
 11
265.15
 21
258.8
 31
0.0
  0
LINE
  5
4C
330
17
100
AcDbEntity
  8
CUT
100
AcDbLine
 10
309.15
 20
286.8
 30
0.0
 11
309.15
 21
258.8
 31
0.0
  0
LINE
  5
4D
330
17
100
AcDbEntity
  8
CUT
100
AcDbLine
 10
392.65
 20
59.20000000000002
 30
0.0
 11
392.65
 21
117.35000000000002
 31
0.0
  0
LINE
  5
4E
330
17
100
AcDbEntity
  8
CUT
100
AcDbLine
 10
392.65
 20
117.35000000000002
 30
0.0
 11
399.0
 21
117.35000000000002
 31
0.0
  0
LINE
  5
4F
330
17
100
AcDbEntity
  8
CUT
100
AcDbLine
 10
392.65
 20
147.35000000000002
 30
0.0
 11
392.65
 21
210.10000000000002
 31
0.0
  0
LINE
  5
50
330
17
100
AcDbEntity
  8
CUT
100
AcDbLine
 10
392.65
 20
210.10000000000002
 30
0.0
 11
399.0
 21
210.10000000000002
 31
0.0
  0
LINE
  5
51
330
17
100
AcDbEntity
  8
CUT
100
AcDbLine
 10
392.65
 20
240.10000000000002
 30
0.0
 11
392.65
 21
298.8
 31
0.0
  0
LINE
  5
52
330
17
100
AcDbEntity
  8
CUT
100
AcDbLine
 10
392.65
 20
298.8
 30
0.0
 11
12.35
 21
298.8
 31
0.0
  0
LINE
  5
53
330
17
100
AcDbEntity
  8
CUT
100
AcDbLine
 10
399.0
 20
117.35000000000002
 30
0.0
 11
399.0
 21
147.35000000000002
 31
0.0
  0
LINE
  5
54
330
17
100
AcDbEntity
  8
CUT
100
AcDbLine
 10
399.0
 20
147.35000000000002
 30
0.0
 11
392.65
 21
147.35000000000002
 31
0.0
  0
LINE
  5
55
330
17
100
AcDbEntity
  8
CUT
100
AcDbLine
 10
399.0
 20
210.10000000000002
 30
0.0
 11
399.0
 21
240.10000000000002
 31
0.0
  0
LINE
  5
56
330
17
100
AcDbEntity
  8
CUT
100
AcDbLine
 10
399.0
 20
240.10000000000002
 30
0.0
 11
392.65
 21
240.10000000000002
 31
0.0
  0
LINE
  5
57
330
17
100
AcDbEntity
  8
CUT
100
AcDbLine
 10
408.44034910380344
 20
49.276797240658794
 30
0.0
 11
6.000000099999994
 21
49.276797240658794
 31
0.0
  0
LINE
  5
58
330
17
100
AcDbEntity
  8
CUT
100
AcDbLine
 10
409.00000009999997
 20
33.276797240658794
 30
0.0
 11
409.00000009999997
 21
40.11183253082328
 31
0.0
  0
ENDSEC
  0
SECTION
  2
OBJECTS
  0
DICTIONARY
  5
A
330
0
100
AcDbDictionary
281
1
  3
ACAD_COLOR
350
B
  3
ACAD_GROUP
350
C
  3
ACAD_LAYOUT
350
D
  3
ACAD_MATERIAL
350
E
  3
ACAD_MLEADERSTYLE
350
F
  3
ACAD_MLINESTYLE
350
10
  3
ACAD_PLOTSETTINGS
350
11
  3
ACAD_PLOTSTYLENAME
350
12
  3
ACAD_SCALELIST
350
14
  3
ACAD_TABLESTYLE
350
15
  3
ACAD_VISUALSTYLE
350
16
  3
EZDXF_META
350
2D
  0
DICTIONARY
  5
B
330
A
100
AcDbDictionary
281
1
  0
DICTIONARY
  5
C
330
A
100
AcDbDictionary
281
1
  0
DICTIONARY
  5
D
330
A
100
AcDbDictionary
281
1
  3
Model
350
1A
  3
Layout1
350
1E
  0
DICTIONARY
  5
E
330
A
100
AcDbDictionary
281
1
  3
ByBlock
350
1F
  3
ByLayer
350
20
  3
Global
350
21
  0
DICTIONARY
  5
F
330
A
100
AcDbDictionary
281
1
  3
Standard
350
2C
  0
DICTIONARY
  5
10
330
A
100
AcDbDictionary
281
1
  3
Standard
350
22
  0
DICTIONARY
  5
11
330
A
100
AcDbDictionary
281
1
  0
ACDBDICTIONARYWDFLT
  5
12
330
A
100
AcDbDictionary
281
1
  3
Normal
350
13
100
AcDbDictionaryWithDefault
340
13
  0
ACDBPLACEHOLDER
  5
13
330
12
  0
DICTIONARY
  5
14
330
A
100
AcDbDictionary
281
1
  0
DICTIONARY
  5
15
330
A
100
AcDbDictionary
281
1
  0
DICTIONARY
  5
16
330
A
100
AcDbDictionary
281
1
  0
LAYOUT
  5
1A
330
D
100
AcDbPlotSettings
  1

  4
A3
  6

 40
7.5
 41
20.0
 42
7.5
 43
20.0
 44
420.0
 45
297.0
 46
0.0
 47
0.0
 48
0.0
 49
0.0
140
0.0
141
0.0
142
1.0
143
1.0
 70
1024
 72
1
 73
0
 74
5
  7

 75
16
 76
0
 77
2
 78
300
147
1.0
148
0.0
149
0.0
100
AcDbLayout
  1
Model
 70
1
 71
0
 10
0.0
 20
0.0
 11
420.0
 21
297.0
 12
0.0
 22
0.0
 32
0.0
 14
1e+20
 24
1e+20
 34
1e+20
 15
-1e+20
 25
-1e+20
 35
-1e+20
146
0.0
 13
0.0
 23
0.0
 33
0.0
 16
1.0
 26
0.0
 36
0.0
 17
0.0
 27
1.0
 37
0.0
 76
1
330
17
  0
LAYOUT
  5
1E
330
D
100
AcDbPlotSettings
  1

  4
A3
  6

 40
7.5
 41
20.0
 42
7.5
 43
20.0
 44
420.0
 45
297.0
 46
0.0
 47
0.0
 48
0.0
 49
0.0
140
0.0
141
0.0
142
1.0
143
1.0
 70
0
 72
1
 73
0
 74
5
  7

 75
16
 76
0
 77
2
 78
300
147
1.0
148
0.0
149
0.0
100
AcDbLayout
  1
Layout1
 70
1
 71
1
 10
0.0
 20
0.0
 11
420.0
 21
297.0
 12
0.0
 22
0.0
 32
0.0
 14
1e+20
 24
1e+20
 34
1e+20
 15
-1e+20
 25
-1e+20
 35
-1e+20
146
0.0
 13
0.0
 23
0.0
 33
0.0
 16
1.0
 26
0.0
 36
0.0
 17
0.0
 27
1.0
 37
0.0
 76
1
330
1B
  0
MATERIAL
  5
1F
102
{ACAD_REACTORS
330
E
102
}
330
E
100
AcDbMaterial
  1
ByBlock
  2

 70
0
 40
1.0
 71
1
 41
1.0
 91
-1023410177
 42
1.0
 72
1
  3

 73
1
 74
1
 75
1
 44
0.5
 73
0
 45
1.0
 46
1.0
 77
1
  4

 78
1
 79
1
170
1
 48
1.0
171
1
  6

172
1
173
1
174
1
140
1.0
141
1.0
175
1
  7

176
1
177
1
178
1
143
1.0
179
1
  8

270
1
271
1
272
1
145
1.0
146
1.0
273
1
  9

274
1
275
1
276
1
 42
1.0
 72
1
  3

 73
1
 74
1
 75
1
 94
63
  0
MATERIAL
  5
20
102
{ACAD_REACTORS
330
E
102
}
330
E
100
AcDbMaterial
  1
ByLayer
  2

 70
0
 40
1.0
 71
1
 41
1.0
 91
-1023410177
 42
1.0
 72
1
  3

 73
1
 74
1
 75
1
 44
0.5
 73
0
 45
1.0
 46
1.0
 77
1
  4

 78
1
 79
1
170
1
 48
1.0
171
1
  6

172
1
173
1
174
1
140
1.0
141
1.0
175
1
  7

176
1
177
1
178
1
143
1.0
179
1
  8

270
1
271
1
272
1
145
1.0
146
1.0
273
1
  9

274
1
275
1
276
1
 42
1.0
 72
1
  3

 73
1
 74
1
 75
1
 94
63
  0
MATERIAL
  5
21
102
{ACAD_REACTORS
330
E
102
}
330
E
100
AcDbMaterial
  1
Global
  2

 70
0
 40
1.0
 71
1
 41
1.0
 91
-1023410177
 42
1.0
 72
1
  3

 73
1
 74
1
 75
1
 44
0.5
 73
0
 45
1.0
 46
1.0
 77
1
  4

 78
1
 79
1
170
1
 48
1.0
171
1
  6

172
1
173
1
174
1
140
1.0
141
1.0
175
1
  7

176
1
177
1
178
1
143
1.0
179
1
  8

270
1
271
1
272
1
145
1.0
146
1.0
273
1
  9

274
1
275
1
276
1
 42
1.0
 72
1
  3

 73
1
 74
1
 75
1
 94
63
  0
MLINESTYLE
  5
22
102
{ACAD_REACTORS
330
10
102
}
330
10
100
AcDbMlineStyle
  2
Standard
 70
0
  3

 62
256
 51
90.0
 52
90.0
 71
2
 49
0.5
 62
256
  6
BYLAYER
 49
-0.5
 62
256
  6
BYLAYER
  0
MLEADERSTYLE
  5
2C
102
{ACAD_REACTORS
330
F
102
}
330
F
100
AcDbMLeaderStyle
179
2
170
2
171
1
172
0
 90
2
 40
0.0
 41
0.0
173
1
 91
-1056964608
 92
-2
290
1
 42
2.0
291
1
 43
8.0
  3
Standard
 44
4.0
300

342
29
174
1
175
1
176
0
178
1
 93
-1056964608
 45
4.0
292
0
297
0
 46
4.0
 94
-1056964608
 47
1.0
 49
1.0
140
1.0
294
1
141
0.0
177
0
142
1.0
295
0
296
0
143
3.75
271
0
272
9
273
9
  0
DICTIONARY
  5
2D
330
A
100
AcDbDictionary
280
1
281
1
  3
CREATED_BY_EZDXF
350
2E
  3
WRITTEN_BY_EZDXF
350
5C
  0
DICTIONARYVAR
  5
2E
330
2D
100
DictionaryVariables
280
0
  1
0.0 @ 2000-01-01T00:00:00.000000+00:00
  0
DICTIONARYVAR
  5
5C
330
2D
100
DictionaryVariables
280
0
  1
0.0 @ 2000-01-01T00:00:00.000000+00:00
  0
ENDSEC
  0
EOF
