<?xml version='1.0' encoding='utf-8'?>
<svg width="393.1mm" height="270.1mm" viewBox="5.95 -298.85 393.1 270.1" version="1.1" xmlns="http://www.w3.org/2000/svg">
  <g transform="scale(1,-1)" stroke-linecap="round">
    <g fill="rgb(0,0,0)" stroke="none" stroke-width="0.09" id="engrave">
      <path d="M 20.5,241.2 L 20.5,83.8 A 30.5,30.5 0.0 0,1 51.0,53.3 L 147.8,53.3 A 30.5,30.5 0.0 0,1 178.3,83.8 L 178.3,241.2 A 30.5,30.5 0.0 0,1 147.8,271.7 L 51.0,271.7 A 30.5,30.5 0.0 0,1 20.5,241.2 M 51.0,66.3 A 17.5,17.5 180.0 0,0 33.5,83.8 L 33.5,241.2 A 17.5,17.5 180.0 0,0 51.0,258.7 L 147.8,258.7 A 17.5,17.5 180.0 0,0 165.3,241.2 L 165.3,83.8 A 17.5,17.5 180.0 0,0 147.8,66.3 L 51.0,66.3" />
      <path d="M 339.5,223.8 A 52.0,52.0 0.0 0,1 235.5,223.8 A 52.0,52.0 0.0 0,1 339.5,223.8 M 336.5,223.8 A 49.0,49.0 0.0 0,0 238.5,223.8 A 49.0,49.0 0.0 0,0 336.5,223.8" />
      <path d="M 214.5,144.8 L 214.5,109.8 A 18.0,18.0 180.0 0,1 232.5,91.8 L 342.5,91.8 A 18.0,18.0 180.0 0,1 360.5,109.8 L 360.5,144.8 A 18.0,18.0 180.0 0,1 342.5,162.8 L 232.5,162.8 A 18.0,18.0 180.0 0,1 214.5,144.8 M 232.5,94.8 A 15.0,15.0 0.0 0,0 217.5,109.8 L 217.5,144.8 A 15.0,15.0 0.0 0,0 232.5,159.8 L 342.5,159.8 A 15.0,15.0 0.0 0,0 357.5,144.8 L 357.5,109.8 A 15.0,15.0 0.0 0,0 342.5,94.8 L 232.5,94.8" />
      <path d="M 119.419426,279.696436 Q 119.529917,279.611928 119.620943,279.624962 Q 119.880943,279.637953 120.06293,279.826457 Q 120.244917,280.014962 120.400943,280.209962 Q 120.725943,280.625945 121.16793,281.022441 Q 121.609917,281.418936 122.019426,281.678936 Q 122.428934,281.938936 122.623934,281.938936 Q 122.766926,281.938936 122.753934,281.685432 Q 122.740943,281.431928 122.688934,280.859962 Q 122.675943,280.456928 122.76043,280.222932 Q 122.844917,279.988936 123.091926,279.819962 Q 123.351926,279.676928 123.592439,279.728936 Q 123.832951,279.780945 124.144917,279.988936 Q 124.274917,280.066928 124.378934,280.261928 Q 124.482951,280.456928 124.404917,280.560945 Q 124.352951,280.586928 124.294447,280.638936 Q 124.235943,280.690945 124.170943,280.729962 Q 124.170943,280.729962 124.034447,280.768957 Q 123.897951,280.807953 123.754917,280.755945 L 123.650943,280.755945 L 123.767951,281.197953 Q 123.793934,281.340945 123.852439,281.626949 Q 123.910943,281.912953 123.910943,282.016928 Q 123.962951,282.705945 123.741926,283.017953 Q 123.598934,283.238936 123.429939,283.362441 Q 123.260943,283.485945 123.104917,283.485945 Q 122.675943,283.485945 122.311926,283.251928 Q 122.246926,283.199962 122.181926,283.154449 Q 122.116926,283.108936 122.090943,283.082953 Q 122.051926,283.069962 122.019426,283.017953 Q 121.986926,282.965945 121.960943,282.926928 Q 121.960943,282.926928 121.837439,282.835945 Q 121.713934,282.744962 121.570943,282.640945 Q 121.414917,282.536928 121.258934,282.406928 Q 121.102951,282.276928 120.894917,282.094962 Q 120.712951,281.925945 120.595943,281.815453 Q 120.478934,281.704962 120.413934,281.626928 Q 120.426926,281.730945 120.45293,281.834941 Q 120.478934,281.938936 120.491926,282.003936 Q 120.530943,282.107953 120.569939,282.250945 Q 120.608934,282.393936 120.621926,282.471928 Q 120.621926,282.471928 120.667439,282.562932 Q 120.712951,282.653936 120.764917,282.757953 Q 120.816926,282.861928 120.888422,283.017932 Q 120.959917,283.173936 120.972951,283.238936 Q 121.167951,283.719962 121.362951,284.291949 Q 121.557951,284.863936 121.759447,285.442441 Q 121.960943,286.020945 122.168934,286.488936 Q 122.324917,286.748936 122.259917,287.028445 Q 122.194917,287.307953 122.025922,287.509449 Q 121.856926,287.710945 121.674917,287.723936 Q 121.557951,287.723936 121.408443,287.626436 Q 121.258934,287.528936 121.258934,287.424962 Q 121.232951,287.320945 121.167951,287.151949 Q 121.102951,286.982953 120.959939,286.592953 Q 120.816926,286.202953 120.530943,285.422953 Q 120.322951,284.824962 120.179939,284.434962 Q 120.036926,284.044962 119.939426,283.745945 Q 119.841926,283.446928 119.750943,283.121928 Q 119.711926,283.017953 119.633934,282.816457 Q 119.555943,282.614962 119.484447,282.400453 Q 119.412951,282.185945 119.386926,282.029962 Q 119.256926,281.626928 119.165922,281.275945 Q 119.074917,280.924962 119.009917,280.716928 Q 118.970943,280.417953 118.996947,280.242441 Q 119.022951,280.066928 119.217951,279.845945 Q 119.308934,279.780945 119.419426,279.696436" />
      <path d="M 74.530472,279.436457 Q 74.731968,279.234962 75.173977,279.052953 Q 75.420943,278.948936 75.778443,278.942441 Q 76.135943,278.935945 76.460943,278.994449 Q 76.785943,279.052953 76.915943,279.117953 Q 77.266968,279.273936 77.435964,279.566436 Q 77.60496,279.858936 77.383977,280.261928 Q 77.357951,280.378936 77.266947,280.495945 Q 77.175943,280.612953 76.948443,280.807953 Q 76.720943,281.002953 76.265943,281.340945 Q 76.04496,281.522953 75.927951,281.639941 Q 75.810943,281.756928 75.797951,281.886928 Q 75.78496,281.990945 75.830451,282.088445 Q 75.875943,282.185945 75.888977,282.302953 Q 75.966968,282.406928 76.096968,282.588936 Q 76.226968,282.770945 76.330964,282.894449 Q 76.43496,283.017953 76.43496,282.952953 Q 76.486968,282.952953 76.506455,282.978957 Q 76.525943,283.004962 76.577951,283.095945 Q 76.707951,283.212953 76.941947,283.362441 Q 77.175943,283.511928 77.390451,283.615945 Q 77.60496,283.719962 77.66996,283.719962 Q 77.838977,283.719962 77.838977,283.602953 Q 77.838977,283.511928 77.741477,283.310432 Q 77.643977,283.108936 77.383977,282.861928 Q 77.383977,282.861928 77.34496,282.816436 Q 77.305943,282.770945 77.305943,282.718936 Q 77.305943,282.666928 77.338443,282.608445 Q 77.370943,282.549962 77.370943,282.549962 Q 77.422951,282.471928 77.487951,282.419941 Q 77.552951,282.367953 77.630943,282.315945 Q 77.747951,282.224962 77.968955,282.328957 Q 78.18996,282.432953 78.436968,282.601928 Q 78.631968,282.770945 78.631968,282.900945 Q 78.631968,282.965945 78.664468,282.972441 Q 78.696968,282.978936 78.696968,282.978936 Q 78.787951,282.978936 78.813955,283.147932 Q 78.83996,283.316928 78.846455,283.544428 Q 78.852951,283.771928 78.852951,283.927953 Q 78.77496,284.096928 78.618955,284.265945 Q 78.462951,284.434962 78.306947,284.532462 Q 78.150943,284.629962 78.046968,284.564962 Q 77.942951,284.629962 77.708955,284.629962 Q 77.47496,284.629962 77.292951,284.590945 Q 76.69496,284.434962 76.23996,284.109962 Q 75.78496,283.784962 75.420943,283.433936 Q 75.147951,283.147953 74.90746,282.770945 Q 74.666968,282.393936 74.666968,282.003936 Q 74.666968,281.795945 74.74496,281.542441 Q 74.822951,281.288936 74.913977,281.288936 L 74.913977,281.223936 Q 74.861968,281.132953 75.095964,280.950945 Q 75.32996,280.768936 75.615943,280.534962 Q 75.732951,280.456928 75.81746,280.391928 Q 75.901968,280.326928 75.927951,280.261928 Q 76.057951,280.261928 76.161968,280.157953 Q 76.226968,280.105945 76.252972,280.060453 Q 76.278977,280.014962 76.213977,279.988936 Q 76.083977,279.923936 75.88246,279.897932 Q 75.680943,279.871928 75.45996,279.871928 Q 74.978977,279.988936 74.751477,279.995432 Q 74.523977,280.001928 74.458977,279.936928 Q 74.393977,279.871928 74.367951,279.793936 Q 74.328977,279.637953 74.530472,279.436457" />
      <path d="M 80.718464,279.137462 Q 81.153977,279.169962 81.543977,279.390945 Q 81.933977,279.611928 82.213464,279.936928 Q 82.492951,280.261928 82.492951,280.430945 Q 82.453977,280.560945 82.323977,280.703936 Q 82.193977,280.846928 82.050943,280.859962 Q 81.89496,280.859962 81.790943,280.781928 Q 81.686968,280.716928 81.530964,280.586928 Q 81.37496,280.456928 81.231968,280.365945 Q 81.036968,280.274962 80.906968,280.229449 Q 80.776968,280.183936 80.477951,280.235945 Q 80.243977,280.300945 80.159468,280.476436 Q 80.07496,280.651928 80.048977,280.885945 Q 80.035943,281.262953 80.133443,281.392953 Q 80.230943,281.522953 80.542951,281.457953 Q 81.062951,281.353936 81.361947,281.379941 Q 81.660943,281.405945 81.881968,281.496928 Q 82.427951,281.730945 82.733464,282.211949 Q 83.038977,282.692953 83.103977,283.108936 Q 83.116968,283.290945 83.051968,283.485945 Q 82.986968,283.680945 82.778977,283.888936 Q 82.67496,284.018936 82.440964,284.129449 Q 82.206968,284.239962 81.907951,284.278936 Q 81.595943,284.304962 81.40746,284.272462 Q 81.218977,284.239962 81.036968,284.174962 Q 80.52996,284.005945 80.100964,283.537953 Q 79.671968,283.069962 79.379468,282.458957 Q 79.086968,281.847953 79.008977,281.249962 Q 78.930943,280.612953 79.047951,280.242441 Q 79.16496,279.871928 79.29496,279.702953 Q 79.528977,279.403936 79.905964,279.254449 Q 80.282951,279.104962 80.718464,279.137462 M 81.641455,282.471949 Q 81.465943,282.328936 81.37496,282.289962 Q 81.17996,282.237953 80.874468,282.276949 Q 80.568977,282.315945 80.503977,282.406928 Q 80.555943,282.510945 80.72496,282.712441 Q 80.893977,282.913936 81.095472,283.095945 Q 81.296968,283.277953 81.426968,283.316928 Q 81.725943,283.381928 81.914447,283.277932 Q 82.102951,283.173936 82.102951,283.030945 Q 82.102951,282.939962 81.95996,282.777462 Q 81.816968,282.614962 81.641455,282.471949" />
      <path d="M 83.480985,279.124449 Q 83.675985,278.922953 83.922951,278.987953 Q 84.026968,279.039962 84.124468,279.208957 Q 84.221968,279.377953 84.221968,279.689962 Q 84.221968,280.053936 84.39746,280.651949 Q 84.572951,281.249962 84.780985,281.964962 Q 84.988977,282.523936 84.988977,282.653936 Q 84.988977,282.653936 84.995472,282.725432 Q 85.001968,282.796928 85.053977,282.796928 Q 85.105985,282.848936 85.112481,282.900945 Q 85.118977,282.952953 85.118977,283.004962 Q 85.118977,283.030945 85.183977,283.193445 Q 85.248977,283.355945 85.346477,283.583445 Q 85.443977,283.810945 85.534981,284.012441 Q 85.625985,284.213936 85.677951,284.317953 Q 85.72996,284.473936 85.775472,284.577932 Q 85.820985,284.681928 85.820985,284.733936 Q 85.820985,284.785945 85.937972,285.013445 Q 86.05496,285.240945 86.158977,285.500945 Q 86.405985,286.020945 86.522972,286.287441 Q 86.63996,286.553936 86.685472,286.709941 Q 86.730985,286.865945 86.730985,287.034962 Q 86.730985,287.190945 86.633485,287.307953 Q 86.535985,287.424962 86.431968,287.515945 Q 86.327951,287.619962 86.275964,287.671949 Q 86.223977,287.723936 86.223977,287.723936 Q 86.171968,287.723936 86.028977,287.704449 Q 85.885985,287.684962 85.846968,287.645945 Q 85.742951,287.645945 85.66496,287.554941 Q 85.586968,287.463936 85.586968,287.359962 Q 85.586968,287.294962 85.489468,286.989449 Q 85.391968,286.683936 85.235964,286.241949 Q 85.07996,285.799962 84.904468,285.344962 Q 84.728977,284.889962 84.579468,284.519449 Q 84.42996,284.148936 84.338977,283.979962 Q 84.338977,283.927953 84.306477,283.875945 Q 84.273977,283.823936 84.273977,283.771928 Q 84.273977,283.719962 84.241477,283.635453 Q 84.208977,283.550945 84.208977,283.485945 Q 84.156968,283.433936 84.111477,283.303936 Q 84.065985,283.173936 84.065985,283.069962 Q 84.065985,282.978936 84.026968,282.887932 Q 83.987951,282.796928 83.935985,282.796928 Q 83.90996,282.744962 83.825472,282.530453 Q 83.740985,282.315945 83.649981,282.042953 Q 83.558977,281.769962 83.480964,281.516457 Q 83.402951,281.262953 83.376968,281.132953 Q 83.376968,281.041928 83.337972,280.892441 Q 83.298977,280.742953 83.233977,280.586928 Q 83.12996,280.105945 83.207972,279.715945 Q 83.285985,279.325945 83.480985,279.124449" />
      <path d="M 85.937994,277.681436 Q 86.210985,277.505945 86.288977,277.557953 Q 86.353977,277.622953 86.386477,277.746457 Q 86.418977,277.869962 86.431968,278.038936 L 86.470985,278.415945 Q 86.470985,278.623936 86.490494,278.838445 Q 86.510002,279.052953 86.522994,279.182953 Q 86.535985,279.221928 86.535985,279.260945 Q 86.535985,279.299962 86.535985,279.312953 Q 86.535985,279.364962 86.548977,279.449449 Q 86.561968,279.533936 86.613977,279.637953 Q 86.613977,279.741928 86.626989,279.878445 Q 86.640002,280.014962 86.717994,280.105945 Q 86.717994,280.183936 86.763485,280.424449 Q 86.808977,280.664962 86.867481,280.944449 Q 86.925985,281.223936 86.984489,281.464449 Q 87.042994,281.704962 87.068977,281.782953 Q 87.133977,281.886928 87.133977,282.055945 Q 87.133977,282.094962 87.166477,282.166457 Q 87.198977,282.237953 87.250985,282.237953 Q 87.263977,282.289962 87.484981,282.348445 Q 87.705985,282.406928 87.998485,282.465432 Q 88.290985,282.523936 88.525002,282.575945 Q 88.797994,282.627953 89.077481,282.718957 Q 89.356968,282.809962 89.370002,282.861928 Q 89.395985,282.939962 89.363485,283.102462 Q 89.330985,283.264962 89.265985,283.427462 Q 89.200985,283.589962 89.096968,283.654962 Q 88.927994,283.706928 88.849981,283.706928 Q 88.771968,283.706928 88.590002,283.654962 Q 88.277994,283.563936 87.952994,283.524941 Q 87.627994,283.485945 87.627994,283.563936 Q 87.627994,283.589962 87.692994,283.745945 Q 87.757994,283.901928 87.816498,284.051436 Q 87.875002,284.200945 87.875002,284.200945 L 87.887994,284.226928 Q 87.991968,284.330945 88.108977,284.629962 Q 88.212994,284.811928 88.258485,284.941928 Q 88.303977,285.071928 88.303977,285.071928 Q 88.381968,285.071928 88.381968,285.201928 Q 88.381968,285.318936 88.602994,285.630945 Q 88.745985,285.799962 88.817481,285.936457 Q 88.888977,286.072953 88.888977,286.072953 Q 88.888977,286.137953 89.038485,286.300453 Q 89.187994,286.462953 89.356989,286.618957 Q 89.525985,286.774962 89.577994,286.800945 Q 89.863977,286.826928 89.909489,286.670945 Q 89.955002,286.514962 89.850985,286.345945 Q 89.720985,286.150945 89.642994,285.825945 Q 89.642994,285.825945 89.636498,285.747953 Q 89.630002,285.669962 89.630002,285.578936 Q 89.630002,285.383936 89.798998,285.344941 Q 89.967994,285.305945 90.123977,285.396928 Q 90.201968,285.409962 90.370985,285.650453 Q 90.540002,285.890945 90.721989,286.196436 Q 90.903977,286.501928 90.995002,286.709962 Q 91.060002,286.813936 91.060002,286.969941 Q 91.060002,287.125945 90.930002,287.294962 Q 90.552994,287.632953 90.364489,287.743445 Q 90.175985,287.853936 89.928977,287.853936 Q 89.655985,287.853936 89.408977,287.762932 Q 89.161968,287.671928 88.875985,287.528936 Q 88.720002,287.411928 88.460002,287.164941 Q 88.200002,286.917953 87.972502,286.651457 Q 87.745002,286.384962 87.653977,286.202953 Q 87.550002,286.072953 87.452502,285.838957 Q 87.355002,285.604962 87.276968,285.383936 Q 87.095002,285.058936 86.925985,284.616949 Q 86.756968,284.174962 86.496968,283.433936 Q 86.445002,283.342953 86.380002,283.206457 Q 86.315002,283.069962 86.301968,283.004962 Q 86.120002,282.900945 86.120002,282.666928 Q 86.120002,282.549962 86.048485,282.231457 Q 85.976968,281.912953 85.872994,281.587953 Q 85.833977,281.301928 85.794981,281.132932 Q 85.755985,280.963936 85.730002,280.846928 Q 85.716968,280.807953 85.697481,280.729941 Q 85.677994,280.651928 85.677994,280.638936 Q 85.638977,280.469962 85.586989,280.151457 Q 85.535002,279.832953 85.489489,279.546949 Q 85.443977,279.260945 85.443977,279.182953 Q 85.443977,279.130945 85.437481,279.000945 Q 85.430985,278.870945 85.378977,278.727953 Q 85.340002,278.402953 85.365985,278.285945 Q 85.391968,278.168936 85.482994,278.064962 Q 85.665002,277.856928 85.937994,277.681436" />
      <path d="M 89.480494,279.663936 Q 89.525985,279.455945 89.630002,279.351928 Q 89.850985,279.104962 90.143485,279.195945 Q 90.435985,279.286928 90.552994,279.819962 Q 90.617994,279.923936 90.656989,280.105945 Q 90.695985,280.287953 90.721989,280.463445 Q 90.747994,280.638936 90.773977,280.703936 Q 90.825985,280.872953 90.897481,281.061457 Q 90.968977,281.249962 91.020985,281.353936 Q 91.046968,281.509962 91.118485,281.750453 Q 91.190002,281.990945 91.241968,282.094962 Q 91.385002,282.406928 91.410985,282.575945 Q 91.436968,282.744962 91.332994,282.848936 Q 91.202994,283.056928 90.981989,283.238936 Q 90.760985,283.420945 90.605002,283.368936 Q 90.396968,283.355945 90.396968,283.199962 Q 90.383977,283.147953 90.305985,282.894449 Q 90.227994,282.640945 90.110985,282.296436 Q 89.993977,281.951928 89.876989,281.620432 Q 89.760002,281.288936 89.668977,281.080945 Q 89.630002,280.963936 89.590985,280.833936 Q 89.551968,280.703936 89.565002,280.651928 Q 89.577994,280.599962 89.545494,280.541457 Q 89.512994,280.482953 89.512994,280.378936 Q 89.460985,280.274962 89.447994,280.073445 Q 89.435002,279.871928 89.480494,279.663936" />
      <path d="M 90.767481,284.954941 Q 90.825985,284.720945 91.033977,284.564962 Q 91.215985,284.434962 91.514981,284.506457 Q 91.813977,284.577953 92.008977,284.837953 Q 92.450985,285.370945 92.216968,285.890945 Q 92.086968,286.098936 91.807481,286.215945 Q 91.527994,286.332953 91.371968,286.228936 Q 91.320002,286.215945 91.274489,286.144449 Q 91.228977,286.072953 91.202994,286.033936 Q 91.085985,285.838936 90.988485,285.604941 Q 90.890985,285.370945 90.760985,285.227953 Q 90.708977,285.188936 90.767481,284.954941" />
      <path d="M 93.822481,279.137462 Q 94.257994,279.169962 94.647994,279.390945 Q 95.037994,279.611928 95.317481,279.936928 Q 95.596968,280.261928 95.596968,280.430945 Q 95.557994,280.560945 95.427994,280.703936 Q 95.297994,280.846928 95.15496,280.859962 Q 94.998977,280.859962 94.89496,280.781928 Q 94.790985,280.716928 94.634981,280.586928 Q 94.478977,280.456928 94.335985,280.365945 Q 94.140985,280.274962 94.010985,280.229449 Q 93.880985,280.183936 93.581968,280.235945 Q 93.347994,280.300945 93.263485,280.476436 Q 93.178977,280.651928 93.152994,280.885945 Q 93.13996,281.262953 93.23746,281.392953 Q 93.33496,281.522953 93.646968,281.457953 Q 94.166968,281.353936 94.465964,281.379941 Q 94.76496,281.405945 94.985985,281.496928 Q 95.531968,281.730945 95.837481,282.211949 Q 96.142994,282.692953 96.207994,283.108936 Q 96.220985,283.290945 96.155985,283.485945 Q 96.090985,283.680945 95.882994,283.888936 Q 95.778977,284.018936 95.544981,284.129449 Q 95.310985,284.239962 95.011968,284.278936 Q 94.69996,284.304962 94.511477,284.272462 Q 94.322994,284.239962 94.140985,284.174962 Q 93.633977,284.005945 93.204981,283.537953 Q 92.775985,283.069962 92.483485,282.458957 Q 92.190985,281.847953 92.112994,281.249962 Q 92.03496,280.612953 92.151968,280.242441 Q 92.268977,279.871928 92.398977,279.702953 Q 92.632994,279.403936 93.009981,279.254449 Q 93.386968,279.104962 93.822481,279.137462 M 94.745472,282.471949 Q 94.56996,282.328936 94.478977,282.289962 Q 94.283977,282.237953 93.978485,282.276949 Q 93.672994,282.315945 93.607994,282.406928 Q 93.65996,282.510945 93.828977,282.712441 Q 93.997994,282.913936 94.199489,283.095945 Q 94.400985,283.277953 94.530985,283.316928 Q 94.82996,283.381928 95.018464,283.277932 Q 95.206968,283.173936 95.206968,283.030945 Q 95.206968,282.939962 95.063977,282.777462 Q 94.920985,282.614962 94.745472,282.471949" />
      <path d="M 100.894468,279.345453 Q 101.043977,279.234962 101.303977,279.208936 Q 101.407951,279.234962 101.602951,279.267462 Q 101.797951,279.299962 101.901968,279.312953 Q 102.135985,279.390945 102.467481,279.579449 Q 102.798977,279.767953 103.136968,280.008445 Q 103.47496,280.248936 103.708977,280.495945 Q 103.92996,280.742953 104.150964,281.022441 Q 104.371968,281.301928 104.38496,281.392953 Q 104.38496,281.444962 104.44996,281.529449 Q 104.51496,281.613936 104.57996,281.665945 Q 104.761968,281.964962 104.800964,282.387462 Q 104.83996,282.809962 104.696968,283.082953 Q 104.527951,283.368936 104.313464,283.570432 Q 104.098977,283.771928 103.812951,283.771928 Q 103.591968,283.771928 103.364468,283.726436 Q 103.136968,283.680945 103.097951,283.667953 Q 103.01996,283.654962 102.850964,283.589962 Q 102.681968,283.524962 102.506477,283.440453 Q 102.330985,283.355945 102.226968,283.277953 Q 102.057951,283.160945 101.91496,283.043936 Q 101.771968,282.926928 101.641968,282.796928 L 101.303977,282.419962 L 101.368977,282.705945 Q 101.498977,283.043936 101.622481,283.420945 Q 101.745985,283.797953 101.947481,284.317953 Q 102.148977,284.837953 102.512951,285.617953 Q 102.798977,286.215945 102.954981,286.547441 Q 103.110985,286.878936 103.175985,287.028445 Q 103.240985,287.177953 103.234468,287.242953 Q 103.227951,287.307953 103.188977,287.372953 Q 103.123977,287.476928 102.954981,287.580945 Q 102.785985,287.684962 102.623485,287.749962 Q 102.460985,287.814962 102.395985,287.801928 Q 102.30496,287.762953 102.194468,287.535453 Q 102.083977,287.307953 101.927951,287.086928 Q 101.836968,286.839962 101.700472,286.521457 Q 101.563977,286.202953 101.433977,285.910453 Q 101.303977,285.617953 101.212972,285.403445 Q 101.121968,285.188936 101.121968,285.149962 Q 100.965985,284.707953 100.861968,284.434941 Q 100.757951,284.161928 100.705985,284.122953 Q 100.705985,284.070945 100.647481,283.953936 Q 100.588977,283.836928 100.562951,283.680945 Q 100.562951,283.524962 100.510964,283.407953 Q 100.458977,283.290945 100.458977,283.290945 Q 100.41996,283.264962 100.335472,282.998445 Q 100.250985,282.731928 100.159981,282.361436 Q 100.068977,281.990945 99.990985,281.652953 Q 99.860985,281.184962 99.860985,280.989962 Q 99.860985,280.820945 99.938977,280.749449 Q 100.016968,280.677953 100.133977,280.586928 Q 100.15996,280.469962 100.244468,280.398445 Q 100.328977,280.326928 100.380985,280.300945 Q 100.48496,280.300945 100.634468,280.378936 Q 100.783977,280.456928 100.783977,280.508936 Q 100.783977,280.508936 100.965964,280.723445 Q 101.147951,280.937953 101.303977,281.145945 Q 101.58996,281.522953 101.927972,281.821949 Q 102.265985,282.120945 102.82496,282.471928 Q 103.227951,282.731928 103.422951,282.731928 Q 103.617951,282.731928 103.66996,282.627953 Q 103.73496,282.510945 103.728464,282.400453 Q 103.721968,282.289962 103.585472,282.081949 Q 103.448977,281.873936 103.110985,281.431928 Q 102.681968,281.041928 102.252972,280.710432 Q 101.823977,280.378936 101.466477,280.196949 Q 101.108977,280.014962 100.861968,280.027953 Q 100.80996,280.040945 100.764468,280.027953 Q 100.718977,280.014962 100.718977,279.975945 Q 100.705985,279.936928 100.653977,279.930432 Q 100.601968,279.923936 100.536968,279.923936 Q 100.523977,279.871928 100.543464,279.806928 Q 100.562951,279.741928 100.666968,279.624962 Q 100.74496,279.455945 100.894468,279.345453" />
      <path d="M 106.016477,279.286928 Q 106.113977,279.221928 106.282994,279.221928 Q 106.581968,279.247953 106.893977,279.286949 Q 107.205985,279.325945 107.478977,279.507953 Q 107.855985,279.728936 108.167972,279.988936 Q 108.47996,280.248936 108.80496,280.716928 Q 109.32496,281.457953 109.441968,282.023445 Q 109.558977,282.588936 109.51996,282.978936 Q 109.480985,283.329962 109.357481,283.550945 Q 109.233977,283.771928 108.93496,283.901928 Q 108.73996,284.109962 108.434468,284.109962 Q 108.128977,284.109962 107.842994,284.044962 Q 107.556968,283.979962 107.277481,283.810945 Q 106.997994,283.641928 106.672994,283.368936 Q 106.516968,283.238936 106.328464,283.024449 Q 106.13996,282.809962 105.983977,282.595453 Q 105.827994,282.380945 105.74996,282.250945 Q 105.55496,281.938936 105.444468,281.594449 Q 105.333977,281.249962 105.35996,281.145945 Q 105.385985,281.002953 105.307994,281.002953 Q 105.281968,280.950945 105.255964,280.931436 Q 105.22996,280.911928 105.29496,280.846928 Q 105.29496,280.846928 105.301477,280.749428 Q 105.307994,280.651928 105.268977,280.547953 Q 105.22996,280.326928 105.379468,280.027932 Q 105.528977,279.728936 105.775985,279.468936 Q 105.918977,279.351928 106.016477,279.286928 M 108.018464,281.353957 Q 107.89496,281.054962 107.608977,280.807953 Q 107.04996,280.274962 106.776968,280.378957 Q 106.503977,280.482953 106.555985,280.963936 Q 106.685985,281.574962 107.017481,281.997462 Q 107.348977,282.419962 107.738977,282.744962 Q 107.920985,282.874962 108.037972,282.920453 Q 108.15496,282.965945 108.271968,282.874962 Q 108.34996,282.848936 108.362972,282.673445 Q 108.375985,282.497953 108.356477,282.315945 Q 108.336968,282.133936 108.28496,282.055945 Q 108.141968,281.652953 108.018464,281.353957" />
      <path d="M 110.72246,279.286928 Q 110.81996,279.221928 110.988977,279.221928 Q 111.287951,279.247953 111.59996,279.286949 Q 111.911968,279.325945 112.18496,279.507953 Q 112.561968,279.728936 112.873955,279.988936 Q 113.185943,280.248936 113.510943,280.716928 Q 114.030943,281.457953 114.147951,282.023445 Q 114.26496,282.588936 114.225943,282.978936 Q 114.186968,283.329962 114.063464,283.550945 Q 113.93996,283.771928 113.640943,283.901928 Q 113.445943,284.109962 113.140451,284.109962 Q 112.83496,284.109962 112.548977,284.044962 Q 112.262951,283.979962 111.983464,283.810945 Q 111.703977,283.641928 111.378977,283.368936 Q 111.222951,283.238936 111.034447,283.024449 Q 110.845943,282.809962 110.68996,282.595453 Q 110.533977,282.380945 110.455943,282.250945 Q 110.260943,281.938936 110.150451,281.594449 Q 110.03996,281.249962 110.065943,281.145945 Q 110.091968,281.002953 110.013977,281.002953 Q 109.987951,280.950945 109.961947,280.931436 Q 109.935943,280.911928 110.000943,280.846928 Q 110.000943,280.846928 110.00746,280.749428 Q 110.013977,280.651928 109.97496,280.547953 Q 109.935943,280.326928 110.085451,280.027932 Q 110.23496,279.728936 110.481968,279.468936 Q 110.62496,279.351928 110.72246,279.286928 M 112.724447,281.353957 Q 112.600943,281.054962 112.31496,280.807953 Q 111.755943,280.274962 111.482951,280.378957 Q 111.20996,280.482953 111.261968,280.963936 Q 111.391968,281.574962 111.723464,281.997462 Q 112.05496,282.419962 112.44496,282.744962 Q 112.626968,282.874962 112.743955,282.920453 Q 112.860943,282.965945 112.977951,282.874962 Q 113.055943,282.848936 113.068955,282.673445 Q 113.081968,282.497953 113.06246,282.315945 Q 113.042951,282.133936 112.990943,282.055945 Q 112.847951,281.652953 112.724447,281.353957" />
      <path d="M 115.421947,279.293445 Q 115.590943,279.143936 115.733934,279.117953 Q 116.071926,279.052953 116.656926,279.130945 Q 117.241926,279.208936 117.826926,279.572953 Q 118.242951,279.806928 118.307951,280.021436 Q 118.372951,280.235945 118.372951,280.391928 Q 118.320943,280.547953 118.197439,280.684449 Q 118.073934,280.820945 118.008934,280.716928 Q 118.008934,280.716928 117.891947,280.645432 Q 117.77496,280.573936 117.657951,280.508936 Q 117.527951,280.430945 117.371947,280.359449 Q 117.215943,280.287953 117.072951,280.222953 Q 116.890943,280.170945 116.617951,280.151436 Q 116.34496,280.131928 116.201926,280.144962 Q 115.928934,280.170945 115.87043,280.281436 Q 115.811926,280.391928 115.850943,280.638936 Q 115.941926,281.132953 116.06543,281.633445 Q 116.188934,282.133936 116.370943,282.679962 Q 116.526926,282.939962 116.630943,283.160945 Q 116.73496,283.381928 116.786926,283.433936 Q 116.838934,283.537953 116.884447,283.596457 Q 116.92996,283.654962 117.033934,283.680945 Q 117.137951,283.706928 117.189939,283.706928 Q 117.241926,283.706928 117.410943,283.719962 Q 117.51496,283.719962 117.735943,283.726457 Q 117.956926,283.732953 118.268934,283.784962 Q 118.762951,283.784962 118.866947,283.849962 Q 118.970943,283.914962 118.931926,284.226928 Q 118.905943,284.447953 118.736947,284.590945 Q 118.567951,284.733936 118.190943,284.668936 Q 117.592951,284.577953 117.462951,284.616949 Q 117.332951,284.655945 117.540943,284.941928 Q 117.657951,285.162953 117.794447,285.338445 Q 117.930943,285.513936 118.03496,285.734962 Q 118.151926,285.916928 118.138934,286.033936 Q 118.125943,286.150945 118.021926,286.280945 Q 117.826926,286.449962 117.56043,286.404449 Q 117.293934,286.358936 117.176926,286.254962 Q 117.05996,286.163936 116.981947,286.033936 Q 116.903934,285.903936 116.838934,285.812953 Q 116.708934,285.604962 116.65043,285.487953 Q 116.591926,285.370945 116.500943,285.201928 Q 116.40996,285.045945 116.357951,284.967953 Q 116.305943,284.889962 116.240943,284.746928 Q 116.21496,284.655945 116.162951,284.610453 Q 116.110943,284.564962 116.058934,284.538936 Q 116.01996,284.525945 115.850943,284.512953 Q 115.681926,284.499962 115.506434,284.499962 Q 115.330943,284.499962 115.265943,284.512953 Q 115.213934,284.512953 115.096947,284.317953 Q 114.97996,284.122953 114.97996,284.018936 Q 114.97996,283.966928 115.038443,283.888936 Q 115.096926,283.810945 115.187951,283.784962 L 115.707951,283.641928 L 115.356926,282.887953 Q 115.265943,282.601928 115.135943,282.244428 Q 115.005943,281.886928 114.940943,281.678936 Q 114.888934,281.457953 114.849939,281.080945 Q 114.810943,280.703936 114.817439,280.398445 Q 114.823934,280.092953 114.875943,280.053936 Q 114.875943,280.053936 114.908443,280.014941 Q 114.940943,279.975945 114.940943,279.949962 Q 114.97996,279.819962 115.116455,279.631457 Q 115.252951,279.442953 115.421947,279.293445" />
      <path d="M 325.480558,234.916213 Q 325.712563,234.796213 326.064594,234.764234 Q 326.272563,234.812202 326.488579,235.012202 Q 326.704594,235.212202 326.720584,235.420223 Q 326.592563,235.724234 326.512563,235.900223 Q 326.432563,236.076213 326.400584,236.236213 Q 326.400584,236.236213 326.392589,236.276213 Q 326.384594,236.316213 326.400584,236.332202 Q 326.384594,236.380223 326.368579,236.404234 Q 326.352563,236.428244 326.352563,236.428244 Q 326.448553,236.844234 326.416573,237.436239 Q 326.384594,238.028244 326.416573,238.412202 Q 326.416573,238.492202 326.432563,238.596213 Q 326.448553,238.700223 326.448553,238.764234 Q 326.416573,238.892202 326.216573,239.044208 Q 326.016573,239.196213 325.784568,239.308218 Q 325.552563,239.420223 325.392563,239.420223 Q 325.328553,239.420223 325.056573,239.284234 Q 324.784594,239.148244 324.608553,239.020223 Q 324.416573,238.892202 324.096573,238.652202 Q 323.776573,238.412202 323.504568,238.196213 Q 323.232563,237.980223 323.152563,237.900223 Q 323.024594,237.820223 322.848579,237.684234 Q 322.672563,237.548244 322.544568,237.452228 Q 322.416573,237.356213 322.416573,237.356213 Q 322.416573,237.436213 322.536573,237.652228 Q 322.656573,237.868244 322.768553,238.124234 Q 323.232563,238.876213 323.248579,239.340223 Q 323.264594,239.804234 322.928553,240.092202 Q 322.768553,240.220223 322.456573,240.276213 Q 322.144594,240.332202 322.032563,240.252202 L 322.000584,240.252202 Q 321.936573,240.236213 321.904568,240.172228 Q 321.872563,240.108244 321.888553,240.076213 Q 321.824594,239.724234 321.728579,239.420223 Q 321.632563,239.116213 321.456573,238.700223 Q 321.344594,238.444234 321.224594,238.156239 Q 321.104594,237.868244 321.040584,237.644234 Q 320.960584,237.500223 320.904568,237.380223 Q 320.848553,237.260223 320.784594,237.148244 Q 320.592563,236.700223 320.496573,236.412228 Q 320.400584,236.124234 320.400584,235.740223 Q 320.432563,235.676213 320.584568,235.476213 Q 320.736573,235.276213 320.848553,235.148244 Q 321.008553,235.020223 321.152563,234.924234 Q 321.296573,234.828244 321.424594,234.892202 Q 321.600584,234.892202 321.768579,235.132202 Q 321.936573,235.372202 322.288553,235.756213 Q 322.944594,236.332202 323.568579,236.804208 Q 324.192563,237.276213 324.704594,237.516213 Q 324.912563,237.596213 325.000558,237.540223 Q 325.088553,237.484234 325.120584,237.244234 L 325.120584,236.940223 Q 325.104594,236.652202 325.056573,236.212202 Q 325.008553,235.772202 325.104594,235.404234 Q 325.248553,235.036213 325.480558,234.916213" />
      <path d="M 249.024568,234.580223 Q 249.232563,234.396213 249.408553,234.364234 Q 249.824542,234.284234 250.544542,234.380223 Q 251.264542,234.476213 251.984542,234.924234 Q 252.496573,235.212202 252.576573,235.476213 Q 252.656573,235.740223 252.656573,235.932202 Q 252.592563,236.124234 252.440558,236.292228 Q 252.288553,236.460223 252.208553,236.332202 Q 252.208553,236.332202 252.064568,236.244208 Q 251.920584,236.156213 251.776573,236.076213 Q 251.616573,235.980223 251.424568,235.892228 Q 251.232563,235.804234 251.056573,235.724234 Q 250.832563,235.660223 250.496573,235.636213 Q 250.160584,235.612202 249.984542,235.628244 Q 249.648553,235.660223 249.576547,235.796213 Q 249.504542,235.932202 249.552563,236.236213 Q 249.664542,236.844234 249.816547,237.460223 Q 249.968553,238.076213 250.192563,238.748244 Q 250.384542,239.068244 250.512563,239.340223 Q 250.640584,239.612202 250.704542,239.676213 Q 250.768553,239.804234 250.824568,239.876239 Q 250.880584,239.948244 251.008553,239.980223 Q 251.136573,240.012202 251.200558,240.012202 Q 251.264542,240.012202 251.472563,240.028244 Q 251.600584,240.028244 251.872563,240.036239 Q 252.144542,240.044234 252.528553,240.108244 Q 253.136573,240.108244 253.264568,240.188244 Q 253.392563,240.268244 253.344542,240.652202 Q 253.312563,240.924234 253.104568,241.100223 Q 252.896573,241.276213 252.432563,241.196213 Q 251.696573,241.084234 251.536573,241.132228 Q 251.376573,241.180223 251.632563,241.532202 Q 251.776573,241.804234 251.944568,242.020223 Q 252.112563,242.236213 252.240584,242.508244 Q 252.384542,242.732202 252.368553,242.876213 Q 252.352563,243.020223 252.224542,243.180223 Q 251.984542,243.388244 251.656547,243.332228 Q 251.328553,243.276213 251.184542,243.148244 Q 251.040584,243.036213 250.944568,242.876213 Q 250.848553,242.716213 250.768553,242.604234 Q 250.608553,242.348244 250.536547,242.204234 Q 250.464542,242.060223 250.352563,241.852202 Q 250.240584,241.660223 250.176573,241.564234 Q 250.112563,241.468244 250.032563,241.292202 Q 250.000584,241.180223 249.936573,241.124234 Q 249.872563,241.068244 249.808553,241.036213 Q 249.760584,241.020223 249.552563,241.004234 Q 249.344542,240.988244 249.128553,240.988244 Q 248.912563,240.988244 248.832563,241.004234 Q 248.768553,241.004234 248.624568,240.764234 Q 248.480584,240.524234 248.480584,240.396213 Q 248.480584,240.332202 248.552563,240.236213 Q 248.624542,240.140223 248.736573,240.108244 L 249.376573,239.932202 L 248.944542,239.004234 Q 248.832563,238.652202 248.672563,238.212202 Q 248.512563,237.772202 248.432563,237.516213 Q 248.368553,237.244234 248.320558,236.780223 Q 248.272563,236.316213 248.280558,235.940223 Q 248.288553,235.564234 248.352563,235.516213 Q 248.352563,235.516213 248.392563,235.468218 Q 248.432563,235.420223 248.432563,235.388244 Q 248.480584,235.228244 248.648579,234.996239 Q 248.816573,234.764234 249.024568,234.580223" />
      <path d="M 253.672563,234.972228 Q 253.888553,234.844234 253.952563,234.716213 Q 254.496573,234.364234 255.304568,234.708218 Q 256.112563,235.052202 257.248553,236.204234 Q 257.344542,236.300223 257.448553,236.420223 Q 257.552563,236.540223 257.616573,236.620223 Q 257.632563,236.540223 257.736547,236.276213 Q 257.840532,236.012202 257.904542,235.916213 Q 258.288553,235.180223 258.768553,235.004234 Q 259.248553,234.828244 259.776573,234.892202 Q 259.936573,234.924234 260.072563,235.092228 Q 260.208553,235.260223 260.208553,235.644234 Q 260.208553,235.820223 260.096547,235.900223 Q 259.984542,235.980223 259.856573,235.996213 Q 259.440532,236.060223 259.280532,236.396213 Q 259.072563,236.748244 258.976547,237.228244 Q 258.880532,237.708244 259.088553,238.348244 L 259.360532,239.148244 L 258.768553,239.676213 Q 258.608553,239.820223 258.392563,239.996213 Q 258.176573,240.172202 258.008553,240.316213 Q 257.840532,240.460223 257.792563,240.508244 Q 257.536573,240.716213 257.176573,240.732228 Q 256.816573,240.748244 256.480532,240.524234 Q 256.320532,240.428244 256.072537,240.220223 Q 255.824542,240.012202 255.584542,239.780223 Q 255.344542,239.548244 255.176547,239.356239 Q 255.008553,239.164234 254.976573,239.100223 L 254.848553,238.844234 Q 254.784542,238.844234 254.736547,238.788218 Q 254.688553,238.732202 254.688553,238.668244 Q 254.624542,238.604234 254.496547,238.396239 Q 254.368553,238.188244 254.240532,238.060223 Q 253.936573,237.500223 253.680558,236.956213 Q 253.424542,236.412202 253.296547,236.036213 Q 253.168553,235.660223 253.248553,235.564234 Q 253.312563,235.500223 253.384568,235.364234 Q 253.456573,235.228244 253.456573,235.164234 Q 253.456573,235.100223 253.672563,234.972228 M 255.184542,236.164234 Q 254.944542,236.028244 254.832563,236.044234 Q 254.832563,236.044234 254.944568,236.372228 Q 255.056573,236.700223 255.264542,237.052202 Q 255.920532,238.172202 256.408553,238.756213 Q 256.896573,239.340223 257.216573,239.340223 Q 257.344542,239.340223 257.472537,239.228218 Q 257.600532,239.116213 257.760532,238.748244 L 257.408553,238.172202 Q 257.072563,237.692202 256.720558,237.388218 Q 256.368553,237.084234 255.824542,236.620223 Q 255.424542,236.300223 255.184542,236.164234" />
      <path d="M 259.896521,230.644208 Q 260.016521,230.652202 260.080532,230.652202 Q 260.272563,230.652202 260.512563,230.948218 Q 260.752563,231.244234 260.768553,231.644234 Q 260.768553,231.724234 260.784542,231.908218 Q 260.800532,232.092202 260.864542,232.108244 Q 260.928553,232.108244 260.984542,232.292228 Q 261.040532,232.476213 261.040532,232.668244 Q 261.104542,232.796213 261.152537,233.052228 Q 261.200532,233.308244 261.200532,233.436213 Q 261.280532,233.564234 261.288527,233.748218 Q 261.296521,233.932202 261.296521,233.932202 Q 261.232563,234.012202 261.264542,234.060223 Q 261.296521,234.108244 261.296521,234.108244 Q 261.376521,234.108244 261.472537,234.276239 Q 261.568553,234.444234 261.640558,234.652228 Q 261.712563,234.860223 261.712563,234.956213 Q 261.712563,235.004234 261.752563,235.068218 Q 261.792563,235.132202 261.824542,235.164234 Q 261.968553,235.036213 262.304542,235.036213 Q 262.560532,235.036213 262.864542,235.116213 Q 263.168553,235.196213 263.392537,235.292228 Q 263.616521,235.388244 263.616521,235.420223 Q 263.616521,235.500223 263.656521,235.532228 Q 263.696521,235.564234 263.696521,235.564234 Q 263.824542,235.516213 264.128553,235.636213 Q 264.432563,235.756213 264.728553,235.956213 Q 265.024542,236.156213 265.152563,236.316213 Q 265.216521,236.444234 265.280532,236.548218 Q 265.344542,236.652202 265.408553,236.652202 Q 265.504542,236.748244 265.664542,237.028244 Q 265.824542,237.308244 265.952537,237.628244 Q 266.080532,237.948244 266.080532,238.140223 Q 266.080532,238.604234 265.872537,239.004234 Q 265.664542,239.404234 265.272537,239.636239 Q 264.880532,239.868244 264.312537,239.828244 Q 263.744542,239.788244 263.040532,239.356213 Q 263.008553,239.340223 263.096547,239.460223 Q 263.184542,239.580223 263.296547,239.780223 Q 263.408553,239.980223 263.408553,240.220223 Q 263.472563,240.572202 263.416547,240.740223 Q 263.360532,240.908244 263.232563,241.116213 Q 263.056521,241.244234 262.792537,241.284234 Q 262.528553,241.324234 262.368553,241.164234 Q 262.256521,241.036213 262.224542,240.996213 Q 262.192563,240.956213 262.192563,240.892202 Q 262.192563,240.732202 262.064542,240.348218 Q 261.936521,239.964234 261.744542,239.516213 Q 261.552563,239.036213 261.312563,238.348218 Q 261.072563,237.660223 260.824542,236.940223 Q 260.576521,236.220223 260.408527,235.652228 Q 260.240532,235.084234 260.192563,234.860223 Q 260.192563,234.796213 260.136547,234.604208 Q 260.080532,234.412202 260.080532,234.284234 Q 259.888553,234.124234 259.888553,233.932202 Q 259.888553,233.756213 259.840558,233.532228 Q 259.792563,233.308244 259.712563,233.180223 Q 259.712563,233.100223 259.672563,232.916213 Q 259.632563,232.732202 259.632563,232.668244 Q 259.632563,232.540223 259.584542,232.276213 Q 259.536521,232.012202 259.456521,231.740223 Q 259.376521,231.324234 259.504542,231.092228 Q 259.632563,230.860223 259.696521,230.780223 Q 259.776521,230.636213 259.896521,230.644208 M 262.592537,236.364208 Q 262.256521,236.252202 262.128553,236.252202 Q 261.984542,236.252202 262.048553,236.540223 Q 262.112563,236.828244 262.312563,237.204234 Q 262.512563,237.580223 262.768553,237.852202 Q 263.280532,238.364234 263.776547,238.588218 Q 264.272563,238.812202 264.480532,238.492202 Q 264.752563,238.060223 264.520558,237.708218 Q 264.288553,237.356213 263.872563,236.988244 Q 263.664542,236.812202 263.296547,236.644208 Q 262.928553,236.476213 262.592537,236.364208" />
      <path d="M 271.376547,234.580223 Q 271.584542,234.396213 271.760532,234.364234 Q 272.176521,234.284234 272.896521,234.380223 Q 273.616521,234.476213 274.336521,234.924234 Q 274.848553,235.212202 274.928553,235.476213 Q 275.008553,235.740223 275.008553,235.932202 Q 274.944542,236.124234 274.792537,236.292228 Q 274.640532,236.460223 274.560532,236.332202 Q 274.560532,236.332202 274.416547,236.244208 Q 274.272563,236.156213 274.128553,236.076213 Q 273.968553,235.980223 273.776547,235.892228 Q 273.584542,235.804234 273.408553,235.724234 Q 273.184542,235.660223 272.848553,235.636213 Q 272.512563,235.612202 272.336521,235.628244 Q 272.000532,235.660223 271.928527,235.796213 Q 271.856521,235.932202 271.904542,236.236213 Q 272.016521,236.844234 272.168527,237.460223 Q 272.320532,238.076213 272.544542,238.748244 Q 272.736521,239.068244 272.864542,239.340223 Q 272.992563,239.612202 273.056521,239.676213 Q 273.120532,239.804234 273.176547,239.876239 Q 273.232563,239.948244 273.360532,239.980223 Q 273.488553,240.012202 273.552537,240.012202 Q 273.616521,240.012202 273.824542,240.028244 Q 273.952563,240.028244 274.224542,240.036239 Q 274.496521,240.044234 274.880532,240.108244 Q 275.488553,240.108244 275.616547,240.188244 Q 275.744542,240.268244 275.696521,240.652202 Q 275.664542,240.924234 275.456547,241.100223 Q 275.248553,241.276213 274.784542,241.196213 Q 274.048553,241.084234 273.888553,241.132228 Q 273.728553,241.180223 273.984542,241.532202 Q 274.128553,241.804234 274.296547,242.020223 Q 274.464542,242.236213 274.592563,242.508244 Q 274.736521,242.732202 274.720532,242.876213 Q 274.704542,243.020223 274.576521,243.180223 Q 274.336521,243.388244 274.008527,243.332228 Q 273.680532,243.276213 273.536521,243.148244 Q 273.392563,243.036213 273.296547,242.876213 Q 273.200532,242.716213 273.120532,242.604234 Q 272.960532,242.348244 272.888527,242.204234 Q 272.816521,242.060223 272.704542,241.852202 Q 272.592563,241.660223 272.528553,241.564234 Q 272.464542,241.468244 272.384542,241.292202 Q 272.352563,241.180223 272.288553,241.124234 Q 272.224542,241.068244 272.160532,241.036213 Q 272.112563,241.020223 271.904542,241.004234 Q 271.696521,240.988244 271.480532,240.988244 Q 271.264542,240.988244 271.184542,241.004234 Q 271.120532,241.004234 270.976547,240.764234 Q 270.832563,240.524234 270.832563,240.396213 Q 270.832563,240.332202 270.904542,240.236213 Q 270.976521,240.140223 271.088553,240.108244 L 271.728553,239.932202 L 271.296521,239.004234 Q 271.184542,238.652202 271.024542,238.212202 Q 270.864542,237.772202 270.784542,237.516213 Q 270.720532,237.244234 270.672537,236.780223 Q 270.624542,236.316213 270.632537,235.940223 Q 270.640532,235.564234 270.704542,235.516213 Q 270.704542,235.516213 270.744542,235.468218 Q 270.784542,235.420223 270.784542,235.388244 Q 270.832563,235.228244 271.000558,234.996239 Q 271.168553,234.764234 271.376547,234.580223" />
      <path d="M 276.296521,235.076213 Q 276.432511,234.972202 276.544542,234.988244 Q 276.864542,235.004234 277.088527,235.236239 Q 277.312511,235.468244 277.504542,235.708244 Q 277.904542,236.220223 278.448527,236.708218 Q 278.992511,237.196213 279.496521,237.516213 Q 280.000532,237.836213 280.240532,237.836213 Q 280.416521,237.836213 280.400532,237.524208 Q 280.384542,237.212202 280.320532,236.508244 Q 280.304542,236.012202 280.408527,235.724208 Q 280.512511,235.436213 280.816521,235.228244 Q 281.136521,235.052202 281.432537,235.116213 Q 281.728553,235.180223 282.112511,235.436213 Q 282.272511,235.532202 282.400532,235.772202 Q 282.528553,236.012202 282.432511,236.140223 Q 282.368553,236.172202 282.296547,236.236213 Q 282.224542,236.300223 282.144542,236.348244 Q 282.144542,236.348244 281.976547,236.396239 Q 281.808553,236.444234 281.632511,236.380223 L 281.504542,236.380223 L 281.648553,236.924234 Q 281.680532,237.100223 281.752537,237.452228 Q 281.824542,237.804234 281.824542,237.932202 Q 281.888553,238.780223 281.616521,239.164234 Q 281.440532,239.436213 281.232537,239.588218 Q 281.024542,239.740223 280.832511,239.740223 Q 280.304542,239.740223 279.856521,239.452202 Q 279.776521,239.388244 279.696521,239.332228 Q 279.616521,239.276213 279.584542,239.244234 Q 279.536521,239.228244 279.496521,239.164234 Q 279.456521,239.100223 279.424542,239.052202 Q 279.424542,239.052202 279.272537,238.940223 Q 279.120532,238.828244 278.944542,238.700223 Q 278.752511,238.572202 278.560532,238.412202 Q 278.368553,238.252202 278.112511,238.028244 Q 277.888553,237.820223 277.744542,237.684234 Q 277.600532,237.548244 277.520532,237.452202 Q 277.536521,237.580223 277.568527,237.708218 Q 277.600532,237.836213 277.616521,237.916213 Q 277.664542,238.044234 277.712537,238.220223 Q 277.760532,238.396213 277.776521,238.492202 Q 277.776521,238.492202 277.832537,238.604208 Q 277.888553,238.716213 277.952511,238.844234 Q 278.016521,238.972202 278.104516,239.164208 Q 278.192511,239.356213 278.208553,239.436213 Q 278.448553,240.028244 278.688553,240.732228 Q 278.928553,241.436213 279.176547,242.148218 Q 279.424542,242.860223 279.680532,243.436213 Q 279.872511,243.756213 279.792511,244.100223 Q 279.712511,244.444234 279.504516,244.692228 Q 279.296521,244.940223 279.072511,244.956213 Q 278.928553,244.956213 278.744542,244.836213 Q 278.560532,244.716213 278.560532,244.588244 Q 278.528553,244.460223 278.448553,244.252228 Q 278.368553,244.044234 278.192537,243.564234 Q 278.016521,243.084234 277.664542,242.124234 Q 277.408553,241.388244 277.232537,240.908244 Q 277.056521,240.428244 276.936521,240.060223 Q 276.816521,239.692202 276.704542,239.292202 Q 276.656521,239.164234 276.560532,238.916239 Q 276.464542,238.668244 276.376547,238.404234 Q 276.288553,238.140223 276.256521,237.948244 Q 276.096521,237.452202 275.984516,237.020223 Q 275.872511,236.588244 275.792511,236.332202 Q 275.744542,235.964234 275.776547,235.748218 Q 275.808553,235.532202 276.048553,235.260223 Q 276.160532,235.180223 276.296521,235.076213" />
      <path d="M 285.560558,234.388244 Q 286.096573,234.428244 286.576573,234.700223 Q 287.056573,234.972202 287.400558,235.372202 Q 287.744542,235.772202 287.744542,235.980223 Q 287.696573,236.140223 287.536573,236.316213 Q 287.376573,236.492202 287.200532,236.508244 Q 287.008553,236.508244 286.880532,236.412202 Q 286.752563,236.332202 286.560558,236.172202 Q 286.368553,236.012202 286.192563,235.900223 Q 285.952563,235.788244 285.792563,235.732228 Q 285.632563,235.676213 285.264542,235.740223 Q 284.976573,235.820223 284.872563,236.036213 Q 284.768553,236.252202 284.736573,236.540223 Q 284.720532,237.004234 284.840532,237.164234 Q 284.960532,237.324234 285.344542,237.244234 Q 285.984542,237.116213 286.352537,237.148218 Q 286.720532,237.180223 286.992563,237.292202 Q 287.664542,237.580223 288.040558,238.172228 Q 288.416573,238.764234 288.496573,239.276213 Q 288.512563,239.500223 288.432563,239.740223 Q 288.352563,239.980223 288.096573,240.236213 Q 287.968553,240.396213 287.680558,240.532228 Q 287.392563,240.668244 287.024542,240.716213 Q 286.640532,240.748244 286.408553,240.708244 Q 286.176573,240.668244 285.952563,240.588244 Q 285.328553,240.380223 284.800558,239.804234 Q 284.272563,239.228244 283.912563,238.476239 Q 283.552563,237.724234 283.456573,236.988244 Q 283.360532,236.204234 283.504542,235.748218 Q 283.648553,235.292202 283.808553,235.084234 Q 284.096573,234.716213 284.560558,234.532228 Q 285.024542,234.348244 285.560558,234.388244 M 286.696547,238.492228 Q 286.480532,238.316213 286.368553,238.268244 Q 286.128553,238.204234 285.752563,238.252228 Q 285.376573,238.300223 285.296573,238.412202 Q 285.360532,238.540223 285.568553,238.788218 Q 285.776573,239.036213 286.024568,239.260223 Q 286.272563,239.484234 286.432563,239.532202 Q 286.800532,239.612202 287.032537,239.484208 Q 287.264542,239.356213 287.264542,239.180223 Q 287.264542,239.068244 287.088553,238.868244 Q 286.912563,238.668244 286.696547,238.492228" />
      <path d="M 292.760558,234.756239 Q 293.008553,234.508244 293.552563,234.284234 Q 293.856521,234.156213 294.296521,234.148218 Q 294.736521,234.140223 295.136521,234.212228 Q 295.536521,234.284234 295.696521,234.364234 Q 296.128553,234.556213 296.336547,234.916213 Q 296.544542,235.276213 296.272563,235.772202 Q 296.240532,235.916213 296.128527,236.060223 Q 296.016521,236.204234 295.736521,236.444234 Q 295.456521,236.684234 294.896521,237.100223 Q 294.624542,237.324234 294.480532,237.468218 Q 294.336521,237.612202 294.320532,237.772202 Q 294.304542,237.900223 294.360532,238.020223 Q 294.416521,238.140223 294.432563,238.284234 Q 294.528553,238.412202 294.688553,238.636213 Q 294.848553,238.860223 294.976547,239.012228 Q 295.104542,239.164234 295.104542,239.084234 Q 295.168553,239.084234 295.192537,239.116239 Q 295.216521,239.148244 295.280532,239.260223 Q 295.440532,239.404234 295.728527,239.588218 Q 296.016521,239.772202 296.280532,239.900223 Q 296.544542,240.028244 296.624542,240.028244 Q 296.832563,240.028244 296.832563,239.884234 Q 296.832563,239.772202 296.712563,239.524208 Q 296.592563,239.276213 296.272563,238.972202 Q 296.272563,238.972202 296.224542,238.916213 Q 296.176521,238.860223 296.176521,238.796213 Q 296.176521,238.732202 296.216521,238.660223 Q 296.256521,238.588244 296.256521,238.588244 Q 296.320532,238.492202 296.400532,238.428218 Q 296.480532,238.364234 296.576521,238.300223 Q 296.720532,238.188244 296.992537,238.316239 Q 297.264542,238.444234 297.568553,238.652202 Q 297.808553,238.860223 297.808553,239.020223 Q 297.808553,239.100223 297.848553,239.108218 Q 297.888553,239.116213 297.888553,239.116213 Q 298.000532,239.116213 298.032537,239.324208 Q 298.064542,239.532202 298.072537,239.812202 Q 298.080532,240.092202 298.080532,240.284234 Q 297.984542,240.492202 297.792537,240.700223 Q 297.600532,240.908244 297.408527,241.028244 Q 297.216521,241.148244 297.088553,241.068244 Q 296.960532,241.148244 296.672537,241.148244 Q 296.384542,241.148244 296.160532,241.100223 Q 295.424542,240.908244 294.864542,240.508244 Q 294.304542,240.108244 293.856521,239.676213 Q 293.520532,239.324234 293.224542,238.860223 Q 292.928553,238.396213 292.928553,237.916213 Q 292.928553,237.660223 293.024542,237.348218 Q 293.120532,237.036213 293.232563,237.036213 L 293.232563,236.956213 Q 293.168553,236.844234 293.456547,236.620223 Q 293.744542,236.396213 294.096521,236.108244 Q 294.240532,236.012202 294.344542,235.932202 Q 294.448553,235.852202 294.480532,235.772202 Q 294.640532,235.772202 294.768553,235.644234 Q 294.848553,235.580223 294.880558,235.524234 Q 294.912563,235.468244 294.832563,235.436213 Q 294.672563,235.356213 294.424542,235.324208 Q 294.176521,235.292202 293.904542,235.292202 Q 293.312563,235.436213 293.032563,235.444208 Q 292.752563,235.452202 292.672563,235.372202 Q 292.592563,235.292202 292.560532,235.196213 Q 292.512563,235.004234 292.760558,234.756239" />
      <path d="M 299.320532,234.396213 Q 299.776521,234.236213 300.240532,234.316213 Q 300.464542,234.364234 300.760532,234.492228 Q 301.056521,234.620223 301.288527,234.748218 Q 301.520532,234.876213 301.520532,234.908244 Q 301.520532,235.004234 301.680532,235.004234 Q 301.776521,235.004234 302.008527,235.188218 Q 302.240532,235.372202 302.496547,235.628218 Q 302.752563,235.884234 302.920558,236.108218 Q 303.088553,236.332202 303.056521,236.396213 Q 303.056521,236.396213 303.064542,236.436213 Q 303.072563,236.476213 303.136521,236.476213 Q 303.232563,236.524234 303.160558,236.644234 Q 303.088553,236.764234 302.944542,236.892228 Q 302.800532,237.020223 302.672563,237.052202 Q 302.480532,237.052202 302.280532,237.044208 Q 302.080532,237.036213 301.952563,236.844234 Q 301.824542,236.780223 301.760532,236.644234 Q 301.696521,236.508244 301.616521,236.460223 Q 301.376521,236.284234 301.176521,236.132228 Q 300.976521,235.980223 300.720532,235.852202 Q 300.544542,235.756213 300.280532,235.716213 Q 300.016521,235.676213 299.792563,235.740223 Q 299.744542,235.756213 299.672537,235.964208 Q 299.600532,236.172202 299.696521,236.540223 Q 299.936521,237.484234 300.136521,238.012228 Q 300.336521,238.540223 300.592537,238.836213 Q 300.848553,239.132202 301.248553,239.356213 Q 301.568553,239.484234 301.648553,239.332228 Q 301.728553,239.180223 301.632563,238.732202 Q 301.504542,238.172202 301.504542,238.092202 Q 301.552563,237.964234 301.728553,237.900223 Q 301.904542,237.836213 302.072537,237.836213 Q 302.240532,237.836213 302.240532,237.916213 Q 302.240532,237.996213 302.296547,238.004208 Q 302.352563,238.012202 302.416521,238.012202 Q 302.544542,238.012202 302.728553,238.300223 Q 302.912563,238.588244 302.976521,238.892202 Q 303.072563,239.068244 303.008553,239.364234 Q 302.944542,239.660223 302.824542,239.892228 Q 302.704542,240.124234 302.608553,240.124234 L 302.528553,240.204234 Q 302.528553,240.396213 302.216547,240.540223 Q 301.904542,240.684234 301.648553,240.748244 Q 301.520532,240.748244 301.192537,240.692228 Q 300.864542,240.636213 300.640532,240.540223 Q 300.384542,240.428244 300.064542,240.108244 Q 299.744542,239.788244 299.424542,239.404234 Q 299.056521,238.940223 298.776521,238.268218 Q 298.496521,237.596213 298.360532,236.932228 Q 298.224542,236.268244 298.272563,235.788244 Q 298.272563,235.276213 298.568553,234.916213 Q 298.864542,234.556213 299.320532,234.396213" />
      <path d="M 304.120558,235.100223 Q 304.288553,234.924234 304.432563,234.812202 Q 304.688553,234.556213 304.872563,234.620223 Q 305.056573,234.684234 305.248553,234.940223 Q 305.360532,235.084234 305.408553,235.236239 Q 305.456573,235.388244 305.456573,235.388244 Q 305.456573,235.436213 305.512563,235.684208 Q 305.568553,235.932202 305.648553,236.204208 Q 305.728553,236.476213 305.808553,236.556213 Q 305.936573,236.764234 306.064568,236.876239 Q 306.192563,236.988244 306.304542,237.116213 Q 306.816573,237.676213 307.304568,237.948218 Q 307.792563,238.220223 308.400532,238.572202 Q 308.624542,238.668244 308.784542,238.732228 Q 308.944542,238.796213 309.152563,238.812202 Q 309.408553,238.828244 309.624542,239.036239 Q 309.840532,239.244234 309.840532,239.356213 Q 309.840532,239.356213 309.832537,239.404208 Q 309.824542,239.452202 309.760532,239.452202 Q 309.760532,239.452202 309.672537,239.516213 Q 309.584542,239.580223 309.568553,239.708244 Q 309.472563,239.948244 309.032563,239.988244 Q 308.592563,240.028244 308.224542,239.852202 Q 308.160532,239.820223 307.992537,239.764234 Q 307.824542,239.708244 307.696573,239.628244 Q 307.600532,239.580223 307.344542,239.404234 Q 307.088553,239.228244 306.800558,239.004234 Q 306.512563,238.780223 306.256547,238.548218 Q 306.000532,238.316213 305.904542,238.140223 Q 305.824542,238.124234 305.872537,238.260223 Q 305.920532,238.396213 306.040532,238.612228 Q 306.160532,238.828244 306.240532,239.020223 Q 306.624542,239.772202 306.688553,240.132202 Q 306.752563,240.492202 306.576573,240.636213 Q 306.448553,240.764234 306.104542,240.764234 Q 305.760532,240.764234 305.584542,240.604234 Q 305.424542,240.364234 305.216547,239.876239 Q 305.008553,239.388244 304.816547,238.844234 Q 304.624542,238.300223 304.488553,237.836213 Q 304.352563,237.372202 304.320532,237.180223 Q 304.208553,236.732202 304.128553,236.388218 Q 304.048553,236.044234 304.000532,235.596213 Q 303.952563,235.276213 304.120558,235.100223" />
      <path d="M 311.960558,234.388244 Q 312.496573,234.428244 312.976573,234.700223 Q 313.456573,234.972202 313.800558,235.372202 Q 314.144542,235.772202 314.144542,235.980223 Q 314.096573,236.140223 313.936573,236.316213 Q 313.776573,236.492202 313.600532,236.508244 Q 313.408553,236.508244 313.280532,236.412202 Q 313.152563,236.332202 312.960558,236.172202 Q 312.768553,236.012202 312.592563,235.900223 Q 312.352563,235.788244 312.192563,235.732228 Q 312.032563,235.676213 311.664542,235.740223 Q 311.376573,235.820223 311.272563,236.036213 Q 311.168553,236.252202 311.136573,236.540223 Q 311.120532,237.004234 311.240532,237.164234 Q 311.360532,237.324234 311.744542,237.244234 Q 312.384542,237.116213 312.752537,237.148218 Q 313.120532,237.180223 313.392563,237.292202 Q 314.064542,237.580223 314.440558,238.172228 Q 314.816573,238.764234 314.896573,239.276213 Q 314.912563,239.500223 314.832563,239.740223 Q 314.752563,239.980223 314.496573,240.236213 Q 314.368553,240.396213 314.080558,240.532228 Q 313.792563,240.668244 313.424542,240.716213 Q 313.040532,240.748244 312.808553,240.708244 Q 312.576573,240.668244 312.352563,240.588244 Q 311.728553,240.380223 311.200558,239.804234 Q 310.672563,239.228244 310.312563,238.476239 Q 309.952563,237.724234 309.856573,236.988244 Q 309.760532,236.204234 309.904542,235.748218 Q 310.048553,235.292202 310.208553,235.084234 Q 310.496573,234.716213 310.960558,234.532228 Q 311.424542,234.348244 311.960558,234.388244 M 313.096547,238.492228 Q 312.880532,238.316213 312.768553,238.268244 Q 312.528553,238.204234 312.152563,238.252228 Q 311.776573,238.300223 311.696573,238.412202 Q 311.760532,238.540223 311.968553,238.788218 Q 312.176573,239.036213 312.424568,239.260223 Q 312.672563,239.484234 312.832563,239.532202 Q 313.200532,239.612202 313.432537,239.484208 Q 313.664542,239.356213 313.664542,239.180223 Q 313.664542,239.068244 313.488553,238.868244 Q 313.312563,238.668244 313.096547,238.492228" />
      <path d="M 317.304568,234.388244 Q 317.840584,234.428244 318.320584,234.700223 Q 318.800584,234.972202 319.144568,235.372202 Q 319.488553,235.772202 319.488553,235.980223 Q 319.440584,236.140223 319.280584,236.316213 Q 319.120584,236.492202 318.944542,236.508244 Q 318.752563,236.508244 318.624542,236.412202 Q 318.496573,236.332202 318.304568,236.172202 Q 318.112563,236.012202 317.936573,235.900223 Q 317.696573,235.788244 317.536573,235.732228 Q 317.376573,235.676213 317.008553,235.740223 Q 316.720584,235.820223 316.616573,236.036213 Q 316.512563,236.252202 316.480584,236.540223 Q 316.464542,237.004234 316.584542,237.164234 Q 316.704542,237.324234 317.088553,237.244234 Q 317.728553,237.116213 318.096547,237.148218 Q 318.464542,237.180223 318.736573,237.292202 Q 319.408553,237.580223 319.784568,238.172228 Q 320.160584,238.764234 320.240584,239.276213 Q 320.256573,239.500223 320.176573,239.740223 Q 320.096573,239.980223 319.840584,240.236213 Q 319.712563,240.396213 319.424568,240.532228 Q 319.136573,240.668244 318.768553,240.716213 Q 318.384542,240.748244 318.152563,240.708244 Q 317.920584,240.668244 317.696573,240.588244 Q 317.072563,240.380223 316.544568,239.804234 Q 316.016573,239.228244 315.656573,238.476239 Q 315.296573,237.724234 315.200584,236.988244 Q 315.104542,236.204234 315.248553,235.748218 Q 315.392563,235.292202 315.552563,235.084234 Q 315.840584,234.716213 316.304568,234.532228 Q 316.768553,234.348244 317.304568,234.388244 M 318.440558,238.492228 Q 318.224542,238.316213 318.112563,238.268244 Q 317.872563,238.204234 317.496573,238.252228 Q 317.120584,238.300223 317.040584,238.412202 Q 317.104542,238.540223 317.312563,238.788218 Q 317.520584,239.036213 317.768579,239.260223 Q 318.016573,239.484234 318.176573,239.532202 Q 318.544542,239.612202 318.776547,239.484208 Q 319.008553,239.356213 319.008553,239.180223 Q 319.008553,239.068244 318.832563,238.868244 Q 318.656573,238.668244 318.440558,238.492228" />
      <path d="M 309.978038,210.677785 Q 310.514053,210.717785 310.994053,210.989764 Q 311.474053,211.261744 311.818038,211.661744 Q 312.162022,212.061744 312.162022,212.269764 Q 312.114053,212.429764 311.954053,212.605754 Q 311.794053,212.781744 311.618012,212.797785 Q 311.426032,212.797785 311.298012,212.701744 Q 311.170043,212.621744 310.978038,212.461744 Q 310.786032,212.301744 310.610043,212.189764 Q 310.370043,212.077785 310.210043,212.02177 Q 310.050043,211.965754 309.682022,212.029764 Q 309.394053,212.109764 309.290043,212.325754 Q 309.186032,212.541744 309.154053,212.829764 Q 309.138012,213.293775 309.258012,213.453775 Q 309.378012,213.613775 309.762022,213.533775 Q 310.402022,213.405754 310.770017,213.437759 Q 311.138012,213.469764 311.410043,213.581744 Q 312.082022,213.869764 312.458038,214.46177 Q 312.834053,215.053775 312.914053,215.565754 Q 312.930043,215.789764 312.850043,216.029764 Q 312.770043,216.269764 312.514053,216.525754 Q 312.386032,216.685754 312.098038,216.82177 Q 311.810043,216.957785 311.442022,217.005754 Q 311.058012,217.037785 310.826032,216.997785 Q 310.594053,216.957785 310.370043,216.877785 Q 309.746032,216.669764 309.218038,216.093775 Q 308.690043,215.517785 308.330043,214.76578 Q 307.970043,214.013775 307.874053,213.277785 Q 307.778012,212.493775 307.922022,212.037759 Q 308.066032,211.581744 308.226032,211.373775 Q 308.514053,211.005754 308.978038,210.82177 Q 309.442022,210.637785 309.978038,210.677785 M 311.114027,214.78177 Q 310.898012,214.605754 310.786032,214.557785 Q 310.546032,214.493775 310.170043,214.54177 Q 309.794053,214.589764 309.714053,214.701744 Q 309.778012,214.829764 309.986032,215.077759 Q 310.194053,215.325754 310.442048,215.549764 Q 310.690043,215.773775 310.850043,215.821744 Q 311.218012,215.901744 311.450017,215.773749 Q 311.682022,215.645754 311.682022,215.469764 Q 311.682022,215.357785 311.506032,215.157785 Q 311.330043,214.957785 311.114027,214.78177" />
      <path d="M 262.538064,211.26177 Q 262.754053,211.133775 262.818064,211.005754 Q 263.362074,210.653775 264.170069,210.997759 Q 264.978064,211.341744 266.114053,212.493775 Q 266.210043,212.589764 266.314053,212.709764 Q 266.418064,212.829764 266.482074,212.909764 Q 266.498064,212.829764 266.602048,212.565754 Q 266.706032,212.301744 266.770043,212.205754 Q 267.154053,211.469764 267.634053,211.293775 Q 268.114053,211.117785 268.642074,211.181744 Q 268.802074,211.213775 268.938064,211.38177 Q 269.074053,211.549764 269.074053,211.933775 Q 269.074053,212.109764 268.962048,212.189764 Q 268.850043,212.269764 268.722074,212.285754 Q 268.306032,212.349764 268.146032,212.685754 Q 267.938064,213.037785 267.842048,213.517785 Q 267.746032,213.997785 267.954053,214.637785 L 268.226032,215.437785 L 267.634053,215.965754 Q 267.474053,216.109764 267.258064,216.285754 Q 267.042074,216.461744 266.874053,216.605754 Q 266.706032,216.749764 266.658064,216.797785 Q 266.402074,217.005754 266.042074,217.02177 Q 265.682074,217.037785 265.346032,216.813775 Q 265.186032,216.717785 264.938038,216.509764 Q 264.690043,216.301744 264.450043,216.069764 Q 264.210043,215.837785 264.042048,215.64578 Q 263.874053,215.453775 263.842074,215.389764 L 263.714053,215.133775 Q 263.650043,215.133775 263.602048,215.077759 Q 263.554053,215.021744 263.554053,214.957785 Q 263.490043,214.893775 263.362048,214.68578 Q 263.234053,214.477785 263.106032,214.349764 Q 262.802074,213.789764 262.546058,213.245754 Q 262.290043,212.701744 262.162048,212.325754 Q 262.034053,211.949764 262.114053,211.853775 Q 262.178064,211.789764 262.250069,211.653775 Q 262.322074,211.517785 262.322074,211.453775 Q 262.322074,211.389764 262.538064,211.26177 M 264.050043,212.453775 Q 263.810043,212.317785 263.698064,212.333775 Q 263.698064,212.333775 263.810069,212.66177 Q 263.922074,212.989764 264.130043,213.341744 Q 264.786032,214.461744 265.274053,215.045754 Q 265.762074,215.629764 266.082074,215.629764 Q 266.210043,215.629764 266.338038,215.517759 Q 266.466032,215.405754 266.626032,215.037785 L 266.274053,214.461744 Q 265.938064,213.981744 265.586058,213.677759 Q 265.234053,213.373775 264.690043,212.909764 Q 264.290043,212.589764 264.050043,212.453775" />
      <path d="M 274.474027,211.205754 Q 274.706032,211.085754 275.058064,211.053775 Q 275.266032,211.101744 275.482048,211.301744 Q 275.698064,211.501744 275.714053,211.709764 Q 275.586032,212.013775 275.506032,212.189764 Q 275.426032,212.365754 275.394053,212.525754 Q 275.394053,212.525754 275.386058,212.565754 Q 275.378064,212.605754 275.394053,212.621744 Q 275.378064,212.669764 275.362048,212.693775 Q 275.346032,212.717785 275.346032,212.717785 Q 275.442022,213.133775 275.410043,213.72578 Q 275.378064,214.317785 275.410043,214.701744 Q 275.410043,214.781744 275.426032,214.885754 Q 275.442022,214.989764 275.442022,215.053775 Q 275.410043,215.181744 275.210043,215.333749 Q 275.010043,215.485754 274.778038,215.597759 Q 274.546032,215.709764 274.386032,215.709764 Q 274.322022,215.709764 274.050043,215.573775 Q 273.778064,215.437785 273.602022,215.309764 Q 273.410043,215.181744 273.090043,214.941744 Q 272.770043,214.701744 272.498038,214.485754 Q 272.226032,214.269764 272.146032,214.189764 Q 272.018064,214.109764 271.842048,213.973775 Q 271.666032,213.837785 271.538038,213.74177 Q 271.410043,213.645754 271.410043,213.645754 Q 271.410043,213.725754 271.530043,213.94177 Q 271.650043,214.157785 271.762022,214.413775 Q 272.226032,215.165754 272.242048,215.629764 Q 272.258064,216.093775 271.922022,216.381744 Q 271.762022,216.509764 271.450043,216.565754 Q 271.138064,216.621744 271.026032,216.541744 L 270.994053,216.541744 Q 270.930043,216.525754 270.898038,216.46177 Q 270.866032,216.397785 270.882022,216.365754 Q 270.818064,216.013775 270.722048,215.709764 Q 270.626032,215.405754 270.450043,214.989764 Q 270.338064,214.733775 270.218064,214.44578 Q 270.098064,214.157785 270.034053,213.933775 Q 269.954053,213.789764 269.898038,213.669764 Q 269.842022,213.549764 269.778064,213.437785 Q 269.586032,212.989764 269.490043,212.70177 Q 269.394053,212.413775 269.394053,212.029764 Q 269.426032,211.965754 269.578038,211.765754 Q 269.730043,211.565754 269.842022,211.437785 Q 270.002022,211.309764 270.146032,211.213775 Q 270.290043,211.117785 270.418064,211.181744 Q 270.594053,211.181744 270.762048,211.421744 Q 270.930043,211.661744 271.282022,212.045754 Q 271.938064,212.621744 272.562048,213.093749 Q 273.186032,213.565754 273.698064,213.805754 Q 273.906032,213.885754 273.994027,213.829764 Q 274.082022,213.773775 274.114053,213.533775 L 274.114053,213.229764 Q 274.098064,212.941744 274.050043,212.501744 Q 274.002022,212.061744 274.098064,211.693775 Q 274.242022,211.325754 274.474027,211.205754" />
      <path d="M 280.890043,210.469764 Q 281.090043,210.317785 281.298064,210.365754 Q 281.474053,210.381744 281.650043,210.437759 Q 281.826032,210.493775 281.922048,210.653775 Q 282.018064,210.813775 281.922074,211.133775 Q 281.890043,211.261744 281.874053,211.701744 Q 281.858064,212.141744 281.882048,212.709764 Q 281.906032,213.277785 281.962048,213.82177 Q 282.018064,214.365754 282.114053,214.717785 Q 282.274053,215.277785 282.514053,216.013775 Q 282.754053,216.749764 283.034053,217.50177 Q 283.314053,218.253775 283.594053,218.88578 Q 283.874053,219.517785 284.082074,219.901744 Q 284.258064,220.221744 284.130043,220.541744 Q 284.050043,220.765754 283.786058,220.893749 Q 283.522074,221.021744 283.346032,221.021744 Q 283.218064,221.037785 283.042048,220.893775 Q 282.866032,220.749764 282.690043,220.381744 Q 282.450043,219.869764 282.154053,219.18177 Q 281.858064,218.493775 281.458064,217.277785 Q 281.314053,216.829764 281.234053,216.605754 Q 281.154053,216.381744 281.090043,216.125754 Q 281.058064,215.949764 280.930069,215.917759 Q 280.802074,215.885754 280.514053,216.029764 Q 279.906032,216.365754 279.122048,216.165754 Q 278.338064,215.965754 277.810043,215.165754 Q 277.506032,214.829764 277.274053,214.365754 Q 277.042074,213.901744 276.890069,213.421744 Q 276.738064,212.941744 276.698064,212.541744 Q 276.658064,212.141744 276.754053,211.917785 Q 276.834053,211.757785 277.034053,211.509764 Q 277.234053,211.261744 277.482048,211.061744 Q 277.730043,210.861744 277.906032,210.829764 Q 278.290043,210.829764 278.762048,211.045754 Q 279.234053,211.261744 279.778064,211.773775 L 280.434053,212.365754 L 280.450043,211.821744 Q 280.466032,211.517785 280.490043,211.28578 Q 280.514053,211.053775 280.610043,210.797785 Q 280.690043,210.621744 280.890043,210.469764 M 279.058064,212.493749 Q 278.882074,212.381744 278.658064,212.301744 Q 278.354053,212.189764 278.210043,212.253775 Q 278.066032,212.317785 278.098064,212.477785 Q 278.274053,213.341744 278.546058,213.805754 Q 278.818064,214.269764 279.202074,214.621744 Q 279.554053,214.941744 279.826058,214.965754 Q 280.098064,214.989764 280.274053,214.845754 Q 280.642074,214.525754 280.514053,214.093775 Q 280.386032,213.693775 280.170043,213.42177 Q 279.954053,213.149764 279.474053,212.781744 Q 279.234053,212.605754 279.058064,212.493749" />
      <path d="M 287.274027,211.04578 Q 287.522022,210.797785 288.066032,210.573775 Q 288.369991,210.445754 288.809991,210.437759 Q 289.249991,210.429764 289.649991,210.50177 Q 290.049991,210.573775 290.209991,210.653775 Q 290.642022,210.845754 290.850017,211.205754 Q 291.058012,211.565754 290.786032,212.061744 Q 290.754001,212.205754 290.641996,212.349764 Q 290.529991,212.493775 290.249991,212.733775 Q 289.969991,212.973775 289.409991,213.389764 Q 289.138012,213.613775 288.994001,213.757759 Q 288.849991,213.901744 288.834001,214.061744 Q 288.818012,214.189764 288.874001,214.309764 Q 288.929991,214.429764 288.946032,214.573775 Q 289.042022,214.701744 289.202022,214.925754 Q 289.362022,215.149764 289.490017,215.30177 Q 289.618012,215.453775 289.618012,215.373775 Q 289.682022,215.373775 289.706006,215.40578 Q 289.729991,215.437785 289.794001,215.549764 Q 289.954001,215.693775 290.241996,215.877759 Q 290.529991,216.061744 290.794001,216.189764 Q 291.058012,216.317785 291.138012,216.317785 Q 291.346032,216.317785 291.346032,216.173775 Q 291.346032,216.061744 291.226032,215.813749 Q 291.106032,215.565754 290.786032,215.261744 Q 290.786032,215.261744 290.738012,215.205754 Q 290.689991,215.149764 290.689991,215.085754 Q 290.689991,215.021744 290.729991,214.949764 Q 290.769991,214.877785 290.769991,214.877785 Q 290.834001,214.781744 290.914001,214.717759 Q 290.994001,214.653775 291.089991,214.589764 Q 291.234001,214.477785 291.506006,214.60578 Q 291.778012,214.733775 292.082022,214.941744 Q 292.322022,215.149764 292.322022,215.309764 Q 292.322022,215.389764 292.362022,215.397759 Q 292.402022,215.405754 292.402022,215.405754 Q 292.514001,215.405754 292.546006,215.613749 Q 292.578012,215.821744 292.586006,216.101744 Q 292.594001,216.381744 292.594001,216.573775 Q 292.498012,216.781744 292.306006,216.989764 Q 292.114001,217.197785 291.921996,217.317785 Q 291.729991,217.437785 291.602022,217.357785 Q 291.474001,217.437785 291.186006,217.437785 Q 290.898012,217.437785 290.674001,217.389764 Q 289.938012,217.197785 289.378012,216.797785 Q 288.818012,216.397785 288.369991,215.965754 Q 288.034001,215.613775 287.738012,215.149764 Q 287.442022,214.685754 287.442022,214.205754 Q 287.442022,213.949764 287.538012,213.637759 Q 287.634001,213.325754 287.746032,213.325754 L 287.746032,213.245754 Q 287.682022,213.133775 287.970017,212.909764 Q 288.258012,212.685754 288.609991,212.397785 Q 288.754001,212.301744 288.858012,212.221744 Q 288.962022,212.141744 288.994001,212.061744 Q 289.154001,212.061744 289.282022,211.933775 Q 289.362022,211.869764 289.394027,211.813775 Q 289.426032,211.757785 289.346032,211.725754 Q 289.186032,211.645754 288.938012,211.613749 Q 288.689991,211.581744 288.418012,211.581744 Q 287.826032,211.725754 287.546032,211.733749 Q 287.266032,211.741744 287.186032,211.661744 Q 287.106032,211.581744 287.074001,211.485754 Q 287.026032,211.293775 287.274027,211.04578" />
      <path d="M 299.922022,211.26177 Q 300.162022,211.085754 300.274001,211.053775 Q 300.546032,211.037785 300.810017,211.069764 Q 301.074001,211.101744 301.314001,211.245754 Q 301.569991,211.405754 301.546006,211.70177 Q 301.522022,211.997785 301.298012,212.109764 Q 301.186032,212.141744 301.058012,212.197759 Q 300.929991,212.253775 300.882022,212.317785 Q 300.818012,212.397785 300.778012,212.773775 Q 300.738012,213.149764 300.706032,213.469764 Q 300.706032,213.981744 300.650017,214.285754 Q 300.594001,214.589764 300.402022,214.765754 Q 300.066032,215.213775 299.594027,215.04578 Q 299.122022,214.877785 298.322022,214.269764 Q 298.066032,214.109764 297.858012,213.90177 Q 297.649991,213.693775 297.649991,213.693775 Q 297.649991,213.693775 297.698012,213.84578 Q 297.746032,213.997785 297.794027,214.173775 Q 297.842022,214.349764 297.858012,214.413775 Q 297.889991,214.573775 297.946006,214.76578 Q 298.002022,214.957785 297.922022,215.197785 Q 297.858012,215.357785 297.626006,215.58177 Q 297.394001,215.805754 297.122022,215.853775 Q 296.802022,215.757785 296.274027,215.397785 Q 295.746032,215.037785 295.329991,214.669764 Q 295.169991,214.541744 294.986006,214.373749 Q 294.802022,214.205754 294.674027,214.109764 Q 294.546032,214.013775 294.529991,214.061744 Q 294.529991,214.125754 294.561996,214.253749 Q 294.594001,214.381744 294.849991,214.925754 L 295.026032,215.357785 Q 295.074001,215.485754 295.154001,215.677759 Q 295.234001,215.869764 295.218012,216.109764 Q 295.202022,216.365754 295.042022,216.637759 Q 294.882022,216.909764 294.434001,216.957785 Q 294.322022,216.989764 294.130017,216.933775 Q 293.938012,216.877785 293.786006,216.733775 Q 293.634001,216.589764 293.634001,216.349764 Q 293.649991,216.221744 293.666006,216.021744 Q 293.682022,215.821744 293.602022,215.597785 Q 293.426032,215.165754 293.314027,214.90177 Q 293.202022,214.637785 293.130017,214.42177 Q 293.058012,214.205754 292.978012,213.885754 Q 292.754001,212.845754 292.674001,212.373749 Q 292.594001,211.901744 292.689991,211.725754 Q 292.769991,211.469764 293.001996,211.293775 Q 293.234001,211.117785 293.522022,211.101744 Q 293.569991,211.101744 293.778012,211.357759 Q 293.986032,211.613775 294.258012,211.933775 Q 294.529991,212.253775 294.738012,212.445754 Q 295.009991,212.733775 295.249991,212.997759 Q 295.489991,213.261744 295.586032,213.357785 Q 295.682022,213.453775 295.786006,213.58177 Q 295.889991,213.709764 295.954001,213.709764 Q 296.018012,213.805754 296.194001,213.957759 Q 296.369991,214.109764 296.466032,214.125754 Q 296.578012,214.157785 296.538012,214.00578 Q 296.498012,213.853775 296.226032,213.245754 L 295.778012,211.997785 Q 295.746032,211.885754 295.826032,211.725754 Q 295.906032,211.565754 296.018012,211.469764 L 296.178012,211.325754 Q 296.354001,211.165754 296.586006,211.277759 Q 296.818012,211.389764 297.050017,211.62177 Q 297.282022,211.853775 297.474001,212.013775 Q 298.274001,212.861744 298.746006,213.237759 Q 299.218012,213.613775 299.346032,213.597785 Q 299.458012,213.581744 299.402022,213.381744 Q 299.346032,213.181744 299.329991,212.701744 Q 299.314001,212.141744 299.498012,211.789764 Q 299.682022,211.437785 299.922022,211.26177" />
      <path d="M 303.370017,217.837759 Q 303.442022,217.549764 303.698012,217.357785 Q 303.922022,217.197785 304.290017,217.28578 Q 304.658012,217.373775 304.898012,217.693775 Q 305.442022,218.349764 305.154001,218.989764 Q 304.994001,219.245754 304.650017,219.389764 Q 304.306032,219.533775 304.114001,219.405754 Q 304.050043,219.389764 303.994027,219.30177 Q 303.938012,219.213775 303.906032,219.165754 Q 303.762022,218.925754 303.642022,218.637759 Q 303.522022,218.349764 303.362022,218.173775 Q 303.298012,218.125754 303.370017,217.837759" />
      <path d="M 301.786032,211.325754 Q 301.842022,211.069764 301.970043,210.941744 Q 302.242022,210.637785 302.602022,210.749764 Q 302.962022,210.861744 303.106032,211.517785 Q 303.186032,211.645754 303.234027,211.869764 Q 303.282022,212.093775 303.314027,212.309764 Q 303.346032,212.525754 303.378012,212.605754 Q 303.442022,212.813775 303.530017,213.04578 Q 303.618012,213.277785 303.682022,213.405754 Q 303.714001,213.597785 303.802022,213.893775 Q 303.890043,214.189764 303.954001,214.317785 Q 304.130043,214.701744 304.162022,214.909764 Q 304.194001,215.117785 304.066032,215.245754 Q 303.906032,215.501744 303.634027,215.725754 Q 303.362022,215.949764 303.170043,215.885754 Q 302.914001,215.869764 302.914001,215.677785 Q 302.898012,215.613775 302.802022,215.30177 Q 302.706032,214.989764 302.562022,214.565754 Q 302.418012,214.141744 302.274027,213.733749 Q 302.130043,213.325754 302.018012,213.069764 Q 301.970043,212.925754 301.922022,212.765754 Q 301.874001,212.605754 301.890043,212.541744 Q 301.906032,212.477785 301.866032,212.40578 Q 301.826032,212.333775 301.826032,212.205754 Q 301.762022,212.077785 301.746032,211.829764 Q 301.730043,211.581744 301.786032,211.325754" />
      <path d="M 305.186032,210.66177 Q 305.426032,210.413775 305.729991,210.493775 Q 305.858012,210.557785 305.978012,210.76578 Q 306.098012,210.973775 306.098012,211.357785 Q 306.098012,211.805754 306.314001,212.54177 Q 306.529991,213.277785 306.786032,214.157785 Q 307.042022,214.845754 307.042022,215.005754 Q 307.042022,215.005754 307.050017,215.093749 Q 307.058012,215.181744 307.122022,215.181744 Q 307.186032,215.245754 307.194027,215.309764 Q 307.202022,215.373775 307.202022,215.437785 Q 307.202022,215.469764 307.282022,215.669764 Q 307.362022,215.869764 307.482022,216.149764 Q 307.602022,216.429764 307.714027,216.677759 Q 307.826032,216.925754 307.889991,217.053775 Q 307.954001,217.245754 308.010017,217.373749 Q 308.066032,217.501744 308.066032,217.565754 Q 308.066032,217.629764 308.210017,217.909764 Q 308.354001,218.189764 308.482022,218.509764 Q 308.786032,219.149764 308.930017,219.477759 Q 309.074001,219.805754 309.130017,219.997759 Q 309.186032,220.189764 309.186032,220.397785 Q 309.186032,220.589764 309.066032,220.733775 Q 308.946032,220.877785 308.818012,220.989764 Q 308.689991,221.117785 308.626006,221.18177 Q 308.562022,221.245754 308.562022,221.245754 Q 308.498012,221.245754 308.322022,221.22177 Q 308.146032,221.197785 308.098012,221.149764 Q 307.969991,221.149764 307.874001,221.037759 Q 307.778012,220.925754 307.778012,220.797785 Q 307.778012,220.717785 307.658012,220.34177 Q 307.538012,219.965754 307.346006,219.42177 Q 307.154001,218.877785 306.938012,218.317785 Q 306.722022,217.757785 306.538012,217.30177 Q 306.354001,216.845754 306.242022,216.637785 Q 306.242022,216.573775 306.202022,216.509764 Q 306.162022,216.445754 306.162022,216.381744 Q 306.162022,216.317785 306.122022,216.213775 Q 306.082022,216.109764 306.082022,216.029764 Q 306.018012,215.965754 305.962022,215.805754 Q 305.906032,215.645754 305.906032,215.517785 Q 305.906032,215.405754 305.858012,215.293749 Q 305.809991,215.181744 305.746032,215.181744 Q 305.714001,215.117785 305.610017,214.853775 Q 305.506032,214.589764 305.394027,214.253775 Q 305.282022,213.917785 305.186006,213.60578 Q 305.089991,213.293775 305.058012,213.133775 Q 305.058012,213.021744 305.010017,212.837759 Q 304.962022,212.653775 304.882022,212.461744 Q 304.754001,211.869764 304.850017,211.389764 Q 304.946032,210.909764 305.186032,210.66177" />
      <path d="M 287.5,193.711765 C 287.508631,193.88323 287.553797,194.050923 287.606065,194.213678 C 287.693436,194.472375 287.812005,194.715982 287.961774,194.944499 C 288.151914,195.23608 288.382791,195.490789 288.654405,195.708625 C 288.952852,195.946813 289.29652,196.129061 289.662915,196.237818 C 290.050248,196.353467 290.461592,196.386085 290.862621,196.336423 C 291.708364,196.233443 292.499517,195.769591 293.013352,195.091672 C 293.268766,194.755931 293.45531,194.366639 293.548074,193.954562 C 293.642379,193.540602 293.638881,193.106425 293.548074,192.692291 C 293.397352,191.999236 293.020965,191.378345 292.576237,190.835806 C 292.067039,190.216328 291.46758,189.679969 290.862621,189.1571 C 290.279846,188.654588 289.684286,188.166138 289.124751,187.637275 C 288.822244,187.350933 288.529952,187.052154 288.264706,186.730638 C 288.071371,186.497103 287.891884,186.245696 287.744759,185.980636 C 287.692946,185.890068 287.646715,185.794088 287.606065,185.692696 C 287.57731,185.616105 287.552633,185.544477 287.532033,185.47781 C 287.519836,185.439997 287.509288,185.407556 287.50405,185.344961 C 287.502309,185.324147 287.501154,185.3 287.5,185.3 C 287.498846,185.3 287.497691,185.324147 287.49595,185.344961 C 287.490712,185.407556 287.480164,185.439997 287.467967,185.47781 C 287.447367,185.544477 287.42269,185.616105 287.393935,185.692696 C 287.353285,185.794088 287.307054,185.890068 287.255241,185.980636 C 287.108116,186.245696 286.928629,186.497103 286.735294,186.730638 C 286.470048,187.052154 286.177756,187.350933 285.875249,187.637275 C 285.315714,188.166138 284.720154,188.654588 284.137379,189.1571 C 283.53242,189.679969 282.932961,190.216328 282.423763,190.835806 C 281.979035,191.378345 281.602648,191.999236 281.451926,192.692291 C 281.361119,193.106425 281.357621,193.540602 281.451926,193.954562 C 281.54469,194.366639 281.731234,194.755931 281.986648,195.091672 C 282.500483,195.769591 283.291636,196.233443 284.137379,196.336423 C 284.538408,196.386079 284.949752,196.353476 285.337085,196.237818 C 285.70348,196.128978 286.047148,195.946926 286.345595,195.708625 C 286.617209,195.490944 286.848086,195.236235 287.038226,194.944499 C 287.119269,194.818267 287.191607,194.689294 287.255241,194.557581 C 287.308545,194.451929 287.354776,194.337295 287.393935,194.213678 C 287.423348,194.117774 287.448325,194.011077 287.467967,193.943449 C 287.480214,193.901283 287.490386,193.874305 287.49595,193.77101 C 287.497841,193.735897 287.4992,193.691966 287.5,193.711765" />
    </g>
    <g fill="none" stroke="rgb(255,0,0)" stroke-width="0.1" id="cut">
      <line x1="12.0" y1="238.8" x2="12.0" y2="268.8" />
      <line x1="6.0" y1="268.8" x2="12.0" y2="268.8" />
      <line x1="6.0" y1="238.8" x2="12.0" y2="238.8" />
      <line x1="6.0" y1="268.8" x2="6.0" y2="298.8" />
      <line x1="6.0" y1="208.8" x2="6.0" y2="238.8" />
      <line x1="6.0" y1="298.8" x2="36.230769" y2="298.8" />
      <line x1="6.0" y1="208.8" x2="12.0" y2="208.8" />
      <line x1="36.230769" y1="292.8" x2="36.230769" y2="298.8" />
      <line x1="12.0" y1="178.8" x2="12.0" y2="208.8" />
      <line x1="36.230769" y1="292.8" x2="66.461538" y2="292.8" />
      <line x1="6.0" y1="178.8" x2="12.0" y2="178.8" />
      <line x1="66.461538" y1="292.8" x2="66.461538" y2="298.8" />
      <line x1="6.0" y1="148.8" x2="6.0" y2="178.8" />
      <line x1="66.461538" y1="298.8" x2="96.692308" y2="298.8" />
      <line x1="6.0" y1="148.8" x2="12.0" y2="148.8" />
      <line x1="96.692308" y1="292.8" x2="96.692308" y2="298.8" />
      <line x1="12.0" y1="118.8" x2="12.0" y2="148.8" />
      <line x1="96.692308" y1="292.8" x2="126.923077" y2="292.8" />
      <line x1="6.0" y1="118.8" x2="12.0" y2="118.8" />
      <line x1="126.923077" y1="292.8" x2="126.923077" y2="298.8" />
      <line x1="6.0" y1="88.8" x2="6.0" y2="118.8" />
      <line x1="126.923077" y1="298.8" x2="157.153846" y2="298.8" />
      <line x1="6.0" y1="88.8" x2="12.0" y2="88.8" />
      <line x1="157.153846" y1="292.8" x2="157.153846" y2="298.8" />
      <line x1="12.0" y1="58.8" x2="12.0" y2="88.8" />
      <line x1="157.153846" y1="292.8" x2="187.384615" y2="292.8" />
      <line x1="6.0" y1="58.8" x2="12.0" y2="58.8" />
      <line x1="187.384615" y1="292.8" x2="187.384615" y2="298.8" />
      <line x1="6.0" y1="28.8" x2="6.0" y2="58.8" />
      <line x1="187.384615" y1="298.8" x2="217.615385" y2="298.8" />
      <line x1="6.0" y1="28.8" x2="36.230769" y2="28.8" />
      <line x1="217.615385" y1="292.8" x2="217.615385" y2="298.8" />
      <line x1="36.230769" y1="28.8" x2="36.230769" y2="34.8" />
      <line x1="217.615385" y1="292.8" x2="247.846154" y2="292.8" />
      <line x1="36.230769" y1="34.8" x2="66.461538" y2="34.8" />
      <line x1="247.846154" y1="292.8" x2="247.846154" y2="298.8" />
      <line x1="66.461538" y1="28.8" x2="66.461538" y2="34.8" />
      <line x1="247.846154" y1="298.8" x2="278.076923" y2="298.8" />
      <line x1="66.461538" y1="28.8" x2="96.692308" y2="28.8" />
      <line x1="278.076923" y1="292.8" x2="278.076923" y2="298.8" />
      <line x1="96.692308" y1="28.8" x2="96.692308" y2="34.8" />
      <line x1="278.076923" y1="292.8" x2="308.307692" y2="292.8" />
      <line x1="96.692308" y1="34.8" x2="126.923077" y2="34.8" />
      <line x1="308.307692" y1="292.8" x2="308.307692" y2="298.8" />
      <line x1="126.923077" y1="28.8" x2="126.923077" y2="34.8" />
      <line x1="308.307692" y1="298.8" x2="338.538462" y2="298.8" />
      <line x1="126.923077" y1="28.8" x2="157.153846" y2="28.8" />
      <line x1="338.538462" y1="292.8" x2="338.538462" y2="298.8" />
      <line x1="157.153846" y1="28.8" x2="157.153846" y2="34.8" />
      <line x1="338.538462" y1="292.8" x2="368.769231" y2="292.8" />
      <line x1="157.153846" y1="34.8" x2="187.384615" y2="34.8" />
      <line x1="368.769231" y1="292.8" x2="368.769231" y2="298.8" />
      <line x1="187.384615" y1="28.8" x2="187.384615" y2="34.8" />
      <line x1="368.769231" y1="298.8" x2="399.0" y2="298.8" />
      <line x1="187.384615" y1="28.8" x2="217.615385" y2="28.8" />
      <line x1="399.0" y1="268.8" x2="399.0" y2="298.8" />
      <line x1="217.615385" y1="28.8" x2="217.615385" y2="34.8" />
      <line x1="393.0" y1="268.8" x2="399.0" y2="268.8" />
      <line x1="217.615385" y1="34.8" x2="247.846154" y2="34.8" />
      <line x1="393.0" y1="238.8" x2="393.0" y2="268.8" />
      <line x1="247.846154" y1="28.8" x2="247.846154" y2="34.8" />
      <line x1="393.0" y1="238.8" x2="399.0" y2="238.8" />
      <line x1="247.846154" y1="28.8" x2="278.076923" y2="28.8" />
      <line x1="399.0" y1="208.8" x2="399.0" y2="238.8" />
      <line x1="278.076923" y1="28.8" x2="278.076923" y2="34.8" />
      <line x1="393.0" y1="208.8" x2="399.0" y2="208.8" />
      <line x1="278.076923" y1="34.8" x2="308.307692" y2="34.8" />
      <line x1="393.0" y1="178.8" x2="393.0" y2="208.8" />
      <line x1="308.307692" y1="28.8" x2="308.307692" y2="34.8" />
      <line x1="393.0" y1="178.8" x2="399.0" y2="178.8" />
      <line x1="308.307692" y1="28.8" x2="338.538462" y2="28.8" />
      <line x1="399.0" y1="148.8" x2="399.0" y2="178.8" />
      <line x1="338.538462" y1="28.8" x2="338.538462" y2="34.8" />
      <line x1="393.0" y1="148.8" x2="399.0" y2="148.8" />
      <line x1="338.538462" y1="34.8" x2="368.769231" y2="34.8" />
      <line x1="393.0" y1="118.8" x2="393.0" y2="148.8" />
      <line x1="368.769231" y1="28.8" x2="368.769231" y2="34.8" />
      <line x1="393.0" y1="118.8" x2="399.0" y2="118.8" />
      <line x1="368.769231" y1="28.8" x2="399.0" y2="28.8" />
      <line x1="399.0" y1="88.8" x2="399.0" y2="118.8" />
      <line x1="399.0" y1="28.8" x2="399.0" y2="58.8" />
      <line x1="393.0" y1="88.8" x2="399.0" y2="88.8" />
      <line x1="393.0" y1="58.8" x2="399.0" y2="58.8" />
      <line x1="393.0" y1="58.8" x2="393.0" y2="88.8" />
      <path d="M 51.0,257.7 A 16.5,16.5 0.0 0,1 34.5,241.2" />
      <line x1="147.8" y1="257.7" x2="51.0" y2="257.7" />
      <path d="M 164.3,241.2 A 16.5,16.5 0.0 0,1 147.8,257.7" />
      <line x1="164.3" y1="241.2" x2="164.3" y2="83.8" />
      <path d="M 147.8,67.3 A 16.5,16.5 0.0 0,1 164.3,83.8" />
      <line x1="147.8" y1="67.3" x2="51.0" y2="67.3" />
      <path d="M 34.5,83.8 A 16.5,16.5 0.0 0,1 51.0,67.3" />
      <line x1="34.5" y1="241.2" x2="34.5" y2="83.8" />
      <path d="M 232.5,154.8 A 10.0,10.0 180.0 0,1 222.5,144.8" />
      <line x1="342.5" y1="154.8" x2="232.5" y2="154.8" />
      <path d="M 352.5,144.8 A 10.0,10.0 180.0 0,1 342.5,154.8" />
      <line x1="352.5" y1="144.8" x2="352.5" y2="109.8" />
      <path d="M 342.5,99.8 A 10.0,10.0 180.0 0,1 352.5,109.8" />
      <line x1="342.5" y1="99.8" x2="232.5" y2="99.8" />
      <path d="M 222.5,109.8 A 10.0,10.0 180.0 0,1 232.5,99.8" />
      <line x1="222.5" y1="144.8" x2="222.5" y2="109.8" />
    </g>
  </g>
</svg>