  0
SECTION
  2
HEADER
  9
$ACADVER
  1
AC1027
  9
$ACADMAINTVER
 70
105
  9
$DWGCODEPAGE
  3
ANSI_1252
  9
$LASTSAVEDBY
  1
ezdxf
  9
$REQUIREDVERSIONS
160
0
  9
$INSBASE
 10
0.0
 20
0.0
 30
0.0
  9
$EXTMIN
 10
1e+20
 20
1e+20
 30
1e+20
  9
$EXTMAX
 10
-1e+20
 20
-1e+20
 30
-1e+20
  9
$LIMMIN
 10
0.0
 20
0.0
  9
$LIMMAX
 10
420.0
 20
297.0
  9
$ORTHOMODE
 70
0
  9
$REGENMODE
 70
1
  9
$FILLMODE
 70
1
  9
$QTEXTMODE
 70
0
  9
$MIRRTEXT
 70
1
  9
$LTSCALE
 40
1.0
  9
$ATTMODE
 70
1
  9
$TEXTSIZE
 40
2.5
  9
$TRACEWID
 40
1.0
  9
$TEXTSTYLE
  7
Standard
  9
$CLAYER
  8
0
  9
$CELTYPE
  6
ByLayer
  9
$CECOLOR
 62
256
  9
$CELTSCALE
 40
1.0
  9
$DISPSILH
 70
0
  9
$DIMSCALE
 40
1.0
  9
$DIMASZ
 40
2.5
  9
$DIMEXO
 40
0.625
  9
$DIMDLI
 40
3.75
  9
$DIMRND
 40
0.0
  9
$DIMDLE
 40
0.0
  9
$DIMEXE
 40
1.25
  9
$DIMTP
 40
0.0
  9
$DIMTM
 40
0.0
  9
$DIMTXT
 40
2.5
  9
$DIMCEN
 40
2.5
  9
$DIMTSZ
 40
0.0
  9
$DIMTOL
 70
0
  9
$DIMLIM
 70
0
  9
$DIMTIH
 70
0
  9
$DIMTOH
 70
0
  9
$DIMSE1
 70
0
  9
$DIMSE2
 70
0
  9
$DIMTAD
 70
1
  9
$DIMZIN
 70
8
  9
$DIMBLK
  1

  9
$DIMASO
 70
1
  9
$DIMSHO
 70
1
  9
$DIMPOST
  1

  9
$DIMAPOST
  1

  9
$DIMALT
 70
0
  9
$DIMALTD
 70
3
  9
$DIMALTF
 40
0.03937007874
  9
$DIMLFAC
 40
1.0
  9
$DIMTOFL
 70
1
  9
$DIMTVP
 40
0.0
  9
$DIMTIX
 70
0
  9
$DIMSOXD
 70
0
  9
$DIMSAH
 70
0
  9
$DIMBLK1
  1

  9
$DIMBLK2
  1

  9
$DIMSTYLE
  2
ISO-25
  9
$DIMCLRD
 70
0
  9
$DIMCLRE
 70
0
  9
$DIMCLRT
 70
0
  9
$DIMTFAC
 40
1.0
  9
$DIMGAP
 40
0.625
  9
$DIMJUST
 70
0
  9
$DIMSD1
 70
0
  9
$DIMSD2
 70
0
  9
$DIMTOLJ
 70
0
  9
$DIMTZIN
 70
8
  9
$DIMALTZ
 70
0
  9
$DIMALTTZ
 70
0
  9
$DIMUPT
 70
0
  9
$DIMDEC
 70
2
  9
$DIMTDEC
 70
2
  9
$DIMALTU
 70
2
  9
$DIMALTTD
 70
3
  9
$DIMTXSTY
  7
Standard
  9
$DIMAUNIT
 70
0
  9
$DIMADEC
 70
0
  9
$DIMALTRND
 40
0.0
  9
$DIMAZIN
 70
0
  9
$DIMDSEP
 70
44
  9
$DIMATFIT
 70
3
  9
$DIMFRAC
 70
0
  9
$DIMLDRBLK
  1

  9
$DIMLUNIT
 70
2
  9
$DIMLWD
 70
-2
  9
$DIMLWE
 70
-2
  9
$DIMTMOVE
 70
0
  9
$DIMFXL
 40
1.0
  9
$DIMFXLON
 70
0
  9
$DIMJOGANG
 40
0.785398163397
  9
$DIMTFILL
 70
0
  9
$DIMTFILLCLR
 70
0
  9
$DIMARCSYM
 70
0
  9
$DIMLTYPE
  6

  9
$DIMLTEX1
  6

  9
$DIMLTEX2
  6

  9
$DIMTXTDIRECTION
 70
0
  9
$LUNITS
 70
2
  9
$LUPREC
 70
4
  9
$SKETCHINC
 40
1.0
  9
$FILLETRAD
 40
10.0
  9
$AUNITS
 70
0
  9
$AUPREC
 70
2
  9
$MENU
  1
.
  9
$ELEVATION
 40
0.0
  9
$PELEVATION
 40
0.0
  9
$THICKNESS
 40
0.0
  9
$LIMCHECK
 70
0
  9
$CHAMFERA
 40
0.0
  9
$CHAMFERB
 40
0.0
  9
$CHAMFERC
 40
0.0
  9
$CHAMFERD
 40
0.0
  9
$SKPOLY
 70
0
  9
$TDCREATE
 40
2451545.0
  9
$TDUCREATE
 40
2451545.0
  9
$TDUPDATE
 40
2451545.0
  9
$TDUUPDATE
 40
2451545.0
  9
$TDINDWG
 40
0.0
  9
$TDUSRTIMER
 40
0.0
  9
$USRTIMER
 70
1
  9
$ANGBASE
 50
0.0
  9
$ANGDIR
 70
0
  9
$PDMODE
 70
0
  9
$PDSIZE
 40
0.0
  9
$PLINEWID
 40
0.0
  9
$SPLFRAME
 70
0
  9
$SPLINETYPE
 70
6
  9
$SPLINESEGS
 70
8
  9
$HANDSEED
  5
87
  9
$SURFTAB1
 70
6
  9
$SURFTAB2
 70
6
  9
$SURFTYPE
 70
6
  9
$SURFU
 70
6
  9
$SURFV
 70
6
  9
$UCSBASE
  2

  9
$UCSNAME
  2

  9
$UCSORG
 10
0.0
 20
0.0
 30
0.0
  9
$UCSXDIR
 10
1.0
 20
0.0
 30
0.0
  9
$UCSYDIR
 10
0.0
 20
1.0
 30
0.0
  9
$UCSORTHOREF
  2

  9
$UCSORTHOVIEW
 70
0
  9
$UCSORGTOP
 10
0.0
 20
0.0
 30
0.0
  9
$UCSORGBOTTOM
 10
0.0
 20
0.0
 30
0.0
  9
$UCSORGLEFT
 10
0.0
 20
0.0
 30
0.0
  9
$UCSORGRIGHT
 10
0.0
 20
0.0
 30
0.0
  9
$UCSORGFRONT
 10
0.0
 20
0.0
 30
0.0
  9
$UCSORGBACK
 10
0.0
 20
0.0
 30
0.0
  9
$PUCSBASE
  2

  9
$PUCSNAME
  2

  9
$PUCSORG
 10
0.0
 20
0.0
 30
0.0
  9
$PUCSXDIR
 10
1.0
 20
0.0
 30
0.0
  9
$PUCSYDIR
 10
0.0
 20
1.0
 30
0.0
  9
$PUCSORTHOREF
  2

  9
$PUCSORTHOVIEW
 70
0
  9
$PUCSORGTOP
 10
0.0
 20
0.0
 30
0.0
  9
$PUCSORGBOTTOM
 10
0.0
 20
0.0
 30
0.0
  9
$PUCSORGLEFT
 10
0.0
 20
0.0
 30
0.0
  9
$PUCSORGRIGHT
 10
0.0
 20
0.0
 30
0.0
  9
$PUCSORGFRONT
 10
0.0
 20
0.0
 30
0.0
  9
$PUCSORGBACK
 10
0.0
 20
0.0
 30
0.0
  9
$USERI1
 70
0
  9
$USERI2
 70
0
  9
$USERI3
 70
0
  9
$USERI4
 70
0
  9
$USERI5
 70
0
  9
$USERR1
 40
0.0
  9
$USERR2
 40
0.0
  9
$USERR3
 40
0.0
  9
$USERR4
 40
0.0
  9
$USERR5
 40
0.0
  9
$WORLDVIEW
 70
1
  9
$SHADEDGE
 70
3
  9
$SHADEDIF
 70
70
  9
$TILEMODE
 70
1
  9
$MAXACTVP
 70
64
  9
$PINSBASE
 10
0.0
 20
0.0
 30
0.0
  9
$PLIMCHECK
 70
0
  9
$PEXTMIN
 10
1e+20
 20
1e+20
 30
1e+20
  9
$PEXTMAX
 10
-1e+20
 20
-1e+20
 30
-1e+20
  9
$PLIMMIN
 10
0.0
 20
0.0
  9
$PLIMMAX
 10
420.0
 20
297.0
  9
$UNITMODE
 70
0
  9
$VISRETAIN
 70
1
  9
$PLINEGEN
 70
0
  9
$PSLTSCALE
 70
1
  9
$TREEDEPTH
 70
3020
  9
$CMLSTYLE
  2
Standard
  9
$CMLJUST
 70
0
  9
$CMLSCALE
 40
20.0
  9
$PROXYGRAPHICS
 70
1
  9
$MEASUREMENT
 70
1
  9
$CELWEIGHT
370
-1
  9
$ENDCAPS
280
0
  9
$JOINSTYLE
280
0
  9
$LWDISPLAY
290
0
  9
$INSUNITS
 70
4
  9
$HYPERLINKBASE
  1

  9
$STYLESHEET
  1

  9
$XEDIT
290
1
  9
$CEPSNTYPE
380
0
  9
$PSTYLEMODE
290
1
  9
$FINGERPRINTGUID
  2
{00000000-0000-0000-0000-000000000000}
  9
$VERSIONGUID
  2
{00000000-0000-0000-0000-000000000000}
  9
$EXTNAMES
290
1
  9
$PSVPSCALE
 40
0.0
  9
$OLESTARTUP
290
0
  9
$SORTENTS
280
127
  9
$INDEXCTL
280
0
  9
$HIDETEXT
280
1
  9
$XCLIPFRAME
280
1
  9
$HALOGAP
280
0
  9
$OBSCOLOR
 70
257
  9
$OBSLTYPE
280
0
  9
$INTERSECTIONDISPLAY
280
0
  9
$INTERSECTIONCOLOR
 70
257
  9
$DIMASSOC
280
2
  9
$PROJECTNAME
  1

  9
$CAMERADISPLAY
290
0
  9
$LENSLENGTH
 40
50.0
  9
$CAMERAHEIGHT
 40
0.0
  9
$STEPSPERSEC
 40
24.0
  9
$STEPSIZE
 40
100.0
  9
$3DDWFPREC
 40
2.0
  9
$PSOLWIDTH
 40
0.005
  9
$PSOLHEIGHT
 40
0.08
  9
$LOFTANG1
 40
1.570796326795
  9
$LOFTANG2
 40
1.570796326795
  9
$LOFTMAG1
 40
0.0
  9
$LOFTMAG2
 40
0.0
  9
$LOFTPARAM
 70
7
  9
$LOFTNORMALS
280
1
  9
$LATITUDE
 40
37.795
  9
$LONGITUDE
 40
-122.394
  9
$NORTHDIRECTION
 40
0.0
  9
$TIMEZONE
 70
-8000
  9
$LIGHTGLYPHDISPLAY
280
1
  9
$TILEMODELIGHTSYNCH
280
1
  9
$CMATERIAL
347
20
  9
$SOLIDHIST
280
0
  9
$SHOWHIST
280
1
  9
$DWFFRAME
280
2
  9
$DGNFRAME
280
2
  9
$REALWORLDSCALE
290
1
  9
$INTERFERECOLOR
 62
256
  9
$CSHADOW
280
0
  9
$SHADOWPLANELOCATION
 40
0.0
  0
ENDSEC
  0
SECTION
  2
CLASSES
  0
CLASS
  1
ACDBDETAILVIEWSTYLE
  2
AcDbDetailViewStyle
  3
ObjectDBX Classes
 90
1025
 91
0
280
0
281
0
  0
CLASS
  1
ACDBDICTIONARYWDFLT
  2
AcDbDictionaryWithDefault
  3
ObjectDBX Classes
 90
0
 91
0
280
0
281
0
  0
CLASS
  1
ACDBPLACEHOLDER
  2
AcDbPlaceHolder
  3
ObjectDBX Classes
 90
0
 91
0
280
0
281
0
  0
CLASS
  1
ACDBSECTIONVIEWSTYLE
  2
AcDbSectionViewStyle
  3
ObjectDBX Classes
 90
1025
 91
0
280
0
281
0
  0
CLASS
  1
CELLSTYLEMAP
  2
AcDbCellStyleMap
  3
ObjectDBX Classes
 90
1152
 91
0
280
0
281
0
  0
CLASS
  1
DICTIONARYVAR
  2
AcDbDictionaryVar
  3
ObjectDBX Classes
 90
0
 91
0
280
0
281
0
  0
CLASS
  1
LAYOUT
  2
AcDbLayout
  3
ObjectDBX Classes
 90
0
 91
0
280
0
281
0
  0
CLASS
  1
MATERIAL
  2
AcDbMaterial
  3
ObjectDBX Classes
 90
1153
 91
0
280
0
281
0
  0
CLASS
  1
MENTALRAYRENDERSETTINGS
  2
AcDbMentalRayRenderSettings
  3
SCENEOE
 90
1024
 91
0
280
0
281
0
  0
CLASS
  1
MLEADERSTYLE
  2
AcDbMLeaderStyle
  3
ACDB_MLEADERSTYLE_CLASS
 90
4095
 91
0
280
0
281
0
  0
CLASS
  1
RASTERVARIABLES
  2
AcDbRasterVariables
  3
ISM
 90
0
 91
0
280
0
281
0
  0
CLASS
  1
SCALE
  2
AcDbScale
  3
ObjectDBX Classes
 90
1153
 91
0
280
0
281
0
  0
CLASS
  1
SUN
  2
AcDbSun
  3
SCENEOE
 90
1153
 91
0
280
0
281
0
  0
CLASS
  1
TABLESTYLE
  2
AcDbTableStyle
  3
ObjectDBX Classes
 90
4095
 91
0
280
0
281
0
  0
CLASS
  1
VISUALSTYLE
  2
AcDbVisualStyle
  3
ObjectDBX Classes
 90
4095
 91
0
280
0
281
0
  0
ENDSEC
  0
SECTION
  2
TABLES
  0
TABLE
  2
VPORT
  5
8
330
0
100
AcDbSymbolTable
 70
1
  0
VPORT
  5
83
330
8
100
AcDbSymbolTableRecord
100
AcDbViewportTableRecord
  2
*Active
 70
0
 10
0.0
 20
0.0
 11
1.0
 21
1.0
 12
199.0000002
 22
166.29999989999996
 13
0.0
 23
0.0
 14
0.5
 24
0.5
 15
0.5
 25
0.5
 16
0.0
 26
0.0
 36
1.0
 17
0.0
 27
0.0
 37
0.0
 40
265.0
 41
1.34
 42
50.0
 43
0.0
 44
0.0
 50
0.0
 51
0.0
 71
0
 72
1000
 73
1
 74
3
 75
0
 76
0
 77
0
 78
0
281
0
 65
1
110
0.0
120
0.0
130
0.0
111
1.0
121
0.0
131
0.0
112
0.0
122
1.0
132
0.0
 79
0
146
0.0
  0
ENDTAB
  0
TABLE
  2
LTYPE
  5
2
330
0
100
AcDbSymbolTable
 70
3
  0
LTYPE
  5
24
330
2
100
AcDbSymbolTableRecord
100
AcDbLinetypeTableRecord
  2
ByBlock
 70
0
  3

 72
65
 73
0
 40
0.0
  0
LTYPE
  5
25
330
2
100
AcDbSymbolTableRecord
100
AcDbLinetypeTableRecord
  2
ByLayer
 70
0
  3

 72
65
 73
0
 40
0.0
  0
LTYPE
  5
26
330
2
100
AcDbSymbolTableRecord
100
AcDbLinetypeTableRecord
  2
Continuous
 70
0
  3

 72
65
 73
0
 40
0.0
  0
ENDTAB
  0
TABLE
  2
LAYER
  5
1
330
0
100
AcDbSymbolTable
 70
3
  0
LAYER
  5
27
330
1
100
AcDbSymbolTableRecord
100
AcDbLayerTableRecord
  2
0
 70
0
 62
7
  6
Continuous
370
-3
390
13
347
21
  0
LAYER
  5
28
330
1
100
AcDbSymbolTableRecord
100
AcDbLayerTableRecord
  2
Defpoints
 70
0
 62
7
  6
Continuous
290
0
370
-3
390
13
347
21
  0
LAYER
  5
2F
330
1
100
AcDbSymbolTableRecord
100
AcDbLayerTableRecord
  2
CUT
 70
0
 62
7
  6
Continuous
370
-3
390
13
347
21
  0
ENDTAB
  0
TABLE
  2
STYLE
  5
5
330
0
100
AcDbSymbolTable
 70
1
  0
STYLE
  5
29
330
5
100
AcDbSymbolTableRecord
100
AcDbTextStyleTableRecord
  2
Standard
 70
0
 40
0.0
 41
1.0
 50
0.0
 71
0
 42
2.5
  3
txt
  4

  0
ENDTAB
  0
TABLE
  2
VIEW
  5
7
330
0
100
AcDbSymbolTable
 70
0
  0
ENDTAB
  0
TABLE
  2
UCS
  5
6
330
0
100
AcDbSymbolTable
 70
0
  0
ENDTAB
  0
TABLE
  2
APPID
  5
3
330
0
100
AcDbSymbolTable
 70
3
  0
APPID
  5
2A
330
3
100
AcDbSymbolTableRecord
100
AcDbRegAppTableRecord
  2
ACAD
 70
0
  0
APPID
  5
84
330
3
100
AcDbSymbolTableRecord
100
AcDbRegAppTableRecord
  2
HATCHBACKGROUNDCOLOR
 70
0
  0
APPID
  5
85
330
3
100
AcDbSymbolTableRecord
100
AcDbRegAppTableRecord
  2
EZDXF
 70
0
  0
ENDTAB
  0
TABLE
  2
DIMSTYLE
  5
4
330
0
100
AcDbSymbolTable
 70
1
100
AcDbDimStyleTable
  0
DIMSTYLE
105
2B
330
4
100
AcDbSymbolTableRecord
100
AcDbDimStyleTableRecord
  2
Standard
 70
0
 40
1.0
 41
2.5
 42
0.625
 43
3.75
 44
1.25
 45
0.0
 46
0.0
 47
0.0
 48
0.0
 49
2.5
140
2.5
141
2.5
142
0.0
143
0.03937007874
144
1.0
145
0.0
146
1.0
147
0.625
148
0.0
 69
0
 70
0
 71
0
 72
0
 73
0
 74
0
 75
0
 76
0
 77
1
 78
8
 79
3
170
0
171
3
172
1
173
0
174
0
175
0
176
0
177
0
178
0
179
2
271
2
272
2
273
2
274
3
275
0
276
0
277
2
278
44
279
0
280
0
281
0
282
0
283
0
284
8
285
0
286
0
288
0
289
3
290
0
371
-2
372
-2
  0
ENDTAB
  0
TABLE
  2
BLOCK_RECORD
  5
9
330
0
100
AcDbSymbolTable
 70
2
  0
BLOCK_RECORD
  5
17
330
9
100
AcDbSymbolTableRecord
100
AcDbBlockTableRecord
  2
*Model_Space
340
1A
 70
0
280
1
281
0
  0
BLOCK_RECORD
  5
1B
330
9
100
AcDbSymbolTableRecord
100
AcDbBlockTableRecord
  2
*Paper_Space
340
1E
 70
0
280
1
281
0
  0
ENDTAB
  0
ENDSEC
  0
SECTION
  2
BLOCKS
  0
BLOCK
  5
18
330
17
100
AcDbEntity
  8
0
100
AcDbBlockBegin
  2
*Model_Space
 70
0
 10
0.0
 20
0.0
 30
0.0
  3
*Model_Space
  1

  0
ENDBLK
  5
19
330
17
100
AcDbEntity
  8
0
100
AcDbBlockEnd
  0
BLOCK
  5
1C
330
1B
100
AcDbEntity
  8
0
100
AcDbBlockBegin
  2
*Paper_Space
 70
0
 10
0.0
 20
0.0
 30
0.0
  3
*Paper_Space
  1

  0
ENDBLK
  5
1D
330
1B
100
AcDbEntity
  8
0
100
AcDbBlockEnd
  0
ENDSEC
  0
SECTION
  2
ENTITIES
  0
SPLINE
  5
30
330
17
100
AcDbEntity
  8
CUT
100
AcDbSpline
 70
0
 71
3
 72
116
 73
112
 74
0
 40
0.0
 40
0.0
 40
0.0
 40
0.0
 40
0.6329408029057368
 40
0.6329408029057368
 40
0.6329408029057368
 40
1.635327825935573
 40
1.635327825935573
 40
1.635327825935573
 40
2.9086868225639666
 40
2.9086868225639666
 40
2.9086868225639666
 40
4.316920974164279
 40
4.316920974164279
 40
4.316920974164279
 40
5.8063705407782775
 40
5.8063705407782775
 40
5.8063705407782775
 40
8.941193221018109
 40
8.941193221018109
 40
8.941193221018109
 40
10.49661427034716
 40
10.49661427034716
 40
10.49661427034716
 40
12.059590758308424
 40
12.059590758308424
 40
12.059590758308424
 40
14.660178642019885
 40
14.660178642019885
 40
14.660178642019885
 40
17.615867674146937
 40
17.615867674146937
 40
17.615867674146937
 40
20.457594145625713
 40
20.457594145625713
 40
20.457594145625713
 40
21.99638040779537
 40
21.99638040779537
 40
21.99638040779537
 40
23.120789785401822
 40
23.120789785401822
 40
23.120789785401822
 40
23.51414663837127
 40
23.51414663837127
 40
23.51414663837127
 40
23.793876944337303
 40
23.793876944337303
 40
23.793876944337303
 40
23.96097214127316
 40
23.96097214127316
 40
23.96097214127316
 40
24.0165323001581
 40
24.0165323001581
 40
24.0165323001581
 40
24.07209245904304
 40
24.07209245904304
 40
24.07209245904304
 40
24.239187655978895
 40
24.239187655978895
 40
24.239187655978895
 40
24.51891796194493
 40
24.51891796194493
 40
24.51891796194493
 40
24.912274814914376
 40
24.912274814914376
 40
24.912274814914376
 40
26.036684192520823
 40
26.036684192520823
 40
26.036684192520823
 40
27.57547045469048
 40
27.57547045469048
 40
27.57547045469048
 40
30.41719692616927
 40
30.41719692616927
 40
30.41719692616927
 40
33.37288595829631
 40
33.37288595829631
 40
33.37288595829631
 40
35.97347384200776
 40
35.97347384200776
 40
35.97347384200776
 40
37.53645032996903
 40
37.53645032996903
 40
37.53645032996903
 40
39.09187137929808
 40
39.09187137929808
 40
39.09187137929808
 40
42.22669405953792
 40
42.22669405953792
 40
42.22669405953792
 40
43.71614362615192
 40
43.71614362615192
 40
43.71614362615192
 40
45.12437777775223
 40
45.12437777775223
 40
45.12437777775223
 40
46.397736774380625
 40
46.397736774380625
 40
46.397736774380625
 40
46.9437335070978
 40
46.9437335070978
 40
46.9437335070978
 40
47.400123797410465
 40
47.400123797410465
 40
47.400123797410465
 40
47.74496878580983
 40
47.74496878580983
 40
47.74496878580983
 40
47.959977686960876
 40
47.959977686960876
 40
47.959977686960876
 40
48.0330646003162
 40
48.0330646003162
 40
48.0330646003162
 40
48.0330646003162
 10
24.352941276470588
 20
73.79999989999996
 30
0.0
 10
24.56397557866048
 20
73.81062275337072
 30
0.0
 10
24.770367030627273
 20
73.8662119735881
 30
0.0
 10
24.97068017551181
 20
73.93054174305128
 30
0.0
 10
25.289077296388623
 20
74.03807496357976
 30
0.0
 10
25.588901313650293
 20
74.18400663718734
 30
0.0
 10
25.87015222729677
 20
74.36833676387388
 30
0.0
 10
26.225807948269257
 20
74.60050696897865
 30
0.0
 10
26.54572253405903
 20
74.88835969853339
 30
0.0
 10
26.810615814095325
 20
75.22080645579115
 30
0.0
 10
27.10376984412717
 20
75.588125310258
 30
0.0
 10
27.328075370408982
 20
76.01110145933535
 30
0.0
 10
27.461930320140333
 20
76.4620489585846
 30
0.0
 10
27.60426773413468
 20
76.93876657192484
 30
0.0
 10
27.64441296108451
 20
77.44503577238314
 30
0.0
 10
27.583289739947794
 20
77.93861088873307
 30
0.0
 10
27.456545474383237
 20
78.97952444593533
 30
0.0
 10
26.885650556183474
 20
79.95325207195847
 30
0.0
 10
26.051288649472028
 20
80.58566438951291
 30
0.0
 10
25.6380684304251
 20
80.9000194632496
 30
0.0
 10
25.158940226196783
 20
81.12961258697725
 30
0.0
 10
24.651768989505754
 20
81.24378327988572
 30
0.0
 10
24.142279530375284
 20
81.35985082926919
 30
0.0
 10
23.607907566810546
 20
81.35554585861377
 30
0.0
 10
23.09820405216496
 20
81.24378327988572
 30
0.0
 10
22.24521331727619
 20
81.05827926595663
 30
0.0
 10
21.481040173355556
 20
80.59503324709235
 30
0.0
 10
20.813299566882534
 20
80.04767587620273
 30
0.0
 10
20.050865771303624
 20
79.42097055114778
 30
0.0
 10
19.390730653016636
 20
78.68317551617235
 30
0.0
 10
18.74720002216733
 20
77.93861088873305
 30
0.0
 10
18.12872353191862
 20
77.22134830372974
 30
0.0
 10
17.52755477161228
 20
76.48835146535217
 30
0.0
 10
16.876646675013905
 20
75.79969387698856
 30
0.0
 10
16.524225872594286
 20
75.42737652284353
 30
0.0
 10
16.156496846717097
 20
75.0676336470384
 30
0.0
 10
15.760785865083438
 20
74.74117637058822
 30
0.0
 10
15.473357095289348
 20
74.50322568105595
 30
0.0
 10
15.163934103382974
 20
74.28231834202208
 30
0.0
 10
14.837706234833583
 20
74.1012423022448
 30
0.0
 10
14.726238102347757
 20
74.03747243325424
 30
0.0
 10
14.6081087321786
 20
73.98057224685635
 30
0.0
 10
14.483318124326122
 20
73.9305417430513
 30
0.0
 10
14.393193766219532
 20
73.89537375674988
 30
0.0
 10
14.296753979555287
 20
73.86455567085989
 30
0.0
 10
14.218843615934901
 20
73.83942490329557
 30
0.0
 10
14.17230433408077
 20
73.82441319213751
 30
0.0
 10
14.132376716441808
 20
73.81143082851857
 30
0.0
 10
14.055336190135762
 20
73.80498471532317
 30
0.0
 10
14.029719751359323
 20
73.80284134388043
 30
0.0
 10
14.000000099999994
 20
73.80142062194022
 30
0.0
 10
14.000000099999998
 20
73.79999989999996
 30
0.0
 10
14.0000001
 20
73.7985791780597
 30
0.0
 10
14.029719751359327
 20
73.79715845611946
 30
0.0
 10
14.055336190135762
 20
73.79501508467676
 30
0.0
 10
14.132376716441797
 20
73.78856897148137
 30
0.0
 10
14.172304334080774
 20
73.77558660786241
 30
0.0
 10
14.21884361593489
 20
73.76057489670436
 30
0.0
 10
14.296753979555284
 20
73.73544412914005
 30
0.0
 10
14.393193766219522
 20
73.70462604325006
 30
0.0
 10
14.483318124326122
 20
73.66945805694864
 30
0.0
 10
14.608108732178607
 20
73.61942755314357
 30
0.0
 10
14.72623810234775
 20
73.56252736674571
 30
0.0
 10
14.83770623483359
 20
73.49875749775515
 30
0.0
 10
15.16393410338297
 20
73.31768145797781
 30
0.0
 10
15.473357095289348
 20
73.09677411894401
 30
0.0
 10
15.760785865083431
 20
72.85882342941173
 30
0.0
 10
16.15649684671709
 20
72.53236615296153
 30
0.0
 10
16.524225872594293
 20
72.17262327715639
 30
0.0
 10
16.876646675013898
 20
71.8003059230114
 30
0.0
 10
17.527554771612277
 20
71.11164833464778
 30
0.0
 10
18.128723531918613
 20
70.37865149627017
 30
0.0
 10
18.74720002216734
 20
69.66138891126687
 30
0.0
 10
19.39073065301684
 20
68.91682428382757
 30
0.0
 10
20.050865771303346
 20
68.17902924885217
 30
0.0
 10
20.813299566882538
 20
67.55232392379719
 30
0.0
 10
21.481040173347843
 20
67.00496655290758
 30
0.0
 10
22.2452133172861
 20
66.54172053404326
 30
0.0
 10
23.09820405216496
 20
66.35621652011423
 30
0.0
 10
23.607907566581254
 20
66.24445394138621
 30
0.0
 10
24.142279530688864
 20
66.2401489707307
 30
0.0
 10
24.651768989505758
 20
66.35621652011422
 30
0.0
 10
25.158940223017307
 20
66.47038721302269
 30
0.0
 10
25.63806843486772
 20
66.69998033675034
 30
0.0
 10
26.051288649472028
 20
67.01433541048704
 30
0.0
 10
26.88565039727792
 20
67.64674772804142
 30
0.0
 10
27.45654568253594
 20
68.62047535406461
 30
0.0
 10
27.58328973994779
 20
69.66138891126687
 30
0.0
 10
27.64440494864165
 20
70.15496402761678
 30
0.0
 10
27.604278646919358
 20
70.66123322807509
 30
0.0
 10
27.461930320140336
 20
71.13795084141532
 30
0.0
 10
27.32797287530003
 20
71.58889834066454
 30
0.0
 10
27.10390859734869
 20
72.01187448974198
 30
0.0
 10
26.81061581409533
 20
72.37919334420877
 30
0.0
 10
26.54269984823359
 20
72.71348818425773
 30
0.0
 10
26.229211985967375
 20
72.9976447482301
 30
0.0
 10
25.87015222729677
 20
73.23166303612604
 30
0.0
 10
25.714790278679335
 20
73.33140839751266
 30
0.0
 10
25.556054656161564
 20
73.42043988472233
 30
0.0
 10
25.393945359743526
 20
73.49875749775514
 30
0.0
 10
25.259842014895703
 20
73.56407723633507
 30
0.0
 10
25.12689552013373
 20
73.62154816845063
 30
0.0
 10
24.970680175511813
 20
73.66945805694866
 30
0.0
 10
24.852645064232288
 20
73.70565839971229
 30
0.0
 10
24.72132530767535
 20
73.73640015411824
 30
0.0
 10
24.63809065743121
 20
73.76057489670437
 30
0.0
 10
24.58619432345877
 20
73.77564771206747
 30
0.0
 10
24.552990843843514
 20
73.78816763309553
 30
0.0
 10
24.425857999655346
 20
73.79501508467676
 30
0.0
 10
24.382642360125747
 20
73.79734270505779
 30
0.0
 10
24.328573272169212
 20
73.79901487700826
 30
0.0
 10
24.352941276470588
 20
73.79999989999996
 30
0.0
  0
SPLINE
  5
31
330
17
100
AcDbEntity
  8
CUT
100
AcDbSpline
 70
0
 71
3
 72
116
 73
112
 74
0
 40
0.0
 40
0.0
 40
0.0
 40
0.0
 40
0.6329408029057362
 40
0.6329408029057362
 40
0.6329408029057362
 40
1.6353278259355712
 40
1.6353278259355712
 40
1.6353278259355712
 40
2.908686822563965
 40
2.908686822563965
 40
2.908686822563965
 40
4.316920974164272
 40
4.316920974164272
 40
4.316920974164272
 40
5.8063705407782775
 40
5.8063705407782775
 40
5.8063705407782775
 40
8.941193221018102
 40
8.941193221018102
 40
8.941193221018102
 40
10.496614270347157
 40
10.496614270347157
 40
10.496614270347157
 40
12.05959075830842
 40
12.05959075830842
 40
12.05959075830842
 40
14.660178642019888
 40
14.660178642019888
 40
14.660178642019888
 40
17.615867674146937
 40
17.615867674146937
 40
17.615867674146937
 40
20.45759414562572
 40
20.45759414562572
 40
20.45759414562572
 40
21.996380407795378
 40
21.996380407795378
 40
21.996380407795378
 40
23.120789785401822
 40
23.120789785401822
 40
23.120789785401822
 40
23.514146638371273
 40
23.514146638371273
 40
23.514146638371273
 40
23.793876944337306
 40
23.793876944337306
 40
23.793876944337306
 40
23.960972141273164
 40
23.960972141273164
 40
23.960972141273164
 40
24.016532300158104
 40
24.016532300158104
 40
24.016532300158104
 40
24.072092459043045
 40
24.072092459043045
 40
24.072092459043045
 40
24.2391876559789
 40
24.2391876559789
 40
24.2391876559789
 40
24.518917961944936
 40
24.518917961944936
 40
24.518917961944936
 40
24.912274814914387
 40
24.912274814914387
 40
24.912274814914387
 40
26.036684192520823
 40
26.036684192520823
 40
26.036684192520823
 40
27.575470454690482
 40
27.575470454690482
 40
27.575470454690482
 40
30.41719692616927
 40
30.41719692616927
 40
30.41719692616927
 40
33.372885958296315
 40
33.372885958296315
 40
33.372885958296315
 40
35.973473842007785
 40
35.973473842007785
 40
35.973473842007785
 40
37.53645032996905
 40
37.53645032996905
 40
37.53645032996905
 40
39.0918713792981
 40
39.0918713792981
 40
39.0918713792981
 40
42.22669405953794
 40
42.22669405953794
 40
42.22669405953794
 40
43.71614362615193
 40
43.71614362615193
 40
43.71614362615193
 40
45.12437777775225
 40
45.12437777775225
 40
45.12437777775225
 40
46.39773677438065
 40
46.39773677438065
 40
46.39773677438065
 40
46.94373350709782
 40
46.94373350709782
 40
46.94373350709782
 40
47.40012379741049
 40
47.40012379741049
 40
47.40012379741049
 40
47.74496878580985
 40
47.74496878580985
 40
47.74496878580985
 40
47.9599776869609
 40
47.9599776869609
 40
47.9599776869609
 40
48.03306460031622
 40
48.03306460031622
 40
48.03306460031622
 40
48.03306460031622
 10
24.352941276470588
 20
141.79999989999996
 30
0.0
 10
24.563975578660454
 20
141.8106227533707
 30
0.0
 10
24.770367030627316
 20
141.8662119735882
 30
0.0
 10
24.970680175511813
 20
141.9305417430513
 30
0.0
 10
25.289077296388626
 20
142.03807496357973
 30
0.0
 10
25.58890131365029
 20
142.18400663718737
 30
0.0
 10
25.870152227296774
 20
142.3683367638739
 30
0.0
 10
26.225807948269253
 20
142.60050696897858
 30
0.0
 10
26.545722534059028
 20
142.88835969853338
 30
0.0
 10
26.81061581409533
 20
143.22080645579115
 30
0.0
 10
27.103769844127168
 20
143.58812531025805
 30
0.0
 10
27.328075370408982
 20
144.01110145933535
 30
0.0
 10
27.46193032014034
 20
144.46204895858457
 30
0.0
 10
27.60426773413469
 20
144.93876657192476
 30
0.0
 10
27.644412961084505
 20
145.4450357723831
 30
0.0
 10
27.583289739947798
 20
145.93861088873305
 30
0.0
 10
27.456545474383233
 20
146.97952444593528
 30
0.0
 10
26.885650556183485
 20
147.95325207195856
 30
0.0
 10
26.051288649472028
 20
148.5856643895129
 30
0.0
 10
25.638068430425083
 20
148.9000194632496
 30
0.0
 10
25.158940226196798
 20
149.12961258697723
 30
0.0
 10
24.651768989505754
 20
149.24378327988575
 30
0.0
 10
24.14227953037528
 20
149.35985082926922
 30
0.0
 10
23.60790756681056
 20
149.35554585861368
 30
0.0
 10
23.09820405216496
 20
149.24378327988575
 30
0.0
 10
22.2452133172762
 20
149.05827926595663
 30
0.0
 10
21.481040173355538
 20
148.59503324709235
 30
0.0
 10
20.81329956688254
 20
148.04767587620276
 30
0.0
 10
20.050865771303595
 20
147.42097055114766
 30
0.0
 10
19.390730653016654
 20
146.68317551617244
 30
0.0
 10
18.74720002216733
 20
145.93861088873302
 30
0.0
 10
18.128723531918613
 20
145.22134830372974
 30
0.0
 10
17.52755477161227
 20
144.48835146535222
 30
0.0
 10
16.876646675013905
 20
143.79969387698853
 30
0.0
 10
16.524225872594283
 20
143.4273765228435
 30
0.0
 10
16.156496846717097
 20
143.06763364703838
 30
0.0
 10
15.760785865083438
 20
142.74117637058822
 30
0.0
 10
15.473357095289355
 20
142.5032256810559
 30
0.0
 10
15.163934103382982
 20
142.28231834202217
 30
0.0
 10
14.837706234833583
 20
142.10124230224477
 30
0.0
 10
14.726238102347754
 20
142.03747243325418
 30
0.0
 10
14.608108732178597
 20
141.98057224685633
 30
0.0
 10
14.483318124326122
 20
141.9305417430513
 30
0.0
 10
14.393193766219525
 20
141.89537375674985
 30
0.0
 10
14.296753979555294
 20
141.86455567085994
 30
0.0
 10
14.218843615934894
 20
141.83942490329557
 30
0.0
 10
14.172304334080774
 20
141.8244131921376
 30
0.0
 10
14.132376716441797
 20
141.81143082851855
 30
0.0
 10
14.055336190135762
 20
141.80498471532317
 30
0.0
 10
14.029719751359334
 20
141.80284134388037
 30
0.0
 10
14.000000099999998
 20
141.80142062194025
 30
0.0
 10
14.000000099999998
 20
141.79999989999996
 30
0.0
 10
14.000000099999998
 20
141.79857917805964
 30
0.0
 10
14.029719751359337
 20
141.79715845611952
 30
0.0
 10
14.055336190135762
 20
141.79501508467672
 30
0.0
 10
14.132376716441797
 20
141.78856897148134
 30
0.0
 10
14.172304334080774
 20
141.77558660786238
 30
0.0
 10
14.218843615934894
 20
141.76057489670438
 30
0.0
 10
14.296753979555287
 20
141.73544412914003
 30
0.0
 10
14.393193766219518
 20
141.70462604325004
 30
0.0
 10
14.483318124326125
 20
141.66945805694866
 30
0.0
 10
14.608108732178604
 20
141.61942755314354
 30
0.0
 10
14.726238102347754
 20
141.5625273667457
 30
0.0
 10
14.837706234833583
 20
141.4987574977551
 30
0.0
 10
15.163934103382974
 20
141.31768145797787
 30
0.0
 10
15.473357095289348
 20
141.09677411894398
 30
0.0
 10
15.760785865083434
 20
140.85882342941176
 30
0.0
 10
16.15649684671709
 20
140.53236615296157
 30
0.0
 10
16.524225872594283
 20
140.1726232771564
 30
0.0
 10
16.8766466750139
 20
139.8003059230114
 30
0.0
 10
17.527554771612287
 20
139.11164833464778
 30
0.0
 10
18.12872353191862
 20
138.37865149627015
 30
0.0
 10
18.74720002216734
 20
137.66138891126687
 30
0.0
 10
19.390730653016824
 20
136.91682428382754
 30
0.0
 10
20.050865771303364
 20
136.1790292488522
 30
0.0
 10
20.813299566882534
 20
135.5523239237972
 30
0.0
 10
21.481040173347814
 20
135.00496655290752
 30
0.0
 10
22.245213317286133
 20
134.54172053404332
 30
0.0
 10
23.098204052164963
 20
134.35621652011423
 30
0.0
 10
23.60790756658125
 20
134.24445394138613
 30
0.0
 10
24.142279530688867
 20
134.24014897073076
 30
0.0
 10
24.651768989505754
 20
134.35621652011417
 30
0.0
 10
25.15894022301729
 20
134.47038721302266
 30
0.0
 10
25.63806843486771
 20
134.69998033675034
 30
0.0
 10
26.051288649472024
 20
135.014335410487
 30
0.0
 10
26.885650397277907
 20
135.6467477280416
 30
0.0
 10
27.45654568253593
 20
136.6204753540644
 30
0.0
 10
27.583289739947798
 20
137.6613889112669
 30
0.0
 10
27.644404948641647
 20
138.15496402761684
 30
0.0
 10
27.604278646919376
 20
138.6612332280751
 30
0.0
 10
27.461930320140336
 20
139.13795084141532
 30
0.0
 10
27.32797287530004
 20
139.58889834066457
 30
0.0
 10
27.10390859734869
 20
140.01187448974193
 30
0.0
 10
26.81061581409533
 20
140.37919334420877
 30
0.0
 10
26.542699848233568
 20
140.7134881842577
 30
0.0
 10
26.22921198596737
 20
140.99764474823007
 30
0.0
 10
25.870152227296778
 20
141.23166303612604
 30
0.0
 10
25.71479027867932
 20
141.33140839751263
 30
0.0
 10
25.556054656161567
 20
141.4204398847223
 30
0.0
 10
25.393945359743526
 20
141.49875749775512
 30
0.0
 10
25.259842014895703
 20
141.56407723633504
 30
0.0
 10
25.12689552013373
 20
141.62154816845063
 30
0.0
 10
24.970680175511813
 20
141.66945805694863
 30
0.0
 10
24.8526450642323
 20
141.70565839971226
 30
0.0
 10
24.721325307675382
 20
141.7364001541183
 30
0.0
 10
24.638090657431206
 20
141.76057489670436
 30
0.0
 10
24.58619432345877
 20
141.7756477120674
 30
0.0
 10
24.5529908438435
 20
141.7881676330955
 30
0.0
 10
24.42585799965535
 20
141.79501508467675
 30
0.0
 10
24.382642360125754
 20
141.7973427050577
 30
0.0
 10
24.32857327216922
 20
141.7990148770083
 30
0.0
 10
24.352941276470588
 20
141.79999989999996
 30
0.0
  0
SPLINE
  5
32
330
17
100
AcDbEntity
  8
CUT
100
AcDbSpline
 70
0
 71
3
 72
116
 73
112
 74
0
 40
0.0
 40
0.0
 40
0.0
 40
0.0
 40
0.63294080290574
 40
0.63294080290574
 40
0.63294080290574
 40
1.6353278259355768
 40
1.6353278259355768
 40
1.6353278259355768
 40
2.9086868225639617
 40
2.9086868225639617
 40
2.9086868225639617
 40
4.316920974164268
 40
4.316920974164268
 40
4.316920974164268
 40
5.806370540778274
 40
5.806370540778274
 40
5.806370540778274
 40
8.941193221018107
 40
8.941193221018107
 40
8.941193221018107
 40
10.496614270347155
 40
10.496614270347155
 40
10.496614270347155
 40
12.059590758308419
 40
12.059590758308419
 40
12.059590758308419
 40
14.660178642019886
 40
14.660178642019886
 40
14.660178642019886
 40
17.615867674146937
 40
17.615867674146937
 40
17.615867674146937
 40
20.45759414562572
 40
20.45759414562572
 40
20.45759414562572
 40
21.996380407795378
 40
21.996380407795378
 40
21.996380407795378
 40
23.12078978540182
 40
23.12078978540182
 40
23.12078978540182
 40
23.514146638371262
 40
23.514146638371262
 40
23.514146638371262
 40
23.7938769443373
 40
23.7938769443373
 40
23.7938769443373
 40
23.960972141273157
 40
23.960972141273157
 40
23.960972141273157
 40
24.016532300158097
 40
24.016532300158097
 40
24.016532300158097
 40
24.072092459043038
 40
24.072092459043038
 40
24.072092459043038
 40
24.239187655978892
 40
24.239187655978892
 40
24.239187655978892
 40
24.518917961944933
 40
24.518917961944933
 40
24.518917961944933
 40
24.912274814914376
 40
24.912274814914376
 40
24.912274814914376
 40
26.036684192520816
 40
26.036684192520816
 40
26.036684192520816
 40
27.575470454690475
 40
27.575470454690475
 40
27.575470454690475
 40
30.417196926169265
 40
30.417196926169265
 40
30.417196926169265
 40
33.37288595829631
 40
33.37288595829631
 40
33.37288595829631
 40
35.97347384200778
 40
35.97347384200778
 40
35.97347384200778
 40
37.53645032996904
 40
37.53645032996904
 40
37.53645032996904
 40
39.09187137929809
 40
39.09187137929809
 40
39.09187137929809
 40
42.226694059537934
 40
42.226694059537934
 40
42.226694059537934
 40
43.71614362615193
 40
43.71614362615193
 40
43.71614362615193
 40
45.124377777752244
 40
45.124377777752244
 40
45.124377777752244
 40
46.397736774380625
 40
46.397736774380625
 40
46.397736774380625
 40
46.943733507097804
 40
46.943733507097804
 40
46.943733507097804
 40
47.400123797410465
 40
47.400123797410465
 40
47.400123797410465
 40
47.74496878580983
 40
47.74496878580983
 40
47.74496878580983
 40
47.959977686960876
 40
47.959977686960876
 40
47.959977686960876
 40
48.0330646003162
 40
48.0330646003162
 40
48.0330646003162
 40
48.0330646003162
 10
24.352941276470588
 20
209.79999989999993
 30
0.0
 10
24.563975578660475
 20
209.81062275337075
 30
0.0
 10
24.770367030627288
 20
209.866211973588
 30
0.0
 10
24.970680175511816
 20
209.93054174305132
 30
0.0
 10
25.28907729638866
 20
210.03807496357993
 30
0.0
 10
25.588901313650283
 20
210.18400663718725
 30
0.0
 10
25.87015222729677
 20
210.36833676387388
 30
0.0
 10
26.225807948269264
 20
210.6005069689787
 30
0.0
 10
26.545722534059028
 20
210.88835969853332
 30
0.0
 10
26.81061581409533
 20
211.22080645579118
 30
0.0
 10
27.103769844127164
 20
211.58812531025808
 30
0.0
 10
27.328075370408992
 20
212.01110145933532
 30
0.0
 10
27.46193032014033
 20
212.46204895858455
 30
0.0
 10
27.604267734134712
 20
212.93876657192482
 30
0.0
 10
27.644412961084484
 20
213.44503577238308
 30
0.0
 10
27.583289739947798
 20
213.93861088873305
 30
0.0
 10
27.456545474383255
 20
214.97952444593534
 30
0.0
 10
26.885650556183453
 20
215.95325207195842
 30
0.0
 10
26.051288649472028
 20
216.58566438951294
 30
0.0
 10
25.63806843042508
 20
216.90001946324952
 30
0.0
 10
25.158940226196776
 20
217.12961258697712
 30
0.0
 10
24.65176898950575
 20
217.24378327988572
 30
0.0
 10
24.14227953037527
 20
217.35985082926913
 30
0.0
 10
23.607907566810553
 20
217.35554585861377
 30
0.0
 10
23.09820405216496
 20
217.24378327988575
 30
0.0
 10
22.245213317276207
 20
217.0582792659565
 30
0.0
 10
21.48104017335554
 20
216.59503324709243
 30
0.0
 10
20.81329956688254
 20
216.04767587620273
 30
0.0
 10
20.050865771303595
 20
215.42097055114758
 30
0.0
 10
19.390730653016654
 20
214.68317551617244
 30
0.0
 10
18.74720002216733
 20
213.93861088873302
 30
0.0
 10
18.128723531918602
 20
213.22134830372985
 30
0.0
 10
17.527554771612284
 20
212.4883514653521
 30
0.0
 10
16.876646675013905
 20
211.79969387698853
 30
0.0
 10
16.524225872594275
 20
211.42737652284345
 30
0.0
 10
16.156496846717104
 20
211.06763364703832
 30
0.0
 10
15.760785865083438
 20
210.74117637058822
 30
0.0
 10
15.47335709528933
 20
210.50322568105582
 30
0.0
 10
15.163934103382974
 20
210.28231834202222
 30
0.0
 10
14.837706234833583
 20
210.10124230224477
 30
0.0
 10
14.726238102347747
 20
210.03747243325427
 30
0.0
 10
14.608108732178604
 20
209.98057224685635
 30
0.0
 10
14.483318124326125
 20
209.9305417430513
 30
0.0
 10
14.393193766219518
 20
209.89537375674985
 30
0.0
 10
14.296753979555298
 20
209.86455567085997
 30
0.0
 10
14.218843615934897
 20
209.83942490329557
 30
0.0
 10
14.172304334080764
 20
209.82441319213734
 30
0.0
 10
14.1323767164418
 20
209.81143082851872
 30
0.0
 10
14.055336190135762
 20
209.80498471532314
 30
0.0
 10
14.029719751359334
 20
209.80284134388037
 30
0.0
 10
14.0000001
 20
209.80142062194025
 30
0.0
 10
14.000000099999998
 20
209.79999989999996
 30
0.0
 10
14.000000099999998
 20
209.79857917805967
 30
0.0
 10
14.029719751359337
 20
209.79715845611938
 30
0.0
 10
14.055336190135762
 20
209.7950150846767
 30
0.0
 10
14.1323767164418
 20
209.7885689714813
 30
0.0
 10
14.172304334080767
 20
209.7755866078623
 30
0.0
 10
14.21884361593489
 20
209.76057489670436
 30
0.0
 10
14.296753979555287
 20
209.73544412914
 30
0.0
 10
14.393193766219522
 20
209.70462604325002
 30
0.0
 10
14.483318124326122
 20
209.66945805694857
 30
0.0
 10
14.608108732178597
 20
209.6194275531435
 30
0.0
 10
14.726238102347747
 20
209.56252736674566
 30
0.0
 10
14.83770623483359
 20
209.49875749775512
 30
0.0
 10
15.163934103382985
 20
209.3176814579778
 30
0.0
 10
15.473357095289348
 20
209.09677411894398
 30
0.0
 10
15.760785865083438
 20
208.85882342941179
 30
0.0
 10
16.156496846717086
 20
208.53236615296143
 30
0.0
 10
16.524225872594283
 20
208.17262327715648
 30
0.0
 10
16.8766466750139
 20
207.8003059230114
 30
0.0
 10
17.52755477161228
 20
207.11164833464775
 30
0.0
 10
18.128723531918606
 20
206.37865149627007
 30
0.0
 10
18.747200022167345
 20
205.66138891126693
 30
0.0
 10
19.390730653016824
 20
204.91682428382748
 30
0.0
 10
20.05086577130336
 20
204.17902924885217
 30
0.0
 10
20.813299566882534
 20
203.55232392379716
 30
0.0
 10
21.481040173347814
 20
203.00496655290755
 30
0.0
 10
22.245213317286122
 20
202.54172053404326
 30
0.0
 10
23.09820405216496
 20
202.3562165201142
 30
0.0
 10
23.60790756658123
 20
202.24445394138618
 30
0.0
 10
24.142279530688878
 20
202.24014897073064
 30
0.0
 10
24.651768989505754
 20
202.35621652011417
 30
0.0
 10
25.158940223017307
 20
202.47038721302278
 30
0.0
 10
25.63806843486771
 20
202.69998033675023
 30
0.0
 10
26.051288649472028
 20
203.014335410487
 30
0.0
 10
26.88565039727788
 20
203.64674772804145
 30
0.0
 10
27.456545682535953
 20
204.62047535406452
 30
0.0
 10
27.583289739947794
 20
205.66138891126687
 30
0.0
 10
27.644404948641636
 20
206.1549640276165
 30
0.0
 10
27.604278646919376
 20
206.6612332280753
 30
0.0
 10
27.46193032014034
 20
207.1379508414153
 30
0.0
 10
27.327972875300045
 20
207.58889834066443
 30
0.0
 10
27.10390859734867
 20
208.01187448974196
 30
0.0
 10
26.81061581409533
 20
208.37919334420877
 30
0.0
 10
26.542699848233564
 20
208.71348818425756
 30
0.0
 10
26.229211985967396
 20
208.99764474823024
 30
0.0
 10
25.87015222729677
 20
209.23166303612595
 30
0.0
 10
25.714790278679317
 20
209.33140839751258
 30
0.0
 10
25.556054656161567
 20
209.4204398847224
 30
0.0
 10
25.39394535974353
 20
209.49875749775518
 30
0.0
 10
25.25984201489571
 20
209.56407723633498
 30
0.0
 10
25.126895520133722
 20
209.62154816845074
 30
0.0
 10
24.970680175511813
 20
209.66945805694863
 30
0.0
 10
24.85264506423227
 20
209.70565839971226
 30
0.0
 10
24.721325307675354
 20
209.73640015411823
 30
0.0
 10
24.638090657431206
 20
209.76057489670436
 30
0.0
 10
24.58619432345877
 20
209.7756477120674
 30
0.0
 10
24.552990843843514
 20
209.78816763309553
 30
0.0
 10
24.425857999655346
 20
209.79501508467672
 30
0.0
 10
24.38264236012576
 20
209.79734270505773
 30
0.0
 10
24.328573272169223
 20
209.79901487700823
 30
0.0
 10
24.352941276470588
 20
209.79999989999996
 30
0.0
  0
SPLINE
  5
33
330
17
100
AcDbEntity
  8
CUT
100
AcDbSpline
 70
0
 71
3
 72
116
 73
112
 74
0
 40
0.0
 40
0.0
 40
0.0
 40
0.0
 40
0.6329408029057362
 40
0.6329408029057362
 40
0.6329408029057362
 40
1.6353278259355712
 40
1.6353278259355712
 40
1.6353278259355712
 40
2.908686822563965
 40
2.908686822563965
 40
2.908686822563965
 40
4.316920974164272
 40
4.316920974164272
 40
4.316920974164272
 40
5.8063705407782775
 40
5.8063705407782775
 40
5.8063705407782775
 40
8.941193221018102
 40
8.941193221018102
 40
8.941193221018102
 40
10.496614270347157
 40
10.496614270347157
 40
10.496614270347157
 40
12.05959075830842
 40
12.05959075830842
 40
12.05959075830842
 40
14.66017864201989
 40
14.66017864201989
 40
14.66017864201989
 40
17.61586767414694
 40
17.61586767414694
 40
17.61586767414694
 40
20.457594145625723
 40
20.457594145625723
 40
20.457594145625723
 40
21.99638040779538
 40
21.99638040779538
 40
21.99638040779538
 40
23.120789785401826
 40
23.120789785401826
 40
23.120789785401826
 40
23.514146638371276
 40
23.514146638371276
 40
23.514146638371276
 40
23.79387694433731
 40
23.79387694433731
 40
23.79387694433731
 40
23.960972141273167
 40
23.960972141273167
 40
23.960972141273167
 40
24.016532300158108
 40
24.016532300158108
 40
24.016532300158108
 40
24.07209245904305
 40
24.07209245904305
 40
24.07209245904305
 40
24.239187655978903
 40
24.239187655978903
 40
24.239187655978903
 40
24.518917961944936
 40
24.518917961944936
 40
24.518917961944936
 40
24.912274814914387
 40
24.912274814914387
 40
24.912274814914387
 40
26.036684192520823
 40
26.036684192520823
 40
26.036684192520823
 40
27.575470454690482
 40
27.575470454690482
 40
27.575470454690482
 40
30.41719692616927
 40
30.41719692616927
 40
30.41719692616927
 40
33.372885958296315
 40
33.372885958296315
 40
33.372885958296315
 40
35.973473842007785
 40
35.973473842007785
 40
35.973473842007785
 40
37.53645032996905
 40
37.53645032996905
 40
37.53645032996905
 40
39.0918713792981
 40
39.0918713792981
 40
39.0918713792981
 40
42.22669405953794
 40
42.22669405953794
 40
42.22669405953794
 40
43.71614362615193
 40
43.71614362615193
 40
43.71614362615193
 40
45.12437777775225
 40
45.12437777775225
 40
45.12437777775225
 40
46.39773677438065
 40
46.39773677438065
 40
46.39773677438065
 40
46.94373350709782
 40
46.94373350709782
 40
46.94373350709782
 40
47.40012379741049
 40
47.40012379741049
 40
47.40012379741049
 40
47.74496878580985
 40
47.74496878580985
 40
47.74496878580985
 40
47.9599776869609
 40
47.9599776869609
 40
47.9599776869609
 40
48.03306460031622
 40
48.03306460031622
 40
48.03306460031622
 40
48.03306460031622
 10
26.352941276470588
 20
107.79999989999999
 30
0.0
 10
26.563975578660457
 20
107.8106227533707
 30
0.0
 10
26.77036703062731
 20
107.8662119735881
 30
0.0
 10
26.970680175511813
 20
107.9305417430513
 30
0.0
 10
27.289077296388626
 20
108.03807496357976
 30
0.0
 10
27.588901313650297
 20
108.18400663718734
 30
0.0
 10
27.870152227296778
 20
108.36833676387391
 30
0.0
 10
28.22580794826926
 20
108.6005069689786
 30
0.0
 10
28.54572253405902
 20
108.8883596985334
 30
0.0
 10
28.81061581409533
 20
109.22080645579115
 30
0.0
 10
29.10376984412716
 20
109.588125310258
 30
0.0
 10
29.328075370408992
 20
110.01110145933535
 30
0.0
 10
29.461930320140333
 20
110.4620489585846
 30
0.0
 10
29.604267734134712
 20
110.9387665719249
 30
0.0
 10
29.644412961084484
 20
111.44503577238308
 30
0.0
 10
29.5832897399478
 20
111.93861088873305
 30
0.0
 10
29.456545474383237
 20
112.97952444593534
 30
0.0
 10
28.885650556183478
 20
113.95325207195853
 30
0.0
 10
28.051288649472028
 20
114.58566438951291
 30
0.0
 10
27.638068430425097
 20
114.90001946324958
 30
0.0
 10
27.158940226196783
 20
115.12961258697717
 30
0.0
 10
26.651768989505754
 20
115.24378327988575
 30
0.0
 10
26.142279530375262
 20
115.35985082926922
 30
0.0
 10
25.607907566810564
 20
115.35554585861374
 30
0.0
 10
25.09820405216496
 20
115.24378327988572
 30
0.0
 10
24.245213317276207
 20
115.0582792659566
 30
0.0
 10
23.48104017335554
 20
114.59503324709237
 30
0.0
 10
22.813299566882538
 20
114.0476758762027
 30
0.0
 10
22.05086577130361
 20
113.4209705511478
 30
0.0
 10
21.390730653016647
 20
112.68317551617233
 30
0.0
 10
20.747200022167338
 20
111.93861088873305
 30
0.0
 10
20.12872353191861
 20
111.22134830372977
 30
0.0
 10
19.527554771612284
 20
110.48835146535222
 30
0.0
 10
18.876646675013905
 20
109.79969387698853
 30
0.0
 10
18.52422587259429
 20
109.4273765228435
 30
0.0
 10
18.15649684671709
 20
109.0676336470384
 30
0.0
 10
17.760785865083438
 20
108.74117637058822
 30
0.0
 10
17.47335709528935
 20
108.50322568105594
 30
0.0
 10
17.16393410338297
 20
108.28231834202208
 30
0.0
 10
16.837706234833586
 20
108.10124230224483
 30
0.0
 10
16.72623810234776
 20
108.03747243325424
 30
0.0
 10
16.6081087321786
 20
107.98057224685638
 30
0.0
 10
16.48331812432612
 20
107.93054174305126
 30
0.0
 10
16.393193766219518
 20
107.89537375674985
 30
0.0
 10
16.296753979555298
 20
107.86455567085994
 30
0.0
 10
16.21884361593489
 20
107.83942490329557
 30
0.0
 10
16.17230433408078
 20
107.82441319213763
 30
0.0
 10
16.132376716441808
 20
107.81143082851858
 30
0.0
 10
16.055336190135765
 20
107.80498471532317
 30
0.0
 10
16.029719751359316
 20
107.80284134388043
 30
0.0
 10
16.000000100000005
 20
107.8014206219402
 30
0.0
 10
16.000000099999998
 20
107.79999989999996
 30
0.0
 10
16.000000099999994
 20
107.7985791780597
 30
0.0
 10
16.02971975135933
 20
107.79715845611946
 30
0.0
 10
16.055336190135762
 20
107.79501508467675
 30
0.0
 10
16.132376716441804
 20
107.7885689714814
 30
0.0
 10
16.17230433408077
 20
107.77558660786238
 30
0.0
 10
16.218843615934894
 20
107.76057489670438
 30
0.0
 10
16.296753979555287
 20
107.73544412914003
 30
0.0
 10
16.39319376621953
 20
107.7046260432501
 30
0.0
 10
16.483318124326125
 20
107.66945805694863
 30
0.0
 10
16.608108732178607
 20
107.61942755314357
 30
0.0
 10
16.726238102347754
 20
107.56252736674568
 30
0.0
 10
16.837706234833586
 20
107.49875749775512
 30
0.0
 10
17.16393410338297
 20
107.31768145797787
 30
0.0
 10
17.473357095289344
 20
107.09677411894401
 30
0.0
 10
17.760785865083434
 20
106.85882342941176
 30
0.0
 10
18.156496846717097
 20
106.53236615296152
 30
0.0
 10
18.524225872594286
 20
106.17262327715642
 30
0.0
 10
18.876646675013898
 20
105.8003059230114
 30
0.0
 10
19.527554771612298
 20
105.11164833464781
 30
0.0
 10
20.128723531918613
 20
104.37865149627015
 30
0.0
 10
20.74720002216734
 20
103.6613889112669
 30
0.0
 10
21.39073065301683
 20
102.91682428382754
 30
0.0
 10
22.050865771303354
 20
102.17902924885223
 30
0.0
 10
22.813299566882538
 20
101.55232392379719
 30
0.0
 10
23.48104017334781
 20
101.00496655290752
 30
0.0
 10
24.245213317286133
 20
100.54172053404332
 30
0.0
 10
25.09820405216496
 20
100.35621652011423
 30
0.0
 10
25.607907566581257
 20
100.24445394138621
 30
0.0
 10
26.142279530688864
 20
100.2401489707307
 30
0.0
 10
26.651768989505754
 20
100.35621652011417
 30
0.0
 10
27.158940223017282
 20
100.47038721302272
 30
0.0
 10
27.638068434867705
 20
100.69998033675034
 30
0.0
 10
28.051288649472024
 20
101.014335410487
 30
0.0
 10
28.885650397277917
 20
101.6467477280415
 30
0.0
 10
29.45654568253593
 20
102.62047535406452
 30
0.0
 10
29.5832897399478
 20
103.6613889112669
 30
0.0
 10
29.644404948641657
 20
104.15496402761681
 30
0.0
 10
29.60427864691937
 20
104.66123322807508
 30
0.0
 10
29.461930320140333
 20
105.13795084141529
 30
0.0
 10
29.327972875300034
 20
105.58889834066457
 30
0.0
 10
29.103908597348692
 20
106.01187448974193
 30
0.0
 10
28.81061581409533
 20
106.37919334420877
 30
0.0
 10
28.542699848233557
 20
106.71348818425767
 30
0.0
 10
28.229211985967368
 20
106.9976447482301
 30
0.0
 10
27.87015222729678
 20
107.23166303612604
 30
0.0
 10
27.71479027867931
 20
107.33140839751263
 30
0.0
 10
27.55605465616156
 20
107.42043988472233
 30
0.0
 10
27.393945359743523
 20
107.49875749775512
 30
0.0
 10
27.259842014895696
 20
107.56407723633507
 30
0.0
 10
27.126895520133743
 20
107.6215481684506
 30
0.0
 10
26.970680175511813
 20
107.66945805694866
 30
0.0
 10
26.8526450642323
 20
107.70565839971229
 30
0.0
 10
26.721325307675368
 20
107.73640015411826
 30
0.0
 10
26.63809065743121
 20
107.76057489670436
 30
0.0
 10
26.586194323458766
 20
107.77564771206741
 30
0.0
 10
26.552990843843496
 20
107.78816763309555
 30
0.0
 10
26.425857999655346
 20
107.79501508467675
 30
0.0
 10
26.38264236012574
 20
107.79734270505776
 30
0.0
 10
26.328573272169205
 20
107.79901487700832
 30
0.0
 10
26.352941276470588
 20
107.79999989999996
 30
0.0
  0
SPLINE
  5
34
330
17
100
AcDbEntity
  8
CUT
100
AcDbSpline
 70
0
 71
3
 72
116
 73
112
 74
0
 40
0.0
 40
0.0
 40
0.0
 40
0.0
 40
0.63294080290574
 40
0.63294080290574
 40
0.63294080290574
 40
1.6353278259355768
 40
1.6353278259355768
 40
1.6353278259355768
 40
2.9086868225639617
 40
2.9086868225639617
 40
2.9086868225639617
 40
4.316920974164268
 40
4.316920974164268
 40
4.316920974164268
 40
5.806370540778274
 40
5.806370540778274
 40
5.806370540778274
 40
8.941193221018107
 40
8.941193221018107
 40
8.941193221018107
 40
10.496614270347155
 40
10.496614270347155
 40
10.496614270347155
 40
12.059590758308419
 40
12.059590758308419
 40
12.059590758308419
 40
14.660178642019888
 40
14.660178642019888
 40
14.660178642019888
 40
17.615867674146937
 40
17.615867674146937
 40
17.615867674146937
 40
20.45759414562572
 40
20.45759414562572
 40
20.45759414562572
 40
21.996380407795378
 40
21.996380407795378
 40
21.996380407795378
 40
23.12078978540182
 40
23.12078978540182
 40
23.12078978540182
 40
23.514146638371262
 40
23.514146638371262
 40
23.514146638371262
 40
23.7938769443373
 40
23.7938769443373
 40
23.7938769443373
 40
23.960972141273157
 40
23.960972141273157
 40
23.960972141273157
 40
24.016532300158097
 40
24.016532300158097
 40
24.016532300158097
 40
24.072092459043038
 40
24.072092459043038
 40
24.072092459043038
 40
24.239187655978892
 40
24.239187655978892
 40
24.239187655978892
 40
24.518917961944933
 40
24.518917961944933
 40
24.518917961944933
 40
24.912274814914376
 40
24.912274814914376
 40
24.912274814914376
 40
26.036684192520816
 40
26.036684192520816
 40
26.036684192520816
 40
27.575470454690475
 40
27.575470454690475
 40
27.575470454690475
 40
30.417196926169265
 40
30.417196926169265
 40
30.417196926169265
 40
33.37288595829631
 40
33.37288595829631
 40
33.37288595829631
 40
35.97347384200778
 40
35.97347384200778
 40
35.97347384200778
 40
37.53645032996904
 40
37.53645032996904
 40
37.53645032996904
 40
39.09187137929809
 40
39.09187137929809
 40
39.09187137929809
 40
42.226694059537934
 40
42.226694059537934
 40
42.226694059537934
 40
43.71614362615193
 40
43.71614362615193
 40
43.71614362615193
 40
45.124377777752244
 40
45.124377777752244
 40
45.124377777752244
 40
46.397736774380625
 40
46.397736774380625
 40
46.397736774380625
 40
46.943733507097804
 40
46.943733507097804
 40
46.943733507097804
 40
47.400123797410465
 40
47.400123797410465
 40
47.400123797410465
 40
47.74496878580983
 40
47.74496878580983
 40
47.74496878580983
 40
47.959977686960876
 40
47.959977686960876
 40
47.959977686960876
 40
48.0330646003162
 40
48.0330646003162
 40
48.0330646003162
 40
48.0330646003162
 10
26.35294127647059
 20
175.79999989999996
 30
0.0
 10
26.563975578660465
 20
175.81062275337064
 30
0.0
 10
26.770367030627305
 20
175.86621197358812
 30
0.0
 10
26.970680175511813
 20
175.93054174305126
 30
0.0
 10
27.289077296388662
 20
176.0380749635799
 30
0.0
 10
27.588901313650286
 20
176.18400663718725
 30
0.0
 10
27.87015222729677
 20
176.36833676387388
 30
0.0
 10
28.225807948269274
 20
176.6005069689787
 30
0.0
 10
28.545722534059035
 20
176.88835969853335
 30
0.0
 10
28.810615814095332
 20
177.22080645579115
 30
0.0
 10
29.103769844127164
 20
177.58812531025805
 30
0.0
 10
29.328075370408982
 20
178.0111014593353
 30
0.0
 10
29.461930320140336
 20
178.46204895858457
 30
0.0
 10
29.6042677341347
 20
178.93876657192484
 30
0.0
 10
29.64441296108449
 20
179.44503577238314
 30
0.0
 10
29.5832897399478
 20
179.93861088873305
 30
0.0
 10
29.456545474383255
 20
180.9795244459353
 30
0.0
 10
28.885650556183457
 20
181.95325207195847
 30
0.0
 10
28.051288649472028
 20
182.58566438951289
 30
0.0
 10
27.63806843042508
 20
182.90001946324958
 30
0.0
 10
27.15894022619678
 20
183.1296125869772
 30
0.0
 10
26.651768989505754
 20
183.2437832798857
 30
0.0
 10
26.142279530375273
 20
183.35985082926928
 30
0.0
 10
25.607907566810557
 20
183.35554585861368
 30
0.0
 10
25.09820405216496
 20
183.2437832798857
 30
0.0
 10
24.245213317276185
 20
183.05827926595657
 30
0.0
 10
23.48104017335555
 20
182.59503324709235
 30
0.0
 10
22.813299566882534
 20
182.04767587620273
 30
0.0
 10
22.050865771303606
 20
181.42097055114755
 30
0.0
 10
21.39073065301664
 20
180.68317551617247
 30
0.0
 10
20.747200022167327
 20
179.93861088873297
 30
0.0
 10
20.128723531918613
 20
179.22134830372983
 30
0.0
 10
19.527554771612284
 20
178.48835146535208
 30
0.0
 10
18.876646675013905
 20
177.79969387698853
 30
0.0
 10
18.524225872594275
 20
177.42737652284347
 30
0.0
 10
18.1564968467171
 20
177.06763364703826
 30
0.0
 10
17.76078586508344
 20
176.74117637058822
 30
0.0
 10
17.473357095289327
 20
176.5032256810558
 30
0.0
 10
17.163934103382978
 20
176.28231834202222
 30
0.0
 10
16.837706234833583
 20
176.10124230224477
 30
0.0
 10
16.726238102347743
 20
176.03747243325424
 30
0.0
 10
16.608108732178604
 20
175.98057224685638
 30
0.0
 10
16.48331812432612
 20
175.9305417430513
 30
0.0
 10
16.393193766219518
 20
175.89537375674973
 30
0.0
 10
16.296753979555298
 20
175.86455567086003
 30
0.0
 10
16.218843615934897
 20
175.83942490329557
 30
0.0
 10
16.172304334080767
 20
175.82441319213748
 30
0.0
 10
16.132376716441797
 20
175.81143082851864
 30
0.0
 10
16.055336190135762
 20
175.80498471532314
 30
0.0
 10
16.02971975135934
 20
175.80284134388037
 30
0.0
 10
16.000000099999998
 20
175.8014206219403
 30
0.0
 10
16.0000001
 20
175.79999989999993
 30
0.0
 10
16.000000099999994
 20
175.7985791780596
 30
0.0
 10
16.029719751359337
 20
175.79715845611946
 30
0.0
 10
16.055336190135762
 20
175.79501508467672
 30
0.0
 10
16.132376716441804
 20
175.7885689714813
 30
0.0
 10
16.17230433408076
 20
175.77558660786238
 30
0.0
 10
16.218843615934894
 20
175.76057489670438
 30
0.0
 10
16.296753979555287
 20
175.73544412913995
 30
0.0
 10
16.393193766219518
 20
175.70462604325004
 30
0.0
 10
16.48331812432612
 20
175.66945805694857
 30
0.0
 10
16.6081087321786
 20
175.61942755314348
 30
0.0
 10
16.726238102347754
 20
175.56252736674563
 30
0.0
 10
16.83770623483359
 20
175.49875749775515
 30
0.0
 10
17.163934103382985
 20
175.3176814579778
 30
0.0
 10
17.47335709528935
 20
175.09677411894393
 30
0.0
 10
17.760785865083438
 20
174.85882342941176
 30
0.0
 10
18.15649684671708
 20
174.53236615296152
 30
0.0
 10
18.52422587259429
 20
174.17262327715642
 30
0.0
 10
18.8766466750139
 20
173.8003059230114
 30
0.0
 10
19.527554771612277
 20
173.1116483346477
 30
0.0
 10
20.128723531918606
 20
172.37865149627012
 30
0.0
 10
20.747200022167345
 20
171.6613889112669
 30
0.0
 10
21.390730653016817
 20
170.91682428382745
 30
0.0
 10
22.050865771303368
 20
170.17902924885223
 30
0.0
 10
22.813299566882538
 20
169.55232392379716
 30
0.0
 10
23.481040173347807
 20
169.00496655290755
 30
0.0
 10
24.24521331728614
 20
168.5417205340433
 30
0.0
 10
25.098204052164956
 20
168.3562165201142
 30
0.0
 10
25.60790756658124
 20
168.2444539413862
 30
0.0
 10
26.14227953068887
 20
168.2401489707307
 30
0.0
 10
26.651768989505758
 20
168.3562165201142
 30
0.0
 10
27.15894022301731
 20
168.47038721302286
 30
0.0
 10
27.63806843486771
 20
168.6999803367502
 30
0.0
 10
28.051288649472024
 20
169.014335410487
 30
0.0
 10
28.885650397277896
 20
169.64674772804145
 30
0.0
 10
29.456545682535957
 20
170.62047535406455
 30
0.0
 10
29.58328973994779
 20
171.66138891126687
 30
0.0
 10
29.64440494864163
 20
172.15496402761667
 30
0.0
 10
29.604278646919376
 20
172.66123322807513
 30
0.0
 10
29.461930320140333
 20
173.13795084141532
 30
0.0
 10
29.327972875300034
 20
173.58889834066457
 30
0.0
 10
29.103908597348685
 20
174.01187448974187
 30
0.0
 10
28.810615814095325
 20
174.37919334420877
 30
0.0
 10
28.542699848233557
 20
174.71348818425756
 30
0.0
 10
28.229211985967396
 20
174.99764474823021
 30
0.0
 10
27.870152227296767
 20
175.23166303612595
 30
0.0
 10
27.714790278679327
 20
175.33140839751255
 30
0.0
 10
27.55605465616157
 20
175.4204398847224
 30
0.0
 10
27.39394535974353
 20
175.49875749775518
 30
0.0
 10
27.259842014895693
 20
175.56407723633504
 30
0.0
 10
27.126895520133736
 20
175.62154816845066
 30
0.0
 10
26.970680175511813
 20
175.66945805694866
 30
0.0
 10
26.852645064232284
 20
175.70565839971232
 30
0.0
 10
26.721325307675343
 20
175.73640015411823
 30
0.0
 10
26.63809065743121
 20
175.76057489670438
 30
0.0
 10
26.586194323458773
 20
175.7756477120674
 30
0.0
 10
26.55299084384351
 20
175.7881676330955
 30
0.0
 10
26.425857999655346
 20
175.79501508467675
 30
0.0
 10
26.38264236012575
 20
175.79734270505767
 30
0.0
 10
26.328573272169205
 20
175.7990148770083
 30
0.0
 10
26.352941276470588
 20
175.79999989999996
 30
0.0
  0
SPLINE
  5
35
330
17
100
AcDbEntity
  8
CUT
100
AcDbSpline
 70
0
 71
3
 72
116
 73
112
 74
0
 40
0.0
 40
0.0
 40
0.0
 40
0.0
 40
0.63294080290574
 40
0.63294080290574
 40
0.63294080290574
 40
1.6353278259355768
 40
1.6353278259355768
 40
1.6353278259355768
 40
2.9086868225639617
 40
2.9086868225639617
 40
2.9086868225639617
 40
4.316920974164268
 40
4.316920974164268
 40
4.316920974164268
 40
5.806370540778274
 40
5.806370540778274
 40
5.806370540778274
 40
8.941193221018107
 40
8.941193221018107
 40
8.941193221018107
 40
10.496614270347155
 40
10.496614270347155
 40
10.496614270347155
 40
12.059590758308419
 40
12.059590758308419
 40
12.059590758308419
 40
14.660178642019888
 40
14.660178642019888
 40
14.660178642019888
 40
17.615867674146937
 40
17.615867674146937
 40
17.615867674146937
 40
20.45759414562572
 40
20.45759414562572
 40
20.45759414562572
 40
21.996380407795378
 40
21.996380407795378
 40
21.996380407795378
 40
23.12078978540182
 40
23.12078978540182
 40
23.12078978540182
 40
23.514146638371262
 40
23.514146638371262
 40
23.514146638371262
 40
23.7938769443373
 40
23.7938769443373
 40
23.7938769443373
 40
23.960972141273157
 40
23.960972141273157
 40
23.960972141273157
 40
24.016532300158097
 40
24.016532300158097
 40
24.016532300158097
 40
24.072092459043038
 40
24.072092459043038
 40
24.072092459043038
 40
24.239187655978892
 40
24.239187655978892
 40
24.239187655978892
 40
24.518917961944933
 40
24.518917961944933
 40
24.518917961944933
 40
24.912274814914376
 40
24.912274814914376
 40
24.912274814914376
 40
26.036684192520816
 40
26.036684192520816
 40
26.036684192520816
 40
27.575470454690475
 40
27.575470454690475
 40
27.575470454690475
 40
30.417196926169265
 40
30.417196926169265
 40
30.417196926169265
 40
33.37288595829631
 40
33.37288595829631
 40
33.37288595829631
 40
35.97347384200778
 40
35.97347384200778
 40
35.97347384200778
 40
37.53645032996904
 40
37.53645032996904
 40
37.53645032996904
 40
39.09187137929809
 40
39.09187137929809
 40
39.09187137929809
 40
42.226694059537934
 40
42.226694059537934
 40
42.226694059537934
 40
43.71614362615193
 40
43.71614362615193
 40
43.71614362615193
 40
45.124377777752244
 40
45.124377777752244
 40
45.124377777752244
 40
46.397736774380625
 40
46.397736774380625
 40
46.397736774380625
 40
46.943733507097804
 40
46.943733507097804
 40
46.943733507097804
 40
47.400123797410465
 40
47.400123797410465
 40
47.400123797410465
 40
47.74496878580983
 40
47.74496878580983
 40
47.74496878580983
 40
47.959977686960876
 40
47.959977686960876
 40
47.959977686960876
 40
48.0330646003162
 40
48.0330646003162
 40
48.0330646003162
 40
48.0330646003162
 10
26.35294127647059
 20
243.79999989999996
 30
0.0
 10
26.563975578660465
 20
243.81062275337067
 30
0.0
 10
26.770367030627305
 20
243.86621197358815
 30
0.0
 10
26.970680175511813
 20
243.93054174305126
 30
0.0
 10
27.289077296388662
 20
244.03807496357996
 30
0.0
 10
27.588901313650286
 20
244.18400663718725
 30
0.0
 10
27.87015222729677
 20
244.36833676387386
 30
0.0
 10
28.225807948269274
 20
244.60050696897866
 30
0.0
 10
28.545722534059035
 20
244.88835969853338
 30
0.0
 10
28.810615814095332
 20
245.22080645579112
 30
0.0
 10
29.103769844127164
 20
245.58812531025805
 30
0.0
 10
29.328075370408982
 20
246.0111014593353
 30
0.0
 10
29.461930320140336
 20
246.46204895858455
 30
0.0
 10
29.6042677341347
 20
246.9387665719249
 30
0.0
 10
29.64441296108449
 20
247.44503577238308
 30
0.0
 10
29.5832897399478
 20
247.93861088873305
 30
0.0
 10
29.456545474383255
 20
248.9795244459352
 30
0.0
 10
28.885650556183457
 20
249.9532520719585
 30
0.0
 10
28.051288649472028
 20
250.5856643895129
 30
0.0
 10
27.63806843042508
 20
250.9000194632496
 30
0.0
 10
27.15894022619678
 20
251.1296125869772
 30
0.0
 10
26.651768989505754
 20
251.24378327988563
 30
0.0
 10
26.142279530375273
 20
251.3598508292692
 30
0.0
 10
25.607907566810557
 20
251.35554585861374
 30
0.0
 10
25.09820405216496
 20
251.24378327988566
 30
0.0
 10
24.245213317276185
 20
251.05827926595646
 30
0.0
 10
23.48104017335555
 20
250.59503324709243
 30
0.0
 10
22.813299566882534
 20
250.0476758762027
 30
0.0
 10
22.050865771303606
 20
249.42097055114758
 30
0.0
 10
21.39073065301664
 20
248.6831755161723
 30
0.0
 10
20.747200022167327
 20
247.938610888733
 30
0.0
 10
20.128723531918613
 20
247.22134830372977
 30
0.0
 10
19.527554771612284
 20
246.48835146535222
 30
0.0
 10
18.876646675013905
 20
245.79969387698856
 30
0.0
 10
18.524225872594275
 20
245.42737652284342
 30
0.0
 10
18.1564968467171
 20
245.0676336470384
 30
0.0
 10
17.76078586508344
 20
244.74117637058822
 30
0.0
 10
17.473357095289327
 20
244.5032256810558
 30
0.0
 10
17.163934103382978
 20
244.28231834202214
 30
0.0
 10
16.837706234833583
 20
244.1012423022448
 30
0.0
 10
16.726238102347743
 20
244.03747243325407
 30
0.0
 10
16.608108732178604
 20
243.98057224685652
 30
0.0
 10
16.48331812432612
 20
243.93054174305126
 30
0.0
 10
16.393193766219518
 20
243.8953737567498
 30
0.0
 10
16.296753979555298
 20
243.86455567085994
 30
0.0
 10
16.218843615934897
 20
243.8394249032956
 30
0.0
 10
16.172304334080767
 20
243.82441319213746
 30
0.0
 10
16.132376716441797
 20
243.81143082851864
 30
0.0
 10
16.055336190135762
 20
243.80498471532314
 30
0.0
 10
16.02971975135934
 20
243.8028413438804
 30
0.0
 10
16.000000099999998
 20
243.80142062194022
 30
0.0
 10
16.0000001
 20
243.79999989999988
 30
0.0
 10
16.000000099999994
 20
243.79857917805953
 30
0.0
 10
16.029719751359337
 20
243.79715845611952
 30
0.0
 10
16.055336190135762
 20
243.7950150846767
 30
0.0
 10
16.132376716441804
 20
243.78856897148137
 30
0.0
 10
16.17230433408076
 20
243.77558660786235
 30
0.0
 10
16.218843615934894
 20
243.76057489670436
 30
0.0
 10
16.296753979555287
 20
243.73544412913998
 30
0.0
 10
16.393193766219518
 20
243.70462604325
 30
0.0
 10
16.48331812432612
 20
243.66945805694857
 30
0.0
 10
16.6081087321786
 20
243.61942755314348
 30
0.0
 10
16.726238102347754
 20
243.5625273667457
 30
0.0
 10
16.83770623483359
 20
243.49875749775512
 30
0.0
 10
17.163934103382985
 20
243.31768145797776
 30
0.0
 10
17.47335709528935
 20
243.09677411894404
 30
0.0
 10
17.760785865083438
 20
242.85882342941179
 30
0.0
 10
18.15649684671708
 20
242.5323661529615
 30
0.0
 10
18.52422587259429
 20
242.17262327715642
 30
0.0
 10
18.8766466750139
 20
241.8003059230114
 30
0.0
 10
19.527554771612277
 20
241.1116483346476
 30
0.0
 10
20.128723531918606
 20
240.37865149627018
 30
0.0
 10
20.747200022167345
 20
239.66138891126695
 30
0.0
 10
21.390730653016817
 20
238.9168242838273
 30
0.0
 10
22.050865771303368
 20
238.17902924885232
 30
0.0
 10
22.813299566882538
 20
237.5523239237972
 30
0.0
 10
23.481040173347807
 20
237.0049665529073
 30
0.0
 10
24.24521331728614
 20
236.54172053404346
 30
0.0
 10
25.098204052164956
 20
236.35621652011417
 30
0.0
 10
25.60790756658124
 20
236.24445394138607
 30
0.0
 10
26.14227953068887
 20
236.24014897073073
 30
0.0
 10
26.651768989505758
 20
236.3562165201142
 30
0.0
 10
27.15894022301731
 20
236.4703872130228
 30
0.0
 10
27.63806843486771
 20
236.6999803367502
 30
0.0
 10
28.051288649472024
 20
237.014335410487
 30
0.0
 10
28.885650397277896
 20
237.64674772804145
 30
0.0
 10
29.456545682535957
 20
238.62047535406455
 30
0.0
 10
29.58328973994779
 20
239.66138891126687
 30
0.0
 10
29.64440494864163
 20
240.1549640276167
 30
0.0
 10
29.604278646919376
 20
240.66123322807508
 30
0.0
 10
29.461930320140333
 20
241.13795084141535
 30
0.0
 10
29.327972875300034
 20
241.58889834066443
 30
0.0
 10
29.103908597348685
 20
242.01187448974198
 30
0.0
 10
28.810615814095325
 20
242.37919334420874
 30
0.0
 10
28.542699848233557
 20
242.71348818425753
 30
0.0
 10
28.229211985967396
 20
242.9976447482302
 30
0.0
 10
27.870152227296767
 20
243.23166303612592
 30
0.0
 10
27.714790278679327
 20
243.33140839751255
 30
0.0
 10
27.55605465616157
 20
243.42043988472238
 30
0.0
 10
27.39394535974353
 20
243.4987574977552
 30
0.0
 10
27.259842014895693
 20
243.56407723633495
 30
0.0
 10
27.126895520133736
 20
243.62154816845077
 30
0.0
 10
26.970680175511813
 20
243.66945805694863
 30
0.0
 10
26.852645064232284
 20
243.70565839971223
 30
0.0
 10
26.721325307675343
 20
243.73640015411823
 30
0.0
 10
26.63809065743121
 20
243.76057489670438
 30
0.0
 10
26.586194323458773
 20
243.77564771206735
 30
0.0
 10
26.55299084384351
 20
243.7881676330955
 30
0.0
 10
26.425857999655346
 20
243.79501508467672
 30
0.0
 10
26.38264236012575
 20
243.79734270505773
 30
0.0
 10
26.328573272169205
 20
243.79901487700818
 30
0.0
 10
26.352941276470588
 20
243.79999989999996
 30
0.0
  0
SPLINE
  5
36
330
17
100
AcDbEntity
  8
CUT
100
AcDbSpline
 70
0
 71
3
 72
170
 73
166
 74
0
 40
0.0
 40
0.0
 40
0.0
 40
0.0
 40
0.000320584320526113
 40
0.000320584320526113
 40
0.000320584320526113
 40
0.0006530610407305421
 40
0.0006530610407305421
 40
0.0006530610407305421
 40
0.0039548110087653625
 40
0.0039548110087653625
 40
0.0039548110087653625
 40
0.007256560976800182
 40
0.007256560976800182
 40
0.007256560976800182
 40
0.015064765911899161
 40
0.015064765911899161
 40
0.015064765911899161
 40
0.026826002005225676
 40
0.026826002005225676
 40
0.026826002005225676
 40
0.03857784152221803
 40
0.03857784152221803
 40
0.03857784152221803
 40
0.06312631920526506
 40
0.06312631920526506
 40
0.06312631920526506
 40
0.09727133694723064
 40
0.09727133694723064
 40
0.09727133694723064
 40
0.12501457059399682
 40
0.12501457059399682
 40
0.12501457059399682
 40
0.1591590817943664
 40
0.1591590817943664
 40
0.1591590817943664
 40
0.18263252366444513
 40
0.18263252366444513
 40
0.18263252366444513
 40
0.21144172144920956
 40
0.21144172144920956
 40
0.21144172144920956
 40
0.23491738024242279
 40
0.23491738024242279
 40
0.23491738024242279
 40
0.25092432779754453
 40
0.25092432779754453
 40
0.25092432779754453
 40
0.28080255615003635
 40
0.28080255615003635
 40
0.28080255615003635
 40
0.3128153147698763
 40
0.3128153147698763
 40
0.3128153147698763
 40
0.33522298286464913
 40
0.33522298286464913
 40
0.33522298286464913
 40
0.37363009820032606
 40
0.37363009820032606
 40
0.37363009820032606
 40
0.43656974447708224
 40
0.43656974447708224
 40
0.43656974447708224
 40
0.46964033675867617
 40
0.46964033675867617
 40
0.46964033675867617
 40
0.4899093707950796
 40
0.4899093707950796
 40
0.4899093707950796
 40
0.502710866962329
 40
0.502710866962329
 40
0.502710866962329
 40
0.5101784057853987
 40
0.5101784057853987
 40
0.5101784057853987
 40
0.5219073108695672
 40
0.5219073108695672
 40
0.5219073108695672
 40
0.52757305424462
 40
0.52757305424462
 40
0.52757305424462
 40
0.5304059259321464
 40
0.5304059259321464
 40
0.5304059259321464
 40
0.5332387976196729
 40
0.5332387976196729
 40
0.5332387976196729
 40
0.5339641264051188
 40
0.5339641264051188
 40
0.5339641264051188
 40
0.5346894551905648
 40
0.5346894551905648
 40
0.5346894551905648
 40
0.5347748980516553
 40
0.5347748980516553
 40
0.5347748980516553
 40
0.5353440706430235
 40
0.5353440706430235
 40
0.5353440706430235
 40
0.5359132432343917
 40
0.5359132432343917
 40
0.5359132432343917
 40
0.5394248739749888
 40
0.5394248739749888
 40
0.5394248739749888
 40
0.5450915416930144
 40
0.5450915416930144
 40
0.5450915416930144
 40
0.5543713716073371
 40
0.5543713716073371
 40
0.5543713716073371
 40
0.5645970279301648
 40
0.5645970279301648
 40
0.5645970279301648
 40
0.5878358274023477
 40
0.5878358274023477
 40
0.5878358274023477
 40
0.6027104083642835
 40
0.6027104083642835
 40
0.6027104083642835
 40
0.6305988913866066
 40
0.6305988913866066
 40
0.6305988913866066
 40
0.689164786942918
 40
0.689164786942918
 40
0.689164786942918
 40
0.7142644149838404
 40
0.7142644149838404
 40
0.7142644149838404
 40
0.7505228963058003
 40
0.7505228963058003
 40
0.7505228963058003
 40
0.7663297436127587
 40
0.7663297436127587
 40
0.7663297436127587
 40
0.7821395873074529
 40
0.7821395873074529
 40
0.7821395873074529
 40
0.8072507979935868
 40
0.8072507979935868
 40
0.8072507979935868
 40
0.8379403006188306
 40
0.8379403006188306
 40
0.8379403006188306
 40
0.8704873888172209
 40
0.8704873888172209
 40
0.8704873888172209
 40
0.8974554186079369
 40
0.8974554186079369
 40
0.8974554186079369
 40
0.9318624928377887
 40
0.9318624928377887
 40
0.9318624928377887
 40
0.9681292060582383
 40
0.9681292060582383
 40
0.9681292060582383
 40
0.9811480261881264
 40
0.9811480261881264
 40
0.9811480261881264
 40
0.9904472458822616
 40
0.9904472458822616
 40
0.9904472458822616
 40
0.9952236229411309
 40
0.9952236229411309
 40
0.9952236229411309
 40
1.0
 40
1.0
 40
1.0
 40
1.0
 10
337.0000003
 20
245.0941175470589
 30
0.0
 10
336.9993725194188
 20
245.07672383427357
 30
0.0
 10
336.9984842024688
 20
245.0679050474104
 30
0.0
 10
336.9973353491497
 20
245.06766118646908
 30
0.0
 10
336.9961627762
 20
245.0699879397427
 30
0.0
 10
336.9950239364159
 20
245.08051897022006
 30
0.0
 10
336.9939188297973
 20
245.09925427790085
 30
0.0
 10
336.98264939697435
 20
245.3037831554474
 30
0.0
 10
336.9738966678915
 20
245.56548035881139
 30
0.0
 10
336.95060220595167
 20
245.76888860280792
 30
0.0
 10
336.92824052314734
 20
245.9779700872116
 30
0.0
 10
336.8908987105772
 20
246.13142561295118
 30
0.0
 10
336.8470237676869
 20
246.27422108818445
 30
0.0
 10
336.7454212357524
 20
246.61330850036887
 30
0.0
 10
336.6191985107074
 20
247.1518842660425
 30
0.0
 10
336.46840127242126
 20
247.66544031418314
 30
0.0
 10
336.242831529523
 20
248.43896040452924
 30
0.0
 10
335.9425289011825
 20
249.12862505377018
 30
0.0
 10
335.60053287044377
 20
249.8140540850338
 30
0.0
 10
335.2593448006222
 20
250.49986640916586
 30
0.0
 10
334.87752662549315
 20
251.1786669278493
 30
0.0
 10
334.45272154532614
 20
251.82509921319124
 30
0.0
 10
333.5646260472373
 20
253.17362579288155
 30
0.0
 10
332.49059987428984
 20
254.39038952321442
 30
0.0
 10
331.2675439977637
 20
255.44578500490098
 30
0.0
 10
329.56752636655193
 20
256.91144680071295
 30
0.0
 10
327.5655800369257
 20
258.0295548317999
 30
0.0
 10
325.41436533694474
 20
258.6777061759028
 30
0.0
 10
323.667828579838
 20
259.2061098117449
 30
0.0
 10
321.8288381534074
 20
259.4234751869569
 30
0.0
 10
320.0070209523476
 20
259.3249068712428
 30
0.0
 10
317.7637196039471
 20
259.20624557970496
 30
0.0
 10
315.55149263799655
 20
258.61280229047577
 30
0.0
 10
313.53534342323394
 20
257.6260245856114
 30
0.0
 10
312.14854004718546
 20
256.9480771535091
 30
0.0
 10
310.85229037254726
 20
256.0856898480822
 30
0.0
 10
309.69046950678023
 20
255.06937364417837
 30
0.0
 10
308.2645955506648
 20
253.82247978112073
 30
0.0
 10
307.0406731588442
 20
252.34178646563046
 30
0.0
 10
306.10415547932826
 20
250.69412554661915
 30
0.0
 10
305.3407553530199
 20
249.35259271950733
 30
0.0
 10
304.7705598625824
 20
247.89912927521559
 30
0.0
 10
304.43144111509304
 20
246.39258983310077
 30
0.0
 10
304.20014335995455
 20
245.36545539343047
 30
0.0
 10
304.07606562674636
 20
244.31414135143132
 30
0.0
 10
304.0604926232276
 20
243.26142355489094
 30
0.0
 10
304.030277225265
 20
241.29502429029463
 30
0.0
 10
304.3862001571729
 20
239.33116906060064
 30
0.0
 10
305.03588667929074
 20
237.47909647107508
 30
0.0
 10
305.730256345212
 20
235.49003676914944
 30
0.0
 10
306.74848638727303
 20
233.627699902781
 30
0.0
 10
307.93990120795405
 20
231.89682596020236
 30
0.0
 10
308.7746522608414
 20
230.6843963155226
 30
0.0
 10
309.6962007791899
 20
229.53303845726597
 30
0.0
 10
310.669033359551
 20
228.42932292170667
 30
0.0
 10
312.3387638466799
 20
226.53759491865998
 30
0.0
 10
314.1574370926732
 20
224.7839195998012
 30
0.0
 10
316.0268861835284
 20
223.09203418406912
 30
0.0
 10
319.0932631230117
 20
220.32015217703508
 30
0.0
 10
322.3021927358482
 20
217.71233256508492
 30
0.0
 10
325.40213484206083
 20
214.97887187379007
 30
0.0
 10
327.0305401949472
 20
213.54240192285675
 30
0.0
 10
328.63114908522095
 20
212.07273017314623
 30
0.0
 10
330.1518144709363
 20
210.52179410102224
 30
0.0
 10
331.0831299620598
 20
209.57101778408045
 30
0.0
 10
331.98448865437854
 20
208.5882062624177
 30
0.0
 10
332.832826535707
 20
207.56338901926028
 30
0.0
 10
333.3703494363975
 20
206.91782180321164
 30
0.0
 10
333.8814755941859
 20
206.25073053613974
 30
0.0
 10
334.36620500907213
 20
205.56211521804437
 30
0.0
 10
334.6484964456246
 20
205.1588721221991
 30
0.0
 10
334.91847896428203
 20
204.74762967501658
 30
0.0
 10
335.17615256504433
 20
204.32838787649663
 30
0.0
 10
335.5794095829077
 20
203.66704924294345
 30
0.0
 10
335.9519983234926
 20
203.01212765027094
 30
0.0
 10
336.2667260029117
 20
202.3092187649229
 30
0.0
 10
336.41905012345535
 20
201.9622068560946
 30
0.0
 10
336.5694507571799
 20
201.54976559944527
 30
0.0
 10
336.6865936804147
 20
201.18971836456655
 30
0.0
 10
336.7462421042411
 20
201.00997291774405
 30
0.0
 10
336.80152935026837
 20
200.83959444753515
 30
0.0
 10
336.85245541849685
 20
200.67858295394024
 30
0.0
 10
336.9027773849117
 20
200.51264545043955
 30
0.0
 10
336.9479348554086
 20
200.35244895998088
 30
0.0
 10
336.9711807606641
 20
200.1030938488674
 30
0.0
 10
336.97715003579503
 20
200.03985403183665
 30
0.0
 10
336.981747954879
 20
200.0006011914295
 30
0.0
 10
336.9858935932082
 20
199.94243600697536
 30
0.0
 10
336.9900920637949
 20
199.88882484865547
 30
0.0
 10
336.9938761971061
 20
199.81009418087524
 30
0.0
 10
336.99958552018046
 20
199.8002632915106
 30
0.0
 10
337.00026729918125
 20
199.79956552538033
 30
0.0
 10
337.0009398406845
 20
199.80043547066526
 30
0.0
 10
337.0016031446902
 20
199.80287312736513
 30
0.0
 10
337.00596451522273
 20
199.82044400970037
 30
0.0
 10
337.00907142798803
 20
199.87146211582987
 30
0.0
 10
337.0123808748351
 20
199.91610053582053
 30
0.0
 10
337.015595099302
 20
199.96081599903354
 30
0.0
 10
337.0191772107571
 20
200.00612966032702
 30
0.0
 10
337.02312720920054
 20
200.05204151970113
 30
0.0
 10
337.0457815904469
 20
200.3478592325148
 30
0.0
 10
337.1053627952268
 20
200.55770878820687
 30
0.0
 10
337.1780000737167
 20
200.77417486625293
 30
0.0
 10
337.29211158010855
 20
201.12876637174105
 30
0.0
 10
337.43256333382266
 20
201.56628958481798
 30
0.0
 10
337.59289076259137
 20
201.96992028783143
 30
0.0
 10
337.8553521670266
 20
202.63110582219872
 30
0.0
 10
338.18244030943265
 20
203.23802328084633
 30
0.0
 10
338.5332611462511
 20
203.8429429904699
 30
0.0
 10
338.92217049707426
 20
204.50970305175838
 30
0.0
 10
339.341889342201
 20
205.1574864179806
 30
0.0
 10
339.79241768163126
 20
205.78629308913645
 30
0.0
 10
340.8145901859247
 20
207.21046842001675
 30
0.0
 10
341.9611510372462
 20
208.53705479989515
 30
0.0
 10
343.1635651839412
 20
209.81088976305097
 30
0.0
 10
343.935575486385
 20
210.6240167033452
 30
0.0
 10
344.7281234606555
 20
211.41651335074317
 30
0.0
 10
345.5412091067526
 20
212.18837970524464
 30
0.0
 10
347.0629743032671
 20
213.63790166275254
 30
0.0
 10
348.6394207345392
 20
215.02898187807307
 30
0.0
 10
350.23082500075895
 20
216.40111503986003
 30
0.0
 10
353.5713604908292
 20
219.2833395470572
 30
0.0
 10
356.9940276639264
 20
222.0765243901954
 30
0.0
 10
360.1712333413014
 20
225.14282059938046
 30
0.0
 10
361.53043769078994
 20
226.45761140037536
 30
0.0
 10
362.84320226431146
 20
227.82402839403625
 30
0.0
 10
364.05775024768946
 20
229.27498440330893
 30
0.0
 10
365.80890818189965
 20
231.3683480106886
 30
0.0
 10
367.36840143256444
 20
233.65063949906852
 30
0.0
 10
368.4525132486939
 20
236.16639309769425
 30
0.0
 10
368.9237175605495
 20
237.26171397804086
 30
0.0
 10
369.3016892731394
 20
238.3986376126701
 30
0.0
 10
369.55761088937425
 20
239.5636929284479
 30
0.0
 10
369.81352850578855
 20
240.7287701376643
 30
0.0
 10
369.9471951982659
 20
241.92184165918954
 30
0.0
 10
369.9409697800629
 20
243.11501523854452
 30
0.0
 10
369.9326281961323
 20
245.01048349252557
 30
0.0
 10
369.56556049908454
 20
246.90275823010896
 30
0.0
 10
368.8679140198559
 20
248.66499480552437
 30
0.0
 10
368.0184877920654
 20
250.82118890750652
 30
0.0
 10
366.68828983681374
 20
252.7784521591942
 30
0.0
 10
365.0346430976219
 20
254.397935938976
 30
0.0
 10
363.28099300427556
 20
256.1170210174441
 30
0.0
 10
361.1625232380808
 20
257.46311730398565
 30
0.0
 10
358.858249876914
 20
258.3133399192231
 30
0.0
 10
356.9499418839137
 20
259.01852083868596
 30
0.0
 10
354.9122246929271
 20
259.3799264360888
 30
0.0
 10
352.8766727329468
 20
259.34566118900807
 30
0.0
 10
350.27968760202737
 20
259.3080413339599
 30
0.0
 10
347.6974257637686
 20
258.60862328202893
 30
0.0
 10
345.4336226494268
 20
257.3372908386664
 30
0.0
 10
343.0427048642331
 20
256.00209257508476
 30
0.0
 10
341.01070610964524
 20
254.05593001878742
 30
0.0
 10
339.51202215230103
 20
251.77093889863187
 30
0.0
 10
338.971895254058
 20
250.94878983055492
 30
0.0
 10
338.50360049681444
 20
250.0875815359962
 30
0.0
 10
338.1071378805701
 20
249.18731401495538
 30
0.0
 10
337.8236705024005
 20
248.54492964575883
 30
0.0
 10
337.5848813810919
 20
247.88662161853762
 30
0.0
 10
337.3907705166442
 20
247.2123899332916
 30
0.0
 10
337.2914764122726
 20
246.86639425279495
 30
0.0
 10
337.20644315625776
 20
246.51684021632306
 30
0.0
 10
337.1356707485997
 20
246.16372782387555
 30
0.0
 10
337.06231835293386
 20
245.81057177639275
 30
0.0
 10
337.01709487006735
 20
245.45403501745375
 30
0.0
 10
337.0000003
 20
245.09411754705883
 30
0.0
  0
LINE
  5
37
330
17
100
AcDbEntity
  8
CUT
100
AcDbLine
 10
6.0000001
 20
63.24444434444441
 30
0.0
 11
12.000000100000001
 21
63.24444434444441
 31
0.0
  0
LINE
  5
38
330
17
100
AcDbEntity
  8
CUT
100
AcDbLine
 10
6.0000001
 20
92.68888878888885
 30
0.0
 11
6.0000001
 21
63.24444434444441
 31
0.0
  0
LINE
  5
39
330
17
100
AcDbEntity
  8
CUT
100
AcDbLine
 10
6.0000001
 20
122.13333323333329
 30
0.0
 11
12.000000100000001
 21
122.13333323333329
 31
0.0
  0
LINE
  5
3A
330
17
100
AcDbEntity
  8
CUT
100
AcDbLine
 10
6.0000001
 20
151.57777767777773
 30
0.0
 11
6.0000001
 21
122.1333332333333
 31
0.0
  0
LINE
  5
3B
330
17
100
AcDbEntity
  8
CUT
100
AcDbLine
 10
6.0000001
 20
181.0222221222222
 30
0.0
 11
12.000000100000001
 21
181.0222221222222
 31
0.0
  0
LINE
  5
3C
330
17
100
AcDbEntity
  8
CUT
100
AcDbLine
 10
6.0000001
 20
210.46666656666662
 30
0.0
 11
6.0000001
 21
181.0222221222222
 31
0.0
  0
LINE
  5
3D
330
17
100
AcDbEntity
  8
CUT
100
AcDbLine
 10
6.0000001
 20
239.91111101111105
 30
0.0
 11
12.000000100000001
 21
239.91111101111105
 31
0.0
  0
LINE
  5
3E
330
17
100
AcDbEntity
  8
CUT
100
AcDbLine
 10
6.0000001
 20
269.35555545555553
 30
0.0
 11
6.0000001
 21
239.91111101111105
 31
0.0
  0
LINE
  5
3F
330
17
100
AcDbEntity
  8
CUT
100
AcDbLine
 10
12.000000100000001
 20
39.79999989999997
 30
0.0
 11
36.0000001
 21
39.79999989999997
 31
0.0
  0
LINE
  5
40
330
17
100
AcDbEntity
  8
CUT
100
AcDbLine
 10
12.000000100000001
 20
63.24444434444441
 30
0.0
 11
12.000000100000001
 21
39.79999989999997
 31
0.0
  0
LINE
  5
41
330
17
100
AcDbEntity
  8
CUT
100
AcDbLine
 10
12.000000100000001
 20
92.68888878888885
 30
0.0
 11
6.0000001
 21
92.68888878888885
 31
0.0
  0
LINE
  5
42
330
17
100
AcDbEntity
  8
CUT
100
AcDbLine
 10
12.000000100000001
 20
122.13333323333329
 30
0.0
 11
12.000000100000001
 21
92.68888878888885
 31
0.0
  0
LINE
  5
43
330
17
100
AcDbEntity
  8
CUT
100
AcDbLine
 10
12.000000100000001
 20
151.57777767777773
 30
0.0
 11
6.0000001
 21
151.57777767777773
 31
0.0
  0
LINE
  5
44
330
17
100
AcDbEntity
  8
CUT
100
AcDbLine
 10
12.000000100000001
 20
181.0222221222222
 30
0.0
 11
12.000000100000001
 21
151.57777767777773
 31
0.0
  0
LINE
  5
45
330
17
100
AcDbEntity
  8
CUT
100
AcDbLine
 10
12.000000100000001
 20
210.46666656666662
 30
0.0
 11
6.0000001
 21
210.46666656666662
 31
0.0
  0
LINE
  5
46
330
17
100
AcDbEntity
  8
CUT
100
AcDbLine
 10
12.000000100000001
 20
239.91111101111105
 30
0.0
 11
12.000000100000001
 21
210.46666656666662
 31
0.0
  0
LINE
  5
47
330
17
100
AcDbEntity
  8
CUT
100
AcDbLine
 10
12.000000100000001
 20
269.35555545555553
 30
0.0
 11
6.0000001
 21
269.35555545555553
 31
0.0
  0
LINE
  5
48
330
17
100
AcDbEntity
  8
CUT
100
AcDbLine
 10
12.000000100000001
 20
298.7999999
 30
0.0
 11
12.000000100000001
 21
269.35555545555553
 31
0.0
  0
LINE
  5
49
330
17
100
AcDbEntity
  8
CUT
100
AcDbLine
 10
36.0000001
 20
33.79999989999997
 30
0.0
 11
66.0000001
 21
33.79999989999997
 31
0.0
  0
LINE
  5
4A
330
17
100
AcDbEntity
  8
CUT
100
AcDbLine
 10
36.0000001
 20
39.79999989999997
 30
0.0
 11
36.0000001
 21
33.79999989999997
 31
0.0
  0
LINE
  5
4B
330
17
100
AcDbEntity
  8
CUT
100
AcDbLine
 10
36.0000001
 20
98.29999989999996
 30
0.0
 11
36.0000001
 21
128.29999989999996
 31
0.0
  0
LINE
  5
4C
330
17
100
AcDbEntity
  8
CUT
100
AcDbLine
 10
36.0000001
 20
128.29999989999996
 30
0.0
 11
42.0000001
 21
128.29999989999996
 31
0.0
  0
LINE
  5
4D
330
17
100
AcDbEntity
  8
CUT
100
AcDbLine
 10
36.0000001
 20
191.04999989999996
 30
0.0
 11
36.0000001
 21
221.04999989999996
 31
0.0
  0
LINE
  5
4E
330
17
100
AcDbEntity
  8
CUT
100
AcDbLine
 10
36.0000001
 20
221.04999989999996
 30
0.0
 11
42.0000001
 21
221.04999989999996
 31
0.0
  0
LINE
  5
4F
330
17
100
AcDbEntity
  8
CUT
100
AcDbLine
 10
42.0000001
 20
98.29999989999996
 30
0.0
 11
36.0000001
 21
98.29999989999996
 31
0.0
  0
LINE
  5
50
330
17
100
AcDbEntity
  8
CUT
100
AcDbLine
 10
42.0000001
 20
128.29999989999996
 30
0.0
 11
42.0000001
 21
98.29999989999996
 31
0.0
  0
LINE
  5
51
330
17
100
AcDbEntity
  8
CUT
100
AcDbLine
 10
42.0000001
 20
191.04999989999996
 30
0.0
 11
36.0000001
 21
191.04999989999996
 31
0.0
  0
LINE
  5
52
330
17
100
AcDbEntity
  8
CUT
100
AcDbLine
 10
42.0000001
 20
221.04999989999996
 30
0.0
 11
42.0000001
 21
191.04999989999996
 31
0.0
  0
LINE
  5
53
330
17
100
AcDbEntity
  8
CUT
100
AcDbLine
 10
66.0000001
 20
33.79999989999997
 30
0.0
 11
66.0000001
 21
39.79999989999997
 31
0.0
  0
LINE
  5
54
330
17
100
AcDbEntity
  8
CUT
100
AcDbLine
 10
66.0000001
 20
39.79999989999997
 30
0.0
 11
96.0000001
 21
39.79999989999997
 31
0.0
  0
LINE
  5
55
330
17
100
AcDbEntity
  8
CUT
100
AcDbLine
 10
96.0000001
 20
33.79999989999997
 30
0.0
 11
126.0000001
 21
33.79999989999997
 31
0.0
  0
LINE
  5
56
330
17
100
AcDbEntity
  8
CUT
100
AcDbLine
 10
96.0000001
 20
39.79999989999997
 30
0.0
 11
96.0000001
 21
33.79999989999997
 31
0.0
  0
LINE
  5
57
330
17
100
AcDbEntity
  8
CUT
100
AcDbLine
 10
126.0000001
 20
33.79999989999997
 30
0.0
 11
126.0000001
 21
39.79999989999997
 31
0.0
  0
LINE
  5
58
330
17
100
AcDbEntity
  8
CUT
100
AcDbLine
 10
126.0000001
 20
39.79999989999997
 30
0.0
 11
156.0000001
 21
39.79999989999997
 31
0.0
  0
LINE
  5
59
330
17
100
AcDbEntity
  8
CUT
100
AcDbLine
 10
156.0000001
 20
33.79999989999997
 30
0.0
 11
186.0000001
 21
33.79999989999997
 31
0.0
  0
LINE
  5
5A
330
17
100
AcDbEntity
  8
CUT
100
AcDbLine
 10
156.0000001
 20
39.79999989999997
 30
0.0
 11
156.0000001
 21
33.79999989999997
 31
0.0
  0
LINE
  5
5B
330
17
100
AcDbEntity
  8
CUT
100
AcDbLine
 10
186.0000001
 20
33.79999989999997
 30
0.0
 11
186.0000001
 21
39.79999989999997
 31
0.0
  0
LINE
  5
5C
330
17
100
AcDbEntity
  8
CUT
100
AcDbLine
 10
186.0000001
 20
39.79999989999997
 30
0.0
 11
216.0000001
 21
39.79999989999997
 31
0.0
  0
LINE
  5
5D
330
17
100
AcDbEntity
  8
CUT
100
AcDbLine
 10
216.0000001
 20
33.79999989999997
 30
0.0
 11
246.0000001
 21
33.79999989999997
 31
0.0
  0
LINE
  5
5E
330
17
100
AcDbEntity
  8
CUT
100
AcDbLine
 10
216.0000001
 20
39.79999989999997
 30
0.0
 11
216.0000001
 21
33.79999989999997
 31
0.0
  0
LINE
  5
5F
330
17
100
AcDbEntity
  8
CUT
100
AcDbLine
 10
241.70000009999998
 20
286.4999999
 30
0.0
 11
241.70000009999998
 21
293.0999999
 31
0.0
  0
LINE
  5
60
330
17
100
AcDbEntity
  8
CUT
100
AcDbLine
 10
241.70000009999998
 20
293.0999999
 30
0.0
 11
258.30000010000003
 21
293.0999999
 31
0.0
  0
LINE
  5
61
330
17
100
AcDbEntity
  8
CUT
100
AcDbLine
 10
246.0000001
 20
33.79999989999997
 30
0.0
 11
246.0000001
 21
39.79999989999997
 31
0.0
  0
LINE
  5
62
330
17
100
AcDbEntity
  8
CUT
100
AcDbLine
 10
246.0000001
 20
39.79999989999997
 30
0.0
 11
270.00000009999997
 21
39.79999989999997
 31
0.0
  0
LINE
  5
63
330
17
100
AcDbEntity
  8
CUT
100
AcDbLine
 10
258.30000010000003
 20
286.4999999
 30
0.0
 11
241.70000009999998
 21
286.4999999
 31
0.0
  0
LINE
  5
64
330
17
100
AcDbEntity
  8
CUT
100
AcDbLine
 10
258.30000010000003
 20
293.0999999
 30
0.0
 11
258.30000010000003
 21
286.4999999
 31
0.0
  0
LINE
  5
65
330
17
100
AcDbEntity
  8
CUT
100
AcDbLine
 10
270.0000001
 20
39.79999989999997
 30
0.0
 11
270.0000001
 21
63.24444434444441
 31
0.0
  0
LINE
  5
66
330
17
100
AcDbEntity
  8
CUT
100
AcDbLine
 10
270.0000001
 20
63.24444434444441
 30
0.0
 11
276.0000001
 21
63.24444434444441
 31
0.0
  0
LINE
  5
67
330
17
100
AcDbEntity
  8
CUT
100
AcDbLine
 10
270.0000001
 20
92.68888878888885
 30
0.0
 11
270.0000001
 21
122.13333323333329
 31
0.0
  0
LINE
  5
68
330
17
100
AcDbEntity
  8
CUT
100
AcDbLine
 10
270.0000001
 20
122.13333323333329
 30
0.0
 11
276.0000001
 21
122.13333323333329
 31
0.0
  0
LINE
  5
69
330
17
100
AcDbEntity
  8
CUT
100
AcDbLine
 10
270.0000001
 20
151.57777767777773
 30
0.0
 11
270.0000001
 21
181.0222221222222
 31
0.0
  0
LINE
  5
6A
330
17
100
AcDbEntity
  8
CUT
100
AcDbLine
 10
270.0000001
 20
181.0222221222222
 30
0.0
 11
276.0000001
 21
181.0222221222222
 31
0.0
  0
LINE
  5
6B
330
17
100
AcDbEntity
  8
CUT
100
AcDbLine
 10
270.0000001
 20
210.46666656666662
 30
0.0
 11
270.0000001
 21
239.91111101111105
 31
0.0
  0
LINE
  5
6C
330
17
100
AcDbEntity
  8
CUT
100
AcDbLine
 10
270.0000001
 20
239.91111101111105
 30
0.0
 11
276.0000001
 21
239.91111101111105
 31
0.0
  0
LINE
  5
6D
330
17
100
AcDbEntity
  8
CUT
100
AcDbLine
 10
270.0000001
 20
269.35555545555553
 30
0.0
 11
270.0000001
 21
298.7999999
 31
0.0
  0
LINE
  5
6E
330
17
100
AcDbEntity
  8
CUT
100
AcDbLine
 10
270.0000001
 20
298.7999999
 30
0.0
 11
12.000000100000001
 21
298.7999999
 31
0.0
  0
LINE
  5
6F
330
17
100
AcDbEntity
  8
CUT
100
AcDbLine
 10
276.0000001
 20
63.24444434444441
 30
0.0
 11
276.0000001
 21
92.68888878888885
 31
0.0
  0
LINE
  5
70
330
17
100
AcDbEntity
  8
CUT
100
AcDbLine
 10
276.0000001
 20
92.68888878888885
 30
0.0
 11
270.0000001
 21
92.68888878888885
 31
0.0
  0
LINE
  5
71
330
17
100
AcDbEntity
  8
CUT
100
AcDbLine
 10
276.0000001
 20
122.1333332333333
 30
0.0
 11
276.0000001
 21
151.57777767777773
 31
0.0
  0
LINE
  5
72
330
17
100
AcDbEntity
  8
CUT
100
AcDbLine
 10
276.0000001
 20
151.57777767777773
 30
0.0
 11
270.0000001
 21
151.57777767777773
 31
0.0
  0
LINE
  5
73
330
17
100
AcDbEntity
  8
CUT
100
AcDbLine
 10
276.0000001
 20
181.0222221222222
 30
0.0
 11
276.0000001
 21
210.46666656666662
 31
0.0
  0
LINE
  5
74
330
17
100
AcDbEntity
  8
CUT
100
AcDbLine
 10
276.0000001
 20
210.46666656666662
 30
0.0
 11
270.0000001
 21
210.46666656666662
 31
0.0
  0
LINE
  5
75
330
17
100
AcDbEntity
  8
CUT
100
AcDbLine
 10
276.0000001
 20
239.91111101111105
 30
0.0
 11
276.0000001
 21
269.35555545555553
 31
0.0
  0
LINE
  5
76
330
17
100
AcDbEntity
  8
CUT
100
AcDbLine
 10
276.0000001
 20
269.35555545555553
 30
0.0
 11
270.0000001
 21
269.35555545555553
 31
0.0
  0
LINE
  5
77
330
17
100
AcDbEntity
  8
CUT
100
AcDbLine
 10
282.0000003
 20
158.79999990000002
 30
0.0
 11
293.0000003
 21
158.79999990000002
 31
0.0
  0
LINE
  5
78
330
17
100
AcDbEntity
  8
CUT
100
AcDbLine
 10
282.0000003
 20
298.7999999
 30
0.0
 11
282.0000003
 21
158.79999990000002
 31
0.0
  0
LINE
  5
79
330
17
100
AcDbEntity
  8
CUT
100
AcDbLine
 10
293.0000003
 20
152.79999990000002
 30
0.0
 11
317.0000003
 21
152.79999990000002
 31
0.0
  0
LINE
  5
7A
330
17
100
AcDbEntity
  8
CUT
100
AcDbLine
 10
293.0000003
 20
158.79999990000002
 30
0.0
 11
293.0000003
 21
152.79999990000002
 31
0.0
  0
LINE
  5
7B
330
17
100
AcDbEntity
  8
CUT
100
AcDbLine
 10
317.0000003
 20
152.79999990000002
 30
0.0
 11
317.0000003
 21
158.79999990000002
 31
0.0
  0
LINE
  5
7C
330
17
100
AcDbEntity
  8
CUT
100
AcDbLine
 10
317.0000003
 20
158.79999990000002
 30
0.0
 11
357.0000003
 21
158.79999990000002
 31
0.0
  0
LINE
  5
7D
330
17
100
AcDbEntity
  8
CUT
100
AcDbLine
 10
357.0000003
 20
152.79999990000002
 30
0.0
 11
381.0000003
 21
152.79999990000002
 31
0.0
  0
LINE
  5
7E
330
17
100
AcDbEntity
  8
CUT
100
AcDbLine
 10
357.0000003
 20
158.79999990000002
 30
0.0
 11
357.0000003
 21
152.79999990000002
 31
0.0
  0
LINE
  5
7F
330
17
100
AcDbEntity
  8
CUT
100
AcDbLine
 10
381.0000003
 20
152.79999990000002
 30
0.0
 11
381.0000003
 21
158.79999990000002
 31
0.0
  0
LINE
  5
80
330
17
100
AcDbEntity
  8
CUT
100
AcDbLine
 10
381.0000003
 20
158.79999990000002
 30
0.0
 11
392.0000003
 21
158.79999990000002
 31
0.0
  0
LINE
  5
81
330
17
100
AcDbEntity
  8
CUT
100
AcDbLine
 10
392.0000003
 20
158.79999990000002
 30
0.0
 11
392.0000003
 21
298.7999999
 31
0.0
  0
LINE
  5
82
330
17
100
AcDbEntity
  8
CUT
100
AcDbLine
 10
392.0000003
 20
298.7999999
 30
0.0
 11
282.0000003
 21
298.7999999
 31
0.0
  0
ENDSEC
  0
SECTION
  2
OBJECTS
  0
DICTIONARY
  5
A
330
0
100
AcDbDictionary
281
1
  3
ACAD_COLOR
350
B
  3
ACAD_GROUP
350
C
  3
ACAD_LAYOUT
350
D
  3
ACAD_MATERIAL
350
E
  3
ACAD_MLEADERSTYLE
350
F
  3
ACAD_MLINESTYLE
350
10
  3
ACAD_PLOTSETTINGS
350
11
  3
ACAD_PLOTSTYLENAME
350
12
  3
ACAD_SCALELIST
350
14
  3
ACAD_TABLESTYLE
350
15
  3
ACAD_VISUALSTYLE
350
16
  3
EZDXF_META
350
2D
  0
DICTIONARY
  5
B
330
A
100
AcDbDictionary
281
1
  0
DICTIONARY
  5
C
330
A
100
AcDbDictionary
281
1
  0
DICTIONARY
  5
D
330
A
100
AcDbDictionary
281
1
  3
Model
350
1A
  3
Layout1
350
1E
  0
DICTIONARY
  5
E
330
A
100
AcDbDictionary
281
1
  3
ByBlock
350
1F
  3
ByLayer
350
20
  3
Global
350
21
  0
DICTIONARY
  5
F
330
A
100
AcDbDictionary
281
1
  3
Standard
350
2C
  0
DICTIONARY
  5
10
330
A
100
AcDbDictionary
281
1
  3
Standard
350
22
  0
DICTIONARY
  5
11
330
A
100
AcDbDictionary
281
1
  0
ACDBDICTIONARYWDFLT
  5
12
330
A
100
AcDbDictionary
281
1
  3
Normal
350
13
100
AcDbDictionaryWithDefault
340
13
  0
ACDBPLACEHOLDER
  5
13
330
12
  0
DICTIONARY
  5
14
330
A
100
AcDbDictionary
281
1
  0
DICTIONARY
  5
15
330
A
100
AcDbDictionary
281
1
  0
DICTIONARY
  5
16
330
A
100
AcDbDictionary
281
1
  0
LAYOUT
  5
1A
330
D
100
AcDbPlotSettings
  1

  4
A3
  6

 40
7.5
 41
20.0
 42
7.5
 43
20.0
 44
420.0
 45
297.0
 46
0.0
 47
0.0
 48
0.0
 49
0.0
140
0.0
141
0.0
142
1.0
143
1.0
 70
1024
 72
1
 73
0
 74
5
  7

 75
16
 76
0
 77
2
 78
300
147
1.0
148
0.0
149
0.0
100
AcDbLayout
  1
Model
 70
1
 71
0
 10
0.0
 20
0.0
 11
420.0
 21
297.0
 12
0.0
 22
0.0
 32
0.0
 14
1e+20
 24
1e+20
 34
1e+20
 15
-1e+20
 25
-1e+20
 35
-1e+20
146
0.0
 13
0.0
 23
0.0
 33
0.0
 16
1.0
 26
0.0
 36
0.0
 17
0.0
 27
1.0
 37
0.0
 76
1
330
17
  0
LAYOUT
  5
1E
330
D
100
AcDbPlotSettings
  1

  4
A3
  6

 40
7.5
 41
20.0
 42
7.5
 43
20.0
 44
420.0
 45
297.0
 46
0.0
 47
0.0
 48
0.0
 49
0.0
140
0.0
141
0.0
142
1.0
143
1.0
 70
0
 72
1
 73
0
 74
5
  7

 75
16
 76
0
 77
2
 78
300
147
1.0
148
0.0
149
0.0
100
AcDbLayout
  1
Layout1
 70
1
 71
1
 10
0.0
 20
0.0
 11
420.0
 21
297.0
 12
0.0
 22
0.0
 32
0.0
 14
1e+20
 24
1e+20
 34
1e+20
 15
-1e+20
 25
-1e+20
 35
-1e+20
146
0.0
 13
0.0
 23
0.0
 33
0.0
 16
1.0
 26
0.0
 36
0.0
 17
0.0
 27
1.0
 37
0.0
 76
1
330
1B
  0
MATERIAL
  5
1F
102
{ACAD_REACTORS
330
E
102
}
330
E
100
AcDbMaterial
  1
ByBlock
  2

 70
0
 40
1.0
 71
1
 41
1.0
 91
-1023410177
 42
1.0
 72
1
  3

 73
1
 74
1
 75
1
 44
0.5
 73
0
 45
1.0
 46
1.0
 77
1
  4

 78
1
 79
1
170
1
 48
1.0
171
1
  6

172
1
173
1
174
1
140
1.0
141
1.0
175
1
  7

176
1
177
1
178
1
143
1.0
179
1
  8

270
1
271
1
272
1
145
1.0
146
1.0
273
1
  9

274
1
275
1
276
1
 42
1.0
 72
1
  3

 73
1
 74
1
 75
1
 94
63
  0
MATERIAL
  5
20
102
{ACAD_REACTORS
330
E
102
}
330
E
100
AcDbMaterial
  1
ByLayer
  2

 70
0
 40
1.0
 71
1
 41
1.0
 91
-1023410177
 42
1.0
 72
1
  3

 73
1
 74
1
 75
1
 44
0.5
 73
0
 45
1.0
 46
1.0
 77
1
  4

 78
1
 79
1
170
1
 48
1.0
171
1
  6

172
1
173
1
174
1
140
1.0
141
1.0
175
1
  7

176
1
177
1
178
1
143
1.0
179
1
  8

270
1
271
1
272
1
145
1.0
146
1.0
273
1
  9

274
1
275
1
276
1
 42
1.0
 72
1
  3

 73
1
 74
1
 75
1
 94
63
  0
MATERIAL
  5
21
102
{ACAD_REACTORS
330
E
102
}
330
E
100
AcDbMaterial
  1
Global
  2

 70
0
 40
1.0
 71
1
 41
1.0
 91
-1023410177
 42
1.0
 72
1
  3

 73
1
 74
1
 75
1
 44
0.5
 73
0
 45
1.0
 46
1.0
 77
1
  4

 78
1
 79
1
170
1
 48
1.0
171
1
  6

172
1
173
1
174
1
140
1.0
141
1.0
175
1
  7

176
1
177
1
178
1
143
1.0
179
1
  8

270
1
271
1
272
1
145
1.0
146
1.0
273
1
  9

274
1
275
1
276
1
 42
1.0
 72
1
  3

 73
1
 74
1
 75
1
 94
63
  0
MLINESTYLE
  5
22
102
{ACAD_REACTORS
330
10
102
}
330
10
100
AcDbMlineStyle
  2
Standard
 70
0
  3

 62
256
 51
90.0
 52
90.0
 71
2
 49
0.5
 62
256
  6
BYLAYER
 49
-0.5
 62
256
  6
BYLAYER
  0
MLEADERSTYLE
  5
2C
102
{ACAD_REACTORS
330
F
102
}
330
F
100
AcDbMLeaderStyle
179
2
170
2
171
1
172
0
 90
2
 40
0.0
 41
0.0
173
1
 91
-1056964608
 92
-2
290
1
 42
2.0
291
1
 43
8.0
  3
Standard
 44
4.0
300

342
29
174
1
175
1
176
0
178
1
 93
-1056964608
 45
4.0
292
0
297
0
 46
4.0
 94
-1056964608
 47
1.0
 49
1.0
140
1.0
294
1
141
0.0
177
0
142
1.0
295
0
296
0
143
3.75
271
0
272
9
273
9
  0
DICTIONARY
  5
2D
330
A
100
AcDbDictionary
280
1
281
1
  3
CREATED_BY_EZDXF
350
2E
  3
WRITTEN_BY_EZDXF
350
86
  0
DICTIONARYVAR
  5
2E
330
2D
100
DictionaryVariables
280
0
  1
0.0 @ 2000-01-01T00:00:00.000000+00:00
  0
DICTIONARYVAR
  5
86
330
2D
100
DictionaryVariables
280
0
  1
0.0 @ 2000-01-01T00:00:00.000000+00:00
  0
ENDSEC
  0
EOF
