  0
SECTION
  2
HEADER
  9
$ACADVER
  1
AC1027
  9
$ACADMAINTVER
 70
105
  9
$DWGCODEPAGE
  3
ANSI_1252
  9
$LASTSAVEDBY
  1
ezdxf
  9
$REQUIREDVERSIONS
160
0
  9
$INSBASE
 10
0.0
 20
0.0
 30
0.0
  9
$EXTMIN
 10
1e+20
 20
1e+20
 30
1e+20
  9
$EXTMAX
 10
-1e+20
 20
-1e+20
 30
-1e+20
  9
$LIMMIN
 10
0.0
 20
0.0
  9
$LIMMAX
 10
420.0
 20
297.0
  9
$ORTHOMODE
 70
0
  9
$REGENMODE
 70
1
  9
$FILLMODE
 70
1
  9
$QTEXTMODE
 70
0
  9
$MIRRTEXT
 70
1
  9
$LTSCALE
 40
1.0
  9
$ATTMODE
 70
1
  9
$TEXTSIZE
 40
2.5
  9
$TRACEWID
 40
1.0
  9
$TEXTSTYLE
  7
Standard
  9
$CLAYER
  8
0
  9
$CELTYPE
  6
ByLayer
  9
$CECOLOR
 62
256
  9
$CELTSCALE
 40
1.0
  9
$DISPSILH
 70
0
  9
$DIMSCALE
 40
1.0
  9
$DIMASZ
 40
2.5
  9
$DIMEXO
 40
0.625
  9
$DIMDLI
 40
3.75
  9
$DIMRND
 40
0.0
  9
$DIMDLE
 40
0.0
  9
$DIMEXE
 40
1.25
  9
$DIMTP
 40
0.0
  9
$DIMTM
 40
0.0
  9
$DIMTXT
 40
2.5
  9
$DIMCEN
 40
2.5
  9
$DIMTSZ
 40
0.0
  9
$DIMTOL
 70
0
  9
$DIMLIM
 70
0
  9
$DIMTIH
 70
0
  9
$DIMTOH
 70
0
  9
$DIMSE1
 70
0
  9
$DIMSE2
 70
0
  9
$DIMTAD
 70
1
  9
$DIMZIN
 70
8
  9
$DIMBLK
  1

  9
$DIMASO
 70
1
  9
$DIMSHO
 70
1
  9
$DIMPOST
  1

  9
$DIMAPOST
  1

  9
$DIMALT
 70
0
  9
$DIMALTD
 70
3
  9
$DIMALTF
 40
0.03937007874
  9
$DIMLFAC
 40
1.0
  9
$DIMTOFL
 70
1
  9
$DIMTVP
 40
0.0
  9
$DIMTIX
 70
0
  9
$DIMSOXD
 70
0
  9
$DIMSAH
 70
0
  9
$DIMBLK1
  1

  9
$DIMBLK2
  1

  9
$DIMSTYLE
  2
ISO-25
  9
$DIMCLRD
 70
0
  9
$DIMCLRE
 70
0
  9
$DIMCLRT
 70
0
  9
$DIMTFAC
 40
1.0
  9
$DIMGAP
 40
0.625
  9
$DIMJUST
 70
0
  9
$DIMSD1
 70
0
  9
$DIMSD2
 70
0
  9
$DIMTOLJ
 70
0
  9
$DIMTZIN
 70
8
  9
$DIMALTZ
 70
0
  9
$DIMALTTZ
 70
0
  9
$DIMUPT
 70
0
  9
$DIMDEC
 70
2
  9
$DIMTDEC
 70
2
  9
$DIMALTU
 70
2
  9
$DIMALTTD
 70
3
  9
$DIMTXSTY
  7
Standard
  9
$DIMAUNIT
 70
0
  9
$DIMADEC
 70
0
  9
$DIMALTRND
 40
0.0
  9
$DIMAZIN
 70
0
  9
$DIMDSEP
 70
44
  9
$DIMATFIT
 70
3
  9
$DIMFRAC
 70
0
  9
$DIMLDRBLK
  1

  9
$DIMLUNIT
 70
2
  9
$DIMLWD
 70
-2
  9
$DIMLWE
 70
-2
  9
$DIMTMOVE
 70
0
  9
$DIMFXL
 40
1.0
  9
$DIMFXLON
 70
0
  9
$DIMJOGANG
 40
0.785398163397
  9
$DIMTFILL
 70
0
  9
$DIMTFILLCLR
 70
0
  9
$DIMARCSYM
 70
0
  9
$DIMLTYPE
  6

  9
$DIMLTEX1
  6

  9
$DIMLTEX2
  6

  9
$DIMTXTDIRECTION
 70
0
  9
$LUNITS
 70
2
  9
$LUPREC
 70
4
  9
$SKETCHINC
 40
1.0
  9
$FILLETRAD
 40
10.0
  9
$AUNITS
 70
0
  9
$AUPREC
 70
2
  9
$MENU
  1
.
  9
$ELEVATION
 40
0.0
  9
$PELEVATION
 40
0.0
  9
$THICKNESS
 40
0.0
  9
$LIMCHECK
 70
0
  9
$CHAMFERA
 40
0.0
  9
$CHAMFERB
 40
0.0
  9
$CHAMFERC
 40
0.0
  9
$CHAMFERD
 40
0.0
  9
$SKPOLY
 70
0
  9
$TDCREATE
 40
2451545.0
  9
$TDUCREATE
 40
2451545.0
  9
$TDUPDATE
 40
2451545.0
  9
$TDUUPDATE
 40
2451545.0
  9
$TDINDWG
 40
0.0
  9
$TDUSRTIMER
 40
0.0
  9
$USRTIMER
 70
1
  9
$ANGBASE
 50
0.0
  9
$ANGDIR
 70
0
  9
$PDMODE
 70
0
  9
$PDSIZE
 40
0.0
  9
$PLINEWID
 40
0.0
  9
$SPLFRAME
 70
0
  9
$SPLINETYPE
 70
6
  9
$SPLINESEGS
 70
8
  9
$HANDSEED
  5
4F
  9
$SURFTAB1
 70
6
  9
$SURFTAB2
 70
6
  9
$SURFTYPE
 70
6
  9
$SURFU
 70
6
  9
$SURFV
 70
6
  9
$UCSBASE
  2

  9
$UCSNAME
  2

  9
$UCSORG
 10
0.0
 20
0.0
 30
0.0
  9
$UCSXDIR
 10
1.0
 20
0.0
 30
0.0
  9
$UCSYDIR
 10
0.0
 20
1.0
 30
0.0
  9
$UCSORTHOREF
  2

  9
$UCSORTHOVIEW
 70
0
  9
$UCSORGTOP
 10
0.0
 20
0.0
 30
0.0
  9
$UCSORGBOTTOM
 10
0.0
 20
0.0
 30
0.0
  9
$UCSORGLEFT
 10
0.0
 20
0.0
 30
0.0
  9
$UCSORGRIGHT
 10
0.0
 20
0.0
 30
0.0
  9
$UCSORGFRONT
 10
0.0
 20
0.0
 30
0.0
  9
$UCSORGBACK
 10
0.0
 20
0.0
 30
0.0
  9
$PUCSBASE
  2

  9
$PUCSNAME
  2

  9
$PUCSORG
 10
0.0
 20
0.0
 30
0.0
  9
$PUCSXDIR
 10
1.0
 20
0.0
 30
0.0
  9
$PUCSYDIR
 10
0.0
 20
1.0
 30
0.0
  9
$PUCSORTHOREF
  2

  9
$PUCSORTHOVIEW
 70
0
  9
$PUCSORGTOP
 10
0.0
 20
0.0
 30
0.0
  9
$PUCSORGBOTTOM
 10
0.0
 20
0.0
 30
0.0
  9
$PUCSORGLEFT
 10
0.0
 20
0.0
 30
0.0
  9
$PUCSORGRIGHT
 10
0.0
 20
0.0
 30
0.0
  9
$PUCSORGFRONT
 10
0.0
 20
0.0
 30
0.0
  9
$PUCSORGBACK
 10
0.0
 20
0.0
 30
0.0
  9
$USERI1
 70
0
  9
$USERI2
 70
0
  9
$USERI3
 70
0
  9
$USERI4
 70
0
  9
$USERI5
 70
0
  9
$USERR1
 40
0.0
  9
$USERR2
 40
0.0
  9
$USERR3
 40
0.0
  9
$USERR4
 40
0.0
  9
$USERR5
 40
0.0
  9
$WORLDVIEW
 70
1
  9
$SHADEDGE
 70
3
  9
$SHADEDIF
 70
70
  9
$TILEMODE
 70
1
  9
$MAXACTVP
 70
64
  9
$PINSBASE
 10
0.0
 20
0.0
 30
0.0
  9
$PLIMCHECK
 70
0
  9
$PEXTMIN
 10
1e+20
 20
1e+20
 30
1e+20
  9
$PEXTMAX
 10
-1e+20
 20
-1e+20
 30
-1e+20
  9
$PLIMMIN
 10
0.0
 20
0.0
  9
$PLIMMAX
 10
420.0
 20
297.0
  9
$UNITMODE
 70
0
  9
$VISRETAIN
 70
1
  9
$PLINEGEN
 70
0
  9
$PSLTSCALE
 70
1
  9
$TREEDEPTH
 70
3020
  9
$CMLSTYLE
  2
Standard
  9
$CMLJUST
 70
0
  9
$CMLSCALE
 40
20.0
  9
$PROXYGRAPHICS
 70
1
  9
$MEASUREMENT
 70
1
  9
$CELWEIGHT
370
-1
  9
$ENDCAPS
280
0
  9
$JOINSTYLE
280
0
  9
$LWDISPLAY
290
0
  9
$INSUNITS
 70
4
  9
$HYPERLINKBASE
  1

  9
$STYLESHEET
  1

  9
$XEDIT
290
1
  9
$CEPSNTYPE
380
0
  9
$PSTYLEMODE
290
1
  9
$FINGERPRINTGUID
  2
{00000000-0000-0000-0000-000000000000}
  9
$VERSIONGUID
  2
{00000000-0000-0000-0000-000000000000}
  9
$EXTNAMES
290
1
  9
$PSVPSCALE
 40
0.0
  9
$OLESTARTUP
290
0
  9
$SORTENTS
280
127
  9
$INDEXCTL
280
0
  9
$HIDETEXT
280
1
  9
$XCLIPFRAME
280
1
  9
$HALOGAP
280
0
  9
$OBSCOLOR
 70
257
  9
$OBSLTYPE
280
0
  9
$INTERSECTIONDISPLAY
280
0
  9
$INTERSECTIONCOLOR
 70
257
  9
$DIMASSOC
280
2
  9
$PROJECTNAME
  1

  9
$CAMERADISPLAY
290
0
  9
$LENSLENGTH
 40
50.0
  9
$CAMERAHEIGHT
 40
0.0
  9
$STEPSPERSEC
 40
24.0
  9
$STEPSIZE
 40
100.0
  9
$3DDWFPREC
 40
2.0
  9
$PSOLWIDTH
 40
0.005
  9
$PSOLHEIGHT
 40
0.08
  9
$LOFTANG1
 40
1.570796326795
  9
$LOFTANG2
 40
1.570796326795
  9
$LOFTMAG1
 40
0.0
  9
$LOFTMAG2
 40
0.0
  9
$LOFTPARAM
 70
7
  9
$LOFTNORMALS
280
1
  9
$LATITUDE
 40
37.795
  9
$LONGITUDE
 40
-122.394
  9
$NORTHDIRECTION
 40
0.0
  9
$TIMEZONE
 70
-8000
  9
$LIGHTGLYPHDISPLAY
280
1
  9
$TILEMODELIGHTSYNCH
280
1
  9
$CMATERIAL
347
20
  9
$SOLIDHIST
280
0
  9
$SHOWHIST
280
1
  9
$DWFFRAME
280
2
  9
$DGNFRAME
280
2
  9
$REALWORLDSCALE
290
1
  9
$INTERFERECOLOR
 62
256
  9
$CSHADOW
280
0
  9
$SHADOWPLANELOCATION
 40
0.0
  0
ENDSEC
  0
SECTION
  2
CLASSES
  0
CLASS
  1
ACDBDETAILVIEWSTYLE
  2
AcDbDetailViewStyle
  3
ObjectDBX Classes
 90
1025
 91
0
280
0
281
0
  0
CLASS
  1
ACDBDICTIONARYWDFLT
  2
AcDbDictionaryWithDefault
  3
ObjectDBX Classes
 90
0
 91
0
280
0
281
0
  0
CLASS
  1
ACDBPLACEHOLDER
  2
AcDbPlaceHolder
  3
ObjectDBX Classes
 90
0
 91
0
280
0
281
0
  0
CLASS
  1
ACDBSECTIONVIEWSTYLE
  2
AcDbSectionViewStyle
  3
ObjectDBX Classes
 90
1025
 91
0
280
0
281
0
  0
CLASS
  1
CELLSTYLEMAP
  2
AcDbCellStyleMap
  3
ObjectDBX Classes
 90
1152
 91
0
280
0
281
0
  0
CLASS
  1
DICTIONARYVAR
  2
AcDbDictionaryVar
  3
ObjectDBX Classes
 90
0
 91
0
280
0
281
0
  0
CLASS
  1
LAYOUT
  2
AcDbLayout
  3
ObjectDBX Classes
 90
0
 91
0
280
0
281
0
  0
CLASS
  1
MATERIAL
  2
AcDbMaterial
  3
ObjectDBX Classes
 90
1153
 91
0
280
0
281
0
  0
CLASS
  1
MENTALRAYRENDERSETTINGS
  2
AcDbMentalRayRenderSettings
  3
SCENEOE
 90
1024
 91
0
280
0
281
0
  0
CLASS
  1
MLEADERSTYLE
  2
AcDbMLeaderStyle
  3
ACDB_MLEADERSTYLE_CLASS
 90
4095
 91
0
280
0
281
0
  0
CLASS
  1
RASTERVARIABLES
  2
AcDbRasterVariables
  3
ISM
 90
0
 91
0
280
0
281
0
  0
CLASS
  1
SCALE
  2
AcDbScale
  3
ObjectDBX Classes
 90
1153
 91
0
280
0
281
0
  0
CLASS
  1
SUN
  2
AcDbSun
  3
SCENEOE
 90
1153
 91
0
280
0
281
0
  0
CLASS
  1
TABLESTYLE
  2
AcDbTableStyle
  3
ObjectDBX Classes
 90
4095
 91
0
280
0
281
0
  0
CLASS
  1
VISUALSTYLE
  2
AcDbVisualStyle
  3
ObjectDBX Classes
 90
4095
 91
0
280
0
281
0
  0
ENDSEC
  0
SECTION
  2
TABLES
  0
TABLE
  2
VPORT
  5
8
330
0
100
AcDbSymbolTable
 70
1
  0
VPORT
  5
4B
330
8
100
AcDbSymbolTableRecord
100
AcDbViewportTableRecord
  2
*Active
 70
0
 10
0.0
 20
0.0
 11
1.0
 21
1.0
 12
196.5000001
 22
166.79999989999996
 13
0.0
 23
0.0
 14
0.5
 24
0.5
 15
0.5
 25
0.5
 16
0.0
 26
0.0
 36
1.0
 17
0.0
 27
0.0
 37
0.0
 40
264.0
 41
1.34
 42
50.0
 43
0.0
 44
0.0
 50
0.0
 51
0.0
 71
0
 72
1000
 73
1
 74
3
 75
0
 76
0
 77
0
 78
0
281
0
 65
1
110
0.0
120
0.0
130
0.0
111
1.0
121
0.0
131
0.0
112
0.0
122
1.0
132
0.0
 79
0
146
0.0
  0
ENDTAB
  0
TABLE
  2
LTYPE
  5
2
330
0
100
AcDbSymbolTable
 70
3
  0
LTYPE
  5
24
330
2
100
AcDbSymbolTableRecord
100
AcDbLinetypeTableRecord
  2
ByBlock
 70
0
  3

 72
65
 73
0
 40
0.0
  0
LTYPE
  5
25
330
2
100
AcDbSymbolTableRecord
100
AcDbLinetypeTableRecord
  2
ByLayer
 70
0
  3

 72
65
 73
0
 40
0.0
  0
LTYPE
  5
26
330
2
100
AcDbSymbolTableRecord
100
AcDbLinetypeTableRecord
  2
Continuous
 70
0
  3

 72
65
 73
0
 40
0.0
  0
ENDTAB
  0
TABLE
  2
LAYER
  5
1
330
0
100
AcDbSymbolTable
 70
3
  0
LAYER
  5
27
330
1
100
AcDbSymbolTableRecord
100
AcDbLayerTableRecord
  2
0
 70
0
 62
7
  6
Continuous
370
-3
390
13
347
21
  0
LAYER
  5
28
330
1
100
AcDbSymbolTableRecord
100
AcDbLayerTableRecord
  2
Defpoints
 70
0
 62
7
  6
Continuous
290
0
370
-3
390
13
347
21
  0
LAYER
  5
2F
330
1
100
AcDbSymbolTableRecord
100
AcDbLayerTableRecord
  2
CUT
 70
0
 62
7
  6
Continuous
370
-3
390
13
347
21
  0
ENDTAB
  0
TABLE
  2
STYLE
  5
5
330
0
100
AcDbSymbolTable
 70
1
  0
STYLE
  5
29
330
5
100
AcDbSymbolTableRecord
100
AcDbTextStyleTableRecord
  2
Standard
 70
0
 40
0.0
 41
1.0
 50
0.0
 71
0
 42
2.5
  3
txt
  4

  0
ENDTAB
  0
TABLE
  2
VIEW
  5
7
330
0
100
AcDbSymbolTable
 70
0
  0
ENDTAB
  0
TABLE
  2
UCS
  5
6
330
0
100
AcDbSymbolTable
 70
0
  0
ENDTAB
  0
TABLE
  2
APPID
  5
3
330
0
100
AcDbSymbolTable
 70
3
  0
APPID
  5
2A
330
3
100
AcDbSymbolTableRecord
100
AcDbRegAppTableRecord
  2
ACAD
 70
0
  0
APPID
  5
4C
330
3
100
AcDbSymbolTableRecord
100
AcDbRegAppTableRecord
  2
HATCHBACKGROUNDCOLOR
 70
0
  0
APPID
  5
4D
330
3
100
AcDbSymbolTableRecord
100
AcDbRegAppTableRecord
  2
EZDXF
 70
0
  0
ENDTAB
  0
TABLE
  2
DIMSTYLE
  5
4
330
0
100
AcDbSymbolTable
 70
1
100
AcDbDimStyleTable
  0
DIMSTYLE
105
2B
330
4
100
AcDbSymbolTableRecord
100
AcDbDimStyleTableRecord
  2
Standard
 70
0
 40
1.0
 41
2.5
 42
0.625
 43
3.75
 44
1.25
 45
0.0
 46
0.0
 47
0.0
 48
0.0
 49
2.5
140
2.5
141
2.5
142
0.0
143
0.03937007874
144
1.0
145
0.0
146
1.0
147
0.625
148
0.0
 69
0
 70
0
 71
0
 72
0
 73
0
 74
0
 75
0
 76
0
 77
1
 78
8
 79
3
170
0
171
3
172
1
173
0
174
0
175
0
176
0
177
0
178
0
179
2
271
2
272
2
273
2
274
3
275
0
276
0
277
2
278
44
279
0
280
0
281
0
282
0
283
0
284
8
285
0
286
0
288
0
289
3
290
0
371
-2
372
-2
  0
ENDTAB
  0
TABLE
  2
BLOCK_RECORD
  5
9
330
0
100
AcDbSymbolTable
 70
2
  0
BLOCK_RECORD
  5
17
330
9
100
AcDbSymbolTableRecord
100
AcDbBlockTableRecord
  2
*Model_Space
340
1A
 70
0
280
1
281
0
  0
BLOCK_RECORD
  5
1B
330
9
100
AcDbSymbolTableRecord
100
AcDbBlockTableRecord
  2
*Paper_Space
340
1E
 70
0
280
1
281
0
  0
ENDTAB
  0
ENDSEC
  0
SECTION
  2
BLOCKS
  0
BLOCK
  5
18
330
17
100
AcDbEntity
  8
0
100
AcDbBlockBegin
  2
*Model_Space
 70
0
 10
0.0
 20
0.0
 30
0.0
  3
*Model_Space
  1

  0
ENDBLK
  5
19
330
17
100
AcDbEntity
  8
0
100
AcDbBlockEnd
  0
BLOCK
  5
1C
330
1B
100
AcDbEntity
  8
0
100
AcDbBlockBegin
  2
*Paper_Space
 70
0
 10
0.0
 20
0.0
 30
0.0
  3
*Paper_Space
  1

  0
ENDBLK
  5
1D
330
1B
100
AcDbEntity
  8
0
100
AcDbBlockEnd
  0
ENDSEC
  0
SECTION
  2
ENTITIES
  0
SPLINE
  5
30
330
17
100
AcDbEntity
  8
CUT
100
AcDbSpline
 70
0
 71
3
 72
125
 73
121
 74
0
 40
0.0
 40
0.0
 40
0.0
 40
0.0
 40
0.0005266961195605439
 40
0.0005266961195605439
 40
0.0005266961195605439
 40
0.003525199489734719
 40
0.003525199489734719
 40
0.003525199489734719
 40
0.006523702859908894
 40
0.006523702859908894
 40
0.006523702859908894
 40
0.014283897340028204
 40
0.014283897340028204
 40
0.014283897340028204
 40
0.026623476955835283
 40
0.026623476955835283
 40
0.026623476955835283
 40
0.059160701975866266
 40
0.059160701975866266
 40
0.059160701975866266
 40
0.11754254064069944
 40
0.11754254064069944
 40
0.11754254064069944
 40
0.18041838717073416
 40
0.18041838717073416
 40
0.18041838717073416
 40
0.24554180871209116
 40
0.24554180871209116
 40
0.24554180871209116
 40
0.2702455613654691
 40
0.2702455613654691
 40
0.2702455613654691
 40
0.30168551139102967
 40
0.30168551139102967
 40
0.30168551139102967
 40
0.36791855324349015
 40
0.36791855324349015
 40
0.36791855324349015
 40
0.49249890334036095
 40
0.49249890334036095
 40
0.49249890334036095
 40
0.5183119106205556
 40
0.5183119106205556
 40
0.5183119106205556
 40
0.535139874531699
 40
0.535139874531699
 40
0.535139874531699
 40
0.5474789058461336
 40
0.5474789058461336
 40
0.5474789058461336
 40
0.5534995384507957
 40
0.5534995384507957
 40
0.5534995384507957
 40
0.5595201710554579
 40
0.5595201710554579
 40
0.5595201710554579
 40
0.5604986128975631
 40
0.5604986128975631
 40
0.5604986128975631
 40
0.5614770547396682
 40
0.5614770547396682
 40
0.5614770547396682
 40
0.5615987238750543
 40
0.5615987238750543
 40
0.5615987238750543
 40
0.5629050960142421
 40
0.5629050960142421
 40
0.5629050960142421
 40
0.5642114681534298
 40
0.5642114681534298
 40
0.5642114681534298
 40
0.5668242124318053
 40
0.5668242124318053
 40
0.5668242124318053
 40
0.5721496807646199
 40
0.5721496807646199
 40
0.5721496807646199
 40
0.5808755847370148
 40
0.5808755847370148
 40
0.5808755847370148
 40
0.6123483344609966
 40
0.6123483344609966
 40
0.6123483344609966
 40
0.6735472353694646
 40
0.6735472353694646
 40
0.6735472353694646
 40
0.7102663842459663
 40
0.7102663842459663
 40
0.7102663842459663
 40
0.7443667489910611
 40
0.7443667489910611
 40
0.7443667489910611
 40
0.7767242811452362
 40
0.7767242811452362
 40
0.7767242811452362
 40
0.8090881676875438
 40
0.8090881676875438
 40
0.8090881676875438
 40
0.8362042590780298
 40
0.8362042590780298
 40
0.8362042590780298
 40
0.8746886189527169
 40
0.8746886189527169
 40
0.8746886189527169
 40
0.9035525546088101
 40
0.9035525546088101
 40
0.9035525546088101
 40
0.9359150777418446
 40
0.9359150777418446
 40
0.9359150777418446
 40
0.9700264298525187
 40
0.9700264298525187
 40
0.9700264298525187
 40
0.9822715623694015
 40
0.9822715623694015
 40
0.9822715623694015
 40
0.9910182339321626
 40
0.9910182339321626
 40
0.9910182339321626
 40
1.0
 40
1.0
 40
1.0
 40
1.0
 10
40.0000001
 20
55.15294107647055
 30
0.0
 10
39.999629744251806
 20
55.14494093659788
 30
0.0
 10
39.99916990127342
 20
55.145181891741316
 30
0.0
 10
39.99862057106481
 20
55.15366394190083
 30
0.0
 10
39.99619295898271
 20
55.19742402666867
 30
0.0
 10
39.99405339050369
 20
55.26170128094487
 30
0.0
 10
39.98870845603509
 20
55.30676939064752
 30
0.0
 10
39.9832933416532
 20
55.35328583566263
 30
0.0
 10
39.97532472245295
 20
55.392261884763656
 30
0.0
 10
39.96480259843444
 20
55.42369753795064
 30
0.0
 10
39.93865022786712
 20
55.512490631697986
 30
0.0
 10
39.91091734610157
 20
55.63055970974384
 30
0.0
 10
39.87849211002044
 20
55.74059662538015
 30
0.0
 10
39.826931465520296
 20
55.91754701768937
 30
0.0
 10
39.758293148470486
 20
56.07507075924798
 30
0.0
 10
39.680122995411416
 20
56.23180212921137
 30
0.0
 10
39.475207605169416
 20
56.649716553731835
 30
0.0
 10
39.20038413421147
 20
57.03454623718044
 30
0.0
 10
38.86711112553871
 20
57.35665279075377
 30
0.0
 10
38.27231878549788
 20
57.940900336402706
 30
0.0
 10
37.47723617353108
 20
58.32230960167847
 30
0.0
 10
36.644623326934656
 20
58.39563505311829
 30
0.0
 10
35.748180691305585
 20
58.480363602910785
 30
0.0
 10
34.83238156990656
 20
58.21627505493921
 30
0.0
 10
34.098471913704664
 20
57.699952222500244
 30
0.0
 10
33.33638278348806
 20
57.16900373064763
 30
0.0
 10
32.758945937520366
 20
56.36103610738141
 30
0.0
 10
32.55575802633641
 20
55.449734744172716
 30
0.0
 10
32.4781495040296
 20
55.10267887940468
 30
0.0
 10
32.45357678560838
 20
54.75192896659948
 30
0.0
 10
32.48203987107267
 20
54.39748500575705
 30
0.0
 10
32.51741555763448
 20
53.94917285618856
 30
0.0
 10
32.63777088695062
 20
53.51035734983065
 30
0.0
 10
32.816664212495255
 20
53.098869902080914
 30
0.0
 10
33.19675735624275
 20
52.2286703082688
 30
0.0
 10
33.81234706288855
 20
51.48766010207816
 30
0.0
 10
34.47472787687902
 20
50.81850575780912
 30
0.0
 10
35.730376128304336
 20
49.55844607638948
 30
0.0
 10
37.186749175041044
 20
48.51892109446498
 30
0.0
 10
38.434700220228734
 20
47.2506958183057
 30
0.0
 10
38.69390008710056
 20
46.98839532843162
 30
0.0
 10
38.93842155277507
 20
46.71323201921023
 30
0.0
 10
39.16826461725242
 20
46.425205890641585
 30
0.0
 10
39.31784041337655
 20
46.237220475093814
 30
0.0
 10
39.4561269973143
 20
46.04051456653863
 30
0.0
 10
39.583124369065615
 20
45.83508816497604
 30
0.0
 10
39.67527733375661
 20
45.68359856244869
 30
0.0
 10
39.76049221482102
 20
45.53488668870184
 30
0.0
 10
39.83235185670922
 20
45.372708889729026
 30
0.0
 10
39.86764591791646
 20
45.29264764565572
 30
0.0
 10
39.90137777027314
 20
45.20113284951667
 30
0.0
 10
39.92823513053942
 20
45.11786391669528
 30
0.0
 10
39.95488691988971
 20
45.03058105814376
 30
0.0
 10
39.98204787194452
 20
44.975997075900494
 30
0.0
 10
39.9933916905936
 20
44.87268801732925
 30
0.0
 10
39.994974124421454
 20
44.85782980814598
 30
0.0
 10
39.99610072842925
 20
44.84437544578003
 30
0.0
 10
39.99677150261683
 20
44.83232493023138
 30
0.0
 10
39.99761221052735
 20
44.81940801393254
 30
0.0
 10
39.998638426875104
 20
44.80177557509763
 30
0.0
 10
39.99990514868179
 20
44.800043767979105
 30
0.0
 10
40.00005895705256
 20
44.80024117651678
 30
0.0
 10
40.00021276542341
 20
44.80043858505446
 30
0.0
 10
40.000366573794174
 20
44.800635993592124
 30
0.0
 10
40.00192638967913
 20
44.80682638595306
 30
0.0
 10
40.002981133993956
 20
44.833107411956945
 30
0.0
 10
40.005052339930806
 20
44.856053735055355
 30
0.0
 10
40.007098500735154
 20
44.880130357899944
 30
0.0
 10
40.00986383292606
 20
44.90180968649354
 30
0.0
 10
40.0133483365035
 20
44.92109172083613
 30
0.0
 10
40.02054763452504
 20
44.96010423930045
 30
0.0
 10
40.02826920853476
 20
44.98460249604973
 30
0.0
 10
40.040684163732905
 20
45.02274740306993
 30
0.0
 10
40.066765519410765
 20
45.103661797299665
 30
0.0
 10
40.098874789531074
 20
45.20375077790766
 30
0.0
 10
40.13551970709865
 20
45.29595982897293
 30
0.0
 10
40.197066558194365
 20
45.44512299334512
 30
0.0
 10
40.2687135140795
 20
45.58783447425354
 30
0.0
 10
40.35046057475395
 20
45.72409427169817
 30
0.0
 10
40.64125295517227
 20
46.22462539718393
 30
0.0
 10
41.01403348620293
 20
46.66904897090627
 30
0.0
 10
41.40881483954035
 20
47.08820325344816
 30
0.0
 10
42.18165596401582
 20
47.901501185471815
 30
0.0
 10
43.05018284934957
 20
48.614476235575616
 30
0.0
 10
43.900814289170455
 20
49.34317943676723
 30
0.0
 10
44.411786789871464
 20
49.78018106950508
 30
0.0
 10
44.91975199542183
 20
50.22166188610717
 30
0.0
 10
45.39945531287853
 20
50.69326554154898
 30
0.0
 10
45.84413404484463
 20
51.13124330478445
 30
0.0
 10
46.265925016273115
 20
51.59586281181699
 30
0.0
 10
46.623293087744486
 20
52.10893313801991
 30
0.0
 10
46.96140722942438
 20
52.59477842923535
 30
0.0
 10
47.240708339629556
 20
53.12829177328916
 30
0.0
 10
47.39590156928505
 20
53.70198004424285
 30
0.0
 10
47.552576050327026
 20
54.27394483098615
 30
0.0
 10
47.57559633375232
 20
54.88502842631791
 30
0.0
 10
47.440991189243945
 20
55.46402983131651
 30
0.0
 10
47.32990317425686
 20
55.94909862147418
 30
0.0
 10
47.11333109256511
 20
56.40829401017379
 30
0.0
 10
46.81798294238285
 20
56.80810065521349
 30
0.0
 10
46.39901511132426
 20
57.37628791798112
 30
0.0
 10
45.82428989104349
 20
57.827156552617296
 30
0.0
 10
45.17500671791516
 20
58.10344774736045
 30
0.0
 10
44.688312473652196
 20
58.31099530616338
 30
0.0
 10
44.15846794761199
 20
58.4194303055975
 30
0.0
 10
43.62895374739957
 20
58.41043634353602
 30
0.0
 10
43.03535674765718
 20
58.40183808477643
 30
0.0
 10
42.44512612765865
 20
58.241970900051996
 30
0.0
 10
41.927685013680176
 20
57.95138086140017
 30
0.0
 10
41.38119217938459
 20
57.64619402856896
 30
0.0
 10
40.91673257380238
 20
57.20135560528739
 30
0.0
 10
40.57417651116181
 20
56.679071682530505
 30
0.0
 10
40.45071869953434
 20
56.491150644406545
 30
0.0
 10
40.34367986793176
 20
56.2943030334876
 30
0.0
 10
40.253060016353956
 20
56.08852884977365
 30
0.0
 10
40.18827827474653
 20
55.9416981891729
 30
0.0
 10
40.13368923825948
 20
55.791227726987586
 30
0.0
 10
40.089292906892844
 20
55.63711746321778
 30
0.0
 10
40.045358428545484
 20
55.4789649430491
 30
0.0
 10
40.00713711259675
 20
55.317472245657015
 30
0.0
 10
40.00000010000001
 20
55.152941076470555
 30
0.0
  0
SPLINE
  5
31
330
17
100
AcDbEntity
  8
CUT
100
AcDbSpline
 70
0
 71
3
 72
125
 73
121
 74
0
 40
0.0
 40
0.0
 40
0.0
 40
0.0
 40
0.0005266961194290642
 40
0.0005266961194290642
 40
0.0005266961194290642
 40
0.003525199488907434
 40
0.003525199488907434
 40
0.003525199488907434
 40
0.006523702858385804
 40
0.006523702858385804
 40
0.006523702858385804
 40
0.014283897336437947
 40
0.014283897336437947
 40
0.014283897336437947
 40
0.02662347694902438
 40
0.02662347694902438
 40
0.02662347694902438
 40
0.0591607019605637
 40
0.0591607019605637
 40
0.0591607019605637
 40
0.11754254062452825
 40
0.11754254062452825
 40
0.11754254062452825
 40
0.18041838715917258
 40
0.18041838715917258
 40
0.18041838715917258
 40
0.24554180870546713
 40
0.24554180870546713
 40
0.24554180870546713
 40
0.2702455613606863
 40
0.2702455613606863
 40
0.2702455613606863
 40
0.30168551138916655
 40
0.30168551138916655
 40
0.30168551138916655
 40
0.3679185532406765
 40
0.3679185532406765
 40
0.3679185532406765
 40
0.49249890333052226
 40
0.49249890333052226
 40
0.49249890333052226
 40
0.5183119106084926
 40
0.5183119106084926
 40
0.5183119106084926
 40
0.5351398745178312
 40
0.5351398745178312
 40
0.5351398745178312
 40
0.5474789058309919
 40
0.5474789058309919
 40
0.5474789058309919
 40
0.5534995384349701
 40
0.5534995384349701
 40
0.5534995384349701
 40
0.5595201710389482
 40
0.5595201710389482
 40
0.5595201710389482
 40
0.5604986128809384
 40
0.5604986128809384
 40
0.5604986128809384
 40
0.5614770547229286
 40
0.5614770547229286
 40
0.5614770547229286
 40
0.5615987238583003
 40
0.5615987238583003
 40
0.5615987238583003
 40
0.5629050959974309
 40
0.5629050959974309
 40
0.5629050959974309
 40
0.5642114681365614
 40
0.5642114681365614
 40
0.5642114681365614
 40
0.5668242124148225
 40
0.5668242124148225
 40
0.5668242124148225
 40
0.5721496807474585
 40
0.5721496807474585
 40
0.5721496807474585
 40
0.5808755847195524
 40
0.5808755847195524
 40
0.5808755847195524
 40
0.6123483344429219
 40
0.6123483344429219
 40
0.6123483344429219
 40
0.6735472353525751
 40
0.6735472353525751
 40
0.6735472353525751
 40
0.710266384229971
 40
0.710266384229971
 40
0.710266384229971
 40
0.7443667489761183
 40
0.7443667489761183
 40
0.7443667489761183
 40
0.7767242811321831
 40
0.7767242811321831
 40
0.7767242811321831
 40
0.8090881676763618
 40
0.8090881676763618
 40
0.8090881676763618
 40
0.8362042590684329
 40
0.8362042590684329
 40
0.8362042590684329
 40
0.8746886189452308
 40
0.8746886189452308
 40
0.8746886189452308
 40
0.9035525546028909
 40
0.9035525546028909
 40
0.9035525546028909
 40
0.9359150777377913
 40
0.9359150777377913
 40
0.9359150777377913
 40
0.9700264298506113
 40
0.9700264298506113
 40
0.9700264298506113
 40
0.9822715623682664
 40
0.9822715623682664
 40
0.9822715623682664
 40
0.99101823393157
 40
0.99101823393157
 40
0.99101823393157
 40
1.0
 40
1.0
 40
1.0
 40
1.0
 10
70.0000001
 20
57.152941076470555
 30
0.0
 10
69.9996297442518
 20
57.14494093659792
 30
0.0
 10
69.9991699012734
 20
57.14518189174135
 30
0.0
 10
69.99862057106482
 20
57.153663941900845
 30
0.0
 10
69.99619295898273
 20
57.19742402666857
 30
0.0
 10
69.99405339050362
 20
57.261701280945005
 30
0.0
 10
69.98870845603507
 20
57.30676939064753
 30
0.0
 10
69.98329334165318
 20
57.35328583566259
 30
0.0
 10
69.97532472245297
 20
57.392261884763634
 30
0.0
 10
69.96480259843442
 20
57.42369753795064
 30
0.0
 10
69.93865022786713
 20
57.512490631697986
 30
0.0
 10
69.91091734610153
 20
57.63055970974384
 30
0.0
 10
69.87849211002045
 20
57.74059662538015
 30
0.0
 10
69.82693146552026
 20
57.91754701768937
 30
0.0
 10
69.75829314847047
 20
58.075070759247964
 30
0.0
 10
69.68012299541141
 20
58.23180212921136
 30
0.0
 10
69.47520760516613
 20
58.64971655373891
 30
0.0
 10
69.20038413420339
 20
59.03454623718893
 30
0.0
 10
68.86711112553871
 20
59.35665279075377
 30
0.0
 10
68.27231878531731
 20
59.94090033654522
 30
0.0
 10
67.47723617344724
 20
60.322309601668394
 30
0.0
 10
66.64462332693464
 20
60.39563505311829
 30
0.0
 10
65.7481806913296
 20
60.480363602913215
 30
0.0
 10
64.83238156990342
 20
60.21627505494115
 30
0.0
 10
64.09847191370466
 20
59.699952222500244
 30
0.0
 10
63.33638278348843
 20
59.16900373064769
 30
0.0
 10
62.75894593751973
 20
58.3610361073809
 30
0.0
 10
62.55575802633642
 20
57.4497347441727
 30
0.0
 10
62.47814950402958
 20
57.10267887940463
 30
0.0
 10
62.453576785608355
 20
56.751928966599415
 30
0.0
 10
62.48203987107267
 20
56.397485005757034
 30
0.0
 10
62.51741555763242
 20
55.94917285620347
 30
0.0
 10
62.637770886947024
 20
55.51035734983819
 30
0.0
 10
62.81666421249525
 20
55.09886990208091
 30
0.0
 10
63.196757356184285
 20
54.22867030837172
 30
0.0
 10
63.812347062867765
 20
53.48766010208644
 30
0.0
 10
64.474727876879
 20
52.81850575780912
 30
0.0
 10
65.73037612829987
 20
51.55844607639359
 30
0.0
 10
67.18674917503968
 20
50.518921094466016
 30
0.0
 10
68.43470022022875
 20
49.250695818305694
 30
0.0
 10
68.69390008709512
 20
48.98839532843778
 30
0.0
 10
68.93842155276965
 20
48.713232019216406
 30
0.0
 10
69.16826461725245
 20
48.42520589064159
 30
0.0
 10
69.31784041337654
 20
48.23722047509385
 30
0.0
 10
69.4561269973143
 20
48.04051456653866
 30
0.0
 10
69.58312436906563
 20
47.83508816497604
 30
0.0
 10
69.67527733375654
 20
47.68359856244867
 30
0.0
 10
69.760492214821
 20
47.534886688701846
 30
0.0
 10
69.83235185670921
 20
47.37270888972902
 30
0.0
 10
69.86764591791649
 20
47.29264764565584
 30
0.0
 10
69.90137777027313
 20
47.20113284951651
 30
0.0
 10
69.92823513053945
 20
47.11786391669532
 30
0.0
 10
69.9548869198897
 20
47.03058105814365
 30
0.0
 10
69.98204787194453
 20
46.97599707590058
 30
0.0
 10
69.99339169059355
 20
46.872688017329246
 30
0.0
 10
69.99497412442139
 20
46.85782980814594
 30
0.0
 10
69.99610072842924
 20
46.84437544578001
 30
0.0
 10
69.99677150261687
 20
46.83232493023137
 30
0.0
 10
69.9976122105273
 20
46.81940801393254
 30
0.0
 10
69.99863842687519
 20
46.80177557509763
 30
0.0
 10
69.99990514868182
 20
46.800043767979105
 30
0.0
 10
70.00005895705254
 20
46.80024117651677
 30
0.0
 10
70.00021276542341
 20
46.80043858505446
 30
0.0
 10
70.00036657379415
 20
46.800635993592124
 30
0.0
 10
70.00192638967918
 20
46.8068263859531
 30
0.0
 10
70.00298113399391
 20
46.83310741195691
 30
0.0
 10
70.00505233993081
 20
46.856053735055355
 30
0.0
 10
70.0070985007352
 20
46.88013035789997
 30
0.0
 10
70.0098638329261
 20
46.901809686493564
 30
0.0
 10
70.01334833650347
 20
46.92109172083613
 30
0.0
 10
70.02054763452506
 20
46.96010423930032
 30
0.0
 10
70.0282692085348
 20
46.9846024960499
 30
0.0
 10
70.04068416373292
 20
47.022747403069936
 30
0.0
 10
70.06676551941078
 20
47.103661797299665
 30
0.0
 10
70.09887478953105
 20
47.20375077790767
 30
0.0
 10
70.13551970709865
 20
47.29595982897293
 30
0.0
 10
70.19706655819435
 20
47.44512299334512
 30
0.0
 10
70.26871351407955
 20
47.58783447425354
 30
0.0
 10
70.35046057475397
 20
47.72409427169817
 30
0.0
 10
70.64125295517186
 20
48.2246253971843
 30
0.0
 10
71.0140334862129
 20
48.669048970917665
 30
0.0
 10
71.40881483954037
 20
49.088203253448164
 30
0.0
 10
72.18165596401657
 20
49.901501185472235
 30
0.0
 10
73.05018284933878
 20
50.61447623556642
 30
0.0
 10
73.90081428917044
 20
51.34317943676723
 30
0.0
 10
74.41178678986567
 20
51.78018106950015
 30
0.0
 10
74.91975199541939
 20
52.22166188610469
 30
0.0
 10
75.39945531287852
 20
52.693265541548975
 30
0.0
 10
75.84413404484998
 20
53.13124330478908
 30
0.0
 10
76.2659250162847
 20
53.595862811832035
 30
0.0
 10
76.62329308774447
 20
54.10893313801991
 30
0.0
 10
76.96140722941934
 20
54.59477842922742
 30
0.0
 10
77.24070833962944
 20
55.12829177328709
 30
0.0
 10
77.39590156928503
 20
55.701980044242845
 30
0.0
 10
77.55257605032736
 20
56.273944830988086
 30
0.0
 10
77.57559633375205
 20
56.88502842631874
 30
0.0
 10
77.44099118924389
 20
57.46402983131651
 30
0.0
 10
77.32990317425762
 20
57.94909862147267
 30
0.0
 10
77.1133310925641
 20
58.40829401017554
 30
0.0
 10
76.81798294238284
 20
58.80810065521347
 30
0.0
 10
76.39901511133131
 20
59.37628791797244
 30
0.0
 10
75.82428989105078
 20
59.82715655261448
 30
0.0
 10
75.17500671791517
 20
60.10344774736045
 30
0.0
 10
74.68831247365203
 20
60.31099530616342
 30
0.0
 10
74.15846794761191
 20
60.41943030559748
 30
0.0
 10
73.62895374739956
 20
60.410436343536034
 30
0.0
 10
73.03535674765595
 20
60.40183808477618
 30
0.0
 10
72.44512612765973
 20
60.241970900052294
 30
0.0
 10
71.92768501368016
 20
59.95138086140017
 30
0.0
 10
71.38119217938421
 20
59.64619402856871
 30
0.0
 10
70.91673257380229
 20
59.20135560528722
 30
0.0
 10
70.57417651116178
 20
58.6790716825305
 30
0.0
 10
70.45071869953436
 20
58.49115064440656
 30
0.0
 10
70.34367986793178
 20
58.2943030334876
 30
0.0
 10
70.25306001635397
 20
58.08852884977365
 30
0.0
 10
70.18827827474645
 20
57.94169818917288
 30
0.0
 10
70.13368923825949
 20
57.791227726987614
 30
0.0
 10
70.08929290689282
 20
57.63711746321778
 30
0.0
 10
70.0453584285455
 20
57.47896494304911
 30
0.0
 10
70.00713711259672
 20
57.317472245657
 30
0.0
 10
70.00000010000001
 20
57.152941076470555
 30
0.0
  0
SPLINE
  5
32
330
17
100
AcDbEntity
  8
CUT
100
AcDbSpline
 70
0
 71
3
 72
149
 73
145
 74
0
 40
0.0
 40
0.0
 40
0.0
 40
0.0
 40
0.0006592971875940754
 40
0.0006592971875940754
 40
0.0006592971875940754
 40
0.003992575904525019
 40
0.003992575904525019
 40
0.003992575904525019
 40
0.007325854621455962
 40
0.007325854621455962
 40
0.007325854621455962
 40
0.015208620905859518
 40
0.015208620905859518
 40
0.015208620905859518
 40
0.02708216624686325
 40
0.02708216624686325
 40
0.02708216624686325
 40
0.03884848087923292
 40
0.03884848087923292
 40
0.03884848087923292
 40
0.06338999421307277
 40
0.06338999421307277
 40
0.06338999421307277
 40
0.09752536178394314
 40
0.09752536178394314
 40
0.09752536178394314
 40
0.1252607531539672
 40
0.1252607531539672
 40
0.1252607531539672
 40
0.1924627915781087
 40
0.1924627915781087
 40
0.1924627915781087
 40
0.22339692069515138
 40
0.22339692069515138
 40
0.22339692069515138
 40
0.251132125171919
 40
0.251132125171919
 40
0.251132125171919
 40
0.28099998188420744
 40
0.28099998188420744
 40
0.28099998188420744
 40
0.31300162591992947
 40
0.31300162591992947
 40
0.31300162591992947
 40
0.3513996709390065
 40
0.3513996709390065
 40
0.3513996709390065
 40
0.38126006343237245
 40
0.38126006343237245
 40
0.38126006343237245
 40
0.44737689662399166
 40
0.44737689662399166
 40
0.44737689662399166
 40
0.4772365846383553
 40
0.4772365846383553
 40
0.4772365846383553
 40
0.5028305715360607
 40
0.5028305715360607
 40
0.5028305715360607
 40
0.5102954843559198
 40
0.5102954843559198
 40
0.5102954843559198
 40
0.522020264902222
 40
0.522020264902222
 40
0.522020264902222
 40
0.5276840158856551
 40
0.5276840158856551
 40
0.5276840158856551
 40
0.5305158913773715
 40
0.5305158913773715
 40
0.5305158913773715
 40
0.533347766869088
 40
0.533347766869088
 40
0.533347766869088
 40
0.5340728405884867
 40
0.5340728405884867
 40
0.5340728405884867
 40
0.5347979143078855
 40
0.5347979143078855
 40
0.5347979143078855
 40
0.5348833277178652
 40
0.5348833277178652
 40
0.5348833277178652
 40
0.5354523397747373
 40
0.5354523397747373
 40
0.5354523397747373
 40
0.5360213518316095
 40
0.5360213518316095
 40
0.5360213518316095
 40
0.5395319921206199
 40
0.5395319921206199
 40
0.5395319921206199
 40
0.5451970615612677
 40
0.5451970615612677
 40
0.5451970615612677
 40
0.5544742741097562
 40
0.5544742741097562
 40
0.5544742741097562
 40
0.5646970462975217
 40
0.5646970462975217
 40
0.5646970462975217
 40
0.6027996768945827
 40
0.6027996768945827
 40
0.6027996768945827
 40
0.6306803035946088
 40
0.6306803035946088
 40
0.6306803035946088
 40
0.689228985327201
 40
0.689228985327201
 40
0.689228985327201
 40
0.7180419190353643
 40
0.7180419190353643
 40
0.7180419190353643
 40
0.7505738074108522
 40
0.7505738074108522
 40
0.7505738074108522
 40
0.7821833766870432
 40
0.7821833766870432
 40
0.7821833766870432
 40
0.8072889265025808
 40
0.8072889265025808
 40
0.8072889265025808
 40
0.8379715015365411
 40
0.8379715015365411
 40
0.8379715015365411
 40
0.8742305091587913
 40
0.8742305091587913
 40
0.8742305091587913
 40
0.9067719920384522
 40
0.9067719920384522
 40
0.9067719920384522
 40
0.9402428016033486
 40
0.9402428016033486
 40
0.9402428016033486
 40
0.9681351075541229
 40
0.9681351075541229
 40
0.9681351075541229
 40
0.9811515169968665
 40
0.9811515169968665
 40
0.9811515169968665
 40
0.9904490147600403
 40
0.9904490147600403
 40
0.9904490147600403
 40
1.0
 40
1.0
 40
1.0
 40
1.0
 10
221.5000001
 20
149.79999989999996
 30
0.0
 10
221.49922335708132
 20
149.78253897946527
 30
0.0
 10
221.49823873809615
 20
149.78337064064928
 30
0.0
 10
221.4970462430443
 20
149.80249488355196
 30
0.0
 10
221.49157251853035
 20
149.90183748121748
 30
0.0
 10
221.4873211929758
 20
150.02894755142296
 30
0.0
 10
221.47600674003345
 20
150.1277458413641
 30
0.0
 10
221.46514535124297
 20
150.22929970521756
 30
0.0
 10
221.44700789942297
 20
150.3038352462909
 30
0.0
 10
221.4256972128764
 20
150.37319304854725
 30
0.0
 10
221.37634741165024
 20
150.5378926487531
 30
0.0
 10
221.31503923091597
 20
150.79948659207366
 30
0.0
 10
221.2417948580316
 20
151.04892810118145
 30
0.0
 10
221.1322324150302
 20
151.42463791492776
 30
0.0
 10
220.98637112615316
 20
151.75961769538765
 30
0.0
 10
220.82025878771333
 20
152.09254067092746
 30
0.0
 10
220.65561569304975
 20
152.42612463542926
 30
0.0
 10
220.4697795694588
 20
152.7517222380807
 30
0.0
 10
220.26275041694083
 20
153.06933347888204
 30
0.0
 10
219.83138928857235
 20
153.7243335882994
 30
0.0
 10
219.30971884887506
 20
154.3153326274755
 30
0.0
 10
218.7156641817701
 20
154.82795266523803
 30
0.0
 10
217.88994133450393
 20
155.53984556350414
 30
0.0
 10
216.91756739635025
 20
156.08292652711555
 30
0.0
 10
215.87269169302888
 20
156.39774299220258
 30
0.0
 10
215.02437385815207
 20
156.654396052675
 30
0.0
 10
214.13114994381274
 20
156.75997372191472
 30
0.0
 10
213.24626728150508
 20
156.71209751043511
 30
0.0
 10
211.0970606120543
 20
156.60053831094922
 30
0.0
 10
209.02692771792476
 20
155.58531371073497
 30
0.0
 10
207.57705613850783
 20
154.0028579745995
 30
0.0
 10
206.9084264408252
 20
153.27546715302978
 30
0.0
 10
206.36870741258727
 20
152.42709233952684
 30
0.0
 10
206.00992769032788
 20
151.50542080984724
 30
0.0
 10
205.68707207581937
 20
150.67983276907248
 30
0.0
 10
205.51322883497784
 20
149.79631393023013
 30
0.0
 10
205.5008106569962
 20
148.9098342466603
 30
0.0
 10
205.48613460652453
 20
147.95472611500713
 30
0.0
 10
205.65901143354765
 20
147.00085356289628
 30
0.0
 10
205.9745734842272
 20
146.1012753773783
 30
0.0
 10
206.3118387505263
 20
145.1351606650352
 30
0.0
 10
206.8064076280714
 20
144.23059704425785
 30
0.0
 10
207.3850948267252
 20
143.38988684351915
 30
0.0
 10
208.08105960188092
 20
142.38020146880731
 30
0.0
 10
208.8963793716127
 20
141.45861858533064
 30
0.0
 10
209.7587963702534
 20
140.5893248182793
 30
0.0
 10
210.43017229362
 20
139.91317082338819
 30
0.0
 10
211.13214729747762
 20
139.2681405818489
 30
0.0
 10
211.84581601189822
 20
138.63714724957345
 30
0.0
 10
213.4266129756178
 20
137.24029177634495
 30
0.0
 10
215.0674986567047
 20
135.91262779188318
 30
0.0
 10
216.62711769095895
 20
134.49157294108093
 30
0.0
 10
217.33089981525487
 20
133.84957035107666
 30
0.0
 10
218.0184561598505
 20
133.18913253752626
 30
0.0
 10
218.66721657204218
 20
132.49073584403735
 30
0.0
 10
219.22255068154882
 20
131.89112812277722
 30
0.0
 10
219.7509332345398
 20
131.26827688565479
 30
0.0
 10
220.2207281151794
 20
130.59874164828588
 30
0.0
 10
220.35784108398528
 20
130.40288069194423
 30
0.0
 10
220.48897544564747
 20
130.20313435299474
 30
0.0
 10
220.61413120016655
 20
129.9995026314378
 30
0.0
 10
220.8099988945541
 20
129.6782810094309
 30
0.0
 10
220.99097056855524
 20
129.36017623584345
 30
0.0
 10
221.14383829855666
 20
129.01876334867643
 30
0.0
 10
221.2178242999647
 20
128.85021470724462
 30
0.0
 10
221.29087603634474
 20
128.6498860968723
 30
0.0
 10
221.3477740276304
 20
128.4750060113598
 30
0.0
 10
221.376746119203
 20
128.387701080046
 30
0.0
 10
221.40359992441634
 20
128.30494582308754
 30
0.0
 10
221.42833544327016
 20
128.22674024048433
 30
0.0
 10
221.45277754124274
 20
128.14614202449832
 30
0.0
 10
221.47471116977033
 20
128.0683323005614
 30
0.0
 10
221.48600203803693
 20
127.94721696087777
 30
0.0
 10
221.4889014002434
 20
127.91650047797748
 30
0.0
 10
221.4911346752269
 20
127.89743481381569
 30
0.0
 10
221.49314827098706
 20
127.86918315093544
 30
0.0
 10
221.49518752813177
 20
127.84314341996648
 30
0.0
 10
221.49702553573164
 20
127.80490288980971
 30
0.0
 10
221.49979863554364
 20
127.80012757116353
 30
0.0
 10
221.50012529862002
 20
127.80054944268775
 30
0.0
 10
221.50045196169617
 20
127.80097131421192
 30
0.0
 10
221.50077862477252
 20
127.80139318573615
 30
0.0
 10
221.50289700449426
 20
127.80993036135084
 30
0.0
 10
221.50440607647252
 20
127.834709887999
 30
0.0
 10
221.50601352206368
 20
127.85639162848611
 30
0.0
 10
221.5077534047702
 20
127.87840112408574
 30
0.0
 10
221.50949328747657
 20
127.90041061968529
 30
0.0
 10
221.51123317018317
 20
127.92242011528492
 30
0.0
 10
221.52223672678875
 20
128.06610300436512
 30
0.0
 10
221.55117616911048
 20
128.16802993141545
 30
0.0
 10
221.58645713294825
 20
128.27317059789482
 30
0.0
 10
221.64188272176722
 20
128.4454007577035
 30
0.0
 10
221.71010214499967
 20
128.65791203262643
 30
0.0
 10
221.7879754675448
 20
128.8539612312333
 30
0.0
 10
221.91545672112747
 20
129.1751084907826
 30
0.0
 10
222.07432810458178
 20
129.4698969706977
 30
0.0
 10
222.24472679675108
 20
129.76371511537147
 30
0.0
 10
222.43362562429357
 20
130.08757000228314
 30
0.0
 10
222.6374890633551
 20
130.40220763730548
 30
0.0
 10
222.85631711393555
 20
130.70762802043856
 30
0.0
 10
223.67301461376456
 20
131.84037195745188
 30
0.0
 10
224.64082904892334
 20
132.85425511725043
 30
0.0
 10
225.648587272197
 20
133.81721292000066
 30
0.0
 10
226.38773850185603
 20
134.52127319767786
 30
0.0
 10
227.1534075003446
 20
135.19691175809845
 30
0.0
 10
227.9264007793099
 20
135.8633986495354
 30
0.0
 10
229.54894336564658
 20
137.26333224294405
 30
0.0
 10
231.21145250653947
 20
138.6200864041066
 30
0.0
 10
232.75459813959827
 20
140.10937009116773
 30
0.0
 10
233.51259336146023
 20
140.84268027889414
 30
0.0
 10
234.241006527014
 20
141.6088665632181
 30
0.0
 10
234.9011837458463
 20
142.43240737910853
 30
0.0
 10
235.64526904934806
 20
143.3612315909734
 30
0.0
 10
236.30476506833307
 20
144.3674535786016
 30
0.0
 10
236.77693496079445
 20
145.46367659602365
 30
0.0
 10
237.23618320011104
 20
146.5259415868736
 30
0.0
 10
237.5074567216487
 20
147.677931965517
 30
0.0
 10
237.4998995274678
 20
148.83872166243532
 30
0.0
 10
237.4958479737918
 20
149.75937766477162
 30
0.0
 10
237.317557909011
 20
150.67848262241287
 30
0.0
 10
236.97870104964264
 20
151.53442599697004
 30
0.0
 10
236.5661228457199
 20
152.58171957657373
 30
0.0
 10
235.9200269439536
 20
153.5323907381422
 30
0.0
 10
235.11682678208416
 20
154.3189970066526
 30
0.0
 10
234.16778475377836
 20
155.2494325790319
 30
0.0
 10
232.9983715815498
 20
155.9548667386507
 30
0.0
 10
231.72985832737336
 20
156.35283864676174
 30
0.0
 10
230.5924514595868
 20
156.7111322072493
 30
0.0
 10
229.3734466236951
 20
156.81682398787476
 30
0.0
 10
228.1932949488966
 20
156.6376534804663
 30
0.0
 10
226.97898312282933
 20
156.45668238523976
 30
0.0
 10
225.8140971788881
 20
155.97203976906505
 30
0.0
 10
224.82135379496188
 20
155.25192862741991
 30
0.0
 10
223.99263804061576
 20
154.65307469548586
 30
0.0
 10
223.28059945179845
 20
153.89678673557768
 30
0.0
 10
222.72012499968886
 20
153.04302741362076
 30
0.0
 10
222.45777764911358
 20
152.6436978662692
 30
0.0
 10
222.2303201955954
 20
152.22539669462634
 30
0.0
 10
222.03775263913397
 20
151.78812389869202
 30
0.0
 10
221.90006848402317
 20
151.4761086336535
 30
0.0
 10
221.78408519653
 20
151.15635902043192
 30
0.0
 10
221.68980277665472
 20
150.82887505902752
 30
0.0
 10
221.5963427271969
 20
150.49281051127326
 30
0.0
 10
221.51518465017227
 20
150.14961742527683
 30
0.0
 10
221.50000009999997
 20
149.79999989999996
 30
0.0
  0
SPLINE
  5
33
330
17
100
AcDbEntity
  8
CUT
100
AcDbSpline
 70
0
 71
3
 72
149
 73
145
 74
0
 40
0.0
 40
0.0
 40
0.0
 40
0.0
 40
0.0006592971873703272
 40
0.0006592971873703272
 40
0.0006592971873703272
 40
0.003992575903903622
 40
0.003992575903903622
 40
0.003992575903903622
 40
0.007325854620436916
 40
0.007325854620436916
 40
0.007325854620436916
 40
0.015208620903886621
 40
0.015208620903886621
 40
0.015208620903886621
 40
0.027082166244151003
 40
0.027082166244151003
 40
0.027082166244151003
 40
0.038848480874840066
 40
0.038848480874840066
 40
0.038848480874840066
 40
0.06338999420620522
 40
0.06338999420620522
 40
0.06338999420620522
 40
0.09752536176995884
 40
0.09752536176995884
 40
0.09752536176995884
 40
0.1252607531324848
 40
0.1252607531324848
 40
0.1252607531324848
 40
0.1924627915377989
 40
0.1924627915377989
 40
0.1924627915377989
 40
0.22339692064419786
 40
0.22339692064419786
 40
0.22339692064419786
 40
0.2511321251105444
 40
0.2511321251105444
 40
0.2511321251105444
 40
0.28099998180853003
 40
0.28099998180853003
 40
0.28099998180853003
 40
0.31300162582696545
 40
0.31300162582696545
 40
0.31300162582696545
 40
0.35139967083227597
 40
0.35139967083227597
 40
0.35139967083227597
 40
0.38126006331530404
 40
0.38126006331530404
 40
0.38126006331530404
 40
0.4473768964856486
 40
0.4473768964856486
 40
0.4473768964856486
 40
0.47723658449067236
 40
0.47723658449067236
 40
0.47723658449067236
 40
0.5028305713804132
 40
0.5028305713804132
 40
0.5028305713804132
 40
0.5102954841979588
 40
0.5102954841979588
 40
0.5102954841979588
 40
0.5220202647407759
 40
0.5220202647407759
 40
0.5220202647407759
 40
0.5276840157230575
 40
0.5276840157230575
 40
0.5276840157230575
 40
0.5305158912141983
 40
0.5305158912141983
 40
0.5305158912141983
 40
0.533347766705339
 40
0.533347766705339
 40
0.533347766705339
 40
0.5340728404245492
 40
0.5340728404245492
 40
0.5340728404245492
 40
0.5347979141437592
 40
0.5347979141437592
 40
0.5347979141437592
 40
0.534883327553707
 40
0.534883327553707
 40
0.534883327553707
 40
0.5354523396107689
 40
0.5354523396107689
 40
0.5354523396107689
 40
0.5360213516678307
 40
0.5360213516678307
 40
0.5360213516678307
 40
0.539531991958027
 40
0.539531991958027
 40
0.539531991958027
 40
0.5451970614005825
 40
0.5451970614005825
 40
0.5451970614005825
 40
0.5544742739523152
 40
0.5544742739523152
 40
0.5544742739523152
 40
0.564697046143331
 40
0.564697046143331
 40
0.564697046143331
 40
0.6027996767537044
 40
0.6027996767537044
 40
0.6027996767537044
 40
0.6306803034627194
 40
0.6306803034627194
 40
0.6306803034627194
 40
0.689228985210666
 40
0.689228985210666
 40
0.689228985210666
 40
0.7180419189300686
 40
0.7180419189300686
 40
0.7180419189300686
 40
0.7505738073196617
 40
0.7505738073196617
 40
0.7505738073196617
 40
0.7821833766102042
 40
0.7821833766102042
 40
0.7821833766102042
 40
0.8072889264371359
 40
0.8072889264371359
 40
0.8072889264371359
 40
0.8379715014850778
 40
0.8379715014850778
 40
0.8379715014850778
 40
0.8742305091223745
 40
0.8742305091223745
 40
0.8742305091223745
 40
0.906771992014091
 40
0.906771992014091
 40
0.906771992014091
 40
0.9402428015894836
 40
0.9402428015894836
 40
0.9402428015894836
 40
0.968135107546726
 40
0.968135107546726
 40
0.968135107546726
 40
0.9811515169924844
 40
0.9811515169924844
 40
0.9811515169924844
 40
0.9904490147578187
 40
0.9904490147578187
 40
0.9904490147578187
 40
1.0
 40
1.0
 40
1.0
 40
1.0
 10
221.5000001
 20
204.79999989999996
 30
0.0
 10
221.49922335708132
 20
204.78253897946593
 30
0.0
 10
221.49823873809615
 20
204.78337064064985
 30
0.0
 10
221.4970462430443
 20
204.80249488355165
 30
0.0
 10
221.49157251853018
 20
204.90183748121743
 30
0.0
 10
221.48732119297588
 20
205.02894755142287
 30
0.0
 10
221.47600674003357
 20
205.1277458413641
 30
0.0
 10
221.46514535124297
 20
205.22929970521741
 30
0.0
 10
221.44700789942306
 20
205.3038352462909
 30
0.0
 10
221.42569721287643
 20
205.37319304854736
 30
0.0
 10
221.37634741165067
 20
205.53789264875186
 30
0.0
 10
221.31503923091512
 20
205.7994865920766
 30
0.0
 10
221.24179485803276
 20
206.04892810117775
 30
0.0
 10
221.1322324150284
 20
206.42463791493282
 30
0.0
 10
220.98637112615597
 20
206.75961769538114
 30
0.0
 10
220.82025878771034
 20
207.09254067093383
 30
0.0
 10
220.65561569304944
 20
207.4261246354308
 30
0.0
 10
220.4697795694601
 20
207.7517222380786
 30
0.0
 10
220.26275041694194
 20
208.06933347887696
 30
0.0
 10
219.83138928856877
 20
208.7243335883092
 30
0.0
 10
219.3097188488695
 20
209.3153326274793
 30
0.0
 10
218.71566418177022
 20
209.82795266523803
 30
0.0
 10
217.8899413346365
 20
210.539845563401
 30
0.0
 10
216.9175673964119
 20
211.08292652710622
 30
0.0
 10
215.8726916930289
 20
211.39774299220252
 30
0.0
 10
215.02437385815077
 20
211.65439605267414
 30
0.0
 10
214.131149943819
 20
211.75997372191597
 30
0.0
 10
213.24626728150133
 20
211.712097510434
 30
0.0
 10
211.09706061196087
 20
211.60053831090715
 30
0.0
 10
209.02692771806213
 20
210.58531371081443
 30
0.0
 10
207.57705613850652
 20
209.00285797459836
 30
0.0
 10
206.90842644082463
 20
208.2754671530278
 30
0.0
 10
206.36870741258545
 20
207.42709233952507
 30
0.0
 10
206.0099276903271
 20
206.50542080984488
 30
0.0
 10
205.68707207582017
 20
205.67983276907526
 30
0.0
 10
205.51322883497753
 20
204.79631393022845
 30
0.0
 10
205.5008106569962
 20
203.90983424666035
 30
0.0
 10
205.48613460652427
 20
202.95472611512508
 30
0.0
 10
205.659011433512
 20
202.00085356299158
 30
0.0
 10
205.97457348422725
 20
201.10127537737833
 30
0.0
 10
206.3118387505324
 20
200.13516066501086
 30
0.0
 10
206.8064076281151
 20
199.2305970441911
 30
0.0
 10
207.38509482671913
 20
198.38988684352825
 30
0.0
 10
208.08105960188655
 20
197.38020146879816
 30
0.0
 10
208.89637937160362
 20
196.4586185853432
 30
0.0
 10
209.7587963702517
 20
195.58932481828015
 30
0.0
 10
210.43017229362252
 20
194.91317082338654
 30
0.0
 10
211.13214729747972
 20
194.26814058184655
 30
0.0
 10
211.84581601189697
 20
193.63714724957455
 30
0.0
 10
213.4266129756165
 20
192.24029177634586
 30
0.0
 10
215.06749865670417
 20
190.91262779188347
 30
0.0
 10
216.62711769095867
 20
189.49157294108127
 30
0.0
 10
217.33089981525865
 20
188.84957035107323
 30
0.0
 10
218.0184561598506
 20
188.18913253752598
 30
0.0
 10
218.66721657204215
 20
187.49073584403732
 30
0.0
 10
219.22255068154925
 20
186.8911281227769
 30
0.0
 10
219.75093323453993
 20
186.26827688565427
 30
0.0
 10
220.22072811517938
 20
185.59874164828585
 30
0.0
 10
220.35784108398522
 20
185.40288069194412
 30
0.0
 10
220.4889754456475
 20
185.20313435299468
 30
0.0
 10
220.61413120016664
 20
184.99950263143805
 30
0.0
 10
220.80999889455305
 20
184.6782810094322
 30
0.0
 10
220.99097056855754
 20
184.36017623583948
 30
0.0
 10
221.14383829855393
 20
184.01876334868152
 30
0.0
 10
221.21782429996532
 20
183.85021470724323
 30
0.0
 10
221.29087603634417
 20
183.6498860968733
 30
0.0
 10
221.34777402763038
 20
183.47500601135974
 30
0.0
 10
221.37674611920357
 20
183.38770108004599
 30
0.0
 10
221.40359992441648
 20
183.3049458230874
 30
0.0
 10
221.42833544327013
 20
183.22674024048413
 30
0.0
 10
221.45277754124277
 20
183.1461420244984
 30
0.0
 10
221.47471116977076
 20
183.06833230056088
 30
0.0
 10
221.4860020380373
 20
182.94721696087666
 30
0.0
 10
221.48890140024358
 20
182.91650047797788
 30
0.0
 10
221.49113467522693
 20
182.8974348138155
 30
0.0
 10
221.49314827098692
 20
182.86918315093536
 30
0.0
 10
221.49518752813168
 20
182.84314341996637
 30
0.0
 10
221.49702553573167
 20
182.80490288980968
 30
0.0
 10
221.49979863554364
 20
182.80012757116353
 30
0.0
 10
221.50012529861976
 20
182.8005494426876
 30
0.0
 10
221.50045196169614
 20
182.8009713142118
 30
0.0
 10
221.5007786247723
 20
182.80139318573586
 30
0.0
 10
221.50289700449426
 20
182.8099303613509
 30
0.0
 10
221.50440607647258
 20
182.83470988799903
 30
0.0
 10
221.50601352206363
 20
182.85639162848614
 30
0.0
 10
221.50775340477
 20
182.87840112408568
 30
0.0
 10
221.5094932874767
 20
182.90041061968526
 30
0.0
 10
221.51123317018312
 20
182.92242011528484
 30
0.0
 10
221.52223672678872
 20
183.0661030043652
 30
0.0
 10
221.55117616911053
 20
183.16802993141545
 30
0.0
 10
221.58645713294825
 20
183.27317059789482
 30
0.0
 10
221.64188272176722
 20
183.44540075770328
 30
0.0
 10
221.71010214499998
 20
183.6579120326271
 30
0.0
 10
221.7879754675445
 20
183.85396123123263
 30
0.0
 10
221.91545672112827
 20
184.1751084907838
 30
0.0
 10
222.0743281045802
 20
184.46989697069594
 30
0.0
 10
222.24472679675287
 20
184.76371511537326
 30
0.0
 10
222.43362562429422
 20
185.08757000228374
 30
0.0
 10
222.63748906335448
 20
185.40220763730485
 30
0.0
 10
222.8563171139335
 20
185.7076280204367
 30
0.0
 10
223.673014613766
 20
186.84037195745313
 30
0.0
 10
224.64082904892243
 20
187.85425511724932
 30
0.0
 10
225.64858727219686
 20
188.8172129200008
 30
0.0
 10
226.387738501829
 20
189.52127319765123
 30
0.0
 10
227.15340750030623
 20
190.19691175806614
 30
0.0
 10
227.92640077931557
 20
190.8633986495397
 30
0.0
 10
229.5489433656361
 20
192.26333224293847
 30
0.0
 10
231.21145250662642
 20
193.62008640417486
 30
0.0
 10
232.75459813958688
 20
195.109370091166
 30
0.0
 10
233.51259336150724
 20
195.8426802789306
 30
0.0
 10
234.24100652702373
 20
196.60886656323743
 30
0.0
 10
234.90118374584628
 20
197.43240737910855
 30
0.0
 10
235.64526904937225
 20
198.36123159100535
 30
0.0
 10
236.3047650683443
 20
199.36745357862938
 30
0.0
 10
236.7769349607943
 20
200.46367659602356
 30
0.0
 10
237.23618320011136
 20
201.52594158687398
 30
0.0
 10
237.50745672164888
 20
202.67793196551779
 30
0.0
 10
237.49989952746782
 20
203.8387216624352
 30
0.0
 10
237.49584797379188
 20
204.75937766477168
 30
0.0
 10
237.31755790901147
 20
205.6784826224122
 30
0.0
 10
236.97870104964227
 20
206.53442599697001
 30
0.0
 10
236.5661228457252
 20
207.5817195765644
 30
0.0
 10
235.9200269439563
 20
208.53239073813944
 30
0.0
 10
235.11682678208447
 20
209.3189970066529
 30
0.0
 10
234.16778475382205
 20
210.24943257898934
 30
0.0
 10
232.99837158161344
 20
210.9548667386307
 30
0.0
 10
231.72985832737334
 20
211.35283864676168
 30
0.0
 10
230.59245145958755
 20
211.71113220724928
 30
0.0
 10
229.37344662369523
 20
211.81682398787467
 30
0.0
 10
228.1932949488969
 20
211.63765348046647
 30
0.0
 10
226.97898312291954
 20
211.45668238525005
 30
0.0
 10
225.81409717900402
 20
210.97203976913826
 30
0.0
 10
224.82135379496182
 20
210.2519286274199
 30
0.0
 10
223.99263804061582
 20
209.653074695486
 30
0.0
 10
223.28059945179868
 20
208.89678673557776
 30
0.0
 10
222.7201249996888
 20
208.04302741362073
 30
0.0
 10
222.45777764911375
 20
207.64369786626915
 30
0.0
 10
222.23032019559528
 20
207.2253966946263
 30
0.0
 10
222.03775263913374
 20
206.788123898692
 30
0.0
 10
221.90006848402305
 20
206.4761086336535
 30
0.0
 10
221.7840851965301
 20
206.15635902043198
 30
0.0
 10
221.68980277665543
 20
205.82887505902758
 30
0.0
 10
221.59634272719617
 20
205.49281051127306
 30
0.0
 10
221.5151846501725
 20
205.14961742527674
 30
0.0
 10
221.50000009999997
 20
204.79999989999996
 30
0.0
  0
SPLINE
  5
34
330
17
100
AcDbEntity
  8
CUT
100
AcDbSpline
 70
0
 71
3
 72
125
 73
121
 74
0
 40
0.0
 40
0.0
 40
0.0
 40
0.0
 40
0.0005266961195905934
 40
0.0005266961195905934
 40
0.0005266961195905934
 40
0.003525199489641038
 40
0.003525199489641038
 40
0.003525199489641038
 40
0.006523702859691482
 40
0.006523702859691482
 40
0.006523702859691482
 40
0.014283897339578654
 40
0.014283897339578654
 40
0.014283897339578654
 40
0.026623476955012524
 40
0.026623476955012524
 40
0.026623476955012524
 40
0.05916070197443849
 40
0.05916070197443849
 40
0.05916070197443849
 40
0.11754254065461814
 40
0.11754254065461814
 40
0.11754254065461814
 40
0.18041838720742662
 40
0.18041838720742662
 40
0.18041838720742662
 40
0.24554180876121573
 40
0.24554180876121573
 40
0.24554180876121573
 40
0.27024556141857786
 40
0.27024556141857786
 40
0.27024556141857786
 40
0.3016855114530659
 40
0.3016855114530659
 40
0.3016855114530659
 40
0.3679185533143025
 40
0.3679185533143025
 40
0.3679185533143025
 40
0.49249890341911623
 40
0.49249890341911623
 40
0.49249890341911623
 40
0.5183119106986753
 40
0.5183119106986753
 40
0.5183119106986753
 40
0.5351398746086187
 40
0.5351398746086187
 40
0.5351398746086187
 40
0.5474789059223077
 40
0.5474789059223077
 40
0.5474789059223077
 40
0.5534995385265238
 40
0.5534995385265238
 40
0.5534995385265238
 40
0.5595201711307397
 40
0.5595201711307397
 40
0.5595201711307397
 40
0.5604986129727767
 40
0.5604986129727767
 40
0.5604986129727767
 40
0.5614770548148137
 40
0.5614770548148137
 40
0.5614770548148137
 40
0.5615987239501946
 40
0.5615987239501946
 40
0.5615987239501946
 40
0.5629050960891259
 40
0.5629050960891259
 40
0.5629050960891259
 40
0.5642114682280571
 40
0.5642114682280571
 40
0.5642114682280571
 40
0.5668242125059196
 40
0.5668242125059196
 40
0.5668242125059196
 40
0.5721496808376979
 40
0.5721496808376979
 40
0.5721496808376979
 40
0.580875584808391
 40
0.580875584808391
 40
0.580875584808391
 40
0.612348334525967
 40
0.612348334525967
 40
0.612348334525967
 40
0.6735472354215789
 40
0.6735472354215789
 40
0.6735472354215789
 40
0.7102663842905943
 40
0.7102663842905943
 40
0.7102663842905943
 40
0.7443667490287097
 40
0.7443667490287097
 40
0.7443667490287097
 40
0.776724281177774
 40
0.776724281177774
 40
0.776724281177774
 40
0.8090881677151961
 40
0.8090881677151961
 40
0.8090881677151961
 40
0.8362042591015849
 40
0.8362042591015849
 40
0.8362042591015849
 40
0.8746886189705134
 40
0.8746886189705134
 40
0.8746886189705134
 40
0.9035525546223383
 40
0.9035525546223383
 40
0.9035525546223383
 40
0.9359150777508368
 40
0.9359150777508368
 40
0.9359150777508368
 40
0.970026429856734
 40
0.970026429856734
 40
0.970026429856734
 40
0.982271562371894
 40
0.982271562371894
 40
0.982271562371894
 40
0.991018233933416
 40
0.991018233933416
 40
0.991018233933416
 40
1.0
 40
1.0
 40
1.0
 40
1.0
 10
250.0000001
 20
57.152941076470555
 30
0.0
 10
249.99962974425165
 20
57.14494093659746
 30
0.0
 10
249.9991699012734
 20
57.14518189174089
 30
0.0
 10
249.99862057106483
 20
57.15366394190084
 30
0.0
 10
249.99619295898262
 20
57.197424026668614
 30
0.0
 10
249.9940533905038
 20
57.26170128094492
 30
0.0
 10
249.98870845603508
 20
57.306769390647545
 30
0.0
 10
249.98329334165305
 20
57.353285835662604
 30
0.0
 10
249.97532472245308
 20
57.392261884763656
 30
0.0
 10
249.96480259843437
 20
57.423697537950616
 30
0.0
 10
249.9386502278671
 20
57.512490631697986
 30
0.0
 10
249.91091734610157
 20
57.630559709743835
 30
0.0
 10
249.87849211002035
 20
57.740596625380164
 30
0.0
 10
249.82693146552043
 20
57.91754701768939
 30
0.0
 10
249.75829314847044
 20
58.075070759248014
 30
0.0
 10
249.68012299541144
 20
58.23180212921136
 30
0.0
 10
249.47520760516036
 20
58.64971655374952
 30
0.0
 10
249.20038413419763
 20
59.03454623719445
 30
0.0
 10
248.8671111255387
 20
59.3566527907538
 30
0.0
 10
248.2723187853053
 20
59.94090033655439
 30
0.0
 10
247.47723617345784
 20
60.32230960166131
 30
0.0
 10
246.6446233269347
 20
60.39563505311828
 30
0.0
 10
245.74818069130876
 20
60.4803636029102
 30
0.0
 10
244.83238156992132
 20
60.216275054945456
 30
0.0
 10
244.09847191370466
 20
59.699952222500244
 30
0.0
 10
243.33638278355477
 20
59.16900373070756
 30
0.0
 10
242.758945937516
 20
58.361036107405084
 30
0.0
 10
242.55575802633643
 20
57.449734744172716
 30
0.0
 10
242.47814950402943
 20
57.10267887940456
 30
0.0
 10
242.45357678560848
 20
56.75192896659935
 30
0.0
 10
242.48203987107274
 20
56.397485005757034
 30
0.0
 10
242.51741555763934
 20
55.949172856152764
 30
0.0
 10
242.63777088695937
 20
55.51035734981213
 30
0.0
 10
242.81666421249528
 20
55.09886990208091
 30
0.0
 10
243.1967573561247
 20
54.228670308478215
 30
0.0
 10
243.81234706283598
 20
53.48766010210669
 30
0.0
 10
244.47472787687903
 20
52.81850575780912
 30
0.0
 10
245.73037612831203
 20
51.55844607638257
 30
0.0
 10
247.18674917503054
 20
50.518921094474436
 30
0.0
 10
248.43470022022862
 20
49.25069581830571
 30
0.0
 10
248.69390008708828
 20
48.98839532844541
 30
0.0
 10
248.9384215527628
 20
48.71323201922404
 30
0.0
 10
249.16826461725245
 20
48.42520589064159
 30
0.0
 10
249.31784041337647
 20
48.237220475093885
 30
0.0
 10
249.45612699731424
 20
48.040514566538704
 30
0.0
 10
249.58312436906564
 20
47.83508816497606
 30
0.0
 10
249.67527733375655
 20
47.683598562448665
 30
0.0
 10
249.76049221482086
 20
47.53488668870186
 30
0.0
 10
249.83235185670915
 20
47.372708889729026
 30
0.0
 10
249.86764591791663
 20
47.29264764565571
 30
0.0
 10
249.90137777027277
 20
47.201132849516725
 30
0.0
 10
249.9282351305396
 20
47.11786391669526
 30
0.0
 10
249.95488691988962
 20
47.030581058143845
 30
0.0
 10
249.98204787194456
 20
46.97599707590044
 30
0.0
 10
249.99339169059354
 20
46.87268801732925
 30
0.0
 10
249.9949741244215
 20
46.857829808146
 30
0.0
 10
249.99610072842918
 20
46.84437544578004
 30
0.0
 10
249.99677150261678
 20
46.83232493023139
 30
0.0
 10
249.99761221052736
 20
46.81940801393253
 30
0.0
 10
249.99863842687498
 20
46.801775575097636
 30
0.0
 10
249.99990514868173
 20
46.80004376797911
 30
0.0
 10
250.00005895705252
 20
46.80024117651678
 30
0.0
 10
250.00021276542338
 20
46.80043858505445
 30
0.0
 10
250.00036657379417
 20
46.800635993592124
 30
0.0
 10
250.00192638967917
 20
46.806826385953066
 30
0.0
 10
250.00298113399407
 20
46.83310741195692
 30
0.0
 10
250.00505233993087
 20
46.85605373505534
 30
0.0
 10
250.00709850073528
 20
46.880130357899944
 30
0.0
 10
250.0098638329261
 20
46.90180968649353
 30
0.0
 10
250.01334833650353
 20
46.92109172083612
 30
0.0
 10
250.02054763452503
 20
46.960104239300435
 30
0.0
 10
250.02826920853485
 20
46.98460249604974
 30
0.0
 10
250.0406841637329
 20
47.02274740306992
 30
0.0
 10
250.0667655194107
 20
47.103661797299644
 30
0.0
 10
250.09887478953095
 20
47.20375077790764
 30
0.0
 10
250.13551970709855
 20
47.29595982897292
 30
0.0
 10
250.19706655819428
 20
47.44512299334511
 30
0.0
 10
250.26871351407948
 20
47.587834474253526
 30
0.0
 10
250.35046057475392
 20
47.72409427169816
 30
0.0
 10
250.6412529551696
 20
48.22462539717947
 30
0.0
 10
251.01403348619493
 20
48.669048970897464
 30
0.0
 10
251.40881483954027
 20
49.08820325344816
 30
0.0
 10
252.18165596401533
 20
49.90150118547136
 30
0.0
 10
253.05018284934695
 20
50.61447623557325
 30
0.0
 10
253.90081428917043
 20
51.34317943676724
 30
0.0
 10
254.41178678986898
 20
51.780181069503115
 30
0.0
 10
254.91975199542077
 20
52.22166188610613
 30
0.0
 10
255.39945531287847
 20
52.69326554154898
 30
0.0
 10
255.84413404484516
 20
53.13124330478492
 30
0.0
 10
256.265925016274
 20
53.59586281181828
 30
0.0
 10
256.6232930877445
 20
54.10893313801989
 30
0.0
 10
256.9614072294304
 20
54.594778429244926
 30
0.0
 10
257.2407083396297
 20
55.12829177329156
 30
0.0
 10
257.3959015692851
 20
55.701980044242845
 30
0.0
 10
257.5525760503274
 20
56.273944830986366
 30
0.0
 10
257.5755963337521
 20
56.88502842632096
 30
0.0
 10
257.4409911892439
 20
57.464029831316495
 30
0.0
 10
257.3299031742582
 20
57.949098621470654
 30
0.0
 10
257.1133310925636
 20
58.40829401017695
 30
0.0
 10
256.81798294238286
 20
58.80810065521348
 30
0.0
 10
256.39901511132905
 20
59.37628791797508
 30
0.0
 10
255.82428989105023
 20
59.82715655261423
 30
0.0
 10
255.17500671791512
 20
60.10344774736042
 30
0.0
 10
254.6883124736524
 20
60.31099530616349
 30
0.0
 10
254.15846794761188
 20
60.41943030559743
 30
0.0
 10
253.6289537473996
 20
60.41043634353603
 30
0.0
 10
253.03535674765428
 20
60.40183808477665
 30
0.0
 10
252.44512612765402
 20
60.24197090004965
 30
0.0
 10
251.92768501368013
 20
59.951380861400175
 30
0.0
 10
251.38119217938478
 20
59.64619402856907
 30
0.0
 10
250.91673257380268
 20
59.2013556052877
 30
0.0
 10
250.57417651116177
 20
58.67907168253052
 30
0.0
 10
250.45071869953443
 20
58.491150644406574
 30
0.0
 10
250.34367986793183
 20
58.294303033487616
 30
0.0
 10
250.25306001635397
 20
58.08852884977367
 30
0.0
 10
250.18827827474635
 20
57.94169818917289
 30
0.0
 10
250.13368923825962
 20
57.79122772698762
 30
0.0
 10
250.08929290689278
 20
57.637117463217784
 30
0.0
 10
250.0453584285454
 20
57.47896494304913
 30
0.0
 10
250.00713711259678
 20
57.317472245656994
 30
0.0
 10
250.00000009999997
 20
57.152941076470555
 30
0.0
  0
SPLINE
  5
35
330
17
100
AcDbEntity
  8
CUT
100
AcDbSpline
 70
0
 71
3
 72
149
 73
145
 74
0
 40
0.0
 40
0.0
 40
0.0
 40
0.0
 40
0.0006592971871861883
 40
0.0006592971871861883
 40
0.0006592971871861883
 40
0.003992575903661222
 40
0.003992575903661222
 40
0.003992575903661222
 40
0.007325854620136255
 40
0.007325854620136255
 40
0.007325854620136255
 40
0.015208620903470544
 40
0.015208620903470544
 40
0.015208620903470544
 40
0.027082166242962766
 40
0.027082166242962766
 40
0.027082166242962766
 40
0.03884848087313138
 40
0.03884848087313138
 40
0.03884848087313138
 40
0.06338999420216554
 40
0.06338999420216554
 40
0.06338999420216554
 40
0.0975253617711934
 40
0.0975253617711934
 40
0.0975253617711934
 40
0.12526075314233506
 40
0.12526075314233506
 40
0.12526075314233506
 40
0.19246279156800022
 40
0.19246279156800022
 40
0.19246279156800022
 40
0.22339692068424755
 40
0.22339692068424755
 40
0.22339692068424755
 40
0.2511321251598028
 40
0.2511321251598028
 40
0.2511321251598028
 40
0.28099998187174097
 40
0.28099998187174097
 40
0.28099998187174097
 40
0.31300162590761393
 40
0.31300162590761393
 40
0.31300162590761393
 40
0.35139967092744484
 40
0.35139967092744484
 40
0.35139967092744484
 40
0.3812600634194816
 40
0.3812600634194816
 40
0.3812600634194816
 40
0.44737689659389923
 40
0.44737689659389923
 40
0.44737689659389923
 40
0.4772365846008418
 40
0.4772365846008418
 40
0.4772365846008418
 40
0.5028305714922773
 40
0.5028305714922773
 40
0.5028305714922773
 40
0.5102954843103094
 40
0.5102954843103094
 40
0.5102954843103094
 40
0.5220202648540134
 40
0.5220202648540134
 40
0.5220202648540134
 40
0.5276840158364222
 40
0.5276840158364222
 40
0.5276840158364222
 40
0.5305158913276266
 40
0.5305158913276266
 40
0.5305158913276266
 40
0.5333477668188309
 40
0.5333477668188309
 40
0.5333477668188309
 40
0.5340728405380575
 40
0.5340728405380575
 40
0.5340728405380575
 40
0.534797914257284
 40
0.534797914257284
 40
0.534797914257284
 40
0.5348833276672402
 40
0.5348833276672402
 40
0.5348833276672402
 40
0.535452339724187
 40
0.535452339724187
 40
0.535452339724187
 40
0.536021351781134
 40
0.536021351781134
 40
0.536021351781134
 40
0.5395319920705767
 40
0.5395319920705767
 40
0.5395319920705767
 40
0.5451970615119163
 40
0.5451970615119163
 40
0.5451970615119163
 40
0.5544742740615897
 40
0.5544742740615897
 40
0.5544742740615897
 40
0.5646970462505885
 40
0.5646970462505885
 40
0.5646970462505885
 40
0.6027996768527609
 40
0.6027996768527609
 40
0.6027996768527609
 40
0.6306803035559477
 40
0.6306803035559477
 40
0.6306803035559477
 40
0.6892289852952114
 40
0.6892289852952114
 40
0.6892289852952114
 40
0.7180419190066957
 40
0.7180419190066957
 40
0.7180419190066957
 40
0.7505738073867191
 40
0.7505738073867191
 40
0.7505738073867191
 40
0.7821833766682176
 40
0.7821833766682176
 40
0.7821833766682176
 40
0.8072889264879625
 40
0.8072889264879625
 40
0.8072889264879625
 40
0.8379715015272021
 40
0.8379715015272021
 40
0.8379715015272021
 40
0.8742305091541338
 40
0.8742305091541338
 40
0.8742305091541338
 40
0.9067719920367062
 40
0.9067719920367062
 40
0.9067719920367062
 40
0.9402428016032706
 40
0.9402428016032706
 40
0.9402428016032706
 40
0.968135107554078
 40
0.968135107554078
 40
0.968135107554078
 40
0.9811515169968319
 40
0.9811515169968319
 40
0.9811515169968319
 40
0.9904490147600183
 40
0.9904490147600183
 40
0.9904490147600183
 40
1.0
 40
1.0
 40
1.0
 40
1.0
 10
281.5000001
 20
157.79999989999996
 30
0.0
 10
281.49922335708055
 20
157.78253897946675
 30
0.0
 10
281.4982387380956
 20
157.78337064065062
 30
0.0
 10
281.4970462430445
 20
157.80249488355145
 30
0.0
 10
281.4915725185305
 20
157.90183748121765
 30
0.0
 10
281.48732119297586
 20
158.02894755142285
 30
0.0
 10
281.4760067400334
 20
158.12774584136415
 30
0.0
 10
281.4651453512432
 20
158.2292997052175
 30
0.0
 10
281.4470078994231
 20
158.30383524629096
 30
0.0
 10
281.42569721287634
 20
158.37319304854722
 30
0.0
 10
281.37634741165044
 20
158.5378926487533
 30
0.0
 10
281.31503923091594
 20
158.7994865920734
 30
0.0
 10
281.24179485803177
 20
159.04892810118173
 30
0.0
 10
281.13223241502993
 20
159.424637914928
 30
0.0
 10
280.9863711261541
 20
159.75961769538668
 30
0.0
 10
280.8202587877121
 20
160.09254067092857
 30
0.0
 10
280.65561569305055
 20
160.42612463542812
 30
0.0
 10
280.4697795694594
 20
160.75172223808013
 30
0.0
 10
280.26275041693873
 20
161.06933347888432
 30
0.0
 10
279.83138928855556
 20
161.72433358832734
 30
0.0
 10
279.30971884883024
 20
162.31533262751765
 30
0.0
 10
278.7156641817703
 20
162.82795266523814
 30
0.0
 10
277.88994133440707
 20
163.53984556358938
 30
0.0
 10
276.91756739620763
 20
164.0829265271634
 30
0.0
 10
275.87269169302897
 20
164.3977429922026
 30
0.0
 10
275.0243738581503
 20
164.6543960526751
 30
0.0
 10
274.1311499438189
 20
164.75997372191406
 30
0.0
 10
273.2462672815007
 20
164.71209751043563
 30
0.0
 10
271.09706061196783
 20
164.60053831091014
 30
0.0
 10
269.0269277180288
 20
163.58531371079394
 30
0.0
 10
267.5770561385056
 20
162.00285797459895
 30
0.0
 10
266.9084264408179
 20
161.27546715301972
 30
0.0
 10
266.3687074125733
 20
160.4270923395009
 30
0.0
 10
266.00992769032683
 20
159.5054208098439
 30
0.0
 10
265.6870720758202
 20
158.67983276907466
 30
0.0
 10
265.51322883497727
 20
157.796313930227
 30
0.0
 10
265.50081065699635
 20
156.90983424666044
 30
0.0
 10
265.48613460652524
 20
155.9547261149699
 30
0.0
 10
265.6590114335559
 20
155.0008535628773
 30
0.0
 10
265.9745734842272
 20
154.1012753773783
 30
0.0
 10
266.31183875052494
 20
153.13516066503985
 30
0.0
 10
266.80640762806644
 20
152.2305970442665
 30
0.0
 10
267.38509482672464
 20
151.38988684351983
 30
0.0
 10
268.0810596018733
 20
150.38020146881703
 30
0.0
 10
268.8963793716061
 20
149.4586185853385
 30
0.0
 10
269.7587963702524
 20
148.5893248182796
 30
0.0
 10
270.4301722935631
 20
147.91317082344614
 30
0.0
 10
271.13214729738564
 20
147.26814058193023
 30
0.0
 10
271.84581601190325
 20
146.6371472495684
 30
0.0
 10
273.4266129756026
 20
145.24029177635964
 30
0.0
 10
275.067498656709
 20
143.91262779187835
 30
0.0
 10
276.62711769095864
 20
142.49157294108127
 30
0.0
 10
277.33089981526075
 20
141.84957035107126
 30
0.0
 10
278.0184561598532
 20
141.1891325375234
 30
0.0
 10
278.6672165720422
 20
140.4907358440373
 30
0.0
 10
279.2225506815488
 20
139.8911281227773
 30
0.0
 10
279.7509332345397
 20
139.2682768856549
 30
0.0
 10
280.22072811517955
 20
138.5987416482859
 30
0.0
 10
280.35784108398525
 20
138.40288069194375
 30
0.0
 10
280.4889754456474
 20
138.20313435299477
 30
0.0
 10
280.6141312001662
 20
137.9995026314388
 30
0.0
 10
280.8099988945542
 20
137.67828100943075
 30
0.0
 10
280.9909705685559
 20
137.36017623584232
 30
0.0
 10
281.14383829855575
 20
137.01876334867822
 30
0.0
 10
281.21782429996483
 20
136.8502147072439
 30
0.0
 10
281.29087603634434
 20
136.64988609687293
 30
0.0
 10
281.3477740276306
 20
136.4750060113597
 30
0.0
 10
281.3767461192033
 20
136.38770108004599
 30
0.0
 10
281.40359992441654
 20
136.30494582308756
 30
0.0
 10
281.4283354432701
 20
136.22674024048428
 30
0.0
 10
281.4527775412424
 20
136.14614202449835
 30
0.0
 10
281.47471116977084
 20
136.0683323005605
 30
0.0
 10
281.4860020380372
 20
135.94721696087655
 30
0.0
 10
281.4889014002438
 20
135.91650047797785
 30
0.0
 10
281.4911346752266
 20
135.89743481381558
 30
0.0
 10
281.49314827098704
 20
135.86918315093533
 30
0.0
 10
281.4951875281318
 20
135.84314341996657
 30
0.0
 10
281.4970255357316
 20
135.80490288980963
 30
0.0
 10
281.499798635544
 20
135.80012757116353
 30
0.0
 10
281.50012529861976
 20
135.80054944268772
 30
0.0
 10
281.5004519616959
 20
135.80097131421186
 30
0.0
 10
281.5007786247717
 20
135.80139318573606
 30
0.0
 10
281.5028970044943
 20
135.8099303613508
 30
0.0
 10
281.5044060764723
 20
135.83470988799905
 30
0.0
 10
281.5060135220638
 20
135.8563916284861
 30
0.0
 10
281.5077534047702
 20
135.87840112408574
 30
0.0
 10
281.50949328747674
 20
135.90041061968543
 30
0.0
 10
281.5112331701832
 20
135.92242011528504
 30
0.0
 10
281.5222367267888
 20
136.0661030043651
 30
0.0
 10
281.55117616911053
 20
136.16802993141553
 30
0.0
 10
281.5864571329482
 20
136.27317059789485
 30
0.0
 10
281.64188272176693
 20
136.44540075770348
 30
0.0
 10
281.7101021449997
 20
136.6579120326266
 30
0.0
 10
281.7879754675447
 20
136.85396123123306
 30
0.0
 10
281.9154567211278
 20
137.17510849078292
 30
0.0
 10
282.0743281045813
 20
137.46989697069722
 30
0.0
 10
282.24472679675205
 20
137.76371511537187
 30
0.0
 10
282.4336256242939
 20
138.08757000228331
 30
0.0
 10
282.63748906335474
 20
138.40220763730537
 30
0.0
 10
282.85631711393484
 20
138.70762802043797
 30
0.0
 10
283.6730146137659
 20
139.84037195745378
 30
0.0
 10
284.64082904892445
 20
140.85425511725015
 30
0.0
 10
285.64858727219666
 20
141.81721292000168
 30
0.0
 10
286.3877385018522
 20
142.52127319767263
 30
0.0
 10
287.15340750033545
 20
143.19691175809007
 30
0.0
 10
287.9264007793124
 20
143.86339864953842
 30
0.0
 10
289.54894336564666
 20
145.26333224294194
 30
0.0
 10
291.21145250653797
 20
146.62008640410863
 30
0.0
 10
292.75459813960254
 20
148.1093700911685
 30
0.0
 10
293.5125933614657
 20
148.8426802789031
 30
0.0
 10
294.24100652702026
 20
149.60886656322356
 30
0.0
 10
294.9011837458464
 20
150.43240737910853
 30
0.0
 10
295.64526904936366
 20
151.36123159099154
 30
0.0
 10
296.3047650683539
 20
152.36745357864544
 30
0.0
 10
296.77693496079445
 20
153.46367659602353
 30
0.0
 10
297.2361832001114
 20
154.52594158687364
 30
0.0
 10
297.50745672164885
 20
155.67793196551702
 30
0.0
 10
297.49989952746785
 20
156.8387216624353
 30
0.0
 10
297.495847973793
 20
157.75937766477153
 30
0.0
 10
297.31755790900934
 20
158.67848262241225
 30
0.0
 10
296.9787010496442
 20
159.53442599697036
 30
0.0
 10
296.56612284572196
 20
160.58171957656248
 30
0.0
 10
295.9200269439596
 20
161.53239073813808
 30
0.0
 10
295.1168267820842
 20
162.31899700665298
 30
0.0
 10
294.16778475382426
 20
163.2494325789895
 30
0.0
 10
292.9983715816051
 20
163.9548667386339
 30
0.0
 10
291.7298583273734
 20
164.35283864676168
 30
0.0
 10
290.5924514595881
 20
164.71113220724922
 30
0.0
 10
289.373446623696
 20
164.8168239878747
 30
0.0
 10
288.1932949488966
 20
164.63765348046635
 30
0.0
 10
286.97898312289163
 20
164.45668238524837
 30
0.0
 10
285.8140971789563
 20
163.97203976910774
 30
0.0
 10
284.82135379496185
 20
163.25192862741991
 30
0.0
 10
283.992638040616
 20
162.65307469548594
 30
0.0
 10
283.2805994517985
 20
161.89678673557776
 30
0.0
 10
282.72012499968884
 20
161.04302741362076
 30
0.0
 10
282.45777764911367
 20
160.64369786626912
 30
0.0
 10
282.23032019559565
 20
160.22539669462628
 30
0.0
 10
282.037752639134
 20
159.78812389869216
 30
0.0
 10
281.9000684840231
 20
159.4761086336535
 30
0.0
 10
281.78408519653004
 20
159.15635902043203
 30
0.0
 10
281.6898027766555
 20
158.82887505902758
 30
0.0
 10
281.59634272719586
 20
158.49281051127312
 30
0.0
 10
281.5151846501728
 20
158.1496174252769
 30
0.0
 10
281.5000000999999
 20
157.79999989999996
 30
0.0
  0
SPLINE
  5
36
330
17
100
AcDbEntity
  8
CUT
100
AcDbSpline
 70
0
 71
3
 72
149
 73
145
 74
0
 40
0.0
 40
0.0
 40
0.0
 40
0.0
 40
0.0006592971875330048
 40
0.0006592971875330048
 40
0.0006592971875330048
 40
0.003992575905038202
 40
0.003992575905038202
 40
0.003992575905038202
 40
0.0073258546225434
 40
0.0073258546225434
 40
0.0073258546225434
 40
0.015208620908391004
 40
0.015208620908391004
 40
0.015208620908391004
 40
0.02708216625200388
 40
0.02708216625200388
 40
0.02708216625200388
 40
0.03884848088549769
 40
0.03884848088549769
 40
0.03884848088549769
 40
0.06338999422355973
 40
0.06338999422355973
 40
0.06338999422355973
 40
0.09752536179770137
 40
0.09752536179770137
 40
0.09752536179770137
 40
0.12526075316899946
 40
0.12526075316899946
 40
0.12526075316899946
 40
0.1924627915936608
 40
0.1924627915936608
 40
0.1924627915936608
 40
0.2233969207060981
 40
0.2233969207060981
 40
0.2233969207060981
 40
0.25113212517804345
 40
0.25113212517804345
 40
0.25113212517804345
 40
0.2809999818839667
 40
0.2809999818839667
 40
0.2809999818839667
 40
0.31300162591086683
 40
0.31300162591086683
 40
0.31300162591086683
 40
0.351399670917311
 40
0.351399670917311
 40
0.351399670917311
 40
0.3812600634013022
 40
0.3812600634013022
 40
0.3812600634013022
 40
0.44737689657618346
 40
0.44737689657618346
 40
0.44737689657618346
 40
0.47723658458306256
 40
0.47723658458306256
 40
0.47723658458306256
 40
0.5028305714743141
 40
0.5028305714743141
 40
0.5028305714743141
 40
0.5102954842922897
 40
0.5102954842922897
 40
0.5102954842922897
 40
0.5220202648360018
 40
0.5220202648360018
 40
0.5220202648360018
 40
0.5276840158185006
 40
0.5276840158185006
 40
0.5276840158185006
 40
0.53051589130975
 40
0.53051589130975
 40
0.53051589130975
 40
0.5333477668009994
 40
0.5333477668009994
 40
0.5333477668009994
 40
0.5340728405201869
 40
0.5340728405201869
 40
0.5340728405201869
 40
0.5347979142393743
 40
0.5347979142393743
 40
0.5347979142393743
 40
0.5348833276493075
 40
0.5348833276493075
 40
0.5348833276493075
 40
0.5354523397063038
 40
0.5354523397063038
 40
0.5354523397063038
 40
0.5360213517633002
 40
0.5360213517633002
 40
0.5360213517633002
 40
0.5395319920531108
 40
0.5395319920531108
 40
0.5395319920531108
 40
0.5451970614949924
 40
0.5451970614949924
 40
0.5451970614949924
 40
0.5544742740455427
 40
0.5544742740455427
 40
0.5544742740455427
 40
0.5646970462351446
 40
0.5646970462351446
 40
0.5646970462351446
 40
0.6027996768405
 40
0.6027996768405
 40
0.6027996768405
 40
0.6306803035463704
 40
0.6306803035463704
 40
0.6306803035463704
 40
0.689228985290397
 40
0.689228985290397
 40
0.689228985290397
 40
0.7180419190045277
 40
0.7180419190045277
 40
0.7180419190045277
 40
0.7505738073855531
 40
0.7505738073855531
 40
0.7505738073855531
 40
0.7821833766663123
 40
0.7821833766663123
 40
0.7821833766663123
 40
0.807288926485484
 40
0.807288926485484
 40
0.807288926485484
 40
0.8379715015238351
 40
0.8379715015238351
 40
0.8379715015238351
 40
0.8742305091502132
 40
0.8742305091502132
 40
0.8742305091502132
 40
0.906771992032901
 40
0.906771992032901
 40
0.906771992032901
 40
0.9402428016003054
 40
0.9402428016003054
 40
0.9402428016003054
 40
0.9681351075524587
 40
0.9681351075524587
 40
0.9681351075524587
 40
0.9811515169958432
 40
0.9811515169958432
 40
0.9811515169958432
 40
0.9904490147594858
 40
0.9904490147594858
 40
0.9904490147594858
 40
1.0
 40
1.0
 40
1.0
 40
1.0
 10
281.5000001
 20
212.7999999
 30
0.0
 10
281.49922335708095
 20
212.78253897946612
 30
0.0
 10
281.498238738096
 20
212.78337064064965
 30
0.0
 10
281.4970462430445
 20
212.80249488355054
 30
0.0
 10
281.49157251853035
 20
212.90183748121515
 30
0.0
 10
281.487321192976
 20
213.0289475514193
 30
0.0
 10
281.4760067400341
 20
213.12774584136008
 30
0.0
 10
281.4651453512434
 20
213.2292997052127
 30
0.0
 10
281.4470078994244
 20
213.3038352462867
 30
0.0
 10
281.42569721287794
 20
213.37319304854168
 30
0.0
 10
281.3763474116531
 20
213.53789264874567
 30
0.0
 10
281.31503923091674
 20
213.7994865920667
 30
0.0
 10
281.2417948580353
 20
214.04892810117138
 30
0.0
 10
281.1322324150304
 20
214.42463791492438
 30
0.0
 10
280.98637112616046
 20
214.75961769537452
 30
0.0
 10
280.820258787712
 20
215.09254067092763
 30
0.0
 10
280.6556156930525
 20
215.4261246354235
 30
0.0
 10
280.4697795694644
 20
215.75172223807164
 30
0.0
 10
280.26275041694754
 20
216.06933347887164
 30
0.0
 10
279.83138928856806
 20
216.72433358830835
 30
0.0
 10
279.309718848867
 20
217.31533262748127
 30
0.0
 10
278.7156641817759
 20
217.82795266523314
 30
0.0
 10
277.8899413346143
 20
218.5398455634182
 30
0.0
 10
276.91756739640965
 20
219.08292652710352
 30
0.0
 10
275.87269169303624
 20
219.39774299220036
 30
0.0
 10
275.02437385815546
 20
219.65439605267323
 30
0.0
 10
274.13114994382835
 20
219.75997372191523
 30
0.0
 10
273.24626728150565
 20
219.71209751043466
 30
0.0
 10
271.0970606119319
 20
219.60053831088038
 30
0.0
 10
269.0269277181462
 20
218.58531371087525
 30
0.0
 10
267.5770561385093
 20
217.00285797460347
 30
0.0
 10
266.9084264408288
 20
216.27546715303075
 30
0.0
 10
266.36870741258656
 20
215.42709233952908
 30
0.0
 10
266.00992769032996
 20
214.50542080985136
 30
0.0
 10
265.68707207582173
 20
213.679832769082
 30
0.0
 10
265.5132288349786
 20
212.79631393023516
 30
0.0
 10
265.50081065699635
 20
211.9098342466681
 30
0.0
 10
265.4861346065237
 20
210.95472611506128
 30
0.0
 10
265.6590114335321
 20
210.00085356293965
 30
0.0
 10
265.9745734842247
 20
209.10127537738546
 30
0.0
 10
266.3118387505136
 20
208.13516066507202
 30
0.0
 10
266.80640762803176
 20
207.2305970443201
 30
0.0
 10
267.3850948267211
 20
206.38988684352447
 30
0.0
 10
268.08105960186776
 20
205.38020146882567
 30
0.0
 10
268.89637937159324
 20
204.45861858535142
 30
0.0
 10
269.7587963702462
 20
203.5893248182861
 30
0.0
 10
270.4301722936207
 20
202.91317082338674
 30
0.0
 10
271.1321472974827
 20
202.26814058184567
 30
0.0
 10
271.84581601188904
 20
201.63714724957998
 30
0.0
 10
273.4266129756193
 20
200.24029177634534
 30
0.0
 10
275.0674986566987
 20
198.9126277918872
 30
0.0
 10
276.6271176909536
 20
197.49157294108593
 30
0.0
 10
277.33089981524824
 20
196.84957035108306
 30
0.0
 10
278.01845615984377
 20
196.18913253753306
 30
0.0
 10
278.66721657203703
 20
195.49073584404286
 30
0.0
 10
279.22255068154425
 20
194.89112812278287
 30
0.0
 10
279.7509332345351
 20
194.26827688566053
 30
0.0
 10
280.2207281151751
 20
193.5987416482921
 30
0.0
 10
280.35784108398127
 20
193.40288069194995
 30
0.0
 10
280.48897544564335
 20
193.20313435300108
 30
0.0
 10
280.61413120016164
 20
192.99950263144567
 30
0.0
 10
280.80999889455137
 20
192.6782810094372
 30
0.0
 10
280.9909705685514
 20
192.36017623584826
 30
0.0
 10
281.14383829855353
 20
192.0187633486861
 30
0.0
 10
281.2178242999619
 20
191.85021470725096
 30
0.0
 10
281.29087603634224
 20
191.6498860968809
 30
0.0
 10
281.34777402762796
 20
191.47500601136693
 30
0.0
 10
281.3767461192011
 20
191.38770108005295
 30
0.0
 10
281.4035999244142
 20
191.30494582309396
 30
0.0
 10
281.42833544326817
 20
191.2267402404907
 30
0.0
 10
281.4527775412416
 20
191.14614202450474
 30
0.0
 10
281.47471116976845
 20
191.06833230056807
 30
0.0
 10
281.4860020380359
 20
190.94721696088703
 30
0.0
 10
281.4889014002424
 20
190.91650047799084
 30
0.0
 10
281.4911346752263
 20
190.89743481382433
 30
0.0
 10
281.49314827098664
 20
190.8691831509431
 30
0.0
 10
281.4951875281314
 20
190.84314341997248
 30
0.0
 10
281.4970255357311
 20
190.80490288981724
 30
0.0
 10
281.4997986355435
 20
190.8001275711641
 30
0.0
 10
281.5001252986193
 20
190.80054944268724
 30
0.0
 10
281.50045196169515
 20
190.80097131421067
 30
0.0
 10
281.50077862477104
 20
190.80139318573387
 30
0.0
 10
281.50289700449395
 20
190.80993036134413
 30
0.0
 10
281.50440607647187
 20
190.83470988799215
 30
0.0
 10
281.50601352206326
 20
190.856391628478
 30
0.0
 10
281.5077534047697
 20
190.87840112407673
 30
0.0
 10
281.50949328747583
 20
190.9004106196754
 30
0.0
 10
281.5112331701822
 20
190.9224201152741
 30
0.0
 10
281.52223672678707
 20
191.06610300435693
 30
0.0
 10
281.55117616910843
 20
191.16802993140894
 30
0.0
 10
281.58645713294624
 20
191.27317059788854
 30
0.0
 10
281.6418827217648
 20
191.44540075769592
 30
0.0
 10
281.71010214499705
 20
191.65791203261898
 30
0.0
 10
281.78797546754186
 20
191.85396123122578
 30
0.0
 10
281.91545672112443
 20
192.1751084907767
 30
0.0
 10
282.07432810457703
 20
192.4698969706891
 30
0.0
 10
282.2447267967489
 20
192.76371511536735
 30
0.0
 10
282.4336256242901
 20
193.08757000227732
 30
0.0
 10
282.63748906335013
 20
193.40220763729832
 30
0.0
 10
282.85631711392955
 20
193.70762802043032
 30
0.0
 10
283.6730146137621
 20
194.84037195744975
 30
0.0
 10
284.6408290489173
 20
195.85425511724335
 30
0.0
 10
285.64858727219234
 20
196.8172129199966
 30
0.0
 10
286.38773850185055
 20
197.52127319767172
 30
0.0
 10
287.15340750033545
 20
198.19691175809052
 30
0.0
 10
287.92640077930685
 20
198.8633986495327
 30
0.0
 10
289.54894336563206
 20
200.2633322429327
 30
0.0
 10
291.21145250656554
 20
201.62008640412742
 30
0.0
 10
292.7545981395856
 20
203.10937009115835
 30
0.0
 10
293.5125933614489
 20
203.84268027887907
 30
0.0
 10
294.24100652699775
 20
204.6088665632015
 30
0.0
 10
294.90118374584165
 20
205.4324073791026
 30
0.0
 10
295.64526904931296
 20
206.36123159093052
 30
0.0
 10
296.30476506831286
 20
207.36745357856003
 30
0.0
 10
296.77693496079127
 20
208.46367659601654
 30
0.0
 10
297.23618320010934
 20
209.5259415868669
 30
0.0
 10
297.50745672164777
 20
210.6779319655098
 30
0.0
 10
297.49989952746785
 20
211.83872166242773
 30
0.0
 10
297.4958479737939
 20
212.75937766476451
 30
0.0
 10
297.31755790901093
 20
213.67848262240366
 30
0.0
 10
296.9787010496471
 20
214.5344259969641
 30
0.0
 10
296.5661228457224
 20
215.5817195765612
 30
0.0
 10
295.9200269439629
 20
216.53239073813296
 30
0.0
 10
295.1168267820901
 20
217.31899700664772
 30
0.0
 10
294.16778475381415
 20
218.24943257900037
 30
0.0
 10
292.99837158158533
 20
218.9548667386398
 30
0.0
 10
291.7298583273808
 20
219.35283864675947
 30
0.0
 10
290.59245145959477
 20
219.71113220724814
 30
0.0
 10
289.3734466237033
 20
219.81682398787444
 30
0.0
 10
288.19329494890434
 20
219.63765348046755
 30
0.0
 10
286.97898312286816
 20
219.45668238524573
 30
0.0
 10
285.8140971789298
 20
218.97203976908827
 30
0.0
 10
284.82135379496793
 20
218.25192862742435
 30
0.0
 10
283.9926380406211
 20
217.6530746954912
 30
0.0
 10
283.28059945180377
 20
216.89678673558356
 30
0.0
 10
282.7201249996929
 20
216.04302741362713
 30
0.0
 10
282.45777764911753
 20
215.64369786627572
 30
0.0
 10
282.2303201955989
 20
215.2253966946332
 30
0.0
 10
282.0377526391369
 20
214.78812389869896
 30
0.0
 10
281.9000684840257
 20
214.47610863366077
 30
0.0
 10
281.78408519653277
 20
214.15635902043934
 30
0.0
 10
281.68980277665764
 20
213.8288750590342
 30
0.0
 10
281.5963427271973
 20
213.4928105112788
 30
0.0
 10
281.51518465017244
 20
213.14961742527908
 30
0.0
 10
281.50000009999997
 20
212.79999989999996
 30
0.0
  0
SPLINE
  5
37
330
17
100
AcDbEntity
  8
CUT
100
AcDbSpline
 70
0
 71
3
 72
125
 73
121
 74
0
 40
0.0
 40
0.0
 40
0.0
 40
0.0
 40
0.0005266961194700504
 40
0.0005266961194700504
 40
0.0005266961194700504
 40
0.0035251994890675557
 40
0.0035251994890675557
 40
0.0035251994890675557
 40
0.006523702858665061
 40
0.006523702858665061
 40
0.006523702858665061
 40
0.014283897336932982
 40
0.014283897336932982
 40
0.014283897336932982
 40
0.026623476949731967
 40
0.026623476949731967
 40
0.026623476949731967
 40
0.059160701962774766
 40
0.059160701962774766
 40
0.059160701962774766
 40
0.11754254062469854
 40
0.11754254062469854
 40
0.11754254062469854
 40
0.18041838715406724
 40
0.18041838715406724
 40
0.18041838715406724
 40
0.24554180869143075
 40
0.24554180869143075
 40
0.24554180869143075
 40
0.27024556134305944
 40
0.27024556134305944
 40
0.27024556134305944
 40
0.3016855113681446
 40
0.3016855113681446
 40
0.3016855113681446
 40
0.3679185532320098
 40
0.3679185532320098
 40
0.3679185532320098
 40
0.4924989033604886
 40
0.4924989033604886
 40
0.4924989033604886
 40
0.5183119106475622
 40
0.5183119106475622
 40
0.5183119106475622
 40
0.5351398745632832
 40
0.5351398745632832
 40
0.5351398745632832
 40
0.54747890588121
 40
0.54747890588121
 40
0.54747890588121
 40
0.553499538487448
 40
0.553499538487448
 40
0.553499538487448
 40
0.5595201710936861
 40
0.5595201710936861
 40
0.5595201710936861
 40
0.5604986129360542
 40
0.5604986129360542
 40
0.5604986129360542
 40
0.5614770547784222
 40
0.5614770547784222
 40
0.5614770547784222
 40
0.5615987239138643
 40
0.5615987239138643
 40
0.5615987239138643
 40
0.5629050960527859
 40
0.5629050960527859
 40
0.5629050960527859
 40
0.5642114681917074
 40
0.5642114681917074
 40
0.5642114681917074
 40
0.5668242124695506
 40
0.5668242124695506
 40
0.5668242124695506
 40
0.5721496808013546
 40
0.5721496808013546
 40
0.5721496808013546
 40
0.5808755847721009
 40
0.5808755847721009
 40
0.5808755847721009
 40
0.6123483344903824
 40
0.6123483344903824
 40
0.6123483344903824
 40
0.6735472353897729
 40
0.6735472353897729
 40
0.6735472353897729
 40
0.7102663842609386
 40
0.7102663842609386
 40
0.7102663842609386
 40
0.744366749001435
 40
0.744366749001435
 40
0.744366749001435
 40
0.7767242811539731
 40
0.7767242811539731
 40
0.7767242811539731
 40
0.8090881676949678
 40
0.8090881676949678
 40
0.8090881676949678
 40
0.8362042590842026
 40
0.8362042590842026
 40
0.8362042590842026
 40
0.8746886189572093
 40
0.8746886189572093
 40
0.8746886189572093
 40
0.9035525546120781
 40
0.9035525546120781
 40
0.9035525546120781
 40
0.9359150777440138
 40
0.9359150777440138
 40
0.9359150777440138
 40
0.9700264298535858
 40
0.9700264298535858
 40
0.9700264298535858
 40
0.9822715623700592
 40
0.9822715623700592
 40
0.9822715623700592
 40
0.9910182339325238
 40
0.9910182339325238
 40
0.9910182339325238
 40
1.0
 40
1.0
 40
1.0
 40
1.0
 10
310.0000001
 20
57.152941076470555
 30
0.0
 10
309.99962974425176
 20
57.14494093659765
 30
0.0
 10
309.99916990127366
 20
57.14518189174109
 30
0.0
 10
309.9986205710648
 20
57.15366394190082
 30
0.0
 10
309.99619295898316
 20
57.197424026668514
 30
0.0
 10
309.99405339050327
 20
57.261701280945104
 30
0.0
 10
309.9887084560351
 20
57.30676939064749
 30
0.0
 10
309.9832933416531
 20
57.35328583566262
 30
0.0
 10
309.97532472245314
 20
57.392261884763656
 30
0.0
 10
309.96480259843435
 20
57.42369753795061
 30
0.0
 10
309.9386502278673
 20
57.512490631697986
 30
0.0
 10
309.9109173461014
 20
57.63055970974383
 30
0.0
 10
309.87849211002026
 20
57.740596625380135
 30
0.0
 10
309.8269314655203
 20
57.917547017689344
 30
0.0
 10
309.75829314847033
 20
58.075070759247964
 30
0.0
 10
309.6801229954116
 20
58.23180212921137
 30
0.0
 10
309.47520760516477
 20
58.64971655374272
 30
0.0
 10
309.2003841341931
 20
59.03454623720064
 30
0.0
 10
308.86711112553877
 20
59.35665279075379
 30
0.0
 10
308.2723187854389
 20
59.94090033645014
 30
0.0
 10
307.4772361735039
 20
60.32230960167425
 30
0.0
 10
306.64462332693466
 20
60.39563505311828
 30
0.0
 10
305.74818069131334
 20
60.48036360291162
 30
0.0
 10
304.8323815699133
 20
60.21627505494235
 30
0.0
 10
304.09847191370466
 20
59.69995222250026
 30
0.0
 10
303.336382783514
 20
59.169003730672046
 30
0.0
 10
302.7589459375135
 20
58.36103610738057
 30
0.0
 10
302.5557580263364
 20
57.449734744172716
 30
0.0
 10
302.4781495040298
 20
57.10267887940479
 30
0.0
 10
302.4535767856086
 20
56.751928966599564
 30
0.0
 10
302.4820398710727
 20
56.39748500575704
 30
0.0
 10
302.51741555763584
 20
55.949172856181846
 30
0.0
 10
302.6377708869522
 20
55.51035734982706
 30
0.0
 10
302.81666421249537
 20
55.09886990208091
 30
0.0
 10
303.196757356361
 20
54.228670308061744
 30
0.0
 10
303.81234706292804
 20
53.487660102063536
 30
0.0
 10
304.47472787687906
 20
52.81850575780914
 30
0.0
 10
305.73037612829916
 20
51.55844607639372
 30
0.0
 10
307.186749175024
 20
50.51892109448031
 30
0.0
 10
308.4347002202287
 20
49.2506958183057
 30
0.0
 10
308.6939000871015
 20
48.988395328430244
 30
0.0
 10
308.9384215527763
 20
48.71323201920889
 30
0.0
 10
309.16826461725253
 20
48.4252058906416
 30
0.0
 10
309.31784041337664
 20
48.23722047509384
 30
0.0
 10
309.4561269973144
 20
48.04051456653867
 30
0.0
 10
309.58312436906556
 20
47.835088164976064
 30
0.0
 10
309.6752773337566
 20
47.68359856244868
 30
0.0
 10
309.760492214821
 20
47.53488668870187
 30
0.0
 10
309.8323518567093
 20
47.372708889729026
 30
0.0
 10
309.8676459179163
 20
47.29264764565578
 30
0.0
 10
309.90137777027314
 20
47.20113284951667
 30
0.0
 10
309.9282351305395
 20
47.11786391669527
 30
0.0
 10
309.9548869198896
 20
47.030581058143845
 30
0.0
 10
309.98204787194476
 20
46.97599707590042
 30
0.0
 10
309.9933916905936
 20
46.87268801732926
 30
0.0
 10
309.9949741244216
 20
46.85782980814601
 30
0.0
 10
309.99610072842916
 20
46.84437544578004
 30
0.0
 10
309.9967715026169
 20
46.83232493023139
 30
0.0
 10
309.9976122105276
 20
46.819408013932545
 30
0.0
 10
309.99863842687506
 20
46.801775575097636
 30
0.0
 10
309.9999051486819
 20
46.800043767979105
 30
0.0
 10
310.0000589570525
 20
46.800241176516785
 30
0.0
 10
310.00021276542356
 20
46.80043858505445
 30
0.0
 10
310.00036657379405
 20
46.80063599359212
 30
0.0
 10
310.001926389679
 20
46.80682638595305
 30
0.0
 10
310.0029811339939
 20
46.8331074119569
 30
0.0
 10
310.00505233993084
 20
46.85605373505534
 30
0.0
 10
310.0070985007353
 20
46.880130357899965
 30
0.0
 10
310.0098638329261
 20
46.901809686493564
 30
0.0
 10
310.0133483365034
 20
46.921091720836124
 30
0.0
 10
310.0205476345252
 20
46.960104239300236
 30
0.0
 10
310.02826920853494
 20
46.98460249604995
 30
0.0
 10
310.040684163733
 20
47.022747403069914
 30
0.0
 10
310.0667655194106
 20
47.10366179729964
 30
0.0
 10
310.0988747895313
 20
47.20375077790766
 30
0.0
 10
310.13551970709875
 20
47.29595982897291
 30
0.0
 10
310.19706655819436
 20
47.4451229933451
 30
0.0
 10
310.2687135140796
 20
47.587834474253526
 30
0.0
 10
310.3504605747539
 20
47.72409427169816
 30
0.0
 10
310.64125295517107
 20
48.22462539718242
 30
0.0
 10
311.0140334862061
 20
48.66904897091003
 30
0.0
 10
311.40881483954047
 20
49.08820325344814
 30
0.0
 10
312.18165596401803
 20
49.90150118547397
 30
0.0
 10
313.0501828493476
 20
50.61447623557376
 30
0.0
 10
313.90081428917046
 20
51.34317943676723
 30
0.0
 10
314.4117867898659
 20
51.78018106950017
 30
0.0
 10
314.91975199541935
 20
52.221661886104684
 30
0.0
 10
315.39945531287856
 20
52.69326554154895
 30
0.0
 10
315.8441340448522
 20
53.13124330479111
 30
0.0
 10
316.2659250162877
 20
53.5958628118361
 30
0.0
 10
316.62329308774457
 20
54.108933138019886
 30
0.0
 10
316.96140722943045
 20
54.59477842924555
 30
0.0
 10
317.2407083396299
 20
55.12829177329178
 30
0.0
 10
317.39590156928523
 20
55.70198004424283
 30
0.0
 10
317.5525760503263
 20
56.27394483098196
 30
0.0
 10
317.5755963337526
 20
56.885028426319465
 30
0.0
 10
317.4409911892439
 20
57.46402983131648
 30
0.0
 10
317.32990317425947
 20
57.949098621467826
 30
0.0
 10
317.1133310925629
 20
58.40829401017824
 30
0.0
 10
316.8179829423829
 20
58.808100655213465
 30
0.0
 10
316.3990151113268
 20
59.37628791797749
 30
0.0
 10
315.82428989104875
 20
59.82715655261491
 30
0.0
 10
315.17500671791515
 20
60.103447747360434
 30
0.0
 10
314.6883124736517
 20
60.31099530616359
 30
0.0
 10
314.1584679476114
 20
60.41943030559749
 30
0.0
 10
313.6289537473996
 20
60.41043634353603
 30
0.0
 10
313.03535674765413
 20
60.401838084776564
 30
0.0
 10
312.44512612765465
 20
60.24197090004983
 30
0.0
 10
311.92768501368005
 20
59.95138086140018
 30
0.0
 10
311.3811921793847
 20
59.64619402856866
 30
0.0
 10
310.91673257380234
 20
59.20135560528765
 30
0.0
 10
310.5741765111618
 20
58.67907168253055
 30
0.0
 10
310.45071869953466
 20
58.49115064440665
 30
0.0
 10
310.3436798679318
 20
58.29430303348768
 30
0.0
 10
310.253060016354
 20
58.08852884977368
 30
0.0
 10
310.1882782747463
 20
57.941698189172904
 30
0.0
 10
310.1336892382593
 20
57.791227726987614
 30
0.0
 10
310.089292906893
 20
57.637117463217805
 30
0.0
 10
310.0453584285458
 20
57.47896494304915
 30
0.0
 10
310.0071371125967
 20
57.31747224565701
 30
0.0
 10
310.0000001
 20
57.152941076470555
 30
0.0
  0
SPLINE
  5
38
330
17
100
AcDbEntity
  8
CUT
100
AcDbSpline
 70
0
 71
3
 72
125
 73
121
 74
0
 40
0.0
 40
0.0
 40
0.0
 40
0.0
 40
0.0005266961195393013
 40
0.0005266961195393013
 40
0.0005266961195393013
 40
0.003525199489615257
 40
0.003525199489615257
 40
0.003525199489615257
 40
0.0065237028596912125
 40
0.0065237028596912125
 40
0.0065237028596912125
 40
0.014283897339265888
 40
0.014283897339265888
 40
0.014283897339265888
 40
0.026623476954016095
 40
0.026623476954016095
 40
0.026623476954016095
 40
0.0591607019718412
 40
0.0591607019718412
 40
0.0591607019718412
 40
0.11754254063168385
 40
0.11754254063168385
 40
0.11754254063168385
 40
0.1804183871564584
 40
0.1804183871564584
 40
0.1804183871564584
 40
0.24554180869201075
 40
0.24554180869201075
 40
0.24554180869201075
 40
0.27024556134323974
 40
0.27024556134323974
 40
0.27024556134323974
 40
0.3016855113619515
 40
0.3016855113619515
 40
0.3016855113619515
 40
0.367918553201203
 40
0.367918553201203
 40
0.367918553201203
 40
0.492498903277853
 40
0.492498903277853
 40
0.492498903277853
 40
0.5183119105524665
 40
0.5183119105524665
 40
0.5183119105524665
 40
0.5351398744595641
 40
0.5351398744595641
 40
0.5351398744595641
 40
0.5474789057710275
 40
0.5474789057710275
 40
0.5474789057710275
 40
0.5534995383741593
 40
0.5534995383741593
 40
0.5534995383741593
 40
0.5595201709772911
 40
0.5595201709772911
 40
0.5595201709772911
 40
0.5604986128191489
 40
0.5604986128191489
 40
0.5604986128191489
 40
0.5614770546610066
 40
0.5614770546610066
 40
0.5614770546610066
 40
0.5615987237963486
 40
0.5615987237963486
 40
0.5615987237963486
 40
0.5629050959357229
 40
0.5629050959357229
 40
0.5629050959357229
 40
0.5642114680750974
 40
0.5642114680750974
 40
0.5642114680750974
 40
0.5668242123538461
 40
0.5668242123538461
 40
0.5668242123538461
 40
0.572149680687443
 40
0.572149680687443
 40
0.572149680687443
 40
0.580875584661164
 40
0.580875584661164
 40
0.580875584661164
 40
0.612348334389792
 40
0.612348334389792
 40
0.612348334389792
 40
0.6735472353076561
 40
0.6735472353076561
 40
0.6735472353076561
 40
0.7102663841897692
 40
0.7102663841897692
 40
0.7102663841897692
 40
0.7443667489401999
 40
0.7443667489401999
 40
0.7443667489401999
 40
0.7767242811007898
 40
0.7767242811007898
 40
0.7767242811007898
 40
0.8090881676496864
 40
0.8090881676496864
 40
0.8090881676496864
 40
0.836204259045593
 40
0.836204259045593
 40
0.836204259045593
 40
0.8746886189275906
 40
0.8746886189275906
 40
0.8746886189275906
 40
0.9035525545892987
 40
0.9035525545892987
 40
0.9035525545892987
 40
0.9359150777288613
 40
0.9359150777288613
 40
0.9359150777288613
 40
0.9700264298464268
 40
0.9700264298464268
 40
0.9700264298464268
 40
0.9822715623657818
 40
0.9822715623657818
 40
0.9822715623657818
 40
0.9910182339303001
 40
0.9910182339303001
 40
0.9910182339303001
 40
1.0
 40
1.0
 40
1.0
 40
1.0
 10
340.0000001
 20
55.152941076470555
 30
0.0
 10
339.9996297442518
 20
55.14494093659769
 30
0.0
 10
339.99916990127355
 20
55.145181891741125
 30
0.0
 10
339.99862057106486
 20
55.15366394190082
 30
0.0
 10
339.9961929589826
 20
55.197424026668514
 30
0.0
 10
339.9940533905037
 20
55.261701280945
 30
0.0
 10
339.988708456035
 20
55.306769390647545
 30
0.0
 10
339.9832933416533
 20
55.3532858356626
 30
0.0
 10
339.975324722453
 20
55.39226188476362
 30
0.0
 10
339.96480259843435
 20
55.42369753795061
 30
0.0
 10
339.93865022786724
 20
55.51249063169798
 30
0.0
 10
339.91091734610166
 20
55.63055970974384
 30
0.0
 10
339.8784921100204
 20
55.74059662538014
 30
0.0
 10
339.8269314655203
 20
55.9175470176893
 30
0.0
 10
339.7582931484705
 20
56.075070759248
 30
0.0
 10
339.68012299541147
 20
56.231802129211374
 30
0.0
 10
339.47520760516886
 20
56.64971655373246
 30
0.0
 10
339.2003841342149
 20
57.03454623717593
 30
0.0
 10
338.86711112553877
 20
57.356652790753785
 30
0.0
 10
338.2723187854868
 20
57.94090033641115
 30
0.0
 10
337.47723617353006
 20
58.32230960167645
 30
0.0
 10
336.6446233269346
 20
58.39563505311828
 30
0.0
 10
335.74818069133045
 20
58.480363602912675
 30
0.0
 10
334.8323815699116
 20
58.21627505494458
 30
0.0
 10
334.09847191370466
 20
57.69995222250026
 30
0.0
 10
333.3363827834909
 20
57.16900373065192
 30
0.0
 10
332.7589459375141
 20
56.36103610737023
 30
0.0
 10
332.5557580263364
 20
55.449734744172716
 30
0.0
 10
332.47814950402943
 20
55.10267887940475
 30
0.0
 10
332.45357678560833
 20
54.751928966599536
 30
0.0
 10
332.4820398710727
 20
54.39748500575705
 30
0.0
 10
332.51741555762794
 20
53.94917285623694
 30
0.0
 10
332.63777088693865
 20
53.51035734985575
 30
0.0
 10
332.81666421249525
 20
53.09886990208091
 30
0.0
 10
333.1967573562876
 20
52.22867030818966
 30
0.0
 10
333.81234706291156
 20
51.4876601020631
 30
0.0
 10
334.47472787687906
 20
50.81850575780915
 30
0.0
 10
335.7303761283128
 20
49.55844607638204
 30
0.0
 10
337.1867491750293
 20
48.51892109447561
 30
0.0
 10
338.4347002202286
 20
47.250695818305694
 30
0.0
 10
338.6939000870943
 20
46.98839532843864
 30
0.0
 10
338.9384215527687
 20
46.71323201921727
 30
0.0
 10
339.16826461725236
 20
46.4252058906416
 30
0.0
 10
339.3178404133765
 20
46.23722047509391
 30
0.0
 10
339.45612699731424
 20
46.04051456653874
 30
0.0
 10
339.5831243690656
 20
45.83508816497606
 30
0.0
 10
339.6752773337567
 20
45.683598562448694
 30
0.0
 10
339.7604922148209
 20
45.53488668870185
 30
0.0
 10
339.83235185670924
 20
45.372708889729026
 30
0.0
 10
339.8676459179165
 20
45.29264764565582
 30
0.0
 10
339.90137777027314
 20
45.20113284951658
 30
0.0
 10
339.9282351305395
 20
45.11786391669529
 30
0.0
 10
339.95488691989016
 20
45.0305810581438
 30
0.0
 10
339.98204787194425
 20
44.975997075900466
 30
0.0
 10
339.9933916905936
 20
44.87268801732926
 30
0.0
 10
339.9949741244215
 20
44.857829808145986
 30
0.0
 10
339.9961007284294
 20
44.84437544578003
 30
0.0
 10
339.99677150261704
 20
44.832324930231394
 30
0.0
 10
339.99761221052734
 20
44.819408013932545
 30
0.0
 10
339.99863842687523
 20
44.801775575097636
 30
0.0
 10
339.9999051486819
 20
44.800043767979105
 30
0.0
 10
340.00005895705254
 20
44.80024117651678
 30
0.0
 10
340.00021276542356
 20
44.80043858505445
 30
0.0
 10
340.0003665737942
 20
44.80063599359212
 30
0.0
 10
340.001926389679
 20
44.80682638595306
 30
0.0
 10
340.00298113399424
 20
44.83310741195692
 30
0.0
 10
340.0050523399309
 20
44.85605373505533
 30
0.0
 10
340.0070985007355
 20
44.880130357899944
 30
0.0
 10
340.00986383292627
 20
44.901809686493536
 30
0.0
 10
340.01334833650367
 20
44.92109172083612
 30
0.0
 10
340.020547634525
 20
44.960104239300385
 30
0.0
 10
340.028269208535
 20
44.98460249604978
 30
0.0
 10
340.040684163733
 20
45.022747403069914
 30
0.0
 10
340.06676551941047
 20
45.10366179729965
 30
0.0
 10
340.09887478953124
 20
45.20375077790763
 30
0.0
 10
340.1355197070987
 20
45.295959828972926
 30
0.0
 10
340.19706655819436
 20
45.4451229933451
 30
0.0
 10
340.2687135140797
 20
45.587834474253526
 30
0.0
 10
340.350460574754
 20
45.72409427169816
 30
0.0
 10
340.6412529551712
 20
46.224625397181555
 30
0.0
 10
341.01403348619544
 20
46.66904897089783
 30
0.0
 10
341.40881483954047
 20
47.08820325344814
 30
0.0
 10
342.18165596401553
 20
47.90150118547139
 30
0.0
 10
343.0501828493385
 20
48.614476235566194
 30
0.0
 10
343.9008142891704
 20
49.34317943676723
 30
0.0
 10
344.4117867898715
 20
49.78018106950507
 30
0.0
 10
344.91975199542196
 20
50.22166188610711
 30
0.0
 10
345.39945531287856
 20
50.69326554154895
 30
0.0
 10
345.84413404484644
 20
51.131243304785954
 30
0.0
 10
346.2659250162776
 20
51.5958628118228
 30
0.0
 10
346.62329308774446
 20
52.10893313801988
 30
0.0
 10
346.9614072294284
 20
52.59477842924165
 30
0.0
 10
347.24070833962946
 20
53.1282917732906
 30
0.0
 10
347.3959015692851
 20
53.70198004424283
 30
0.0
 10
347.55257605032665
 20
54.2739448309857
 30
0.0
 10
347.5755963337524
 20
54.88502842631769
 30
0.0
 10
347.44099118924396
 20
55.464029831316495
 30
0.0
 10
347.32990317425777
 20
55.949098621471876
 30
0.0
 10
347.11333109256526
 20
56.40829401017382
 30
0.0
 10
346.81798294238286
 20
56.80810065521347
 30
0.0
 10
346.3990151113282
 20
57.376287917976256
 30
0.0
 10
345.824289891052
 20
57.82715655261273
 30
0.0
 10
345.1750067179154
 20
58.10344774736044
 30
0.0
 10
344.68831247365176
 20
58.310995306163434
 30
0.0
 10
344.15846794761217
 20
58.41943030559743
 30
0.0
 10
343.62895374739975
 20
58.410436343536034
 30
0.0
 10
343.03535674765436
 20
58.40183808477646
 30
0.0
 10
342.4451261276556
 20
58.24197090005042
 30
0.0
 10
341.92768501368016
 20
57.95138086140019
 30
0.0
 10
341.3811921793841
 20
57.64619402856856
 30
0.0
 10
340.91673257380273
 20
57.20135560528739
 30
0.0
 10
340.5741765111618
 20
56.67907168253054
 30
0.0
 10
340.45071869953443
 20
56.491150644406595
 30
0.0
 10
340.3436798679318
 20
56.29430303348764
 30
0.0
 10
340.25306001635397
 20
56.08852884977369
 30
0.0
 10
340.1882782747464
 20
55.9416981891729
 30
0.0
 10
340.1336892382596
 20
55.79122772698763
 30
0.0
 10
340.0892929068929
 20
55.637117463217805
 30
0.0
 10
340.04535842854534
 20
55.478964943049135
 30
0.0
 10
340.00713711259704
 20
55.317472245657015
 30
0.0
 10
340.0000001000001
 20
55.152941076470555
 30
0.0
  0
SPLINE
  5
39
330
17
100
AcDbEntity
  8
CUT
100
AcDbSpline
 70
0
 71
3
 72
149
 73
145
 74
0
 40
0.0
 40
0.0
 40
0.0
 40
0.0
 40
0.0006592971872490623
 40
0.0006592971872490623
 40
0.0006592971872490623
 40
0.003992575901751897
 40
0.003992575901751897
 40
0.003992575901751897
 40
0.007325854616254733
 40
0.007325854616254733
 40
0.007325854616254733
 40
0.015208620894929364
 40
0.015208620894929364
 40
0.015208620894929364
 40
0.027082166227863247
 40
0.027082166227863247
 40
0.027082166227863247
 40
0.03884848085170145
 40
0.03884848085170145
 40
0.03884848085170145
 40
0.06338999416655042
 40
0.06338999416655042
 40
0.06338999416655042
 40
0.09752536171753237
 40
0.09752536171753237
 40
0.09752536171753237
 40
0.12526075307453644
 40
0.12526075307453644
 40
0.12526075307453644
 40
0.19246279146718784
 40
0.19246279146718784
 40
0.19246279146718784
 40
0.22339692056798285
 40
0.22339692056798285
 40
0.22339692056798285
 40
0.25113212502962473
 40
0.25113212502962473
 40
0.25113212502962473
 40
0.2809999817301079
 40
0.2809999817301079
 40
0.2809999817301079
 40
0.31300162575564616
 40
0.31300162575564616
 40
0.31300162575564616
 40
0.3513996707626821
 40
0.3513996707626821
 40
0.3513996707626821
 40
0.3812600632480155
 40
0.3812600632480155
 40
0.3812600632480155
 40
0.4473768964292793
 40
0.4473768964292793
 40
0.4473768964292793
 40
0.477236584439281
 40
0.477236584439281
 40
0.477236584439281
 40
0.5028305713332939
 40
0.5028305713332939
 40
0.5028305713332939
 40
0.5102954841520893
 40
0.5102954841520893
 40
0.5102954841520893
 40
0.5220202646969366
 40
0.5220202646969366
 40
0.5220202646969366
 40
0.5276840156799487
 40
0.5276840156799487
 40
0.5276840156799487
 40
0.5305158911714548
 40
0.5305158911714548
 40
0.5305158911714548
 40
0.5333477666629609
 40
0.5333477666629609
 40
0.5333477666629609
 40
0.5340728403822532
 40
0.5340728403822532
 40
0.5340728403822532
 40
0.5347979141015456
 40
0.5347979141015456
 40
0.5347979141015456
 40
0.5348833275114955
 40
0.5348833275114955
 40
0.5348833275114955
 40
0.5354523395686068
 40
0.5354523395686068
 40
0.5354523395686068
 40
0.5360213516257183
 40
0.5360213516257183
 40
0.5360213516257183
 40
0.5395319919162391
 40
0.5395319919162391
 40
0.5395319919162391
 40
0.5451970613593125
 40
0.5451970613593125
 40
0.5451970613593125
 40
0.5544742739119146
 40
0.5544742739119146
 40
0.5544742739119146
 40
0.5646970461040027
 40
0.5646970461040027
 40
0.5646970461040027
 40
0.6027996767184247
 40
0.6027996767184247
 40
0.6027996767184247
 40
0.630680303430067
 40
0.630680303430067
 40
0.630680303430067
 40
0.6892289851820651
 40
0.6892289851820651
 40
0.6892289851820651
 40
0.7180419189023022
 40
0.7180419189023022
 40
0.7180419189023022
 40
0.7505738072933366
 40
0.7505738072933366
 40
0.7505738072933366
 40
0.7821833765859503
 40
0.7821833765859503
 40
0.7821833765859503
 40
0.8072889264145304
 40
0.8072889264145304
 40
0.8072889264145304
 40
0.837971501464598
 40
0.837971501464598
 40
0.837971501464598
 40
0.8742305091047595
 40
0.8742305091047595
 40
0.8742305091047595
 40
0.9067719919995347
 40
0.9067719919995347
 40
0.9067719919995347
 40
0.9402428015790867
 40
0.9402428015790867
 40
0.9402428015790867
 40
0.9681351075411843
 40
0.9681351075411843
 40
0.9681351075411843
 40
0.9811515169892098
 40
0.9811515169892098
 40
0.9811515169892098
 40
0.9904490147561641
 40
0.9904490147561641
 40
0.9904490147561641
 40
1.0
 40
1.0
 40
1.0
 40
1.0
 10
341.5000001
 20
149.79999989999996
 30
0.0
 10
341.4992233570813
 20
149.78253897946507
 30
0.0
 10
341.49823873809606
 20
149.78337064064914
 30
0.0
 10
341.4970462430445
 20
149.80249488355224
 30
0.0
 10
341.49157251853006
 20
149.90183748121746
 30
0.0
 10
341.48732119297614
 20
150.0289475514229
 30
0.0
 10
341.4760067400335
 20
150.1277458413642
 30
0.0
 10
341.46514535124305
 20
150.22929970521733
 30
0.0
 10
341.44700789942294
 20
150.30383524629093
 30
0.0
 10
341.4256972128765
 20
150.37319304854725
 30
0.0
 10
341.3763474116506
 20
150.53789264875235
 30
0.0
 10
341.31503923091554
 20
150.7994865920757
 30
0.0
 10
341.24179485803245
 20
151.04892810117886
 30
0.0
 10
341.132232415029
 20
151.42463791493168
 30
0.0
 10
340.98637112615535
 20
151.75961769538233
 30
0.0
 10
340.8202587877113
 20
152.0925406709329
 30
0.0
 10
340.65561569305146
 20
152.4261246354274
 30
0.0
 10
340.46977956945994
 20
152.75172223807823
 30
0.0
 10
340.2627504169367
 20
153.06933347888543
 30
0.0
 10
339.8313892885463
 20
153.7243335883443
 30
0.0
 10
339.3097188488039
 20
154.3153326275418
 30
0.0
 10
338.7156641817704
 20
154.827952665238
 30
0.0
 10
337.88994133438746
 20
155.53984556360547
 30
0.0
 10
336.91756739617927
 20
156.08292652717319
 30
0.0
 10
335.87269169302897
 20
156.39774299220255
 30
0.0
 10
335.0243738581504
 20
156.65439605267386
 30
0.0
 10
334.1311499438169
 20
156.75997372191696
 30
0.0
 10
333.246267281502
 20
156.71209751043327
 30
0.0
 10
331.0970606119661
 20
156.60053831091994
 30
0.0
 10
329.02692771798235
 20
155.58531371076006
 30
0.0
 10
327.5770561385066
 20
154.0028579745985
 30
0.0
 10
326.90842644082574
 20
153.27546715302873
 30
0.0
 10
326.3687074125877
 20
152.4270923395298
 30
0.0
 10
326.0099276903274
 20
151.50542080984533
 30
0.0
 10
325.6870720758201
 20
150.67983276907424
 30
0.0
 10
325.5132288349775
 20
149.7963139302286
 30
0.0
 10
325.5008106569963
 20
148.90983424666038
 30
0.0
 10
325.48613460652757
 20
147.9547261148258
 30
0.0
 10
325.65901143359144
 20
147.00085356279052
 30
0.0
 10
325.9745734842273
 20
146.10127537737833
 30
0.0
 10
326.31183875051494
 20
145.1351606650688
 30
0.0
 10
326.8064076280327
 20
144.23059704431915
 30
0.0
 10
327.3850948267239
 20
143.38988684352077
 30
0.0
 10
328.08105960187856
 20
142.38020146880993
 30
0.0
 10
328.8963793716099
 20
141.4586185853345
 30
0.0
 10
329.7587963702524
 20
140.58932481827998
 30
0.0
 10
330.4301722936634
 20
139.91317082334396
 30
0.0
 10
331.1321472975432
 20
139.26814058179204
 30
0.0
 10
331.84581601189376
 20
138.63714724957532
 30
0.0
 10
333.4266129756109
 20
137.24029177635347
 30
0.0
 10
335.0674986567047
 20
135.912627791882
 30
0.0
 10
336.62711769095864
 20
134.491572941081
 30
0.0
 10
337.33089981525944
 20
133.84957035107288
 30
0.0
 10
338.01845615985087
 20
133.1891325375253
 30
0.0
 10
338.6672165720422
 20
132.49073584403726
 30
0.0
 10
339.2225506815494
 20
131.89112812277685
 30
0.0
 10
339.75093323454007
 20
131.26827688565416
 30
0.0
 10
340.2207281151794
 20
130.59874164828597
 30
0.0
 10
340.35784108398536
 20
130.40288069194375
 30
0.0
 10
340.48897544564744
 20
130.2031343529947
 30
0.0
 10
340.6141312001663
 20
129.99950263143862
 30
0.0
 10
340.8099988945538
 20
129.67828100943112
 30
0.0
 10
340.99097056855663
 20
129.3601762358412
 30
0.0
 10
341.1438382985551
 20
129.0187633486795
 30
0.0
 10
341.2178242999652
 20
128.850214707244
 30
0.0
 10
341.29087603634423
 20
128.6498860968726
 30
0.0
 10
341.3477740276306
 20
128.47500601135977
 30
0.0
 10
341.37674611920323
 20
128.387701080046
 30
0.0
 10
341.40359992441654
 20
128.30494582308754
 30
0.0
 10
341.42833544327027
 20
128.22674024048413
 30
0.0
 10
341.4527775412427
 20
128.1461420244981
 30
0.0
 10
341.4747111697707
 20
128.0683323005608
 30
0.0
 10
341.48600203803755
 20
127.9472169608762
 30
0.0
 10
341.4889014002438
 20
127.91650047797776
 30
0.0
 10
341.49113467522716
 20
127.8974348138155
 30
0.0
 10
341.4931482709868
 20
127.86918315093538
 30
0.0
 10
341.4951875281318
 20
127.84314341996642
 30
0.0
 10
341.49702553573167
 20
127.80490288980965
 30
0.0
 10
341.499798635544
 20
127.8001275711635
 30
0.0
 10
341.50012529861976
 20
127.80054944268758
 30
0.0
 10
341.5004519616957
 20
127.80097131421181
 30
0.0
 10
341.50077862477167
 20
127.80139318573592
 30
0.0
 10
341.50289700449446
 20
127.8099303613509
 30
0.0
 10
341.5044060764724
 20
127.834709887999
 30
0.0
 10
341.5060135220637
 20
127.85639162848614
 30
0.0
 10
341.5077534047702
 20
127.87840112408571
 30
0.0
 10
341.5094932874767
 20
127.90041061968529
 30
0.0
 10
341.5112331701832
 20
127.92242011528484
 30
0.0
 10
341.52223672678855
 20
128.06610300436517
 30
0.0
 10
341.5511761691103
 20
128.16802993141548
 30
0.0
 10
341.5864571329483
 20
128.27317059789488
 30
0.0
 10
341.64188272176744
 20
128.44540075770334
 30
0.0
 10
341.71010214499967
 20
128.65791203262697
 30
0.0
 10
341.78797546754447
 20
128.85396123123266
 30
0.0
 10
341.9154567211281
 20
129.17510849078351
 30
0.0
 10
342.0743281045809
 20
129.46989697069645
 30
0.0
 10
342.2447267967521
 20
129.76371511537272
 30
0.0
 10
342.4336256242946
 20
130.08757000228383
 30
0.0
 10
342.6374890633548
 20
130.40220763730503
 30
0.0
 10
342.85631711393427
 20
130.7076280204369
 30
0.0
 10
343.6730146137661
 20
131.8403719574543
 30
0.0
 10
344.64082904892376
 20
132.8542551172499
 30
0.0
 10
345.6485872721966
 20
133.81721292000094
 30
0.0
 10
346.3877385018156
 20
134.521273197639
 30
0.0
 10
347.15340750029486
 20
135.19691175805553
 30
0.0
 10
347.9264007793138
 20
135.86339864953916
 30
0.0
 10
349.54894336563325
 20
137.26333224293396
 30
0.0
 10
351.21145250654564
 20
138.62008640410886
 30
0.0
 10
352.7545981395912
 20
140.1093700911635
 30
0.0
 10
353.51259336150594
 20
140.84268027893683
 30
0.0
 10
354.2410065270281
 20
141.6088665632385
 30
0.0
 10
354.90118374584637
 20
142.4324073791085
 30
0.0
 10
355.64526904938054
 20
143.36123159101473
 30
0.0
 10
356.30476506836123
 20
144.3674535786657
 30
0.0
 10
356.77693496079445
 20
145.46367659602362
 30
0.0
 10
357.23618320011093
 20
146.52594158687307
 30
0.0
 10
357.5074567216491
 20
147.6779319655164
 30
0.0
 10
357.49989952746773
 20
148.83872166243535
 30
0.0
 10
357.49584797379276
 20
149.7593776647712
 30
0.0
 10
357.31755790900996
 20
150.67848262241318
 30
0.0
 10
356.9787010496436
 20
151.53442599696962
 30
0.0
 10
356.566122845728
 20
152.58171957655435
 30
0.0
 10
355.92002694395904
 20
153.5323907381393
 30
0.0
 10
355.11682678208405
 20
154.31899700665258
 30
0.0
 10
354.167784753812
 20
155.24943257900162
 30
0.0
 10
352.99837158159164
 20
155.9548667386386
 30
0.0
 10
351.72985832737334
 20
156.35283864676165
 30
0.0
 10
350.59245145958727
 20
156.7111322072491
 30
0.0
 10
349.37344662369634
 20
156.81682398787495
 30
0.0
 10
348.1932949488965
 20
156.6376534804661
 30
0.0
 10
346.9789831228716
 20
156.45668238524593
 30
0.0
 10
345.81409717893195
 20
155.97203976909054
 30
0.0
 10
344.8213537949618
 20
155.25192862741986
 30
0.0
 10
343.9926380406159
 20
154.6530746954859
 30
0.0
 10
343.2805994517984
 20
153.89678673557768
 30
0.0
 10
342.7201249996888
 20
153.04302741362076
 30
0.0
 10
342.45777764911355
 20
152.64369786626912
 30
0.0
 10
342.2303201955956
 20
152.22539669462634
 30
0.0
 10
342.0377526391338
 20
151.78812389869202
 30
0.0
 10
341.90006848402294
 20
151.47610863365347
 30
0.0
 10
341.78408519653027
 20
151.15635902043203
 30
0.0
 10
341.6898027766558
 20
150.8288750590276
 30
0.0
 10
341.5963427271958
 20
150.49281051127298
 30
0.0
 10
341.5151846501725
 20
150.14961742527692
 30
0.0
 10
341.50000009999997
 20
149.79999989999996
 30
0.0
  0
SPLINE
  5
3A
330
17
100
AcDbEntity
  8
CUT
100
AcDbSpline
 70
0
 71
3
 72
149
 73
145
 74
0
 40
0.0
 40
0.0
 40
0.0
 40
0.0
 40
0.0006592971873972563
 40
0.0006592971873972563
 40
0.0006592971873972563
 40
0.003992575903139897
 40
0.003992575903139897
 40
0.003992575903139897
 40
0.007325854618882537
 40
0.007325854618882537
 40
0.007325854618882537
 40
0.01520862090056934
 40
0.01520862090056934
 40
0.01520862090056934
 40
0.02708216623830753
 40
0.02708216623830753
 40
0.02708216623830753
 40
0.038848480866371604
 40
0.038848480866371604
 40
0.038848480866371604
 40
0.0633899941923318
 40
0.0633899941923318
 40
0.0633899941923318
 40
0.09752536175491199
 40
0.09752536175491199
 40
0.09752536175491199
 40
0.12526075312096763
 40
0.12526075312096763
 40
0.12526075312096763
 40
0.19246279153296708
 40
0.19246279153296708
 40
0.19246279153296708
 40
0.22339692064060865
 40
0.22339692064060865
 40
0.22339692064060865
 40
0.25113212510894706
 40
0.25113212510894706
 40
0.25113212510894706
 40
0.28099998181342783
 40
0.28099998181342783
 40
0.28099998181342783
 40
0.3130016258402215
 40
0.3130016258402215
 40
0.3130016258402215
 40
0.3513996708434536
 40
0.3513996708434536
 40
0.3513996708434536
 40
0.3812600633235795
 40
0.3812600633235795
 40
0.3812600633235795
 40
0.4473768964790969
 40
0.4473768964790969
 40
0.4473768964790969
 40
0.47723658447649886
 40
0.47723658447649886
 40
0.47723658447649886
 40
0.502830571359501
 40
0.502830571359501
 40
0.502830571359501
 40
0.510295484175071
 40
0.510295484175071
 40
0.510295484175071
 40
0.5220202647143833
 40
0.5220202647143833
 40
0.5220202647143833
 40
0.5276840156950873
 40
0.5276840156950873
 40
0.5276840156950873
 40
0.5305158911854393
 40
0.5305158911854393
 40
0.5305158911854393
 40
0.5333477666757913
 40
0.5333477666757913
 40
0.5333477666757913
 40
0.5340728403946831
 40
0.5340728403946831
 40
0.5340728403946831
 40
0.5347979141135749
 40
0.5347979141135749
 40
0.5347979141135749
 40
0.5348833275234529
 40
0.5348833275234529
 40
0.5348833275234529
 40
0.5354523395805388
 40
0.5354523395805388
 40
0.5354523395805388
 40
0.5360213516376249
 40
0.5360213516376249
 40
0.5360213516376249
 40
0.5395319919279398
 40
0.5395319919279398
 40
0.5395319919279398
 40
0.5451970613706352
 40
0.5451970613706352
 40
0.5451970613706352
 40
0.5544742739224805
 40
0.5544742739224805
 40
0.5544742739224805
 40
0.5646970461136818
 40
0.5646970461136818
 40
0.5646970461136818
 40
0.6027996767243738
 40
0.6027996767243738
 40
0.6027996767243738
 40
0.6306803034348698
 40
0.6306803034348698
 40
0.6306803034348698
 40
0.689228985194162
 40
0.689228985194162
 40
0.689228985194162
 40
0.718041918915397
 40
0.718041918915397
 40
0.718041918915397
 40
0.750573807305875
 40
0.750573807305875
 40
0.750573807305875
 40
0.7821833765975491
 40
0.7821833765975491
 40
0.7821833765975491
 40
0.8072889264253951
 40
0.8072889264253951
 40
0.8072889264253951
 40
0.8379715014743926
 40
0.8379715014743926
 40
0.8379715014743926
 40
0.8742305091131399
 40
0.8742305091131399
 40
0.8742305091131399
 40
0.9067719920063603
 40
0.9067719920063603
 40
0.9067719920063603
 40
0.9402428015838937
 40
0.9402428015838937
 40
0.9402428015838937
 40
0.968135107543712
 40
0.968135107543712
 40
0.968135107543712
 40
0.9811515169906766
 40
0.9811515169906766
 40
0.9811515169906766
 40
0.9904490147568737
 40
0.9904490147568737
 40
0.9904490147568737
 40
1.0
 40
1.0
 40
1.0
 40
1.0
 10
341.5000001
 20
204.79999989999996
 30
0.0
 10
341.49922335708106
 20
204.78253897946584
 30
0.0
 10
341.49823873809606
 20
204.78337064064968
 30
0.0
 10
341.4970462430443
 20
204.8024948835516
 30
0.0
 10
341.4915725185301
 20
204.90183748121478
 30
0.0
 10
341.48732119297597
 20
205.0289475514195
 30
0.0
 10
341.4760067400339
 20
205.12774584135997
 30
0.0
 10
341.46514535124385
 20
205.22929970521298
 30
0.0
 10
341.44700789942414
 20
205.30383524628647
 30
0.0
 10
341.425697212878
 20
205.37319304854165
 30
0.0
 10
341.37634741165266
 20
205.53789264874445
 30
0.0
 10
341.31503923091685
 20
205.7994865920691
 30
0.0
 10
341.2417948580358
 20
206.04892810116877
 30
0.0
 10
341.1322324150304
 20
206.42463791492628
 30
0.0
 10
340.9863711261596
 20
206.7596176953742
 30
0.0
 10
340.82025878771356
 20
207.09254067092704
 30
0.0
 10
340.65561569305265
 20
207.42612463542386
 30
0.0
 10
340.46977956946387
 20
207.75172223807184
 30
0.0
 10
340.26275041694737
 20
208.06933347887136
 30
0.0
 10
339.83138928857676
 20
208.72433358829514
 30
0.0
 10
339.3097188488853
 20
209.31533262746447
 30
0.0
 10
338.715664181776
 20
209.827952665233
 30
0.0
 10
337.889941334436
 20
210.539845563569
 30
0.0
 10
336.9175673961949
 20
211.08292652717043
 30
0.0
 10
335.87269169303624
 20
211.39774299220028
 30
0.0
 10
335.02437385815756
 20
211.6543960526731
 30
0.0
 10
334.1311499438251
 20
211.7599737219151
 30
0.0
 10
333.24626728150884
 20
211.71209751043475
 30
0.0
 10
331.0970606120235
 20
211.60053831091255
 30
0.0
 10
329.02692771809444
 20
210.58531371085306
 30
0.0
 10
327.5770561385098
 20
209.00285797460484
 30
0.0
 10
326.9084264408338
 20
208.2754671530354
 30
0.0
 10
326.36870741258855
 20
207.42709233953437
 30
0.0
 10
326.00992769033064
 20
206.50542080985335
 30
0.0
 10
325.68707207582065
 20
205.67983276907844
 30
0.0
 10
325.5132288349788
 20
204.79631393023558
 30
0.0
 10
325.5008106569964
 20
203.90983424666803
 30
0.0
 10
325.48613460652246
 20
202.95472611497132
 30
0.0
 10
325.6590114335636
 20
202.00085356285246
 30
0.0
 10
325.9745734842247
 20
201.1012753773855
 30
0.0
 10
326.3118387505031
 20
200.13516066510638
 30
0.0
 10
326.8064076279817
 20
199.2305970443978
 30
0.0
 10
327.3850948267237
 20
198.38988684352057
 30
0.0
 10
328.08105960186913
 20
197.38020146882332
 30
0.0
 10
328.89637937161115
 20
196.45861858533218
 30
0.0
 10
329.7587963702477
 20
195.5893248182842
 30
0.0
 10
330.4301722935841
 20
194.91317082342385
 30
0.0
 10
331.13214729743186
 20
194.26814058188992
 30
0.0
 10
331.8458160118907
 20
193.63714724957933
 30
0.0
 10
333.42661297560045
 20
192.24029177636083
 30
0.0
 10
335.06749865669786
 20
190.912627791888
 30
0.0
 10
336.627117690954
 20
189.4915729410857
 30
0.0
 10
337.3308998152392
 20
188.84957035109153
 30
0.0
 10
338.0184561598409
 20
188.1891325375364
 30
0.0
 10
338.66721657203703
 20
187.49073584404286
 30
0.0
 10
339.22255068154385
 20
186.8911281227828
 30
0.0
 10
339.75093323453507
 20
186.2682768856607
 30
0.0
 10
340.22072811517506
 20
185.59874164829213
 30
0.0
 10
340.35784108398025
 20
185.40288069195088
 30
0.0
 10
340.4889754456433
 20
185.20313435300133
 30
0.0
 10
340.61413120016346
 20
184.99950263144328
 30
0.0
 10
340.80999889454864
 20
184.6782810094405
 30
0.0
 10
340.99097056855476
 20
184.36017623584425
 30
0.0
 10
341.14383829855007
 20
184.01876334869007
 30
0.0
 10
341.21782429996273
 20
183.8502147072503
 30
0.0
 10
341.2908760363415
 20
183.64988609688106
 30
0.0
 10
341.3477740276281
 20
183.47500601136696
 30
0.0
 10
341.37674611920096
 20
183.3877010800528
 30
0.0
 10
341.4035999244144
 20
183.30494582309413
 30
0.0
 10
341.42833544326817
 20
183.22674024049044
 30
0.0
 10
341.45277754124066
 20
183.14614202450431
 30
0.0
 10
341.4747111697695
 20
183.06833230056753
 30
0.0
 10
341.48600203803625
 20
182.94721696088516
 30
0.0
 10
341.48890140024196
 20
182.91650047799112
 30
0.0
 10
341.4911346752264
 20
182.89743481382422
 30
0.0
 10
341.49314827098635
 20
182.86918315094306
 30
0.0
 10
341.49518752813145
 20
182.8431434199725
 30
0.0
 10
341.497025535731
 20
182.80490288981724
 30
0.0
 10
341.4997986355432
 20
182.80012757116407
 30
0.0
 10
341.50012529861914
 20
182.8005494426872
 30
0.0
 10
341.50045196169566
 20
182.80097131421041
 30
0.0
 10
341.5007786247715
 20
182.80139318573353
 30
0.0
 10
341.50289700449366
 20
182.80993036134424
 30
0.0
 10
341.5044060764717
 20
182.83470988799195
 30
0.0
 10
341.50601352206326
 20
182.85639162847804
 30
0.0
 10
341.50775340476946
 20
182.87840112407676
 30
0.0
 10
341.50949328747623
 20
182.9004106196755
 30
0.0
 10
341.51123317018244
 20
182.92242011527424
 30
0.0
 10
341.52223672678707
 20
183.06610300435688
 30
0.0
 10
341.5511761691084
 20
183.168029931409
 30
0.0
 10
341.5864571329462
 20
183.27317059788845
 30
0.0
 10
341.6418827217648
 20
183.44540075769604
 30
0.0
 10
341.7101021449973
 20
183.65791203261878
 30
0.0
 10
341.7879754675418
 20
183.853961231226
 30
0.0
 10
341.9154567211244
 20
184.17510849077613
 30
0.0
 10
342.07432810457755
 20
184.46989697068992
 30
0.0
 10
342.2447267967482
 20
184.76371511536627
 30
0.0
 10
342.43362562428985
 20
185.08757000227692
 30
0.0
 10
342.63748906335053
 20
185.4022076372986
 30
0.0
 10
342.8563171139303
 20
185.7076280204313
 30
0.0
 10
343.67301461376013
 20
186.84037195744742
 30
0.0
 10
344.6408290489191
 20
187.8542551172455
 30
0.0
 10
345.64858727219126
 20
188.81721291999554
 30
0.0
 10
346.38773850186914
 20
189.52127319768837
 30
0.0
 10
347.15340750035796
 20
190.1969117581105
 30
0.0
 10
347.9264007793042
 20
190.8633986495294
 30
0.0
 10
349.54894336564314
 20
192.26333224294177
 30
0.0
 10
351.2114525066337
 20
193.62008640418745
 30
0.0
 10
352.7545981395903
 20
195.10937009116392
 30
0.0
 10
353.5125933614293
 20
195.84268027885884
 30
0.0
 10
354.2410065269936
 20
196.6088665631962
 30
0.0
 10
354.9011837458417
 20
197.43240737910253
 30
0.0
 10
355.64526904936355
 20
198.36123159099233
 30
0.0
 10
356.3047650683479
 20
199.36745357863873
 30
0.0
 10
356.77693496079144
 20
200.46367659601654
 30
0.0
 10
357.2361832001092
 20
201.52594158686674
 30
0.0
 10
357.50745672164766
 20
202.67793196550997
 30
0.0
 10
357.49989952746796
 20
203.83872166242764
 30
0.0
 10
357.495847973794
 20
204.75937766476446
 30
0.0
 10
357.31755790901093
 20
205.6784826224042
 30
0.0
 10
356.9787010496469
 20
206.5344259969637
 30
0.0
 10
356.566122845721
 20
207.58171957656583
 30
0.0
 10
355.92002694395995
 20
208.5323907381359
 30
0.0
 10
355.1168267820902
 20
209.31899700664738
 30
0.0
 10
354.16778475382705
 20
210.24943257898784
 30
0.0
 10
352.9983715816114
 20
210.95486673863036
 30
0.0
 10
351.72985832738067
 20
211.3528386467594
 30
0.0
 10
350.59245145959477
 20
211.71113220724806
 30
0.0
 10
349.3734466237029
 20
211.8168239878747
 30
0.0
 10
348.1932949489043
 20
211.6376534804675
 30
0.0
 10
346.9789831229027
 20
211.45668238525064
 30
0.0
 10
345.81409717897
 20
210.97203976911493
 30
0.0
 10
344.8213537949678
 20
210.25192862742438
 30
0.0
 10
343.99263804062133
 20
209.65307469549103
 30
0.0
 10
343.2805994518034
 20
208.89678673558353
 30
0.0
 10
342.7201249996929
 20
208.0430274136271
 30
0.0
 10
342.4577776491176
 20
207.6436978662757
 30
0.0
 10
342.2303201955987
 20
207.22539669463305
 30
0.0
 10
342.0377526391368
 20
206.78812389869898
 30
0.0
 10
341.9000684840259
 20
206.4761086336608
 30
0.0
 10
341.7840851965327
 20
206.15635902043923
 30
0.0
 10
341.6898027766571
 20
205.82887505903412
 30
0.0
 10
341.59634272719813
 20
205.4928105112789
 30
0.0
 10
341.5151846501721
 20
205.14961742527905
 30
0.0
 10
341.50000009999997
 20
204.79999989999996
 30
0.0
  0
LINE
  5
3B
330
17
100
AcDbEntity
  8
CUT
100
AcDbLine
 10
6.0000001
 20
40.79999989999997
 30
0.0
 11
95.0400001
 21
40.79999989999997
 31
0.0
  0
LINE
  5
3C
330
17
100
AcDbEntity
  8
CUT
100
AcDbLine
 10
6.0000001
 20
298.7999999
 30
0.0
 11
6.0000001
 21
40.79999989999997
 31
0.0
  0
LINE
  5
3D
330
17
100
AcDbEntity
  8
CUT
100
AcDbLine
 10
95.0400001
 20
34.79999989999997
 30
0.0
 11
125.0400001
 21
34.79999989999997
 31
0.0
  0
LINE
  5
3E
330
17
100
AcDbEntity
  8
CUT
100
AcDbLine
 10
95.0400001
 20
40.79999989999997
 30
0.0
 11
95.0400001
 21
34.79999989999997
 31
0.0
  0
LINE
  5
3F
330
17
100
AcDbEntity
  8
CUT
100
AcDbLine
 10
125.0400001
 20
34.79999989999997
 30
0.0
 11
125.0400001
 21
40.79999989999997
 31
0.0
  0
LINE
  5
40
330
17
100
AcDbEntity
  8
CUT
100
AcDbLine
 10
125.0400001
 20
40.79999989999997
 30
0.0
 11
166.5000001
 21
40.79999989999997
 31
0.0
  0
LINE
  5
41
330
17
100
AcDbEntity
  8
CUT
100
AcDbLine
 10
166.5000001
 20
40.79999989999997
 30
0.0
 11
166.5000001
 21
62.79999989999997
 31
0.0
  0
LINE
  5
42
330
17
100
AcDbEntity
  8
CUT
100
AcDbLine
 10
166.5000001
 20
62.79999989999997
 30
0.0
 11
226.5000001
 21
62.79999989999997
 31
0.0
  0
LINE
  5
43
330
17
100
AcDbEntity
  8
CUT
100
AcDbLine
 10
226.5000001
 20
40.79999989999997
 30
0.0
 11
267.9600001
 21
40.79999989999997
 31
0.0
  0
LINE
  5
44
330
17
100
AcDbEntity
  8
CUT
100
AcDbLine
 10
226.5000001
 20
62.79999989999997
 30
0.0
 11
226.5000001
 21
40.79999989999997
 31
0.0
  0
LINE
  5
45
330
17
100
AcDbEntity
  8
CUT
100
AcDbLine
 10
267.9600001
 20
34.79999989999997
 30
0.0
 11
297.9600001
 21
34.79999989999997
 31
0.0
  0
LINE
  5
46
330
17
100
AcDbEntity
  8
CUT
100
AcDbLine
 10
267.9600001
 20
40.79999989999997
 30
0.0
 11
267.9600001
 21
34.79999989999997
 31
0.0
  0
LINE
  5
47
330
17
100
AcDbEntity
  8
CUT
100
AcDbLine
 10
297.9600001
 20
34.79999989999997
 30
0.0
 11
297.9600001
 21
40.79999989999997
 31
0.0
  0
LINE
  5
48
330
17
100
AcDbEntity
  8
CUT
100
AcDbLine
 10
297.9600001
 20
40.79999989999997
 30
0.0
 11
387.0000001
 21
40.79999989999997
 31
0.0
  0
LINE
  5
49
330
17
100
AcDbEntity
  8
CUT
100
AcDbLine
 10
387.0000001
 20
40.79999989999997
 30
0.0
 11
387.0000001
 21
298.7999999
 31
0.0
  0
LINE
  5
4A
330
17
100
AcDbEntity
  8
CUT
100
AcDbLine
 10
387.0000001
 20
298.7999999
 30
0.0
 11
6.0000001
 21
298.7999999
 31
0.0
  0
ENDSEC
  0
SECTION
  2
OBJECTS
  0
DICTIONARY
  5
A
330
0
100
AcDbDictionary
281
1
  3
ACAD_COLOR
350
B
  3
ACAD_GROUP
350
C
  3
ACAD_LAYOUT
350
D
  3
ACAD_MATERIAL
350
E
  3
ACAD_MLEADERSTYLE
350
F
  3
ACAD_MLINESTYLE
350
10
  3
ACAD_PLOTSETTINGS
350
11
  3
ACAD_PLOTSTYLENAME
350
12
  3
ACAD_SCALELIST
350
14
  3
ACAD_TABLESTYLE
350
15
  3
ACAD_VISUALSTYLE
350
16
  3
EZDXF_META
350
2D
  0
DICTIONARY
  5
B
330
A
100
AcDbDictionary
281
1
  0
DICTIONARY
  5
C
330
A
100
AcDbDictionary
281
1
  0
DICTIONARY
  5
D
330
A
100
AcDbDictionary
281
1
  3
Model
350
1A
  3
Layout1
350
1E
  0
DICTIONARY
  5
E
330
A
100
AcDbDictionary
281
1
  3
ByBlock
350
1F
  3
ByLayer
350
20
  3
Global
350
21
  0
DICTIONARY
  5
F
330
A
100
AcDbDictionary
281
1
  3
Standard
350
2C
  0
DICTIONARY
  5
10
330
A
100
AcDbDictionary
281
1
  3
Standard
350
22
  0
DICTIONARY
  5
11
330
A
100
AcDbDictionary
281
1
  0
ACDBDICTIONARYWDFLT
  5
12
330
A
100
AcDbDictionary
281
1
  3
Normal
350
13
100
AcDbDictionaryWithDefault
340
13
  0
ACDBPLACEHOLDER
  5
13
330
12
  0
DICTIONARY
  5
14
330
A
100
AcDbDictionary
281
1
  0
DICTIONARY
  5
15
330
A
100
AcDbDictionary
281
1
  0
DICTIONARY
  5
16
330
A
100
AcDbDictionary
281
1
  0
LAYOUT
  5
1A
330
D
100
AcDbPlotSettings
  1

  4
A3
  6

 40
7.5
 41
20.0
 42
7.5
 43
20.0
 44
420.0
 45
297.0
 46
0.0
 47
0.0
 48
0.0
 49
0.0
140
0.0
141
0.0
142
1.0
143
1.0
 70
1024
 72
1
 73
0
 74
5
  7

 75
16
 76
0
 77
2
 78
300
147
1.0
148
0.0
149
0.0
100
AcDbLayout
  1
Model
 70
1
 71
0
 10
0.0
 20
0.0
 11
420.0
 21
297.0
 12
0.0
 22
0.0
 32
0.0
 14
1e+20
 24
1e+20
 34
1e+20
 15
-1e+20
 25
-1e+20
 35
-1e+20
146
0.0
 13
0.0
 23
0.0
 33
0.0
 16
1.0
 26
0.0
 36
0.0
 17
0.0
 27
1.0
 37
0.0
 76
1
330
17
  0
LAYOUT
  5
1E
330
D
100
AcDbPlotSettings
  1

  4
A3
  6

 40
7.5
 41
20.0
 42
7.5
 43
20.0
 44
420.0
 45
297.0
 46
0.0
 47
0.0
 48
0.0
 49
0.0
140
0.0
141
0.0
142
1.0
143
1.0
 70
0
 72
1
 73
0
 74
5
  7

 75
16
 76
0
 77
2
 78
300
147
1.0
148
0.0
149
0.0
100
AcDbLayout
  1
Layout1
 70
1
 71
1
 10
0.0
 20
0.0
 11
420.0
 21
297.0
 12
0.0
 22
0.0
 32
0.0
 14
1e+20
 24
1e+20
 34
1e+20
 15
-1e+20
 25
-1e+20
 35
-1e+20
146
0.0
 13
0.0
 23
0.0
 33
0.0
 16
1.0
 26
0.0
 36
0.0
 17
0.0
 27
1.0
 37
0.0
 76
1
330
1B
  0
MATERIAL
  5
1F
102
{ACAD_REACTORS
330
E
102
}
330
E
100
AcDbMaterial
  1
ByBlock
  2

 70
0
 40
1.0
 71
1
 41
1.0
 91
-1023410177
 42
1.0
 72
1
  3

 73
1
 74
1
 75
1
 44
0.5
 73
0
 45
1.0
 46
1.0
 77
1
  4

 78
1
 79
1
170
1
 48
1.0
171
1
  6

172
1
173
1
174
1
140
1.0
141
1.0
175
1
  7

176
1
177
1
178
1
143
1.0
179
1
  8

270
1
271
1
272
1
145
1.0
146
1.0
273
1
  9

274
1
275
1
276
1
 42
1.0
 72
1
  3

 73
1
 74
1
 75
1
 94
63
  0
MATERIAL
  5
20
102
{ACAD_REACTORS
330
E
102
}
330
E
100
AcDbMaterial
  1
ByLayer
  2

 70
0
 40
1.0
 71
1
 41
1.0
 91
-1023410177
 42
1.0
 72
1
  3

 73
1
 74
1
 75
1
 44
0.5
 73
0
 45
1.0
 46
1.0
 77
1
  4

 78
1
 79
1
170
1
 48
1.0
171
1
  6

172
1
173
1
174
1
140
1.0
141
1.0
175
1
  7

176
1
177
1
178
1
143
1.0
179
1
  8

270
1
271
1
272
1
145
1.0
146
1.0
273
1
  9

274
1
275
1
276
1
 42
1.0
 72
1
  3

 73
1
 74
1
 75
1
 94
63
  0
MATERIAL
  5
21
102
{ACAD_REACTORS
330
E
102
}
330
E
100
AcDbMaterial
  1
Global
  2

 70
0
 40
1.0
 71
1
 41
1.0
 91
-1023410177
 42
1.0
 72
1
  3

 73
1
 74
1
 75
1
 44
0.5
 73
0
 45
1.0
 46
1.0
 77
1
  4

 78
1
 79
1
170
1
 48
1.0
171
1
  6

172
1
173
1
174
1
140
1.0
141
1.0
175
1
  7

176
1
177
1
178
1
143
1.0
179
1
  8

270
1
271
1
272
1
145
1.0
146
1.0
273
1
  9

274
1
275
1
276
1
 42
1.0
 72
1
  3

 73
1
 74
1
 75
1
 94
63
  0
MLINESTYLE
  5
22
102
{ACAD_REACTORS
330
10
102
}
330
10
100
AcDbMlineStyle
  2
Standard
 70
0
  3

 62
256
 51
90.0
 52
90.0
 71
2
 49
0.5
 62
256
  6
BYLAYER
 49
-0.5
 62
256
  6
BYLAYER
  0
MLEADERSTYLE
  5
2C
102
{ACAD_REACTORS
330
F
102
}
330
F
100
AcDbMLeaderStyle
179
2
170
2
171
1
172
0
 90
2
 40
0.0
 41
0.0
173
1
 91
-1056964608
 92
-2
290
1
 42
2.0
291
1
 43
8.0
  3
Standard
 44
4.0
300

342
29
174
1
175
1
176
0
178
1
 93
-1056964608
 45
4.0
292
0
297
0
 46
4.0
 94
-1056964608
 47
1.0
 49
1.0
140
1.0
294
1
141
0.0
177
0
142
1.0
295
0
296
0
143
3.75
271
0
272
9
273
9
  0
DICTIONARY
  5
2D
330
A
100
AcDbDictionary
280
1
281
1
  3
CREATED_BY_EZDXF
350
2E
  3
WRITTEN_BY_EZDXF
350
4E
  0
DICTIONARYVAR
  5
2E
330
2D
100
DictionaryVariables
280
0
  1
0.0 @ 2000-01-01T00:00:00.000000+00:00
  0
DICTIONARYVAR
  5
4E
330
2D
100
DictionaryVariables
280
0
  1
0.0 @ 2000-01-01T00:00:00.000000+00:00
  0
ENDSEC
  0
EOF
