  0
SECTION
  2
HEADER
  9
$ACADVER
  1
AC1027
  9
$ACADMAINTVER
 70
105
  9
$DWGCODEPAGE
  3
ANSI_1252
  9
$LASTSAVEDBY
  1
ezdxf
  9
$REQUIREDVERSIONS
160
0
  9
$INSBASE
 10
0.0
 20
0.0
 30
0.0
  9
$EXTMIN
 10
1e+20
 20
1e+20
 30
1e+20
  9
$EXTMAX
 10
-1e+20
 20
-1e+20
 30
-1e+20
  9
$LIMMIN
 10
0.0
 20
0.0
  9
$LIMMAX
 10
420.0
 20
297.0
  9
$ORTHOMODE
 70
0
  9
$REGENMODE
 70
1
  9
$FILLMODE
 70
1
  9
$QTEXTMODE
 70
0
  9
$MIRRTEXT
 70
1
  9
$LTSCALE
 40
1.0
  9
$ATTMODE
 70
1
  9
$TEXTSIZE
 40
2.5
  9
$TRACEWID
 40
1.0
  9
$TEXTSTYLE
  7
Standard
  9
$CLAYER
  8
0
  9
$CELTYPE
  6
ByLayer
  9
$CECOLOR
 62
256
  9
$CELTSCALE
 40
1.0
  9
$DISPSILH
 70
0
  9
$DIMSCALE
 40
1.0
  9
$DIMASZ
 40
2.5
  9
$DIMEXO
 40
0.625
  9
$DIMDLI
 40
3.75
  9
$DIMRND
 40
0.0
  9
$DIMDLE
 40
0.0
  9
$DIMEXE
 40
1.25
  9
$DIMTP
 40
0.0
  9
$DIMTM
 40
0.0
  9
$DIMTXT
 40
2.5
  9
$DIMCEN
 40
2.5
  9
$DIMTSZ
 40
0.0
  9
$DIMTOL
 70
0
  9
$DIMLIM
 70
0
  9
$DIMTIH
 70
0
  9
$DIMTOH
 70
0
  9
$DIMSE1
 70
0
  9
$DIMSE2
 70
0
  9
$DIMTAD
 70
1
  9
$DIMZIN
 70
8
  9
$DIMBLK
  1

  9
$DIMASO
 70
1
  9
$DIMSHO
 70
1
  9
$DIMPOST
  1

  9
$DIMAPOST
  1

  9
$DIMALT
 70
0
  9
$DIMALTD
 70
3
  9
$DIMALTF
 40
0.03937007874
  9
$DIMLFAC
 40
1.0
  9
$DIMTOFL
 70
1
  9
$DIMTVP
 40
0.0
  9
$DIMTIX
 70
0
  9
$DIMSOXD
 70
0
  9
$DIMSAH
 70
0
  9
$DIMBLK1
  1

  9
$DIMBLK2
  1

  9
$DIMSTYLE
  2
ISO-25
  9
$DIMCLRD
 70
0
  9
$DIMCLRE
 70
0
  9
$DIMCLRT
 70
0
  9
$DIMTFAC
 40
1.0
  9
$DIMGAP
 40
0.625
  9
$DIMJUST
 70
0
  9
$DIMSD1
 70
0
  9
$DIMSD2
 70
0
  9
$DIMTOLJ
 70
0
  9
$DIMTZIN
 70
8
  9
$DIMALTZ
 70
0
  9
$DIMALTTZ
 70
0
  9
$DIMUPT
 70
0
  9
$DIMDEC
 70
2
  9
$DIMTDEC
 70
2
  9
$DIMALTU
 70
2
  9
$DIMALTTD
 70
3
  9
$DIMTXSTY
  7
Standard
  9
$DIMAUNIT
 70
0
  9
$DIMADEC
 70
0
  9
$DIMALTRND
 40
0.0
  9
$DIMAZIN
 70
0
  9
$DIMDSEP
 70
44
  9
$DIMATFIT
 70
3
  9
$DIMFRAC
 70
0
  9
$DIMLDRBLK
  1

  9
$DIMLUNIT
 70
2
  9
$DIMLWD
 70
-2
  9
$DIMLWE
 70
-2
  9
$DIMTMOVE
 70
0
  9
$DIMFXL
 40
1.0
  9
$DIMFXLON
 70
0
  9
$DIMJOGANG
 40
0.785398163397
  9
$DIMTFILL
 70
0
  9
$DIMTFILLCLR
 70
0
  9
$DIMARCSYM
 70
0
  9
$DIMLTYPE
  6

  9
$DIMLTEX1
  6

  9
$DIMLTEX2
  6

  9
$DIMTXTDIRECTION
 70
0
  9
$LUNITS
 70
2
  9
$LUPREC
 70
4
  9
$SKETCHINC
 40
1.0
  9
$FILLETRAD
 40
10.0
  9
$AUNITS
 70
0
  9
$AUPREC
 70
2
  9
$MENU
  1
.
  9
$ELEVATION
 40
0.0
  9
$PELEVATION
 40
0.0
  9
$THICKNESS
 40
0.0
  9
$LIMCHECK
 70
0
  9
$CHAMFERA
 40
0.0
  9
$CHAMFERB
 40
0.0
  9
$CHAMFERC
 40
0.0
  9
$CHAMFERD
 40
0.0
  9
$SKPOLY
 70
0
  9
$TDCREATE
 40
2451545.0
  9
$TDUCREATE
 40
2451545.0
  9
$TDUPDATE
 40
2451545.0
  9
$TDUUPDATE
 40
2451545.0
  9
$TDINDWG
 40
0.0
  9
$TDUSRTIMER
 40
0.0
  9
$USRTIMER
 70
1
  9
$ANGBASE
 50
0.0
  9
$ANGDIR
 70
0
  9
$PDMODE
 70
0
  9
$PDSIZE
 40
0.0
  9
$PLINEWID
 40
0.0
  9
$SPLFRAME
 70
0
  9
$SPLINETYPE
 70
6
  9
$SPLINESEGS
 70
8
  9
$HANDSEED
  5
7A
  9
$SURFTAB1
 70
6
  9
$SURFTAB2
 70
6
  9
$SURFTYPE
 70
6
  9
$SURFU
 70
6
  9
$SURFV
 70
6
  9
$UCSBASE
  2

  9
$UCSNAME
  2

  9
$UCSORG
 10
0.0
 20
0.0
 30
0.0
  9
$UCSXDIR
 10
1.0
 20
0.0
 30
0.0
  9
$UCSYDIR
 10
0.0
 20
1.0
 30
0.0
  9
$UCSORTHOREF
  2

  9
$UCSORTHOVIEW
 70
0
  9
$UCSORGTOP
 10
0.0
 20
0.0
 30
0.0
  9
$UCSORGBOTTOM
 10
0.0
 20
0.0
 30
0.0
  9
$UCSORGLEFT
 10
0.0
 20
0.0
 30
0.0
  9
$UCSORGRIGHT
 10
0.0
 20
0.0
 30
0.0
  9
$UCSORGFRONT
 10
0.0
 20
0.0
 30
0.0
  9
$UCSORGBACK
 10
0.0
 20
0.0
 30
0.0
  9
$PUCSBASE
  2

  9
$PUCSNAME
  2

  9
$PUCSORG
 10
0.0
 20
0.0
 30
0.0
  9
$PUCSXDIR
 10
1.0
 20
0.0
 30
0.0
  9
$PUCSYDIR
 10
0.0
 20
1.0
 30
0.0
  9
$PUCSORTHOREF
  2

  9
$PUCSORTHOVIEW
 70
0
  9
$PUCSORGTOP
 10
0.0
 20
0.0
 30
0.0
  9
$PUCSORGBOTTOM
 10
0.0
 20
0.0
 30
0.0
  9
$PUCSORGLEFT
 10
0.0
 20
0.0
 30
0.0
  9
$PUCSORGRIGHT
 10
0.0
 20
0.0
 30
0.0
  9
$PUCSORGFRONT
 10
0.0
 20
0.0
 30
0.0
  9
$PUCSORGBACK
 10
0.0
 20
0.0
 30
0.0
  9
$USERI1
 70
0
  9
$USERI2
 70
0
  9
$USERI3
 70
0
  9
$USERI4
 70
0
  9
$USERI5
 70
0
  9
$USERR1
 40
0.0
  9
$USERR2
 40
0.0
  9
$USERR3
 40
0.0
  9
$USERR4
 40
0.0
  9
$USERR5
 40
0.0
  9
$WORLDVIEW
 70
1
  9
$SHADEDGE
 70
3
  9
$SHADEDIF
 70
70
  9
$TILEMODE
 70
1
  9
$MAXACTVP
 70
64
  9
$PINSBASE
 10
0.0
 20
0.0
 30
0.0
  9
$PLIMCHECK
 70
0
  9
$PEXTMIN
 10
1e+20
 20
1e+20
 30
1e+20
  9
$PEXTMAX
 10
-1e+20
 20
-1e+20
 30
-1e+20
  9
$PLIMMIN
 10
0.0
 20
0.0
  9
$PLIMMAX
 10
420.0
 20
297.0
  9
$UNITMODE
 70
0
  9
$VISRETAIN
 70
1
  9
$PLINEGEN
 70
0
  9
$PSLTSCALE
 70
1
  9
$TREEDEPTH
 70
3020
  9
$CMLSTYLE
  2
Standard
  9
$CMLJUST
 70
0
  9
$CMLSCALE
 40
20.0
  9
$PROXYGRAPHICS
 70
1
  9
$MEASUREMENT
 70
1
  9
$CELWEIGHT
370
-1
  9
$ENDCAPS
280
0
  9
$JOINSTYLE
280
0
  9
$LWDISPLAY
290
0
  9
$INSUNITS
 70
4
  9
$HYPERLINKBASE
  1

  9
$STYLESHEET
  1

  9
$XEDIT
290
1
  9
$CEPSNTYPE
380
0
  9
$PSTYLEMODE
290
1
  9
$FINGERPRINTGUID
  2
{00000000-0000-0000-0000-000000000000}
  9
$VERSIONGUID
  2
{00000000-0000-0000-0000-000000000000}
  9
$EXTNAMES
290
1
  9
$PSVPSCALE
 40
0.0
  9
$OLESTARTUP
290
0
  9
$SORTENTS
280
127
  9
$INDEXCTL
280
0
  9
$HIDETEXT
280
1
  9
$XCLIPFRAME
280
1
  9
$HALOGAP
280
0
  9
$OBSCOLOR
 70
257
  9
$OBSLTYPE
280
0
  9
$INTERSECTIONDISPLAY
280
0
  9
$INTERSECTIONCOLOR
 70
257
  9
$DIMASSOC
280
2
  9
$PROJECTNAME
  1

  9
$CAMERADISPLAY
290
0
  9
$LENSLENGTH
 40
50.0
  9
$CAMERAHEIGHT
 40
0.0
  9
$STEPSPERSEC
 40
24.0
  9
$STEPSIZE
 40
100.0
  9
$3DDWFPREC
 40
2.0
  9
$PSOLWIDTH
 40
0.005
  9
$PSOLHEIGHT
 40
0.08
  9
$LOFTANG1
 40
1.570796326795
  9
$LOFTANG2
 40
1.570796326795
  9
$LOFTMAG1
 40
0.0
  9
$LOFTMAG2
 40
0.0
  9
$LOFTPARAM
 70
7
  9
$LOFTNORMALS
280
1
  9
$LATITUDE
 40
37.795
  9
$LONGITUDE
 40
-122.394
  9
$NORTHDIRECTION
 40
0.0
  9
$TIMEZONE
 70
-8000
  9
$LIGHTGLYPHDISPLAY
280
1
  9
$TILEMODELIGHTSYNCH
280
1
  9
$CMATERIAL
347
20
  9
$SOLIDHIST
280
0
  9
$SHOWHIST
280
1
  9
$DWFFRAME
280
2
  9
$DGNFRAME
280
2
  9
$REALWORLDSCALE
290
1
  9
$INTERFERECOLOR
 62
256
  9
$CSHADOW
280
0
  9
$SHADOWPLANELOCATION
 40
0.0
  0
ENDSEC
  0
SECTION
  2
CLASSES
  0
CLASS
  1
ACDBDETAILVIEWSTYLE
  2
AcDbDetailViewStyle
  3
ObjectDBX Classes
 90
1025
 91
0
280
0
281
0
  0
CLASS
  1
ACDBDICTIONARYWDFLT
  2
AcDbDictionaryWithDefault
  3
ObjectDBX Classes
 90
0
 91
0
280
0
281
0
  0
CLASS
  1
ACDBPLACEHOLDER
  2
AcDbPlaceHolder
  3
ObjectDBX Classes
 90
0
 91
0
280
0
281
0
  0
CLASS
  1
ACDBSECTIONVIEWSTYLE
  2
AcDbSectionViewStyle
  3
ObjectDBX Classes
 90
1025
 91
0
280
0
281
0
  0
CLASS
  1
CELLSTYLEMAP
  2
AcDbCellStyleMap
  3
ObjectDBX Classes
 90
1152
 91
0
280
0
281
0
  0
CLASS
  1
DICTIONARYVAR
  2
AcDbDictionaryVar
  3
ObjectDBX Classes
 90
0
 91
0
280
0
281
0
  0
CLASS
  1
LAYOUT
  2
AcDbLayout
  3
ObjectDBX Classes
 90
0
 91
0
280
0
281
0
  0
CLASS
  1
MATERIAL
  2
AcDbMaterial
  3
ObjectDBX Classes
 90
1153
 91
0
280
0
281
0
  0
CLASS
  1
MENTALRAYRENDERSETTINGS
  2
AcDbMentalRayRenderSettings
  3
SCENEOE
 90
1024
 91
0
280
0
281
0
  0
CLASS
  1
MLEADERSTYLE
  2
AcDbMLeaderStyle
  3
ACDB_MLEADERSTYLE_CLASS
 90
4095
 91
0
280
0
281
0
  0
CLASS
  1
RASTERVARIABLES
  2
AcDbRasterVariables
  3
ISM
 90
0
 91
0
280
0
281
0
  0
CLASS
  1
SCALE
  2
AcDbScale
  3
ObjectDBX Classes
 90
1153
 91
0
280
0
281
0
  0
CLASS
  1
SUN
  2
AcDbSun
  3
SCENEOE
 90
1153
 91
0
280
0
281
0
  0
CLASS
  1
TABLESTYLE
  2
AcDbTableStyle
  3
ObjectDBX Classes
 90
4095
 91
0
280
0
281
0
  0
CLASS
  1
VISUALSTYLE
  2
AcDbVisualStyle
  3
ObjectDBX Classes
 90
4095
 91
0
280
0
281
0
  0
ENDSEC
  0
SECTION
  2
TABLES
  0
TABLE
  2
VPORT
  5
8
330
0
100
AcDbSymbolTable
 70
1
  0
VPORT
  5
76
330
8
100
AcDbSymbolTableRecord
100
AcDbViewportTableRecord
  2
*Active
 70
0
 10
0.0
 20
0.0
 11
1.0
 21
1.0
 12
141.0000001
 22
166.29999989999996
 13
0.0
 23
0.0
 14
0.5
 24
0.5
 15
0.5
 25
0.5
 16
0.0
 26
0.0
 36
1.0
 17
0.0
 27
0.0
 37
0.0
 40
265.0
 41
1.34
 42
50.0
 43
0.0
 44
0.0
 50
0.0
 51
0.0
 71
0
 72
1000
 73
1
 74
3
 75
0
 76
0
 77
0
 78
0
281
0
 65
1
110
0.0
120
0.0
130
0.0
111
1.0
121
0.0
131
0.0
112
0.0
122
1.0
132
0.0
 79
0
146
0.0
  0
ENDTAB
  0
TABLE
  2
LTYPE
  5
2
330
0
100
AcDbSymbolTable
 70
3
  0
LTYPE
  5
24
330
2
100
AcDbSymbolTableRecord
100
AcDbLinetypeTableRecord
  2
ByBlock
 70
0
  3

 72
65
 73
0
 40
0.0
  0
LTYPE
  5
25
330
2
100
AcDbSymbolTableRecord
100
AcDbLinetypeTableRecord
  2
ByLayer
 70
0
  3

 72
65
 73
0
 40
0.0
  0
LTYPE
  5
26
330
2
100
AcDbSymbolTableRecord
100
AcDbLinetypeTableRecord
  2
Continuous
 70
0
  3

 72
65
 73
0
 40
0.0
  0
ENDTAB
  0
TABLE
  2
LAYER
  5
1
330
0
100
AcDbSymbolTable
 70
3
  0
LAYER
  5
27
330
1
100
AcDbSymbolTableRecord
100
AcDbLayerTableRecord
  2
0
 70
0
 62
7
  6
Continuous
370
-3
390
13
347
21
  0
LAYER
  5
28
330
1
100
AcDbSymbolTableRecord
100
AcDbLayerTableRecord
  2
Defpoints
 70
0
 62
7
  6
Continuous
290
0
370
-3
390
13
347
21
  0
LAYER
  5
2F
330
1
100
AcDbSymbolTableRecord
100
AcDbLayerTableRecord
  2
CUT
 70
0
 62
7
  6
Continuous
370
-3
390
13
347
21
  0
ENDTAB
  0
TABLE
  2
STYLE
  5
5
330
0
100
AcDbSymbolTable
 70
1
  0
STYLE
  5
29
330
5
100
AcDbSymbolTableRecord
100
AcDbTextStyleTableRecord
  2
Standard
 70
0
 40
0.0
 41
1.0
 50
0.0
 71
0
 42
2.5
  3
txt
  4

  0
ENDTAB
  0
TABLE
  2
VIEW
  5
7
330
0
100
AcDbSymbolTable
 70
0
  0
ENDTAB
  0
TABLE
  2
UCS
  5
6
330
0
100
AcDbSymbolTable
 70
0
  0
ENDTAB
  0
TABLE
  2
APPID
  5
3
330
0
100
AcDbSymbolTable
 70
3
  0
APPID
  5
2A
330
3
100
AcDbSymbolTableRecord
100
AcDbRegAppTableRecord
  2
ACAD
 70
0
  0
APPID
  5
77
330
3
100
AcDbSymbolTableRecord
100
AcDbRegAppTableRecord
  2
HATCHBACKGROUNDCOLOR
 70
0
  0
APPID
  5
78
330
3
100
AcDbSymbolTableRecord
100
AcDbRegAppTableRecord
  2
EZDXF
 70
0
  0
ENDTAB
  0
TABLE
  2
DIMSTYLE
  5
4
330
0
100
AcDbSymbolTable
 70
1
100
AcDbDimStyleTable
  0
DIMSTYLE
105
2B
330
4
100
AcDbSymbolTableRecord
100
AcDbDimStyleTableRecord
  2
Standard
 70
0
 40
1.0
 41
2.5
 42
0.625
 43
3.75
 44
1.25
 45
0.0
 46
0.0
 47
0.0
 48
0.0
 49
2.5
140
2.5
141
2.5
142
0.0
143
0.03937007874
144
1.0
145
0.0
146
1.0
147
0.625
148
0.0
 69
0
 70
0
 71
0
 72
0
 73
0
 74
0
 75
0
 76
0
 77
1
 78
8
 79
3
170
0
171
3
172
1
173
0
174
0
175
0
176
0
177
0
178
0
179
2
271
2
272
2
273
2
274
3
275
0
276
0
277
2
278
44
279
0
280
0
281
0
282
0
283
0
284
8
285
0
286
0
288
0
289
3
290
0
371
-2
372
-2
  0
ENDTAB
  0
TABLE
  2
BLOCK_RECORD
  5
9
330
0
100
AcDbSymbolTable
 70
2
  0
BLOCK_RECORD
  5
17
330
9
100
AcDbSymbolTableRecord
100
AcDbBlockTableRecord
  2
*Model_Space
340
1A
 70
0
280
1
281
0
  0
BLOCK_RECORD
  5
1B
330
9
100
AcDbSymbolTableRecord
100
AcDbBlockTableRecord
  2
*Paper_Space
340
1E
 70
0
280
1
281
0
  0
ENDTAB
  0
ENDSEC
  0
SECTION
  2
BLOCKS
  0
BLOCK
  5
18
330
17
100
AcDbEntity
  8
0
100
AcDbBlockBegin
  2
*Model_Space
 70
0
 10
0.0
 20
0.0
 30
0.0
  3
*Model_Space
  1

  0
ENDBLK
  5
19
330
17
100
AcDbEntity
  8
0
100
AcDbBlockEnd
  0
BLOCK
  5
1C
330
1B
100
AcDbEntity
  8
0
100
AcDbBlockBegin
  2
*Paper_Space
 70
0
 10
0.0
 20
0.0
 30
0.0
  3
*Paper_Space
  1

  0
ENDBLK
  5
1D
330
1B
100
AcDbEntity
  8
0
100
AcDbBlockEnd
  0
ENDSEC
  0
SECTION
  2
ENTITIES
  0
SPLINE
  5
30
330
17
100
AcDbEntity
  8
CUT
100
AcDbSpline
 70
0
 71
3
 72
125
 73
121
 74
0
 40
0.0
 40
0.0
 40
0.0
 40
0.0
 40
0.0005266961194929095
 40
0.0005266961194929095
 40
0.0005266961194929095
 40
0.0035251994891310813
 40
0.0035251994891310813
 40
0.0035251994891310813
 40
0.006523702858769253
 40
0.006523702858769253
 40
0.006523702858769253
 40
0.014283897337597239
 40
0.014283897337597239
 40
0.014283897337597239
 40
0.026623476951258065
 40
0.026623476951258065
 40
0.026623476951258065
 40
0.0591607019669331
 40
0.0591607019669331
 40
0.0591607019669331
 40
0.11754254063090594
 40
0.11754254063090594
 40
0.11754254063090594
 40
0.18041838716001005
 40
0.18041838716001005
 40
0.18041838716001005
 40
0.2455418086944365
 40
0.2455418086944365
 40
0.2455418086944365
 40
0.2702455613449602
 40
0.2702455613449602
 40
0.2702455613449602
 40
0.30168551136824334
 40
0.30168551136824334
 40
0.30168551136824334
 40
0.36791855320931083
 40
0.36791855320931083
 40
0.36791855320931083
 40
0.49249890328098417
 40
0.49249890328098417
 40
0.49249890328098417
 40
0.5183119105552507
 40
0.5183119105552507
 40
0.5183119105552507
 40
0.5351398744622989
 40
0.5351398744622989
 40
0.5351398744622989
 40
0.5474789057736386
 40
0.5474789057736386
 40
0.5474789057736386
 40
0.5534995383768162
 40
0.5534995383768162
 40
0.5534995383768162
 40
0.559520170979994
 40
0.559520170979994
 40
0.559520170979994
 40
0.5604986128218479
 40
0.5604986128218479
 40
0.5604986128218479
 40
0.5614770546637019
 40
0.5614770546637019
 40
0.5614770546637019
 40
0.5615987237990321
 40
0.5615987237990321
 40
0.5615987237990321
 40
0.5629050959383787
 40
0.5629050959383787
 40
0.5629050959383787
 40
0.5642114680777253
 40
0.5642114680777253
 40
0.5642114680777253
 40
0.5668242123564184
 40
0.5668242123564184
 40
0.5668242123564184
 40
0.5721496806899503
 40
0.5721496806899503
 40
0.5721496806899503
 40
0.580875584663547
 40
0.580875584663547
 40
0.580875584663547
 40
0.6123483343920122
 40
0.6123483343920122
 40
0.6123483343920122
 40
0.6735472353097475
 40
0.6735472353097475
 40
0.6735472353097475
 40
0.7102663841917863
 40
0.7102663841917863
 40
0.7102663841917863
 40
0.74436674894201
 40
0.74436674894201
 40
0.74436674894201
 40
0.7767242811022331
 40
0.7767242811022331
 40
0.7767242811022331
 40
0.80908816765083
 40
0.80908816765083
 40
0.80908816765083
 40
0.8362042590465225
 40
0.8362042590465225
 40
0.8362042590465225
 40
0.8746886189284685
 40
0.8746886189284685
 40
0.8746886189284685
 40
0.9035525545900717
 40
0.9035525545900717
 40
0.9035525545900717
 40
0.935915077729418
 40
0.935915077729418
 40
0.935915077729418
 40
0.9700264298466855
 40
0.9700264298466855
 40
0.9700264298466855
 40
0.9822715623659398
 40
0.9822715623659398
 40
0.9822715623659398
 40
0.9910182339304034
 40
0.9910182339304034
 40
0.9910182339304034
 40
1.0
 40
1.0
 40
1.0
 40
1.0
 10
24.35294127647058
 20
73.79999989999996
 30
0.0
 10
24.344941136597562
 20
73.79962954425176
 30
0.0
 10
24.345182091740988
 20
73.7991697012734
 30
0.0
 10
24.353664141900857
 20
73.79862037106479
 30
0.0
 10
24.39742422666866
 20
73.79619275898273
 30
0.0
 10
24.461701480944946
 20
73.79405319050358
 30
0.0
 10
24.506769590647536
 20
73.78870825603506
 30
0.0
 10
24.55328603566265
 20
73.78329314165313
 30
0.0
 10
24.59226208476371
 20
73.77532452245293
 30
0.0
 10
24.62369773795067
 20
73.7648023984344
 30
0.0
 10
24.71249083169802
 20
73.73865002786707
 30
0.0
 10
24.83055990974386
 20
73.71091714610154
 30
0.0
 10
24.940596825380183
 20
73.67849191002041
 30
0.0
 10
25.11754721768937
 20
73.62693126552028
 30
0.0
 10
25.275070959248033
 20
73.55829294847041
 30
0.0
 10
25.4318023292114
 20
73.48012279541138
 30
0.0
 10
25.84971675375038
 20
73.27520740516076
 30
0.0
 10
26.234546437203498
 20
73.00038393418976
 30
0.0
 10
26.55665299075382
 20
72.66711092553867
 30
0.0
 10
27.14090053642309
 20
72.07231858547195
 30
0.0
 10
27.522309801674872
 20
71.27723597352451
 30
0.0
 10
27.595635253118324
 20
70.44462312693462
 30
0.0
 10
27.680363802911856
 20
69.5481804913419
 30
0.0
 10
27.416275254951834
 20
68.63238136992271
 30
0.0
 10
26.899952422500284
 20
67.89847171370464
 30
0.0
 10
26.369003930672733
 20
67.13638258351475
 30
0.0
 10
25.56103630738452
 20
66.55894573751539
 30
0.0
 10
24.649734944172756
 20
66.35575782633637
 30
0.0
 10
24.302679079404655
 20
66.27814930402954
 30
0.0
 10
23.95192916659945
 20
66.25357658560836
 30
0.0
 10
23.59748520575708
 20
66.28203967107264
 30
0.0
 10
23.149173056185226
 20
66.31741535763487
 30
0.0
 10
22.71035754982858
 20
66.43777068695152
 30
0.0
 10
22.298870102080947
 20
66.61666401249522
 30
0.0
 10
21.428670508382154
 20
66.99675715617886
 30
0.0
 10
20.687660302090734
 20
67.61234686286241
 30
0.0
 10
20.018505957809143
 20
68.274727676879
 30
0.0
 10
18.75844627638806
 20
69.5303759283058
 30
0.0
 10
17.718921294474505
 20
70.98674897503031
 30
0.0
 10
16.450696018305734
 20
72.2347000202287
 30
0.0
 10
16.188395528435855
 20
72.4938998870968
 30
0.0
 10
15.913232219214468
 20
72.73842135277133
 30
0.0
 10
15.625206090641619
 20
72.9682644172524
 30
0.0
 10
15.43722067509381
 20
73.11784021337655
 30
0.0
 10
15.24051476653863
 20
73.2561267973143
 30
0.0
 10
15.035088364976081
 20
73.38312416906558
 30
0.0
 10
14.88359876244873
 20
73.47527713375658
 30
0.0
 10
14.734886888701874
 20
73.56049201482097
 30
0.0
 10
14.572709089729054
 20
73.63235165670918
 30
0.0
 10
14.492647845655783
 20
73.66764571791643
 30
0.0
 10
14.401133049516666
 20
73.70137757027311
 30
0.0
 10
14.31786411669533
 20
73.72823493053939
 30
0.0
 10
14.230581258143712
 20
73.75488671988964
 30
0.0
 10
14.175997275900617
 20
73.78204767194453
 30
0.0
 10
14.072688217329299
 20
73.79339149059356
 30
0.0
 10
14.05783000814601
 20
73.79497392442141
 30
0.0
 10
14.044375645780049
 20
73.7961005284292
 30
0.0
 10
14.032325130231417
 20
73.7967713026168
 30
0.0
 10
14.019408213932559
 20
73.79761201052732
 30
0.0
 10
14.001775775097668
 20
73.79863822687508
 30
0.0
 10
14.000043967979138
 20
73.79990494868176
 30
0.0
 10
14.00024137651681
 20
73.80005875705257
 30
0.0
 10
14.000438785054484
 20
73.80021256542332
 30
0.0
 10
14.00063619359216
 20
73.80036637379413
 30
0.0
 10
14.006826585953107
 20
73.80192618967908
 30
0.0
 10
14.033107611956925
 20
73.80298093399391
 30
0.0
 10
14.056053935055376
 20
73.80505213993075
 30
0.0
 10
14.080130557900002
 20
73.80709830073513
 30
0.0
 10
14.101809886493607
 20
73.80986363292607
 30
0.0
 10
14.121091920836164
 20
73.81334813650342
 30
0.0
 10
14.160104439300289
 20
73.82054743452497
 30
0.0
 10
14.184602696049968
 20
73.82826900853476
 30
0.0
 10
14.22274760306996
 20
73.84068396373289
 30
0.0
 10
14.3036619972997
 20
73.8667653194107
 30
0.0
 10
14.403750977907693
 20
73.89887458953106
 30
0.0
 10
14.495960028972966
 20
73.9355195070986
 30
0.0
 10
14.64512319334515
 20
73.99706635819433
 30
0.0
 10
14.787834674253565
 20
74.06871331407947
 30
0.0
 10
14.924094471698195
 20
74.15046037475392
 30
0.0
 10
15.424625597179189
 20
74.4412527551689
 30
0.0
 10
15.869049170907855
 20
74.81403328620385
 30
0.0
 10
16.28820345344819
 20
75.20881463954032
 30
0.0
 10
17.10150138547561
 20
75.98165576402016
 30
0.0
 10
17.81447643556758
 20
76.85018264934013
 30
0.0
 10
18.54317963676727
 20
77.70081408917042
 30
0.0
 10
18.980181269502438
 20
78.2117865898683
 30
0.0
 10
19.421662086105883
 20
78.71975179542046
 30
0.0
 10
19.893265741549016
 20
79.1994551128785
 30
0.0
 10
20.331243504785284
 20
79.64413384484553
 30
0.0
 10
20.795863011819723
 20
80.06592481627516
 30
0.0
 10
21.30893333801994
 20
80.42329288774444
 30
0.0
 10
21.794778629243392
 20
80.76140702942939
 30
0.0
 10
22.328291973291165
 20
81.04070813962957
 30
0.0
 10
22.901980244242885
 20
81.19590136928502
 30
0.0
 10
23.473945030985107
 20
81.35257585032696
 30
0.0
 10
24.085028626319364
 20
81.37559613375224
 30
0.0
 10
24.664030031316535
 20
81.24099098924391
 30
0.0
 10
25.149098821470083
 20
81.12990297425864
 30
0.0
 10
25.608294210177547
 20
80.91333089256315
 30
0.0
 10
26.00810085521352
 20
80.61798274238282
 30
0.0
 10
26.576288117975963
 20
80.19901491132808
 30
0.0
 10
27.027156752614182
 20
79.62428969105022
 30
0.0
 10
27.30344794736046
 20
78.9750065179151
 30
0.0
 10
27.510995506163454
 20
78.48831227365216
 30
0.0
 10
27.6194305055975
 20
77.95846774761193
 30
0.0
 10
27.61043654353606
 20
77.42895354739953
 30
0.0
 10
27.601838284776697
 20
76.83535654765538
 30
0.0
 10
27.44197110005014
 20
76.24512592765467
 30
0.0
 10
27.15138106140021
 20
75.72768481368013
 30
0.0
 10
26.84619422856877
 20
75.18119197938421
 30
0.0
 10
26.401355805287288
 20
74.7167323738023
 30
0.0
 10
25.879071882530532
 20
74.37417631116176
 30
0.0
 10
25.69115084440658
 20
74.25071849953437
 30
0.0
 10
25.494303233487628
 20
74.14367966793168
 30
0.0
 10
25.288529049773693
 20
74.05305981635392
 30
0.0
 10
25.14169838917291
 20
73.98827807474649
 30
0.0
 10
24.991227926987627
 20
73.93368903825944
 30
0.0
 10
24.83711766321781
 20
73.8892927068928
 30
0.0
 10
24.67896514304916
 20
73.84535822854552
 30
0.0
 10
24.517472445657013
 20
73.80713691259666
 30
0.0
 10
24.35294127647058
 20
73.79999989999996
 30
0.0
  0
SPLINE
  5
31
330
17
100
AcDbEntity
  8
CUT
100
AcDbSpline
 70
0
 71
3
 72
125
 73
121
 74
0
 40
0.0
 40
0.0
 40
0.0
 40
0.0
 40
0.0005266961193582899
 40
0.0005266961193582899
 40
0.0005266961193582899
 40
0.003525199488355367
 40
0.003525199488355367
 40
0.003525199488355367
 40
0.006523702857352444
 40
0.006523702857352444
 40
0.006523702857352444
 40
0.014283897334254114
 40
0.014283897334254114
 40
0.014283897334254114
 40
0.026623476944815108
 40
0.026623476944815108
 40
0.026623476944815108
 40
0.05916070195203321
 40
0.05916070195203321
 40
0.05916070195203321
 40
0.11754254060678739
 40
0.11754254060678739
 40
0.11754254060678739
 40
0.18041838713193178
 40
0.18041838713193178
 40
0.18041838713193178
 40
0.24554180866207767
 40
0.24554180866207767
 40
0.24554180866207767
 40
0.2702455613106702
 40
0.2702455613106702
 40
0.2702455613106702
 40
0.30168551133413707
 40
0.30168551133413707
 40
0.30168551133413707
 40
0.3679185531805545
 40
0.3679185531805545
 40
0.3679185531805545
 40
0.4924989032610213
 40
0.4924989032610213
 40
0.4924989032610213
 40
0.5183119105368781
 40
0.5183119105368781
 40
0.5183119105368781
 40
0.5351398744448957
 40
0.5351398744448957
 40
0.5351398744448957
 40
0.5474789057569329
 40
0.5474789057569329
 40
0.5474789057569329
 40
0.5534995383603354
 40
0.5534995383603354
 40
0.5534995383603354
 40
0.5595201709637377
 40
0.5595201709637377
 40
0.5595201709637377
 40
0.5604986128056395
 40
0.5604986128056395
 40
0.5604986128056395
 40
0.5614770546475412
 40
0.5614770546475412
 40
0.5614770546475412
 40
0.5615987237828806
 40
0.5615987237828806
 40
0.5615987237828806
 40
0.5629050959222882
 40
0.5629050959222882
 40
0.5629050959222882
 40
0.5642114680616959
 40
0.5642114680616959
 40
0.5642114680616959
 40
0.5668242123405112
 40
0.5668242123405112
 40
0.5668242123405112
 40
0.5721496806742791
 40
0.5721496806742791
 40
0.5721496806742791
 40
0.5808755846482555
 40
0.5808755846482555
 40
0.5808755846482555
 40
0.6123483343785513
 40
0.6123483343785513
 40
0.6123483343785513
 40
0.673547235301582
 40
0.673547235301582
 40
0.673547235301582
 40
0.7102663841868956
 40
0.7102663841868956
 40
0.7102663841868956
 40
0.7443667489399725
 40
0.7443667489399725
 40
0.7443667489399725
 40
0.7767242811005904
 40
0.7767242811005904
 40
0.7767242811005904
 40
0.8090881676492875
 40
0.8090881676492875
 40
0.8090881676492875
 40
0.8362042590452132
 40
0.8362042590452132
 40
0.8362042590452132
 40
0.8746886189275263
 40
0.8746886189275263
 40
0.8746886189275263
 40
0.9035525545893806
 40
0.9035525545893806
 40
0.9035525545893806
 40
0.9359150777290017
 40
0.9359150777290017
 40
0.9359150777290017
 40
0.9700264298465037
 40
0.9700264298465037
 40
0.9700264298465037
 40
0.9822715623658396
 40
0.9822715623658396
 40
0.9822715623658396
 40
0.991018233930359
 40
0.991018233930359
 40
0.991018233930359
 40
1.0
 40
1.0
 40
1.0
 40
1.0
 10
24.35294127647058
 20
141.79999989999996
 30
0.0
 10
24.344941136597754
 20
141.79962954425173
 30
0.0
 10
24.3451820917412
 20
141.7991697012734
 30
0.0
 10
24.353664141900865
 20
141.79862037106474
 30
0.0
 10
24.39742422666857
 20
141.7961927589827
 30
0.0
 10
24.461701480945017
 20
141.79405319050355
 30
0.0
 10
24.506769590647565
 20
141.78870825603502
 30
0.0
 10
24.55328603566263
 20
141.7832931416531
 30
0.0
 10
24.59226208476366
 20
141.77532452245293
 30
0.0
 10
24.62369773795065
 20
141.76480239843437
 30
0.0
 10
24.71249083169804
 20
141.7386500278672
 30
0.0
 10
24.830559909743847
 20
141.7109171461015
 30
0.0
 10
24.940596825380176
 20
141.6784919100204
 30
0.0
 10
25.11754721768937
 20
141.62693126552023
 30
0.0
 10
25.275070959248033
 20
141.55829294847044
 30
0.0
 10
25.431802329211393
 20
141.48012279541138
 30
0.0
 10
25.849716753731386
 20
141.27520740517
 30
0.0
 10
26.234546437184278
 20
141.00038393420823
 30
0.0
 10
26.55665299075382
 20
140.66711092553865
 30
0.0
 10
27.140900536534794
 20
140.07231858533055
 30
0.0
 10
27.522309801664285
 20
139.2772359734652
 30
0.0
 10
27.595635253118317
 20
138.44462312693463
 30
0.0
 10
27.6803638029105
 20
137.5481804913259
 30
0.0
 10
27.416275254949547
 20
136.63238136992257
 30
0.0
 10
26.899952422500277
 20
135.89847171370462
 30
0.0
 10
26.369003930682034
 20
135.136382583527
 30
0.0
 10
25.561036307395263
 20
134.55894573751723
 30
0.0
 10
24.649734944172742
 20
134.35575782633637
 30
0.0
 10
24.30267907940476
 20
134.2781493040296
 30
0.0
 10
23.951929166599527
 20
134.25357658560836
 30
0.0
 10
23.59748520575708
 20
134.2820396710726
 30
0.0
 10
23.149173056155213
 20
134.31741535763905
 30
0.0
 10
22.71035754981309
 20
134.43777068695886
 30
0.0
 10
22.298870102080954
 20
134.61666401249525
 30
0.0
 10
21.42867050833737
 20
134.99675715620216
 30
0.0
 10
20.68766030207221
 20
135.6123468628853
 30
0.0
 10
20.01850595780917
 20
136.27472767687894
 30
0.0
 10
18.75844627640823
 20
137.53037592828304
 30
0.0
 10
17.71892129446803
 20
138.98674897503727
 30
0.0
 10
16.45069601830575
 20
140.23470002022867
 30
0.0
 10
16.188395528436768
 20
140.49389988709606
 30
0.0
 10
15.913232219215391
 20
140.7384213527705
 30
0.0
 10
15.625206090641639
 20
140.96826441725244
 30
0.0
 10
15.437220675093972
 20
141.11784021337644
 30
0.0
 10
15.240514766538784
 20
141.25612679731418
 30
0.0
 10
15.035088364976096
 20
141.38312416906558
 30
0.0
 10
14.883598762448743
 20
141.47527713375652
 30
0.0
 10
14.734886888701896
 20
141.560492014821
 30
0.0
 10
14.572709089729075
 20
141.63235165670915
 30
0.0
 10
14.492647845655915
 20
141.6676457179164
 30
0.0
 10
14.401133049516606
 20
141.70137757027308
 30
0.0
 10
14.317864116695358
 20
141.72823493053943
 30
0.0
 10
14.230581258143733
 20
141.75488671988967
 30
0.0
 10
14.175997275900585
 20
141.78204767194444
 30
0.0
 10
14.072688217329317
 20
141.79339149059354
 30
0.0
 10
14.057830008146043
 20
141.79497392442138
 30
0.0
 10
14.04437564578009
 20
141.79610052842924
 30
0.0
 10
14.032325130231436
 20
141.79677130261686
 30
0.0
 10
14.019408213932584
 20
141.7976120105273
 30
0.0
 10
14.001775775097686
 20
141.79863822687517
 30
0.0
 10
14.00004396797914
 20
141.7999049486818
 30
0.0
 10
14.000241376516808
 20
141.80005875705254
 30
0.0
 10
14.000438785054481
 20
141.80021256542338
 30
0.0
 10
14.000636193592152
 20
141.80036637379416
 30
0.0
 10
14.006826585953075
 20
141.80192618967914
 30
0.0
 10
14.033107611956918
 20
141.80298093399392
 30
0.0
 10
14.056053935055344
 20
141.80505213993078
 30
0.0
 10
14.080130557899958
 20
141.80709830073513
 30
0.0
 10
14.101809886493564
 20
141.80986363292612
 30
0.0
 10
14.121091920836141
 20
141.81334813650344
 30
0.0
 10
14.160104439300316
 20
141.82054743452497
 30
0.0
 10
14.184602696049891
 20
141.82826900853476
 30
0.0
 10
14.222747603069934
 20
141.84068396373289
 30
0.0
 10
14.303661997299669
 20
141.86676531941075
 30
0.0
 10
14.403750977907658
 20
141.89887458953098
 30
0.0
 10
14.495960028972942
 20
141.9355195070986
 30
0.0
 10
14.645123193345137
 20
141.99706635819433
 30
0.0
 10
14.787834674253538
 20
142.06871331407942
 30
0.0
 10
14.924094471698178
 20
142.1504603747539
 30
0.0
 10
15.42462559718764
 20
142.44125275517416
 30
0.0
 10
15.869049170917998
 20
142.81403328621337
 30
0.0
 10
16.28820345344817
 20
143.20881463954026
 30
0.0
 10
17.101501385469106
 20
143.98165576401294
 30
0.0
 10
17.814476435571713
 20
144.85018264934484
 30
0.0
 10
18.54317963676725
 20
145.7008140891704
 30
0.0
 10
18.980181269502722
 20
146.2117865898686
 30
0.0
 10
19.421662086105947
 20
146.7197517954206
 30
0.0
 10
19.893265741548987
 20
147.1994551128785
 30
0.0
 10
20.33124350478296
 20
147.6441338448428
 30
0.0
 10
20.795863011812436
 20
148.0659248162695
 30
0.0
 10
21.30893333801992
 20
148.42329288774448
 30
0.0
 10
21.794778629225718
 20
148.76140702941822
 30
0.0
 10
22.32829197328656
 20
149.04070813962932
 30
0.0
 10
22.901980244242864
 20
149.19590136928505
 30
0.0
 10
23.473945030985867
 20
149.35257585032696
 30
0.0
 10
24.085028626319
 20
149.37559613375223
 30
0.0
 10
24.664030031316514
 20
149.2409909892439
 30
0.0
 10
25.149098821476663
 20
149.12990297425603
 30
0.0
 10
25.60829421017327
 20
148.91333089256514
 30
0.0
 10
26.008100855213492
 20
148.61798274238285
 30
0.0
 10
26.576288117976127
 20
148.19901491132796
 30
0.0
 10
27.027156752614182
 20
147.62428969105017
 30
0.0
 10
27.303447947360453
 20
146.97500651791512
 30
0.0
 10
27.510995506163432
 20
146.4883122736521
 30
0.0
 10
27.619430505597478
 20
145.95846774761213
 30
0.0
 10
27.61043654353606
 20
145.42895354739957
 30
0.0
 10
27.60183828477672
 20
144.83535654765544
 30
0.0
 10
27.44197110005016
 20
144.24512592765473
 30
0.0
 10
27.151381061400222
 20
143.72768481368016
 30
0.0
 10
26.846194228568912
 20
143.18119197938447
 30
0.0
 10
26.40135580528733
 20
142.71673237380224
 30
0.0
 10
25.879071882530567
 20
142.37417631116182
 30
0.0
 10
25.691150844406607
 20
142.25071849953432
 30
0.0
 10
25.49430323348767
 20
142.1436796679318
 30
0.0
 10
25.288529049773715
 20
142.05305981635394
 30
0.0
 10
25.141698389172937
 20
141.9882780747465
 30
0.0
 10
24.991227926987648
 20
141.9336890382595
 30
0.0
 10
24.837117663217846
 20
141.88929270689283
 30
0.0
 10
24.678965143049183
 20
141.84535822854548
 30
0.0
 10
24.517472445657013
 20
141.80713691259666
 30
0.0
 10
24.35294127647058
 20
141.79999989999996
 30
0.0
  0
SPLINE
  5
32
330
17
100
AcDbEntity
  8
CUT
100
AcDbSpline
 70
0
 71
3
 72
125
 73
121
 74
0
 40
0.0
 40
0.0
 40
0.0
 40
0.0
 40
0.0005266961193406039
 40
0.0005266961193406039
 40
0.0005266961193406039
 40
0.003525199488172936
 40
0.003525199488172936
 40
0.003525199488172936
 40
0.006523702857005268
 40
0.006523702857005268
 40
0.006523702857005268
 40
0.014283897333507382
 40
0.014283897333507382
 40
0.014283897333507382
 40
0.026623476943311027
 40
0.026623476943311027
 40
0.026623476943311027
 40
0.05916070194926049
 40
0.05916070194926049
 40
0.05916070194926049
 40
0.11754254059908847
 40
0.11754254059908847
 40
0.11754254059908847
 40
0.18041838711452085
 40
0.18041838711452085
 40
0.18041838711452085
 40
0.2455418086398902
 40
0.2455418086398902
 40
0.2455418086398902
 40
0.27024556128732286
 40
0.27024556128732286
 40
0.27024556128732286
 40
0.3016855113096038
 40
0.3016855113096038
 40
0.3016855113096038
 40
0.3679185531612405
 40
0.3679185531612405
 40
0.3679185531612405
 40
0.492498903258674
 40
0.492498903258674
 40
0.492498903258674
 40
0.5183119105400066
 40
0.5183119105400066
 40
0.5183119105400066
 40
0.5351398744519974
 40
0.5351398744519974
 40
0.5351398744519974
 40
0.5474789057670393
 40
0.5474789057670393
 40
0.5474789057670393
 40
0.5534995383719379
 40
0.5534995383719379
 40
0.5534995383719379
 40
0.5595201709768364
 40
0.5595201709768364
 40
0.5595201709768364
 40
0.5604986128189754
 40
0.5604986128189754
 40
0.5604986128189754
 40
0.5614770546611144
 40
0.5614770546611144
 40
0.5614770546611144
 40
0.5615987237964999
 40
0.5615987237964999
 40
0.5615987237964999
 40
0.5629050959359101
 40
0.5629050959359101
 40
0.5629050959359101
 40
0.5642114680753203
 40
0.5642114680753203
 40
0.5642114680753203
 40
0.5668242123541406
 40
0.5668242123541406
 40
0.5668242123541406
 40
0.5721496806877786
 40
0.5721496806877786
 40
0.5721496806877786
 40
0.5808755846615319
 40
0.5808755846615319
 40
0.5808755846615319
 40
0.6123483343899581
 40
0.6123483343899581
 40
0.6123483343899581
 40
0.6735472353063787
 40
0.6735472353063787
 40
0.6735472353063787
 40
0.7102663841876391
 40
0.7102663841876391
 40
0.7102663841876391
 40
0.7443667489372795
 40
0.7443667489372795
 40
0.7443667489372795
 40
0.7767242810979674
 40
0.7767242810979674
 40
0.7767242810979674
 40
0.8090881676472423
 40
0.8090881676472423
 40
0.8090881676472423
 40
0.8362042590434982
 40
0.8362042590434982
 40
0.8362042590434982
 40
0.8746886189261933
 40
0.8746886189261933
 40
0.8746886189261933
 40
0.9035525545883832
 40
0.9035525545883832
 40
0.9035525545883832
 40
0.9359150777283428
 40
0.9359150777283428
 40
0.9359150777283428
 40
0.9700264298461801
 40
0.9700264298461801
 40
0.9700264298461801
 40
0.9822715623656387
 40
0.9822715623656387
 40
0.9822715623656387
 40
0.9910182339302384
 40
0.9910182339302384
 40
0.9910182339302384
 40
1.0
 40
1.0
 40
1.0
 40
1.0
 10
24.35294127647058
 20
209.79999989999996
 30
0.0
 10
24.34494113659767
 20
209.7996295442518
 30
0.0
 10
24.345182091741094
 20
209.79916970127329
 30
0.0
 10
24.353664141900865
 20
209.79862037106477
 30
0.0
 10
24.39742422666859
 20
209.79619275898264
 30
0.0
 10
24.46170148094503
 20
209.79405319050355
 30
0.0
 10
24.506769590647593
 20
209.78870825603502
 30
0.0
 10
24.553286035662623
 20
209.78329314165305
 30
0.0
 10
24.592262084763647
 20
209.77532452245302
 30
0.0
 10
24.623697737950664
 20
209.7648023984344
 30
0.0
 10
24.712490831698005
 20
209.73865002786704
 30
0.0
 10
24.83055990974386
 20
209.71091714610154
 30
0.0
 10
24.94059682538019
 20
209.67849191002037
 30
0.0
 10
25.117547217689335
 20
209.6269312655203
 30
0.0
 10
25.27507095924807
 20
209.55829294847044
 30
0.0
 10
25.431802329211408
 20
209.4801227954114
 30
0.0
 10
25.849716753747373
 20
209.2752074051624
 30
0.0
 10
26.234546437204386
 20
209.00038393418933
 30
0.0
 10
26.556652990753825
 20
208.66711092553862
 30
0.0
 10
27.140900536451852
 20
208.07231858543463
 30
0.0
 10
27.522309801672407
 20
207.27723597350982
 30
0.0
 10
27.595635253118324
 20
206.44462312693463
 30
0.0
 10
27.68036380291253
 20
205.54818049134454
 30
0.0
 10
27.416275254949213
 20
204.6323813699151
 30
0.0
 10
26.89995242250027
 20
203.89847171370462
 30
0.0
 10
26.369003930638875
 20
203.13638258347797
 30
0.0
 10
25.561036307371822
 20
202.55894573751746
 30
0.0
 10
24.649734944172735
 20
202.35575782633634
 30
0.0
 10
24.302679079404612
 20
202.27814930402954
 30
0.0
 10
23.951929166599378
 20
202.25357658560836
 30
0.0
 10
23.597485205757067
 20
202.28203967107257
 30
0.0
 10
23.149173056160947
 20
202.3174153576382
 30
0.0
 10
22.710357549815782
 20
202.43777068695755
 30
0.0
 10
22.29887010208094
 20
202.61666401249522
 30
0.0
 10
21.42867050819566
 20
202.99675715628425
 30
0.0
 10
20.687660302070306
 20
203.61234686290487
 30
0.0
 10
20.018505957809147
 20
204.27472767687897
 30
0.0
 10
18.758446276394107
 20
205.53037592829907
 30
0.0
 10
17.718921294464245
 20
206.98674897504185
 30
0.0
 10
16.450696018305734
 20
208.2347000202287
 30
0.0
 10
16.188395528429737
 20
208.49389988710212
 30
0.0
 10
15.913232219208368
 20
208.7384213527768
 30
0.0
 10
15.62520609064162
 20
208.96826441725239
 30
0.0
 10
15.437220675093968
 20
209.11784021337644
 30
0.0
 10
15.24051476653879
 20
209.25612679731424
 30
0.0
 10
15.035088364976083
 20
209.38312416906555
 30
0.0
 10
14.883598762448733
 20
209.47527713375655
 30
0.0
 10
14.734886888701869
 20
209.56049201482094
 30
0.0
 10
14.572709089729058
 20
209.63235165670912
 30
0.0
 10
14.492647845655839
 20
209.6676457179164
 30
0.0
 10
14.401133049516597
 20
209.70137757027308
 30
0.0
 10
14.317864116695336
 20
209.72823493053943
 30
0.0
 10
14.23058125814368
 20
209.75488671988964
 30
0.0
 10
14.175997275900622
 20
209.7820476719445
 30
0.0
 10
14.072688217329286
 20
209.7933914905935
 30
0.0
 10
14.057830008146013
 20
209.7949739244213
 30
0.0
 10
14.044375645780066
 20
209.79610052842924
 30
0.0
 10
14.032325130231419
 20
209.79677130261675
 30
0.0
 10
14.019408213932568
 20
209.79761201052725
 30
0.0
 10
14.00177577509767
 20
209.79863822687494
 30
0.0
 10
14.00004396797914
 20
209.79990494868176
 30
0.0
 10
14.000241376516813
 20
209.80005875705254
 30
0.0
 10
14.000438785054484
 20
209.80021256542332
 30
0.0
 10
14.000636193592161
 20
209.80036637379413
 30
0.0
 10
14.006826585953082
 20
209.80192618967908
 30
0.0
 10
14.033107611957012
 20
209.802980933994
 30
0.0
 10
14.056053935055385
 20
209.8050521399308
 30
0.0
 10
14.080130557899945
 20
209.807098300735
 30
0.0
 10
14.101809886493545
 20
209.80986363292607
 30
0.0
 10
14.121091920836154
 20
209.8133481365036
 30
0.0
 10
14.160104439300728
 20
209.82054743452485
 30
0.0
 10
14.184602696049502
 20
209.82826900853476
 30
0.0
 10
14.222747603069962
 20
209.84068396373289
 30
0.0
 10
14.303661997299681
 20
209.86676531941083
 30
0.0
 10
14.403750977907672
 20
209.898874589531
 30
0.0
 10
14.495960028972963
 20
209.93551950709866
 30
0.0
 10
14.645123193345151
 20
209.99706635819425
 30
0.0
 10
14.787834674253565
 20
210.06871331407947
 30
0.0
 10
14.924094471698195
 20
210.15046037475395
 30
0.0
 10
15.424625597172614
 20
210.44125275516518
 30
0.0
 10
15.869049170895206
 20
210.81403328619234
 30
0.0
 10
16.28820345344819
 20
211.2088146395402
 30
0.0
 10
17.10150138547025
 20
211.98165576401448
 30
0.0
 10
17.814476435566768
 20
212.850182649339
 30
0.0
 10
18.54317963676726
 20
213.70081408917036
 30
0.0
 10
18.980181269502932
 20
214.21178658986895
 30
0.0
 10
19.42166208610589
 20
214.7197517954206
 30
0.0
 10
19.893265741549016
 20
215.19945511287844
 30
0.0
 10
20.33124350478708
 20
215.64413384484743
 30
0.0
 10
20.79586301182522
 20
216.06592481627945
 30
0.0
 10
21.30893333801994
 20
216.42329288774442
 30
0.0
 10
21.794778629249656
 20
216.7614070294333
 30
0.0
 10
22.32829197329272
 20
217.04070813962971
 30
0.0
 10
22.901980244242885
 20
217.195901369285
 30
0.0
 10
23.473945030988006
 20
217.35257585032727
 30
0.0
 10
24.085028626318966
 20
217.37559613375205
 30
0.0
 10
24.66403003131653
 20
217.24099098924387
 30
0.0
 10
25.149098821470858
 20
217.12990297425787
 30
0.0
 10
25.608294210174428
 20
216.91333089256506
 30
0.0
 10
26.00810085521352
 20
216.61798274238285
 30
0.0
 10
26.57628811797381
 20
216.19901491132984
 30
0.0
 10
27.027156752613983
 20
215.62428969105113
 30
0.0
 10
27.303447947360453
 20
214.97500651791515
 30
0.0
 10
27.510995506163404
 20
214.4883122736526
 30
0.0
 10
27.619430505597457
 20
213.95846774761196
 30
0.0
 10
27.61043654353606
 20
213.4289535473996
 30
0.0
 10
27.60183828477671
 20
212.83535654765555
 30
0.0
 10
27.44197110005038
 20
212.24512592765527
 30
0.0
 10
27.15138106140021
 20
211.7276848136801
 30
0.0
 10
26.84619422856907
 20
211.18119197938483
 30
0.0
 10
26.401355805287288
 20
210.71673237380205
 30
0.0
 10
25.879071882530532
 20
210.3741763111618
 30
0.0
 10
25.69115084440658
 20
210.25071849953437
 30
0.0
 10
25.494303233487628
 20
210.1436796679317
 30
0.0
 10
25.288529049773693
 20
210.05305981635397
 30
0.0
 10
25.14169838917291
 20
209.98827807474646
 30
0.0
 10
24.99122792698762
 20
209.93368903825953
 30
0.0
 10
24.83711766321781
 20
209.88929270689275
 30
0.0
 10
24.678965143049155
 20
209.84535822854548
 30
0.0
 10
24.51747244565704
 20
209.80713691259666
 30
0.0
 10
24.35294127647058
 20
209.79999989999993
 30
0.0
  0
SPLINE
  5
33
330
17
100
AcDbEntity
  8
CUT
100
AcDbSpline
 70
0
 71
3
 72
125
 73
121
 74
0
 40
0.0
 40
0.0
 40
0.0
 40
0.0
 40
0.0005266961196635335
 40
0.0005266961196635335
 40
0.0005266961196635335
 40
0.003525199490266931
 40
0.003525199490266931
 40
0.003525199490266931
 40
0.006523702860870328
 40
0.006523702860870328
 40
0.006523702860870328
 40
0.014283897341753435
 40
0.014283897341753435
 40
0.014283897341753435
 40
0.02662347695836432
 40
0.02662347695836432
 40
0.02662347695836432
 40
0.059160701982035185
 40
0.059160701982035185
 40
0.059160701982035185
 40
0.1175425406545088
 40
0.1175425406545088
 40
0.1175425406545088
 40
0.18041838719199846
 40
0.18041838719199846
 40
0.18041838719199846
 40
0.24554180873671563
 40
0.24554180873671563
 40
0.24554180873671563
 40
0.27024556139103434
 40
0.27024556139103434
 40
0.27024556139103434
 40
0.3016855114168165
 40
0.3016855114168165
 40
0.3016855114168165
 40
0.3679185532725878
 40
0.3679185532725878
 40
0.3679185532725878
 40
0.49249890338071045
 40
0.49249890338071045
 40
0.49249890338071045
 40
0.5183119106634998
 40
0.5183119106634998
 40
0.5183119106634998
 40
0.5351398745763335
 40
0.5351398745763335
 40
0.5351398745763335
 40
0.5474789058918336
 40
0.5474789058918336
 40
0.5474789058918336
 40
0.5534995384970509
 40
0.5534995384970509
 40
0.5534995384970509
 40
0.5595201711022684
 40
0.5595201711022684
 40
0.5595201711022684
 40
0.5604986129444619
 40
0.5604986129444619
 40
0.5604986129444619
 40
0.5614770547866554
 40
0.5614770547866554
 40
0.5614770547866554
 40
0.5615987239220719
 40
0.5615987239220719
 40
0.5615987239220719
 40
0.5629050960610592
 40
0.5629050960610592
 40
0.5629050960610592
 40
0.5642114682000465
 40
0.5642114682000465
 40
0.5642114682000465
 40
0.5668242124780212
 40
0.5668242124780212
 40
0.5668242124780212
 40
0.5721496808100424
 40
0.5721496808100424
 40
0.5721496808100424
 40
0.5808755847811444
 40
0.5808755847811444
 40
0.5808755847811444
 40
0.6123483345005523
 40
0.6123483345005523
 40
0.6123483345005523
 40
0.6735472354003423
 40
0.6735472354003423
 40
0.6735472354003423
 40
0.7102663842719468
 40
0.7102663842719468
 40
0.7102663842719468
 40
0.744366749012618
 40
0.744366749012618
 40
0.744366749012618
 40
0.7767242811639926
 40
0.7767242811639926
 40
0.7767242811639926
 40
0.8090881677036152
 40
0.8090881677036152
 40
0.8090881677036152
 40
0.8362042590917804
 40
0.8362042590917804
 40
0.8362042590917804
 40
0.874688618963013
 40
0.874688618963013
 40
0.874688618963013
 40
0.9035525546166028
 40
0.9035525546166028
 40
0.9035525546166028
 40
0.9359150777469929
 40
0.9359150777469929
 40
0.9359150777469929
 40
0.9700264298548847
 40
0.9700264298548847
 40
0.9700264298548847
 40
0.9822715623707734
 40
0.9822715623707734
 40
0.9822715623707734
 40
0.9910182339328348
 40
0.9910182339328348
 40
0.9910182339328348
 40
1.0
 40
1.0
 40
1.0
 40
1.0
 10
26.35294127647058
 20
107.79999989999996
 30
0.0
 10
26.3449411365974
 20
107.79962954425184
 30
0.0
 10
26.34518209174084
 20
107.79916970127346
 30
0.0
 10
26.353664141900843
 20
107.7986203710648
 30
0.0
 10
26.397424226668527
 20
107.79619275898278
 30
0.0
 10
26.46170148094506
 20
107.79405319050346
 30
0.0
 10
26.506769590647572
 20
107.78870825603508
 30
0.0
 10
26.55328603566263
 20
107.78329314165313
 30
0.0
 10
26.592262084763647
 20
107.77532452245293
 30
0.0
 10
26.62369773795065
 20
107.7648023984344
 30
0.0
 10
26.712490831698005
 20
107.73865002786698
 30
0.0
 10
26.83055990974387
 20
107.71091714610156
 30
0.0
 10
26.940596825380176
 20
107.6784919100204
 30
0.0
 10
27.11754721768928
 20
107.62693126552037
 30
0.0
 10
27.275070959248104
 20
107.55829294847035
 30
0.0
 10
27.431802329211386
 20
107.48012279541138
 30
0.0
 10
27.84971675372715
 20
107.27520740517306
 30
0.0
 10
28.234546437188982
 20
107.00038393420448
 30
0.0
 10
28.556652990753825
 20
106.66711092553865
 30
0.0
 10
29.140900536396906
 20
106.07231858550543
 30
0.0
 10
29.52230980167767
 20
105.2772359735373
 30
0.0
 10
29.595635253118324
 20
104.44462312693463
 30
0.0
 10
29.680363802912687
 20
103.54818049133436
 30
0.0
 10
29.416275254946008
 20
102.6323813699129
 30
0.0
 10
28.899952422500284
 20
101.89847171370462
 30
0.0
 10
28.36900393067014
 20
101.1363825835127
 30
0.0
 10
27.56103630738292
 20
100.55894573751448
 30
0.0
 10
26.649734944172742
 20
100.35575782633637
 30
0.0
 10
26.30267907940474
 20
100.2781493040296
 30
0.0
 10
25.951929166599513
 20
100.25357658560833
 30
0.0
 10
25.59748520575709
 20
100.28203967107262
 30
0.0
 10
25.149173056202663
 20
100.31741535763243
 30
0.0
 10
24.710357549837696
 20
100.4377706869472
 30
0.0
 10
24.298870102080954
 20
100.61666401249522
 30
0.0
 10
23.428670508201378
 20
100.99675715628155
 30
0.0
 10
22.687660302074157
 20
101.61234686290055
 30
0.0
 10
22.018505957809168
 20
102.27472767687897
 30
0.0
 10
20.75844627638481
 20
103.53037592830941
 30
0.0
 10
19.718921294467496
 20
104.98674897503832
 30
0.0
 10
18.450696018305756
 20
106.23470002022867
 30
0.0
 10
18.188395528431528
 20
106.49389988710061
 30
0.0
 10
17.91323221921016
 20
106.73842135277519
 30
0.0
 10
17.62520609064164
 20
106.96826441725236
 30
0.0
 10
17.43722067509401
 20
107.11784021337644
 30
0.0
 10
17.240514766538826
 20
107.25612679731415
 30
0.0
 10
17.035088364976094
 20
107.38312416906558
 30
0.0
 10
16.88359876244875
 20
107.47527713375658
 30
0.0
 10
16.734886888701876
 20
107.56049201482097
 30
0.0
 10
16.572709089729077
 20
107.63235165670918
 30
0.0
 10
16.49264784565584
 20
107.6676457179164
 30
0.0
 10
16.401133049516673
 20
107.70137757027308
 30
0.0
 10
16.317864116695336
 20
107.72823493053943
 30
0.0
 10
16.23058125814385
 20
107.75488671988967
 30
0.0
 10
16.175997275900514
 20
107.78204767194447
 30
0.0
 10
16.07268821732931
 20
107.79339149059354
 30
0.0
 10
16.05783000814605
 20
107.79497392442144
 30
0.0
 10
16.044375645780093
 20
107.79610052842915
 30
0.0
 10
16.032325130231435
 20
107.7967713026168
 30
0.0
 10
16.019408213932586
 20
107.79761201052739
 30
0.0
 10
16.001775775097677
 20
107.79863822687506
 30
0.0
 10
16.000043967979146
 20
107.79990494868179
 30
0.0
 10
16.00024137651681
 20
107.8000587570526
 30
0.0
 10
16.000438785054488
 20
107.80021256542335
 30
0.0
 10
16.000636193592154
 20
107.80036637379413
 30
0.0
 10
16.006826585953085
 20
107.80192618967911
 30
0.0
 10
16.033107611956922
 20
107.80298093399395
 30
0.0
 10
16.056053935055346
 20
107.80505213993078
 30
0.0
 10
16.08013055789996
 20
107.80709830073516
 30
0.0
 10
16.101809886493566
 20
107.8098636329261
 30
0.0
 10
16.12109192083615
 20
107.81334813650344
 30
0.0
 10
16.160104439300422
 20
107.82054743452505
 30
0.0
 10
16.184602696049787
 20
107.82826900853473
 30
0.0
 10
16.222747603069934
 20
107.84068396373289
 30
0.0
 10
16.303661997299677
 20
107.86676531941063
 30
0.0
 10
16.40375097790766
 20
107.89887458953112
 30
0.0
 10
16.49596002897294
 20
107.9355195070986
 30
0.0
 10
16.645123193345125
 20
107.99706635819427
 30
0.0
 10
16.787834674253546
 20
108.06871331407945
 30
0.0
 10
16.924094471698183
 20
108.15046037475395
 30
0.0
 10
17.42462559717946
 20
108.44125275516936
 30
0.0
 10
17.869049170901683
 20
108.81403328619857
 30
0.0
 10
18.288203453448176
 20
109.2088146395403
 30
0.0
 10
19.10150138547452
 20
109.98165576401857
 30
0.0
 10
19.81447643557368
 20
110.85018264934746
 30
0.0
 10
20.543179636767242
 20
111.70081408917036
 30
0.0
 10
20.98018126950126
 20
112.21178658986693
 30
0.0
 10
21.42166208610532
 20
112.71975179541988
 30
0.0
 10
21.893265741548994
 20
113.19945511287847
 30
0.0
 10
22.33124350478746
 20
113.644133844848
 30
0.0
 10
22.795863011827237
 20
114.06592481628098
 30
0.0
 10
23.308933338019912
 20
114.42329288774442
 30
0.0
 10
23.794778629244227
 20
114.76140702942999
 30
0.0
 10
24.328291973291513
 20
115.04070813962957
 30
0.0
 10
24.901980244242857
 20
115.195901369285
 30
0.0
 10
25.473945030989157
 20
115.35257585032744
 30
0.0
 10
26.085028626317943
 20
115.375596133752
 30
0.0
 10
26.664030031316507
 20
115.2409909892439
 30
0.0
 10
27.149098821469224
 20
115.1299029742589
 30
0.0
 10
27.608294210177355
 20
114.91333089256332
 30
0.0
 10
28.008100855213492
 20
114.61798274238282
 30
0.0
 10
28.57628811797428
 20
114.1990149113293
 30
0.0
 10
29.027156752612505
 20
113.62428969105343
 30
0.0
 10
29.30344794736046
 20
112.97500651791518
 30
0.0
 10
29.510995506163468
 20
112.48831227365218
 30
0.0
 10
29.6194305055975
 20
111.95846774761185
 30
0.0
 10
29.61043654353606
 20
111.42895354739957
 30
0.0
 10
29.60183828477652
 20
110.83535654765524
 30
0.0
 10
29.44197110005078
 20
110.24512592765612
 30
0.0
 10
29.151381061400215
 20
109.72768481368018
 30
0.0
 10
28.84619422856882
 20
109.18119197938421
 30
0.0
 10
28.40135580528731
 20
108.71673237380224
 30
0.0
 10
27.87907188253056
 20
108.37417631116185
 30
0.0
 10
27.691150844406607
 20
108.25071849953434
 30
0.0
 10
27.494303233487663
 20
108.14367966793176
 30
0.0
 10
27.288529049773715
 20
108.05305981635397
 30
0.0
 10
27.141698389172937
 20
107.98827807474649
 30
0.0
 10
26.991227926987648
 20
107.93368903825947
 30
0.0
 10
26.837117663217846
 20
107.88929270689283
 30
0.0
 10
26.67896514304919
 20
107.84535822854562
 30
0.0
 10
26.517472445657027
 20
107.80713691259658
 30
0.0
 10
26.35294127647058
 20
107.79999989999999
 30
0.0
  0
SPLINE
  5
34
330
17
100
AcDbEntity
  8
CUT
100
AcDbSpline
 70
0
 71
3
 72
125
 73
121
 74
0
 40
0.0
 40
0.0
 40
0.0
 40
0.0
 40
0.0005266961192873182
 40
0.0005266961192873182
 40
0.0005266961192873182
 40
0.003525199487841464
 40
0.003525199487841464
 40
0.003525199487841464
 40
0.00652370285639561
 40
0.00652370285639561
 40
0.00652370285639561
 40
0.014283897332091384
 40
0.014283897332091384
 40
0.014283897332091384
 40
0.02662347694097103
 40
0.02662347694097103
 40
0.02662347694097103
 40
0.059160701944150934
 40
0.059160701944150934
 40
0.059160701944150934
 40
0.11754254059316692
 40
0.11754254059316692
 40
0.11754254059316692
 40
0.18041838710872696
 40
0.18041838710872696
 40
0.18041838710872696
 40
0.24554180863229016
 40
0.24554180863229016
 40
0.24554180863229016
 40
0.2702455612790028
 40
0.2702455612790028
 40
0.2702455612790028
 40
0.3016855112966172
 40
0.3016855112966172
 40
0.3016855112966172
 40
0.3679185531357458
 40
0.3679185531357458
 40
0.3679185531357458
 40
0.49249890321158024
 40
0.49249890321158024
 40
0.49249890321158024
 40
0.5183119104886473
 40
0.5183119104886473
 40
0.5183119104886473
 40
0.5351398743979902
 40
0.5351398743979902
 40
0.5351398743979902
 40
0.5474789057110578
 40
0.5474789057110578
 40
0.5474789057110578
 40
0.5534995383150572
 40
0.5534995383150572
 40
0.5534995383150572
 40
0.5595201709190564
 40
0.5595201709190564
 40
0.5595201709190564
 40
0.5604986127610496
 40
0.5604986127610496
 40
0.5604986127610496
 40
0.5614770546030429
 40
0.5614770546030429
 40
0.5614770546030429
 40
0.5615987237384024
 40
0.5615987237384024
 40
0.5615987237384024
 40
0.5629050958778498
 40
0.5629050958778498
 40
0.5629050958778498
 40
0.5642114680172972
 40
0.5642114680172972
 40
0.5642114680172972
 40
0.5668242122961918
 40
0.5668242122961918
 40
0.5668242122961918
 40
0.5721496806300671
 40
0.5721496806300671
 40
0.5721496806300671
 40
0.5808755846041989
 40
0.5808755846041989
 40
0.5808755846041989
 40
0.6123483343348831
 40
0.6123483343348831
 40
0.6123483343348831
 40
0.673547235259586
 40
0.673547235259586
 40
0.673547235259586
 40
0.71026638414597
 40
0.71026638414597
 40
0.71026638414597
 40
0.7443667489003324
 40
0.7443667489003324
 40
0.7443667489003324
 40
0.776724281065701
 40
0.776724281065701
 40
0.776724281065701
 40
0.8090881676196109
 40
0.8090881676196109
 40
0.8090881676196109
 40
0.8362042590198371
 40
0.8362042590198371
 40
0.8362042590198371
 40
0.8746886189080763
 40
0.8746886189080763
 40
0.8746886189080763
 40
0.9035525545744086
 40
0.9035525545744086
 40
0.9035525545744086
 40
0.9359150777190024
 40
0.9359150777190024
 40
0.9359150777190024
 40
0.9700264298418189
 40
0.9700264298418189
 40
0.9700264298418189
 40
0.9822715623630645
 40
0.9822715623630645
 40
0.9822715623630645
 40
0.9910182339289453
 40
0.9910182339289453
 40
0.9910182339289453
 40
1.0
 40
1.0
 40
1.0
 40
1.0
 10
26.35294127647058
 20
175.79999989999996
 30
0.0
 10
26.344941136597548
 20
175.79962954425167
 30
0.0
 10
26.345182091741002
 20
175.79916970127337
 30
0.0
 10
26.353664141900865
 20
175.7986203710648
 30
0.0
 10
26.397424226668555
 20
175.79619275898256
 30
0.0
 10
26.461701480945088
 20
175.79405319050366
 30
0.0
 10
26.506769590647544
 20
175.78870825603502
 30
0.0
 10
26.553286035662644
 20
175.78329314165308
 30
0.0
 10
26.592262084763682
 20
175.77532452245293
 30
0.0
 10
26.62369773795067
 20
175.7648023984344
 30
0.0
 10
26.71249083169799
 20
175.73865002786715
 30
0.0
 10
26.83055990974387
 20
175.71091714610154
 30
0.0
 10
26.940596825380183
 20
175.6784919100203
 30
0.0
 10
27.11754721768942
 20
175.62693126552045
 30
0.0
 10
27.275070959248005
 20
175.55829294847038
 30
0.0
 10
27.431802329211408
 20
175.4801227954114
 30
0.0
 10
27.849716753754706
 20
175.275207405159
 30
0.0
 10
28.234546437210184
 20
175.00038393418342
 30
0.0
 10
28.556652990753832
 20
174.66711092553865
 30
0.0
 10
29.140900536475918
 20
174.07231858540428
 30
0.0
 10
29.522309801670318
 20
173.27723597349632
 30
0.0
 10
29.59563525311833
 20
172.44462312693463
 30
0.0
 10
29.680363802910925
 20
171.54818049132237
 30
0.0
 10
29.416275254944566
 20
170.63238136991134
 30
0.0
 10
28.899952422500277
 20
169.89847171370454
 30
0.0
 10
28.369003930654202
 20
169.1363825834932
 30
0.0
 10
27.561036307372362
 20
168.55894573751468
 30
0.0
 10
26.649734944172735
 20
168.35575782633634
 30
0.0
 10
26.302679079404626
 20
168.27814930402957
 30
0.0
 10
25.951929166599406
 20
168.25357658560839
 30
0.0
 10
25.597485205757053
 20
168.28203967107262
 30
0.0
 10
25.149173056191763
 20
168.31741535763388
 30
0.0
 10
24.71035754983179
 20
168.43777068695
 30
0.0
 10
24.298870102080933
 20
168.6166640124952
 30
0.0
 10
23.428670508202046
 20
168.99675715628067
 30
0.0
 10
22.68766030206512
 20
169.61234686290814
 30
0.0
 10
22.018505957809147
 20
170.27472767687897
 30
0.0
 10
20.75844627638461
 20
171.53037592830975
 30
0.0
 10
19.71892129447056
 20
172.98674897503483
 30
0.0
 10
18.450696018305734
 20
174.2347000202287
 30
0.0
 10
18.188395528427463
 20
174.49389988710416
 30
0.0
 10
17.913232219206083
 20
174.73842135277886
 30
0.0
 10
17.625206090641626
 20
174.96826441725236
 30
0.0
 10
17.437220675093904
 20
175.1178402133765
 30
0.0
 10
17.240514766538727
 20
175.25612679731432
 30
0.0
 10
17.035088364976087
 20
175.38312416906558
 30
0.0
 10
16.883598762448734
 20
175.4752771337566
 30
0.0
 10
16.734886888701855
 20
175.56049201482085
 30
0.0
 10
16.572709089729052
 20
175.63235165670918
 30
0.0
 10
16.492647845655775
 20
175.6676457179164
 30
0.0
 10
16.40113304951668
 20
175.701377570273
 30
0.0
 10
16.317864116695315
 20
175.72823493053946
 30
0.0
 10
16.230581258143737
 20
175.7548867198896
 30
0.0
 10
16.175997275900585
 20
175.7820476719444
 30
0.0
 10
16.072688217329286
 20
175.7933914905935
 30
0.0
 10
16.057830008146013
 20
175.79497392442138
 30
0.0
 10
16.044375645780057
 20
175.79610052842918
 30
0.0
 10
16.03232513023142
 20
175.79677130261672
 30
0.0
 10
16.01940821393257
 20
175.79761201052725
 30
0.0
 10
16.001775775097677
 20
175.79863822687508
 30
0.0
 10
16.00004396797914
 20
175.79990494868164
 30
0.0
 10
16.00024137651681
 20
175.80005875705262
 30
0.0
 10
16.00043878505449
 20
175.80021256542324
 30
0.0
 10
16.000636193592157
 20
175.80036637379413
 30
0.0
 10
16.0068265859531
 20
175.80192618967916
 30
0.0
 10
16.03310761195696
 20
175.80298093399392
 30
0.0
 10
16.05605393505538
 20
175.80505213993072
 30
0.0
 10
16.080130557899984
 20
175.80709830073525
 30
0.0
 10
16.101809886493577
 20
175.809863632926
 30
0.0
 10
16.121091920836157
 20
175.8133481365035
 30
0.0
 10
16.16010443930047
 20
175.82054743452503
 30
0.0
 10
16.184602696049755
 20
175.82826900853482
 30
0.0
 10
16.222747603069962
 20
175.84068396373289
 30
0.0
 10
16.303661997299685
 20
175.86676531941055
 30
0.0
 10
16.403750977907677
 20
175.8988745895312
 30
0.0
 10
16.49596002897296
 20
175.9355195070986
 30
0.0
 10
16.64512319334515
 20
175.99706635819427
 30
0.0
 10
16.787834674253567
 20
176.06871331407942
 30
0.0
 10
16.924094471698194
 20
176.15046037475395
 30
0.0
 10
17.424625597189035
 20
176.441252755175
 30
0.0
 10
17.86904917091845
 20
176.81403328621386
 30
0.0
 10
18.28820345344819
 20
177.2088146395403
 30
0.0
 10
19.101501385467582
 20
177.98165576401144
 30
0.0
 10
19.814476435572494
 20
178.85018264934556
 30
0.0
 10
20.543179636767263
 20
179.7008140891704
 30
0.0
 10
20.980181269501585
 20
180.21178658986722
 30
0.0
 10
21.421662086105464
 20
180.71975179542008
 30
0.0
 10
21.893265741549016
 20
181.19945511287844
 30
0.0
 10
22.33124350478696
 20
181.64413384484746
 30
0.0
 10
22.795863011824196
 20
182.06592481627857
 30
0.0
 10
23.30893333801994
 20
182.42329288774445
 30
0.0
 10
23.794778629251653
 20
182.7614070294347
 30
0.0
 10
24.32829197329324
 20
183.04070813962957
 30
0.0
 10
24.901980244242893
 20
183.195901369285
 30
0.0
 10
25.473945030990635
 20
183.35257585032772
 30
0.0
 10
26.085028626319072
 20
183.37559613375174
 30
0.0
 10
26.66403003131653
 20
183.2409909892439
 30
0.0
 10
27.14909882147232
 20
183.12990297425762
 30
0.0
 10
27.60829421017548
 20
182.91333089256418
 30
0.0
 10
28.008100855213513
 20
182.61798274238288
 30
0.0
 10
28.576288117977676
 20
182.1990149113261
 30
0.0
 10
29.027156752613124
 20
181.62428969105153
 30
0.0
 10
29.30344794736046
 20
180.97500651791512
 30
0.0
 10
29.51099550616351
 20
180.48831227365196
 30
0.0
 10
29.619430505597485
 20
179.95846774761193
 30
0.0
 10
29.610436543536053
 20
179.42895354739954
 30
0.0
 10
29.60183828477659
 20
178.83535654765592
 30
0.0
 10
29.441971100050942
 20
178.24512592765635
 30
0.0
 10
29.15138106140021
 20
177.72768481368013
 30
0.0
 10
28.846194228568706
 20
177.18119197938415
 30
0.0
 10
28.40135580528719
 20
176.71673237380213
 30
0.0
 10
27.879071882530532
 20
176.3741763111618
 30
0.0
 10
27.691150844406614
 20
176.2507184995343
 30
0.0
 10
27.49430323348767
 20
176.14367966793174
 30
0.0
 10
27.288529049773693
 20
176.05305981635397
 30
0.0
 10
27.141698389172916
 20
175.98827807474652
 30
0.0
 10
26.991227926987627
 20
175.93368903825944
 30
0.0
 10
26.837117663217818
 20
175.8892927068928
 30
0.0
 10
26.678965143049176
 20
175.8453582285456
 30
0.0
 10
26.51747244565702
 20
175.8071369125966
 30
0.0
 10
26.35294127647058
 20
175.79999989999996
 30
0.0
  0
SPLINE
  5
35
330
17
100
AcDbEntity
  8
CUT
100
AcDbSpline
 70
0
 71
3
 72
125
 73
121
 74
0
 40
0.0
 40
0.0
 40
0.0
 40
0.0
 40
0.0005266961194314447
 40
0.0005266961194314447
 40
0.0005266961194314447
 40
0.0035251994888955995
 40
0.0035251994888955995
 40
0.0035251994888955995
 40
0.006523702858359754
 40
0.006523702858359754
 40
0.006523702858359754
 40
0.014283897336589385
 40
0.014283897336589385
 40
0.014283897336589385
 40
0.02662347694943868
 40
0.02662347694943868
 40
0.02662347694943868
 40
0.059160701961967266
 40
0.059160701961967266
 40
0.059160701961967266
 40
0.11754254061800945
 40
0.11754254061800945
 40
0.11754254061800945
 40
0.18041838714046346
 40
0.18041838714046346
 40
0.18041838714046346
 40
0.2455418086731427
 40
0.2455418086731427
 40
0.2455418086731427
 40
0.27024556132293115
 40
0.27024556132293115
 40
0.27024556132293115
 40
0.30168551134780275
 40
0.30168551134780275
 40
0.30168551134780275
 40
0.3679185532034819
 40
0.3679185532034819
 40
0.3679185532034819
 40
0.49249890330990437
 40
0.49249890330990437
 40
0.49249890330990437
 40
0.5183119105918161
 40
0.5183119105918161
 40
0.5183119105918161
 40
0.5351398745038342
 40
0.5351398745038342
 40
0.5351398745038342
 40
0.5474789058188925
 40
0.5474789058188925
 40
0.5474789058188925
 40
0.5534995384237222
 40
0.5534995384237222
 40
0.5534995384237222
 40
0.5595201710285519
 40
0.5595201710285519
 40
0.5595201710285519
 40
0.5604986128706916
 40
0.5604986128706916
 40
0.5604986128706916
 40
0.5614770547128313
 40
0.5614770547128313
 40
0.5614770547128313
 40
0.5615987238482244
 40
0.5615987238482244
 40
0.5615987238482244
 40
0.5629050959874544
 40
0.5629050959874544
 40
0.5629050959874544
 40
0.5642114681266845
 40
0.5642114681266845
 40
0.5642114681266845
 40
0.5668242124051447
 40
0.5668242124051447
 40
0.5668242124051447
 40
0.5721496807380971
 40
0.5721496807380971
 40
0.5721496807380971
 40
0.5808755847107215
 40
0.5808755847107215
 40
0.5808755847107215
 40
0.6123483344355628
 40
0.6123483344355628
 40
0.6123483344355628
 40
0.6735472353476084
 40
0.6735472353476084
 40
0.6735472353476084
 40
0.7102663842265222
 40
0.7102663842265222
 40
0.7102663842265222
 40
0.7443667489736839
 40
0.7443667489736839
 40
0.7443667489736839
 40
0.776724281129914
 40
0.776724281129914
 40
0.776724281129914
 40
0.8090881676742837
 40
0.8090881676742837
 40
0.8090881676742837
 40
0.8362042590665315
 40
0.8362042590665315
 40
0.8362042590665315
 40
0.8746886189437008
 40
0.8746886189437008
 40
0.8746886189437008
 40
0.9035525546018336
 40
0.9035525546018336
 40
0.9035525546018336
 40
0.9359150777372824
 40
0.9359150777372824
 40
0.9359150777372824
 40
0.970026429850359
 40
0.970026429850359
 40
0.970026429850359
 40
0.9822715623681032
 40
0.9822715623681032
 40
0.9822715623681032
 40
0.9910182339314862
 40
0.9910182339314862
 40
0.9910182339314862
 40
1.0
 40
1.0
 40
1.0
 40
1.0
 10
26.35294127647058
 20
243.79999989999996
 30
0.0
 10
26.34494113659767
 20
243.79962954425164
 30
0.0
 10
26.345182091741115
 20
243.79916970127337
 30
0.0
 10
26.353664141900865
 20
243.79862037106486
 30
0.0
 10
26.39742422666867
 20
243.79619275898256
 30
0.0
 10
26.46170148094496
 20
243.79405319050358
 30
0.0
 10
26.506769590647558
 20
243.78870825603502
 30
0.0
 10
26.55328603566265
 20
243.78329314165316
 30
0.0
 10
26.59226208476366
 20
243.77532452245285
 30
0.0
 10
26.62369773795067
 20
243.76480239843443
 30
0.0
 10
26.712490831698027
 20
243.73865002786724
 30
0.0
 10
26.83055990974386
 20
243.71091714610134
 30
0.0
 10
26.940596825380183
 20
243.67849191002034
 30
0.0
 10
27.117547217689413
 20
243.6269312655201
 30
0.0
 10
27.275070959247998
 20
243.55829294847038
 30
0.0
 10
27.4318023292114
 20
243.48012279541135
 30
0.0
 10
27.849716753731208
 20
243.27520740517016
 30
0.0
 10
28.234546437185962
 20
243.00038393420692
 30
0.0
 10
28.556652990753825
 20
242.66711092553862
 30
0.0
 10
29.140900536425143
 20
242.0723185854705
 30
0.0
 10
29.522309801679114
 20
241.2772359735111
 30
0.0
 10
29.595635253118317
 20
240.44462312693457
 30
0.0
 10
29.68036380291214
 20
239.54818049130998
 30
0.0
 10
29.416275254939364
 20
238.6323813699079
 30
0.0
 10
28.899952422500277
 20
237.8984717137046
 30
0.0
 10
28.36900393065865
 20
237.1363825835012
 30
0.0
 10
27.561036307379148
 20
236.55894573751453
 30
0.0
 10
26.649734944172735
 20
236.35575782633634
 30
0.0
 10
26.302679079404612
 20
236.27814930402954
 30
0.0
 10
25.9519291665994
 20
236.25357658560827
 30
0.0
 10
25.597485205757053
 20
236.2820396710726
 30
0.0
 10
25.149173056159086
 20
236.3174153576383
 30
0.0
 10
24.71035754981503
 20
236.43777068695812
 30
0.0
 10
24.29887010208094
 20
236.61666401249522
 30
0.0
 10
23.42867050822258
 20
236.99675715627023
 30
0.0
 10
22.68766030208745
 20
237.61234686288637
 30
0.0
 10
22.018505957809154
 20
238.27472767687894
 30
0.0
 10
20.75844627638971
 20
239.5303759283041
 30
0.0
 10
19.71892129446919
 20
240.9867489750362
 30
0.0
 10
18.45069601830574
 20
242.23470002022876
 30
0.0
 10
18.188395528435855
 20
242.49389988709692
 30
0.0
 10
17.913232219214457
 20
242.73842135277127
 30
0.0
 10
17.625206090641626
 20
242.96826441725244
 30
0.0
 10
17.43722067509394
 20
243.11784021337635
 30
0.0
 10
17.24051476653878
 20
243.25612679731427
 30
0.0
 10
17.035088364976083
 20
243.38312416906552
 30
0.0
 10
16.883598762448727
 20
243.47527713375658
 30
0.0
 10
16.734886888701872
 20
243.5604920148209
 30
0.0
 10
16.57270908972906
 20
243.63235165670918
 30
0.0
 10
16.49264784565584
 20
243.66764571791649
 30
0.0
 10
16.40113304951659
 20
243.701377570273
 30
0.0
 10
16.31786411669534
 20
243.72823493053946
 30
0.0
 10
16.230581258143726
 20
243.75488671988947
 30
0.0
 10
16.175997275900528
 20
243.78204767194455
 30
0.0
 10
16.072688217329294
 20
243.7933914905935
 30
0.0
 10
16.057830008146027
 20
243.7949739244214
 30
0.0
 10
16.044375645780075
 20
243.79610052842915
 30
0.0
 10
16.03232513023142
 20
243.79677130261672
 30
0.0
 10
16.019408213932564
 20
243.7976120105272
 30
0.0
 10
16.00177577509767
 20
243.798638226875
 30
0.0
 10
16.000043967979142
 20
243.79990494868173
 30
0.0
 10
16.00024137651681
 20
243.80005875705254
 30
0.0
 10
16.000438785054484
 20
243.80021256542327
 30
0.0
 10
16.000636193592157
 20
243.8003663737941
 30
0.0
 10
16.006826585953092
 20
243.80192618967902
 30
0.0
 10
16.033107611956986
 20
243.80298093399404
 30
0.0
 10
16.056053935055377
 20
243.80505213993078
 30
0.0
 10
16.08013055789995
 20
243.80709830073508
 30
0.0
 10
16.101809886493548
 20
243.8098636329261
 30
0.0
 10
16.121091920836147
 20
243.81334813650344
 30
0.0
 10
16.160104439300593
 20
243.82054743452505
 30
0.0
 10
16.184602696049655
 20
243.82826900853476
 30
0.0
 10
16.222747603069966
 20
243.84068396373297
 30
0.0
 10
16.303661997299688
 20
243.8667653194108
 30
0.0
 10
16.403750977907677
 20
243.89887458953098
 30
0.0
 10
16.49596002897296
 20
243.93551950709863
 30
0.0
 10
16.645123193345135
 20
243.99706635819425
 30
0.0
 10
16.787834674253567
 20
244.0687133140796
 30
0.0
 10
16.924094471698204
 20
244.150460374754
 30
0.0
 10
17.424625597180487
 20
244.44125275516961
 30
0.0
 10
17.86904917091018
 20
244.81403328620604
 30
0.0
 10
18.28820345344819
 20
245.20881463954026
 30
0.0
 10
19.101501385470744
 20
245.98165576401473
 30
0.0
 10
19.81447643557295
 20
246.8501826493463
 30
0.0
 10
20.543179636767263
 20
247.70081408917042
 30
0.0
 10
20.98018126949956
 20
248.21178658986494
 30
0.0
 10
21.42166208610428
 20
248.71975179541874
 30
0.0
 10
21.89326574154901
 20
249.19945511287835
 30
0.0
 10
22.331243504784588
 20
249.64413384484496
 30
0.0
 10
22.795863011817374
 20
250.0659248162732
 30
0.0
 10
23.308933338019934
 20
250.42329288774445
 30
0.0
 10
23.794778629233413
 20
250.76140702942314
 30
0.0
 10
24.328291973288607
 20
251.0407081396295
 30
0.0
 10
24.90198024424288
 20
251.19590136928494
 30
0.0
 10
25.47394503098984
 20
251.35257585032775
 30
0.0
 10
26.085028626319662
 20
251.37559613375177
 30
0.0
 10
26.66403003131653
 20
251.24099098924384
 30
0.0
 10
27.149098821472492
 20
251.12990297425745
 30
0.0
 10
27.608294210175742
 20
250.91333089256415
 30
0.0
 10
28.008100855213513
 20
250.6179827423828
 30
0.0
 10
28.57628811798105
 20
250.1990149113233
 30
0.0
 10
29.02715675261414
 20
249.62428969104886
 30
0.0
 10
29.30344794736046
 20
248.9750065179151
 30
0.0
 10
29.510995506163553
 20
248.48831227365199
 30
0.0
 10
29.619430505597506
 20
247.95846774761148
 30
0.0
 10
29.61043654353606
 20
247.42895354739957
 30
0.0
 10
29.60183828477666
 20
246.83535654765586
 30
0.0
 10
29.441971100050594
 20
246.24512592765558
 30
0.0
 10
29.1513810614002
 20
245.72768481368013
 30
0.0
 10
28.84619422856909
 20
245.18119197938455
 30
0.0
 10
28.401355805287345
 20
244.71673237380233
 30
0.0
 10
27.879071882530525
 20
244.37417631116176
 30
0.0
 10
27.69115084440663
 20
244.2507184995345
 30
0.0
 10
27.49430323348767
 20
244.14367966793174
 30
0.0
 10
27.28852904977368
 20
244.0530598163539
 30
0.0
 10
27.14169838917291
 20
243.98827807474643
 30
0.0
 10
26.991227926987627
 20
243.93368903825953
 30
0.0
 10
26.83711766321781
 20
243.8892927068928
 30
0.0
 10
26.67896514304917
 20
243.84535822854542
 30
0.0
 10
26.51747244565702
 20
243.80713691259675
 30
0.0
 10
26.35294127647058
 20
243.79999989999996
 30
0.0
  0
LINE
  5
36
330
17
100
AcDbEntity
  8
CUT
100
AcDbLine
 10
6.000000099999999
 20
63.24444434444441
 30
0.0
 11
12.0000001
 21
63.24444434444441
 31
0.0
  0
LINE
  5
37
330
17
100
AcDbEntity
  8
CUT
100
AcDbLine
 10
6.000000099999999
 20
92.68888878888885
 30
0.0
 11
6.000000099999999
 21
63.24444434444441
 31
0.0
  0
LINE
  5
38
330
17
100
AcDbEntity
  8
CUT
100
AcDbLine
 10
6.000000099999999
 20
122.13333323333329
 30
0.0
 11
12.0000001
 21
122.13333323333329
 31
0.0
  0
LINE
  5
39
330
17
100
AcDbEntity
  8
CUT
100
AcDbLine
 10
6.000000099999999
 20
151.57777767777773
 30
0.0
 11
6.000000099999999
 21
122.1333332333333
 31
0.0
  0
LINE
  5
3A
330
17
100
AcDbEntity
  8
CUT
100
AcDbLine
 10
6.000000099999999
 20
181.0222221222222
 30
0.0
 11
12.0000001
 21
181.0222221222222
 31
0.0
  0
LINE
  5
3B
330
17
100
AcDbEntity
  8
CUT
100
AcDbLine
 10
6.000000099999999
 20
210.46666656666662
 30
0.0
 11
6.000000099999999
 21
181.0222221222222
 31
0.0
  0
LINE
  5
3C
330
17
100
AcDbEntity
  8
CUT
100
AcDbLine
 10
6.000000099999999
 20
239.91111101111105
 30
0.0
 11
12.0000001
 21
239.91111101111105
 31
0.0
  0
LINE
  5
3D
330
17
100
AcDbEntity
  8
CUT
100
AcDbLine
 10
6.000000099999999
 20
269.35555545555553
 30
0.0
 11
6.000000099999999
 21
239.91111101111105
 31
0.0
  0
LINE
  5
3E
330
17
100
AcDbEntity
  8
CUT
100
AcDbLine
 10
12.0000001
 20
39.79999989999997
 30
0.0
 11
36.0000001
 21
39.79999989999997
 31
0.0
  0
LINE
  5
3F
330
17
100
AcDbEntity
  8
CUT
100
AcDbLine
 10
12.0000001
 20
63.24444434444441
 30
0.0
 11
12.0000001
 21
39.79999989999997
 31
0.0
  0
LINE
  5
40
330
17
100
AcDbEntity
  8
CUT
100
AcDbLine
 10
12.0000001
 20
92.68888878888885
 30
0.0
 11
6.000000099999999
 21
92.68888878888885
 31
0.0
  0
LINE
  5
41
330
17
100
AcDbEntity
  8
CUT
100
AcDbLine
 10
12.0000001
 20
122.13333323333329
 30
0.0
 11
12.0000001
 21
92.68888878888885
 31
0.0
  0
LINE
  5
42
330
17
100
AcDbEntity
  8
CUT
100
AcDbLine
 10
12.0000001
 20
151.57777767777773
 30
0.0
 11
6.000000099999999
 21
151.57777767777773
 31
0.0
  0
LINE
  5
43
330
17
100
AcDbEntity
  8
CUT
100
AcDbLine
 10
12.0000001
 20
181.0222221222222
 30
0.0
 11
12.0000001
 21
151.57777767777773
 31
0.0
  0
LINE
  5
44
330
17
100
AcDbEntity
  8
CUT
100
AcDbLine
 10
12.0000001
 20
210.46666656666662
 30
0.0
 11
6.000000099999999
 21
210.46666656666662
 31
0.0
  0
LINE
  5
45
330
17
100
AcDbEntity
  8
CUT
100
AcDbLine
 10
12.0000001
 20
239.91111101111105
 30
0.0
 11
12.0000001
 21
210.46666656666662
 31
0.0
  0
LINE
  5
46
330
17
100
AcDbEntity
  8
CUT
100
AcDbLine
 10
12.0000001
 20
269.35555545555553
 30
0.0
 11
6.000000099999999
 21
269.35555545555553
 31
0.0
  0
LINE
  5
47
330
17
100
AcDbEntity
  8
CUT
100
AcDbLine
 10
12.0000001
 20
298.7999999
 30
0.0
 11
12.0000001
 21
269.35555545555553
 31
0.0
  0
LINE
  5
48
330
17
100
AcDbEntity
  8
CUT
100
AcDbLine
 10
36.0000001
 20
33.79999989999997
 30
0.0
 11
66.0000001
 21
33.79999989999997
 31
0.0
  0
LINE
  5
49
330
17
100
AcDbEntity
  8
CUT
100
AcDbLine
 10
36.0000001
 20
39.79999989999997
 30
0.0
 11
36.0000001
 21
33.79999989999997
 31
0.0
  0
LINE
  5
4A
330
17
100
AcDbEntity
  8
CUT
100
AcDbLine
 10
36.0000001
 20
98.29999989999996
 30
0.0
 11
36.0000001
 21
128.29999989999996
 31
0.0
  0
LINE
  5
4B
330
17
100
AcDbEntity
  8
CUT
100
AcDbLine
 10
36.0000001
 20
128.29999989999996
 30
0.0
 11
42.0000001
 21
128.29999989999996
 31
0.0
  0
LINE
  5
4C
330
17
100
AcDbEntity
  8
CUT
100
AcDbLine
 10
36.0000001
 20
191.04999989999996
 30
0.0
 11
36.0000001
 21
221.04999989999996
 31
0.0
  0
LINE
  5
4D
330
17
100
AcDbEntity
  8
CUT
100
AcDbLine
 10
36.0000001
 20
221.04999989999996
 30
0.0
 11
42.0000001
 21
221.04999989999996
 31
0.0
  0
LINE
  5
4E
330
17
100
AcDbEntity
  8
CUT
100
AcDbLine
 10
42.0000001
 20
98.29999989999996
 30
0.0
 11
36.0000001
 21
98.29999989999996
 31
0.0
  0
LINE
  5
4F
330
17
100
AcDbEntity
  8
CUT
100
AcDbLine
 10
42.0000001
 20
128.29999989999996
 30
0.0
 11
42.0000001
 21
98.29999989999996
 31
0.0
  0
LINE
  5
50
330
17
100
AcDbEntity
  8
CUT
100
AcDbLine
 10
42.0000001
 20
191.04999989999996
 30
0.0
 11
36.0000001
 21
191.04999989999996
 31
0.0
  0
LINE
  5
51
330
17
100
AcDbEntity
  8
CUT
100
AcDbLine
 10
42.0000001
 20
221.04999989999996
 30
0.0
 11
42.0000001
 21
191.04999989999996
 31
0.0
  0
LINE
  5
52
330
17
100
AcDbEntity
  8
CUT
100
AcDbLine
 10
66.0000001
 20
33.79999989999997
 30
0.0
 11
66.0000001
 21
39.79999989999997
 31
0.0
  0
LINE
  5
53
330
17
100
AcDbEntity
  8
CUT
100
AcDbLine
 10
66.0000001
 20
39.79999989999997
 30
0.0
 11
96.0000001
 21
39.79999989999997
 31
0.0
  0
LINE
  5
54
330
17
100
AcDbEntity
  8
CUT
100
AcDbLine
 10
96.0000001
 20
33.79999989999997
 30
0.0
 11
126.0000001
 21
33.79999989999997
 31
0.0
  0
LINE
  5
55
330
17
100
AcDbEntity
  8
CUT
100
AcDbLine
 10
96.0000001
 20
39.79999989999997
 30
0.0
 11
96.0000001
 21
33.79999989999997
 31
0.0
  0
LINE
  5
56
330
17
100
AcDbEntity
  8
CUT
100
AcDbLine
 10
126.0000001
 20
33.79999989999997
 30
0.0
 11
126.0000001
 21
39.79999989999997
 31
0.0
  0
LINE
  5
57
330
17
100
AcDbEntity
  8
CUT
100
AcDbLine
 10
126.0000001
 20
39.79999989999997
 30
0.0
 11
156.0000001
 21
39.79999989999997
 31
0.0
  0
LINE
  5
58
330
17
100
AcDbEntity
  8
CUT
100
AcDbLine
 10
156.0000001
 20
33.79999989999997
 30
0.0
 11
186.0000001
 21
33.79999989999997
 31
0.0
  0
LINE
  5
59
330
17
100
AcDbEntity
  8
CUT
100
AcDbLine
 10
156.0000001
 20
39.79999989999997
 30
0.0
 11
156.0000001
 21
33.79999989999997
 31
0.0
  0
LINE
  5
5A
330
17
100
AcDbEntity
  8
CUT
100
AcDbLine
 10
186.00000010000002
 20
33.79999989999997
 30
0.0
 11
186.00000010000002
 21
39.79999989999997
 31
0.0
  0
LINE
  5
5B
330
17
100
AcDbEntity
  8
CUT
100
AcDbLine
 10
186.00000010000002
 20
39.79999989999997
 30
0.0
 11
216.00000010000002
 21
39.79999989999997
 31
0.0
  0
LINE
  5
5C
330
17
100
AcDbEntity
  8
CUT
100
AcDbLine
 10
216.0000001
 20
33.79999989999997
 30
0.0
 11
246.0000001
 21
33.79999989999997
 31
0.0
  0
LINE
  5
5D
330
17
100
AcDbEntity
  8
CUT
100
AcDbLine
 10
216.00000010000002
 20
39.79999989999997
 30
0.0
 11
216.00000010000002
 21
33.79999989999997
 31
0.0
  0
LINE
  5
5E
330
17
100
AcDbEntity
  8
CUT
100
AcDbLine
 10
241.7000001
 20
286.4999999
 30
0.0
 11
241.7000001
 21
293.0999999
 31
0.0
  0
LINE
  5
5F
330
17
100
AcDbEntity
  8
CUT
100
AcDbLine
 10
241.7000001
 20
293.0999999
 30
0.0
 11
258.30000010000003
 21
293.0999999
 31
0.0
  0
LINE
  5
60
330
17
100
AcDbEntity
  8
CUT
100
AcDbLine
 10
246.00000010000002
 20
33.79999989999997
 30
0.0
 11
246.00000010000002
 21
39.79999989999997
 31
0.0
  0
LINE
  5
61
330
17
100
AcDbEntity
  8
CUT
100
AcDbLine
 10
246.00000010000002
 20
39.79999989999997
 30
0.0
 11
270.0000001
 21
39.79999989999997
 31
0.0
  0
LINE
  5
62
330
17
100
AcDbEntity
  8
CUT
100
AcDbLine
 10
258.30000010000003
 20
286.4999999
 30
0.0
 11
241.7000001
 21
286.4999999
 31
0.0
  0
LINE
  5
63
330
17
100
AcDbEntity
  8
CUT
100
AcDbLine
 10
258.30000010000003
 20
293.0999999
 30
0.0
 11
258.30000010000003
 21
286.4999999
 31
0.0
  0
LINE
  5
64
330
17
100
AcDbEntity
  8
CUT
100
AcDbLine
 10
270.0000001
 20
39.79999989999997
 30
0.0
 11
270.0000001
 21
63.24444434444441
 31
0.0
  0
LINE
  5
65
330
17
100
AcDbEntity
  8
CUT
100
AcDbLine
 10
270.0000001
 20
63.24444434444441
 30
0.0
 11
276.0000001
 21
63.24444434444441
 31
0.0
  0
LINE
  5
66
330
17
100
AcDbEntity
  8
CUT
100
AcDbLine
 10
270.0000001
 20
92.68888878888885
 30
0.0
 11
270.0000001
 21
122.13333323333329
 31
0.0
  0
LINE
  5
67
330
17
100
AcDbEntity
  8
CUT
100
AcDbLine
 10
270.0000001
 20
122.13333323333329
 30
0.0
 11
276.0000001
 21
122.13333323333329
 31
0.0
  0
LINE
  5
68
330
17
100
AcDbEntity
  8
CUT
100
AcDbLine
 10
270.0000001
 20
151.57777767777773
 30
0.0
 11
270.0000001
 21
181.0222221222222
 31
0.0
  0
LINE
  5
69
330
17
100
AcDbEntity
  8
CUT
100
AcDbLine
 10
270.0000001
 20
181.0222221222222
 30
0.0
 11
276.0000001
 21
181.0222221222222
 31
0.0
  0
LINE
  5
6A
330
17
100
AcDbEntity
  8
CUT
100
AcDbLine
 10
270.0000001
 20
210.46666656666662
 30
0.0
 11
270.0000001
 21
239.91111101111105
 31
0.0
  0
LINE
  5
6B
330
17
100
AcDbEntity
  8
CUT
100
AcDbLine
 10
270.0000001
 20
239.91111101111105
 30
0.0
 11
276.0000001
 21
239.91111101111105
 31
0.0
  0
LINE
  5
6C
330
17
100
AcDbEntity
  8
CUT
100
AcDbLine
 10
270.0000001
 20
269.35555545555553
 30
0.0
 11
270.0000001
 21
298.7999999
 31
0.0
  0
LINE
  5
6D
330
17
100
AcDbEntity
  8
CUT
100
AcDbLine
 10
270.0000001
 20
298.7999999
 30
0.0
 11
12.0000001
 21
298.7999999
 31
0.0
  0
LINE
  5
6E
330
17
100
AcDbEntity
  8
CUT
100
AcDbLine
 10
276.0000001
 20
63.24444434444441
 30
0.0
 11
276.0000001
 21
92.68888878888885
 31
0.0
  0
LINE
  5
6F
330
17
100
AcDbEntity
  8
CUT
100
AcDbLine
 10
276.0000001
 20
92.68888878888885
 30
0.0
 11
270.0000001
 21
92.68888878888885
 31
0.0
  0
LINE
  5
70
330
17
100
AcDbEntity
  8
CUT
100
AcDbLine
 10
276.0000001
 20
122.1333332333333
 30
0.0
 11
276.0000001
 21
151.57777767777773
 31
0.0
  0
LINE
  5
71
330
17
100
AcDbEntity
  8
CUT
100
AcDbLine
 10
276.0000001
 20
151.57777767777773
 30
0.0
 11
270.0000001
 21
151.57777767777773
 31
0.0
  0
LINE
  5
72
330
17
100
AcDbEntity
  8
CUT
100
AcDbLine
 10
276.0000001
 20
181.0222221222222
 30
0.0
 11
276.0000001
 21
210.46666656666662
 31
0.0
  0
LINE
  5
73
330
17
100
AcDbEntity
  8
CUT
100
AcDbLine
 10
276.0000001
 20
210.46666656666662
 30
0.0
 11
270.0000001
 21
210.46666656666662
 31
0.0
  0
LINE
  5
74
330
17
100
AcDbEntity
  8
CUT
100
AcDbLine
 10
276.0000001
 20
239.91111101111105
 30
0.0
 11
276.0000001
 21
269.35555545555553
 31
0.0
  0
LINE
  5
75
330
17
100
AcDbEntity
  8
CUT
100
AcDbLine
 10
276.0000001
 20
269.35555545555553
 30
0.0
 11
270.0000001
 21
269.35555545555553
 31
0.0
  0
ENDSEC
  0
SECTION
  2
OBJECTS
  0
DICTIONARY
  5
A
330
0
100
AcDbDictionary
281
1
  3
ACAD_COLOR
350
B
  3
ACAD_GROUP
350
C
  3
ACAD_LAYOUT
350
D
  3
ACAD_MATERIAL
350
E
  3
ACAD_MLEADERSTYLE
350
F
  3
ACAD_MLINESTYLE
350
10
  3
ACAD_PLOTSETTINGS
350
11
  3
ACAD_PLOTSTYLENAME
350
12
  3
ACAD_SCALELIST
350
14
  3
ACAD_TABLESTYLE
350
15
  3
ACAD_VISUALSTYLE
350
16
  3
EZDXF_META
350
2D
  0
DICTIONARY
  5
B
330
A
100
AcDbDictionary
281
1
  0
DICTIONARY
  5
C
330
A
100
AcDbDictionary
281
1
  0
DICTIONARY
  5
D
330
A
100
AcDbDictionary
281
1
  3
Model
350
1A
  3
Layout1
350
1E
  0
DICTIONARY
  5
E
330
A
100
AcDbDictionary
281
1
  3
ByBlock
350
1F
  3
ByLayer
350
20
  3
Global
350
21
  0
DICTIONARY
  5
F
330
A
100
AcDbDictionary
281
1
  3
Standard
350
2C
  0
DICTIONARY
  5
10
330
A
100
AcDbDictionary
281
1
  3
Standard
350
22
  0
DICTIONARY
  5
11
330
A
100
AcDbDictionary
281
1
  0
ACDBDICTIONARYWDFLT
  5
12
330
A
100
AcDbDictionary
281
1
  3
Normal
350
13
100
AcDbDictionaryWithDefault
340
13
  0
ACDBPLACEHOLDER
  5
13
330
12
  0
DICTIONARY
  5
14
330
A
100
AcDbDictionary
281
1
  0
DICTIONARY
  5
15
330
A
100
AcDbDictionary
281
1
  0
DICTIONARY
  5
16
330
A
100
AcDbDictionary
281
1
  0
LAYOUT
  5
1A
330
D
100
AcDbPlotSettings
  1

  4
A3
  6

 40
7.5
 41
20.0
 42
7.5
 43
20.0
 44
420.0
 45
297.0
 46
0.0
 47
0.0
 48
0.0
 49
0.0
140
0.0
141
0.0
142
1.0
143
1.0
 70
1024
 72
1
 73
0
 74
5
  7

 75
16
 76
0
 77
2
 78
300
147
1.0
148
0.0
149
0.0
100
AcDbLayout
  1
Model
 70
1
 71
0
 10
0.0
 20
0.0
 11
420.0
 21
297.0
 12
0.0
 22
0.0
 32
0.0
 14
1e+20
 24
1e+20
 34
1e+20
 15
-1e+20
 25
-1e+20
 35
-1e+20
146
0.0
 13
0.0
 23
0.0
 33
0.0
 16
1.0
 26
0.0
 36
0.0
 17
0.0
 27
1.0
 37
0.0
 76
1
330
17
  0
LAYOUT
  5
1E
330
D
100
AcDbPlotSettings
  1

  4
A3
  6

 40
7.5
 41
20.0
 42
7.5
 43
20.0
 44
420.0
 45
297.0
 46
0.0
 47
0.0
 48
0.0
 49
0.0
140
0.0
141
0.0
142
1.0
143
1.0
 70
0
 72
1
 73
0
 74
5
  7

 75
16
 76
0
 77
2
 78
300
147
1.0
148
0.0
149
0.0
100
AcDbLayout
  1
Layout1
 70
1
 71
1
 10
0.0
 20
0.0
 11
420.0
 21
297.0
 12
0.0
 22
0.0
 32
0.0
 14
1e+20
 24
1e+20
 34
1e+20
 15
-1e+20
 25
-1e+20
 35
-1e+20
146
0.0
 13
0.0
 23
0.0
 33
0.0
 16
1.0
 26
0.0
 36
0.0
 17
0.0
 27
1.0
 37
0.0
 76
1
330
1B
  0
MATERIAL
  5
1F
102
{ACAD_REACTORS
330
E
102
}
330
E
100
AcDbMaterial
  1
ByBlock
  2

 70
0
 40
1.0
 71
1
 41
1.0
 91
-1023410177
 42
1.0
 72
1
  3

 73
1
 74
1
 75
1
 44
0.5
 73
0
 45
1.0
 46
1.0
 77
1
  4

 78
1
 79
1
170
1
 48
1.0
171
1
  6

172
1
173
1
174
1
140
1.0
141
1.0
175
1
  7

176
1
177
1
178
1
143
1.0
179
1
  8

270
1
271
1
272
1
145
1.0
146
1.0
273
1
  9

274
1
275
1
276
1
 42
1.0
 72
1
  3

 73
1
 74
1
 75
1
 94
63
  0
MATERIAL
  5
20
102
{ACAD_REACTORS
330
E
102
}
330
E
100
AcDbMaterial
  1
ByLayer
  2

 70
0
 40
1.0
 71
1
 41
1.0
 91
-1023410177
 42
1.0
 72
1
  3

 73
1
 74
1
 75
1
 44
0.5
 73
0
 45
1.0
 46
1.0
 77
1
  4

 78
1
 79
1
170
1
 48
1.0
171
1
  6

172
1
173
1
174
1
140
1.0
141
1.0
175
1
  7

176
1
177
1
178
1
143
1.0
179
1
  8

270
1
271
1
272
1
145
1.0
146
1.0
273
1
  9

274
1
275
1
276
1
 42
1.0
 72
1
  3

 73
1
 74
1
 75
1
 94
63
  0
MATERIAL
  5
21
102
{ACAD_REACTORS
330
E
102
}
330
E
100
AcDbMaterial
  1
Global
  2

 70
0
 40
1.0
 71
1
 41
1.0
 91
-1023410177
 42
1.0
 72
1
  3

 73
1
 74
1
 75
1
 44
0.5
 73
0
 45
1.0
 46
1.0
 77
1
  4

 78
1
 79
1
170
1
 48
1.0
171
1
  6

172
1
173
1
174
1
140
1.0
141
1.0
175
1
  7

176
1
177
1
178
1
143
1.0
179
1
  8

270
1
271
1
272
1
145
1.0
146
1.0
273
1
  9

274
1
275
1
276
1
 42
1.0
 72
1
  3

 73
1
 74
1
 75
1
 94
63
  0
MLINESTYLE
  5
22
102
{ACAD_REACTORS
330
10
102
}
330
10
100
AcDbMlineStyle
  2
Standard
 70
0
  3

 62
256
 51
90.0
 52
90.0
 71
2
 49
0.5
 62
256
  6
BYLAYER
 49
-0.5
 62
256
  6
BYLAYER
  0
MLEADERSTYLE
  5
2C
102
{ACAD_REACTORS
330
F
102
}
330
F
100
AcDbMLeaderStyle
179
2
170
2
171
1
172
0
 90
2
 40
0.0
 41
0.0
173
1
 91
-1056964608
 92
-2
290
1
 42
2.0
291
1
 43
8.0
  3
Standard
 44
4.0
300

342
29
174
1
175
1
176
0
178
1
 93
-1056964608
 45
4.0
292
0
297
0
 46
4.0
 94
-1056964608
 47
1.0
 49
1.0
140
1.0
294
1
141
0.0
177
0
142
1.0
295
0
296
0
143
3.75
271
0
272
9
273
9
  0
DICTIONARY
  5
2D
330
A
100
AcDbDictionary
280
1
281
1
  3
CREATED_BY_EZDXF
350
2E
  3
WRITTEN_BY_EZDXF
350
79
  0
DICTIONARYVAR
  5
2E
330
2D
100
DictionaryVariables
280
0
  1
0.0 @ 2000-01-01T00:00:00.000000+00:00
  0
DICTIONARYVAR
  5
79
330
2D
100
DictionaryVariables
280
0
  1
0.0 @ 2000-01-01T00:00:00.000000+00:00
  0
ENDSEC
  0
EOF
