  0
SECTION
  2
HEADER
  9
$ACADVER
  1
AC1027
  9
$ACADMAINTVER
 70
105
  9
$DWGCODEPAGE
  3
ANSI_1252
  9
$LASTSAVEDBY
  1
ezdxf
  9
$REQUIREDVERSIONS
160
0
  9
$INSBASE
 10
0.0
 20
0.0
 30
0.0
  9
$EXTMIN
 10
1e+20
 20
1e+20
 30
1e+20
  9
$EXTMAX
 10
-1e+20
 20
-1e+20
 30
-1e+20
  9
$LIMMIN
 10
0.0
 20
0.0
  9
$LIMMAX
 10
420.0
 20
297.0
  9
$ORTHOMODE
 70
0
  9
$REGENMODE
 70
1
  9
$FILLMODE
 70
1
  9
$QTEXTMODE
 70
0
  9
$MIRRTEXT
 70
1
  9
$LTSCALE
 40
1.0
  9
$ATTMODE
 70
1
  9
$TEXTSIZE
 40
2.5
  9
$TRACEWID
 40
1.0
  9
$TEXTSTYLE
  7
Standard
  9
$CLAYER
  8
0
  9
$CELTYPE
  6
ByLayer
  9
$CECOLOR
 62
256
  9
$CELTSCALE
 40
1.0
  9
$DISPSILH
 70
0
  9
$DIMSCALE
 40
1.0
  9
$DIMASZ
 40
2.5
  9
$DIMEXO
 40
0.625
  9
$DIMDLI
 40
3.75
  9
$DIMRND
 40
0.0
  9
$DIMDLE
 40
0.0
  9
$DIMEXE
 40
1.25
  9
$DIMTP
 40
0.0
  9
$DIMTM
 40
0.0
  9
$DIMTXT
 40
2.5
  9
$DIMCEN
 40
2.5
  9
$DIMTSZ
 40
0.0
  9
$DIMTOL
 70
0
  9
$DIMLIM
 70
0
  9
$DIMTIH
 70
0
  9
$DIMTOH
 70
0
  9
$DIMSE1
 70
0
  9
$DIMSE2
 70
0
  9
$DIMTAD
 70
1
  9
$DIMZIN
 70
8
  9
$DIMBLK
  1

  9
$DIMASO
 70
1
  9
$DIMSHO
 70
1
  9
$DIMPOST
  1

  9
$DIMAPOST
  1

  9
$DIMALT
 70
0
  9
$DIMALTD
 70
3
  9
$DIMALTF
 40
0.03937007874
  9
$DIMLFAC
 40
1.0
  9
$DIMTOFL
 70
1
  9
$DIMTVP
 40
0.0
  9
$DIMTIX
 70
0
  9
$DIMSOXD
 70
0
  9
$DIMSAH
 70
0
  9
$DIMBLK1
  1

  9
$DIMBLK2
  1

  9
$DIMSTYLE
  2
ISO-25
  9
$DIMCLRD
 70
0
  9
$DIMCLRE
 70
0
  9
$DIMCLRT
 70
0
  9
$DIMTFAC
 40
1.0
  9
$DIMGAP
 40
0.625
  9
$DIMJUST
 70
0
  9
$DIMSD1
 70
0
  9
$DIMSD2
 70
0
  9
$DIMTOLJ
 70
0
  9
$DIMTZIN
 70
8
  9
$DIMALTZ
 70
0
  9
$DIMALTTZ
 70
0
  9
$DIMUPT
 70
0
  9
$DIMDEC
 70
2
  9
$DIMTDEC
 70
2
  9
$DIMALTU
 70
2
  9
$DIMALTTD
 70
3
  9
$DIMTXSTY
  7
Standard
  9
$DIMAUNIT
 70
0
  9
$DIMADEC
 70
0
  9
$DIMALTRND
 40
0.0
  9
$DIMAZIN
 70
0
  9
$DIMDSEP
 70
44
  9
$DIMATFIT
 70
3
  9
$DIMFRAC
 70
0
  9
$DIMLDRBLK
  1

  9
$DIMLUNIT
 70
2
  9
$DIMLWD
 70
-2
  9
$DIMLWE
 70
-2
  9
$DIMTMOVE
 70
0
  9
$DIMFXL
 40
1.0
  9
$DIMFXLON
 70
0
  9
$DIMJOGANG
 40
0.785398163397
  9
$DIMTFILL
 70
0
  9
$DIMTFILLCLR
 70
0
  9
$DIMARCSYM
 70
0
  9
$DIMLTYPE
  6

  9
$DIMLTEX1
  6

  9
$DIMLTEX2
  6

  9
$DIMTXTDIRECTION
 70
0
  9
$LUNITS
 70
2
  9
$LUPREC
 70
4
  9
$SKETCHINC
 40
1.0
  9
$FILLETRAD
 40
10.0
  9
$AUNITS
 70
0
  9
$AUPREC
 70
2
  9
$MENU
  1
.
  9
$ELEVATION
 40
0.0
  9
$PELEVATION
 40
0.0
  9
$THICKNESS
 40
0.0
  9
$LIMCHECK
 70
0
  9
$CHAMFERA
 40
0.0
  9
$CHAMFERB
 40
0.0
  9
$CHAMFERC
 40
0.0
  9
$CHAMFERD
 40
0.0
  9
$SKPOLY
 70
0
  9
$TDCREATE
 40
2451545.0
  9
$TDUCREATE
 40
2451545.0
  9
$TDUPDATE
 40
2451545.0
  9
$TDUUPDATE
 40
2451545.0
  9
$TDINDWG
 40
0.0
  9
$TDUSRTIMER
 40
0.0
  9
$USRTIMER
 70
1
  9
$ANGBASE
 50
0.0
  9
$ANGDIR
 70
0
  9
$PDMODE
 70
0
  9
$PDSIZE
 40
0.0
  9
$PLINEWID
 40
0.0
  9
$SPLFRAME
 70
0
  9
$SPLINETYPE
 70
6
  9
$SPLINESEGS
 70
8
  9
$HANDSEED
  5
4E
  9
$SURFTAB1
 70
6
  9
$SURFTAB2
 70
6
  9
$SURFTYPE
 70
6
  9
$SURFU
 70
6
  9
$SURFV
 70
6
  9
$UCSBASE
  2

  9
$UCSNAME
  2

  9
$UCSORG
 10
0.0
 20
0.0
 30
0.0
  9
$UCSXDIR
 10
1.0
 20
0.0
 30
0.0
  9
$UCSYDIR
 10
0.0
 20
1.0
 30
0.0
  9
$UCSORTHOREF
  2

  9
$UCSORTHOVIEW
 70
0
  9
$UCSORGTOP
 10
0.0
 20
0.0
 30
0.0
  9
$UCSORGBOTTOM
 10
0.0
 20
0.0
 30
0.0
  9
$UCSORGLEFT
 10
0.0
 20
0.0
 30
0.0
  9
$UCSORGRIGHT
 10
0.0
 20
0.0
 30
0.0
  9
$UCSORGFRONT
 10
0.0
 20
0.0
 30
0.0
  9
$UCSORGBACK
 10
0.0
 20
0.0
 30
0.0
  9
$PUCSBASE
  2

  9
$PUCSNAME
  2

  9
$PUCSORG
 10
0.0
 20
0.0
 30
0.0
  9
$PUCSXDIR
 10
1.0
 20
0.0
 30
0.0
  9
$PUCSYDIR
 10
0.0
 20
1.0
 30
0.0
  9
$PUCSORTHOREF
  2

  9
$PUCSORTHOVIEW
 70
0
  9
$PUCSORGTOP
 10
0.0
 20
0.0
 30
0.0
  9
$PUCSORGBOTTOM
 10
0.0
 20
0.0
 30
0.0
  9
$PUCSORGLEFT
 10
0.0
 20
0.0
 30
0.0
  9
$PUCSORGRIGHT
 10
0.0
 20
0.0
 30
0.0
  9
$PUCSORGFRONT
 10
0.0
 20
0.0
 30
0.0
  9
$PUCSORGBACK
 10
0.0
 20
0.0
 30
0.0
  9
$USERI1
 70
0
  9
$USERI2
 70
0
  9
$USERI3
 70
0
  9
$USERI4
 70
0
  9
$USERI5
 70
0
  9
$USERR1
 40
0.0
  9
$USERR2
 40
0.0
  9
$USERR3
 40
0.0
  9
$USERR4
 40
0.0
  9
$USERR5
 40
0.0
  9
$WORLDVIEW
 70
1
  9
$SHADEDGE
 70
3
  9
$SHADEDIF
 70
70
  9
$TILEMODE
 70
1
  9
$MAXACTVP
 70
64
  9
$PINSBASE
 10
0.0
 20
0.0
 30
0.0
  9
$PLIMCHECK
 70
0
  9
$PEXTMIN
 10
1e+20
 20
1e+20
 30
1e+20
  9
$PEXTMAX
 10
-1e+20
 20
-1e+20
 30
-1e+20
  9
$PLIMMIN
 10
0.0
 20
0.0
  9
$PLIMMAX
 10
420.0
 20
297.0
  9
$UNITMODE
 70
0
  9
$VISRETAIN
 70
1
  9
$PLINEGEN
 70
0
  9
$PSLTSCALE
 70
1
  9
$TREEDEPTH
 70
3020
  9
$CMLSTYLE
  2
Standard
  9
$CMLJUST
 70
0
  9
$CMLSCALE
 40
20.0
  9
$PROXYGRAPHICS
 70
1
  9
$MEASUREMENT
 70
1
  9
$CELWEIGHT
370
-1
  9
$ENDCAPS
280
0
  9
$JOINSTYLE
280
0
  9
$LWDISPLAY
290
0
  9
$INSUNITS
 70
4
  9
$HYPERLINKBASE
  1

  9
$STYLESHEET
  1

  9
$XEDIT
290
1
  9
$CEPSNTYPE
380
0
  9
$PSTYLEMODE
290
1
  9
$FINGERPRINTGUID
  2
{00000000-0000-0000-0000-000000000000}
  9
$VERSIONGUID
  2
{00000000-0000-0000-0000-000000000000}
  9
$EXTNAMES
290
1
  9
$PSVPSCALE
 40
0.0
  9
$OLESTARTUP
290
0
  9
$SORTENTS
280
127
  9
$INDEXCTL
280
0
  9
$HIDETEXT
280
1
  9
$XCLIPFRAME
280
1
  9
$HALOGAP
280
0
  9
$OBSCOLOR
 70
257
  9
$OBSLTYPE
280
0
  9
$INTERSECTIONDISPLAY
280
0
  9
$INTERSECTIONCOLOR
 70
257
  9
$DIMASSOC
280
2
  9
$PROJECTNAME
  1

  9
$CAMERADISPLAY
290
0
  9
$LENSLENGTH
 40
50.0
  9
$CAMERAHEIGHT
 40
0.0
  9
$STEPSPERSEC
 40
24.0
  9
$STEPSIZE
 40
100.0
  9
$3DDWFPREC
 40
2.0
  9
$PSOLWIDTH
 40
0.005
  9
$PSOLHEIGHT
 40
0.08
  9
$LOFTANG1
 40
1.570796326795
  9
$LOFTANG2
 40
1.570796326795
  9
$LOFTMAG1
 40
0.0
  9
$LOFTMAG2
 40
0.0
  9
$LOFTPARAM
 70
7
  9
$LOFTNORMALS
280
1
  9
$LATITUDE
 40
37.795
  9
$LONGITUDE
 40
-122.394
  9
$NORTHDIRECTION
 40
0.0
  9
$TIMEZONE
 70
-8000
  9
$LIGHTGLYPHDISPLAY
280
1
  9
$TILEMODELIGHTSYNCH
280
1
  9
$CMATERIAL
347
20
  9
$SOLIDHIST
280
0
  9
$SHOWHIST
280
1
  9
$DWFFRAME
280
2
  9
$DGNFRAME
280
2
  9
$REALWORLDSCALE
290
1
  9
$INTERFERECOLOR
 62
256
  9
$CSHADOW
280
0
  9
$SHADOWPLANELOCATION
 40
0.0
  0
ENDSEC
  0
SECTION
  2
CLASSES
  0
CLASS
  1
ACDBDETAILVIEWSTYLE
  2
AcDbDetailViewStyle
  3
ObjectDBX Classes
 90
1025
 91
0
280
0
281
0
  0
CLASS
  1
ACDBDICTIONARYWDFLT
  2
AcDbDictionaryWithDefault
  3
ObjectDBX Classes
 90
0
 91
0
280
0
281
0
  0
CLASS
  1
ACDBPLACEHOLDER
  2
AcDbPlaceHolder
  3
ObjectDBX Classes
 90
0
 91
0
280
0
281
0
  0
CLASS
  1
ACDBSECTIONVIEWSTYLE
  2
AcDbSectionViewStyle
  3
ObjectDBX Classes
 90
1025
 91
0
280
0
281
0
  0
CLASS
  1
CELLSTYLEMAP
  2
AcDbCellStyleMap
  3
ObjectDBX Classes
 90
1152
 91
0
280
0
281
0
  0
CLASS
  1
DICTIONARYVAR
  2
AcDbDictionaryVar
  3
ObjectDBX Classes
 90
0
 91
0
280
0
281
0
  0
CLASS
  1
LAYOUT
  2
AcDbLayout
  3
ObjectDBX Classes
 90
0
 91
0
280
0
281
0
  0
CLASS
  1
MATERIAL
  2
AcDbMaterial
  3
ObjectDBX Classes
 90
1153
 91
0
280
0
281
0
  0
CLASS
  1
MENTALRAYRENDERSETTINGS
  2
AcDbMentalRayRenderSettings
  3
SCENEOE
 90
1024
 91
0
280
0
281
0
  0
CLASS
  1
MLEADERSTYLE
  2
AcDbMLeaderStyle
  3
ACDB_MLEADERSTYLE_CLASS
 90
4095
 91
0
280
0
281
0
  0
CLASS
  1
RASTERVARIABLES
  2
AcDbRasterVariables
  3
ISM
 90
0
 91
0
280
0
281
0
  0
CLASS
  1
SCALE
  2
AcDbScale
  3
ObjectDBX Classes
 90
1153
 91
0
280
0
281
0
  0
CLASS
  1
SUN
  2
AcDbSun
  3
SCENEOE
 90
1153
 91
0
280
0
281
0
  0
CLASS
  1
TABLESTYLE
  2
AcDbTableStyle
  3
ObjectDBX Classes
 90
4095
 91
0
280
0
281
0
  0
CLASS
  1
VISUALSTYLE
  2
AcDbVisualStyle
  3
ObjectDBX Classes
 90
4095
 91
0
280
0
281
0
  0
ENDSEC
  0
SECTION
  2
TABLES
  0
TABLE
  2
VPORT
  5
8
330
0
100
AcDbSymbolTable
 70
1
  0
VPORT
  5
4A
330
8
100
AcDbSymbolTableRecord
100
AcDbViewportTableRecord
  2
*Active
 70
0
 10
0.0
 20
0.0
 11
1.0
 21
1.0
 12
196.5
 22
-134.99999999999994
 13
0.0
 23
0.0
 14
0.5
 24
0.5
 15
0.5
 25
0.5
 16
0.0
 26
0.0
 36
1.0
 17
0.0
 27
0.0
 37
0.0
 40
270.0
 41
1.34
 42
50.0
 43
0.0
 44
0.0
 50
0.0
 51
0.0
 71
0
 72
1000
 73
1
 74
3
 75
0
 76
0
 77
0
 78
0
281
0
 65
1
110
0.0
120
0.0
130
0.0
111
1.0
121
0.0
131
0.0
112
0.0
122
1.0
132
0.0
 79
0
146
0.0
  0
ENDTAB
  0
TABLE
  2
LTYPE
  5
2
330
0
100
AcDbSymbolTable
 70
3
  0
LTYPE
  5
24
330
2
100
AcDbSymbolTableRecord
100
AcDbLinetypeTableRecord
  2
ByBlock
 70
0
  3

 72
65
 73
0
 40
0.0
  0
LTYPE
  5
25
330
2
100
AcDbSymbolTableRecord
100
AcDbLinetypeTableRecord
  2
ByLayer
 70
0
  3

 72
65
 73
0
 40
0.0
  0
LTYPE
  5
26
330
2
100
AcDbSymbolTableRecord
100
AcDbLinetypeTableRecord
  2
Continuous
 70
0
  3

 72
65
 73
0
 40
0.0
  0
ENDTAB
  0
TABLE
  2
LAYER
  5
1
330
0
100
AcDbSymbolTable
 70
3
  0
LAYER
  5
27
330
1
100
AcDbSymbolTableRecord
100
AcDbLayerTableRecord
  2
0
 70
0
 62
7
  6
Continuous
370
-3
390
13
347
21
  0
LAYER
  5
28
330
1
100
AcDbSymbolTableRecord
100
AcDbLayerTableRecord
  2
Defpoints
 70
0
 62
7
  6
Continuous
290
0
370
-3
390
13
347
21
  0
LAYER
  5
2F
330
1
100
AcDbSymbolTableRecord
100
AcDbLayerTableRecord
  2
CUT
 70
0
 62
7
  6
Continuous
370
-3
390
13
347
21
  0
ENDTAB
  0
TABLE
  2
STYLE
  5
5
330
0
100
AcDbSymbolTable
 70
1
  0
STYLE
  5
29
330
5
100
AcDbSymbolTableRecord
100
AcDbTextStyleTableRecord
  2
Standard
 70
0
 40
0.0
 41
1.0
 50
0.0
 71
0
 42
2.5
  3
txt
  4

  0
ENDTAB
  0
TABLE
  2
VIEW
  5
7
330
0
100
AcDbSymbolTable
 70
0
  0
ENDTAB
  0
TABLE
  2
UCS
  5
6
330
0
100
AcDbSymbolTable
 70
0
  0
ENDTAB
  0
TABLE
  2
APPID
  5
3
330
0
100
AcDbSymbolTable
 70
3
  0
APPID
  5
2A
330
3
100
AcDbSymbolTableRecord
100
AcDbRegAppTableRecord
  2
ACAD
 70
0
  0
APPID
  5
4B
330
3
100
AcDbSymbolTableRecord
100
AcDbRegAppTableRecord
  2
HATCHBACKGROUNDCOLOR
 70
0
  0
APPID
  5
4C
330
3
100
AcDbSymbolTableRecord
100
AcDbRegAppTableRecord
  2
EZDXF
 70
0
  0
ENDTAB
  0
TABLE
  2
DIMSTYLE
  5
4
330
0
100
AcDbSymbolTable
 70
1
100
AcDbDimStyleTable
  0
DIMSTYLE
105
2B
330
4
100
AcDbSymbolTableRecord
100
AcDbDimStyleTableRecord
  2
Standard
 70
0
 40
1.0
 41
2.5
 42
0.625
 43
3.75
 44
1.25
 45
0.0
 46
0.0
 47
0.0
 48
0.0
 49
2.5
140
2.5
141
2.5
142
0.0
143
0.03937007874
144
1.0
145
0.0
146
1.0
147
0.625
148
0.0
 69
0
 70
0
 71
0
 72
0
 73
0
 74
0
 75
0
 76
0
 77
1
 78
8
 79
3
170
0
171
3
172
1
173
0
174
0
175
0
176
0
177
0
178
0
179
2
271
2
272
2
273
2
274
3
275
0
276
0
277
2
278
44
279
0
280
0
281
0
282
0
283
0
284
8
285
0
286
0
288
0
289
3
290
0
371
-2
372
-2
  0
ENDTAB
  0
TABLE
  2
BLOCK_RECORD
  5
9
330
0
100
AcDbSymbolTable
 70
2
  0
BLOCK_RECORD
  5
17
330
9
100
AcDbSymbolTableRecord
100
AcDbBlockTableRecord
  2
*Model_Space
340
1A
 70
0
280
1
281
0
  0
BLOCK_RECORD
  5
1B
330
9
100
AcDbSymbolTableRecord
100
AcDbBlockTableRecord
  2
*Paper_Space
340
1E
 70
0
280
1
281
0
  0
ENDTAB
  0
ENDSEC
  0
SECTION
  2
BLOCKS
  0
BLOCK
  5
18
330
17
100
AcDbEntity
  8
0
100
AcDbBlockBegin
  2
*Model_Space
 70
0
 10
0.0
 20
0.0
 30
0.0
  3
*Model_Space
  1

  0
ENDBLK
  5
19
330
17
100
AcDbEntity
  8
0
100
AcDbBlockEnd
  0
BLOCK
  5
1C
330
1B
100
AcDbEntity
  8
0
100
AcDbBlockBegin
  2
*Paper_Space
 70
0
 10
0.0
 20
0.0
 30
0.0
  3
*Paper_Space
  1

  0
ENDBLK
  5
1D
330
1B
100
AcDbEntity
  8
0
100
AcDbBlockEnd
  0
ENDSEC
  0
SECTION
  2
ENTITIES
  0
SPLINE
  5
30
330
17
100
AcDbEntity
  8
CUT
100
AcDbSpline
 70
0
 71
3
 72
125
 73
121
 74
0
 40
0.0
 40
0.0
 40
0.0
 40
0.0
 40
0.0005266961195539028
 40
0.0005266961195539028
 40
0.0005266961195539028
 40
0.0035251994896050016
 40
0.0035251994896050016
 40
0.0035251994896050016
 40
0.006523702859656101
 40
0.006523702859656101
 40
0.006523702859656101
 40
0.0142838973394839
 40
0.0142838973394839
 40
0.0142838973394839
 40
0.0266234769546488
 40
0.0266234769546488
 40
0.0266234769546488
 40
0.05916070197457439
 40
0.05916070197457439
 40
0.05916070197457439
 40
0.11754254064615892
 40
0.11754254064615892
 40
0.11754254064615892
 40
0.18041838718243994
 40
0.18041838718243994
 40
0.18041838718243994
 40
0.24554180872842324
 40
0.24554180872842324
 40
0.24554180872842324
 40
0.2702455613832845
 40
0.2702455613832845
 40
0.2702455613832845
 40
0.3016855114104965
 40
0.3016855114104965
 40
0.3016855114104965
 40
0.3679185532621386
 40
0.3679185532621386
 40
0.3679185532621386
 40
0.492498903355825
 40
0.492498903355825
 40
0.492498903355825
 40
0.518311910635637
 40
0.518311910635637
 40
0.518311910635637
 40
0.5351398745463987
 40
0.5351398745463987
 40
0.5351398745463987
 40
0.5474789058606183
 40
0.5474789058606183
 40
0.5474789058606183
 40
0.553499538465041
 40
0.553499538465041
 40
0.553499538465041
 40
0.5595201710694636
 40
0.5595201710694636
 40
0.5595201710694636
 40
0.5604986129115401
 40
0.5604986129115401
 40
0.5604986129115401
 40
0.5614770547536165
 40
0.5614770547536165
 40
0.5614770547536165
 40
0.5615987238889989
 40
0.5615987238889989
 40
0.5615987238889989
 40
0.5629050960281177
 40
0.5629050960281177
 40
0.5629050960281177
 40
0.5642114681672363
 40
0.5642114681672363
 40
0.5642114681672363
 40
0.5668242124454737
 40
0.5668242124454737
 40
0.5668242124454737
 40
0.5721496807780335
 40
0.5721496807780335
 40
0.5721496807780335
 40
0.580875584750022
 40
0.580875584750022
 40
0.580875584750022
 40
0.6123483344727384
 40
0.6123483344727384
 40
0.6123483344727384
 40
0.6735472353799387
 40
0.6735472353799387
 40
0.6735472353799387
 40
0.7102663842558398
 40
0.7102663842558398
 40
0.7102663842558398
 40
0.744366749000356
 40
0.744366749000356
 40
0.744366749000356
 40
0.7767242811533066
 40
0.7767242811533066
 40
0.7767242811533066
 40
0.8090881676943107
 40
0.8090881676943107
 40
0.8090881676943107
 40
0.8362042590836445
 40
0.8362042590836445
 40
0.8362042590836445
 40
0.874688618956866
 40
0.874688618956866
 40
0.874688618956866
 40
0.9035525546119522
 40
0.9035525546119522
 40
0.9035525546119522
 40
0.935915077744032
 40
0.935915077744032
 40
0.935915077744032
 40
0.9700264298535486
 40
0.9700264298535486
 40
0.9700264298535486
 40
0.9822715623700186
 40
0.9822715623700186
 40
0.9822715623700186
 40
0.9910182339324974
 40
0.9910182339324974
 40
0.9910182339324974
 40
1.0
 40
1.0
 40
1.0
 40
1.0
 10
40.0
 20
-18.352941176470555
 30
0.0
 10
39.99962964425184
 20
-18.34494103659747
 30
0.0
 10
39.99916980127345
 20
-18.345181991740898
 30
0.0
 10
39.998620471064825
 20
-18.353664041900842
 30
0.0
 10
39.99619285898275
 20
-18.397424126668767
 30
0.0
 10
39.994053290503615
 20
-18.461701380944767
 30
0.0
 10
39.988708356035076
 20
-18.50676949064752
 30
0.0
 10
39.983293241653186
 20
-18.553285935662633
 30
0.0
 10
39.97532462245296
 20
-18.592261984763653
 30
0.0
 10
39.964802498434416
 20
-18.62369763795064
 30
0.0
 10
39.938650127867064
 20
-18.71249073169797
 30
0.0
 10
39.91091724610159
 20
-18.83055980974385
 30
0.0
 10
39.87849201002043
 20
-18.940596725380153
 30
0.0
 10
39.82693136552031
 20
-19.11754711768933
 30
0.0
 10
39.75829304847044
 20
-19.275070859248025
 30
0.0
 10
39.680122895411415
 20
-19.43180222921137
 30
0.0
 10
39.47520750516777
 20
-19.849716653738035
 30
0.0
 10
39.20038403419256
 20
-20.234546337201756
 30
0.0
 10
38.867111025538684
 20
-20.556652890753778
 30
0.0
 10
38.27231868547691
 20
-21.140900436418413
 30
0.0
 10
37.477236073528424
 20
-21.522309701675223
 30
0.0
 10
36.64462322693465
 20
-21.595635153118295
 30
0.0
 10
35.748180591330005
 20
-21.680363702912956
 30
0.0
 10
34.83238146990568
 20
-21.416275154942262
 30
0.0
 10
34.09847181370467
 20
-20.89995232250026
 30
0.0
 10
33.33638268349763
 20
-20.36900383065495
 30
0.0
 10
32.75894583751926
 20
-19.561036207385648
 30
0.0
 10
32.555757926336426
 20
-18.649734844172716
 30
0.0
 10
32.47814940402961
 20
-18.302678979404696
 30
0.0
 10
32.45357668560839
 20
-17.951929066599487
 30
0.0
 10
32.48203977107267
 20
-17.59748510575704
 30
0.0
 10
32.517415457632566
 20
-17.149172956201873
 30
0.0
 10
32.6377707869475
 20
-16.710357449837137
 30
0.0
 10
32.81666411249525
 20
-16.298870002080918
 30
0.0
 10
33.19675725621037
 20
-15.428670408325804
 30
0.0
 10
33.812346962877726
 20
-14.687660202081872
 30
0.0
 10
34.47472777687902
 20
-14.018505857809112
 30
0.0
 10
35.73037602830106
 20
-12.758446176392189
 30
0.0
 10
37.186749075029304
 20
-11.718921194475403
 30
0.0
 10
38.43470012022873
 20
-10.450695918305705
 30
0.0
 10
38.69389998709851
 20
-10.188395428433953
 30
0.0
 10
38.93842145277302
 20
-9.913232119212568
 30
0.0
 10
39.16826451725242
 20
-9.625205990641584
 30
0.0
 10
39.31784031337655
 20
-9.437220575093821
 30
0.0
 10
39.4561268973143
 20
-9.240514666538648
 30
0.0
 10
39.58312426906563
 20
-9.035088264976057
 30
0.0
 10
39.67527723375659
 20
-8.883598662448678
 30
0.0
 10
39.76049211482099
 20
-8.734886788701866
 30
0.0
 10
39.83235175670921
 20
-8.57270898972903
 30
0.0
 10
39.86764581791644
 20
-8.492647745655782
 30
0.0
 10
39.90137767027315
 20
-8.401132949516645
 30
0.0
 10
39.92823503053943
 20
-8.317864016695273
 30
0.0
 10
39.9548868198897
 20
-8.230581158143833
 30
0.0
 10
39.98204777194448
 20
-8.175997175900433
 30
0.0
 10
39.993391590593596
 20
-8.072688117329266
 30
0.0
 10
39.99497402442146
 20
-8.057829908145974
 30
0.0
 10
39.996100628429225
 20
-8.044375545780023
 30
0.0
 10
39.99677140261685
 20
-8.032325030231384
 30
0.0
 10
39.99761211052733
 20
-8.019408113932533
 30
0.0
 10
39.998638326875124
 20
-8.001775675097635
 30
0.0
 10
39.999905048681796
 20
-8.000043867979114
 30
0.0
 10
40.00005885705257
 20
-8.000241276516778
 30
0.0
 10
40.00021266542339
 20
-8.000438685054455
 30
0.0
 10
40.000366473794166
 20
-8.000636093592126
 30
0.0
 10
40.00192628967914
 20
-8.006826485953065
 30
0.0
 10
40.00298103399395
 20
-8.03310751195695
 30
0.0
 10
40.005052239930805
 20
-8.056053835055357
 30
0.0
 10
40.00709840073517
 20
-8.080130457899966
 30
0.0
 10
40.009863732926064
 20
-8.101809786493563
 30
0.0
 10
40.01334823650349
 20
-8.121091820836135
 30
0.0
 10
40.02054753452498
 20
-8.160104339300377
 30
0.0
 10
40.02826910853482
 20
-8.184602596049816
 30
0.0
 10
40.04068406373291
 20
-8.222747503069932
 30
0.0
 10
40.06676541941076
 20
-8.303661897299666
 30
0.0
 10
40.0988746895311
 20
-8.403750877907662
 30
0.0
 10
40.135519607098644
 20
-8.495959928972937
 30
0.0
 10
40.19706645819434
 20
-8.645123093345122
 30
0.0
 10
40.26871341407951
 20
-8.787834574253534
 30
0.0
 10
40.35046047475395
 20
-8.92409437169817
 30
0.0
 10
40.64125285517088
 20
-9.424625497182086
 30
0.0
 10
41.01403338620467
 20
-9.869049070908451
 30
0.0
 10
41.40881473954034
 20
-10.288203353448163
 30
0.0
 10
42.18165586401777
 20
-11.101501285473583
 30
0.0
 10
43.050182749349545
 20
-11.814476335575604
 30
0.0
 10
43.90081418917045
 20
-12.543179536767232
 30
0.0
 10
44.41178668986813
 20
-12.98018116950225
 30
0.0
 10
44.919751895420376
 20
-13.421661986105718
 30
0.0
 10
45.39945521287852
 20
-13.893265641548982
 30
0.0
 10
45.84413394484565
 20
-14.331243404785338
 30
0.0
 10
46.265924916275154
 20
-14.795862911819638
 30
0.0
 10
46.62329298774448
 20
-15.308933238019915
 30
0.0
 10
46.96140712941814
 20
-15.79477852922553
 30
0.0
 10
47.24070823962943
 20
-16.328291873286602
 30
0.0
 10
47.39590146928504
 20
-16.901980144242856
 30
0.0
 10
47.552575950327565
 20
-17.473944930988566
 30
0.0
 10
47.57559623375193
 20
-18.085028526319167
 30
0.0
 10
47.44099108924393
 20
-18.664029931316513
 30
0.0
 10
47.329903074259306
 20
-19.149098721468818
 30
0.0
 10
47.11333099256233
 20
-19.60829411017901
 30
0.0
 10
46.817982842382854
 20
-20.008100755213487
 30
0.0
 10
46.39901501132473
 20
-20.576288017980083
 30
0.0
 10
45.824289791046525
 20
-21.02715665261567
 30
0.0
 10
45.17500661791515
 20
-21.30344784736044
 30
0.0
 10
44.68831237365219
 20
-21.51099540616344
 30
0.0
 10
44.15846784761196
 20
-21.619430405597463
 30
0.0
 10
43.628953647399584
 20
-21.610436443536035
 30
0.0
 10
43.03535664765503
 20
-21.601838184776902
 30
0.0
 10
42.44512602765202
 20
-21.44197100004897
 30
0.0
 10
41.92768491368015
 20
-21.15138096140018
 30
0.0
 10
41.38119207938439
 20
-20.8461941285688
 30
0.0
 10
40.91673247380235
 20
-20.401355705287372
 30
0.0
 10
40.57417641116181
 20
-19.87907178253051
 30
0.0
 10
40.45071859953435
 20
-19.691150744406524
 30
0.0
 10
40.34367976793174
 20
-19.494303133487588
 30
0.0
 10
40.253059916353955
 20
-19.28852894977366
 30
0.0
 10
40.18827817474648
 20
-19.141698289172883
 30
0.0
 10
40.133689138259484
 20
-18.9912278269876
 30
0.0
 10
40.08929280689283
 20
-18.837117563217777
 30
0.0
 10
40.045358328545554
 20
-18.678965043049114
 30
0.0
 10
40.007137012596694
 20
-18.51747234565703
 30
0.0
 10
40.0
 20
-18.352941176470555
 30
0.0
  0
SPLINE
  5
31
330
17
100
AcDbEntity
  8
CUT
100
AcDbSpline
 70
0
 71
3
 72
125
 73
121
 74
0
 40
0.0
 40
0.0
 40
0.0
 40
0.0
 40
0.0005266961194942705
 40
0.0005266961194942705
 40
0.0005266961194942705
 40
0.0035251994890812197
 40
0.0035251994890812197
 40
0.0035251994890812197
 40
0.006523702858668169
 40
0.006523702858668169
 40
0.006523702858668169
 40
0.014283897337113365
 40
0.014283897337113365
 40
0.014283897337113365
 40
0.026623476950148918
 40
0.026623476950148918
 40
0.026623476950148918
 40
0.059160701963797434
 40
0.059160701963797434
 40
0.059160701963797434
 40
0.11754254062881886
 40
0.11754254062881886
 40
0.11754254062881886
 40
0.18041838716222802
 40
0.18041838716222802
 40
0.18041838716222802
 40
0.24554180870302147
 40
0.24554180870302147
 40
0.24554180870302147
 40
0.27024556135617195
 40
0.27024556135617195
 40
0.27024556135617195
 40
0.301685511383474
 40
0.301685511383474
 40
0.301685511383474
 40
0.36791855323670747
 40
0.36791855323670747
 40
0.36791855323670747
 40
0.4924989033329863
 40
0.4924989033329863
 40
0.4924989033329863
 40
0.5183119106138887
 40
0.5183119106138887
 40
0.5183119106138887
 40
0.5351398745256559
 40
0.5351398745256559
 40
0.5351398745256559
 40
0.5474789058405973
 40
0.5474789058405973
 40
0.5474789058405973
 40
0.5534995384453827
 40
0.5534995384453827
 40
0.5534995384453827
 40
0.559520171050168
 40
0.559520171050168
 40
0.559520171050168
 40
0.5604986128922975
 40
0.5604986128922975
 40
0.5604986128922975
 40
0.561477054734427
 40
0.561477054734427
 40
0.561477054734427
 40
0.561598723869808
 40
0.561598723869808
 40
0.561598723869808
 40
0.5629050960089483
 40
0.5629050960089483
 40
0.5629050960089483
 40
0.5642114681480885
 40
0.5642114681480885
 40
0.5642114681480885
 40
0.5668242124263689
 40
0.5668242124263689
 40
0.5668242124263689
 40
0.5721496807589974
 40
0.5721496807589974
 40
0.5721496807589974
 40
0.5808755847311067
 40
0.5808755847311067
 40
0.5808755847311067
 40
0.6123483344543542
 40
0.6123483344543542
 40
0.6123483344543542
 40
0.6735472353640068
 40
0.6735472353640068
 40
0.6735472353640068
 40
0.7102663842414726
 40
0.7102663842414726
 40
0.7102663842414726
 40
0.7443667489873187
 40
0.7443667489873187
 40
0.7443667489873187
 40
0.7767242811421091
 40
0.7767242811421091
 40
0.7767242811421091
 40
0.8090881676850596
 40
0.8090881676850596
 40
0.8090881676850596
 40
0.8362042590759449
 40
0.8362042590759449
 40
0.8362042590759449
 40
0.8746886189510206
 40
0.8746886189510206
 40
0.8746886189510206
 40
0.9035525546075325
 40
0.9035525546075325
 40
0.9035525546075325
 40
0.9359150777410097
 40
0.9359150777410097
 40
0.9359150777410097
 40
0.9700264298521108
 40
0.9700264298521108
 40
0.9700264298521108
 40
0.9822715623691581
 40
0.9822715623691581
 40
0.9822715623691581
 40
0.9910182339320254
 40
0.9910182339320254
 40
0.9910182339320254
 40
1.0
 40
1.0
 40
1.0
 40
1.0
 10
70.0
 20
-20.352941176470555
 30
0.0
 10
69.99962964425184
 20
-20.344941036597554
 30
0.0
 10
69.99916980127348
 20
-20.345181991740986
 30
0.0
 10
69.99862047106484
 20
-20.353664041900835
 30
0.0
 10
69.9961928589827
 20
-20.39742412666856
 30
0.0
 10
69.99405329050367
 20
-20.461701380945016
 30
0.0
 10
69.98870835603509
 20
-20.506769490647507
 30
0.0
 10
69.98329324165314
 20
-20.55328593566262
 30
0.0
 10
69.975324622453
 20
-20.592261984763677
 30
0.0
 10
69.96480249843442
 20
-20.623697637950638
 30
0.0
 10
69.93865012786709
 20
-20.71249073169798
 30
0.0
 10
69.91091724610162
 20
-20.83055980974384
 30
0.0
 10
69.87849201002045
 20
-20.940596725380153
 30
0.0
 10
69.8269313655203
 20
-21.117547117689337
 30
0.0
 10
69.75829304847042
 20
-21.275070859248004
 30
0.0
 10
69.68012289541142
 20
-21.431802229211353
 30
0.0
 10
69.4752075051627
 20
-21.84971665374647
 30
0.0
 10
69.20038403419254
 20
-22.234546337200776
 30
0.0
 10
68.8671110255387
 20
-22.556652890753774
 30
0.0
 10
68.27231868542091
 20
-23.140900436463138
 30
0.0
 10
67.47723607350474
 20
-23.522309701670633
 30
0.0
 10
66.64462322693464
 20
-23.59563515311829
 30
0.0
 10
65.74818059133996
 20
-23.68036370291348
 30
0.0
 10
64.83238146990521
 20
-23.41627515494388
 30
0.0
 10
64.09847181370466
 20
-22.89995232250024
 30
0.0
 10
63.33638268349306
 20
-22.369003830652893
 30
0.0
 10
62.75894583751708
 20
-21.56103620737755
 30
0.0
 10
62.5557579263364
 20
-20.649734844172716
 30
0.0
 10
62.47814940402962
 20
-20.30267897940473
 30
0.0
 10
62.45357668560834
 20
-19.951929066599504
 30
0.0
 10
62.482039771072664
 20
-19.59748510575704
 30
0.0
 10
62.517415457636154
 20
-19.149172956176706
 30
0.0
 10
62.637770786953524
 20
-18.710357449824496
 30
0.0
 10
62.816664112495246
 20
-18.298870002080907
 30
0.0
 10
63.19675725621185
 20
-17.42867040832596
 30
0.0
 10
63.8123469628658
 20
-16.687660202094957
 30
0.0
 10
64.47472777687904
 20
-16.018505857809117
 30
0.0
 10
65.73037602830958
 20
-14.75844617638501
 30
0.0
 10
67.18674907504193
 20
-13.718921194464203
 30
0.0
 10
68.43470012022875
 20
-12.450695918305705
 30
0.0
 10
68.69389998710307
 20
-12.18839542842876
 30
0.0
 10
68.93842145277765
 20
-11.91323211920739
 30
0.0
 10
69.16826451725244
 20
-11.625205990641586
 30
0.0
 10
69.31784031337664
 20
-11.437220575093836
 30
0.0
 10
69.4561268973143
 20
-11.240514666538651
 30
0.0
 10
69.58312426906564
 20
-11.035088264976045
 30
0.0
 10
69.67527723375655
 20
-10.883598662448668
 30
0.0
 10
69.76049211482106
 20
-10.734886788701843
 30
0.0
 10
69.8323517567092
 20
-10.572708989729021
 30
0.0
 10
69.86764581791644
 20
-10.492647745655779
 30
0.0
 10
69.90137767027315
 20
-10.40113294951662
 30
0.0
 10
69.92823503053943
 20
-10.31786401669529
 30
0.0
 10
69.95488681988974
 20
-10.230581158143703
 30
0.0
 10
69.98204777194445
 20
-10.175997175900525
 30
0.0
 10
69.99339159059356
 20
-10.072688117329252
 30
0.0
 10
69.99497402442147
 20
-10.057829908145967
 30
0.0
 10
69.99610062842918
 20
-10.044375545780005
 30
0.0
 10
69.99677140261683
 20
-10.032325030231378
 30
0.0
 10
69.99761211052734
 20
-10.019408113932535
 30
0.0
 10
69.99863832687512
 20
-10.00177567509763
 30
0.0
 10
69.99990504868184
 20
-10.00004386797911
 30
0.0
 10
70.00005885705258
 20
-10.000241276516782
 30
0.0
 10
70.00021266542343
 20
-10.000438685054453
 30
0.0
 10
70.00036647379417
 20
-10.00063609359213
 30
0.0
 10
70.00192628967919
 20
-10.006826485953086
 30
0.0
 10
70.00298103399398
 20
-10.033107511956949
 30
0.0
 10
70.00505223993082
 20
-10.056053835055371
 30
0.0
 10
70.00709840073515
 20
-10.080130457899958
 30
0.0
 10
70.00986373292608
 20
-10.10180978649355
 30
0.0
 10
70.01334823650355
 20
-10.121091820836135
 30
0.0
 10
70.02054753452501
 20
-10.160104339300434
 30
0.0
 10
70.02826910853477
 20
-10.18460259604977
 30
0.0
 10
70.04068406373294
 20
-10.222747503069943
 30
0.0
 10
70.06676541941081
 20
-10.303661897299664
 30
0.0
 10
70.09887468953106
 20
-10.403750877907669
 30
0.0
 10
70.13551960709866
 20
-10.495959928972942
 30
0.0
 10
70.19706645819437
 20
-10.645123093345122
 30
0.0
 10
70.26871341407951
 20
-10.787834574253543
 30
0.0
 10
70.35046047475397
 20
-10.92409437169817
 30
0.0
 10
70.64125285517153
 20
-11.424625497183364
 30
0.0
 10
71.01403338620811
 20
-11.869049070912256
 30
0.0
 10
71.40881473954039
 20
-12.288203353448164
 30
0.0
 10
72.18165586401719
 20
-13.101501285472695
 30
0.0
 10
73.05018274933892
 20
-13.814476335566603
 30
0.0
 10
73.90081418917049
 20
-14.543179536767244
 30
0.0
 10
74.41178668986542
 20
-14.98018116949996
 30
0.0
 10
74.91975189541932
 20
-15.42166198610463
 30
0.0
 10
75.39945521287854
 20
-15.893265641548979
 30
0.0
 10
75.84413394484476
 20
-16.3312434047846
 30
0.0
 10
76.26592491627379
 20
-16.795862911817757
 30
0.0
 10
76.62329298774446
 20
-17.308933238019904
 30
0.0
 10
76.96140712942487
 20
-17.79477852923604
 30
0.0
 10
77.24070823962947
 20
-18.32829187328928
 30
0.0
 10
77.39590146928506
 20
-18.90198014424286
 30
0.0
 10
77.55257595032668
 20
-19.473944930984167
 30
0.0
 10
77.57559623375255
 20
-20.08502852631823
 30
0.0
 10
77.4409910892439
 20
-20.664029931316495
 30
0.0
 10
77.329903074259
 20
-21.149098721469066
 30
0.0
 10
77.11333099256392
 20
-21.60829411017634
 30
0.0
 10
76.81798284238283
 20
-22.008100755213484
 30
0.0
 10
76.39901501132789
 20
-22.57628801797586
 30
0.0
 10
75.82428979105266
 20
-23.02715665261269
 30
0.0
 10
75.17500661791512
 20
-23.303447847360435
 30
0.0
 10
74.68831237365212
 20
-23.510995406163435
 30
0.0
 10
74.15846784761186
 20
-23.619430405597456
 30
0.0
 10
73.62895364739957
 20
-23.610436443536038
 30
0.0
 10
73.03535664765751
 20
-23.601838184776465
 30
0.0
 10
72.4451260276588
 20
-23.441971000052114
 30
0.0
 10
71.92768491368017
 20
-23.151380961400175
 30
0.0
 10
71.38119207938398
 20
-22.84619412856859
 30
0.0
 10
70.91673247380218
 20
-22.401355705286992
 30
0.0
 10
70.5741764111618
 20
-21.87907178253052
 30
0.0
 10
70.45071859953433
 20
-21.691150744406542
 30
0.0
 10
70.34367976793179
 20
-21.494303133487616
 30
0.0
 10
70.25305991635398
 20
-21.288528949773664
 30
0.0
 10
70.1882781747465
 20
-21.141698289172886
 30
0.0
 10
70.13368913825948
 20
-20.9912278269876
 30
0.0
 10
70.08929280689286
 20
-20.83711756321779
 30
0.0
 10
70.04535832854552
 20
-20.678965043049118
 30
0.0
 10
70.00713701259671
 20
-20.517472345657016
 30
0.0
 10
70.00000000000001
 20
-20.352941176470555
 30
0.0
  0
SPLINE
  5
32
330
17
100
AcDbEntity
  8
CUT
100
AcDbSpline
 70
0
 71
3
 72
125
 73
121
 74
0
 40
0.0
 40
0.0
 40
0.0
 40
0.0
 40
0.0005266961195384113
 40
0.0005266961195384113
 40
0.0005266961195384113
 40
0.0035251994894706707
 40
0.0035251994894706707
 40
0.0035251994894706707
 40
0.00652370285940293
 40
0.00652370285940293
 40
0.00652370285940293
 40
0.01428389733864742
 40
0.01428389733864742
 40
0.01428389733864742
 40
0.026623476952964686
 40
0.026623476952964686
 40
0.026623476952964686
 40
0.05916070196969145
 40
0.05916070196969145
 40
0.05916070196969145
 40
0.11754254063714055
 40
0.11754254063714055
 40
0.11754254063714055
 40
0.1804183871716336
 40
0.1804183871716336
 40
0.1804183871716336
 40
0.2455418087125895
 40
0.2455418087125895
 40
0.2455418087125895
 40
0.27024556136544325
 40
0.27024556136544325
 40
0.27024556136544325
 40
0.301685511392603
 40
0.301685511392603
 40
0.301685511392603
 40
0.3679185532430957
 40
0.3679185532430957
 40
0.3679185532430957
 40
0.4924989033318741
 40
0.4924989033318741
 40
0.4924989033318741
 40
0.5183119106112801
 40
0.5183119106112801
 40
0.5183119106112801
 40
0.5351398745222261
 40
0.5351398745222261
 40
0.5351398745222261
 40
0.5474789058364772
 40
0.5474789058364772
 40
0.5474789058364772
 40
0.5534995384409798
 40
0.5534995384409798
 40
0.5534995384409798
 40
0.5595201710454825
 40
0.5595201710454825
 40
0.5595201710454825
 40
0.5604986128875669
 40
0.5604986128875669
 40
0.5604986128875669
 40
0.5614770547296513
 40
0.5614770547296513
 40
0.5614770547296513
 40
0.561598723865042
 40
0.561598723865042
 40
0.561598723865042
 40
0.5629050960041706
 40
0.5629050960041706
 40
0.5629050960041706
 40
0.5642114681432994
 40
0.5642114681432994
 40
0.5642114681432994
 40
0.5668242124215568
 40
0.5668242124215568
 40
0.5668242124215568
 40
0.57214968075418
 40
0.57214968075418
 40
0.57214968075418
 40
0.5808755847262979
 40
0.5808755847262979
 40
0.5808755847262979
 40
0.6123483344494206
 40
0.6123483344494206
 40
0.6123483344494206
 40
0.6735472353588399
 40
0.6735472353588399
 40
0.6735472353588399
 40
0.7102663842358425
 40
0.7102663842358425
 40
0.7102663842358425
 40
0.7443667489811965
 40
0.7443667489811965
 40
0.7443667489811965
 40
0.7767242811365993
 40
0.7767242811365993
 40
0.7767242811365993
 40
0.8090881676804025
 40
0.8090881676804025
 40
0.8090881676804025
 40
0.8362042590720763
 40
0.8362042590720763
 40
0.8362042590720763
 40
0.8746886189481977
 40
0.8746886189481977
 40
0.8746886189481977
 40
0.9035525546053811
 40
0.9035525546053811
 40
0.9035525546053811
 40
0.9359150777396573
 40
0.9359150777396573
 40
0.9359150777396573
 40
0.9700264298515073
 40
0.9700264298515073
 40
0.9700264298515073
 40
0.9822715623688134
 40
0.9822715623688134
 40
0.9822715623688134
 40
0.991018233931873
 40
0.991018233931873
 40
0.991018233931873
 40
1.0
 40
1.0
 40
1.0
 40
1.0
 10
100.0
 20
-18.352941176470555
 30
0.0
 10
99.99962964425183
 20
-18.344941036597486
 30
0.0
 10
99.99916980127344
 20
-18.345181991740915
 30
0.0
 10
99.9986204710648
 20
-18.353664041900835
 30
0.0
 10
99.99619285898278
 20
-18.39742412666846
 30
0.0
 10
99.99405329050357
 20
-18.461701380945023
 30
0.0
 10
99.98870835603506
 20
-18.506769490647557
 30
0.0
 10
99.98329324165319
 20
-18.553285935662576
 30
0.0
 10
99.97532462245296
 20
-18.592261984763606
 30
0.0
 10
99.96480249843442
 20
-18.623697637950624
 30
0.0
 10
99.9386501278671
 20
-18.712490731697983
 30
0.0
 10
99.91091724610162
 20
-18.830559809743832
 30
0.0
 10
99.87849201002041
 20
-18.940596725380146
 30
0.0
 10
99.82693136552021
 20
-19.117547117689337
 30
0.0
 10
99.75829304847042
 20
-19.275070859247982
 30
0.0
 10
99.68012289541144
 20
-19.43180222921137
 30
0.0
 10
99.47520750516239
 20
-19.849716653745542
 30
0.0
 10
99.20038403420068
 20
-20.234546337191347
 30
0.0
 10
98.8671110255387
 20
-20.556652890753785
 30
0.0
 10
98.27231868541031
 20
-21.140900436471348
 30
0.0
 10
97.47723607350096
 20
-21.522309701669688
 30
0.0
 10
96.64462322693466
 20
-21.59563515311829
 30
0.0
 10
95.74818059132815
 20
-21.680363702911766
 30
0.0
 10
94.83238146991506
 20
-21.41627515494619
 30
0.0
 10
94.09847181370469
 20
-20.89995232250026
 30
0.0
 10
93.33638268351375
 20
-20.3690038306703
 30
0.0
 10
92.75894583751676
 20
-19.561036207387957
 30
0.0
 10
92.5557579263364
 20
-18.649734844172716
 30
0.0
 10
92.47814940402962
 20
-18.302678979404607
 30
0.0
 10
92.45357668560838
 20
-17.951929066599387
 30
0.0
 10
92.48203977107265
 20
-17.597485105757055
 30
0.0
 10
92.51741545763667
 20
-17.14917295617158
 30
0.0
 10
92.63777078695492
 20
-16.71035744982146
 30
0.0
 10
92.81666411249527
 20
-16.29887000208093
 30
0.0
 10
93.19675725618511
 20
-15.428670408372898
 30
0.0
 10
93.81234696285766
 20
-14.68766020209719
 30
0.0
 10
94.47472777687899
 20
-14.018505857809137
 30
0.0
 10
95.73037602829397
 20
-12.758446176398463
 30
0.0
 10
97.18674907503691
 20
-11.71892119446861
 30
0.0
 10
98.43470012022874
 20
-10.450695918305728
 30
0.0
 10
98.69389998710534
 20
-10.188395428426158
 30
0.0
 10
98.93842145277992
 20
-9.9132321192048
 30
0.0
 10
99.16826451725244
 20
-9.62520599064161
 30
0.0
 10
99.31784031337651
 20
-9.437220575093857
 30
0.0
 10
99.45612689731433
 20
-9.240514666538681
 30
0.0
 10
99.58312426906559
 20
-9.035088264976066
 30
0.0
 10
99.6752772337566
 20
-8.883598662448724
 30
0.0
 10
99.76049211482093
 20
-8.73488678870185
 30
0.0
 10
99.83235175670926
 20
-8.572708989729044
 30
0.0
 10
99.86764581791638
 20
-8.492647745655844
 30
0.0
 10
99.90137767027315
 20
-8.401132949516617
 30
0.0
 10
99.92823503053945
 20
-8.317864016695307
 30
0.0
 10
99.95488681988975
 20
-8.230581158143819
 30
0.0
 10
99.98204777194441
 20
-8.175997175900473
 30
0.0
 10
99.99339159059355
 20
-8.072688117329285
 30
0.0
 10
99.99497402442141
 20
-8.057829908146019
 30
0.0
 10
99.99610062842919
 20
-8.044375545780065
 30
0.0
 10
99.9967714026168
 20
-8.032325030231409
 30
0.0
 10
99.99761211052738
 20
-8.019408113932556
 30
0.0
 10
99.99863832687507
 20
-8.00177567509766
 30
0.0
 10
99.99990504868185
 20
-8.000043867979112
 30
0.0
 10
100.00005885705257
 20
-8.00024127651678
 30
0.0
 10
100.00021266542345
 20
-8.00043868505445
 30
0.0
 10
100.00036647379419
 20
-8.00063609359212
 30
0.0
 10
100.00192628967922
 20
-8.006826485953042
 30
0.0
 10
100.00298103399392
 20
-8.033107511956878
 30
0.0
 10
100.00505223993082
 20
-8.056053835055316
 30
0.0
 10
100.00709840073519
 20
-8.080130457899942
 30
0.0
 10
100.00986373292608
 20
-8.101809786493545
 30
0.0
 10
100.01334823650349
 20
-8.12109182083612
 30
0.0
 10
100.020547534525
 20
-8.160104339300311
 30
0.0
 10
100.0282691085348
 20
-8.184602596049832
 30
0.0
 10
100.04068406373291
 20
-8.222747503069906
 30
0.0
 10
100.06676541941074
 20
-8.303661897299643
 30
0.0
 10
100.09887468953109
 20
-8.403750877907642
 30
0.0
 10
100.13551960709864
 20
-8.495959928972912
 30
0.0
 10
100.19706645819429
 20
-8.6451230933451
 30
0.0
 10
100.26871341407949
 20
-8.787834574253523
 30
0.0
 10
100.35046047475393
 20
-8.92409437169815
 30
0.0
 10
100.64125285516987
 20
-9.424625497180552
 30
0.0
 10
101.0140333862047
 20
-9.869049070908645
 30
0.0
 10
101.4088147395403
 20
-10.288203353448141
 30
0.0
 10
102.18165586401781
 20
-11.101501285473546
 30
0.0
 10
103.05018274934713
 20
-11.814476335573524
 30
0.0
 10
103.9008141891704
 20
-12.543179536767214
 30
0.0
 10
104.41178668987105
 20
-12.980181169504684
 30
0.0
 10
104.91975189542161
 20
-13.421661986106958
 30
0.0
 10
105.39945521287851
 20
-13.893265641548961
 30
0.0
 10
105.84413394484181
 20
-14.331243404781956
 30
0.0
 10
106.26592491626737
 20
-14.79586291180956
 30
0.0
 10
106.62329298774448
 20
-15.308933238019883
 30
0.0
 10
106.96140712943489
 20
-15.794778529252069
 30
0.0
 10
107.24070823962963
 20
-16.32829187329321
 30
0.0
 10
107.39590146928502
 20
-16.901980144242835
 30
0.0
 10
107.55257595032697
 20
-17.473944930986093
 30
0.0
 10
107.57559623375232
 20
-18.085028526318254
 30
0.0
 10
107.44099108924391
 20
-18.664029931316485
 30
0.0
 10
107.32990307425773
 20
-19.149098721472008
 30
0.0
 10
107.11333099256494
 20
-19.608294110174306
 30
0.0
 10
106.81798284238286
 20
-20.008100755213462
 30
0.0
 10
106.39901501133389
 20
-20.5762880179689
 30
0.0
 10
105.82428979105532
 20
-21.02715665261241
 30
0.0
 10
105.1750066179152
 20
-21.303447847360424
 30
0.0
 10
104.6883123736522
 20
-21.510995406163406
 30
0.0
 10
104.158467847612
 20
-21.619430405597473
 30
0.0
 10
103.62895364739961
 20
-21.61043644353603
 30
0.0
 10
103.0353566476572
 20
-21.601838184776742
 30
0.0
 10
102.445126027656
 20
-21.441971000050874
 30
0.0
 10
101.92768491368018
 20
-21.151380961400196
 30
0.0
 10
101.38119207938458
 20
-20.84619412856895
 30
0.0
 10
100.91673247380241
 20
-20.401355705287482
 30
0.0
 10
100.57417641116183
 20
-19.87907178253054
 30
0.0
 10
100.45071859953438
 20
-19.691150744406563
 30
0.0
 10
100.34367976793172
 20
-19.49430313348761
 30
0.0
 10
100.25305991635399
 20
-19.288528949773685
 30
0.0
 10
100.18827817474651
 20
-19.141698289172904
 30
0.0
 10
100.1336891382595
 20
-18.991227826987625
 30
0.0
 10
100.0892928068929
 20
-18.83711756321782
 30
0.0
 10
100.04535832854556
 20
-18.67896504304916
 30
0.0
 10
100.0071370125967
 20
-18.517472345657012
 30
0.0
 10
100.00000000000001
 20
-18.352941176470555
 30
0.0
  0
SPLINE
  5
33
330
17
100
AcDbEntity
  8
CUT
100
AcDbSpline
 70
0
 71
3
 72
125
 73
121
 74
0
 40
0.0
 40
0.0
 40
0.0
 40
0.0
 40
0.0005266961195743538
 40
0.0005266961195743538
 40
0.0005266961195743538
 40
0.003525199489941775
 40
0.003525199489941775
 40
0.003525199489941775
 40
0.006523702860309196
 40
0.006523702860309196
 40
0.006523702860309196
 40
0.01428389734078436
 40
0.01428389734078436
 40
0.01428389734078436
 40
0.02662347695748641
 40
0.02662347695748641
 40
0.02662347695748641
 40
0.059160701979808036
 40
0.059160701979808036
 40
0.059160701979808036
 40
0.11754254065401831
 40
0.11754254065401831
 40
0.11754254065401831
 40
0.18041838719423867
 40
0.18041838719423867
 40
0.18041838719423867
 40
0.24554180874102285
 40
0.24554180874102285
 40
0.24554180874102285
 40
0.27024556139595124
 40
0.27024556139595124
 40
0.27024556139595124
 40
0.301685511426932
 40
0.301685511426932
 40
0.301685511426932
 40
0.36791855329103096
 40
0.36791855329103096
 40
0.36791855329103096
 40
0.49249890340843827
 40
0.49249890340843827
 40
0.49249890340843827
 40
0.5183119106928519
 40
0.5183119106928519
 40
0.5183119106928519
 40
0.5351398746066516
 40
0.5351398746066516
 40
0.5351398746066516
 40
0.5474789059229492
 40
0.5474789059229492
 40
0.5474789059229492
 40
0.5534995385284818
 40
0.5534995385284818
 40
0.5534995385284818
 40
0.5595201711340142
 40
0.5595201711340142
 40
0.5595201711340142
 40
0.5604986129762549
 40
0.5604986129762549
 40
0.5604986129762549
 40
0.5614770548184956
 40
0.5614770548184956
 40
0.5614770548184956
 40
0.5615987239539103
 40
0.5615987239539103
 40
0.5615987239539103
 40
0.5629050960927882
 40
0.5629050960927882
 40
0.5629050960927882
 40
0.564211468231666
 40
0.564211468231666
 40
0.564211468231666
 40
0.5668242125094217
 40
0.5668242125094217
 40
0.5668242125094217
 40
0.5721496808409229
 40
0.5721496808409229
 40
0.5721496808409229
 40
0.5808755848111913
 40
0.5808755848111913
 40
0.5808755848111913
 40
0.612348334527976
 40
0.612348334527976
 40
0.612348334527976
 40
0.6735472354259917
 40
0.6735472354259917
 40
0.6735472354259917
 40
0.7102663842964115
 40
0.7102663842964115
 40
0.7102663842964115
 40
0.744366749035665
 40
0.744366749035665
 40
0.744366749035665
 40
0.776724281184097
 40
0.776724281184097
 40
0.776724281184097
 40
0.8090881677207881
 40
0.8090881677207881
 40
0.8090881677207881
 40
0.8362042591065038
 40
0.8362042591065038
 40
0.8362042591065038
 40
0.87468861897436
 40
0.87468861897436
 40
0.87468861897436
 40
0.9035525546254646
 40
0.9035525546254646
 40
0.9035525546254646
 40
0.9359150777530031
 40
0.9359150777530031
 40
0.9359150777530031
 40
0.9700264298577652
 40
0.9700264298577652
 40
0.9700264298577652
 40
0.9822715623725233
 40
0.9822715623725233
 40
0.9822715623725233
 40
0.9910182339337578
 40
0.9910182339337578
 40
0.9910182339337578
 40
1.0
 40
1.0
 40
1.0
 40
1.0
 10
130.0
 20
-20.352941176470555
 30
0.0
 10
129.9996296442517
 20
-20.344941036597806
 30
0.0
 10
129.99916980127335
 20
-20.34518199174123
 30
0.0
 10
129.99862047106478
 20
-20.353664041900842
 30
0.0
 10
129.99619285898274
 20
-20.3974241266686
 30
0.0
 10
129.99405329050344
 20
-20.461701380944994
 30
0.0
 10
129.98870835603506
 20
-20.50676949064751
 30
0.0
 10
129.9832932416531
 20
-20.553285935662597
 30
0.0
 10
129.97532462245297
 20
-20.59226198476367
 30
0.0
 10
129.96480249843444
 20
-20.623697637950634
 30
0.0
 10
129.9386501278673
 20
-20.712490731697986
 30
0.0
 10
129.91091724610152
 20
-20.830559809743843
 30
0.0
 10
129.8784920100204
 20
-20.940596725380153
 30
0.0
 10
129.8269313655203
 20
-21.11754711768943
 30
0.0
 10
129.75829304847042
 20
-21.27507085924792
 30
0.0
 10
129.68012289541144
 20
-21.43180222921137
 30
0.0
 10
129.47520750516495
 20
-21.84971665374091
 30
0.0
 10
129.20038403420267
 20
-22.234546337189546
 30
0.0
 10
128.86711102553866
 20
-22.5566528907538
 30
0.0
 10
128.27231868546394
 20
-23.14090043642921
 30
0.0
 10
127.47723607352049
 20
-23.52230970167475
 30
0.0
 10
126.64462322693463
 20
-23.59563515311829
 30
0.0
 10
125.74818059131924
 20
-23.68036370291128
 30
0.0
 10
124.83238146991906
 20
-23.416275154946007
 30
0.0
 10
124.09847181370465
 20
-22.899952322500248
 30
0.0
 10
123.33638268353499
 20
-22.36900383069039
 30
0.0
 10
122.75894583751472
 20
-21.56103620739329
 30
0.0
 10
122.55575792633637
 20
-20.649734844172706
 30
0.0
 10
122.47814940402965
 20
-20.302678979404593
 30
0.0
 10
122.45357668560834
 20
-19.95192906659936
 30
0.0
 10
122.48203977107265
 20
-19.59748510575703
 30
0.0
 10
122.51741545763815
 20
-19.14917295616229
 30
0.0
 10
122.63777078695726
 20
-18.71035744981632
 30
0.0
 10
122.81666411249526
 20
-18.29887000208091
 30
0.0
 10
123.196757256228
 20
-17.42867040829623
 30
0.0
 10
123.81234696287444
 20
-16.68766020209022
 30
0.0
 10
124.474727776879
 20
-16.018505857809117
 30
0.0
 10
125.73037602829508
 20
-14.758446176397639
 30
0.0
 10
127.18674907504311
 20
-13.718921194463128
 30
0.0
 10
128.4347001202287
 20
-12.45069591830571
 30
0.0
 10
128.6938999870988
 20
-12.18839542843348
 30
0.0
 10
128.93842145277347
 20
-11.913232119212113
 30
0.0
 10
129.16826451725242
 20
-11.625205990641597
 30
0.0
 10
129.31784031337648
 20
-11.437220575093836
 30
0.0
 10
129.4561268973144
 20
-11.240514666538662
 30
0.0
 10
129.58312426906565
 20
-11.035088264976059
 30
0.0
 10
129.67527723375647
 20
-10.883598662448698
 30
0.0
 10
129.76049211482095
 20
-10.73488678870184
 30
0.0
 10
129.83235175670924
 20
-10.572708989729025
 30
0.0
 10
129.86764581791653
 20
-10.492647745655828
 30
0.0
 10
129.90137767027306
 20
-10.401132949516542
 30
0.0
 10
129.92823503053947
 20
-10.317864016695301
 30
0.0
 10
129.9548868198895
 20
-10.230581158143726
 30
0.0
 10
129.98204777194465
 20
-10.175997175900546
 30
0.0
 10
129.99339159059357
 20
-10.07268811732926
 30
0.0
 10
129.9949740244215
 20
-10.05782990814599
 30
0.0
 10
129.9961006284292
 20
-10.044375545780044
 30
0.0
 10
129.99677140261682
 20
-10.03232503023139
 30
0.0
 10
129.99761211052726
 20
-10.019408113932535
 30
0.0
 10
129.99863832687512
 20
-10.001775675097639
 30
0.0
 10
129.99990504868174
 20
-10.000043867979109
 30
0.0
 10
130.0000588570525
 20
-10.00024127651678
 30
0.0
 10
130.00021266542336
 20
-10.000438685054451
 30
0.0
 10
130.0003664737942
 20
-10.00063609359213
 30
0.0
 10
130.0019262896791
 20
-10.00682648595306
 30
0.0
 10
130.00298103399402
 20
-10.03310751195695
 30
0.0
 10
130.00505223993082
 20
-10.056053835055355
 30
0.0
 10
130.00709840073512
 20
-10.080130457899935
 30
0.0
 10
130.00986373292608
 20
-10.101809786493526
 30
0.0
 10
130.0133482365035
 20
-10.121091820836131
 30
0.0
 10
130.020547534525
 20
-10.160104339300613
 30
0.0
 10
130.02826910853474
 20
-10.184602596049558
 30
0.0
 10
130.04068406373293
 20
-10.222747503069925
 30
0.0
 10
130.06676541941073
 20
-10.303661897299659
 30
0.0
 10
130.09887468953113
 20
-10.403750877907646
 30
0.0
 10
130.13551960709864
 20
-10.495959928972923
 30
0.0
 10
130.19706645819423
 20
-10.645123093345104
 30
0.0
 10
130.26871341407957
 20
-10.78783457425353
 30
0.0
 10
130.350460474754
 20
-10.924094371698168
 30
0.0
 10
130.6412528551762
 20
-11.424625497190915
 30
0.0
 10
131.0140333862163
 20
-11.86904907092099
 30
0.0
 10
131.4088147395403
 20
-12.288203353448164
 30
0.0
 10
132.18165586401906
 20
-13.101501285474622
 30
0.0
 10
133.0501827493457
 20
-13.814476335572317
 30
0.0
 10
133.90081418917046
 20
-14.543179536767239
 30
0.0
 10
134.41178668986728
 20
-14.980181169501568
 30
0.0
 10
134.91975189542012
 20
-15.421661986105489
 30
0.0
 10
135.39945521287856
 20
-15.893265641548975
 30
0.0
 10
135.84413394484318
 20
-16.33124340478337
 30
0.0
 10
136.26592491627073
 20
-16.795862911813764
 30
0.0
 10
136.62329298774443
 20
-17.308933238019907
 30
0.0
 10
136.96140712942594
 20
-17.79477852923782
 30
0.0
 10
137.24070823962947
 20
-18.328291873289672
 30
0.0
 10
137.3959014692851
 20
-18.901980144242856
 30
0.0
 10
137.5525759503267
 20
-19.473944930984782
 30
0.0
 10
137.57559623375246
 20
-20.085028526319103
 30
0.0
 10
137.4409910892439
 20
-20.6640299313165
 30
0.0
 10
137.32990307425808
 20
-21.149098721471674
 30
0.0
 10
137.11333099256413
 20
-21.60829411017553
 30
0.0
 10
136.81798284238283
 20
-22.008100755213487
 30
0.0
 10
136.399015011326
 20
-22.57628801797823
 30
0.0
 10
135.8242897910493
 20
-23.02715665261438
 30
0.0
 10
135.17500661791516
 20
-23.303447847360435
 30
0.0
 10
134.68831237365214
 20
-23.510995406163467
 30
0.0
 10
134.15846784761197
 20
-23.619430405597438
 30
0.0
 10
133.62895364739958
 20
-23.61043644353603
 30
0.0
 10
133.03535664765516
 20
-23.601838184776856
 30
0.0
 10
132.44512602765275
 20
-23.441971000049282
 30
0.0
 10
131.92768491368014
 20
-23.15138096140017
 30
0.0
 10
131.38119207938476
 20
-22.846194128569106
 30
0.0
 10
130.91673247380234
 20
-22.40135570528749
 30
0.0
 10
130.57417641116186
 20
-21.879071782530502
 30
0.0
 10
130.4507185995343
 20
-21.69115074440656
 30
0.0
 10
130.34367976793175
 20
-21.49430313348762
 30
0.0
 10
130.25305991635398
 20
-21.288528949773664
 30
0.0
 10
130.1882781747465
 20
-21.14169828917288
 30
0.0
 10
130.13368913825948
 20
-20.991227826987593
 30
0.0
 10
130.08929280689287
 20
-20.837117563217788
 30
0.0
 10
130.04535832854555
 20
-20.678965043049143
 30
0.0
 10
130.00713701259673
 20
-20.517472345657005
 30
0.0
 10
130.0
 20
-20.352941176470555
 30
0.0
  0
SPLINE
  5
34
330
17
100
AcDbEntity
  8
CUT
100
AcDbSpline
 70
0
 71
3
 72
125
 73
121
 74
0
 40
0.0
 40
0.0
 40
0.0
 40
0.0
 40
0.0005266961195412034
 40
0.0005266961195412034
 40
0.0005266961195412034
 40
0.0035251994893487452
 40
0.0035251994893487452
 40
0.0035251994893487452
 40
0.006523702859156287
 40
0.006523702859156287
 40
0.006523702859156287
 40
0.014283897338299458
 40
0.014283897338299458
 40
0.014283897338299458
 40
0.02662347695277563
 40
0.02662347695277563
 40
0.02662347695277563
 40
0.05916070196956926
 40
0.05916070196956926
 40
0.05916070196956926
 40
0.11754254064197746
 40
0.11754254064197746
 40
0.11754254064197746
 40
0.18041838718323197
 40
0.18041838718323197
 40
0.18041838718323197
 40
0.24554180873500067
 40
0.24554180873500067
 40
0.24554180873500067
 40
0.2702455613923527
 40
0.2702455613923527
 40
0.2702455613923527
 40
0.30168551142247224
 40
0.30168551142247224
 40
0.30168551142247224
 40
0.36791855328246853
 40
0.36791855328246853
 40
0.36791855328246853
 40
0.4924989033933345
 40
0.4924989033933345
 40
0.4924989033933345
 40
0.5183119106767068
 40
0.5183119106767068
 40
0.5183119106767068
 40
0.5351398745898486
 40
0.5351398745898486
 40
0.5351398745898486
 40
0.5474789059058135
 40
0.5474789059058135
 40
0.5474789059058135
 40
0.5534995385111683
 40
0.5534995385111683
 40
0.5534995385111683
 40
0.559520171116523
 40
0.559520171116523
 40
0.559520171116523
 40
0.5604986129587362
 40
0.5604986129587362
 40
0.5604986129587362
 40
0.5614770548009493
 40
0.5614770548009493
 40
0.5614770548009493
 40
0.5615987239363697
 40
0.5615987239363697
 40
0.5615987239363697
 40
0.5629050960753643
 40
0.5629050960753643
 40
0.5629050960753643
 40
0.564211468214359
 40
0.564211468214359
 40
0.564211468214359
 40
0.5668242124923483
 40
0.5668242124923483
 40
0.5668242124923483
 40
0.5721496808243604
 40
0.5721496808243604
 40
0.5721496808243604
 40
0.5808755847954475
 40
0.5808755847954475
 40
0.5808755847954475
 40
0.612348334514805
 40
0.612348334514805
 40
0.612348334514805
 40
0.6735472354162286
 40
0.6735472354162286
 40
0.6735472354162286
 40
0.7102663842887755
 40
0.7102663842887755
 40
0.7102663842887755
 40
0.7443667490295373
 40
0.7443667490295373
 40
0.7443667490295373
 40
0.7767242811787212
 40
0.7767242811787212
 40
0.7767242811787212
 40
0.8090881677163879
 40
0.8090881677163879
 40
0.8090881677163879
 40
0.8362042591029695
 40
0.8362042591029695
 40
0.8362042591029695
 40
0.8746886189718294
 40
0.8746886189718294
 40
0.8746886189718294
 40
0.9035525546236061
 40
0.9035525546236061
 40
0.9035525546236061
 40
0.9359150777517905
 40
0.9359150777517905
 40
0.9359150777517905
 40
0.9700264298571799
 40
0.9700264298571799
 40
0.9700264298571799
 40
0.9822715623721696
 40
0.9822715623721696
 40
0.9822715623721696
 40
0.9910182339335816
 40
0.9910182339335816
 40
0.9910182339335816
 40
1.0
 40
1.0
 40
1.0
 40
1.0
 10
160.0
 20
-18.352941176470555
 30
0.0
 10
159.9996296442518
 20
-18.344941036597316
 30
0.0
 10
159.99916980127344
 20
-18.345181991740766
 30
0.0
 10
159.99862047106487
 20
-18.35366404190085
 30
0.0
 10
159.9961928589826
 20
-18.39742412666843
 30
0.0
 10
159.9940532905037
 20
-18.461701380945094
 30
0.0
 10
159.98870835603506
 20
-18.506769490647564
 30
0.0
 10
159.98329324165312
 20
-18.553285935662608
 30
0.0
 10
159.97532462245297
 20
-18.59226198476363
 30
0.0
 10
159.96480249843447
 20
-18.623697637950638
 30
0.0
 10
159.93865012786725
 20
-18.71249073169799
 30
0.0
 10
159.91091724610152
 20
-18.830559809743825
 30
0.0
 10
159.87849201002038
 20
-18.94059672538014
 30
0.0
 10
159.82693136552032
 20
-19.117547117689373
 30
0.0
 10
159.75829304847048
 20
-19.275070859247982
 30
0.0
 10
159.6801228954114
 20
-19.431802229211375
 30
0.0
 10
159.47520750515966
 20
-19.84971665375263
 30
0.0
 10
159.2003840341865
 20
-20.23454633720708
 30
0.0
 10
158.86711102553863
 20
-20.5566528907538
 30
0.0
 10
158.27231868538786
 20
-21.140900436489215
 30
0.0
 10
157.47723607349167
 20
-21.522309701667876
 30
0.0
 10
156.64462322693467
 20
-21.595635153118295
 30
0.0
 10
155.7481805913195
 20
-21.680363702911063
 30
0.0
 10
154.83238146992275
 20
-21.416275154947506
 30
0.0
 10
154.09847181370466
 20
-20.89995232250024
 30
0.0
 10
153.33638268348002
 20
-20.36900383064028
 30
0.0
 10
152.75894583751833
 20
-19.56103620737453
 30
0.0
 10
152.55575792633638
 20
-18.6497348441727
 30
0.0
 10
152.47814940402966
 20
-18.30267897940456
 30
0.0
 10
152.4535766856083
 20
-17.951929066599323
 30
0.0
 10
152.4820397710726
 20
-17.597485105757023
 30
0.0
 10
152.5174154576317
 20
-17.149172956207853
 30
0.0
 10
152.63777078694596
 20
-16.710357449840423
 30
0.0
 10
152.81666411249526
 20
-16.29887000208091
 30
0.0
 10
153.19675725623526
 20
-15.428670408282123
 30
0.0
 10
153.81234696288578
 20
-14.687660202079295
 30
0.0
 10
154.47472777687904
 20
-14.018505857809116
 30
0.0
 10
155.73037602829896
 20
-12.758446176394372
 30
0.0
 10
157.18674907503978
 20
-11.718921194465857
 30
0.0
 10
158.43470012022877
 20
-10.45069591830571
 30
0.0
 10
158.69389998709934
 20
-10.188395428432903
 30
0.0
 10
158.93842145277392
 20
-9.913232119211532
 30
0.0
 10
159.16826451725248
 20
-9.625205990641591
 30
0.0
 10
159.31784031337668
 20
-9.437220575093841
 30
0.0
 10
159.45612689731428
 20
-9.240514666538658
 30
0.0
 10
159.58312426906568
 20
-9.035088264976055
 30
0.0
 10
159.6752772337565
 20
-8.883598662448698
 30
0.0
 10
159.76049211482106
 20
-8.734886788701845
 30
0.0
 10
159.8323517567092
 20
-8.572708989729023
 30
0.0
 10
159.86764581791638
 20
-8.49264774565576
 30
0.0
 10
159.90137767027312
 20
-8.401132949516624
 30
0.0
 10
159.92823503053947
 20
-8.317864016695292
 30
0.0
 10
159.95488681988965
 20
-8.23058115814372
 30
0.0
 10
159.9820477719445
 20
-8.175997175900553
 30
0.0
 10
159.99339159059357
 20
-8.072688117329262
 30
0.0
 10
159.99497402442154
 20
-8.057829908146017
 30
0.0
 10
159.99610062842916
 20
-8.044375545780058
 30
0.0
 10
159.9967714026168
 20
-8.032325030231389
 30
0.0
 10
159.99761211052729
 20
-8.019408113932528
 30
0.0
 10
159.99863832687507
 20
-8.001775675097631
 30
0.0
 10
159.99990504868174
 20
-8.000043867979114
 30
0.0
 10
160.00005885705266
 20
-8.000241276516793
 30
0.0
 10
160.00021266542325
 20
-8.000438685054448
 30
0.0
 10
160.00036647379417
 20
-8.000636093592128
 30
0.0
 10
160.001926289679
 20
-8.006826485953066
 30
0.0
 10
160.00298103399408
 20
-8.033107511956942
 30
0.0
 10
160.00505223993082
 20
-8.056053835055343
 30
0.0
 10
160.0070984007351
 20
-8.08013045789994
 30
0.0
 10
160.0098637329261
 20
-8.10180978649353
 30
0.0
 10
160.01334823650353
 20
-8.121091820836128
 30
0.0
 10
160.02054753452498
 20
-8.160104339300512
 30
0.0
 10
160.0282691085348
 20
-8.184602596049666
 30
0.0
 10
160.04068406373293
 20
-8.222747503069929
 30
0.0
 10
160.06676541941079
 20
-8.303661897299662
 30
0.0
 10
160.09887468953102
 20
-8.403750877907644
 30
0.0
 10
160.13551960709873
 20
-8.495959928972932
 30
0.0
 10
160.1970664581943
 20
-8.645123093345113
 30
0.0
 10
160.26871341407957
 20
-8.787834574253537
 30
0.0
 10
160.35046047475393
 20
-8.92409437169817
 30
0.0
 10
160.64125285517167
 20
-9.424625497183236
 30
0.0
 10
161.01403338620574
 20
-9.869049070909595
 30
0.0
 10
161.40881473954033
 20
-10.288203353448164
 30
0.0
 10
162.18165586401022
 20
-11.101501285466359
 30
0.0
 10
163.05018274935193
 20
-11.81447633557799
 30
0.0
 10
163.9008141891704
 20
-12.543179536767232
 30
0.0
 10
164.41178668986709
 20
-12.980181169501217
 30
0.0
 10
164.9197518954198
 20
-13.421661986105223
 30
0.0
 10
165.39945521287848
 20
-13.893265641548984
 30
0.0
 10
165.84413394483656
 20
-14.331243404777561
 30
0.0
 10
166.2659249162568
 20
-14.795862911795592
 30
0.0
 10
166.62329298774443
 20
-15.30893323801991
 30
0.0
 10
166.9614071294287
 20
-15.794778529242105
 30
0.0
 10
167.24070823962956
 20
-16.328291873290656
 30
0.0
 10
167.39590146928504
 20
-16.901980144242852
 30
0.0
 10
167.55257595032703
 20
-17.47394493098624
 30
0.0
 10
167.57559623375232
 20
-18.08502852631819
 30
0.0
 10
167.4409910892439
 20
-18.664029931316502
 30
0.0
 10
167.32990307425672
 20
-19.14909872147391
 30
0.0
 10
167.1133309925657
 20
-19.608294110172793
 30
0.0
 10
166.81798284238286
 20
-20.008100755213494
 30
0.0
 10
166.39901501132343
 20
-20.576288017981426
 30
0.0
 10
165.8242897910459
 20
-21.0271566526158
 30
0.0
 10
165.17500661791516
 20
-21.303447847360435
 30
0.0
 10
164.68831237365208
 20
-21.51099540616346
 30
0.0
 10
164.15846784761203
 20
-21.619430405597452
 30
0.0
 10
163.62895364739958
 20
-21.610436443536027
 30
0.0
 10
163.0353566476567
 20
-21.6018381847765
 30
0.0
 10
162.44512602765755
 20
-21.44197100005151
 30
0.0
 10
161.92768491368017
 20
-21.15138096140017
 30
0.0
 10
161.3811920793847
 20
-20.84619412856898
 30
0.0
 10
160.9167324738023
 20
-20.40135570528738
 30
0.0
 10
160.5741764111619
 20
-19.87907178253051
 30
0.0
 10
160.4507185995343
 20
-19.691150744406563
 30
0.0
 10
160.34367976793177
 20
-19.494303133487612
 30
0.0
 10
160.25305991635403
 20
-19.28852894977366
 30
0.0
 10
160.18827817474653
 20
-19.141698289172883
 30
0.0
 10
160.1336891382595
 20
-18.991227826987615
 30
0.0
 10
160.08929280689287
 20
-18.837117563217785
 30
0.0
 10
160.0453583285456
 20
-18.678965043049146
 30
0.0
 10
160.0071370125967
 20
-18.51747234565699
 30
0.0
 10
160.0
 20
-18.352941176470555
 30
0.0
  0
SPLINE
  5
35
330
17
100
AcDbEntity
  8
CUT
100
AcDbSpline
 70
0
 71
3
 72
125
 73
121
 74
0
 40
0.0
 40
0.0
 40
0.0
 40
0.0
 40
0.0005266961194225091
 40
0.0005266961194225091
 40
0.0005266961194225091
 40
0.0035251994885634177
 40
0.0035251994885634177
 40
0.0035251994885634177
 40
0.006523702857704326
 40
0.006523702857704326
 40
0.006523702857704326
 40
0.014283897335109506
 40
0.014283897335109506
 40
0.014283897335109506
 40
0.026623476946255657
 40
0.026623476946255657
 40
0.026623476946255657
 40
0.059160701955163805
 40
0.059160701955163805
 40
0.059160701955163805
 40
0.11754254060881436
 40
0.11754254060881436
 40
0.11754254060881436
 40
0.18041838712721264
 40
0.18041838712721264
 40
0.18041838712721264
 40
0.2455418086551519
 40
0.2455418086551519
 40
0.2455418086551519
 40
0.27024556130314703
 40
0.27024556130314703
 40
0.27024556130314703
 40
0.3016855113242142
 40
0.3016855113242142
 40
0.3016855113242142
 40
0.36791855317118377
 40
0.36791855317118377
 40
0.36791855317118377
 40
0.4924989032617835
 40
0.4924989032617835
 40
0.4924989032617835
 40
0.5183119105417775
 40
0.5183119105417775
 40
0.5183119105417775
 40
0.5351398744531455
 40
0.5351398744531455
 40
0.5351398744531455
 40
0.5474789057677302
 40
0.5474789057677302
 40
0.5474789057677302
 40
0.5534995383723356
 40
0.5534995383723356
 40
0.5534995383723356
 40
0.559520170976941
 40
0.559520170976941
 40
0.559520170976941
 40
0.560498612819041
 40
0.560498612819041
 40
0.560498612819041
 40
0.5614770546611412
 40
0.5614770546611412
 40
0.5614770546611412
 40
0.5615987237965184
 40
0.5615987237965184
 40
0.5615987237965184
 40
0.5629050959359312
 40
0.5629050959359312
 40
0.5629050959359312
 40
0.5642114680753441
 40
0.5642114680753441
 40
0.5642114680753441
 40
0.5668242123541696
 40
0.5668242123541696
 40
0.5668242123541696
 40
0.5721496806878856
 40
0.5721496806878856
 40
0.5721496806878856
 40
0.5808755846617736
 40
0.5808755846617736
 40
0.5808755846617736
 40
0.6123483343911234
 40
0.6123483343911234
 40
0.6123483343911234
 40
0.673547235310216
 40
0.673547235310216
 40
0.673547235310216
 40
0.7102663841931633
 40
0.7102663841931633
 40
0.7102663841931633
 40
0.7443667489444896
 40
0.7443667489444896
 40
0.7443667489444896
 40
0.7767242811047776
 40
0.7767242811047776
 40
0.7767242811047776
 40
0.8090881676530249
 40
0.8090881676530249
 40
0.8090881676530249
 40
0.8362042590484304
 40
0.8362042590484304
 40
0.8362042590484304
 40
0.8746886189299651
 40
0.8746886189299651
 40
0.8746886189299651
 40
0.9035525545912052
 40
0.9035525545912052
 40
0.9035525545912052
 40
0.9359150777300289
 40
0.9359150777300289
 40
0.9359150777300289
 40
0.9700264298469584
 40
0.9700264298469584
 40
0.9700264298469584
 40
0.9822715623660836
 40
0.9822715623660836
 40
0.9822715623660836
 40
0.9910182339304573
 40
0.9910182339304573
 40
0.9910182339304573
 40
1.0
 40
1.0
 40
1.0
 40
1.0
 10
190.0
 20
-20.352941176470555
 30
0.0
 10
189.99962964425185
 20
-20.344941036597355
 30
0.0
 10
189.99916980127347
 20
-20.345181991740805
 30
0.0
 10
189.99862047106484
 20
-20.353664041900835
 30
0.0
 10
189.9961928589827
 20
-20.397424126668614
 30
0.0
 10
189.9940532905037
 20
-20.461701380944955
 30
0.0
 10
189.98870835603506
 20
-20.506769490647528
 30
0.0
 10
189.98329324165317
 20
-20.55328593566263
 30
0.0
 10
189.97532462245294
 20
-20.592261984763645
 30
0.0
 10
189.96480249843438
 20
-20.623697637950638
 30
0.0
 10
189.93865012786705
 20
-20.712490731697972
 30
0.0
 10
189.91091724610158
 20
-20.83055980974384
 30
0.0
 10
189.8784920100204
 20
-20.940596725380153
 30
0.0
 10
189.82693136552032
 20
-21.117547117689313
 30
0.0
 10
189.75829304847048
 20
-21.275070859248032
 30
0.0
 10
189.6801228954115
 20
-21.43180222921139
 30
0.0
 10
189.47520750516117
 20
-21.849716653749194
 30
0.0
 10
189.2003840341907
 20
-22.23454633720278
 30
0.0
 10
188.8671110255387
 20
-22.556652890753796
 30
0.0
 10
188.27231868546698
 20
-23.140900436426534
 30
0.0
 10
187.47723607352572
 20
-23.522309701673557
 30
0.0
 10
186.6446232269347
 20
-23.595635153118295
 30
0.0
 10
185.7481805913024
 20
-23.68036370291004
 30
0.0
 10
184.83238146991994
 20
-23.41627515494372
 30
0.0
 10
184.09847181370463
 20
-22.89995232250024
 30
0.0
 10
183.33638268349927
 20
-22.369003830656798
 30
0.0
 10
182.7589458375158
 20
-21.56103620738039
 30
0.0
 10
182.5557579263364
 20
-20.649734844172713
 30
0.0
 10
182.4781494040296
 20
-20.302678979404543
 30
0.0
 10
182.45357668560834
 20
-19.951929066599327
 30
0.0
 10
182.48203977107264
 20
-19.597485105757034
 30
0.0
 10
182.51741545763466
 20
-19.149172956186487
 30
0.0
 10
182.63777078695122
 20
-18.710357449829182
 30
0.0
 10
182.81666411249523
 20
-18.298870002080907
 30
0.0
 10
183.19675725627962
 20
-17.42867040820403
 30
0.0
 10
183.8123469629015
 20
-16.687660202073022
 30
0.0
 10
184.47472777687904
 20
-16.018505857809117
 30
0.0
 10
185.73037602831695
 20
-14.758446176378413
 30
0.0
 10
187.1867490750427
 20
-13.718921194463645
 30
0.0
 10
188.43470012022874
 20
-12.450695918305712
 30
0.0
 10
188.6938999871061
 20
-12.188395428425443
 30
0.0
 10
188.93842145278046
 20
-11.913232119204054
 30
0.0
 10
189.16826451725245
 20
-11.625205990641595
 30
0.0
 10
189.3178403133764
 20
-11.437220575093907
 30
0.0
 10
189.45612689731428
 20
-11.240514666538727
 30
0.0
 10
189.58312426906565
 20
-11.035088264976064
 30
0.0
 10
189.6752772337566
 20
-10.8835986624487
 30
0.0
 10
189.76049211482095
 20
-10.734886788701848
 30
0.0
 10
189.8323517567092
 20
-10.572708989729023
 30
0.0
 10
189.86764581791633
 20
-10.492647745655757
 30
0.0
 10
189.90137767027323
 20
-10.401132949516658
 30
0.0
 10
189.92823503053944
 20
-10.317864016695285
 30
0.0
 10
189.9548868198896
 20
-10.230581158143787
 30
0.0
 10
189.9820477719446
 20
-10.175997175900465
 30
0.0
 10
189.99339159059355
 20
-10.072688117329266
 30
0.0
 10
189.9949740244213
 20
-10.057829908145997
 30
0.0
 10
189.99610062842928
 20
-10.04437554578005
 30
0.0
 10
189.9967714026169
 20
-10.032325030231393
 30
0.0
 10
189.99761211052711
 20
-10.019408113932535
 30
0.0
 10
189.9986383268751
 20
-10.001775675097642
 30
0.0
 10
189.99990504868174
 20
-10.00004386797911
 30
0.0
 10
190.00005885705275
 20
-10.000241276516793
 30
0.0
 10
190.00021266542325
 20
-10.000438685054453
 30
0.0
 10
190.00036647379414
 20
-10.00063609359213
 30
0.0
 10
190.00192628967915
 20
-10.006826485953061
 30
0.0
 10
190.00298103399405
 20
-10.033107511956953
 30
0.0
 10
190.00505223993088
 20
-10.056053835055346
 30
0.0
 10
190.00709840073515
 20
-10.080130457899932
 30
0.0
 10
190.00986373292628
 20
-10.101809786493526
 30
0.0
 10
190.01334823650356
 20
-10.121091820836117
 30
0.0
 10
190.0205475345252
 20
-10.160104339300482
 30
0.0
 10
190.02826910853472
 20
-10.184602596049686
 30
0.0
 10
190.04068406373293
 20
-10.222747503069932
 30
0.0
 10
190.06676541941067
 20
-10.303661897299646
 30
0.0
 10
190.09887468953121
 20
-10.403750877907653
 30
0.0
 10
190.13551960709864
 20
-10.495959928972933
 30
0.0
 10
190.19706645819437
 20
-10.645123093345108
 30
0.0
 10
190.26871341407943
 20
-10.787834574253516
 30
0.0
 10
190.35046047475393
 20
-10.924094371698164
 30
0.0
 10
190.64125285516715
 20
-11.424625497175983
 30
0.0
 10
191.01403338619753
 20
-11.86904907090074
 30
0.0
 10
191.40881473954028
 20
-12.288203353448159
 30
0.0
 10
192.18165586402017
 20
-13.101501285475635
 30
0.0
 10
193.05018274934545
 20
-13.81447633557209
 30
0.0
 10
193.90081418917043
 20
-14.543179536767234
 30
0.0
 10
194.41178668987124
 20
-14.980181169505045
 30
0.0
 10
194.91975189542202
 20
-15.421661986107141
 30
0.0
 10
195.3994552128785
 20
-15.89326564154898
 30
0.0
 10
195.84413394484815
 20
-16.33124340478767
 30
0.0
 10
196.26592491628017
 20
-16.795862911826166
 30
0.0
 10
196.62329298774452
 20
-17.30893323801991
 30
0.0
 10
196.96140712941872
 20
-17.79477852922635
 30
0.0
 10
197.24070823962944
 20
-18.328291873286936
 30
0.0
 10
197.39590146928498
 20
-18.901980144242852
 30
0.0
 10
197.55257595032742
 20
-19.47394493098836
 30
0.0
 10
197.5755962337521
 20
-20.08502852631853
 30
0.0
 10
197.44099108924382
 20
-20.664029931316502
 30
0.0
 10
197.32990307425814
 20
-21.149098721470715
 30
0.0
 10
197.11333099256427
 20
-21.60829411017585
 30
0.0
 10
196.81798284238283
 20
-22.008100755213487
 30
0.0
 10
196.39901501133286
 20
-22.576288017970914
 30
0.0
 10
195.82428979105157
 20
-23.02715665261416
 30
0.0
 10
195.17500661791513
 20
-23.303447847360435
 30
0.0
 10
194.68831237365197
 20
-23.51099540616349
 30
0.0
 10
194.15846784761186
 20
-23.61943040559745
 30
0.0
 10
193.62895364739967
 20
-23.610436443536035
 30
0.0
 10
193.03535664765644
 20
-23.60183818477631
 30
0.0
 10
192.44512602765957
 20
-23.441971000052245
 30
0.0
 10
191.9276849136801
 20
-23.151380961400175
 30
0.0
 10
191.38119207938473
 20
-22.846194128569024
 30
0.0
 10
190.91673247380226
 20
-22.401355705287436
 30
0.0
 10
190.57417641116186
 20
-21.87907178253051
 30
0.0
 10
190.45071859953453
 20
-21.691150744406563
 30
0.0
 10
190.34367976793183
 20
-21.494303133487623
 30
0.0
 10
190.25305991635398
 20
-21.288528949773664
 30
0.0
 10
190.18827817474644
 20
-21.141698289172872
 30
0.0
 10
190.13368913825968
 20
-20.99122782698759
 30
0.0
 10
190.0892928068928
 20
-20.837117563217785
 30
0.0
 10
190.04535832854543
 20
-20.678965043049118
 30
0.0
 10
190.00713701259681
 20
-20.51747234565701
 30
0.0
 10
189.99999999999997
 20
-20.35294117647055
 30
0.0
  0
SPLINE
  5
36
330
17
100
AcDbEntity
  8
CUT
100
AcDbSpline
 70
0
 71
3
 72
125
 73
121
 74
0
 40
0.0
 40
0.0
 40
0.0
 40
0.0
 40
0.0005266961195471334
 40
0.0005266961195471334
 40
0.0005266961195471334
 40
0.003525199489745734
 40
0.003525199489745734
 40
0.003525199489745734
 40
0.006523702859944335
 40
0.006523702859944335
 40
0.006523702859944335
 40
0.0142838973397828
 40
0.0142838973397828
 40
0.0142838973397828
 40
0.026623476955287124
 40
0.026623476955287124
 40
0.026623476955287124
 40
0.05916070197530153
 40
0.05916070197530153
 40
0.05916070197530153
 40
0.11754254065249324
 40
0.11754254065249324
 40
0.11754254065249324
 40
0.18041838719778935
 40
0.18041838719778935
 40
0.18041838719778935
 40
0.24554180875006326
 40
0.24554180875006326
 40
0.24554180875006326
 40
0.27024556140736045
 40
0.27024556140736045
 40
0.27024556140736045
 40
0.301685511434944
 40
0.301685511434944
 40
0.301685511434944
 40
0.36791855328660805
 40
0.36791855328660805
 40
0.36791855328660805
 40
0.49249890337898256
 40
0.49249890337898256
 40
0.49249890337898256
 40
0.5183119106585586
 40
0.5183119106585586
 40
0.5183119106585586
 40
0.535139874569297
 40
0.535139874569297
 40
0.535139874569297
 40
0.547478905883532
 40
0.547478905883532
 40
0.547478905883532
 40
0.553499538487997
 40
0.553499538487997
 40
0.553499538487997
 40
0.5595201710924622
 40
0.5595201710924622
 40
0.5595201710924622
 40
0.560498612934536
 40
0.560498612934536
 40
0.560498612934536
 40
0.5614770547766096
 40
0.5614770547766096
 40
0.5614770547766096
 40
0.5615987239119955
 40
0.5615987239119955
 40
0.5615987239119955
 40
0.5629050960510478
 40
0.5629050960510478
 40
0.5629050960510478
 40
0.5642114681900999
 40
0.5642114681900999
 40
0.5642114681900999
 40
0.5668242124682044
 40
0.5668242124682044
 40
0.5668242124682044
 40
0.5721496808004334
 40
0.5721496808004334
 40
0.5721496808004334
 40
0.5808755847718696
 40
0.5808755847718696
 40
0.5808755847718696
 40
0.6123483344924856
 40
0.6123483344924856
 40
0.6123483344924856
 40
0.6735472353936865
 40
0.6735472353936865
 40
0.6735472353936865
 40
0.7102663842661063
 40
0.7102663842661063
 40
0.7102663842661063
 40
0.7443667490075802
 40
0.7443667490075802
 40
0.7443667490075802
 40
0.7767242811597207
 40
0.7767242811597207
 40
0.7767242811597207
 40
0.8090881676999655
 40
0.8090881676999655
 40
0.8090881676999655
 40
0.8362042590887251
 40
0.8362042590887251
 40
0.8362042590887251
 40
0.8746886189607503
 40
0.8746886189607503
 40
0.8746886189607503
 40
0.9035525546149276
 40
0.9035525546149276
 40
0.9035525546149276
 40
0.9359150777459212
 40
0.9359150777459212
 40
0.9359150777459212
 40
0.9700264298543912
 40
0.9700264298543912
 40
0.9700264298543912
 40
0.9822715623704794
 40
0.9822715623704794
 40
0.9822715623704794
 40
0.9910182339326818
 40
0.9910182339326818
 40
0.9910182339326818
 40
1.0
 40
1.0
 40
1.0
 40
1.0
 10
219.99999999999997
 20
-18.352941176470555
 30
0.0
 10
219.99962964425174
 20
-18.344941036597852
 30
0.0
 10
219.9991698012734
 20
-18.34518199174128
 30
0.0
 10
219.9986204710648
 20
-18.353664041900842
 30
0.0
 10
219.99619285898285
 20
-18.397424126668472
 30
0.0
 10
219.9940532905036
 20
-18.461701380945147
 30
0.0
 10
219.98870835603506
 20
-18.506769490647542
 30
0.0
 10
219.9832932416531
 20
-18.553285935662593
 30
0.0
 10
219.97532462245292
 20
-18.59226198476364
 30
0.0
 10
219.96480249843447
 20
-18.623697637950638
 30
0.0
 10
219.93865012786708
 20
-18.712490731697983
 30
0.0
 10
219.91091724610175
 20
-18.83055980974384
 30
0.0
 10
219.87849201002035
 20
-18.940596725380146
 30
0.0
 10
219.82693136552047
 20
-19.11754711768942
 30
0.0
 10
219.7582930484705
 20
-19.27507085924796
 30
0.0
 10
219.68012289541142
 20
-19.431802229211375
 30
0.0
 10
219.4752075051624
 20
-19.84971665374819
 30
0.0
 10
219.20038403418528
 20
-20.234546337209107
 30
0.0
 10
218.86711102553863
 20
-20.556652890753796
 30
0.0
 10
218.2723186854219
 20
-21.140900436461383
 30
0.0
 10
217.47723607351193
 20
-21.52230970166885
 30
0.0
 10
216.64462322693464
 20
-21.595635153118295
 30
0.0
 10
215.74818059134805
 20
-21.68036370291355
 30
0.0
 10
214.8323814699029
 20
-21.416275154944866
 30
0.0
 10
214.09847181370466
 20
-20.89995232250024
 30
0.0
 10
213.33638268353053
 20
-20.369003830688513
 30
0.0
 10
212.75894583751366
 20
-19.561036207386934
 30
0.0
 10
212.55575792633636
 20
-18.649734844172706
 30
0.0
 10
212.47814940402958
 20
-18.302678979404597
 30
0.0
 10
212.45357668560828
 20
-17.95192906659939
 30
0.0
 10
212.48203977107266
 20
-17.59748510575703
 30
0.0
 10
212.5174154576282
 20
-17.149172956232455
 30
0.0
 10
212.63777078694014
 20
-16.71035744985311
 30
0.0
 10
212.81666411249526
 20
-16.29887000208092
 30
0.0
 10
213.19675725621985
 20
-15.428670408308268
 30
0.0
 10
213.81234696288428
 20
-14.687660202077087
 30
0.0
 10
214.47472777687912
 20
-14.018505857809116
 30
0.0
 10
215.73037602830198
 20
-12.758446176391466
 30
0.0
 10
217.18674907502773
 20
-11.718921194476728
 30
0.0
 10
218.43470012022868
 20
-10.45069591830571
 30
0.0
 10
218.69389998710034
 20
-10.188395428431782
 30
0.0
 10
218.93842145277497
 20
-9.913232119210416
 30
0.0
 10
219.1682645172524
 20
-9.625205990641595
 30
0.0
 10
219.3178403133766
 20
-9.437220575093837
 30
0.0
 10
219.45612689731422
 20
-9.240514666538658
 30
0.0
 10
219.58312426906565
 20
-9.035088264976059
 30
0.0
 10
219.67527723375636
 20
-8.883598662448671
 30
0.0
 10
219.7604921148211
 20
-8.734886788701854
 30
0.0
 10
219.8323517567092
 20
-8.572708989729021
 30
0.0
 10
219.8676458179166
 20
-8.492647745655866
 30
0.0
 10
219.90137767027306
 20
-8.40113294951656
 30
0.0
 10
219.92823503053938
 20
-8.31786401669529
 30
0.0
 10
219.95488681988974
 20
-8.230581158143803
 30
0.0
 10
219.9820477719444
 20
-8.175997175900472
 30
0.0
 10
219.99339159059355
 20
-8.072688117329266
 30
0.0
 10
219.9949740244214
 20
-8.057829908146003
 30
0.0
 10
219.99610062842922
 20
-8.044375545780044
 30
0.0
 10
219.99677140261687
 20
-8.032325030231389
 30
0.0
 10
219.99761211052737
 20
-8.01940811393254
 30
0.0
 10
219.99863832687512
 20
-8.00177567509764
 30
0.0
 10
219.99990504868177
 20
-8.000043867979114
 30
0.0
 10
220.00005885705272
 20
-8.000241276516789
 30
0.0
 10
220.00021266542333
 20
-8.000438685054451
 30
0.0
 10
220.00036647379417
 20
-8.000636093592126
 30
0.0
 10
220.00192628967903
 20
-8.006826485953065
 30
0.0
 10
220.00298103399405
 20
-8.033107511956958
 30
0.0
 10
220.00505223993082
 20
-8.056053835055355
 30
0.0
 10
220.00709840073512
 20
-8.080130457899923
 30
0.0
 10
220.00986373292614
 20
-8.101809786493513
 30
0.0
 10
220.01334823650348
 20
-8.121091820836119
 30
0.0
 10
220.0205475345252
 20
-8.160104339300542
 30
0.0
 10
220.02826910853472
 20
-8.184602596049622
 30
0.0
 10
220.040684063733
 20
-8.222747503069934
 30
0.0
 10
220.06676541941096
 20
-8.303661897299648
 30
0.0
 10
220.09887468953107
 20
-8.403750877907656
 30
0.0
 10
220.13551960709867
 20
-8.495959928972932
 30
0.0
 10
220.19706645819434
 20
-8.645123093345118
 30
0.0
 10
220.26871341407949
 20
-8.787834574253534
 30
0.0
 10
220.35046047475402
 20
-8.92409437169817
 30
0.0
 10
220.64125285516673
 20
-9.424625497175404
 30
0.0
 10
221.0140333861971
 20
-9.869049070900285
 30
0.0
 10
221.40881473954033
 20
-10.288203353448164
 30
0.0
 10
222.18165586401656
 20
-11.101501285472228
 30
0.0
 10
223.05018274934025
 20
-11.814476335567667
 30
0.0
 10
223.90081418917046
 20
-12.543179536767234
 30
0.0
 10
224.41178668986834
 20
-12.98018116950246
 30
0.0
 10
224.91975189542046
 20
-13.421661986105724
 30
0.0
 10
225.3994552128785
 20
-13.893265641548984
 30
0.0
 10
225.8441339448483
 20
-14.33124340478772
 30
0.0
 10
226.2659249162813
 20
-14.795862911827637
 30
0.0
 10
226.62329298774446
 20
-15.30893323801991
 30
0.0
 10
226.96140712942253
 20
-15.794778529232696
 30
0.0
 10
227.24070823962956
 20
-16.328291873288336
 30
0.0
 10
227.39590146928504
 20
-16.901980144242856
 30
0.0
 10
227.5525759503282
 20
-17.473944930991912
 30
0.0
 10
227.57559623375155
 20
-18.085028526319938
 30
0.0
 10
227.4409910892439
 20
-18.664029931316502
 30
0.0
 10
227.3299030742585
 20
-19.149098721469922
 30
0.0
 10
227.11333099256373
 20
-19.608294110176697
 30
0.0
 10
226.81798284238286
 20
-20.008100755213494
 30
0.0
 10
226.3990150113316
 20
-20.576288017971574
 30
0.0
 10
225.82428979105578
 20
-21.027156652611513
 30
0.0
 10
225.17500661791516
 20
-21.303447847360427
 30
0.0
 10
224.68831237365237
 20
-21.51099540616337
 30
0.0
 10
224.15846784761212
 20
-21.61943040559745
 30
0.0
 10
223.62895364739964
 20
-21.610436443536035
 30
0.0
 10
223.03535664765542
 20
-21.601838184776945
 30
0.0
 10
222.4451260276524
 20
-21.441971000049158
 30
0.0
 10
221.9276849136801
 20
-21.15138096140017
 30
0.0
 10
221.38119207938476
 20
-20.84619412856907
 30
0.0
 10
220.91673247380237
 20
-20.401355705287443
 30
0.0
 10
220.57417641116186
 20
-19.87907178253051
 30
0.0
 10
220.45071859953433
 20
-19.69115074440659
 30
0.0
 10
220.34367976793195
 20
-19.494303133487634
 30
0.0
 10
220.25305991635395
 20
-19.28852894977366
 30
0.0
 10
220.18827817474644
 20
-19.141698289172894
 30
0.0
 10
220.1336891382595
 20
-18.991227826987593
 30
0.0
 10
220.08929280689284
 20
-18.837117563217785
 30
0.0
 10
220.04535832854535
 20
-18.67896504304914
 30
0.0
 10
220.00713701259687
 20
-18.517472345656984
 30
0.0
 10
220.0
 20
-18.352941176470555
 30
0.0
  0
SPLINE
  5
37
330
17
100
AcDbEntity
  8
CUT
100
AcDbSpline
 70
0
 71
3
 72
155
 73
151
 74
0
 40
0.0
 40
0.0
 40
0.0
 40
0.0
 40
0.0005689686453785692
 40
0.0005689686453785692
 40
0.0005689686453785692
 40
0.0021885076707680515
 40
0.0021885076707680515
 40
0.0021885076707680515
 40
0.0038080466961575342
 40
0.0038080466961575342
 40
0.0038080466961575342
 40
0.007047124746936499
 40
0.007047124746936499
 40
0.007047124746936499
 40
0.015429931936518614
 40
0.015429931936518614
 40
0.015429931936518614
 40
0.02875953559317711
 40
0.02875953559317711
 40
0.02875953559317711
 40
0.04935428885306868
 40
0.04935428885306868
 40
0.04935428885306868
 40
0.06390727377486012
 40
0.06390727377486012
 40
0.06390727377486012
 40
0.09544011481541177
 40
0.09544011481541177
 40
0.09544011481541177
 40
0.12697691721983423
 40
0.12697691721983423
 40
0.12697691721983423
 40
0.16336595878953705
 40
0.16336595878953705
 40
0.16336595878953705
 40
0.19490149030788775
 40
0.19490149030788775
 40
0.19490149030788775
 40
0.2519113004008881
 40
0.2519113004008881
 40
0.2519113004008881
 40
0.28345105159034145
 40
0.28345105159034145
 40
0.28345105159034145
 40
0.3064985342361227
 40
0.3064985342361227
 40
0.3064985342361227
 40
0.3392415093943604
 40
0.3392415093943604
 40
0.3392415093943604
 40
0.36834294500350806
 40
0.36834294500350806
 40
0.36834294500350806
 40
0.43138292072957374
 40
0.43138292072957374
 40
0.43138292072957374
 40
0.49441660547339666
 40
0.49441660547339666
 40
0.49441660547339666
 40
0.5550272229073209
 40
0.5550272229073209
 40
0.5550272229073209
 40
0.5695738034441817
 40
0.5695738034441817
 40
0.5695738034441817
 40
0.5780586446115115
 40
0.5780586446115115
 40
0.5780586446115115
 40
0.5913909263386173
 40
0.5913909263386173
 40
0.5913909263386173
 40
0.5978961995659333
 40
0.5978961995659333
 40
0.5978961995659333
 40
0.6011488361795913
 40
0.6011488361795913
 40
0.6011488361795913
 40
0.6044014727932492
 40
0.6044014727932492
 40
0.6044014727932492
 40
0.6053051323540768
 40
0.6053051323540768
 40
0.6053051323540768
 40
0.6062087919149043
 40
0.6062087919149043
 40
0.6062087919149043
 40
0.6063180103820882
 40
0.6063180103820882
 40
0.6063180103820882
 40
0.607491104702265
 40
0.607491104702265
 40
0.607491104702265
 40
0.6086641990224417
 40
0.6086641990224417
 40
0.6086641990224417
 40
0.6110103876627953
 40
0.6110103876627953
 40
0.6110103876627953
 40
0.6157925446500694
 40
0.6157925446500694
 40
0.6157925446500694
 40
0.6236282203210304
 40
0.6236282203210304
 40
0.6236282203210304
 40
0.6401131482594611
 40
0.6401131482594611
 40
0.6401131482594611
 40
0.6550300976301485
 40
0.6550300976301485
 40
0.6550300976301485
 40
0.6880068922956977
 40
0.6880068922956977
 40
0.6880068922956977
 40
0.7249087322348154
 40
0.7249087322348154
 40
0.7249087322348154
 40
0.7516037559731329
 40
0.7516037559731329
 40
0.7516037559731329
 40
0.7806567498217031
 40
0.7806567498217031
 40
0.7806567498217031
 40
0.8026455841795096
 40
0.8026455841795096
 40
0.8026455841795096
 40
0.8159993325781968
 40
0.8159993325781968
 40
0.8159993325781968
 40
0.8458492419822246
 40
0.8458492419822246
 40
0.8458492419822246
 40
0.8741264457459652
 40
0.8741264457459652
 40
0.8741264457459652
 40
0.9055439273971279
 40
0.9055439273971279
 40
0.9055439273971279
 40
0.9330340677382223
 40
0.9330340677382223
 40
0.9330340677382223
 40
0.9636629922147053
 40
0.9636629922147053
 40
0.9636629922147053
 40
0.9840818255888283
 40
0.9840818255888283
 40
0.9840818255888283
 40
0.9919353683743829
 40
0.9919353683743829
 40
0.9919353683743829
 40
1.0
 40
1.0
 40
1.0
 40
1.0
 10
227.0
 20
-155.0
 30
0.0
 10
226.9994297428154
 20
-154.9813979507975
 30
0.0
 10
226.99801912199285
 20
-154.98511255913985
 30
0.0
 10
226.99706850101276
 20
-155.001536089039
 30
0.0
 10
226.9943070796264
 20
-155.04389485150168
 30
0.0
 10
226.99216793745427
 20
-155.1077891011043
 30
0.0
 10
226.98890126349534
 20
-155.1640835351815
 30
0.0
 10
226.9857796159457
 20
-155.22185589677647
 30
0.0
 10
226.981480946972
 20
-155.2761231075908
 30
0.0
 10
226.9760052565748
 20
-155.32688516762437
 30
0.0
 10
226.96521818090446
 20
-155.42973926368754
 30
0.0
 10
226.94684478032184
 20
-155.5045500672152
 30
0.0
 10
226.92520530917386
 20
-155.5753574806432
 30
0.0
 10
226.86963152171816
 20
-155.7640428048558
 30
0.0
 10
226.81069914796652
 20
-156.01493959570266
 30
0.0
 10
226.74179552129428
 20
-156.24876804142988
 30
0.0
 10
226.63222915173165
 20
-156.6247876250872
 30
0.0
 10
226.48637272800087
 20
-156.95952557589945
 30
0.0
 10
226.3202611527505
 20
-157.2925797370717
 30
0.0
 10
226.0643816966053
 20
-157.80826904113866
 30
0.0
 10
225.75964556087584
 20
-158.31310524022538
 30
0.0
 10
225.40673629091552
 20
-158.7691508247976
 30
0.0
 10
225.1573546171525
 20
-159.0927369539799
 30
0.0
 10
224.88597949660453
 20
-159.3973158099973
 30
0.0
 10
224.59261092927176
 20
-159.68288739284978
 30
0.0
 10
223.95819694048546
 20
-160.30115919486605
 30
0.0
 10
223.22343230843393
 20
-160.81760795324027
 30
0.0
 10
222.42152181876997
 20
-161.19461739418463
 30
0.0
 10
221.62010973284794
 20
-161.57273670542642
 30
0.0
 10
220.75238617414868
 20
-161.80981084347204
 30
0.0
 10
219.86982435723914
 20
-161.89072470037618
 30
0.0
 10
218.85131040443434
 20
-161.98523217604628
 30
0.0
 10
217.81580265408823
 20
-161.87219661305855
 30
0.0
 10
216.83807202254192
 20
-161.5738365178243
 30
0.0
 10
215.990286877667
 20
-161.31582950179467
 30
0.0
 10
215.1849884261928
 20
-160.92056848530845
 30
0.0
 10
214.4592526041249
 20
-160.41239868531483
 30
0.0
 10
213.14751427171055
 20
-159.49550667540288
 30
0.0
 10
212.09157490027067
 20
-158.20088397753818
 30
0.0
 10
211.50992826809943
 20
-156.7054198133019
 30
0.0
 10
211.18707213486385
 20
-155.8798343296834
 30
0.0
 10
211.01322699776327
 20
-154.99631274816213
 30
0.0
 10
211.00081246760647
 20
-154.10983486433105
 30
0.0
 10
210.99120593449746
 20
-153.46215149287445
 30
0.0
 10
211.0669064357386
 20
-152.8138429723137
 30
0.0
 10
211.21596131017267
 20
-152.18376136431195
 30
0.0
 10
211.42773837083845
 20
-151.287830788467
 30
0.0
 10
211.78607511763852
 20
-150.43052843302502
 30
0.0
 10
212.23575121648202
 20
-149.62920717555724
 30
0.0
 10
212.63579261288547
 20
-148.91586392416227
 30
0.0
 10
213.10638969676265
 20
-148.24477261452168
 30
0.0
 10
213.61828992174907
 20
-147.60814757309072
 30
0.0
 10
214.73006851784316
 20
-146.22895181296286
 30
0.0
 10
216.02233380741993
 20
-145.00923033191643
 30
0.0
 10
217.34581574563904
 20
-143.83714731424527
 30
0.0
 10
218.67175526488901
 20
-142.66561651786392
 30
0.0
 10
220.03957269708408
 20
-141.54268240790347
 30
0.0
 10
221.36675109344716
 20
-140.37259496275726
 30
0.0
 10
222.64036963311747
 20
-139.2468809544384
 30
0.0
 10
223.88830209756387
 20
-138.0811360530069
 30
0.0
 10
224.9759445097696
 20
-136.77078955980227
 30
0.0
 10
225.2370258580843
 20
-136.45723162725733
 30
0.0
 10
225.48528770701733
 20
-136.1332125156191
 30
0.0
 10
225.72073005656813
 20
-135.79873222488746
 30
0.0
 10
225.85783754389448
 20
-135.60285669193368
 30
0.0
 10
225.98897388229287
 20
-135.40313347132994
 30
0.0
 10
226.1141390717632
 20
-135.1995625630763
 30
0.0
 10
226.30996412173175
 20
-134.87764715770587
 30
0.0
 10
226.4910457439934
 20
-134.56163442599347
 30
0.0
 10
226.64374748300602
 20
-134.2170066031765
 30
0.0
 10
226.71874736307169
 20
-134.0468764595208
 30
0.0
 10
226.79042754932945
 20
-133.85240751772537
 30
0.0
 10
226.84749943989553
 20
-133.6754610354798
 30
0.0
 10
226.87671795169635
 20
-133.58772060781234
 30
0.0
 10
226.90380585740866
 20
-133.5047447280419
 30
0.0
 10
226.92876315703245
 20
-133.42653339616922
 30
0.0
 10
226.95343095006382
 20
-133.34636824065333
 30
0.0
 10
226.97425633456075
 20
-133.2683524275927
 30
0.0
 10
226.9859571300111
 20
-133.15446224932776
 30
0.0
 10
226.9889821898288
 20
-133.12594479918366
 30
0.0
 10
226.99135106533208
 20
-133.0973420731082
 30
0.0
 10
226.9930637565205
 20
-133.06865407110132
 30
0.0
 10
226.99500027404088
 20
-133.03957860912652
 30
0.0
 10
226.99705914531708
 20
-133.00354781556214
 30
0.0
 10
226.9997982284487
 20
-133.00009321945586
 30
0.0
 10
227.00012507123648
 20
-133.000512712598
 30
0.0
 10
227.00045191402458
 20
-133.00093220574036
 30
0.0
 10
227.0007787568125
 20
-133.00135169888264
 30
0.0
 10
227.004093365568
 20
-133.014506282647
 30
0.0
 10
227.00633469723684
 20
-133.0703534629055
 30
0.0
 10
227.01073600985285
 20
-133.1191143994904
 30
0.0
 10
227.015084101562
 20
-133.1702772230359
 30
0.0
 10
227.02096043246792
 20
-133.21634579629796
 30
0.0
 10
227.0283650025698
 20
-133.2573201192764
 30
0.0
 10
227.04366351086577
 20
-133.34022172101345
 30
0.0
 10
227.06007185563584
 20
-133.39228051660334
 30
0.0
 10
227.08645363543232
 20
-133.47333844402314
 30
0.0
 10
227.1418765162477
 20
-133.64528153176107
 30
0.0
 10
227.21010871525337
 20
-133.8579706155534
 30
0.0
 10
227.28797916508444
 20
-134.05391484906696
 30
0.0
 10
227.41545634374873
 20
-134.3751440773873
 30
0.0
 10
227.5743258848329
 20
-134.6698909662591
 30
0.0
 10
227.74472850885192
 20
-134.96370053985825
 30
0.0
 10
228.10387370340663
 20
-135.58252007040605
 30
0.0
 10
228.52570673114855
 20
-136.16575897909902
 30
0.0
 10
228.97892031434296
 20
-136.71605436490736
 30
0.0
 10
229.3909996019424
 20
-137.21458401856927
 30
0.0
 10
229.82357422828022
 20
-137.69488484782482
 30
0.0
 10
230.27664419335642
 20
-138.156956852674
 30
0.0
 10
231.2752849986035
 20
-139.17982053763268
 30
0.0
 10
232.34468352182824
 20
-140.13008432533698
 30
0.0
 10
233.42640051237723
 20
-141.0633987927154
 30
0.0
 10
234.63747966074553
 20
-142.107542534636
 30
0.0
 10
235.86882353996546
 20
-143.1284230400873
 30
0.0
 10
237.05842078673157
 20
-144.19738115170324
 30
0.0
 10
237.91843329324638
 20
-144.97083718194483
 30
0.0
 10
238.75739614978346
 20
-145.76957590848912
 30
0.0
 10
239.5374445095806
 20
-146.62476506700858
 30
0.0
 10
240.38454568996428
 20
-147.55515134401944
 30
0.0
 10
241.1648730530515
 20
-148.5547251175654
 30
0.0
 10
241.77943405267033
 20
-149.6563768896763
 30
0.0
 10
242.24359135804409
 20
-150.48847195189543
 30
0.0
 10
242.60891035209744
 20
-151.38113191437932
 30
0.0
 10
242.8136964255175
 20
-152.3137939021685
 30
0.0
 10
242.93943012013975
 20
-152.8819686108681
 30
0.0
 10
243.0014975564871
 20
-153.45694461855499
 30
0.0
 10
242.9998987345595
 20
-154.0387219252286
 30
0.0
 10
242.99630240882755
 20
-155.33534782106352
 30
0.0
 10
242.63824026138238
 20
-156.62514019656004
 30
0.0
 10
241.9911045493101
 20
-157.7470498081082
 30
0.0
 10
241.38030347262173
 20
-158.81202039914297
 30
0.0
 10
240.52260773289905
 20
-159.7306502030607
 30
0.0
 10
239.51520435099135
 20
-160.43021261773177
 30
0.0
 10
238.39654124768262
 20
-161.20825148837483
 30
0.0
 10
237.0875130561937
 20
-161.71694361479925
 30
0.0
 10
235.73209130509687
 20
-161.8719110332404
 30
0.0
 10
234.54713475543429
 20
-162.0096530940565
 30
0.0
 10
233.32990278441503
 20
-161.8703827860923
 30
0.0
 10
232.20992038003058
 20
-161.45837731488257
 30
0.0
 10
230.95996332529677
 20
-161.00263368456982
 30
0.0
 10
229.84029462593637
 20
-160.21355276347273
 30
0.0
 10
228.96319281340968
 20
-159.21689288834665
 30
0.0
 10
228.3774767989406
 20
-158.55271304386702
 30
0.0
 10
227.89427171859066
 20
-157.7985069622733
 30
0.0
 10
227.53775232225217
 20
-156.98812401826893
 30
0.0
 10
227.4000911213361
 20
-156.67610886449225
 30
0.0
 10
227.28408941880147
 20
-156.35635913234856
 30
0.0
 10
227.1897472146473
 20
-156.0288748218377
 30
0.0
 10
227.09638644815925
 20
-155.69280071647935
 30
0.0
 10
227.0151661517678
 20
-155.3496287345211
 30
0.0
 10
227.0
 20
-154.99999999999997
 30
0.0
  0
SPLINE
  5
38
330
17
100
AcDbEntity
  8
CUT
100
AcDbSpline
 70
0
 71
3
 72
155
 73
151
 74
0
 40
0.0
 40
0.0
 40
0.0
 40
0.0
 40
0.0005689686463344304
 40
0.0005689686463344304
 40
0.0005689686463344304
 40
0.002188507674275829
 40
0.002188507674275829
 40
0.002188507674275829
 40
0.003808046702217227
 40
0.003808046702217227
 40
0.003808046702217227
 40
0.007047124758100024
 40
0.007047124758100024
 40
0.007047124758100024
 40
0.015429931960864264
 40
0.015429931960864264
 40
0.015429931960864264
 40
0.028759535638474876
 40
0.028759535638474876
 40
0.028759535638474876
 40
0.04935428893117796
 40
0.04935428893117796
 40
0.04935428893117796
 40
0.06390727387614546
 40
0.06390727387614546
 40
0.06390727387614546
 40
0.0954401149657271
 40
0.0954401149657271
 40
0.0954401149657271
 40
0.1269769174194779
 40
0.1269769174194779
 40
0.1269769174194779
 40
0.16336595904575082
 40
0.16336595904575082
 40
0.16336595904575082
 40
0.19490149061323186
 40
0.19490149061323186
 40
0.19490149061323186
 40
0.25191130079183444
 40
0.25191130079183444
 40
0.25191130079183444
 40
0.2834510520276369
 40
0.2834510520276369
 40
0.2834510520276369
 40
0.3064985347070042
 40
0.3064985347070042
 40
0.3064985347070042
 40
0.3392415099120267
 40
0.3392415099120267
 40
0.3392415099120267
 40
0.368342945566312
 40
0.368342945566312
 40
0.368342945566312
 40
0.4313829213915283
 40
0.4313829213915283
 40
0.4313829213915283
 40
0.4944166062269541
 40
0.4944166062269541
 40
0.4944166062269541
 40
0.5550272237490316
 40
0.5550272237490316
 40
0.5550272237490316
 40
0.5695738043066533
 40
0.5695738043066533
 40
0.5695738043066533
 40
0.5780586454858965
 40
0.5780586454858965
 40
0.5780586454858965
 40
0.5913909272316462
 40
0.5913909272316462
 40
0.5913909272316462
 40
0.5978962004679687
 40
0.5978962004679687
 40
0.5978962004679687
 40
0.6011488370861298
 40
0.6011488370861298
 40
0.6011488370861298
 40
0.604401473704291
 40
0.604401473704291
 40
0.604401473704291
 40
0.6053051332663788
 40
0.6053051332663788
 40
0.6053051332663788
 40
0.6062087928284665
 40
0.6062087928284665
 40
0.6062087928284665
 40
0.6063180112958105
 40
0.6063180112958105
 40
0.6063180112958105
 40
0.6074911056133079
 40
0.6074911056133079
 40
0.6074911056133079
 40
0.6086641999308053
 40
0.6086641999308053
 40
0.6086641999308053
 40
0.6110103885658001
 40
0.6110103885658001
 40
0.6110103885658001
 40
0.6157925455420953
 40
0.6157925455420953
 40
0.6157925455420953
 40
0.6236282211950852
 40
0.6236282211950852
 40
0.6236282211950852
 40
0.6401131490956092
 40
0.6401131490956092
 40
0.6401131490956092
 40
0.6550300984322402
 40
0.6550300984322402
 40
0.6550300984322402
 40
0.6880068930233999
 40
0.6880068930233999
 40
0.6880068930233999
 40
0.7249087328776055
 40
0.7249087328776055
 40
0.7249087328776055
 40
0.7516037565541273
 40
0.7516037565541273
 40
0.7516037565541273
 40
0.780656750334475
 40
0.780656750334475
 40
0.780656750334475
 40
0.8026455846406496
 40
0.8026455846406496
 40
0.8026455846406496
 40
0.815999333007975
 40
0.815999333007975
 40
0.815999333007975
 40
0.8458492423418836
 40
0.8458492423418836
 40
0.8458492423418836
 40
0.8741264460396667
 40
0.8741264460396667
 40
0.8741264460396667
 40
0.9055439276179639
 40
0.9055439276179639
 40
0.9055439276179639
 40
0.9330340678952671
 40
0.9330340678952671
 40
0.9330340678952671
 40
0.9636629922999819
 40
0.9636629922999819
 40
0.9636629922999819
 40
0.9840818256262097
 40
0.9840818256262097
 40
0.9840818256262097
 40
0.9919353683933547
 40
0.9919353683933547
 40
0.9919353683933547
 40
1.0
 40
1.0
 40
1.0
 40
1.0
 10
227.0
 20
-99.99999999999999
 30
0.0
 10
226.9994297428137
 20
-99.98139795076376
 30
0.0
 10
226.9980191219943
 20
-99.98511255916208
 30
0.0
 10
226.99706850101276
 20
-100.00153608903898
 30
0.0
 10
226.99430707962622
 20
-100.04389485150189
 30
0.0
 10
226.99216793745424
 20
-100.10778910110413
 30
0.0
 10
226.9889012634954
 20
-100.16408353518139
 30
0.0
 10
226.98577961594552
 20
-100.2218558967764
 30
0.0
 10
226.98148094697214
 20
-100.27612310759098
 30
0.0
 10
226.97600525657472
 20
-100.32688516762443
 30
0.0
 10
226.96521818090446
 20
-100.42973926368744
 30
0.0
 10
226.9468447803217
 20
-100.50455006721526
 30
0.0
 10
226.92520530917363
 20
-100.57535748064319
 30
0.0
 10
226.86963152171813
 20
-100.76404280485589
 30
0.0
 10
226.81069914796666
 20
-101.01493959570278
 30
0.0
 10
226.7417955212943
 20
-101.24876804142997
 30
0.0
 10
226.63222915173174
 20
-101.62478762508715
 30
0.0
 10
226.48637272800093
 20
-101.95952557589948
 30
0.0
 10
226.32026115275053
 20
-102.29257973707172
 30
0.0
 10
226.06438169660422
 20
-102.80826904114242
 30
0.0
 10
225.75964556086734
 20
-103.31310524023704
 30
0.0
 10
225.40673629091563
 20
-103.76915082479756
 30
0.0
 10
225.1573546171525
 20
-104.0927369539798
 30
0.0
 10
224.88597949660462
 20
-104.39731580999724
 30
0.0
 10
224.59261092927176
 20
-104.68288739284988
 30
0.0
 10
223.95819694048393
 20
-105.30115919486765
 30
0.0
 10
223.2234323084293
 20
-105.81760795324281
 30
0.0
 10
222.42152181876995
 20
-106.1946173941846
 30
0.0
 10
221.62010973285118
 20
-106.57273670542527
 30
0.0
 10
220.75238617415044
 20
-106.80981084347182
 30
0.0
 10
219.8698243572392
 20
-106.89072470037617
 30
0.0
 10
218.8513104044351
 20
-106.98523217604709
 30
0.0
 10
217.81580265408212
 20
-106.87219661305713
 30
0.0
 10
216.8380720225419
 20
-106.57383651782426
 30
0.0
 10
215.99028687766761
 20
-106.31582950179477
 30
0.0
 10
215.184988426194
 20
-105.92056848530923
 30
0.0
 10
214.45925260412488
 20
-105.41239868531484
 30
0.0
 10
213.14751427175474
 20
-104.49550667544358
 30
0.0
 10
212.09157490027053
 20
-103.20088397754938
 30
0.0
 10
211.5099282680994
 20
-101.70541981330179
 30
0.0
 10
211.18707213486414
 20
-100.87983432968365
 30
0.0
 10
211.01322699776335
 20
-99.99631274816238
 30
0.0
 10
211.00081246760647
 20
-99.10983486433106
 30
0.0
 10
210.99120593449683
 20
-98.4621514928878
 30
0.0
 10
211.06690643573728
 20
-97.81384297231807
 30
0.0
 10
211.21596131017267
 20
-97.18376136431196
 30
0.0
 10
211.42773837083828
 20
-96.28783078846635
 30
0.0
 10
211.78607511763914
 20
-95.43052843302432
 30
0.0
 10
212.23575121648193
 20
-94.62920717555718
 30
0.0
 10
212.63579261291716
 20
-93.91586392410842
 30
0.0
 10
213.1063896968016
 20
-93.24477261447274
 30
0.0
 10
213.61828992174904
 20
-92.60814757309073
 30
0.0
 10
214.73006851784405
 20
-91.22895181297329
 30
0.0
 10
216.0223338072653
 20
-90.00923033205653
 30
0.0
 10
217.34581574563907
 20
-88.83714731424523
 30
0.0
 10
218.6717552648833
 20
-87.66561651786934
 30
0.0
 10
220.039572697083
 20
-86.54268240790407
 30
0.0
 10
221.3667510934472
 20
-85.37259496275729
 30
0.0
 10
222.64036963311807
 20
-84.24688095443797
 30
0.0
 10
223.88830209755804
 20
-83.08113605301286
 30
0.0
 10
224.97594450976962
 20
-81.77078955980231
 30
0.0
 10
225.23702585808434
 20
-81.45723162725731
 30
0.0
 10
225.48528770701733
 20
-81.13321251561916
 30
0.0
 10
225.72073005656813
 20
-80.79873222488747
 30
0.0
 10
225.85783754389445
 20
-80.60285669193374
 30
0.0
 10
225.98897388229267
 20
-80.40313347133002
 30
0.0
 10
226.11413907176308
 20
-80.19956256307633
 30
0.0
 10
226.30996412173138
 20
-79.87764715770571
 30
0.0
 10
226.49104574399354
 20
-79.56163442599356
 30
0.0
 10
226.64374748300614
 20
-79.21700660317653
 30
0.0
 10
226.7187473630715
 20
-79.04687645952106
 30
0.0
 10
226.79042754932956
 20
-78.85240751772535
 30
0.0
 10
226.84749943989547
 20
-78.6754610354798
 30
0.0
 10
226.87671795169618
 20
-78.58772060781207
 30
0.0
 10
226.9038058574086
 20
-78.50474472804193
 30
0.0
 10
226.9287631570324
 20
-78.42653339616932
 30
0.0
 10
226.95343095006365
 20
-78.34636824065369
 30
0.0
 10
226.9742563345608
 20
-78.26835242759225
 30
0.0
 10
226.98595713001114
 20
-78.1544622493278
 30
0.0
 10
226.9889821898289
 20
-78.12594479918366
 30
0.0
 10
226.99135106533203
 20
-78.09734207310815
 30
0.0
 10
226.99306375652048
 20
-78.06865407110135
 30
0.0
 10
226.9950002740408
 20
-78.03957860912638
 30
0.0
 10
226.99705914531705
 20
-78.00354781556224
 30
0.0
 10
226.9997982284487
 20
-78.00009321945583
 30
0.0
 10
227.00012507123648
 20
-78.00051271259811
 30
0.0
 10
227.0004519140245
 20
-78.00093220574043
 30
0.0
 10
227.00077875681242
 20
-78.00135169888271
 30
0.0
 10
227.00409336556797
 20
-78.014506282647
 30
0.0
 10
227.0063346972369
 20
-78.07035346290566
 30
0.0
 10
227.01073600985276
 20
-78.11911439949031
 30
0.0
 10
227.01508410156194
 20
-78.17027722303588
 30
0.0
 10
227.02096043246783
 20
-78.21634579629789
 30
0.0
 10
227.02836500256973
 20
-78.25732011927627
 30
0.0
 10
227.04366351086574
 20
-78.34022172101386
 30
0.0
 10
227.0600718556356
 20
-78.39228051660302
 30
0.0
 10
227.0864536354322
 20
-78.47333844402307
 30
0.0
 10
227.14187651624778
 20
-78.64528153176133
 30
0.0
 10
227.21010871525323
 20
-78.85797061555313
 30
0.0
 10
227.28797916508438
 20
-79.05391484906693
 30
0.0
 10
227.41545634374845
 20
-79.37514407738725
 30
0.0
 10
227.574325884833
 20
-79.66989096625899
 30
0.0
 10
227.74472850885192
 20
-79.96370053985822
 30
0.0
 10
228.1038737034064
 20
-80.58252007040561
 30
0.0
 10
228.52570673114846
 20
-81.16575897909864
 30
0.0
 10
228.97892031434293
 20
-81.71605436490728
 30
0.0
 10
229.39099960195057
 20
-82.21458401857832
 30
0.0
 10
229.82357422828846
 20
-82.69488484783393
 30
0.0
 10
230.27664419335628
 20
-83.15695685267399
 30
0.0
 10
231.2752849985935
 20
-84.17982053762196
 30
0.0
 10
232.34468352178928
 20
-85.13008432530316
 30
0.0
 10
233.42640051237723
 20
-86.0633987927154
 30
0.0
 10
234.63747966073134
 20
-87.10754253462406
 30
0.0
 10
235.86882353995594
 20
-88.12842304007918
 30
0.0
 10
237.0584207867316
 20
-89.19738115170317
 30
0.0
 10
237.91843329323981
 20
-89.97083718193964
 30
0.0
 10
238.75739614976354
 20
-90.76957590846828
 30
0.0
 10
239.5374445095806
 20
-91.62476506700858
 30
0.0
 10
240.38454568996505
 20
-92.55515134402
 30
0.0
 10
241.16487305305367
 20
-93.55472511756874
 30
0.0
 10
241.7794340526703
 20
-94.65637688967621
 30
0.0
 10
242.24359135804403
 20
-95.48847195189539
 30
0.0
 10
242.6089103520973
 20
-96.38113191437924
 30
0.0
 10
242.8136964255174
 20
-97.31379390216838
 30
0.0
 10
242.93943012013952
 20
-97.88196861086786
 30
0.0
 10
243.00149755648698
 20
-98.45694461855453
 30
0.0
 10
242.9998987345594
 20
-99.0387219252285
 30
0.0
 10
242.996302408827
 20
-100.33534782106304
 30
0.0
 10
242.63824026138315
 20
-101.62514019655903
 30
0.0
 10
241.99110454931014
 20
-102.74704980810809
 30
0.0
 10
241.3803034726076
 20
-103.81202039916451
 30
0.0
 10
240.52260773288947
 20
-104.73065020306558
 30
0.0
 10
239.51520435099133
 20
-105.43021261773177
 30
0.0
 10
238.3965412476826
 20
-106.20825148837478
 30
0.0
 10
237.08751305619393
 20
-106.71694361479916
 30
0.0
 10
235.732091305097
 20
-106.87191103324044
 30
0.0
 10
234.54713475543636
 20
-107.00965309405633
 30
0.0
 10
233.3299027844164
 20
-106.87038278609289
 30
0.0
 10
232.20992038003064
 20
-106.45837731488267
 30
0.0
 10
230.95996332530973
 20
-106.00263368457584
 30
0.0
 10
229.84029462593745
 20
-105.21355276347595
 30
0.0
 10
228.96319281340976
 20
-104.21689288834669
 30
0.0
 10
228.37747679893997
 20
-103.55271304386676
 30
0.0
 10
227.89427171859072
 20
-102.79850696227301
 30
0.0
 10
227.5377523222521
 20
-101.98812401826896
 30
0.0
 10
227.40009112133626
 20
-101.67610886449232
 30
0.0
 10
227.2840894188014
 20
-101.35635913234857
 30
0.0
 10
227.18974721464735
 20
-101.02887482183777
 30
0.0
 10
227.09638644815954
 20
-100.69280071647941
 30
0.0
 10
227.0151661517679
 20
-100.3496287345211
 30
0.0
 10
227.0
 20
-99.99999999999997
 30
0.0
  0
SPLINE
  5
39
330
17
100
AcDbEntity
  8
CUT
100
AcDbSpline
 70
0
 71
3
 72
155
 73
151
 74
0
 40
0.0
 40
0.0
 40
0.0
 40
0.0
 40
0.0005689686465645632
 40
0.0005689686465645632
 40
0.0005689686465645632
 40
0.002188507675204311
 40
0.002188507675204311
 40
0.002188507675204311
 40
0.0038080467038440584
 40
0.0038080467038440584
 40
0.0038080467038440584
 40
0.007047124761123553
 40
0.007047124761123553
 40
0.007047124761123553
 40
0.015429931967670844
 40
0.015429931967670844
 40
0.015429931967670844
 40
0.028759535651518217
 40
0.028759535651518217
 40
0.028759535651518217
 40
0.04935428895379869
 40
0.04935428895379869
 40
0.04935428895379869
 40
0.06390727390465496
 40
0.06390727390465496
 40
0.06390727390465496
 40
0.09544011500551565
 40
0.09544011500551565
 40
0.09544011500551565
 40
0.126976917470105
 40
0.126976917470105
 40
0.126976917470105
 40
0.16336595910788504
 40
0.16336595910788504
 40
0.16336595910788504
 40
0.1949014906854893
 40
0.1949014906854893
 40
0.1949014906854893
 40
0.25191130088862995
 40
0.25191130088862995
 40
0.25191130088862995
 40
0.2834510521388733
 40
0.2834510521388733
 40
0.2834510521388733
 40
0.3064985348278733
 40
0.3064985348278733
 40
0.3064985348278733
 40
0.339241510042461
 40
0.339241510042461
 40
0.339241510042461
 40
0.36834294570500126
 40
0.36834294570500126
 40
0.36834294570500126
 40
0.43138292154739394
 40
0.43138292154739394
 40
0.43138292154739394
 40
0.4944166063915132
 40
0.4944166063915132
 40
0.4944166063915132
 40
0.5550272239220181
 40
0.5550272239220181
 40
0.5550272239220181
 40
0.5695738044817638
 40
0.5695738044817638
 40
0.5695738044817638
 40
0.5780586456621186
 40
0.5780586456621186
 40
0.5780586456621186
 40
0.591390927409531
 40
0.591390927409531
 40
0.591390927409531
 40
0.5978962006468653
 40
0.5978962006468653
 40
0.5978962006468653
 40
0.6011488372655325
 40
0.6011488372655325
 40
0.6011488372655325
 40
0.6044014738841995
 40
0.6044014738841995
 40
0.6044014738841995
 40
0.6053051334464117
 40
0.6053051334464117
 40
0.6053051334464117
 40
0.606208793008624
 40
0.606208793008624
 40
0.606208793008624
 40
0.60631801147598
 40
0.60631801147598
 40
0.60631801147598
 40
0.6074911057930368
 40
0.6074911057930368
 40
0.6074911057930368
 40
0.6086642001100936
 40
0.6086642001100936
 40
0.6086642001100936
 40
0.6110103887442072
 40
0.6110103887442072
 40
0.6110103887442072
 40
0.6157925457183357
 40
0.6157925457183357
 40
0.6157925457183357
 40
0.6236282213677788
 40
0.6236282213677788
 40
0.6236282213677788
 40
0.6401131492609348
 40
0.6401131492609348
 40
0.6401131492609348
 40
0.6550300985909429
 40
0.6550300985909429
 40
0.6550300985909429
 40
0.6880068931667995
 40
0.6880068931667995
 40
0.6880068931667995
 40
0.724908733002793
 40
0.724908733002793
 40
0.724908733002793
 40
0.7516037566664405
 40
0.7516037566664405
 40
0.7516037566664405
 40
0.7806567504340359
 40
0.7806567504340359
 40
0.7806567504340359
 40
0.8026455847305024
 40
0.8026455847305024
 40
0.8026455847305024
 40
0.8159993330919321
 40
0.8159993330919321
 40
0.8159993330919321
 40
0.8458492424126091
 40
0.8458492424126091
 40
0.8458492424126091
 40
0.8741264460972296
 40
0.8741264460972296
 40
0.8741264460972296
 40
0.9055439276606514
 40
0.9055439276606514
 40
0.9055439276606514
 40
0.9330340679249353
 40
0.9330340679249353
 40
0.9330340679249353
 40
0.9636629923160133
 40
0.9636629923160133
 40
0.9636629923160133
 40
0.9840818256332137
 40
0.9840818256332137
 40
0.9840818256332137
 40
0.9919353683968825
 40
0.9919353683968825
 40
0.9919353683968825
 40
1.0
 40
1.0
 40
1.0
 40
1.0
 10
287.0
 20
-162.99999999999994
 30
0.0
 10
286.9994297428156
 20
-162.9813979508069
 30
0.0
 10
286.99801912199325
 20
-162.98511255913243
 30
0.0
 10
286.9970685010128
 20
-163.00153608903818
 30
0.0
 10
286.99430707962637
 20
-163.04389485150008
 30
0.0
 10
286.9921679374545
 20
-163.10778910110176
 30
0.0
 10
286.98890126349556
 20
-163.1640835351784
 30
0.0
 10
286.98577961594594
 20
-163.22185589677312
 30
0.0
 10
286.98148094697245
 20
-163.27612310758715
 30
0.0
 10
286.97600525657526
 20
-163.32688516762045
 30
0.0
 10
286.9652181809053
 20
-163.42973926368268
 30
0.0
 10
286.9468447803229
 20
-163.5045500672111
 30
0.0
 10
286.9252053091754
 20
-163.575357480638
 30
0.0
 10
286.8696315217198
 20
-163.76404280484914
 30
0.0
 10
286.81069914796865
 20
-164.0149395956948
 30
0.0
 10
286.7417955212967
 20
-164.248768041422
 30
0.0
 10
286.6322291517343
 20
-164.6247876250799
 30
0.0
 10
286.48637272800426
 20
-164.9595255758926
 30
0.0
 10
286.3202611527538
 20
-165.29257973706495
 30
0.0
 10
286.0643816966088
 20
-165.80826904113354
 30
0.0
 10
285.7596455608767
 20
-166.31310524022345
 30
0.0
 10
285.4067362909202
 20
-166.76915082479155
 30
0.0
 10
285.1573546171574
 20
-167.092736953974
 30
0.0
 10
284.8859794966098
 20
-167.39731580999168
 30
0.0
 10
284.59261092927727
 20
-167.68288739284455
 30
0.0
 10
283.95819694049146
 20
-168.30115919486127
 30
0.0
 10
283.2234323084422
 20
-168.817607953235
 30
0.0
 10
282.42152181877685
 20
-169.19461739418134
 30
0.0
 10
281.6201097328639
 20
-169.57273670542068
 30
0.0
 10
280.75238617416113
 20
-169.80981084347002
 30
0.0
 10
279.86982435724656
 20
-169.8907247003754
 30
0.0
 10
278.85131040445594
 20
-169.98523217604807
 30
0.0
 10
277.8158026540816
 20
-169.87219661305758
 30
0.0
 10
276.8380720225492
 20
-169.57383651782652
 30
0.0
 10
275.9902868776747
 20
-169.31582950179796
 30
0.0
 10
275.18498842620016
 20
-168.92056848531263
 30
0.0
 10
274.45925260413117
 20
-168.41239868531918
 30
0.0
 10
273.14751427168596
 20
-167.4955066753915
 30
0.0
 10
272.0915749002495
 20
-166.20088397749075
 30
0.0
 10
271.5099282681022
 20
-164.70541981330888
 30
0.0
 10
271.1870721348655
 20
-163.8798343296906
 30
0.0
 10
271.01322699776466
 20
-162.9963127481698
 30
0.0
 10
271.0008124676066
 20
-162.10983486433867
 30
0.0
 10
270.99120593449516
 20
-161.46215149293928
 30
0.0
 10
271.0669064357314
 20
-160.81384297233944
 30
0.0
 10
271.2159613101709
 20
-160.1837613643194
 30
0.0
 10
271.4277383708356
 20
-159.28783078847476
 30
0.0
 10
271.78607511763516
 20
-158.43052843303204
 30
0.0
 10
272.23575121647815
 20
-157.62920717556386
 30
0.0
 10
272.6357926129129
 20
-156.9158639241151
 30
0.0
 10
273.1063896967967
 20
-156.24477261447905
 30
0.0
 10
273.6182899217443
 20
-155.60814757309666
 30
0.0
 10
274.73006851784095
 20
-154.22895181298261
 30
0.0
 10
276.0223338071792
 20
-153.00923033213485
 30
0.0
 10
277.3458157456333
 20
-151.83714731425033
 30
0.0
 10
278.67175526490536
 20
-150.66561651784968
 30
0.0
 10
280.0395726970794
 20
-149.5426824079077
 30
0.0
 10
281.36675109344145
 20
-148.37259496276232
 30
0.0
 10
282.64036963310906
 20
-147.2468809544465
 30
0.0
 10
283.8883020975579
 20
-146.0811360530129
 30
0.0
 10
284.97594450976476
 20
-144.77078955980815
 30
0.0
 10
285.2370258580797
 20
-144.45723162726327
 30
0.0
 10
285.4852877070128
 20
-144.13321251562527
 30
0.0
 10
285.72073005656375
 20
-143.79873222489368
 30
0.0
 10
285.85783754389007
 20
-143.60285669194005
 30
0.0
 10
285.9889738822887
 20
-143.40313347133647
 30
0.0
 10
286.11413907175915
 20
-143.19956256308282
 30
0.0
 10
286.3099641217276
 20
-142.87764715771232
 30
0.0
 10
286.49104574398996
 20
-142.5616344260001
 30
0.0
 10
286.64374748300304
 20
-142.21700660318356
 30
0.0
 10
286.7187473630689
 20
-142.04687645952822
 30
0.0
 10
286.7904275493269
 20
-141.85240751773316
 30
0.0
 10
286.84749943989317
 20
-141.6754610354871
 30
0.0
 10
286.87671795169405
 20
-141.58772060781914
 30
0.0
 10
286.9038058574067
 20
-141.50474472804854
 30
0.0
 10
286.92876315703063
 20
-141.4265333961755
 30
0.0
 10
286.9534309500617
 20
-141.34636824065896
 30
0.0
 10
286.9742563345594
 20
-141.26835242760097
 30
0.0
 10
286.9859571300101
 20
-141.15446224933763
 30
0.0
 10
286.9889821898279
 20
-141.12594479919315
 30
0.0
 10
286.99135106533123
 20
-141.09734207311723
 30
0.0
 10
286.9930637565202
 20
-141.06865407110925
 30
0.0
 10
286.99500027404
 20
-141.03957860913354
 30
0.0
 10
286.9970591453167
 20
-141.00354781556962
 30
0.0
 10
286.99979822844807
 20
-141.00009321945632
 30
0.0
 10
287.0001250712361
 20
-141.0005127125977
 30
0.0
 10
287.0004519140238
 20
-141.00093220573925
 30
0.0
 10
287.000778756812
 20
-141.00135169888074
 30
0.0
 10
287.00409336556737
 20
-141.01450628263646
 30
0.0
 10
287.006334697236
 20
-141.07035346289516
 30
0.0
 10
287.01073600985217
 20
-141.11911439948145
 30
0.0
 10
287.0150841015613
 20
-141.17027722302902
 30
0.0
 10
287.02096043246706
 20
-141.21634579629273
 30
0.0
 10
287.0283650025689
 20
-141.257320119272
 30
0.0
 10
287.0436635108651
 20
-141.3402217210115
 30
0.0
 10
287.0600718556321
 20
-141.39228051659083
 30
0.0
 10
287.08645363543013
 20
-141.4733384440167
 30
0.0
 10
287.14187651624536
 20
-141.645281531754
 30
0.0
 10
287.2101087152506
 20
-141.85797061554553
 30
0.0
 10
287.2879791650814
 20
-142.05391484905968
 30
0.0
 10
287.4154563437453
 20
-142.37514407738038
 30
0.0
 10
287.5743258848293
 20
-142.66989096625235
 30
0.0
 10
287.7447285088482
 20
-142.9637005398517
 30
0.0
 10
288.1038737034029
 20
-143.58252007040065
 30
0.0
 10
288.52570673114474
 20
-144.16575897909382
 30
0.0
 10
288.9789203143381
 20
-144.71605436490142
 30
0.0
 10
289.39099960194636
 20
-145.21458401857353
 30
0.0
 10
289.8235742282839
 20
-145.69488484782923
 30
0.0
 10
290.27664419335116
 20
-146.15695685266857
 30
0.0
 10
291.2752849985623
 20
-147.17982053759187
 30
0.0
 10
292.34468352176935
 20
-148.13008432528633
 30
0.0
 10
293.42640051237134
 20
-149.06339879271042
 30
0.0
 10
294.63747966072873
 20
-150.10754253462184
 30
0.0
 10
295.86882353995225
 20
-151.12842304007623
 30
0.0
 10
297.058420786726
 20
-152.1973811516981
 30
0.0
 10
297.91843329324246
 20
-152.97083718194088
 30
0.0
 10
298.7573961497815
 20
-153.7695759084874
 30
0.0
 10
299.53744450957555
 20
-154.62476506700304
 30
0.0
 10
300.3845456899611
 20
-155.55515134401435
 30
0.0
 10
301.1648730530546
 20
-156.5547251175704
 30
0.0
 10
301.77943405266643
 20
-157.65637688966962
 30
0.0
 10
302.2435913580406
 20
-158.4884719518885
 30
0.0
 10
302.6089103520949
 20
-159.38113191437196
 30
0.0
 10
302.81369642551584
 20
-160.313793902161
 30
0.0
 10
302.93943012013875
 20
-160.8819686108604
 30
0.0
 10
303.00149755648624
 20
-161.45694461854706
 30
0.0
 10
302.9998987345595
 20
-162.03872192522098
 30
0.0
 10
302.9963024088275
 20
-163.33534782105397
 30
0.0
 10
302.63824026138934
 20
-164.6251401965441
 30
0.0
 10
301.9911045493139
 20
-165.74704980810156
 30
0.0
 10
301.3803034726309
 20
-166.8120203991295
 30
0.0
 10
300.52260773291226
 20
-167.73065020305015
 30
0.0
 10
299.51520435099764
 20
-168.4302126177274
 30
0.0
 10
298.39654124769015
 20
-169.20825148837096
 30
0.0
 10
297.0875130562022
 20
-169.71694361479675
 30
0.0
 10
295.73209130510446
 20
-169.87191103323957
 30
0.0
 10
294.54713475544247
 20
-170.0096530940567
 30
0.0
 10
293.3299027844231
 20
-169.87038278609396
 30
0.0
 10
292.2099203800377
 20
-169.45837731488527
 30
0.0
 10
290.95996332530615
 20
-169.0026336845751
 30
0.0
 10
289.84029462594094
 20
-168.213552763477
 30
0.0
 10
288.9631928134148
 20
-167.2168928883524
 30
0.0
 10
288.3774767989446
 20
-166.552713043873
 30
0.0
 10
287.8942717185944
 20
-165.79850696227945
 30
0.0
 10
287.53775232225524
 20
-164.98812401827593
 30
0.0
 10
287.400091121339
 20
-164.67610886449938
 30
0.0
 10
287.2840894188038
 20
-164.35635913235595
 30
0.0
 10
287.18974721464934
 20
-164.02887482184505
 30
0.0
 10
287.0963864481603
 20
-163.69280071648427
 30
0.0
 10
287.0151661517681
 20
-163.3496287345236
 30
0.0
 10
287.0
 20
-162.99999999999997
 30
0.0
  0
SPLINE
  5
3A
330
17
100
AcDbEntity
  8
CUT
100
AcDbSpline
 70
0
 71
3
 72
149
 73
145
 74
0
 40
0.0
 40
0.0
 40
0.0
 40
0.0
 40
0.0006592971868480649
 40
0.0006592971868480649
 40
0.0006592971868480649
 40
0.003992575901823186
 40
0.003992575901823186
 40
0.003992575901823186
 40
0.007325854616798308
 40
0.007325854616798308
 40
0.007325854616798308
 40
0.0152086208965928
 40
0.0152086208965928
 40
0.0152086208965928
 40
0.02708216623142421
 40
0.02708216623142421
 40
0.02708216623142421
 40
0.03884848085695679
 40
0.03884848085695679
 40
0.03884848085695679
 40
0.06338999417726066
 40
0.06338999417726066
 40
0.06338999417726066
 40
0.0975253617336943
 40
0.0975253617336943
 40
0.0975253617336943
 40
0.12526075309470464
 40
0.12526075309470464
 40
0.12526075309470464
 40
0.1924627915000938
 40
0.1924627915000938
 40
0.1924627915000938
 40
0.22339692061263
 40
0.22339692061263
 40
0.22339692061263
 40
0.25113212508531724
 40
0.25113212508531724
 40
0.25113212508531724
 40
0.28099998179619573
 40
0.28099998179619573
 40
0.28099998179619573
 40
0.31300162583199154
 40
0.31300162583199154
 40
0.31300162583199154
 40
0.35139967084890966
 40
0.35139967084890966
 40
0.35139967084890966
 40
0.38126006333940854
 40
0.38126006333940854
 40
0.38126006333940854
 40
0.44737689651860585
 40
0.44737689651860585
 40
0.44737689651860585
 40
0.4772365845272354
 40
0.4772365845272354
 40
0.4772365845272354
 40
0.5028305714199346
 40
0.5028305714199346
 40
0.5028305714199346
 40
0.5102954842383371
 40
0.5102954842383371
 40
0.5102954842383371
 40
0.5220202647825211
 40
0.5220202647825211
 40
0.5220202647825211
 40
0.5276840157650198
 40
0.5276840157650198
 40
0.5276840157650198
 40
0.5305158912562691
 40
0.5305158912562691
 40
0.5305158912562691
 40
0.5333477667475184
 40
0.5333477667475184
 40
0.5333477667475184
 40
0.53407284046678
 40
0.53407284046678
 40
0.53407284046678
 40
0.5347979141860418
 40
0.5347979141860418
 40
0.5347979141860418
 40
0.5348833275959878
 40
0.5348833275959878
 40
0.5348833275959878
 40
0.5354523396530724
 40
0.5354523396530724
 40
0.5354523396530724
 40
0.5360213517101571
 40
0.5360213517101571
 40
0.5360213517101571
 40
0.5395319920004555
 40
0.5395319920004555
 40
0.5395319920004555
 40
0.5451970614431632
 40
0.5451970614431632
 40
0.5451970614431632
 40
0.5544742739950628
 40
0.5544742739950628
 40
0.5544742739950628
 40
0.5646970461862196
 40
0.5646970461862196
 40
0.5646970461862196
 40
0.6027996767970651
 40
0.6027996767970651
 40
0.6027996767970651
 40
0.6306803035070461
 40
0.6306803035070461
 40
0.6306803035070461
 40
0.6892289852584453
 40
0.6892289852584453
 40
0.6892289852584453
 40
0.7180419189734634
 40
0.7180419189734634
 40
0.7180419189734634
 40
0.7505738073565524
 40
0.7505738073565524
 40
0.7505738073565524
 40
0.7821833766411185
 40
0.7821833766411185
 40
0.7821833766411185
 40
0.8072889264633163
 40
0.8072889264633163
 40
0.8072889264633163
 40
0.8379715015056133
 40
0.8379715015056133
 40
0.8379715015056133
 40
0.8742305091367474
 40
0.8742305091367474
 40
0.8742305091367474
 40
0.9067719920235752
 40
0.9067719920235752
 40
0.9067719920235752
 40
0.9402428015947675
 40
0.9402428015947675
 40
0.9402428015947675
 40
0.9681351075495424
 40
0.9681351075495424
 40
0.9681351075495424
 40
0.9811515169941529
 40
0.9811515169941529
 40
0.9811515169941529
 40
0.9904490147586696
 40
0.9904490147586696
 40
0.9904490147586696
 40
1.0
 40
1.0
 40
1.0
 40
1.0
 10
287.00000000000006
 20
-107.99999999999997
 30
0.0
 10
286.99922325708064
 20
-107.98253907946618
 30
0.0
 10
286.99823863809587
 20
-107.98337074064996
 30
0.0
 10
286.99704614304426
 20
-108.00249498355106
 30
0.0
 10
286.99157241853015
 20
-108.10183758121761
 30
0.0
 10
286.98732109297595
 20
-108.22894765142283
 30
0.0
 10
286.9760066400337
 20
-108.3277459413642
 30
0.0
 10
286.9651452512431
 20
-108.42929980521744
 30
0.0
 10
286.947007799423
 20
-108.50383534629097
 30
0.0
 10
286.9256971128764
 20
-108.5731931485472
 30
0.0
 10
286.87634731165093
 20
-108.73789274875215
 30
0.0
 10
286.815039130915
 20
-108.99948669207663
 30
0.0
 10
286.7417947580328
 20
-109.2489282011777
 30
0.0
 10
286.6322323150284
 20
-109.62463801493213
 30
0.0
 10
286.48637102615584
 20
-109.95961779538308
 30
0.0
 10
286.3202586877103
 20
-110.29254077093158
 30
0.0
 10
286.1556155930491
 20
-110.62612473543001
 30
0.0
 10
285.96977946946
 20
-110.95172233807928
 30
0.0
 10
285.76275031694263
 20
-111.26933357887935
 30
0.0
 10
285.33138918856054
 20
-111.92433368831809
 30
0.0
 10
284.80971874885296
 20
-112.515332727496
 30
0.0
 10
284.21566408177034
 20
-113.02795276523801
 30
0.0
 10
283.3899412343975
 20
-113.7398456635931
 30
0.0
 10
282.41756729620494
 20
-114.28292662716235
 30
0.0
 10
281.3726915930289
 20
-114.59774309220256
 30
0.0
 10
280.5243737581508
 20
-114.85439615267452
 30
0.0
 10
279.63114984381457
 20
-114.95997382191585
 30
0.0
 10
278.7462671815032
 20
-114.9120976104342
 30
0.0
 10
276.59706051191023
 20
-114.80053841095405
 30
0.0
 10
274.52692761775205
 20
-113.78531381057152
 30
0.0
 10
273.0770560385084
 20
-112.20285807460198
 30
0.0
 10
272.4084263408199
 20
-111.47546725302041
 30
0.0
 10
271.86870731258597
 20
-110.62709243952523
 30
0.0
 10
271.50992759032766
 20
-109.70542090984607
 30
0.0
 10
271.18707197581944
 20
-108.87983286907249
 30
0.0
 10
271.0132287349777
 20
-107.9963140302285
 30
0.0
 10
271.0008105569962
 20
-107.10983434666045
 30
0.0
 10
270.98613450652516
 20
-106.15472621489457
 30
0.0
 10
271.159011333581
 20
-105.20085366280841
 30
0.0
 10
271.47457338422726
 20
-104.30127547737837
 30
0.0
 10
271.81183865051526
 20
-103.33516076507243
 30
0.0
 10
272.30640752802583
 20
-102.43059714432563
 30
0.0
 10
272.8850947267257
 20
-101.58988694352303
 30
0.0
 10
273.5810595018838
 20
-100.58020156879697
 30
0.0
 10
274.3963792716217
 20
-99.65861868532483
 30
0.0
 10
275.2587962702531
 20
-98.78932491827914
 30
0.0
 10
275.93017219358575
 20
-98.11317092342242
 30
0.0
 10
276.6321471974244
 20
-97.4681406818963
 30
0.0
 10
277.34581591190096
 20
-96.83714734957044
 30
0.0
 10
278.92661287561145
 20
-95.44029187635124
 30
0.0
 10
280.5674985567063
 20
-94.11262789188136
 30
0.0
 10
282.1271175909588
 20
-92.69157304108086
 30
0.0
 10
282.83089971525055
 20
-92.04957045108063
 30
0.0
 10
283.5184560598475
 20
-91.38913263752947
 30
0.0
 10
284.1672164720422
 20
-90.69073594403724
 30
0.0
 10
284.7225505815491
 20
-90.09112822277727
 30
0.0
 10
285.25093313453976
 20
-89.46827698565473
 30
0.0
 10
285.7207280151795
 20
-88.7987417482859
 30
0.0
 10
285.8578409839853
 20
-88.60288079194409
 30
0.0
 10
285.98897534564725
 20
-88.40313445299472
 30
0.0
 10
286.1141311001664
 20
-88.19950273143813
 30
0.0
 10
286.3099987945539
 20
-87.87828110943065
 30
0.0
 10
286.49097046855564
 20
-87.5601763358433
 30
0.0
 10
286.64383819855647
 20
-87.21876344867677
 30
0.0
 10
286.71782419996475
 20
-87.05021480724427
 30
0.0
 10
286.79087593634455
 20
-86.84988619687256
 30
0.0
 10
286.8477739276305
 20
-86.67500611135968
 30
0.0
 10
286.87674601920327
 20
-86.58770118004591
 30
0.0
 10
286.9035998244164
 20
-86.50494592308746
 30
0.0
 10
286.9283353432702
 20
-86.42674034048427
 30
0.0
 10
286.95277744124286
 20
-86.34614212449844
 30
0.0
 10
286.9747110697706
 20
-86.26833240056098
 30
0.0
 10
286.98600193803713
 20
-86.14721706087717
 30
0.0
 10
286.9889013002439
 20
-86.11650057797759
 30
0.0
 10
286.9911345752266
 20
-86.09743491381555
 30
0.0
 10
286.99314817098696
 20
-86.06918325093538
 30
0.0
 10
286.99518742813177
 20
-86.04314351996652
 30
0.0
 10
286.99702543573176
 20
-86.00490298980962
 30
0.0
 10
286.99979853554396
 20
-86.00012767116353
 30
0.0
 10
287.0001251986197
 20
-86.00054954268762
 30
0.0
 10
287.000451861696
 20
-86.00097141421182
 30
0.0
 10
287.00077852477165
 20
-86.0013932857359
 30
0.0
 10
287.00289690449415
 20
-86.00993046135088
 30
0.0
 10
287.00440597647264
 20
-86.03470998799904
 30
0.0
 10
287.0060134220636
 20
-86.05639172848613
 30
0.0
 10
287.00775330477006
 20
-86.07840122408577
 30
0.0
 10
287.00949318747655
 20
-86.10041071968543
 30
0.0
 10
287.01123307018304
 20
-86.12242021528508
 30
0.0
 10
287.0222366267887
 20
-86.26610310436504
 30
0.0
 10
287.0511760691103
 20
-86.36803003141547
 30
0.0
 10
287.0864570329483
 20
-86.47317069789491
 30
0.0
 10
287.1418826217669
 20
-86.64540085770344
 30
0.0
 10
287.2101020449996
 20
-86.85791213262665
 30
0.0
 10
287.2879753675447
 20
-87.05396133123315
 30
0.0
 10
287.4154566211282
 20
-87.37510859078338
 30
0.0
 10
287.57432800458014
 20
-87.66989707069602
 30
0.0
 10
287.74472669675316
 20
-87.9637152153735
 30
0.0
 10
287.93362552429465
 20
-88.28757010228382
 30
0.0
 10
288.1374889633542
 20
-88.6022077373048
 30
0.0
 10
288.35631701393334
 20
-88.90762812043683
 30
0.0
 10
289.1730145137676
 20
-90.04037205745439
 30
0.0
 10
290.14082894892374
 20
-91.05425521725121
 30
0.0
 10
291.1485871721963
 20
-92.01721301999974
 30
0.0
 10
291.8877384018343
 20
-92.7212732976582
 30
0.0
 10
292.65340740031826
 20
-93.39691185807494
 30
0.0
 10
293.42640067931126
 20
-94.0633987495373
 30
0.0
 10
295.0489432656411
 20
-95.46333234294201
 30
0.0
 10
296.7114524065466
 20
-96.82008650410644
 30
0.0
 10
298.2545980395962
 20
-98.3093701911711
 30
0.0
 10
299.01259326141684
 20
-99.04268037884597
 30
0.0
 10
299.74100642699136
 20
-99.80886666319311
 30
0.0
 10
300.4011836458464
 20
-100.63240747910854
 30
0.0
 10
301.1452689493671
 20
-101.56123169099352
 30
0.0
 10
301.8047649683587
 20
-102.56745367865153
 30
0.0
 10
302.2769348607945
 20
-103.6636766960235
 30
0.0
 10
302.7361831001112
 20
-104.7259416868736
 30
0.0
 10
303.00745662164877
 20
-105.87793206551686
 30
0.0
 10
302.9998994274679
 20
-107.03872176243522
 30
0.0
 10
302.9958478737937
 20
-107.95937776477179
 30
0.0
 10
302.81755780900795
 20
-108.87848272241276
 30
0.0
 10
302.47870094964503
 20
-109.73442609697008
 30
0.0
 10
302.0661227457257
 20
-110.7817196765539
 30
0.0
 10
301.4200268439595
 20
-111.73239083813985
 30
0.0
 10
300.61682668208425
 20
-112.51899710665289
 30
0.0
 10
299.6677846538087
 20
-113.4494326790048
 30
0.0
 10
298.4983714815843
 20
-114.15486683864091
 30
0.0
 10
297.2298582273733
 20
-114.55283874676172
 30
0.0
 10
296.0924513595873
 20
-114.91113230724926
 30
0.0
 10
294.8734465236946
 20
-115.01682408787468
 30
0.0
 10
293.6932948488967
 20
-114.83765358046648
 30
0.0
 10
292.4789830228838
 20
-114.6566824852465
 30
0.0
 10
291.3140970789507
 20
-114.1720398691028
 30
0.0
 10
290.3213536949618
 20
-113.45192872741987
 30
0.0
 10
289.492637940616
 20
-112.85307479548602
 30
0.0
 10
288.7805993517985
 20
-112.09678683557766
 30
0.0
 10
288.22012489968864
 20
-111.24302751362075
 30
0.0
 10
287.9577775491138
 20
-110.84369796626912
 30
0.0
 10
287.73032009559546
 20
-110.42539679462624
 30
0.0
 10
287.5377525391337
 20
-109.98812399869206
 30
0.0
 10
287.4000683840232
 20
-109.67610873365366
 30
0.0
 10
287.2840850965302
 20
-109.35635912043199
 30
0.0
 10
287.18980267665455
 20
-109.02887515902702
 30
0.0
 10
287.09634262719703
 20
-108.6928106112736
 30
0.0
 10
287.015184550172
 20
-108.34961752527666
 30
0.0
 10
287.0
 20
-107.99999999999996
 30
0.0
  0
SPLINE
  5
3B
330
17
100
AcDbEntity
  8
CUT
100
AcDbSpline
 70
0
 71
3
 72
125
 73
121
 74
0
 40
0.0
 40
0.0
 40
0.0
 40
0.0
 40
0.0005266961195863486
 40
0.0005266961195863486
 40
0.0005266961195863486
 40
0.0035251994895486344
 40
0.0035251994895486344
 40
0.0035251994895486344
 40
0.00652370285951092
 40
0.00652370285951092
 40
0.00652370285951092
 40
0.014283897339062494
 40
0.014283897339062494
 40
0.014283897339062494
 40
0.026623476953729765
 40
0.026623476953729765
 40
0.026623476953729765
 40
0.059160701971919874
 40
0.059160701971919874
 40
0.059160701971919874
 40
0.117542540636079
 40
0.117542540636079
 40
0.117542540636079
 40
0.18041838716520273
 40
0.18041838716520273
 40
0.18041838716520273
 40
0.24554180870288184
 40
0.24554180870288184
 40
0.24554180870288184
 40
0.27024556135470135
 40
0.27024556135470135
 40
0.27024556135470135
 40
0.3016855113817806
 40
0.3016855113817806
 40
0.3016855113817806
 40
0.3679185532339269
 40
0.3679185532339269
 40
0.3679185532339269
 40
0.49249890332783386
 40
0.49249890332783386
 40
0.49249890332783386
 40
0.5183119106085754
 40
0.5183119106085754
 40
0.5183119106085754
 40
0.5351398745203809
 40
0.5351398745203809
 40
0.5351398745203809
 40
0.5474789058353666
 40
0.5474789058353666
 40
0.5474789058353666
 40
0.5534995384403039
 40
0.5534995384403039
 40
0.5534995384403039
 40
0.559520171045241
 40
0.559520171045241
 40
0.559520171045241
 40
0.5604986128873843
 40
0.5604986128873843
 40
0.5604986128873843
 40
0.5614770547295278
 40
0.5614770547295278
 40
0.5614770547295278
 40
0.5615987238649298
 40
0.5615987238649298
 40
0.5615987238649298
 40
0.5629050960040883
 40
0.5629050960040883
 40
0.5629050960040883
 40
0.5642114681432469
 40
0.5642114681432469
 40
0.5642114681432469
 40
0.566824212421564
 40
0.566824212421564
 40
0.566824212421564
 40
0.5721496807542709
 40
0.5721496807542709
 40
0.5721496807542709
 40
0.5808755847265327
 40
0.5808755847265327
 40
0.5808755847265327
 40
0.61234833445033
 40
0.61234833445033
 40
0.61234833445033
 40
0.6735472353603212
 40
0.6735472353603212
 40
0.6735472353603212
 40
0.7102663842379706
 40
0.7102663842379706
 40
0.7102663842379706
 40
0.7443667489839877
 40
0.7443667489839877
 40
0.7443667489839877
 40
0.7767242811389452
 40
0.7767242811389452
 40
0.7767242811389452
 40
0.8090881676821364
 40
0.8090881676821364
 40
0.8090881676821364
 40
0.8362042590733967
 40
0.8362042590733967
 40
0.8362042590733967
 40
0.8746886189489296
 40
0.8746886189489296
 40
0.8746886189489296
 40
0.9035525546057509
 40
0.9035525546057509
 40
0.9035525546057509
 40
0.9359150777398036
 40
0.9359150777398036
 40
0.9359150777398036
 40
0.9700264298515744
 40
0.9700264298515744
 40
0.9700264298515744
 40
0.9822715623688476
 40
0.9822715623688476
 40
0.9822715623688476
 40
0.9910182339318737
 40
0.9910182339318737
 40
0.9910182339318737
 40
1.0
 40
1.0
 40
1.0
 40
1.0
 10
340.0
 20
-18.352941176470555
 30
0.0
 10
339.9996296442518
 20
-18.34494103659746
 30
0.0
 10
339.99916980127347
 20
-18.345181991740894
 30
0.0
 10
339.9986204710649
 20
-18.353664041900835
 30
0.0
 10
339.9961928589826
 20
-18.397424126668426
 30
0.0
 10
339.9940532905036
 20
-18.461701380945158
 30
0.0
 10
339.9887083560351
 20
-18.506769490647507
 30
0.0
 10
339.98329324165303
 20
-18.553285935662625
 30
0.0
 10
339.9753246224529
 20
-18.592261984763674
 30
0.0
 10
339.9648024984345
 20
-18.623697637950627
 30
0.0
 10
339.93865012786733
 20
-18.71249073169801
 30
0.0
 10
339.9109172461016
 20
-18.83055980974383
 30
0.0
 10
339.87849201002035
 20
-18.940596725380143
 30
0.0
 10
339.82693136552024
 20
-19.1175471176893
 30
0.0
 10
339.75829304847025
 20
-19.275070859248004
 30
0.0
 10
339.68012289541156
 20
-19.431802229211378
 30
0.0
 10
339.4752075051706
 20
-19.8497166537308
 30
0.0
 10
339.2003840342048
 20
-20.23454633718825
 30
0.0
 10
338.86711102553875
 20
-20.55665289075379
 30
0.0
 10
338.2723186854942
 20
-21.14090043640516
 30
0.0
 10
337.4772360735308
 20
-21.522309701678143
 30
0.0
 10
336.6446232269346
 20
-21.59563515311829
 30
0.0
 10
335.7481805913432
 20
-21.6803637029122
 30
0.0
 10
334.8323814699179
 20
-21.416275154950043
 30
0.0
 10
334.09847181370446
 20
-20.89995232250026
 30
0.0
 10
333.33638268348943
 20
-20.36900383064787
 30
0.0
 10
332.75894583751796
 20
-19.56103620737899
 30
0.0
 10
332.55575792633624
 20
-18.649734844172716
 30
0.0
 10
332.4781494040294
 20
-18.302678979404597
 30
0.0
 10
332.4535766856084
 20
-17.951929066599376
 30
0.0
 10
332.48203977107266
 20
-17.597485105757052
 30
0.0
 10
332.51741545763764
 20
-17.14917295616569
 30
0.0
 10
332.63777078695625
 20
-16.710357449818563
 30
0.0
 10
332.81666411249523
 20
-16.298870002080907
 30
0.0
 10
333.1967572561968
 20
-15.428670408351289
 30
0.0
 10
333.8123469628645
 20
-14.687660202093099
 30
0.0
 10
334.474727776879
 20
-14.018505857809144
 30
0.0
 10
335.730376028302
 20
-12.758446176391487
 30
0.0
 10
337.18674907504123
 20
-11.718921194464896
 30
0.0
 10
338.4347001202287
 20
-10.450695918305703
 30
0.0
 10
338.6938999871053
 20
-10.188395428426018
 30
0.0
 10
338.9384214527801
 20
-9.913232119204652
 30
0.0
 10
339.1682645172523
 20
-9.625205990641605
 30
0.0
 10
339.3178403133762
 20
-9.437220575093923
 30
0.0
 10
339.45612689731445
 20
-9.240514666538758
 30
0.0
 10
339.5831242690654
 20
-9.035088264976062
 30
0.0
 10
339.67527723375673
 20
-8.88359866244868
 30
0.0
 10
339.7604921148208
 20
-8.73488678870186
 30
0.0
 10
339.8323517567092
 20
-8.572708989729026
 30
0.0
 10
339.86764581791635
 20
-8.492647745655754
 30
0.0
 10
339.90137767027284
 20
-8.40113294951665
 30
0.0
 10
339.9282350305396
 20
-8.317864016695289
 30
0.0
 10
339.9548868198894
 20
-8.230581158143725
 30
0.0
 10
339.98204777194474
 20
-8.175997175900562
 30
0.0
 10
339.9933915905936
 20
-8.07268811732927
 30
0.0
 10
339.9949740244213
 20
-8.05782990814599
 30
0.0
 10
339.9961006284294
 20
-8.04437554578005
 30
0.0
 10
339.996771402617
 20
-8.032325030231398
 30
0.0
 10
339.9976121105273
 20
-8.01940811393255
 30
0.0
 10
339.9986383268752
 20
-8.001775675097642
 30
0.0
 10
339.99990504868185
 20
-8.00004386797911
 30
0.0
 10
340.0000588570524
 20
-8.000241276516778
 30
0.0
 10
340.0002126654233
 20
-8.00043868505445
 30
0.0
 10
340.00036647379414
 20
-8.000636093592124
 30
0.0
 10
340.001926289679
 20
-8.006826485953058
 30
0.0
 10
340.00298103399405
 20
-8.033107511956931
 30
0.0
 10
340.0050522399308
 20
-8.056053835055337
 30
0.0
 10
340.00709840073523
 20
-8.080130457899923
 30
0.0
 10
340.009863732926
 20
-8.101809786493526
 30
0.0
 10
340.0133482365037
 20
-8.12109182083611
 30
0.0
 10
340.020547534525
 20
-8.16010433930041
 30
0.0
 10
340.0282691085348
 20
-8.184602596049755
 30
0.0
 10
340.04068406373295
 20
-8.222747503069918
 30
0.0
 10
340.06676541941056
 20
-8.303661897299648
 30
0.0
 10
340.09887468953127
 20
-8.40375087790764
 30
0.0
 10
340.13551960709873
 20
-8.495959928972924
 30
0.0
 10
340.19706645819434
 20
-8.645123093345106
 30
0.0
 10
340.26871341407957
 20
-8.787834574253523
 30
0.0
 10
340.3504604747539
 20
-8.92409437169816
 30
0.0
 10
340.64125285517343
 20
-9.424625497186135
 30
0.0
 10
341.014033386205
 20
-9.869049070908371
 30
0.0
 10
341.4088147395404
 20
-10.288203353448143
 30
0.0
 10
342.18165586401443
 20
-11.101501285470897
 30
0.0
 10
343.05018274934656
 20
-11.814476335572802
 30
0.0
 10
343.90081418917055
 20
-12.54317953676724
 30
0.0
 10
344.4117866898693
 20
-12.980181169503382
 30
0.0
 10
344.919751895421
 20
-13.421661986106185
 30
0.0
 10
345.39945521287854
 20
-13.893265641548957
 30
0.0
 10
345.8441339448436
 20
-14.331243404783432
 30
0.0
 10
346.2659249162702
 20
-14.795862911813074
 30
0.0
 10
346.6232929877445
 20
-15.308933238019891
 30
0.0
 10
346.96140712942673
 20
-15.794778529239236
 30
0.0
 10
347.2407082396297
 20
-16.328291873289857
 30
0.0
 10
347.3959014692851
 20
-16.90198014424283
 30
0.0
 10
347.55257595032776
 20
-17.473944930990793
 30
0.0
 10
347.57559623375164
 20
-18.08502852632017
 30
0.0
 10
347.44099108924405
 20
-18.664029931316506
 30
0.0
 10
347.3299030742579
 20
-19.149098721471862
 30
0.0
 10
347.1133309925647
 20
-19.60829411017457
 30
0.0
 10
346.81798284238283
 20
-20.008100755213476
 30
0.0
 10
346.39901501133005
 20
-20.576288017973425
 30
0.0
 10
345.82428979105407
 20
-21.027156652612128
 30
0.0
 10
345.1750066179152
 20
-21.303447847360438
 30
0.0
 10
344.68831237365214
 20
-21.51099540616346
 30
0.0
 10
344.1584678476121
 20
-21.619430405597424
 30
0.0
 10
343.6289536473997
 20
-21.610436443536038
 30
0.0
 10
343.03535664765496
 20
-21.60183818477651
 30
0.0
 10
342.44512602765576
 20
-21.44197100005056
 30
0.0
 10
341.9276849136802
 20
-21.151380961400193
 30
0.0
 10
341.3811920793844
 20
-20.846194128568687
 30
0.0
 10
340.9167324738027
 20
-20.401355705287486
 30
0.0
 10
340.5741764111617
 20
-19.879071782530545
 30
0.0
 10
340.4507185995346
 20
-19.691150744406595
 30
0.0
 10
340.3436797679317
 20
-19.494303133487634
 30
0.0
 10
340.25305991635395
 20
-19.288528949773692
 30
0.0
 10
340.1882781747463
 20
-19.141698289172897
 30
0.0
 10
340.13368913825974
 20
-18.991227826987632
 30
0.0
 10
340.0892928068929
 20
-18.837117563217806
 30
0.0
 10
340.0453583285455
 20
-18.678965043049132
 30
0.0
 10
340.0071370125969
 20
-18.51747234565702
 30
0.0
 10
340.0
 20
-18.35294117647056
 30
0.0
  0
SPLINE
  5
3C
330
17
100
AcDbEntity
  8
CUT
100
AcDbSpline
 70
0
 71
3
 72
149
 73
145
 74
0
 40
0.0
 40
0.0
 40
0.0
 40
0.0
 40
0.0006592971878468529
 40
0.0006592971878468529
 40
0.0006592971878468529
 40
0.00399257590485779
 40
0.00399257590485779
 40
0.00399257590485779
 40
0.007325854621868728
 40
0.007325854621868728
 40
0.007325854621868728
 40
0.015208620906544505
 40
0.015208620906544505
 40
0.015208620906544505
 40
0.027082166247776453
 40
0.027082166247776453
 40
0.027082166247776453
 40
0.03884848087979173
 40
0.03884848087979173
 40
0.03884848087979173
 40
0.0633899942143962
 40
0.0633899942143962
 40
0.0633899942143962
 40
0.09752536179092962
 40
0.09752536179092962
 40
0.09752536179092962
 40
0.12526075316875757
 40
0.12526075316875757
 40
0.12526075316875757
 40
0.1924627916114043
 40
0.1924627916114043
 40
0.1924627916114043
 40
0.22339692073535397
 40
0.22339692073535397
 40
0.22339692073535397
 40
0.251132125218288
 40
0.251132125218288
 40
0.251132125218288
 40
0.2809999819380124
 40
0.2809999819380124
 40
0.2809999819380124
 40
0.31300162598125764
 40
0.31300162598125764
 40
0.31300162598125764
 40
0.3513996710107882
 40
0.3513996710107882
 40
0.3513996710107882
 40
0.38126006351171626
 40
0.38126006351171626
 40
0.38126006351171626
 40
0.44737689671474773
 40
0.44737689671474773
 40
0.44737689671474773
 40
0.47723658473393593
 40
0.47723658473393593
 40
0.47723658473393593
 40
0.5028305716356083
 40
0.5028305716356083
 40
0.5028305716356083
 40
0.5102954844566207
 40
0.5102954844566207
 40
0.5102954844566207
 40
0.5220202650051227
 40
0.5220202650051227
 40
0.5220202650051227
 40
0.5276840159897107
 40
0.5276840159897107
 40
0.5276840159897107
 40
0.5305158914820047
 40
0.5305158914820047
 40
0.5305158914820047
 40
0.5333477669742988
 40
0.5333477669742988
 40
0.5333477669742988
 40
0.5340728406937458
 40
0.5340728406937458
 40
0.5340728406937458
 40
0.5347979144131929
 40
0.5347979144131929
 40
0.5347979144131929
 40
0.5348833278231924
 40
0.5348833278231924
 40
0.5348833278231924
 40
0.5354523398799839
 40
0.5354523398799839
 40
0.5354523398799839
 40
0.5360213519367754
 40
0.5360213519367754
 40
0.5360213519367754
 40
0.539531992225328
 40
0.539531992225328
 40
0.539531992225328
 40
0.5451970616651796
 40
0.5451970616651796
 40
0.5451970616651796
 40
0.5544742742124178
 40
0.5544742742124178
 40
0.5544742742124178
 40
0.5646970463987933
 40
0.5646970463987933
 40
0.5646970463987933
 40
0.6027996769907115
 40
0.6027996769907115
 40
0.6027996769907115
 40
0.6306803036865081
 40
0.6306803036865081
 40
0.6306803036865081
 40
0.6892289854085109
 40
0.6892289854085109
 40
0.6892289854085109
 40
0.7180419191109136
 40
0.7180419191109136
 40
0.7180419191109136
 40
0.7505738074802006
 40
0.7505738074802006
 40
0.7505738074802006
 40
0.7821833767502281
 40
0.7821833767502281
 40
0.7821833767502281
 40
0.8072889265608562
 40
0.8072889265608562
 40
0.8072889265608562
 40
0.8379715015886826
 40
0.8379715015886826
 40
0.8379715015886826
 40
0.8742305092018838
 40
0.8742305092018838
 40
0.8742305092018838
 40
0.9067719920720821
 40
0.9067719920720821
 40
0.9067719920720821
 40
0.9402428016260261
 40
0.9402428016260261
 40
0.9402428016260261
 40
0.9681351075661809
 40
0.9681351075661809
 40
0.9681351075661809
 40
0.9811515170039671
 40
0.9811515170039671
 40
0.9811515170039671
 40
0.9904490147636089
 40
0.9904490147636089
 40
0.9904490147636089
 40
1.0
 40
1.0
 40
1.0
 40
1.0
 10
347.00000000000006
 20
-154.99999999999997
 30
0.0
 10
346.99922325708155
 20
-154.9825390794643
 30
0.0
 10
346.9982386380967
 20
-154.9833707406481
 30
0.0
 10
346.9970461430443
 20
-155.00249498355106
 30
0.0
 10
346.9915724185304
 20
-155.10183758121494
 30
0.0
 10
346.9873210929762
 20
-155.2289476514195
 30
0.0
 10
346.9760066400341
 20
-155.32774594136006
 30
0.0
 10
346.9651452512439
 20
-155.42929980521293
 30
0.0
 10
346.9470077994241
 20
-155.50383534628654
 30
0.0
 10
346.9256971128781
 20
-155.57319314854175
 30
0.0
 10
346.87634731165235
 20
-155.73789274874613
 30
0.0
 10
346.8150391309175
 20
-155.99948669206495
 30
0.0
 10
346.7417947580347
 20
-156.2489282011739
 30
0.0
 10
346.632232315032
 20
-156.62463801491998
 30
0.0
 10
346.48637102615737
 20
-156.9596177953811
 30
0.0
 10
346.3202586877158
 20
-157.29254077092065
 30
0.0
 10
346.1556155930529
 20
-157.62612473542418
 30
0.0
 10
345.9697794694631
 20
-157.9517223380745
 30
0.0
 10
345.76275031694644
 20
-158.26933357887154
 30
0.0
 10
345.33138918858157
 20
-158.924333688289
 30
0.0
 10
344.809718748894
 20
-159.51533272745647
 30
0.0
 10
344.2156640817759
 20
-160.0279527652331
 30
0.0
 10
343.3899412343513
 20
-160.73984566362938
 30
0.0
 10
342.4175672961997
 20
-161.2829266271574
 30
0.0
 10
341.3726915930363
 20
-161.59774309220035
 30
0.0
 10
340.52437375815794
 20
-161.85439615267308
 30
0.0
 10
339.63114984382497
 20
-161.9599738219152
 30
0.0
 10
338.7462671815092
 20
-161.91209761043476
 30
0.0
 10
336.59706051198305
 20
-161.8005384109254
 30
0.0
 10
334.5269276179923
 20
-160.78531381076652
 30
0.0
 10
333.07705603851093
 20
-159.202858074603
 30
0.0
 10
332.40842634083236
 20
-158.47546725303758
 30
0.0
 10
331.86870731259324
 20
-157.62709243953992
 30
0.0
 10
331.5099275903308
 20
-156.7054209098541
 30
0.0
 10
331.1870719758208
 20
-155.87983286907905
 30
0.0
 10
331.013228734979
 20
-154.99631403023673
 30
0.0
 10
331.0008105569964
 20
-154.109834346668
 30
0.0
 10
330.9861345065271
 20
-153.15472621497668
 30
0.0
 10
331.15901133354413
 20
-152.20085366292184
 30
0.0
 10
331.4745733842247
 20
-151.30127547738553
 30
0.0
 10
331.81183865051776
 20
-150.33516076505614
 30
0.0
 10
332.3064075280581
 20
-149.43059714427912
 30
0.0
 10
332.8850947267185
 20
-148.58988694352965
 30
0.0
 10
333.58105950187337
 20
-147.58020156881543
 30
0.0
 10
334.3963792716001
 20
-146.6586186853455
 30
0.0
 10
335.25879627024693
 20
-145.7893249182855
 30
0.0
 10
335.9301721935911
 20
-145.11317092341625
 30
0.0
 10
336.6321471974321
 20
-144.46814068189047
 30
0.0
 10
337.345815911895
 20
-143.83714734957476
 30
0.0
 10
338.92661287561566
 20
-142.4402918763489
 30
0.0
 10
340.5674985567003
 20
-141.1126278918858
 30
0.0
 10
342.1271175909535
 20
-139.69157304108603
 30
0.0
 10
342.8308997152411
 20
-139.04957045108966
 30
0.0
 10
343.5184560598403
 20
-138.3891326375367
 30
0.0
 10
344.16721647203696
 20
-137.69073594404287
 30
0.0
 10
344.7225505815441
 20
-137.0911282227831
 30
0.0
 10
345.2509331345349
 20
-136.468276985661
 30
0.0
 10
345.7207280151751
 20
-135.79874174829206
 30
0.0
 10
345.8578409839811
 20
-135.60288079194984
 30
0.0
 10
345.98897534564327
 20
-135.40313445300117
 30
0.0
 10
346.1141311001617
 20
-135.19950273144585
 30
0.0
 10
346.30999879455095
 20
-134.87828110943633
 30
0.0
 10
346.4909704685513
 20
-134.5601763358503
 30
0.0
 10
346.6438381985539
 20
-134.21876344868375
 30
0.0
 10
346.71782419996146
 20
-134.05021480725154
 30
0.0
 10
346.7908759363421
 20
-133.84988619688042
 30
0.0
 10
346.8477739276281
 20
-133.6750061113669
 30
0.0
 10
346.8767460192009
 20
-133.5877011800527
 30
0.0
 10
346.9035998244144
 20
-133.50494592309408
 30
0.0
 10
346.9283353432682
 20
-133.4267403404906
 30
0.0
 10
346.95277744124115
 20
-133.3461421245047
 30
0.0
 10
346.97471106976866
 20
-133.26833240056808
 30
0.0
 10
346.98600193803594
 20
-133.14721706088685
 30
0.0
 10
346.9889013002422
 20
-133.11650057799096
 30
0.0
 10
346.9911345752264
 20
-133.09743491382426
 30
0.0
 10
346.99314817098633
 20
-133.06918325094315
 30
0.0
 10
346.99518742813154
 20
-133.0431435199724
 30
0.0
 10
346.9970254357311
 20
-133.00490298981737
 30
0.0
 10
346.99979853554333
 20
-133.00012767116417
 30
0.0
 10
347.0001251986194
 20
-133.00054954268748
 30
0.0
 10
347.0004518616955
 20
-133.00097141421094
 30
0.0
 10
347.00077852477165
 20
-133.0013932857343
 30
0.0
 10
347.00289690449364
 20
-133.00993046134406
 30
0.0
 10
347.00440597647207
 20
-133.03470998799216
 30
0.0
 10
347.006013422063
 20
-133.05639172847805
 30
0.0
 10
347.00775330476927
 20
-133.07840122407669
 30
0.0
 10
347.0094931874759
 20
-133.10041071967538
 30
0.0
 10
347.01123307018224
 20
-133.1224202152741
 30
0.0
 10
347.02223662678745
 20
-133.26610310435706
 30
0.0
 10
347.05117606910807
 20
-133.36803003140886
 30
0.0
 10
347.08645703294616
 20
-133.47317069788852
 30
0.0
 10
347.14188262176486
 20
-133.645400857696
 30
0.0
 10
347.2101020449969
 20
-133.85791213261908
 30
0.0
 10
347.2879753675419
 20
-134.0539613312257
 30
0.0
 10
347.4154566211243
 20
-134.37510859077585
 30
0.0
 10
347.5743280045781
 20
-134.66989707069123
 30
0.0
 10
347.74472669674736
 20
-134.96371521536466
 30
0.0
 10
347.9336255242896
 20
-135.2875701022767
 30
0.0
 10
348.1374889633509
 20
-135.6022077372993
 30
0.0
 10
348.3563170139308
 20
-135.90762812043218
 30
0.0
 10
349.1730145137606
 20
-137.0403720574472
 30
0.0
 10
350.1408289489182
 20
-138.05425521724547
 30
0.0
 10
351.1485871721919
 20
-139.01721301999592
 30
0.0
 10
351.88773840183194
 20
-139.72127329765445
 30
0.0
 10
352.6534074003139
 20
-140.3969118580727
 30
0.0
 10
353.4264006793078
 20
-141.06339874953278
 30
0.0
 10
355.0489432656289
 20
-142.4633323429314
 30
0.0
 10
356.7114524064853
 20
-143.82008650405706
 30
0.0
 10
358.2545980395954
 20
-145.30937019116502
 30
0.0
 10
359.01259326147436
 20
-146.0426803789076
 30
0.0
 10
359.7410064270197
 20
-146.808866663226
 30
0.0
 10
360.4011836458417
 20
-147.63240747910254
 30
0.0
 10
361.1452689493401
 20
-148.56123169096497
 30
0.0
 10
361.80476496832284
 20
-149.5674536785861
 30
0.0
 10
362.27693486079136
 20
-150.66367669601655
 30
0.0
 10
362.736183100109
 20
-151.72594168686652
 30
0.0
 10
363.00745662164763
 20
-152.8779320655094
 30
0.0
 10
362.999899427468
 20
-154.03872176242774
 30
0.0
 10
362.9958478737936
 20
-154.9593777647631
 30
0.0
 10
362.8175578090123
 20
-155.87848272240646
 30
0.0
 10
362.478700949646
 20
-156.73442609696167
 30
0.0
 10
362.0661227457357
 20
-157.78171967654228
 30
0.0
 10
361.4200268439683
 20
-158.73239083812751
 30
0.0
 10
360.61682668208965
 20
-159.5189971066476
 30
0.0
 10
359.66778465382737
 20
-160.44943267898674
 30
0.0
 10
358.49837148161544
 20
-161.1548668386295
 30
0.0
 10
357.2298582273807
 20
-161.55283874675948
 30
0.0
 10
356.09245135959446
 20
-161.9111323072481
 30
0.0
 10
354.87344652370314
 20
-162.01682408787457
 30
0.0
 10
353.69329484890415
 20
-161.8376535804676
 30
0.0
 10
352.4789830228927
 20
-161.65668248524764
 30
0.0
 10
351.31409707897103
 20
-161.17203986911653
 30
0.0
 10
350.321353694968
 20
-160.45192872742436
 30
0.0
 10
349.4926379406208
 20
-159.85307479549087
 30
0.0
 10
348.78059935180374
 20
-159.09678683558369
 30
0.0
 10
348.220124899693
 20
-158.2430275136271
 30
0.0
 10
347.9577775491173
 20
-157.84369796627573
 30
0.0
 10
347.7303200955991
 20
-157.42539679463312
 30
0.0
 10
347.5377525391368
 20
-156.98812399869888
 30
0.0
 10
347.40006838402616
 20
-156.67610873366115
 30
0.0
 10
347.28408509653275
 20
-156.35635912043927
 30
0.0
 10
347.18980267665677
 20
-156.0288751590338
 30
0.0
 10
347.0963426271977
 20
-155.69281061127904
 30
0.0
 10
347.0151845501726
 20
-155.34961752527894
 30
0.0
 10
346.99999999999994
 20
-154.99999999999997
 30
0.0
  0
SPLINE
  5
3D
330
17
100
AcDbEntity
  8
CUT
100
AcDbSpline
 70
0
 71
3
 72
149
 73
145
 74
0
 40
0.0
 40
0.0
 40
0.0
 40
0.0
 40
0.0006592971879290045
 40
0.0006592971879290045
 40
0.0006592971879290045
 40
0.003992575906219841
 40
0.003992575906219841
 40
0.003992575906219841
 40
0.007325854624510678
 40
0.007325854624510678
 40
0.007325854624510678
 40
0.015208620912143436
 40
0.015208620912143436
 40
0.015208620912143436
 40
0.027082166258494127
 40
0.027082166258494127
 40
0.027082166258494127
 40
0.03884848089546404
 40
0.03884848089546404
 40
0.03884848089546404
 40
0.06338999423971158
 40
0.06338999423971158
 40
0.06338999423971158
 40
0.0975253618248382
 40
0.0975253618248382
 40
0.0975253618248382
 40
0.12526075320652189
 40
0.12526075320652189
 40
0.12526075320652189
 40
0.1924627916574641
 40
0.1924627916574641
 40
0.1924627916574641
 40
0.22339692078423054
 40
0.22339692078423054
 40
0.22339692078423054
 40
0.2511321252696486
 40
0.2511321252696486
 40
0.2511321252696486
 40
0.28099998199164694
 40
0.28099998199164694
 40
0.28099998199164694
 40
0.3130016260360577
 40
0.3130016260360577
 40
0.3130016260360577
 40
0.351399671059896
 40
0.351399671059896
 40
0.351399671059896
 40
0.3812600635554437
 40
0.3812600635554437
 40
0.3812600635554437
 40
0.44737689674252296
 40
0.44737689674252296
 40
0.44737689674252296
 40
0.47723658475565317
 40
0.47723658475565317
 40
0.47723658475565317
 40
0.5028305716524487
 40
0.5028305716524487
 40
0.5028305716524487
 40
0.5102954844720484
 40
0.5102954844720484
 40
0.5102954844720484
 40
0.5220202650183117
 40
0.5220202650183117
 40
0.5220202650183117
 40
0.5276840160018131
 40
0.5276840160018131
 40
0.5276840160018131
 40
0.5305158914935639
 40
0.5305158914935639
 40
0.5305158914935639
 40
0.5333477669853146
 40
0.5333477669853146
 40
0.5333477669853146
 40
0.534072840704708
 40
0.534072840704708
 40
0.534072840704708
 40
0.5347979144241013
 40
0.5347979144241013
 40
0.5347979144241013
 40
0.5348833278340894
 40
0.5348833278340894
 40
0.5348833278340894
 40
0.5354523398908203
 40
0.5354523398908203
 40
0.5354523398908203
 40
0.5360213519475512
 40
0.5360213519475512
 40
0.5360213519475512
 40
0.5395319922356384
 40
0.5395319922356384
 40
0.5395319922356384
 40
0.5451970616747922
 40
0.5451970616747922
 40
0.5451970616747922
 40
0.5544742742209998
 40
0.5544742742209998
 40
0.5544742742209998
 40
0.5646970464061306
 40
0.5646970464061306
 40
0.5646970464061306
 40
0.602799676994297
 40
0.602799676994297
 40
0.602799676994297
 40
0.6306803036876636
 40
0.6306803036876636
 40
0.6306803036876636
 40
0.6892289854065553
 40
0.6892289854065553
 40
0.6892289854065553
 40
0.7180419191068375
 40
0.7180419191068375
 40
0.7180419191068375
 40
0.7505738074743458
 40
0.7505738074743458
 40
0.7505738074743458
 40
0.7821833767440306
 40
0.7821833767440306
 40
0.7821833767440306
 40
0.8072889265544241
 40
0.8072889265544241
 40
0.8072889265544241
 40
0.8379715015822946
 40
0.8379715015822946
 40
0.8379715015822946
 40
0.874230509196396
 40
0.874230509196396
 40
0.874230509196396
 40
0.9067719920682326
 40
0.9067719920682326
 40
0.9067719920682326
 40
0.940242801623524
 40
0.940242801623524
 40
0.940242801623524
 40
0.9681351075648694
 40
0.9681351075648694
 40
0.9681351075648694
 40
0.9811515170032131
 40
0.9811515170032131
 40
0.9811515170032131
 40
0.9904490147632496
 40
0.9904490147632496
 40
0.9904490147632496
 40
1.0
 40
1.0
 40
1.0
 40
1.0
 10
346.99999999999994
 20
-99.99999999999997
 30
0.0
 10
346.99922325708167
 20
-99.9825390794647
 30
0.0
 10
346.9982386380967
 20
-99.98337074064852
 30
0.0
 10
346.99704614304443
 20
-100.00249498355146
 30
0.0
 10
346.99157241853015
 20
-100.10183758121757
 30
0.0
 10
346.9873210929758
 20
-100.22894765142287
 30
0.0
 10
346.9760066400336
 20
-100.3277459413642
 30
0.0
 10
346.965145251243
 20
-100.42929980521737
 30
0.0
 10
346.94700779942275
 20
-100.50383534629101
 30
0.0
 10
346.92569711287643
 20
-100.57319314854723
 30
0.0
 10
346.8763473116508
 20
-100.73789274875246
 30
0.0
 10
346.8150391309153
 20
-100.99948669207538
 30
0.0
 10
346.74179475803294
 20
-101.24892820117935
 30
0.0
 10
346.63223231502866
 20
-101.6246380149303
 30
0.0
 10
346.4863710261555
 20
-101.95961779538482
 30
0.0
 10
346.3202586877112
 20
-102.29254077093013
 30
0.0
 10
346.1556155930496
 20
-102.62612473542957
 30
0.0
 10
345.9697794694597
 20
-102.9517223380798
 30
0.0
 10
345.7627503169405
 20
-103.26933357888068
 30
0.0
 10
345.3313891885636
 20
-103.92433368831536
 30
0.0
 10
344.8097187488545
 20
-104.51533272749435
 30
0.0
 10
344.2156640817702
 20
-105.02795276523813
 30
0.0
 10
343.3899412345422
 20
-105.73984566347794
 30
0.0
 10
342.41756729632937
 20
-106.28292662712958
 30
0.0
 10
341.3726915930289
 20
-106.59774309220255
 30
0.0
 10
340.5243737581496
 20
-106.85439615267437
 30
0.0
 10
339.63114984381696
 20
-106.95997382191614
 30
0.0
 10
338.74626718150137
 20
-106.912097610434
 30
0.0
 10
336.5970605119985
 20
-106.80053841090759
 30
0.0
 10
334.526927618089
 20
-105.78531381084453
 30
0.0
 10
333.07705603850576
 20
-104.20285807460037
 30
0.0
 10
332.40842634082253
 20
-103.47546725302243
 30
0.0
 10
331.8687073125822
 20
-102.62709243952025
 30
0.0
 10
331.50992759032744
 20
-101.7054209098456
 30
0.0
 10
331.1870719758198
 20
-100.8798328690735
 30
0.0
 10
331.0132287349777
 20
-99.9963140302285
 30
0.0
 10
331.0008105569962
 20
-99.10983434666039
 30
0.0
 10
330.9861345065249
 20
-98.15472621499282
 30
0.0
 10
331.15901133355123
 20
-97.20085366288788
 30
0.0
 10
331.4745733842272
 20
-96.30127547737835
 30
0.0
 10
331.8118386505051
 20
-95.33516076510573
 30
0.0
 10
332.3064075279806
 20
-94.43059714439688
 30
0.0
 10
332.88509472672774
 20
-93.58988694351793
 30
0.0
 10
333.5810595018763
 20
-92.58020156880946
 30
0.0
 10
334.3963792716212
 20
-91.65861868532366
 30
0.0
 10
335.25879627025273
 20
-90.78932491827925
 30
0.0
 10
335.9301721935808
 20
-90.11317092342718
 30
0.0
 10
336.63214719741325
 20
-89.4681406819068
 30
0.0
 10
337.34581591190226
 20
-88.83714734956803
 30
0.0
 10
338.926612875605
 20
-87.44029187635837
 30
0.0
 10
340.5674985567108
 20
-86.11262789187674
 30
0.0
 10
342.12711759095805
 20
-84.6915730410816
 30
0.0
 10
342.83089971526584
 20
-84.04957045106686
 30
0.0
 10
343.51845605985346
 20
-83.38913263752282
 30
0.0
 10
344.1672164720421
 20
-82.69073594403727
 30
0.0
 10
344.7225505815495
 20
-82.09112822277694
 30
0.0
 10
345.2509331345394
 20
-81.46827698565443
 30
0.0
 10
345.7207280151795
 20
-80.7987417482859
 30
0.0
 10
345.8578409839855
 20
-80.6028807919436
 30
0.0
 10
345.98897534564765
 20
-80.40313445299466
 30
0.0
 10
346.11413110016497
 20
-80.19950273143897
 30
0.0
 10
346.30999879455555
 20
-79.87828110942992
 30
0.0
 10
346.4909704685541
 20
-79.56017633584356
 30
0.0
 10
346.6438381985575
 20
-79.21876344867677
 30
0.0
 10
346.7178241999646
 20
-79.0502148072445
 30
0.0
 10
346.79087593634466
 20
-78.84988619687243
 30
0.0
 10
346.8477739276303
 20
-78.6750061113597
 30
0.0
 10
346.8767460192031
 20
-78.58770118004597
 30
0.0
 10
346.9035998244166
 20
-78.50494592308756
 30
0.0
 10
346.92833534327013
 20
-78.4267403404843
 30
0.0
 10
346.952777441243
 20
-78.34614212449851
 30
0.0
 10
346.97471106977065
 20
-78.26833240056075
 30
0.0
 10
346.98600193803713
 20
-78.14721706087718
 30
0.0
 10
346.98890130024347
 20
-78.11650057797755
 30
0.0
 10
346.991134575227
 20
-78.09743491381562
 30
0.0
 10
346.99314817098684
 20
-78.06918325093537
 30
0.0
 10
346.99518742813154
 20
-78.04314351996643
 30
0.0
 10
346.99702543573176
 20
-78.00490298980961
 30
0.0
 10
346.99979853554385
 20
-78.00012767116354
 30
0.0
 10
347.00012519861974
 20
-78.00054954268776
 30
0.0
 10
347.00045186169586
 20
-78.00097141421205
 30
0.0
 10
347.0007785247718
 20
-78.0013932857363
 30
0.0
 10
347.0028969044944
 20
-78.00993046135078
 30
0.0
 10
347.0044059764725
 20
-78.03470998799904
 30
0.0
 10
347.00601342206363
 20
-78.05639172848618
 30
0.0
 10
347.00775330476995
 20
-78.07840122408581
 30
0.0
 10
347.0094931874768
 20
-78.10041071968551
 30
0.0
 10
347.01123307018304
 20
-78.12242021528515
 30
0.0
 10
347.0222366267885
 20
-78.26610310436492
 30
0.0
 10
347.0511760691104
 20
-78.3680300314157
 30
0.0
 10
347.08645703294826
 20
-78.47317069789483
 30
0.0
 10
347.14188262176714
 20
-78.64540085770327
 30
0.0
 10
347.210102045
 20
-78.85791213262709
 30
0.0
 10
347.2879753675442
 20
-79.05396133123251
 30
0.0
 10
347.41545662112804
 20
-79.3751085907835
 30
0.0
 10
347.57432800458116
 20
-79.66989707069672
 30
0.0
 10
347.74472669675197
 20
-79.96371521537229
 30
0.0
 10
347.9336255242939
 20
-80.2875701022835
 30
0.0
 10
348.13748896335477
 20
-80.6022077373052
 30
0.0
 10
348.3563170139344
 20
-80.90762812043738
 30
0.0
 10
349.1730145137651
 20
-82.04037205745306
 30
0.0
 10
350.14082894892437
 20
-83.05425521725077
 30
0.0
 10
351.14858717219636
 20
-84.01721302000043
 30
0.0
 10
351.88773840185365
 20
-84.72127329767557
 30
0.0
 10
352.6534074003368
 20
-85.3969118580904
 30
0.0
 10
353.4264006793123
 20
-86.06339874953865
 30
0.0
 10
355.04894326564215
 20
-87.46333234293796
 30
0.0
 10
356.71145240658024
 20
-88.82008650414397
 30
0.0
 10
358.2545980395994
 20
-90.30937019116904
 30
0.0
 10
359.0125932614292
 20
-91.04268037886288
 30
0.0
 10
359.7410064270008
 20
-91.80886666320148
 30
0.0
 10
360.40118364584623
 20
-92.6324074791085
 30
0.0
 10
361.14526894939604
 20
-93.56123169103299
 30
0.0
 10
361.80476496835684
 20
-94.56745367865402
 30
0.0
 10
362.2769348607945
 20
-95.6636766960236
 30
0.0
 10
362.73618310011113
 20
-96.72594168687384
 30
0.0
 10
363.00745662164877
 20
-97.87793206551746
 30
0.0
 10
362.99989942746777
 20
-99.03872176243513
 30
0.0
 10
362.99584787379257
 20
-99.95937776477061
 30
0.0
 10
362.81755780900966
 20
-100.87848272241536
 30
0.0
 10
362.4787009496435
 20
-101.73442609696794
 30
0.0
 10
362.0661227457343
 20
-102.78171967654414
 30
0.0
 10
361.4200268439646
 20
-103.73239083813306
 30
0.0
 10
360.6168266820844
 20
-104.5189971066527
 30
0.0
 10
359.6677846537899
 20
-105.4494326790216
 30
0.0
 10
358.49837148157263
 20
-106.15486683864385
 30
0.0
 10
357.2298582273733
 20
-106.55283874676167
 30
0.0
 10
356.09245135958736
 20
-106.9111323072491
 30
0.0
 10
354.8734465236972
 20
-107.01682408787472
 30
0.0
 10
353.69329484889664
 20
-106.8376535804665
 30
0.0
 10
352.47898302290344
 20
-106.65668248525132
 30
0.0
 10
351.31409707895693
 20
-106.17203986911107
 30
0.0
 10
350.32135369496183
 20
-105.45192872741991
 30
0.0
 10
349.4926379406159
 20
-104.853074795486
 30
0.0
 10
348.7805993517982
 20
-104.09678683557759
 30
0.0
 10
348.22012489968876
 20
-103.24302751362076
 30
0.0
 10
347.95777754911336
 20
-102.84369796626922
 30
0.0
 10
347.7303200955956
 20
-102.42539679462627
 30
0.0
 10
347.53775253913386
 20
-101.98812399869189
 30
0.0
 10
347.4000683840232
 20
-101.67610873365368
 30
0.0
 10
347.2840850965301
 20
-101.35635912043207
 30
0.0
 10
347.1898026766559
 20
-101.02887515902731
 30
0.0
 10
347.09634262719555
 20
-100.69281061127334
 30
0.0
 10
347.0151845501728
 20
-100.34961752527683
 30
0.0
 10
346.99999999999994
 20
-99.99999999999997
 30
0.0
  0
CIRCLE
  5
3E
330
17
100
AcDbEntity
  8
CUT
100
AcDbCircle
 10
17.0
 20
-252.99999999999997
 30
0.0
 40
2.3
  0
CIRCLE
  5
3F
330
17
100
AcDbEntity
  8
CUT
100
AcDbCircle
 10
17.0
 20
-16.99999999999997
 30
0.0
 40
2.3
  0
CIRCLE
  5
40
330
17
100
AcDbEntity
  8
CUT
100
AcDbCircle
 10
376.0
 20
-252.99999999999997
 30
0.0
 40
2.3
  0
CIRCLE
  5
41
330
17
100
AcDbEntity
  8
CUT
100
AcDbCircle
 10
376.0
 20
-16.99999999999997
 30
0.0
 40
2.3
  0
LINE
  5
42
330
17
100
AcDbEntity
  8
CUT
100
AcDbLine
 10
0.0
 20
-269.99999999999994
 30
0.0
 11
393.0
 21
-269.99999999999994
 31
0.0
  0
LINE
  5
43
330
17
100
AcDbEntity
  8
CUT
100
AcDbLine
 10
0.0
 20
2.942091015256665e-14
 30
0.0
 11
0.0
 21
-269.99999999999994
 31
0.0
  0
LINE
  5
44
330
17
100
AcDbEntity
  8
CUT
100
AcDbLine
 10
257.0
 20
-21.99999999999997
 30
0.0
 11
257.0
 21
2.942091015256665e-14
 31
0.0
  0
LINE
  5
45
330
17
100
AcDbEntity
  8
CUT
100
AcDbLine
 10
257.0
 20
2.942091015256665e-14
 30
0.0
 11
0.0
 21
2.942091015256665e-14
 31
0.0
  0
LINE
  5
46
330
17
100
AcDbEntity
  8
CUT
100
AcDbLine
 10
317.0
 20
-21.99999999999997
 30
0.0
 11
257.0
 21
-21.99999999999997
 31
0.0
  0
LINE
  5
47
330
17
100
AcDbEntity
  8
CUT
100
AcDbLine
 10
317.0
 20
2.942091015256665e-14
 30
0.0
 11
317.0
 21
-21.99999999999997
 31
0.0
  0
LINE
  5
48
330
17
100
AcDbEntity
  8
CUT
100
AcDbLine
 10
393.0
 20
-269.99999999999994
 30
0.0
 11
393.0
 21
2.942091015256665e-14
 31
0.0
  0
LINE
  5
49
330
17
100
AcDbEntity
  8
CUT
100
AcDbLine
 10
393.0
 20
2.942091015256665e-14
 30
0.0
 11
317.0
 21
2.942091015256665e-14
 31
0.0
  0
ENDSEC
  0
SECTION
  2
OBJECTS
  0
DICTIONARY
  5
A
330
0
100
AcDbDictionary
281
1
  3
ACAD_COLOR
350
B
  3
ACAD_GROUP
350
C
  3
ACAD_LAYOUT
350
D
  3
ACAD_MATERIAL
350
E
  3
ACAD_MLEADERSTYLE
350
F
  3
ACAD_MLINESTYLE
350
10
  3
ACAD_PLOTSETTINGS
350
11
  3
ACAD_PLOTSTYLENAME
350
12
  3
ACAD_SCALELIST
350
14
  3
ACAD_TABLESTYLE
350
15
  3
ACAD_VISUALSTYLE
350
16
  3
EZDXF_META
350
2D
  0
DICTIONARY
  5
B
330
A
100
AcDbDictionary
281
1
  0
DICTIONARY
  5
C
330
A
100
AcDbDictionary
281
1
  0
DICTIONARY
  5
D
330
A
100
AcDbDictionary
281
1
  3
Model
350
1A
  3
Layout1
350
1E
  0
DICTIONARY
  5
E
330
A
100
AcDbDictionary
281
1
  3
ByBlock
350
1F
  3
ByLayer
350
20
  3
Global
350
21
  0
DICTIONARY
  5
F
330
A
100
AcDbDictionary
281
1
  3
Standard
350
2C
  0
DICTIONARY
  5
10
330
A
100
AcDbDictionary
281
1
  3
Standard
350
22
  0
DICTIONARY
  5
11
330
A
100
AcDbDictionary
281
1
  0
ACDBDICTIONARYWDFLT
  5
12
330
A
100
AcDbDictionary
281
1
  3
Normal
350
13
100
AcDbDictionaryWithDefault
340
13
  0
ACDBPLACEHOLDER
  5
13
330
12
  0
DICTIONARY
  5
14
330
A
100
AcDbDictionary
281
1
  0
DICTIONARY
  5
15
330
A
100
AcDbDictionary
281
1
  0
DICTIONARY
  5
16
330
A
100
AcDbDictionary
281
1
  0
LAYOUT
  5
1A
330
D
100
AcDbPlotSettings
  1

  4
A3
  6

 40
7.5
 41
20.0
 42
7.5
 43
20.0
 44
420.0
 45
297.0
 46
0.0
 47
0.0
 48
0.0
 49
0.0
140
0.0
141
0.0
142
1.0
143
1.0
 70
1024
 72
1
 73
0
 74
5
  7

 75
16
 76
0
 77
2
 78
300
147
1.0
148
0.0
149
0.0
100
AcDbLayout
  1
Model
 70
1
 71
0
 10
0.0
 20
0.0
 11
420.0
 21
297.0
 12
0.0
 22
0.0
 32
0.0
 14
1e+20
 24
1e+20
 34
1e+20
 15
-1e+20
 25
-1e+20
 35
-1e+20
146
0.0
 13
0.0
 23
0.0
 33
0.0
 16
1.0
 26
0.0
 36
0.0
 17
0.0
 27
1.0
 37
0.0
 76
1
330
17
  0
LAYOUT
  5
1E
330
D
100
AcDbPlotSettings
  1

  4
A3
  6

 40
7.5
 41
20.0
 42
7.5
 43
20.0
 44
420.0
 45
297.0
 46
0.0
 47
0.0
 48
0.0
 49
0.0
140
0.0
141
0.0
142
1.0
143
1.0
 70
0
 72
1
 73
0
 74
5
  7

 75
16
 76
0
 77
2
 78
300
147
1.0
148
0.0
149
0.0
100
AcDbLayout
  1
Layout1
 70
1
 71
1
 10
0.0
 20
0.0
 11
420.0
 21
297.0
 12
0.0
 22
0.0
 32
0.0
 14
1e+20
 24
1e+20
 34
1e+20
 15
-1e+20
 25
-1e+20
 35
-1e+20
146
0.0
 13
0.0
 23
0.0
 33
0.0
 16
1.0
 26
0.0
 36
0.0
 17
0.0
 27
1.0
 37
0.0
 76
1
330
1B
  0
MATERIAL
  5
1F
102
{ACAD_REACTORS
330
E
102
}
330
E
100
AcDbMaterial
  1
ByBlock
  2

 70
0
 40
1.0
 71
1
 41
1.0
 91
-1023410177
 42
1.0
 72
1
  3

 73
1
 74
1
 75
1
 44
0.5
 73
0
 45
1.0
 46
1.0
 77
1
  4

 78
1
 79
1
170
1
 48
1.0
171
1
  6

172
1
173
1
174
1
140
1.0
141
1.0
175
1
  7

176
1
177
1
178
1
143
1.0
179
1
  8

270
1
271
1
272
1
145
1.0
146
1.0
273
1
  9

274
1
275
1
276
1
 42
1.0
 72
1
  3

 73
1
 74
1
 75
1
 94
63
  0
MATERIAL
  5
20
102
{ACAD_REACTORS
330
E
102
}
330
E
100
AcDbMaterial
  1
ByLayer
  2

 70
0
 40
1.0
 71
1
 41
1.0
 91
-1023410177
 42
1.0
 72
1
  3

 73
1
 74
1
 75
1
 44
0.5
 73
0
 45
1.0
 46
1.0
 77
1
  4

 78
1
 79
1
170
1
 48
1.0
171
1
  6

172
1
173
1
174
1
140
1.0
141
1.0
175
1
  7

176
1
177
1
178
1
143
1.0
179
1
  8

270
1
271
1
272
1
145
1.0
146
1.0
273
1
  9

274
1
275
1
276
1
 42
1.0
 72
1
  3

 73
1
 74
1
 75
1
 94
63
  0
MATERIAL
  5
21
102
{ACAD_REACTORS
330
E
102
}
330
E
100
AcDbMaterial
  1
Global
  2

 70
0
 40
1.0
 71
1
 41
1.0
 91
-1023410177
 42
1.0
 72
1
  3

 73
1
 74
1
 75
1
 44
0.5
 73
0
 45
1.0
 46
1.0
 77
1
  4

 78
1
 79
1
170
1
 48
1.0
171
1
  6

172
1
173
1
174
1
140
1.0
141
1.0
175
1
  7

176
1
177
1
178
1
143
1.0
179
1
  8

270
1
271
1
272
1
145
1.0
146
1.0
273
1
  9

274
1
275
1
276
1
 42
1.0
 72
1
  3

 73
1
 74
1
 75
1
 94
63
  0
MLINESTYLE
  5
22
102
{ACAD_REACTORS
330
10
102
}
330
10
100
AcDbMlineStyle
  2
Standard
 70
0
  3

 62
256
 51
90.0
 52
90.0
 71
2
 49
0.5
 62
256
  6
BYLAYER
 49
-0.5
 62
256
  6
BYLAYER
  0
MLEADERSTYLE
  5
2C
102
{ACAD_REACTORS
330
F
102
}
330
F
100
AcDbMLeaderStyle
179
2
170
2
171
1
172
0
 90
2
 40
0.0
 41
0.0
173
1
 91
-1056964608
 92
-2
290
1
 42
2.0
291
1
 43
8.0
  3
Standard
 44
4.0
300

342
29
174
1
175
1
176
0
178
1
 93
-1056964608
 45
4.0
292
0
297
0
 46
4.0
 94
-1056964608
 47
1.0
 49
1.0
140
1.0
294
1
141
0.0
177
0
142
1.0
295
0
296
0
143
3.75
271
0
272
9
273
9
  0
DICTIONARY
  5
2D
330
A
100
AcDbDictionary
280
1
281
1
  3
CREATED_BY_EZDXF
350
2E
  3
WRITTEN_BY_EZDXF
350
4D
  0
DICTIONARYVAR
  5
2E
330
2D
100
DictionaryVariables
280
0
  1
0.0 @ 2000-01-01T00:00:00.000000+00:00
  0
DICTIONARYVAR
  5
4D
330
2D
100
DictionaryVariables
280
0
  1
0.0 @ 2000-01-01T00:00:00.000000+00:00
  0
ENDSEC
  0
EOF
