  0
SECTION
  2
HEADER
  9
$ACADVER
  1
AC1027
  9
$ACADMAINTVER
 70
105
  9
$DWGCODEPAGE
  3
ANSI_1252
  9
$LASTSAVEDBY
  1
ezdxf
  9
$REQUIREDVERSIONS
160
0
  9
$INSBASE
 10
0.0
 20
0.0
 30
0.0
  9
$EXTMIN
 10
1e+20
 20
1e+20
 30
1e+20
  9
$EXTMAX
 10
-1e+20
 20
-1e+20
 30
-1e+20
  9
$LIMMIN
 10
0.0
 20
0.0
  9
$LIMMAX
 10
420.0
 20
297.0
  9
$ORTHOMODE
 70
0
  9
$REGENMODE
 70
1
  9
$FILLMODE
 70
1
  9
$QTEXTMODE
 70
0
  9
$MIRRTEXT
 70
1
  9
$LTSCALE
 40
1.0
  9
$ATTMODE
 70
1
  9
$TEXTSIZE
 40
2.5
  9
$TRACEWID
 40
1.0
  9
$TEXTSTYLE
  7
Standard
  9
$CLAYER
  8
0
  9
$CELTYPE
  6
ByLayer
  9
$CECOLOR
 62
256
  9
$CELTSCALE
 40
1.0
  9
$DISPSILH
 70
0
  9
$DIMSCALE
 40
1.0
  9
$DIMASZ
 40
2.5
  9
$DIMEXO
 40
0.625
  9
$DIMDLI
 40
3.75
  9
$DIMRND
 40
0.0
  9
$DIMDLE
 40
0.0
  9
$DIMEXE
 40
1.25
  9
$DIMTP
 40
0.0
  9
$DIMTM
 40
0.0
  9
$DIMTXT
 40
2.5
  9
$DIMCEN
 40
2.5
  9
$DIMTSZ
 40
0.0
  9
$DIMTOL
 70
0
  9
$DIMLIM
 70
0
  9
$DIMTIH
 70
0
  9
$DIMTOH
 70
0
  9
$DIMSE1
 70
0
  9
$DIMSE2
 70
0
  9
$DIMTAD
 70
1
  9
$DIMZIN
 70
8
  9
$DIMBLK
  1

  9
$DIMASO
 70
1
  9
$DIMSHO
 70
1
  9
$DIMPOST
  1

  9
$DIMAPOST
  1

  9
$DIMALT
 70
0
  9
$DIMALTD
 70
3
  9
$DIMALTF
 40
0.03937007874
  9
$DIMLFAC
 40
1.0
  9
$DIMTOFL
 70
1
  9
$DIMTVP
 40
0.0
  9
$DIMTIX
 70
0
  9
$DIMSOXD
 70
0
  9
$DIMSAH
 70
0
  9
$DIMBLK1
  1

  9
$DIMBLK2
  1

  9
$DIMSTYLE
  2
ISO-25
  9
$DIMCLRD
 70
0
  9
$DIMCLRE
 70
0
  9
$DIMCLRT
 70
0
  9
$DIMTFAC
 40
1.0
  9
$DIMGAP
 40
0.625
  9
$DIMJUST
 70
0
  9
$DIMSD1
 70
0
  9
$DIMSD2
 70
0
  9
$DIMTOLJ
 70
0
  9
$DIMTZIN
 70
8
  9
$DIMALTZ
 70
0
  9
$DIMALTTZ
 70
0
  9
$DIMUPT
 70
0
  9
$DIMDEC
 70
2
  9
$DIMTDEC
 70
2
  9
$DIMALTU
 70
2
  9
$DIMALTTD
 70
3
  9
$DIMTXSTY
  7
Standard
  9
$DIMAUNIT
 70
0
  9
$DIMADEC
 70
0
  9
$DIMALTRND
 40
0.0
  9
$DIMAZIN
 70
0
  9
$DIMDSEP
 70
44
  9
$DIMATFIT
 70
3
  9
$DIMFRAC
 70
0
  9
$DIMLDRBLK
  1

  9
$DIMLUNIT
 70
2
  9
$DIMLWD
 70
-2
  9
$DIMLWE
 70
-2
  9
$DIMTMOVE
 70
0
  9
$DIMFXL
 40
1.0
  9
$DIMFXLON
 70
0
  9
$DIMJOGANG
 40
0.785398163397
  9
$DIMTFILL
 70
0
  9
$DIMTFILLCLR
 70
0
  9
$DIMARCSYM
 70
0
  9
$DIMLTYPE
  6

  9
$DIMLTEX1
  6

  9
$DIMLTEX2
  6

  9
$DIMTXTDIRECTION
 70
0
  9
$LUNITS
 70
2
  9
$LUPREC
 70
4
  9
$SKETCHINC
 40
1.0
  9
$FILLETRAD
 40
10.0
  9
$AUNITS
 70
0
  9
$AUPREC
 70
2
  9
$MENU
  1
.
  9
$ELEVATION
 40
0.0
  9
$PELEVATION
 40
0.0
  9
$THICKNESS
 40
0.0
  9
$LIMCHECK
 70
0
  9
$CHAMFERA
 40
0.0
  9
$CHAMFERB
 40
0.0
  9
$CHAMFERC
 40
0.0
  9
$CHAMFERD
 40
0.0
  9
$SKPOLY
 70
0
  9
$TDCREATE
 40
2451545.0
  9
$TDUCREATE
 40
2451545.0
  9
$TDUPDATE
 40
2451545.0
  9
$TDUUPDATE
 40
2451545.0
  9
$TDINDWG
 40
0.0
  9
$TDUSRTIMER
 40
0.0
  9
$USRTIMER
 70
1
  9
$ANGBASE
 50
0.0
  9
$ANGDIR
 70
0
  9
$PDMODE
 70
0
  9
$PDSIZE
 40
0.0
  9
$PLINEWID
 40
0.0
  9
$SPLFRAME
 70
0
  9
$SPLINETYPE
 70
6
  9
$SPLINESEGS
 70
8
  9
$HANDSEED
  5
46
  9
$SURFTAB1
 70
6
  9
$SURFTAB2
 70
6
  9
$SURFTYPE
 70
6
  9
$SURFU
 70
6
  9
$SURFV
 70
6
  9
$UCSBASE
  2

  9
$UCSNAME
  2

  9
$UCSORG
 10
0.0
 20
0.0
 30
0.0
  9
$UCSXDIR
 10
1.0
 20
0.0
 30
0.0
  9
$UCSYDIR
 10
0.0
 20
1.0
 30
0.0
  9
$UCSORTHOREF
  2

  9
$UCSORTHOVIEW
 70
0
  9
$UCSORGTOP
 10
0.0
 20
0.0
 30
0.0
  9
$UCSORGBOTTOM
 10
0.0
 20
0.0
 30
0.0
  9
$UCSORGLEFT
 10
0.0
 20
0.0
 30
0.0
  9
$UCSORGRIGHT
 10
0.0
 20
0.0
 30
0.0
  9
$UCSORGFRONT
 10
0.0
 20
0.0
 30
0.0
  9
$UCSORGBACK
 10
0.0
 20
0.0
 30
0.0
  9
$PUCSBASE
  2

  9
$PUCSNAME
  2

  9
$PUCSORG
 10
0.0
 20
0.0
 30
0.0
  9
$PUCSXDIR
 10
1.0
 20
0.0
 30
0.0
  9
$PUCSYDIR
 10
0.0
 20
1.0
 30
0.0
  9
$PUCSORTHOREF
  2

  9
$PUCSORTHOVIEW
 70
0
  9
$PUCSORGTOP
 10
0.0
 20
0.0
 30
0.0
  9
$PUCSORGBOTTOM
 10
0.0
 20
0.0
 30
0.0
  9
$PUCSORGLEFT
 10
0.0
 20
0.0
 30
0.0
  9
$PUCSORGRIGHT
 10
0.0
 20
0.0
 30
0.0
  9
$PUCSORGFRONT
 10
0.0
 20
0.0
 30
0.0
  9
$PUCSORGBACK
 10
0.0
 20
0.0
 30
0.0
  9
$USERI1
 70
0
  9
$USERI2
 70
0
  9
$USERI3
 70
0
  9
$USERI4
 70
0
  9
$USERI5
 70
0
  9
$USERR1
 40
0.0
  9
$USERR2
 40
0.0
  9
$USERR3
 40
0.0
  9
$USERR4
 40
0.0
  9
$USERR5
 40
0.0
  9
$WORLDVIEW
 70
1
  9
$SHADEDGE
 70
3
  9
$SHADEDIF
 70
70
  9
$TILEMODE
 70
1
  9
$MAXACTVP
 70
64
  9
$PINSBASE
 10
0.0
 20
0.0
 30
0.0
  9
$PLIMCHECK
 70
0
  9
$PEXTMIN
 10
1e+20
 20
1e+20
 30
1e+20
  9
$PEXTMAX
 10
-1e+20
 20
-1e+20
 30
-1e+20
  9
$PLIMMIN
 10
0.0
 20
0.0
  9
$PLIMMAX
 10
420.0
 20
297.0
  9
$UNITMODE
 70
0
  9
$VISRETAIN
 70
1
  9
$PLINEGEN
 70
0
  9
$PSLTSCALE
 70
1
  9
$TREEDEPTH
 70
3020
  9
$CMLSTYLE
  2
Standard
  9
$CMLJUST
 70
0
  9
$CMLSCALE
 40
20.0
  9
$PROXYGRAPHICS
 70
1
  9
$MEASUREMENT
 70
1
  9
$CELWEIGHT
370
-1
  9
$ENDCAPS
280
0
  9
$JOINSTYLE
280
0
  9
$LWDISPLAY
290
0
  9
$INSUNITS
 70
4
  9
$HYPERLINKBASE
  1

  9
$STYLESHEET
  1

  9
$XEDIT
290
1
  9
$CEPSNTYPE
380
0
  9
$PSTYLEMODE
290
1
  9
$FINGERPRINTGUID
  2
{00000000-0000-0000-0000-000000000000}
  9
$VERSIONGUID
  2
{00000000-0000-0000-0000-000000000000}
  9
$EXTNAMES
290
1
  9
$PSVPSCALE
 40
0.0
  9
$OLESTARTUP
290
0
  9
$SORTENTS
280
127
  9
$INDEXCTL
280
0
  9
$HIDETEXT
280
1
  9
$XCLIPFRAME
280
1
  9
$HALOGAP
280
0
  9
$OBSCOLOR
 70
257
  9
$OBSLTYPE
280
0
  9
$INTERSECTIONDISPLAY
280
0
  9
$INTERSECTIONCOLOR
 70
257
  9
$DIMASSOC
280
2
  9
$PROJECTNAME
  1

  9
$CAMERADISPLAY
290
0
  9
$LENSLENGTH
 40
50.0
  9
$CAMERAHEIGHT
 40
0.0
  9
$STEPSPERSEC
 40
24.0
  9
$STEPSIZE
 40
100.0
  9
$3DDWFPREC
 40
2.0
  9
$PSOLWIDTH
 40
0.005
  9
$PSOLHEIGHT
 40
0.08
  9
$LOFTANG1
 40
1.570796326795
  9
$LOFTANG2
 40
1.570796326795
  9
$LOFTMAG1
 40
0.0
  9
$LOFTMAG2
 40
0.0
  9
$LOFTPARAM
 70
7
  9
$LOFTNORMALS
280
1
  9
$LATITUDE
 40
37.795
  9
$LONGITUDE
 40
-122.394
  9
$NORTHDIRECTION
 40
0.0
  9
$TIMEZONE
 70
-8000
  9
$LIGHTGLYPHDISPLAY
280
1
  9
$TILEMODELIGHTSYNCH
280
1
  9
$CMATERIAL
347
20
  9
$SOLIDHIST
280
0
  9
$SHOWHIST
280
1
  9
$DWFFRAME
280
2
  9
$DGNFRAME
280
2
  9
$REALWORLDSCALE
290
1
  9
$INTERFERECOLOR
 62
256
  9
$CSHADOW
280
0
  9
$SHADOWPLANELOCATION
 40
0.0
  0
ENDSEC
  0
SECTION
  2
CLASSES
  0
CLASS
  1
ACDBDETAILVIEWSTYLE
  2
AcDbDetailViewStyle
  3
ObjectDBX Classes
 90
1025
 91
0
280
0
281
0
  0
CLASS
  1
ACDBDICTIONARYWDFLT
  2
AcDbDictionaryWithDefault
  3
ObjectDBX Classes
 90
0
 91
0
280
0
281
0
  0
CLASS
  1
ACDBPLACEHOLDER
  2
AcDbPlaceHolder
  3
ObjectDBX Classes
 90
0
 91
0
280
0
281
0
  0
CLASS
  1
ACDBSECTIONVIEWSTYLE
  2
AcDbSectionViewStyle
  3
ObjectDBX Classes
 90
1025
 91
0
280
0
281
0
  0
CLASS
  1
CELLSTYLEMAP
  2
AcDbCellStyleMap
  3
ObjectDBX Classes
 90
1152
 91
0
280
0
281
0
  0
CLASS
  1
DICTIONARYVAR
  2
AcDbDictionaryVar
  3
ObjectDBX Classes
 90
0
 91
0
280
0
281
0
  0
CLASS
  1
LAYOUT
  2
AcDbLayout
  3
ObjectDBX Classes
 90
0
 91
0
280
0
281
0
  0
CLASS
  1
MATERIAL
  2
AcDbMaterial
  3
ObjectDBX Classes
 90
1153
 91
0
280
0
281
0
  0
CLASS
  1
MENTALRAYRENDERSETTINGS
  2
AcDbMentalRayRenderSettings
  3
SCENEOE
 90
1024
 91
0
280
0
281
0
  0
CLASS
  1
MLEADERSTYLE
  2
AcDbMLeaderStyle
  3
ACDB_MLEADERSTYLE_CLASS
 90
4095
 91
0
280
0
281
0
  0
CLASS
  1
RASTERVARIABLES
  2
AcDbRasterVariables
  3
ISM
 90
0
 91
0
280
0
281
0
  0
CLASS
  1
SCALE
  2
AcDbScale
  3
ObjectDBX Classes
 90
1153
 91
0
280
0
281
0
  0
CLASS
  1
SUN
  2
AcDbSun
  3
SCENEOE
 90
1153
 91
0
280
0
281
0
  0
CLASS
  1
TABLESTYLE
  2
AcDbTableStyle
  3
ObjectDBX Classes
 90
4095
 91
0
280
0
281
0
  0
CLASS
  1
VISUALSTYLE
  2
AcDbVisualStyle
  3
ObjectDBX Classes
 90
4095
 91
0
280
0
281
0
  0
ENDSEC
  0
SECTION
  2
TABLES
  0
TABLE
  2
VPORT
  5
8
330
0
100
AcDbSymbolTable
 70
1
  0
VPORT
  5
42
330
8
100
AcDbSymbolTableRecord
100
AcDbViewportTableRecord
  2
*Active
 70
0
 10
0.0
 20
0.0
 11
1.0
 21
1.0
 12
196.5
 22
-134.99999999999994
 13
0.0
 23
0.0
 14
0.5
 24
0.5
 15
0.5
 25
0.5
 16
0.0
 26
0.0
 36
1.0
 17
0.0
 27
0.0
 37
0.0
 40
270.0
 41
1.34
 42
50.0
 43
0.0
 44
0.0
 50
0.0
 51
0.0
 71
0
 72
1000
 73
1
 74
3
 75
0
 76
0
 77
0
 78
0
281
0
 65
1
110
0.0
120
0.0
130
0.0
111
1.0
121
0.0
131
0.0
112
0.0
122
1.0
132
0.0
 79
0
146
0.0
  0
ENDTAB
  0
TABLE
  2
LTYPE
  5
2
330
0
100
AcDbSymbolTable
 70
3
  0
LTYPE
  5
24
330
2
100
AcDbSymbolTableRecord
100
AcDbLinetypeTableRecord
  2
ByBlock
 70
0
  3

 72
65
 73
0
 40
0.0
  0
LTYPE
  5
25
330
2
100
AcDbSymbolTableRecord
100
AcDbLinetypeTableRecord
  2
ByLayer
 70
0
  3

 72
65
 73
0
 40
0.0
  0
LTYPE
  5
26
330
2
100
AcDbSymbolTableRecord
100
AcDbLinetypeTableRecord
  2
Continuous
 70
0
  3

 72
65
 73
0
 40
0.0
  0
ENDTAB
  0
TABLE
  2
LAYER
  5
1
330
0
100
AcDbSymbolTable
 70
3
  0
LAYER
  5
27
330
1
100
AcDbSymbolTableRecord
100
AcDbLayerTableRecord
  2
0
 70
0
 62
7
  6
Continuous
370
-3
390
13
347
21
  0
LAYER
  5
28
330
1
100
AcDbSymbolTableRecord
100
AcDbLayerTableRecord
  2
Defpoints
 70
0
 62
7
  6
Continuous
290
0
370
-3
390
13
347
21
  0
LAYER
  5
2F
330
1
100
AcDbSymbolTableRecord
100
AcDbLayerTableRecord
  2
CUT
 70
0
 62
7
  6
Continuous
370
-3
390
13
347
21
  0
ENDTAB
  0
TABLE
  2
STYLE
  5
5
330
0
100
AcDbSymbolTable
 70
1
  0
STYLE
  5
29
330
5
100
AcDbSymbolTableRecord
100
AcDbTextStyleTableRecord
  2
Standard
 70
0
 40
0.0
 41
1.0
 50
0.0
 71
0
 42
2.5
  3
txt
  4

  0
ENDTAB
  0
TABLE
  2
VIEW
  5
7
330
0
100
AcDbSymbolTable
 70
0
  0
ENDTAB
  0
TABLE
  2
UCS
  5
6
330
0
100
AcDbSymbolTable
 70
0
  0
ENDTAB
  0
TABLE
  2
APPID
  5
3
330
0
100
AcDbSymbolTable
 70
3
  0
APPID
  5
2A
330
3
100
AcDbSymbolTableRecord
100
AcDbRegAppTableRecord
  2
ACAD
 70
0
  0
APPID
  5
43
330
3
100
AcDbSymbolTableRecord
100
AcDbRegAppTableRecord
  2
HATCHBACKGROUNDCOLOR
 70
0
  0
APPID
  5
44
330
3
100
AcDbSymbolTableRecord
100
AcDbRegAppTableRecord
  2
EZDXF
 70
0
  0
ENDTAB
  0
TABLE
  2
DIMSTYLE
  5
4
330
0
100
AcDbSymbolTable
 70
1
100
AcDbDimStyleTable
  0
DIMSTYLE
105
2B
330
4
100
AcDbSymbolTableRecord
100
AcDbDimStyleTableRecord
  2
Standard
 70
0
 40
1.0
 41
2.5
 42
0.625
 43
3.75
 44
1.25
 45
0.0
 46
0.0
 47
0.0
 48
0.0
 49
2.5
140
2.5
141
2.5
142
0.0
143
0.03937007874
144
1.0
145
0.0
146
1.0
147
0.625
148
0.0
 69
0
 70
0
 71
0
 72
0
 73
0
 74
0
 75
0
 76
0
 77
1
 78
8
 79
3
170
0
171
3
172
1
173
0
174
0
175
0
176
0
177
0
178
0
179
2
271
2
272
2
273
2
274
3
275
0
276
0
277
2
278
44
279
0
280
0
281
0
282
0
283
0
284
8
285
0
286
0
288
0
289
3
290
0
371
-2
372
-2
  0
ENDTAB
  0
TABLE
  2
BLOCK_RECORD
  5
9
330
0
100
AcDbSymbolTable
 70
2
  0
BLOCK_RECORD
  5
17
330
9
100
AcDbSymbolTableRecord
100
AcDbBlockTableRecord
  2
*Model_Space
340
1A
 70
0
280
1
281
0
  0
BLOCK_RECORD
  5
1B
330
9
100
AcDbSymbolTableRecord
100
AcDbBlockTableRecord
  2
*Paper_Space
340
1E
 70
0
280
1
281
0
  0
ENDTAB
  0
ENDSEC
  0
SECTION
  2
BLOCKS
  0
BLOCK
  5
18
330
17
100
AcDbEntity
  8
0
100
AcDbBlockBegin
  2
*Model_Space
 70
0
 10
0.0
 20
0.0
 30
0.0
  3
*Model_Space
  1

  0
ENDBLK
  5
19
330
17
100
AcDbEntity
  8
0
100
AcDbBlockEnd
  0
BLOCK
  5
1C
330
1B
100
AcDbEntity
  8
0
100
AcDbBlockBegin
  2
*Paper_Space
 70
0
 10
0.0
 20
0.0
 30
0.0
  3
*Paper_Space
  1

  0
ENDBLK
  5
1D
330
1B
100
AcDbEntity
  8
0
100
AcDbBlockEnd
  0
ENDSEC
  0
SECTION
  2
ENTITIES
  0
SPLINE
  5
30
330
17
100
AcDbEntity
  8
CUT
100
AcDbSpline
 70
0
 71
3
 72
155
 73
151
 74
0
 40
0.0
 40
0.0
 40
0.0
 40
0.0
 40
0.0005689686453785692
 40
0.0005689686453785692
 40
0.0005689686453785692
 40
0.0021885076707680515
 40
0.0021885076707680515
 40
0.0021885076707680515
 40
0.0038080466961575342
 40
0.0038080466961575342
 40
0.0038080466961575342
 40
0.007047124746936499
 40
0.007047124746936499
 40
0.007047124746936499
 40
0.015429931936518614
 40
0.015429931936518614
 40
0.015429931936518614
 40
0.02875953559317711
 40
0.02875953559317711
 40
0.02875953559317711
 40
0.04935428885306868
 40
0.04935428885306868
 40
0.04935428885306868
 40
0.06390727377486012
 40
0.06390727377486012
 40
0.06390727377486012
 40
0.09544011481541177
 40
0.09544011481541177
 40
0.09544011481541177
 40
0.12697691721983423
 40
0.12697691721983423
 40
0.12697691721983423
 40
0.16336595878953705
 40
0.16336595878953705
 40
0.16336595878953705
 40
0.19490149030788775
 40
0.19490149030788775
 40
0.19490149030788775
 40
0.2519113004008881
 40
0.2519113004008881
 40
0.2519113004008881
 40
0.28345105159034145
 40
0.28345105159034145
 40
0.28345105159034145
 40
0.3064985342361227
 40
0.3064985342361227
 40
0.3064985342361227
 40
0.3392415093943604
 40
0.3392415093943604
 40
0.3392415093943604
 40
0.36834294500350806
 40
0.36834294500350806
 40
0.36834294500350806
 40
0.43138292072957374
 40
0.43138292072957374
 40
0.43138292072957374
 40
0.49441660547339666
 40
0.49441660547339666
 40
0.49441660547339666
 40
0.5550272229073209
 40
0.5550272229073209
 40
0.5550272229073209
 40
0.5695738034441817
 40
0.5695738034441817
 40
0.5695738034441817
 40
0.5780586446115115
 40
0.5780586446115115
 40
0.5780586446115115
 40
0.5913909263386173
 40
0.5913909263386173
 40
0.5913909263386173
 40
0.5978961995659333
 40
0.5978961995659333
 40
0.5978961995659333
 40
0.6011488361795913
 40
0.6011488361795913
 40
0.6011488361795913
 40
0.6044014727932492
 40
0.6044014727932492
 40
0.6044014727932492
 40
0.6053051323540768
 40
0.6053051323540768
 40
0.6053051323540768
 40
0.6062087919149043
 40
0.6062087919149043
 40
0.6062087919149043
 40
0.6063180103820882
 40
0.6063180103820882
 40
0.6063180103820882
 40
0.607491104702265
 40
0.607491104702265
 40
0.607491104702265
 40
0.6086641990224417
 40
0.6086641990224417
 40
0.6086641990224417
 40
0.6110103876627953
 40
0.6110103876627953
 40
0.6110103876627953
 40
0.6157925446500694
 40
0.6157925446500694
 40
0.6157925446500694
 40
0.6236282203210304
 40
0.6236282203210304
 40
0.6236282203210304
 40
0.6401131482594611
 40
0.6401131482594611
 40
0.6401131482594611
 40
0.6550300976301485
 40
0.6550300976301485
 40
0.6550300976301485
 40
0.6880068922956977
 40
0.6880068922956977
 40
0.6880068922956977
 40
0.7249087322348154
 40
0.7249087322348154
 40
0.7249087322348154
 40
0.7516037559731329
 40
0.7516037559731329
 40
0.7516037559731329
 40
0.7806567498217031
 40
0.7806567498217031
 40
0.7806567498217031
 40
0.8026455841795096
 40
0.8026455841795096
 40
0.8026455841795096
 40
0.8159993325781968
 40
0.8159993325781968
 40
0.8159993325781968
 40
0.8458492419822246
 40
0.8458492419822246
 40
0.8458492419822246
 40
0.8741264457459652
 40
0.8741264457459652
 40
0.8741264457459652
 40
0.9055439273971279
 40
0.9055439273971279
 40
0.9055439273971279
 40
0.9330340677382223
 40
0.9330340677382223
 40
0.9330340677382223
 40
0.9636629922147053
 40
0.9636629922147053
 40
0.9636629922147053
 40
0.9840818255888283
 40
0.9840818255888283
 40
0.9840818255888283
 40
0.9919353683743829
 40
0.9919353683743829
 40
0.9919353683743829
 40
1.0
 40
1.0
 40
1.0
 40
1.0
 10
227.0
 20
-155.0
 30
0.0
 10
226.9994297428154
 20
-154.9813979507975
 30
0.0
 10
226.99801912199285
 20
-154.98511255913985
 30
0.0
 10
226.99706850101276
 20
-155.001536089039
 30
0.0
 10
226.9943070796264
 20
-155.04389485150168
 30
0.0
 10
226.99216793745427
 20
-155.1077891011043
 30
0.0
 10
226.98890126349534
 20
-155.1640835351815
 30
0.0
 10
226.9857796159457
 20
-155.22185589677647
 30
0.0
 10
226.981480946972
 20
-155.2761231075908
 30
0.0
 10
226.9760052565748
 20
-155.32688516762437
 30
0.0
 10
226.96521818090446
 20
-155.42973926368754
 30
0.0
 10
226.94684478032184
 20
-155.5045500672152
 30
0.0
 10
226.92520530917386
 20
-155.5753574806432
 30
0.0
 10
226.86963152171816
 20
-155.7640428048558
 30
0.0
 10
226.81069914796652
 20
-156.01493959570266
 30
0.0
 10
226.74179552129428
 20
-156.24876804142988
 30
0.0
 10
226.63222915173165
 20
-156.6247876250872
 30
0.0
 10
226.48637272800087
 20
-156.95952557589945
 30
0.0
 10
226.3202611527505
 20
-157.2925797370717
 30
0.0
 10
226.0643816966053
 20
-157.80826904113866
 30
0.0
 10
225.75964556087584
 20
-158.31310524022538
 30
0.0
 10
225.40673629091552
 20
-158.7691508247976
 30
0.0
 10
225.1573546171525
 20
-159.0927369539799
 30
0.0
 10
224.88597949660453
 20
-159.3973158099973
 30
0.0
 10
224.59261092927176
 20
-159.68288739284978
 30
0.0
 10
223.95819694048546
 20
-160.30115919486605
 30
0.0
 10
223.22343230843393
 20
-160.81760795324027
 30
0.0
 10
222.42152181876997
 20
-161.19461739418463
 30
0.0
 10
221.62010973284794
 20
-161.57273670542642
 30
0.0
 10
220.75238617414868
 20
-161.80981084347204
 30
0.0
 10
219.86982435723914
 20
-161.89072470037618
 30
0.0
 10
218.85131040443434
 20
-161.98523217604628
 30
0.0
 10
217.81580265408823
 20
-161.87219661305855
 30
0.0
 10
216.83807202254192
 20
-161.5738365178243
 30
0.0
 10
215.990286877667
 20
-161.31582950179467
 30
0.0
 10
215.1849884261928
 20
-160.92056848530845
 30
0.0
 10
214.4592526041249
 20
-160.41239868531483
 30
0.0
 10
213.14751427171055
 20
-159.49550667540288
 30
0.0
 10
212.09157490027067
 20
-158.20088397753818
 30
0.0
 10
211.50992826809943
 20
-156.7054198133019
 30
0.0
 10
211.18707213486385
 20
-155.8798343296834
 30
0.0
 10
211.01322699776327
 20
-154.99631274816213
 30
0.0
 10
211.00081246760647
 20
-154.10983486433105
 30
0.0
 10
210.99120593449746
 20
-153.46215149287445
 30
0.0
 10
211.0669064357386
 20
-152.8138429723137
 30
0.0
 10
211.21596131017267
 20
-152.18376136431195
 30
0.0
 10
211.42773837083845
 20
-151.287830788467
 30
0.0
 10
211.78607511763852
 20
-150.43052843302502
 30
0.0
 10
212.23575121648202
 20
-149.62920717555724
 30
0.0
 10
212.63579261288547
 20
-148.91586392416227
 30
0.0
 10
213.10638969676265
 20
-148.24477261452168
 30
0.0
 10
213.61828992174907
 20
-147.60814757309072
 30
0.0
 10
214.73006851784316
 20
-146.22895181296286
 30
0.0
 10
216.02233380741993
 20
-145.00923033191643
 30
0.0
 10
217.34581574563904
 20
-143.83714731424527
 30
0.0
 10
218.67175526488901
 20
-142.66561651786392
 30
0.0
 10
220.03957269708408
 20
-141.54268240790347
 30
0.0
 10
221.36675109344716
 20
-140.37259496275726
 30
0.0
 10
222.64036963311747
 20
-139.2468809544384
 30
0.0
 10
223.88830209756387
 20
-138.0811360530069
 30
0.0
 10
224.9759445097696
 20
-136.77078955980227
 30
0.0
 10
225.2370258580843
 20
-136.45723162725733
 30
0.0
 10
225.48528770701733
 20
-136.1332125156191
 30
0.0
 10
225.72073005656813
 20
-135.79873222488746
 30
0.0
 10
225.85783754389448
 20
-135.60285669193368
 30
0.0
 10
225.98897388229287
 20
-135.40313347132994
 30
0.0
 10
226.1141390717632
 20
-135.1995625630763
 30
0.0
 10
226.30996412173175
 20
-134.87764715770587
 30
0.0
 10
226.4910457439934
 20
-134.56163442599347
 30
0.0
 10
226.64374748300602
 20
-134.2170066031765
 30
0.0
 10
226.71874736307169
 20
-134.0468764595208
 30
0.0
 10
226.79042754932945
 20
-133.85240751772537
 30
0.0
 10
226.84749943989553
 20
-133.6754610354798
 30
0.0
 10
226.87671795169635
 20
-133.58772060781234
 30
0.0
 10
226.90380585740866
 20
-133.5047447280419
 30
0.0
 10
226.92876315703245
 20
-133.42653339616922
 30
0.0
 10
226.95343095006382
 20
-133.34636824065333
 30
0.0
 10
226.97425633456075
 20
-133.2683524275927
 30
0.0
 10
226.9859571300111
 20
-133.15446224932776
 30
0.0
 10
226.9889821898288
 20
-133.12594479918366
 30
0.0
 10
226.99135106533208
 20
-133.0973420731082
 30
0.0
 10
226.9930637565205
 20
-133.06865407110132
 30
0.0
 10
226.99500027404088
 20
-133.03957860912652
 30
0.0
 10
226.99705914531708
 20
-133.00354781556214
 30
0.0
 10
226.9997982284487
 20
-133.00009321945586
 30
0.0
 10
227.00012507123648
 20
-133.000512712598
 30
0.0
 10
227.00045191402458
 20
-133.00093220574036
 30
0.0
 10
227.0007787568125
 20
-133.00135169888264
 30
0.0
 10
227.004093365568
 20
-133.014506282647
 30
0.0
 10
227.00633469723684
 20
-133.0703534629055
 30
0.0
 10
227.01073600985285
 20
-133.1191143994904
 30
0.0
 10
227.015084101562
 20
-133.1702772230359
 30
0.0
 10
227.02096043246792
 20
-133.21634579629796
 30
0.0
 10
227.0283650025698
 20
-133.2573201192764
 30
0.0
 10
227.04366351086577
 20
-133.34022172101345
 30
0.0
 10
227.06007185563584
 20
-133.39228051660334
 30
0.0
 10
227.08645363543232
 20
-133.47333844402314
 30
0.0
 10
227.1418765162477
 20
-133.64528153176107
 30
0.0
 10
227.21010871525337
 20
-133.8579706155534
 30
0.0
 10
227.28797916508444
 20
-134.05391484906696
 30
0.0
 10
227.41545634374873
 20
-134.3751440773873
 30
0.0
 10
227.5743258848329
 20
-134.6698909662591
 30
0.0
 10
227.74472850885192
 20
-134.96370053985825
 30
0.0
 10
228.10387370340663
 20
-135.58252007040605
 30
0.0
 10
228.52570673114855
 20
-136.16575897909902
 30
0.0
 10
228.97892031434296
 20
-136.71605436490736
 30
0.0
 10
229.3909996019424
 20
-137.21458401856927
 30
0.0
 10
229.82357422828022
 20
-137.69488484782482
 30
0.0
 10
230.27664419335642
 20
-138.156956852674
 30
0.0
 10
231.2752849986035
 20
-139.17982053763268
 30
0.0
 10
232.34468352182824
 20
-140.13008432533698
 30
0.0
 10
233.42640051237723
 20
-141.0633987927154
 30
0.0
 10
234.63747966074553
 20
-142.107542534636
 30
0.0
 10
235.86882353996546
 20
-143.1284230400873
 30
0.0
 10
237.05842078673157
 20
-144.19738115170324
 30
0.0
 10
237.91843329324638
 20
-144.97083718194483
 30
0.0
 10
238.75739614978346
 20
-145.76957590848912
 30
0.0
 10
239.5374445095806
 20
-146.62476506700858
 30
0.0
 10
240.38454568996428
 20
-147.55515134401944
 30
0.0
 10
241.1648730530515
 20
-148.5547251175654
 30
0.0
 10
241.77943405267033
 20
-149.6563768896763
 30
0.0
 10
242.24359135804409
 20
-150.48847195189543
 30
0.0
 10
242.60891035209744
 20
-151.38113191437932
 30
0.0
 10
242.8136964255175
 20
-152.3137939021685
 30
0.0
 10
242.93943012013975
 20
-152.8819686108681
 30
0.0
 10
243.0014975564871
 20
-153.45694461855499
 30
0.0
 10
242.9998987345595
 20
-154.0387219252286
 30
0.0
 10
242.99630240882755
 20
-155.33534782106352
 30
0.0
 10
242.63824026138238
 20
-156.62514019656004
 30
0.0
 10
241.9911045493101
 20
-157.7470498081082
 30
0.0
 10
241.38030347262173
 20
-158.81202039914297
 30
0.0
 10
240.52260773289905
 20
-159.7306502030607
 30
0.0
 10
239.51520435099135
 20
-160.43021261773177
 30
0.0
 10
238.39654124768262
 20
-161.20825148837483
 30
0.0
 10
237.0875130561937
 20
-161.71694361479925
 30
0.0
 10
235.73209130509687
 20
-161.8719110332404
 30
0.0
 10
234.54713475543429
 20
-162.0096530940565
 30
0.0
 10
233.32990278441503
 20
-161.8703827860923
 30
0.0
 10
232.20992038003058
 20
-161.45837731488257
 30
0.0
 10
230.95996332529677
 20
-161.00263368456982
 30
0.0
 10
229.84029462593637
 20
-160.21355276347273
 30
0.0
 10
228.96319281340968
 20
-159.21689288834665
 30
0.0
 10
228.3774767989406
 20
-158.55271304386702
 30
0.0
 10
227.89427171859066
 20
-157.7985069622733
 30
0.0
 10
227.53775232225217
 20
-156.98812401826893
 30
0.0
 10
227.4000911213361
 20
-156.67610886449225
 30
0.0
 10
227.28408941880147
 20
-156.35635913234856
 30
0.0
 10
227.1897472146473
 20
-156.0288748218377
 30
0.0
 10
227.09638644815925
 20
-155.69280071647935
 30
0.0
 10
227.0151661517678
 20
-155.3496287345211
 30
0.0
 10
227.0
 20
-154.99999999999997
 30
0.0
  0
SPLINE
  5
31
330
17
100
AcDbEntity
  8
CUT
100
AcDbSpline
 70
0
 71
3
 72
155
 73
151
 74
0
 40
0.0
 40
0.0
 40
0.0
 40
0.0
 40
0.0005689686463344304
 40
0.0005689686463344304
 40
0.0005689686463344304
 40
0.002188507674275829
 40
0.002188507674275829
 40
0.002188507674275829
 40
0.003808046702217227
 40
0.003808046702217227
 40
0.003808046702217227
 40
0.007047124758100024
 40
0.007047124758100024
 40
0.007047124758100024
 40
0.015429931960864264
 40
0.015429931960864264
 40
0.015429931960864264
 40
0.028759535638474876
 40
0.028759535638474876
 40
0.028759535638474876
 40
0.04935428893117796
 40
0.04935428893117796
 40
0.04935428893117796
 40
0.06390727387614546
 40
0.06390727387614546
 40
0.06390727387614546
 40
0.0954401149657271
 40
0.0954401149657271
 40
0.0954401149657271
 40
0.1269769174194779
 40
0.1269769174194779
 40
0.1269769174194779
 40
0.16336595904575082
 40
0.16336595904575082
 40
0.16336595904575082
 40
0.19490149061323186
 40
0.19490149061323186
 40
0.19490149061323186
 40
0.25191130079183444
 40
0.25191130079183444
 40
0.25191130079183444
 40
0.2834510520276369
 40
0.2834510520276369
 40
0.2834510520276369
 40
0.3064985347070042
 40
0.3064985347070042
 40
0.3064985347070042
 40
0.3392415099120267
 40
0.3392415099120267
 40
0.3392415099120267
 40
0.368342945566312
 40
0.368342945566312
 40
0.368342945566312
 40
0.4313829213915283
 40
0.4313829213915283
 40
0.4313829213915283
 40
0.4944166062269541
 40
0.4944166062269541
 40
0.4944166062269541
 40
0.5550272237490316
 40
0.5550272237490316
 40
0.5550272237490316
 40
0.5695738043066533
 40
0.5695738043066533
 40
0.5695738043066533
 40
0.5780586454858965
 40
0.5780586454858965
 40
0.5780586454858965
 40
0.5913909272316462
 40
0.5913909272316462
 40
0.5913909272316462
 40
0.5978962004679687
 40
0.5978962004679687
 40
0.5978962004679687
 40
0.6011488370861298
 40
0.6011488370861298
 40
0.6011488370861298
 40
0.604401473704291
 40
0.604401473704291
 40
0.604401473704291
 40
0.6053051332663788
 40
0.6053051332663788
 40
0.6053051332663788
 40
0.6062087928284665
 40
0.6062087928284665
 40
0.6062087928284665
 40
0.6063180112958105
 40
0.6063180112958105
 40
0.6063180112958105
 40
0.6074911056133079
 40
0.6074911056133079
 40
0.6074911056133079
 40
0.6086641999308053
 40
0.6086641999308053
 40
0.6086641999308053
 40
0.6110103885658001
 40
0.6110103885658001
 40
0.6110103885658001
 40
0.6157925455420953
 40
0.6157925455420953
 40
0.6157925455420953
 40
0.6236282211950852
 40
0.6236282211950852
 40
0.6236282211950852
 40
0.6401131490956092
 40
0.6401131490956092
 40
0.6401131490956092
 40
0.6550300984322402
 40
0.6550300984322402
 40
0.6550300984322402
 40
0.6880068930233999
 40
0.6880068930233999
 40
0.6880068930233999
 40
0.7249087328776055
 40
0.7249087328776055
 40
0.7249087328776055
 40
0.7516037565541273
 40
0.7516037565541273
 40
0.7516037565541273
 40
0.780656750334475
 40
0.780656750334475
 40
0.780656750334475
 40
0.8026455846406496
 40
0.8026455846406496
 40
0.8026455846406496
 40
0.815999333007975
 40
0.815999333007975
 40
0.815999333007975
 40
0.8458492423418836
 40
0.8458492423418836
 40
0.8458492423418836
 40
0.8741264460396667
 40
0.8741264460396667
 40
0.8741264460396667
 40
0.9055439276179639
 40
0.9055439276179639
 40
0.9055439276179639
 40
0.9330340678952671
 40
0.9330340678952671
 40
0.9330340678952671
 40
0.9636629922999819
 40
0.9636629922999819
 40
0.9636629922999819
 40
0.9840818256262097
 40
0.9840818256262097
 40
0.9840818256262097
 40
0.9919353683933547
 40
0.9919353683933547
 40
0.9919353683933547
 40
1.0
 40
1.0
 40
1.0
 40
1.0
 10
227.0
 20
-99.99999999999999
 30
0.0
 10
226.9994297428137
 20
-99.98139795076376
 30
0.0
 10
226.9980191219943
 20
-99.98511255916208
 30
0.0
 10
226.99706850101276
 20
-100.00153608903898
 30
0.0
 10
226.99430707962622
 20
-100.04389485150189
 30
0.0
 10
226.99216793745424
 20
-100.10778910110413
 30
0.0
 10
226.9889012634954
 20
-100.16408353518139
 30
0.0
 10
226.98577961594552
 20
-100.2218558967764
 30
0.0
 10
226.98148094697214
 20
-100.27612310759098
 30
0.0
 10
226.97600525657472
 20
-100.32688516762443
 30
0.0
 10
226.96521818090446
 20
-100.42973926368744
 30
0.0
 10
226.9468447803217
 20
-100.50455006721526
 30
0.0
 10
226.92520530917363
 20
-100.57535748064319
 30
0.0
 10
226.86963152171813
 20
-100.76404280485589
 30
0.0
 10
226.81069914796666
 20
-101.01493959570278
 30
0.0
 10
226.7417955212943
 20
-101.24876804142997
 30
0.0
 10
226.63222915173174
 20
-101.62478762508715
 30
0.0
 10
226.48637272800093
 20
-101.95952557589948
 30
0.0
 10
226.32026115275053
 20
-102.29257973707172
 30
0.0
 10
226.06438169660422
 20
-102.80826904114242
 30
0.0
 10
225.75964556086734
 20
-103.31310524023704
 30
0.0
 10
225.40673629091563
 20
-103.76915082479756
 30
0.0
 10
225.1573546171525
 20
-104.0927369539798
 30
0.0
 10
224.88597949660462
 20
-104.39731580999724
 30
0.0
 10
224.59261092927176
 20
-104.68288739284988
 30
0.0
 10
223.95819694048393
 20
-105.30115919486765
 30
0.0
 10
223.2234323084293
 20
-105.81760795324281
 30
0.0
 10
222.42152181876995
 20
-106.1946173941846
 30
0.0
 10
221.62010973285118
 20
-106.57273670542527
 30
0.0
 10
220.75238617415044
 20
-106.80981084347182
 30
0.0
 10
219.8698243572392
 20
-106.89072470037617
 30
0.0
 10
218.8513104044351
 20
-106.98523217604709
 30
0.0
 10
217.81580265408212
 20
-106.87219661305713
 30
0.0
 10
216.8380720225419
 20
-106.57383651782426
 30
0.0
 10
215.99028687766761
 20
-106.31582950179477
 30
0.0
 10
215.184988426194
 20
-105.92056848530923
 30
0.0
 10
214.45925260412488
 20
-105.41239868531484
 30
0.0
 10
213.14751427175474
 20
-104.49550667544358
 30
0.0
 10
212.09157490027053
 20
-103.20088397754938
 30
0.0
 10
211.5099282680994
 20
-101.70541981330179
 30
0.0
 10
211.18707213486414
 20
-100.87983432968365
 30
0.0
 10
211.01322699776335
 20
-99.99631274816238
 30
0.0
 10
211.00081246760647
 20
-99.10983486433106
 30
0.0
 10
210.99120593449683
 20
-98.4621514928878
 30
0.0
 10
211.06690643573728
 20
-97.81384297231807
 30
0.0
 10
211.21596131017267
 20
-97.18376136431196
 30
0.0
 10
211.42773837083828
 20
-96.28783078846635
 30
0.0
 10
211.78607511763914
 20
-95.43052843302432
 30
0.0
 10
212.23575121648193
 20
-94.62920717555718
 30
0.0
 10
212.63579261291716
 20
-93.91586392410842
 30
0.0
 10
213.1063896968016
 20
-93.24477261447274
 30
0.0
 10
213.61828992174904
 20
-92.60814757309073
 30
0.0
 10
214.73006851784405
 20
-91.22895181297329
 30
0.0
 10
216.0223338072653
 20
-90.00923033205653
 30
0.0
 10
217.34581574563907
 20
-88.83714731424523
 30
0.0
 10
218.6717552648833
 20
-87.66561651786934
 30
0.0
 10
220.039572697083
 20
-86.54268240790407
 30
0.0
 10
221.3667510934472
 20
-85.37259496275729
 30
0.0
 10
222.64036963311807
 20
-84.24688095443797
 30
0.0
 10
223.88830209755804
 20
-83.08113605301286
 30
0.0
 10
224.97594450976962
 20
-81.77078955980231
 30
0.0
 10
225.23702585808434
 20
-81.45723162725731
 30
0.0
 10
225.48528770701733
 20
-81.13321251561916
 30
0.0
 10
225.72073005656813
 20
-80.79873222488747
 30
0.0
 10
225.85783754389445
 20
-80.60285669193374
 30
0.0
 10
225.98897388229267
 20
-80.40313347133002
 30
0.0
 10
226.11413907176308
 20
-80.19956256307633
 30
0.0
 10
226.30996412173138
 20
-79.87764715770571
 30
0.0
 10
226.49104574399354
 20
-79.56163442599356
 30
0.0
 10
226.64374748300614
 20
-79.21700660317653
 30
0.0
 10
226.7187473630715
 20
-79.04687645952106
 30
0.0
 10
226.79042754932956
 20
-78.85240751772535
 30
0.0
 10
226.84749943989547
 20
-78.6754610354798
 30
0.0
 10
226.87671795169618
 20
-78.58772060781207
 30
0.0
 10
226.9038058574086
 20
-78.50474472804193
 30
0.0
 10
226.9287631570324
 20
-78.42653339616932
 30
0.0
 10
226.95343095006365
 20
-78.34636824065369
 30
0.0
 10
226.9742563345608
 20
-78.26835242759225
 30
0.0
 10
226.98595713001114
 20
-78.1544622493278
 30
0.0
 10
226.9889821898289
 20
-78.12594479918366
 30
0.0
 10
226.99135106533203
 20
-78.09734207310815
 30
0.0
 10
226.99306375652048
 20
-78.06865407110135
 30
0.0
 10
226.9950002740408
 20
-78.03957860912638
 30
0.0
 10
226.99705914531705
 20
-78.00354781556224
 30
0.0
 10
226.9997982284487
 20
-78.00009321945583
 30
0.0
 10
227.00012507123648
 20
-78.00051271259811
 30
0.0
 10
227.0004519140245
 20
-78.00093220574043
 30
0.0
 10
227.00077875681242
 20
-78.00135169888271
 30
0.0
 10
227.00409336556797
 20
-78.014506282647
 30
0.0
 10
227.0063346972369
 20
-78.07035346290566
 30
0.0
 10
227.01073600985276
 20
-78.11911439949031
 30
0.0
 10
227.01508410156194
 20
-78.17027722303588
 30
0.0
 10
227.02096043246783
 20
-78.21634579629789
 30
0.0
 10
227.02836500256973
 20
-78.25732011927627
 30
0.0
 10
227.04366351086574
 20
-78.34022172101386
 30
0.0
 10
227.0600718556356
 20
-78.39228051660302
 30
0.0
 10
227.0864536354322
 20
-78.47333844402307
 30
0.0
 10
227.14187651624778
 20
-78.64528153176133
 30
0.0
 10
227.21010871525323
 20
-78.85797061555313
 30
0.0
 10
227.28797916508438
 20
-79.05391484906693
 30
0.0
 10
227.41545634374845
 20
-79.37514407738725
 30
0.0
 10
227.574325884833
 20
-79.66989096625899
 30
0.0
 10
227.74472850885192
 20
-79.96370053985822
 30
0.0
 10
228.1038737034064
 20
-80.58252007040561
 30
0.0
 10
228.52570673114846
 20
-81.16575897909864
 30
0.0
 10
228.97892031434293
 20
-81.71605436490728
 30
0.0
 10
229.39099960195057
 20
-82.21458401857832
 30
0.0
 10
229.82357422828846
 20
-82.69488484783393
 30
0.0
 10
230.27664419335628
 20
-83.15695685267399
 30
0.0
 10
231.2752849985935
 20
-84.17982053762196
 30
0.0
 10
232.34468352178928
 20
-85.13008432530316
 30
0.0
 10
233.42640051237723
 20
-86.0633987927154
 30
0.0
 10
234.63747966073134
 20
-87.10754253462406
 30
0.0
 10
235.86882353995594
 20
-88.12842304007918
 30
0.0
 10
237.0584207867316
 20
-89.19738115170317
 30
0.0
 10
237.91843329323981
 20
-89.97083718193964
 30
0.0
 10
238.75739614976354
 20
-90.76957590846828
 30
0.0
 10
239.5374445095806
 20
-91.62476506700858
 30
0.0
 10
240.38454568996505
 20
-92.55515134402
 30
0.0
 10
241.16487305305367
 20
-93.55472511756874
 30
0.0
 10
241.7794340526703
 20
-94.65637688967621
 30
0.0
 10
242.24359135804403
 20
-95.48847195189539
 30
0.0
 10
242.6089103520973
 20
-96.38113191437924
 30
0.0
 10
242.8136964255174
 20
-97.31379390216838
 30
0.0
 10
242.93943012013952
 20
-97.88196861086786
 30
0.0
 10
243.00149755648698
 20
-98.45694461855453
 30
0.0
 10
242.9998987345594
 20
-99.0387219252285
 30
0.0
 10
242.996302408827
 20
-100.33534782106304
 30
0.0
 10
242.63824026138315
 20
-101.62514019655903
 30
0.0
 10
241.99110454931014
 20
-102.74704980810809
 30
0.0
 10
241.3803034726076
 20
-103.81202039916451
 30
0.0
 10
240.52260773288947
 20
-104.73065020306558
 30
0.0
 10
239.51520435099133
 20
-105.43021261773177
 30
0.0
 10
238.3965412476826
 20
-106.20825148837478
 30
0.0
 10
237.08751305619393
 20
-106.71694361479916
 30
0.0
 10
235.732091305097
 20
-106.87191103324044
 30
0.0
 10
234.54713475543636
 20
-107.00965309405633
 30
0.0
 10
233.3299027844164
 20
-106.87038278609289
 30
0.0
 10
232.20992038003064
 20
-106.45837731488267
 30
0.0
 10
230.95996332530973
 20
-106.00263368457584
 30
0.0
 10
229.84029462593745
 20
-105.21355276347595
 30
0.0
 10
228.96319281340976
 20
-104.21689288834669
 30
0.0
 10
228.37747679893997
 20
-103.55271304386676
 30
0.0
 10
227.89427171859072
 20
-102.79850696227301
 30
0.0
 10
227.5377523222521
 20
-101.98812401826896
 30
0.0
 10
227.40009112133626
 20
-101.67610886449232
 30
0.0
 10
227.2840894188014
 20
-101.35635913234857
 30
0.0
 10
227.18974721464735
 20
-101.02887482183777
 30
0.0
 10
227.09638644815954
 20
-100.69280071647941
 30
0.0
 10
227.0151661517679
 20
-100.3496287345211
 30
0.0
 10
227.0
 20
-99.99999999999997
 30
0.0
  0
SPLINE
  5
32
330
17
100
AcDbEntity
  8
CUT
100
AcDbSpline
 70
0
 71
3
 72
155
 73
151
 74
0
 40
0.0
 40
0.0
 40
0.0
 40
0.0
 40
0.0005689686465645632
 40
0.0005689686465645632
 40
0.0005689686465645632
 40
0.002188507675204311
 40
0.002188507675204311
 40
0.002188507675204311
 40
0.0038080467038440584
 40
0.0038080467038440584
 40
0.0038080467038440584
 40
0.007047124761123553
 40
0.007047124761123553
 40
0.007047124761123553
 40
0.015429931967670844
 40
0.015429931967670844
 40
0.015429931967670844
 40
0.028759535651518217
 40
0.028759535651518217
 40
0.028759535651518217
 40
0.04935428895379869
 40
0.04935428895379869
 40
0.04935428895379869
 40
0.06390727390465496
 40
0.06390727390465496
 40
0.06390727390465496
 40
0.09544011500551565
 40
0.09544011500551565
 40
0.09544011500551565
 40
0.126976917470105
 40
0.126976917470105
 40
0.126976917470105
 40
0.16336595910788504
 40
0.16336595910788504
 40
0.16336595910788504
 40
0.1949014906854893
 40
0.1949014906854893
 40
0.1949014906854893
 40
0.25191130088862995
 40
0.25191130088862995
 40
0.25191130088862995
 40
0.2834510521388733
 40
0.2834510521388733
 40
0.2834510521388733
 40
0.3064985348278733
 40
0.3064985348278733
 40
0.3064985348278733
 40
0.339241510042461
 40
0.339241510042461
 40
0.339241510042461
 40
0.36834294570500126
 40
0.36834294570500126
 40
0.36834294570500126
 40
0.43138292154739394
 40
0.43138292154739394
 40
0.43138292154739394
 40
0.4944166063915132
 40
0.4944166063915132
 40
0.4944166063915132
 40
0.5550272239220181
 40
0.5550272239220181
 40
0.5550272239220181
 40
0.5695738044817638
 40
0.5695738044817638
 40
0.5695738044817638
 40
0.5780586456621186
 40
0.5780586456621186
 40
0.5780586456621186
 40
0.591390927409531
 40
0.591390927409531
 40
0.591390927409531
 40
0.5978962006468653
 40
0.5978962006468653
 40
0.5978962006468653
 40
0.6011488372655325
 40
0.6011488372655325
 40
0.6011488372655325
 40
0.6044014738841995
 40
0.6044014738841995
 40
0.6044014738841995
 40
0.6053051334464117
 40
0.6053051334464117
 40
0.6053051334464117
 40
0.606208793008624
 40
0.606208793008624
 40
0.606208793008624
 40
0.60631801147598
 40
0.60631801147598
 40
0.60631801147598
 40
0.6074911057930368
 40
0.6074911057930368
 40
0.6074911057930368
 40
0.6086642001100936
 40
0.6086642001100936
 40
0.6086642001100936
 40
0.6110103887442072
 40
0.6110103887442072
 40
0.6110103887442072
 40
0.6157925457183357
 40
0.6157925457183357
 40
0.6157925457183357
 40
0.6236282213677788
 40
0.6236282213677788
 40
0.6236282213677788
 40
0.6401131492609348
 40
0.6401131492609348
 40
0.6401131492609348
 40
0.6550300985909429
 40
0.6550300985909429
 40
0.6550300985909429
 40
0.6880068931667995
 40
0.6880068931667995
 40
0.6880068931667995
 40
0.724908733002793
 40
0.724908733002793
 40
0.724908733002793
 40
0.7516037566664405
 40
0.7516037566664405
 40
0.7516037566664405
 40
0.7806567504340359
 40
0.7806567504340359
 40
0.7806567504340359
 40
0.8026455847305024
 40
0.8026455847305024
 40
0.8026455847305024
 40
0.8159993330919321
 40
0.8159993330919321
 40
0.8159993330919321
 40
0.8458492424126091
 40
0.8458492424126091
 40
0.8458492424126091
 40
0.8741264460972296
 40
0.8741264460972296
 40
0.8741264460972296
 40
0.9055439276606514
 40
0.9055439276606514
 40
0.9055439276606514
 40
0.9330340679249353
 40
0.9330340679249353
 40
0.9330340679249353
 40
0.9636629923160133
 40
0.9636629923160133
 40
0.9636629923160133
 40
0.9840818256332137
 40
0.9840818256332137
 40
0.9840818256332137
 40
0.9919353683968825
 40
0.9919353683968825
 40
0.9919353683968825
 40
1.0
 40
1.0
 40
1.0
 40
1.0
 10
287.0
 20
-162.99999999999994
 30
0.0
 10
286.9994297428156
 20
-162.9813979508069
 30
0.0
 10
286.99801912199325
 20
-162.98511255913243
 30
0.0
 10
286.9970685010128
 20
-163.00153608903818
 30
0.0
 10
286.99430707962637
 20
-163.04389485150008
 30
0.0
 10
286.9921679374545
 20
-163.10778910110176
 30
0.0
 10
286.98890126349556
 20
-163.1640835351784
 30
0.0
 10
286.98577961594594
 20
-163.22185589677312
 30
0.0
 10
286.98148094697245
 20
-163.27612310758715
 30
0.0
 10
286.97600525657526
 20
-163.32688516762045
 30
0.0
 10
286.9652181809053
 20
-163.42973926368268
 30
0.0
 10
286.9468447803229
 20
-163.5045500672111
 30
0.0
 10
286.9252053091754
 20
-163.575357480638
 30
0.0
 10
286.8696315217198
 20
-163.76404280484914
 30
0.0
 10
286.81069914796865
 20
-164.0149395956948
 30
0.0
 10
286.7417955212967
 20
-164.248768041422
 30
0.0
 10
286.6322291517343
 20
-164.6247876250799
 30
0.0
 10
286.48637272800426
 20
-164.9595255758926
 30
0.0
 10
286.3202611527538
 20
-165.29257973706495
 30
0.0
 10
286.0643816966088
 20
-165.80826904113354
 30
0.0
 10
285.7596455608767
 20
-166.31310524022345
 30
0.0
 10
285.4067362909202
 20
-166.76915082479155
 30
0.0
 10
285.1573546171574
 20
-167.092736953974
 30
0.0
 10
284.8859794966098
 20
-167.39731580999168
 30
0.0
 10
284.59261092927727
 20
-167.68288739284455
 30
0.0
 10
283.95819694049146
 20
-168.30115919486127
 30
0.0
 10
283.2234323084422
 20
-168.817607953235
 30
0.0
 10
282.42152181877685
 20
-169.19461739418134
 30
0.0
 10
281.6201097328639
 20
-169.57273670542068
 30
0.0
 10
280.75238617416113
 20
-169.80981084347002
 30
0.0
 10
279.86982435724656
 20
-169.8907247003754
 30
0.0
 10
278.85131040445594
 20
-169.98523217604807
 30
0.0
 10
277.8158026540816
 20
-169.87219661305758
 30
0.0
 10
276.8380720225492
 20
-169.57383651782652
 30
0.0
 10
275.9902868776747
 20
-169.31582950179796
 30
0.0
 10
275.18498842620016
 20
-168.92056848531263
 30
0.0
 10
274.45925260413117
 20
-168.41239868531918
 30
0.0
 10
273.14751427168596
 20
-167.4955066753915
 30
0.0
 10
272.0915749002495
 20
-166.20088397749075
 30
0.0
 10
271.5099282681022
 20
-164.70541981330888
 30
0.0
 10
271.1870721348655
 20
-163.8798343296906
 30
0.0
 10
271.01322699776466
 20
-162.9963127481698
 30
0.0
 10
271.0008124676066
 20
-162.10983486433867
 30
0.0
 10
270.99120593449516
 20
-161.46215149293928
 30
0.0
 10
271.0669064357314
 20
-160.81384297233944
 30
0.0
 10
271.2159613101709
 20
-160.1837613643194
 30
0.0
 10
271.4277383708356
 20
-159.28783078847476
 30
0.0
 10
271.78607511763516
 20
-158.43052843303204
 30
0.0
 10
272.23575121647815
 20
-157.62920717556386
 30
0.0
 10
272.6357926129129
 20
-156.9158639241151
 30
0.0
 10
273.1063896967967
 20
-156.24477261447905
 30
0.0
 10
273.6182899217443
 20
-155.60814757309666
 30
0.0
 10
274.73006851784095
 20
-154.22895181298261
 30
0.0
 10
276.0223338071792
 20
-153.00923033213485
 30
0.0
 10
277.3458157456333
 20
-151.83714731425033
 30
0.0
 10
278.67175526490536
 20
-150.66561651784968
 30
0.0
 10
280.0395726970794
 20
-149.5426824079077
 30
0.0
 10
281.36675109344145
 20
-148.37259496276232
 30
0.0
 10
282.64036963310906
 20
-147.2468809544465
 30
0.0
 10
283.8883020975579
 20
-146.0811360530129
 30
0.0
 10
284.97594450976476
 20
-144.77078955980815
 30
0.0
 10
285.2370258580797
 20
-144.45723162726327
 30
0.0
 10
285.4852877070128
 20
-144.13321251562527
 30
0.0
 10
285.72073005656375
 20
-143.79873222489368
 30
0.0
 10
285.85783754389007
 20
-143.60285669194005
 30
0.0
 10
285.9889738822887
 20
-143.40313347133647
 30
0.0
 10
286.11413907175915
 20
-143.19956256308282
 30
0.0
 10
286.3099641217276
 20
-142.87764715771232
 30
0.0
 10
286.49104574398996
 20
-142.5616344260001
 30
0.0
 10
286.64374748300304
 20
-142.21700660318356
 30
0.0
 10
286.7187473630689
 20
-142.04687645952822
 30
0.0
 10
286.7904275493269
 20
-141.85240751773316
 30
0.0
 10
286.84749943989317
 20
-141.6754610354871
 30
0.0
 10
286.87671795169405
 20
-141.58772060781914
 30
0.0
 10
286.9038058574067
 20
-141.50474472804854
 30
0.0
 10
286.92876315703063
 20
-141.4265333961755
 30
0.0
 10
286.9534309500617
 20
-141.34636824065896
 30
0.0
 10
286.9742563345594
 20
-141.26835242760097
 30
0.0
 10
286.9859571300101
 20
-141.15446224933763
 30
0.0
 10
286.9889821898279
 20
-141.12594479919315
 30
0.0
 10
286.99135106533123
 20
-141.09734207311723
 30
0.0
 10
286.9930637565202
 20
-141.06865407110925
 30
0.0
 10
286.99500027404
 20
-141.03957860913354
 30
0.0
 10
286.9970591453167
 20
-141.00354781556962
 30
0.0
 10
286.99979822844807
 20
-141.00009321945632
 30
0.0
 10
287.0001250712361
 20
-141.0005127125977
 30
0.0
 10
287.0004519140238
 20
-141.00093220573925
 30
0.0
 10
287.000778756812
 20
-141.00135169888074
 30
0.0
 10
287.00409336556737
 20
-141.01450628263646
 30
0.0
 10
287.006334697236
 20
-141.07035346289516
 30
0.0
 10
287.01073600985217
 20
-141.11911439948145
 30
0.0
 10
287.0150841015613
 20
-141.17027722302902
 30
0.0
 10
287.02096043246706
 20
-141.21634579629273
 30
0.0
 10
287.0283650025689
 20
-141.257320119272
 30
0.0
 10
287.0436635108651
 20
-141.3402217210115
 30
0.0
 10
287.0600718556321
 20
-141.39228051659083
 30
0.0
 10
287.08645363543013
 20
-141.4733384440167
 30
0.0
 10
287.14187651624536
 20
-141.645281531754
 30
0.0
 10
287.2101087152506
 20
-141.85797061554553
 30
0.0
 10
287.2879791650814
 20
-142.05391484905968
 30
0.0
 10
287.4154563437453
 20
-142.37514407738038
 30
0.0
 10
287.5743258848293
 20
-142.66989096625235
 30
0.0
 10
287.7447285088482
 20
-142.9637005398517
 30
0.0
 10
288.1038737034029
 20
-143.58252007040065
 30
0.0
 10
288.52570673114474
 20
-144.16575897909382
 30
0.0
 10
288.9789203143381
 20
-144.71605436490142
 30
0.0
 10
289.39099960194636
 20
-145.21458401857353
 30
0.0
 10
289.8235742282839
 20
-145.69488484782923
 30
0.0
 10
290.27664419335116
 20
-146.15695685266857
 30
0.0
 10
291.2752849985623
 20
-147.17982053759187
 30
0.0
 10
292.34468352176935
 20
-148.13008432528633
 30
0.0
 10
293.42640051237134
 20
-149.06339879271042
 30
0.0
 10
294.63747966072873
 20
-150.10754253462184
 30
0.0
 10
295.86882353995225
 20
-151.12842304007623
 30
0.0
 10
297.058420786726
 20
-152.1973811516981
 30
0.0
 10
297.91843329324246
 20
-152.97083718194088
 30
0.0
 10
298.7573961497815
 20
-153.7695759084874
 30
0.0
 10
299.53744450957555
 20
-154.62476506700304
 30
0.0
 10
300.3845456899611
 20
-155.55515134401435
 30
0.0
 10
301.1648730530546
 20
-156.5547251175704
 30
0.0
 10
301.77943405266643
 20
-157.65637688966962
 30
0.0
 10
302.2435913580406
 20
-158.4884719518885
 30
0.0
 10
302.6089103520949
 20
-159.38113191437196
 30
0.0
 10
302.81369642551584
 20
-160.313793902161
 30
0.0
 10
302.93943012013875
 20
-160.8819686108604
 30
0.0
 10
303.00149755648624
 20
-161.45694461854706
 30
0.0
 10
302.9998987345595
 20
-162.03872192522098
 30
0.0
 10
302.9963024088275
 20
-163.33534782105397
 30
0.0
 10
302.63824026138934
 20
-164.6251401965441
 30
0.0
 10
301.9911045493139
 20
-165.74704980810156
 30
0.0
 10
301.3803034726309
 20
-166.8120203991295
 30
0.0
 10
300.52260773291226
 20
-167.73065020305015
 30
0.0
 10
299.51520435099764
 20
-168.4302126177274
 30
0.0
 10
298.39654124769015
 20
-169.20825148837096
 30
0.0
 10
297.0875130562022
 20
-169.71694361479675
 30
0.0
 10
295.73209130510446
 20
-169.87191103323957
 30
0.0
 10
294.54713475544247
 20
-170.0096530940567
 30
0.0
 10
293.3299027844231
 20
-169.87038278609396
 30
0.0
 10
292.2099203800377
 20
-169.45837731488527
 30
0.0
 10
290.95996332530615
 20
-169.0026336845751
 30
0.0
 10
289.84029462594094
 20
-168.213552763477
 30
0.0
 10
288.9631928134148
 20
-167.2168928883524
 30
0.0
 10
288.3774767989446
 20
-166.552713043873
 30
0.0
 10
287.8942717185944
 20
-165.79850696227945
 30
0.0
 10
287.53775232225524
 20
-164.98812401827593
 30
0.0
 10
287.400091121339
 20
-164.67610886449938
 30
0.0
 10
287.2840894188038
 20
-164.35635913235595
 30
0.0
 10
287.18974721464934
 20
-164.02887482184505
 30
0.0
 10
287.0963864481603
 20
-163.69280071648427
 30
0.0
 10
287.0151661517681
 20
-163.3496287345236
 30
0.0
 10
287.0
 20
-162.99999999999997
 30
0.0
  0
SPLINE
  5
33
330
17
100
AcDbEntity
  8
CUT
100
AcDbSpline
 70
0
 71
3
 72
149
 73
145
 74
0
 40
0.0
 40
0.0
 40
0.0
 40
0.0
 40
0.0006592971868480649
 40
0.0006592971868480649
 40
0.0006592971868480649
 40
0.003992575901823186
 40
0.003992575901823186
 40
0.003992575901823186
 40
0.007325854616798308
 40
0.007325854616798308
 40
0.007325854616798308
 40
0.0152086208965928
 40
0.0152086208965928
 40
0.0152086208965928
 40
0.02708216623142421
 40
0.02708216623142421
 40
0.02708216623142421
 40
0.03884848085695679
 40
0.03884848085695679
 40
0.03884848085695679
 40
0.06338999417726066
 40
0.06338999417726066
 40
0.06338999417726066
 40
0.0975253617336943
 40
0.0975253617336943
 40
0.0975253617336943
 40
0.12526075309470464
 40
0.12526075309470464
 40
0.12526075309470464
 40
0.1924627915000938
 40
0.1924627915000938
 40
0.1924627915000938
 40
0.22339692061263
 40
0.22339692061263
 40
0.22339692061263
 40
0.25113212508531724
 40
0.25113212508531724
 40
0.25113212508531724
 40
0.28099998179619573
 40
0.28099998179619573
 40
0.28099998179619573
 40
0.31300162583199154
 40
0.31300162583199154
 40
0.31300162583199154
 40
0.35139967084890966
 40
0.35139967084890966
 40
0.35139967084890966
 40
0.38126006333940854
 40
0.38126006333940854
 40
0.38126006333940854
 40
0.44737689651860585
 40
0.44737689651860585
 40
0.44737689651860585
 40
0.4772365845272354
 40
0.4772365845272354
 40
0.4772365845272354
 40
0.5028305714199346
 40
0.5028305714199346
 40
0.5028305714199346
 40
0.5102954842383371
 40
0.5102954842383371
 40
0.5102954842383371
 40
0.5220202647825211
 40
0.5220202647825211
 40
0.5220202647825211
 40
0.5276840157650198
 40
0.5276840157650198
 40
0.5276840157650198
 40
0.5305158912562691
 40
0.5305158912562691
 40
0.5305158912562691
 40
0.5333477667475184
 40
0.5333477667475184
 40
0.5333477667475184
 40
0.53407284046678
 40
0.53407284046678
 40
0.53407284046678
 40
0.5347979141860418
 40
0.5347979141860418
 40
0.5347979141860418
 40
0.5348833275959878
 40
0.5348833275959878
 40
0.5348833275959878
 40
0.5354523396530724
 40
0.5354523396530724
 40
0.5354523396530724
 40
0.5360213517101571
 40
0.5360213517101571
 40
0.5360213517101571
 40
0.5395319920004555
 40
0.5395319920004555
 40
0.5395319920004555
 40
0.5451970614431632
 40
0.5451970614431632
 40
0.5451970614431632
 40
0.5544742739950628
 40
0.5544742739950628
 40
0.5544742739950628
 40
0.5646970461862196
 40
0.5646970461862196
 40
0.5646970461862196
 40
0.6027996767970651
 40
0.6027996767970651
 40
0.6027996767970651
 40
0.6306803035070461
 40
0.6306803035070461
 40
0.6306803035070461
 40
0.6892289852584453
 40
0.6892289852584453
 40
0.6892289852584453
 40
0.7180419189734634
 40
0.7180419189734634
 40
0.7180419189734634
 40
0.7505738073565524
 40
0.7505738073565524
 40
0.7505738073565524
 40
0.7821833766411185
 40
0.7821833766411185
 40
0.7821833766411185
 40
0.8072889264633163
 40
0.8072889264633163
 40
0.8072889264633163
 40
0.8379715015056133
 40
0.8379715015056133
 40
0.8379715015056133
 40
0.8742305091367474
 40
0.8742305091367474
 40
0.8742305091367474
 40
0.9067719920235752
 40
0.9067719920235752
 40
0.9067719920235752
 40
0.9402428015947675
 40
0.9402428015947675
 40
0.9402428015947675
 40
0.9681351075495424
 40
0.9681351075495424
 40
0.9681351075495424
 40
0.9811515169941529
 40
0.9811515169941529
 40
0.9811515169941529
 40
0.9904490147586696
 40
0.9904490147586696
 40
0.9904490147586696
 40
1.0
 40
1.0
 40
1.0
 40
1.0
 10
287.00000000000006
 20
-107.99999999999997
 30
0.0
 10
286.99922325708064
 20
-107.98253907946618
 30
0.0
 10
286.99823863809587
 20
-107.98337074064996
 30
0.0
 10
286.99704614304426
 20
-108.00249498355106
 30
0.0
 10
286.99157241853015
 20
-108.10183758121761
 30
0.0
 10
286.98732109297595
 20
-108.22894765142283
 30
0.0
 10
286.9760066400337
 20
-108.3277459413642
 30
0.0
 10
286.9651452512431
 20
-108.42929980521744
 30
0.0
 10
286.947007799423
 20
-108.50383534629097
 30
0.0
 10
286.9256971128764
 20
-108.5731931485472
 30
0.0
 10
286.87634731165093
 20
-108.73789274875215
 30
0.0
 10
286.815039130915
 20
-108.99948669207663
 30
0.0
 10
286.7417947580328
 20
-109.2489282011777
 30
0.0
 10
286.6322323150284
 20
-109.62463801493213
 30
0.0
 10
286.48637102615584
 20
-109.95961779538308
 30
0.0
 10
286.3202586877103
 20
-110.29254077093158
 30
0.0
 10
286.1556155930491
 20
-110.62612473543001
 30
0.0
 10
285.96977946946
 20
-110.95172233807928
 30
0.0
 10
285.76275031694263
 20
-111.26933357887935
 30
0.0
 10
285.33138918856054
 20
-111.92433368831809
 30
0.0
 10
284.80971874885296
 20
-112.515332727496
 30
0.0
 10
284.21566408177034
 20
-113.02795276523801
 30
0.0
 10
283.3899412343975
 20
-113.7398456635931
 30
0.0
 10
282.41756729620494
 20
-114.28292662716235
 30
0.0
 10
281.3726915930289
 20
-114.59774309220256
 30
0.0
 10
280.5243737581508
 20
-114.85439615267452
 30
0.0
 10
279.63114984381457
 20
-114.95997382191585
 30
0.0
 10
278.7462671815032
 20
-114.9120976104342
 30
0.0
 10
276.59706051191023
 20
-114.80053841095405
 30
0.0
 10
274.52692761775205
 20
-113.78531381057152
 30
0.0
 10
273.0770560385084
 20
-112.20285807460198
 30
0.0
 10
272.4084263408199
 20
-111.47546725302041
 30
0.0
 10
271.86870731258597
 20
-110.62709243952523
 30
0.0
 10
271.50992759032766
 20
-109.70542090984607
 30
0.0
 10
271.18707197581944
 20
-108.87983286907249
 30
0.0
 10
271.0132287349777
 20
-107.9963140302285
 30
0.0
 10
271.0008105569962
 20
-107.10983434666045
 30
0.0
 10
270.98613450652516
 20
-106.15472621489457
 30
0.0
 10
271.159011333581
 20
-105.20085366280841
 30
0.0
 10
271.47457338422726
 20
-104.30127547737837
 30
0.0
 10
271.81183865051526
 20
-103.33516076507243
 30
0.0
 10
272.30640752802583
 20
-102.43059714432563
 30
0.0
 10
272.8850947267257
 20
-101.58988694352303
 30
0.0
 10
273.5810595018838
 20
-100.58020156879697
 30
0.0
 10
274.3963792716217
 20
-99.65861868532483
 30
0.0
 10
275.2587962702531
 20
-98.78932491827914
 30
0.0
 10
275.93017219358575
 20
-98.11317092342242
 30
0.0
 10
276.6321471974244
 20
-97.4681406818963
 30
0.0
 10
277.34581591190096
 20
-96.83714734957044
 30
0.0
 10
278.92661287561145
 20
-95.44029187635124
 30
0.0
 10
280.5674985567063
 20
-94.11262789188136
 30
0.0
 10
282.1271175909588
 20
-92.69157304108086
 30
0.0
 10
282.83089971525055
 20
-92.04957045108063
 30
0.0
 10
283.5184560598475
 20
-91.38913263752947
 30
0.0
 10
284.1672164720422
 20
-90.69073594403724
 30
0.0
 10
284.7225505815491
 20
-90.09112822277727
 30
0.0
 10
285.25093313453976
 20
-89.46827698565473
 30
0.0
 10
285.7207280151795
 20
-88.7987417482859
 30
0.0
 10
285.8578409839853
 20
-88.60288079194409
 30
0.0
 10
285.98897534564725
 20
-88.40313445299472
 30
0.0
 10
286.1141311001664
 20
-88.19950273143813
 30
0.0
 10
286.3099987945539
 20
-87.87828110943065
 30
0.0
 10
286.49097046855564
 20
-87.5601763358433
 30
0.0
 10
286.64383819855647
 20
-87.21876344867677
 30
0.0
 10
286.71782419996475
 20
-87.05021480724427
 30
0.0
 10
286.79087593634455
 20
-86.84988619687256
 30
0.0
 10
286.8477739276305
 20
-86.67500611135968
 30
0.0
 10
286.87674601920327
 20
-86.58770118004591
 30
0.0
 10
286.9035998244164
 20
-86.50494592308746
 30
0.0
 10
286.9283353432702
 20
-86.42674034048427
 30
0.0
 10
286.95277744124286
 20
-86.34614212449844
 30
0.0
 10
286.9747110697706
 20
-86.26833240056098
 30
0.0
 10
286.98600193803713
 20
-86.14721706087717
 30
0.0
 10
286.9889013002439
 20
-86.11650057797759
 30
0.0
 10
286.9911345752266
 20
-86.09743491381555
 30
0.0
 10
286.99314817098696
 20
-86.06918325093538
 30
0.0
 10
286.99518742813177
 20
-86.04314351996652
 30
0.0
 10
286.99702543573176
 20
-86.00490298980962
 30
0.0
 10
286.99979853554396
 20
-86.00012767116353
 30
0.0
 10
287.0001251986197
 20
-86.00054954268762
 30
0.0
 10
287.000451861696
 20
-86.00097141421182
 30
0.0
 10
287.00077852477165
 20
-86.0013932857359
 30
0.0
 10
287.00289690449415
 20
-86.00993046135088
 30
0.0
 10
287.00440597647264
 20
-86.03470998799904
 30
0.0
 10
287.0060134220636
 20
-86.05639172848613
 30
0.0
 10
287.00775330477006
 20
-86.07840122408577
 30
0.0
 10
287.00949318747655
 20
-86.10041071968543
 30
0.0
 10
287.01123307018304
 20
-86.12242021528508
 30
0.0
 10
287.0222366267887
 20
-86.26610310436504
 30
0.0
 10
287.0511760691103
 20
-86.36803003141547
 30
0.0
 10
287.0864570329483
 20
-86.47317069789491
 30
0.0
 10
287.1418826217669
 20
-86.64540085770344
 30
0.0
 10
287.2101020449996
 20
-86.85791213262665
 30
0.0
 10
287.2879753675447
 20
-87.05396133123315
 30
0.0
 10
287.4154566211282
 20
-87.37510859078338
 30
0.0
 10
287.57432800458014
 20
-87.66989707069602
 30
0.0
 10
287.74472669675316
 20
-87.9637152153735
 30
0.0
 10
287.93362552429465
 20
-88.28757010228382
 30
0.0
 10
288.1374889633542
 20
-88.6022077373048
 30
0.0
 10
288.35631701393334
 20
-88.90762812043683
 30
0.0
 10
289.1730145137676
 20
-90.04037205745439
 30
0.0
 10
290.14082894892374
 20
-91.05425521725121
 30
0.0
 10
291.1485871721963
 20
-92.01721301999974
 30
0.0
 10
291.8877384018343
 20
-92.7212732976582
 30
0.0
 10
292.65340740031826
 20
-93.39691185807494
 30
0.0
 10
293.42640067931126
 20
-94.0633987495373
 30
0.0
 10
295.0489432656411
 20
-95.46333234294201
 30
0.0
 10
296.7114524065466
 20
-96.82008650410644
 30
0.0
 10
298.2545980395962
 20
-98.3093701911711
 30
0.0
 10
299.01259326141684
 20
-99.04268037884597
 30
0.0
 10
299.74100642699136
 20
-99.80886666319311
 30
0.0
 10
300.4011836458464
 20
-100.63240747910854
 30
0.0
 10
301.1452689493671
 20
-101.56123169099352
 30
0.0
 10
301.8047649683587
 20
-102.56745367865153
 30
0.0
 10
302.2769348607945
 20
-103.6636766960235
 30
0.0
 10
302.7361831001112
 20
-104.7259416868736
 30
0.0
 10
303.00745662164877
 20
-105.87793206551686
 30
0.0
 10
302.9998994274679
 20
-107.03872176243522
 30
0.0
 10
302.9958478737937
 20
-107.95937776477179
 30
0.0
 10
302.81755780900795
 20
-108.87848272241276
 30
0.0
 10
302.47870094964503
 20
-109.73442609697008
 30
0.0
 10
302.0661227457257
 20
-110.7817196765539
 30
0.0
 10
301.4200268439595
 20
-111.73239083813985
 30
0.0
 10
300.61682668208425
 20
-112.51899710665289
 30
0.0
 10
299.6677846538087
 20
-113.4494326790048
 30
0.0
 10
298.4983714815843
 20
-114.15486683864091
 30
0.0
 10
297.2298582273733
 20
-114.55283874676172
 30
0.0
 10
296.0924513595873
 20
-114.91113230724926
 30
0.0
 10
294.8734465236946
 20
-115.01682408787468
 30
0.0
 10
293.6932948488967
 20
-114.83765358046648
 30
0.0
 10
292.4789830228838
 20
-114.6566824852465
 30
0.0
 10
291.3140970789507
 20
-114.1720398691028
 30
0.0
 10
290.3213536949618
 20
-113.45192872741987
 30
0.0
 10
289.492637940616
 20
-112.85307479548602
 30
0.0
 10
288.7805993517985
 20
-112.09678683557766
 30
0.0
 10
288.22012489968864
 20
-111.24302751362075
 30
0.0
 10
287.9577775491138
 20
-110.84369796626912
 30
0.0
 10
287.73032009559546
 20
-110.42539679462624
 30
0.0
 10
287.5377525391337
 20
-109.98812399869206
 30
0.0
 10
287.4000683840232
 20
-109.67610873365366
 30
0.0
 10
287.2840850965302
 20
-109.35635912043199
 30
0.0
 10
287.18980267665455
 20
-109.02887515902702
 30
0.0
 10
287.09634262719703
 20
-108.6928106112736
 30
0.0
 10
287.015184550172
 20
-108.34961752527666
 30
0.0
 10
287.0
 20
-107.99999999999996
 30
0.0
  0
SPLINE
  5
34
330
17
100
AcDbEntity
  8
CUT
100
AcDbSpline
 70
0
 71
3
 72
149
 73
145
 74
0
 40
0.0
 40
0.0
 40
0.0
 40
0.0
 40
0.0006592971878468529
 40
0.0006592971878468529
 40
0.0006592971878468529
 40
0.00399257590485779
 40
0.00399257590485779
 40
0.00399257590485779
 40
0.007325854621868728
 40
0.007325854621868728
 40
0.007325854621868728
 40
0.015208620906544505
 40
0.015208620906544505
 40
0.015208620906544505
 40
0.027082166247776453
 40
0.027082166247776453
 40
0.027082166247776453
 40
0.03884848087979173
 40
0.03884848087979173
 40
0.03884848087979173
 40
0.0633899942143962
 40
0.0633899942143962
 40
0.0633899942143962
 40
0.09752536179092962
 40
0.09752536179092962
 40
0.09752536179092962
 40
0.12526075316875757
 40
0.12526075316875757
 40
0.12526075316875757
 40
0.1924627916114043
 40
0.1924627916114043
 40
0.1924627916114043
 40
0.22339692073535397
 40
0.22339692073535397
 40
0.22339692073535397
 40
0.251132125218288
 40
0.251132125218288
 40
0.251132125218288
 40
0.2809999819380124
 40
0.2809999819380124
 40
0.2809999819380124
 40
0.31300162598125764
 40
0.31300162598125764
 40
0.31300162598125764
 40
0.3513996710107882
 40
0.3513996710107882
 40
0.3513996710107882
 40
0.38126006351171626
 40
0.38126006351171626
 40
0.38126006351171626
 40
0.44737689671474773
 40
0.44737689671474773
 40
0.44737689671474773
 40
0.47723658473393593
 40
0.47723658473393593
 40
0.47723658473393593
 40
0.5028305716356083
 40
0.5028305716356083
 40
0.5028305716356083
 40
0.5102954844566207
 40
0.5102954844566207
 40
0.5102954844566207
 40
0.5220202650051227
 40
0.5220202650051227
 40
0.5220202650051227
 40
0.5276840159897107
 40
0.5276840159897107
 40
0.5276840159897107
 40
0.5305158914820047
 40
0.5305158914820047
 40
0.5305158914820047
 40
0.5333477669742988
 40
0.5333477669742988
 40
0.5333477669742988
 40
0.5340728406937458
 40
0.5340728406937458
 40
0.5340728406937458
 40
0.5347979144131929
 40
0.5347979144131929
 40
0.5347979144131929
 40
0.5348833278231924
 40
0.5348833278231924
 40
0.5348833278231924
 40
0.5354523398799839
 40
0.5354523398799839
 40
0.5354523398799839
 40
0.5360213519367754
 40
0.5360213519367754
 40
0.5360213519367754
 40
0.539531992225328
 40
0.539531992225328
 40
0.539531992225328
 40
0.5451970616651796
 40
0.5451970616651796
 40
0.5451970616651796
 40
0.5544742742124178
 40
0.5544742742124178
 40
0.5544742742124178
 40
0.5646970463987933
 40
0.5646970463987933
 40
0.5646970463987933
 40
0.6027996769907115
 40
0.6027996769907115
 40
0.6027996769907115
 40
0.6306803036865081
 40
0.6306803036865081
 40
0.6306803036865081
 40
0.6892289854085109
 40
0.6892289854085109
 40
0.6892289854085109
 40
0.7180419191109136
 40
0.7180419191109136
 40
0.7180419191109136
 40
0.7505738074802006
 40
0.7505738074802006
 40
0.7505738074802006
 40
0.7821833767502281
 40
0.7821833767502281
 40
0.7821833767502281
 40
0.8072889265608562
 40
0.8072889265608562
 40
0.8072889265608562
 40
0.8379715015886826
 40
0.8379715015886826
 40
0.8379715015886826
 40
0.8742305092018838
 40
0.8742305092018838
 40
0.8742305092018838
 40
0.9067719920720821
 40
0.9067719920720821
 40
0.9067719920720821
 40
0.9402428016260261
 40
0.9402428016260261
 40
0.9402428016260261
 40
0.9681351075661809
 40
0.9681351075661809
 40
0.9681351075661809
 40
0.9811515170039671
 40
0.9811515170039671
 40
0.9811515170039671
 40
0.9904490147636089
 40
0.9904490147636089
 40
0.9904490147636089
 40
1.0
 40
1.0
 40
1.0
 40
1.0
 10
347.00000000000006
 20
-154.99999999999997
 30
0.0
 10
346.99922325708155
 20
-154.9825390794643
 30
0.0
 10
346.9982386380967
 20
-154.9833707406481
 30
0.0
 10
346.9970461430443
 20
-155.00249498355106
 30
0.0
 10
346.9915724185304
 20
-155.10183758121494
 30
0.0
 10
346.9873210929762
 20
-155.2289476514195
 30
0.0
 10
346.9760066400341
 20
-155.32774594136006
 30
0.0
 10
346.9651452512439
 20
-155.42929980521293
 30
0.0
 10
346.9470077994241
 20
-155.50383534628654
 30
0.0
 10
346.9256971128781
 20
-155.57319314854175
 30
0.0
 10
346.87634731165235
 20
-155.73789274874613
 30
0.0
 10
346.8150391309175
 20
-155.99948669206495
 30
0.0
 10
346.7417947580347
 20
-156.2489282011739
 30
0.0
 10
346.632232315032
 20
-156.62463801491998
 30
0.0
 10
346.48637102615737
 20
-156.9596177953811
 30
0.0
 10
346.3202586877158
 20
-157.29254077092065
 30
0.0
 10
346.1556155930529
 20
-157.62612473542418
 30
0.0
 10
345.9697794694631
 20
-157.9517223380745
 30
0.0
 10
345.76275031694644
 20
-158.26933357887154
 30
0.0
 10
345.33138918858157
 20
-158.924333688289
 30
0.0
 10
344.809718748894
 20
-159.51533272745647
 30
0.0
 10
344.2156640817759
 20
-160.0279527652331
 30
0.0
 10
343.3899412343513
 20
-160.73984566362938
 30
0.0
 10
342.4175672961997
 20
-161.2829266271574
 30
0.0
 10
341.3726915930363
 20
-161.59774309220035
 30
0.0
 10
340.52437375815794
 20
-161.85439615267308
 30
0.0
 10
339.63114984382497
 20
-161.9599738219152
 30
0.0
 10
338.7462671815092
 20
-161.91209761043476
 30
0.0
 10
336.59706051198305
 20
-161.8005384109254
 30
0.0
 10
334.5269276179923
 20
-160.78531381076652
 30
0.0
 10
333.07705603851093
 20
-159.202858074603
 30
0.0
 10
332.40842634083236
 20
-158.47546725303758
 30
0.0
 10
331.86870731259324
 20
-157.62709243953992
 30
0.0
 10
331.5099275903308
 20
-156.7054209098541
 30
0.0
 10
331.1870719758208
 20
-155.87983286907905
 30
0.0
 10
331.013228734979
 20
-154.99631403023673
 30
0.0
 10
331.0008105569964
 20
-154.109834346668
 30
0.0
 10
330.9861345065271
 20
-153.15472621497668
 30
0.0
 10
331.15901133354413
 20
-152.20085366292184
 30
0.0
 10
331.4745733842247
 20
-151.30127547738553
 30
0.0
 10
331.81183865051776
 20
-150.33516076505614
 30
0.0
 10
332.3064075280581
 20
-149.43059714427912
 30
0.0
 10
332.8850947267185
 20
-148.58988694352965
 30
0.0
 10
333.58105950187337
 20
-147.58020156881543
 30
0.0
 10
334.3963792716001
 20
-146.6586186853455
 30
0.0
 10
335.25879627024693
 20
-145.7893249182855
 30
0.0
 10
335.9301721935911
 20
-145.11317092341625
 30
0.0
 10
336.6321471974321
 20
-144.46814068189047
 30
0.0
 10
337.345815911895
 20
-143.83714734957476
 30
0.0
 10
338.92661287561566
 20
-142.4402918763489
 30
0.0
 10
340.5674985567003
 20
-141.1126278918858
 30
0.0
 10
342.1271175909535
 20
-139.69157304108603
 30
0.0
 10
342.8308997152411
 20
-139.04957045108966
 30
0.0
 10
343.5184560598403
 20
-138.3891326375367
 30
0.0
 10
344.16721647203696
 20
-137.69073594404287
 30
0.0
 10
344.7225505815441
 20
-137.0911282227831
 30
0.0
 10
345.2509331345349
 20
-136.468276985661
 30
0.0
 10
345.7207280151751
 20
-135.79874174829206
 30
0.0
 10
345.8578409839811
 20
-135.60288079194984
 30
0.0
 10
345.98897534564327
 20
-135.40313445300117
 30
0.0
 10
346.1141311001617
 20
-135.19950273144585
 30
0.0
 10
346.30999879455095
 20
-134.87828110943633
 30
0.0
 10
346.4909704685513
 20
-134.5601763358503
 30
0.0
 10
346.6438381985539
 20
-134.21876344868375
 30
0.0
 10
346.71782419996146
 20
-134.05021480725154
 30
0.0
 10
346.7908759363421
 20
-133.84988619688042
 30
0.0
 10
346.8477739276281
 20
-133.6750061113669
 30
0.0
 10
346.8767460192009
 20
-133.5877011800527
 30
0.0
 10
346.9035998244144
 20
-133.50494592309408
 30
0.0
 10
346.9283353432682
 20
-133.4267403404906
 30
0.0
 10
346.95277744124115
 20
-133.3461421245047
 30
0.0
 10
346.97471106976866
 20
-133.26833240056808
 30
0.0
 10
346.98600193803594
 20
-133.14721706088685
 30
0.0
 10
346.9889013002422
 20
-133.11650057799096
 30
0.0
 10
346.9911345752264
 20
-133.09743491382426
 30
0.0
 10
346.99314817098633
 20
-133.06918325094315
 30
0.0
 10
346.99518742813154
 20
-133.0431435199724
 30
0.0
 10
346.9970254357311
 20
-133.00490298981737
 30
0.0
 10
346.99979853554333
 20
-133.00012767116417
 30
0.0
 10
347.0001251986194
 20
-133.00054954268748
 30
0.0
 10
347.0004518616955
 20
-133.00097141421094
 30
0.0
 10
347.00077852477165
 20
-133.0013932857343
 30
0.0
 10
347.00289690449364
 20
-133.00993046134406
 30
0.0
 10
347.00440597647207
 20
-133.03470998799216
 30
0.0
 10
347.006013422063
 20
-133.05639172847805
 30
0.0
 10
347.00775330476927
 20
-133.07840122407669
 30
0.0
 10
347.0094931874759
 20
-133.10041071967538
 30
0.0
 10
347.01123307018224
 20
-133.1224202152741
 30
0.0
 10
347.02223662678745
 20
-133.26610310435706
 30
0.0
 10
347.05117606910807
 20
-133.36803003140886
 30
0.0
 10
347.08645703294616
 20
-133.47317069788852
 30
0.0
 10
347.14188262176486
 20
-133.645400857696
 30
0.0
 10
347.2101020449969
 20
-133.85791213261908
 30
0.0
 10
347.2879753675419
 20
-134.0539613312257
 30
0.0
 10
347.4154566211243
 20
-134.37510859077585
 30
0.0
 10
347.5743280045781
 20
-134.66989707069123
 30
0.0
 10
347.74472669674736
 20
-134.96371521536466
 30
0.0
 10
347.9336255242896
 20
-135.2875701022767
 30
0.0
 10
348.1374889633509
 20
-135.6022077372993
 30
0.0
 10
348.3563170139308
 20
-135.90762812043218
 30
0.0
 10
349.1730145137606
 20
-137.0403720574472
 30
0.0
 10
350.1408289489182
 20
-138.05425521724547
 30
0.0
 10
351.1485871721919
 20
-139.01721301999592
 30
0.0
 10
351.88773840183194
 20
-139.72127329765445
 30
0.0
 10
352.6534074003139
 20
-140.3969118580727
 30
0.0
 10
353.4264006793078
 20
-141.06339874953278
 30
0.0
 10
355.0489432656289
 20
-142.4633323429314
 30
0.0
 10
356.7114524064853
 20
-143.82008650405706
 30
0.0
 10
358.2545980395954
 20
-145.30937019116502
 30
0.0
 10
359.01259326147436
 20
-146.0426803789076
 30
0.0
 10
359.7410064270197
 20
-146.808866663226
 30
0.0
 10
360.4011836458417
 20
-147.63240747910254
 30
0.0
 10
361.1452689493401
 20
-148.56123169096497
 30
0.0
 10
361.80476496832284
 20
-149.5674536785861
 30
0.0
 10
362.27693486079136
 20
-150.66367669601655
 30
0.0
 10
362.736183100109
 20
-151.72594168686652
 30
0.0
 10
363.00745662164763
 20
-152.8779320655094
 30
0.0
 10
362.999899427468
 20
-154.03872176242774
 30
0.0
 10
362.9958478737936
 20
-154.9593777647631
 30
0.0
 10
362.8175578090123
 20
-155.87848272240646
 30
0.0
 10
362.478700949646
 20
-156.73442609696167
 30
0.0
 10
362.0661227457357
 20
-157.78171967654228
 30
0.0
 10
361.4200268439683
 20
-158.73239083812751
 30
0.0
 10
360.61682668208965
 20
-159.5189971066476
 30
0.0
 10
359.66778465382737
 20
-160.44943267898674
 30
0.0
 10
358.49837148161544
 20
-161.1548668386295
 30
0.0
 10
357.2298582273807
 20
-161.55283874675948
 30
0.0
 10
356.09245135959446
 20
-161.9111323072481
 30
0.0
 10
354.87344652370314
 20
-162.01682408787457
 30
0.0
 10
353.69329484890415
 20
-161.8376535804676
 30
0.0
 10
352.4789830228927
 20
-161.65668248524764
 30
0.0
 10
351.31409707897103
 20
-161.17203986911653
 30
0.0
 10
350.321353694968
 20
-160.45192872742436
 30
0.0
 10
349.4926379406208
 20
-159.85307479549087
 30
0.0
 10
348.78059935180374
 20
-159.09678683558369
 30
0.0
 10
348.220124899693
 20
-158.2430275136271
 30
0.0
 10
347.9577775491173
 20
-157.84369796627573
 30
0.0
 10
347.7303200955991
 20
-157.42539679463312
 30
0.0
 10
347.5377525391368
 20
-156.98812399869888
 30
0.0
 10
347.40006838402616
 20
-156.67610873366115
 30
0.0
 10
347.28408509653275
 20
-156.35635912043927
 30
0.0
 10
347.18980267665677
 20
-156.0288751590338
 30
0.0
 10
347.0963426271977
 20
-155.69281061127904
 30
0.0
 10
347.0151845501726
 20
-155.34961752527894
 30
0.0
 10
346.99999999999994
 20
-154.99999999999997
 30
0.0
  0
SPLINE
  5
35
330
17
100
AcDbEntity
  8
CUT
100
AcDbSpline
 70
0
 71
3
 72
149
 73
145
 74
0
 40
0.0
 40
0.0
 40
0.0
 40
0.0
 40
0.0006592971879290045
 40
0.0006592971879290045
 40
0.0006592971879290045
 40
0.003992575906219841
 40
0.003992575906219841
 40
0.003992575906219841
 40
0.007325854624510678
 40
0.007325854624510678
 40
0.007325854624510678
 40
0.015208620912143436
 40
0.015208620912143436
 40
0.015208620912143436
 40
0.027082166258494127
 40
0.027082166258494127
 40
0.027082166258494127
 40
0.03884848089546404
 40
0.03884848089546404
 40
0.03884848089546404
 40
0.06338999423971158
 40
0.06338999423971158
 40
0.06338999423971158
 40
0.0975253618248382
 40
0.0975253618248382
 40
0.0975253618248382
 40
0.12526075320652189
 40
0.12526075320652189
 40
0.12526075320652189
 40
0.1924627916574641
 40
0.1924627916574641
 40
0.1924627916574641
 40
0.22339692078423054
 40
0.22339692078423054
 40
0.22339692078423054
 40
0.2511321252696486
 40
0.2511321252696486
 40
0.2511321252696486
 40
0.28099998199164694
 40
0.28099998199164694
 40
0.28099998199164694
 40
0.3130016260360577
 40
0.3130016260360577
 40
0.3130016260360577
 40
0.351399671059896
 40
0.351399671059896
 40
0.351399671059896
 40
0.3812600635554437
 40
0.3812600635554437
 40
0.3812600635554437
 40
0.44737689674252296
 40
0.44737689674252296
 40
0.44737689674252296
 40
0.47723658475565317
 40
0.47723658475565317
 40
0.47723658475565317
 40
0.5028305716524487
 40
0.5028305716524487
 40
0.5028305716524487
 40
0.5102954844720484
 40
0.5102954844720484
 40
0.5102954844720484
 40
0.5220202650183117
 40
0.5220202650183117
 40
0.5220202650183117
 40
0.5276840160018131
 40
0.5276840160018131
 40
0.5276840160018131
 40
0.5305158914935639
 40
0.5305158914935639
 40
0.5305158914935639
 40
0.5333477669853146
 40
0.5333477669853146
 40
0.5333477669853146
 40
0.534072840704708
 40
0.534072840704708
 40
0.534072840704708
 40
0.5347979144241013
 40
0.5347979144241013
 40
0.5347979144241013
 40
0.5348833278340894
 40
0.5348833278340894
 40
0.5348833278340894
 40
0.5354523398908203
 40
0.5354523398908203
 40
0.5354523398908203
 40
0.5360213519475512
 40
0.5360213519475512
 40
0.5360213519475512
 40
0.5395319922356384
 40
0.5395319922356384
 40
0.5395319922356384
 40
0.5451970616747922
 40
0.5451970616747922
 40
0.5451970616747922
 40
0.5544742742209998
 40
0.5544742742209998
 40
0.5544742742209998
 40
0.5646970464061306
 40
0.5646970464061306
 40
0.5646970464061306
 40
0.602799676994297
 40
0.602799676994297
 40
0.602799676994297
 40
0.6306803036876636
 40
0.6306803036876636
 40
0.6306803036876636
 40
0.6892289854065553
 40
0.6892289854065553
 40
0.6892289854065553
 40
0.7180419191068375
 40
0.7180419191068375
 40
0.7180419191068375
 40
0.7505738074743458
 40
0.7505738074743458
 40
0.7505738074743458
 40
0.7821833767440306
 40
0.7821833767440306
 40
0.7821833767440306
 40
0.8072889265544241
 40
0.8072889265544241
 40
0.8072889265544241
 40
0.8379715015822946
 40
0.8379715015822946
 40
0.8379715015822946
 40
0.874230509196396
 40
0.874230509196396
 40
0.874230509196396
 40
0.9067719920682326
 40
0.9067719920682326
 40
0.9067719920682326
 40
0.940242801623524
 40
0.940242801623524
 40
0.940242801623524
 40
0.9681351075648694
 40
0.9681351075648694
 40
0.9681351075648694
 40
0.9811515170032131
 40
0.9811515170032131
 40
0.9811515170032131
 40
0.9904490147632496
 40
0.9904490147632496
 40
0.9904490147632496
 40
1.0
 40
1.0
 40
1.0
 40
1.0
 10
346.99999999999994
 20
-99.99999999999997
 30
0.0
 10
346.99922325708167
 20
-99.9825390794647
 30
0.0
 10
346.9982386380967
 20
-99.98337074064852
 30
0.0
 10
346.99704614304443
 20
-100.00249498355146
 30
0.0
 10
346.99157241853015
 20
-100.10183758121757
 30
0.0
 10
346.9873210929758
 20
-100.22894765142287
 30
0.0
 10
346.9760066400336
 20
-100.3277459413642
 30
0.0
 10
346.965145251243
 20
-100.42929980521737
 30
0.0
 10
346.94700779942275
 20
-100.50383534629101
 30
0.0
 10
346.92569711287643
 20
-100.57319314854723
 30
0.0
 10
346.8763473116508
 20
-100.73789274875246
 30
0.0
 10
346.8150391309153
 20
-100.99948669207538
 30
0.0
 10
346.74179475803294
 20
-101.24892820117935
 30
0.0
 10
346.63223231502866
 20
-101.6246380149303
 30
0.0
 10
346.4863710261555
 20
-101.95961779538482
 30
0.0
 10
346.3202586877112
 20
-102.29254077093013
 30
0.0
 10
346.1556155930496
 20
-102.62612473542957
 30
0.0
 10
345.9697794694597
 20
-102.9517223380798
 30
0.0
 10
345.7627503169405
 20
-103.26933357888068
 30
0.0
 10
345.3313891885636
 20
-103.92433368831536
 30
0.0
 10
344.8097187488545
 20
-104.51533272749435
 30
0.0
 10
344.2156640817702
 20
-105.02795276523813
 30
0.0
 10
343.3899412345422
 20
-105.73984566347794
 30
0.0
 10
342.41756729632937
 20
-106.28292662712958
 30
0.0
 10
341.3726915930289
 20
-106.59774309220255
 30
0.0
 10
340.5243737581496
 20
-106.85439615267437
 30
0.0
 10
339.63114984381696
 20
-106.95997382191614
 30
0.0
 10
338.74626718150137
 20
-106.912097610434
 30
0.0
 10
336.5970605119985
 20
-106.80053841090759
 30
0.0
 10
334.526927618089
 20
-105.78531381084453
 30
0.0
 10
333.07705603850576
 20
-104.20285807460037
 30
0.0
 10
332.40842634082253
 20
-103.47546725302243
 30
0.0
 10
331.8687073125822
 20
-102.62709243952025
 30
0.0
 10
331.50992759032744
 20
-101.7054209098456
 30
0.0
 10
331.1870719758198
 20
-100.8798328690735
 30
0.0
 10
331.0132287349777
 20
-99.9963140302285
 30
0.0
 10
331.0008105569962
 20
-99.10983434666039
 30
0.0
 10
330.9861345065249
 20
-98.15472621499282
 30
0.0
 10
331.15901133355123
 20
-97.20085366288788
 30
0.0
 10
331.4745733842272
 20
-96.30127547737835
 30
0.0
 10
331.8118386505051
 20
-95.33516076510573
 30
0.0
 10
332.3064075279806
 20
-94.43059714439688
 30
0.0
 10
332.88509472672774
 20
-93.58988694351793
 30
0.0
 10
333.5810595018763
 20
-92.58020156880946
 30
0.0
 10
334.3963792716212
 20
-91.65861868532366
 30
0.0
 10
335.25879627025273
 20
-90.78932491827925
 30
0.0
 10
335.9301721935808
 20
-90.11317092342718
 30
0.0
 10
336.63214719741325
 20
-89.4681406819068
 30
0.0
 10
337.34581591190226
 20
-88.83714734956803
 30
0.0
 10
338.926612875605
 20
-87.44029187635837
 30
0.0
 10
340.5674985567108
 20
-86.11262789187674
 30
0.0
 10
342.12711759095805
 20
-84.6915730410816
 30
0.0
 10
342.83089971526584
 20
-84.04957045106686
 30
0.0
 10
343.51845605985346
 20
-83.38913263752282
 30
0.0
 10
344.1672164720421
 20
-82.69073594403727
 30
0.0
 10
344.7225505815495
 20
-82.09112822277694
 30
0.0
 10
345.2509331345394
 20
-81.46827698565443
 30
0.0
 10
345.7207280151795
 20
-80.7987417482859
 30
0.0
 10
345.8578409839855
 20
-80.6028807919436
 30
0.0
 10
345.98897534564765
 20
-80.40313445299466
 30
0.0
 10
346.11413110016497
 20
-80.19950273143897
 30
0.0
 10
346.30999879455555
 20
-79.87828110942992
 30
0.0
 10
346.4909704685541
 20
-79.56017633584356
 30
0.0
 10
346.6438381985575
 20
-79.21876344867677
 30
0.0
 10
346.7178241999646
 20
-79.0502148072445
 30
0.0
 10
346.79087593634466
 20
-78.84988619687243
 30
0.0
 10
346.8477739276303
 20
-78.6750061113597
 30
0.0
 10
346.8767460192031
 20
-78.58770118004597
 30
0.0
 10
346.9035998244166
 20
-78.50494592308756
 30
0.0
 10
346.92833534327013
 20
-78.4267403404843
 30
0.0
 10
346.952777441243
 20
-78.34614212449851
 30
0.0
 10
346.97471106977065
 20
-78.26833240056075
 30
0.0
 10
346.98600193803713
 20
-78.14721706087718
 30
0.0
 10
346.98890130024347
 20
-78.11650057797755
 30
0.0
 10
346.991134575227
 20
-78.09743491381562
 30
0.0
 10
346.99314817098684
 20
-78.06918325093537
 30
0.0
 10
346.99518742813154
 20
-78.04314351996643
 30
0.0
 10
346.99702543573176
 20
-78.00490298980961
 30
0.0
 10
346.99979853554385
 20
-78.00012767116354
 30
0.0
 10
347.00012519861974
 20
-78.00054954268776
 30
0.0
 10
347.00045186169586
 20
-78.00097141421205
 30
0.0
 10
347.0007785247718
 20
-78.0013932857363
 30
0.0
 10
347.0028969044944
 20
-78.00993046135078
 30
0.0
 10
347.0044059764725
 20
-78.03470998799904
 30
0.0
 10
347.00601342206363
 20
-78.05639172848618
 30
0.0
 10
347.00775330476995
 20
-78.07840122408581
 30
0.0
 10
347.0094931874768
 20
-78.10041071968551
 30
0.0
 10
347.01123307018304
 20
-78.12242021528515
 30
0.0
 10
347.0222366267885
 20
-78.26610310436492
 30
0.0
 10
347.0511760691104
 20
-78.3680300314157
 30
0.0
 10
347.08645703294826
 20
-78.47317069789483
 30
0.0
 10
347.14188262176714
 20
-78.64540085770327
 30
0.0
 10
347.210102045
 20
-78.85791213262709
 30
0.0
 10
347.2879753675442
 20
-79.05396133123251
 30
0.0
 10
347.41545662112804
 20
-79.3751085907835
 30
0.0
 10
347.57432800458116
 20
-79.66989707069672
 30
0.0
 10
347.74472669675197
 20
-79.96371521537229
 30
0.0
 10
347.9336255242939
 20
-80.2875701022835
 30
0.0
 10
348.13748896335477
 20
-80.6022077373052
 30
0.0
 10
348.3563170139344
 20
-80.90762812043738
 30
0.0
 10
349.1730145137651
 20
-82.04037205745306
 30
0.0
 10
350.14082894892437
 20
-83.05425521725077
 30
0.0
 10
351.14858717219636
 20
-84.01721302000043
 30
0.0
 10
351.88773840185365
 20
-84.72127329767557
 30
0.0
 10
352.6534074003368
 20
-85.3969118580904
 30
0.0
 10
353.4264006793123
 20
-86.06339874953865
 30
0.0
 10
355.04894326564215
 20
-87.46333234293796
 30
0.0
 10
356.71145240658024
 20
-88.82008650414397
 30
0.0
 10
358.2545980395994
 20
-90.30937019116904
 30
0.0
 10
359.0125932614292
 20
-91.04268037886288
 30
0.0
 10
359.7410064270008
 20
-91.80886666320148
 30
0.0
 10
360.40118364584623
 20
-92.6324074791085
 30
0.0
 10
361.14526894939604
 20
-93.56123169103299
 30
0.0
 10
361.80476496835684
 20
-94.56745367865402
 30
0.0
 10
362.2769348607945
 20
-95.6636766960236
 30
0.0
 10
362.73618310011113
 20
-96.72594168687384
 30
0.0
 10
363.00745662164877
 20
-97.87793206551746
 30
0.0
 10
362.99989942746777
 20
-99.03872176243513
 30
0.0
 10
362.99584787379257
 20
-99.95937776477061
 30
0.0
 10
362.81755780900966
 20
-100.87848272241536
 30
0.0
 10
362.4787009496435
 20
-101.73442609696794
 30
0.0
 10
362.0661227457343
 20
-102.78171967654414
 30
0.0
 10
361.4200268439646
 20
-103.73239083813306
 30
0.0
 10
360.6168266820844
 20
-104.5189971066527
 30
0.0
 10
359.6677846537899
 20
-105.4494326790216
 30
0.0
 10
358.49837148157263
 20
-106.15486683864385
 30
0.0
 10
357.2298582273733
 20
-106.55283874676167
 30
0.0
 10
356.09245135958736
 20
-106.9111323072491
 30
0.0
 10
354.8734465236972
 20
-107.01682408787472
 30
0.0
 10
353.69329484889664
 20
-106.8376535804665
 30
0.0
 10
352.47898302290344
 20
-106.65668248525132
 30
0.0
 10
351.31409707895693
 20
-106.17203986911107
 30
0.0
 10
350.32135369496183
 20
-105.45192872741991
 30
0.0
 10
349.4926379406159
 20
-104.853074795486
 30
0.0
 10
348.7805993517982
 20
-104.09678683557759
 30
0.0
 10
348.22012489968876
 20
-103.24302751362076
 30
0.0
 10
347.95777754911336
 20
-102.84369796626922
 30
0.0
 10
347.7303200955956
 20
-102.42539679462627
 30
0.0
 10
347.53775253913386
 20
-101.98812399869189
 30
0.0
 10
347.4000683840232
 20
-101.67610873365368
 30
0.0
 10
347.2840850965301
 20
-101.35635912043207
 30
0.0
 10
347.1898026766559
 20
-101.02887515902731
 30
0.0
 10
347.09634262719555
 20
-100.69281061127334
 30
0.0
 10
347.0151845501728
 20
-100.34961752527683
 30
0.0
 10
346.99999999999994
 20
-99.99999999999997
 30
0.0
  0
CIRCLE
  5
36
330
17
100
AcDbEntity
  8
CUT
100
AcDbCircle
 10
17.0
 20
-252.99999999999997
 30
0.0
 40
2.3
  0
CIRCLE
  5
37
330
17
100
AcDbEntity
  8
CUT
100
AcDbCircle
 10
17.0
 20
-16.99999999999997
 30
0.0
 40
2.3
  0
CIRCLE
  5
38
330
17
100
AcDbEntity
  8
CUT
100
AcDbCircle
 10
376.0
 20
-252.99999999999997
 30
0.0
 40
2.3
  0
CIRCLE
  5
39
330
17
100
AcDbEntity
  8
CUT
100
AcDbCircle
 10
376.0
 20
-16.99999999999997
 30
0.0
 40
2.3
  0
LINE
  5
3A
330
17
100
AcDbEntity
  8
CUT
100
AcDbLine
 10
0.0
 20
-269.99999999999994
 30
0.0
 11
393.0
 21
-269.99999999999994
 31
0.0
  0
LINE
  5
3B
330
17
100
AcDbEntity
  8
CUT
100
AcDbLine
 10
0.0
 20
2.942091015256665e-14
 30
0.0
 11
0.0
 21
-269.99999999999994
 31
0.0
  0
LINE
  5
3C
330
17
100
AcDbEntity
  8
CUT
100
AcDbLine
 10
257.0
 20
-21.99999999999997
 30
0.0
 11
257.0
 21
2.942091015256665e-14
 31
0.0
  0
LINE
  5
3D
330
17
100
AcDbEntity
  8
CUT
100
AcDbLine
 10
257.0
 20
2.942091015256665e-14
 30
0.0
 11
0.0
 21
2.942091015256665e-14
 31
0.0
  0
LINE
  5
3E
330
17
100
AcDbEntity
  8
CUT
100
AcDbLine
 10
317.0
 20
-21.99999999999997
 30
0.0
 11
257.0
 21
-21.99999999999997
 31
0.0
  0
LINE
  5
3F
330
17
100
AcDbEntity
  8
CUT
100
AcDbLine
 10
317.0
 20
2.942091015256665e-14
 30
0.0
 11
317.0
 21
-21.99999999999997
 31
0.0
  0
LINE
  5
40
330
17
100
AcDbEntity
  8
CUT
100
AcDbLine
 10
393.0
 20
-269.99999999999994
 30
0.0
 11
393.0
 21
2.942091015256665e-14
 31
0.0
  0
LINE
  5
41
330
17
100
AcDbEntity
  8
CUT
100
AcDbLine
 10
393.0
 20
2.942091015256665e-14
 30
0.0
 11
317.0
 21
2.942091015256665e-14
 31
0.0
  0
ENDSEC
  0
SECTION
  2
OBJECTS
  0
DICTIONARY
  5
A
330
0
100
AcDbDictionary
281
1
  3
ACAD_COLOR
350
B
  3
ACAD_GROUP
350
C
  3
ACAD_LAYOUT
350
D
  3
ACAD_MATERIAL
350
E
  3
ACAD_MLEADERSTYLE
350
F
  3
ACAD_MLINESTYLE
350
10
  3
ACAD_PLOTSETTINGS
350
11
  3
ACAD_PLOTSTYLENAME
350
12
  3
ACAD_SCALELIST
350
14
  3
ACAD_TABLESTYLE
350
15
  3
ACAD_VISUALSTYLE
350
16
  3
EZDXF_META
350
2D
  0
DICTIONARY
  5
B
330
A
100
AcDbDictionary
281
1
  0
DICTIONARY
  5
C
330
A
100
AcDbDictionary
281
1
  0
DICTIONARY
  5
D
330
A
100
AcDbDictionary
281
1
  3
Model
350
1A
  3
Layout1
350
1E
  0
DICTIONARY
  5
E
330
A
100
AcDbDictionary
281
1
  3
ByBlock
350
1F
  3
ByLayer
350
20
  3
Global
350
21
  0
DICTIONARY
  5
F
330
A
100
AcDbDictionary
281
1
  3
Standard
350
2C
  0
DICTIONARY
  5
10
330
A
100
AcDbDictionary
281
1
  3
Standard
350
22
  0
DICTIONARY
  5
11
330
A
100
AcDbDictionary
281
1
  0
ACDBDICTIONARYWDFLT
  5
12
330
A
100
AcDbDictionary
281
1
  3
Normal
350
13
100
AcDbDictionaryWithDefault
340
13
  0
ACDBPLACEHOLDER
  5
13
330
12
  0
DICTIONARY
  5
14
330
A
100
AcDbDictionary
281
1
  0
DICTIONARY
  5
15
330
A
100
AcDbDictionary
281
1
  0
DICTIONARY
  5
16
330
A
100
AcDbDictionary
281
1
  0
LAYOUT
  5
1A
330
D
100
AcDbPlotSettings
  1

  4
A3
  6

 40
7.5
 41
20.0
 42
7.5
 43
20.0
 44
420.0
 45
297.0
 46
0.0
 47
0.0
 48
0.0
 49
0.0
140
0.0
141
0.0
142
1.0
143
1.0
 70
1024
 72
1
 73
0
 74
5
  7

 75
16
 76
0
 77
2
 78
300
147
1.0
148
0.0
149
0.0
100
AcDbLayout
  1
Model
 70
1
 71
0
 10
0.0
 20
0.0
 11
420.0
 21
297.0
 12
0.0
 22
0.0
 32
0.0
 14
1e+20
 24
1e+20
 34
1e+20
 15
-1e+20
 25
-1e+20
 35
-1e+20
146
0.0
 13
0.0
 23
0.0
 33
0.0
 16
1.0
 26
0.0
 36
0.0
 17
0.0
 27
1.0
 37
0.0
 76
1
330
17
  0
LAYOUT
  5
1E
330
D
100
AcDbPlotSettings
  1

  4
A3
  6

 40
7.5
 41
20.0
 42
7.5
 43
20.0
 44
420.0
 45
297.0
 46
0.0
 47
0.0
 48
0.0
 49
0.0
140
0.0
141
0.0
142
1.0
143
1.0
 70
0
 72
1
 73
0
 74
5
  7

 75
16
 76
0
 77
2
 78
300
147
1.0
148
0.0
149
0.0
100
AcDbLayout
  1
Layout1
 70
1
 71
1
 10
0.0
 20
0.0
 11
420.0
 21
297.0
 12
0.0
 22
0.0
 32
0.0
 14
1e+20
 24
1e+20
 34
1e+20
 15
-1e+20
 25
-1e+20
 35
-1e+20
146
0.0
 13
0.0
 23
0.0
 33
0.0
 16
1.0
 26
0.0
 36
0.0
 17
0.0
 27
1.0
 37
0.0
 76
1
330
1B
  0
MATERIAL
  5
1F
102
{ACAD_REACTORS
330
E
102
}
330
E
100
AcDbMaterial
  1
ByBlock
  2

 70
0
 40
1.0
 71
1
 41
1.0
 91
-1023410177
 42
1.0
 72
1
  3

 73
1
 74
1
 75
1
 44
0.5
 73
0
 45
1.0
 46
1.0
 77
1
  4

 78
1
 79
1
170
1
 48
1.0
171
1
  6

172
1
173
1
174
1
140
1.0
141
1.0
175
1
  7

176
1
177
1
178
1
143
1.0
179
1
  8

270
1
271
1
272
1
145
1.0
146
1.0
273
1
  9

274
1
275
1
276
1
 42
1.0
 72
1
  3

 73
1
 74
1
 75
1
 94
63
  0
MATERIAL
  5
20
102
{ACAD_REACTORS
330
E
102
}
330
E
100
AcDbMaterial
  1
ByLayer
  2

 70
0
 40
1.0
 71
1
 41
1.0
 91
-1023410177
 42
1.0
 72
1
  3

 73
1
 74
1
 75
1
 44
0.5
 73
0
 45
1.0
 46
1.0
 77
1
  4

 78
1
 79
1
170
1
 48
1.0
171
1
  6

172
1
173
1
174
1
140
1.0
141
1.0
175
1
  7

176
1
177
1
178
1
143
1.0
179
1
  8

270
1
271
1
272
1
145
1.0
146
1.0
273
1
  9

274
1
275
1
276
1
 42
1.0
 72
1
  3

 73
1
 74
1
 75
1
 94
63
  0
MATERIAL
  5
21
102
{ACAD_REACTORS
330
E
102
}
330
E
100
AcDbMaterial
  1
Global
  2

 70
0
 40
1.0
 71
1
 41
1.0
 91
-1023410177
 42
1.0
 72
1
  3

 73
1
 74
1
 75
1
 44
0.5
 73
0
 45
1.0
 46
1.0
 77
1
  4

 78
1
 79
1
170
1
 48
1.0
171
1
  6

172
1
173
1
174
1
140
1.0
141
1.0
175
1
  7

176
1
177
1
178
1
143
1.0
179
1
  8

270
1
271
1
272
1
145
1.0
146
1.0
273
1
  9

274
1
275
1
276
1
 42
1.0
 72
1
  3

 73
1
 74
1
 75
1
 94
63
  0
MLINESTYLE
  5
22
102
{ACAD_REACTORS
330
10
102
}
330
10
100
AcDbMlineStyle
  2
Standard
 70
0
  3

 62
256
 51
90.0
 52
90.0
 71
2
 49
0.5
 62
256
  6
BYLAYER
 49
-0.5
 62
256
  6
BYLAYER
  0
MLEADERSTYLE
  5
2C
102
{ACAD_REACTORS
330
F
102
}
330
F
100
AcDbMLeaderStyle
179
2
170
2
171
1
172
0
 90
2
 40
0.0
 41
0.0
173
1
 91
-1056964608
 92
-2
290
1
 42
2.0
291
1
 43
8.0
  3
Standard
 44
4.0
300

342
29
174
1
175
1
176
0
178
1
 93
-1056964608
 45
4.0
292
0
297
0
 46
4.0
 94
-1056964608
 47
1.0
 49
1.0
140
1.0
294
1
141
0.0
177
0
142
1.0
295
0
296
0
143
3.75
271
0
272
9
273
9
  0
DICTIONARY
  5
2D
330
A
100
AcDbDictionary
280
1
281
1
  3
CREATED_BY_EZDXF
350
2E
  3
WRITTEN_BY_EZDXF
350
45
  0
DICTIONARYVAR
  5
2E
330
2D
100
DictionaryVariables
280
0
  1
0.0 @ 2000-01-01T00:00:00.000000+00:00
  0
DICTIONARYVAR
  5
45
330
2D
100
DictionaryVariables
280
0
  1
0.0 @ 2000-01-01T00:00:00.000000+00:00
  0
ENDSEC
  0
EOF
