  0
SECTION
  2
HEADER
  9
$ACADVER
  1
AC1027
  9
$ACADMAINTVER
 70
105
  9
$DWGCODEPAGE
  3
ANSI_1252
  9
$LASTSAVEDBY
  1
ezdxf
  9
$REQUIREDVERSIONS
160
0
  9
$INSBASE
 10
0.0
 20
0.0
 30
0.0
  9
$EXTMIN
 10
1e+20
 20
1e+20
 30
1e+20
  9
$EXTMAX
 10
-1e+20
 20
-1e+20
 30
-1e+20
  9
$LIMMIN
 10
0.0
 20
0.0
  9
$LIMMAX
 10
420.0
 20
297.0
  9
$ORTHOMODE
 70
0
  9
$REGENMODE
 70
1
  9
$FILLMODE
 70
1
  9
$QTEXTMODE
 70
0
  9
$MIRRTEXT
 70
1
  9
$LTSCALE
 40
1.0
  9
$ATTMODE
 70
1
  9
$TEXTSIZE
 40
2.5
  9
$TRACEWID
 40
1.0
  9
$TEXTSTYLE
  7
Standard
  9
$CLAYER
  8
0
  9
$CELTYPE
  6
ByLayer
  9
$CECOLOR
 62
256
  9
$CELTSCALE
 40
1.0
  9
$DISPSILH
 70
0
  9
$DIMSCALE
 40
1.0
  9
$DIMASZ
 40
2.5
  9
$DIMEXO
 40
0.625
  9
$DIMDLI
 40
3.75
  9
$DIMRND
 40
0.0
  9
$DIMDLE
 40
0.0
  9
$DIMEXE
 40
1.25
  9
$DIMTP
 40
0.0
  9
$DIMTM
 40
0.0
  9
$DIMTXT
 40
2.5
  9
$DIMCEN
 40
2.5
  9
$DIMTSZ
 40
0.0
  9
$DIMTOL
 70
0
  9
$DIMLIM
 70
0
  9
$DIMTIH
 70
0
  9
$DIMTOH
 70
0
  9
$DIMSE1
 70
0
  9
$DIMSE2
 70
0
  9
$DIMTAD
 70
1
  9
$DIMZIN
 70
8
  9
$DIMBLK
  1

  9
$DIMASO
 70
1
  9
$DIMSHO
 70
1
  9
$DIMPOST
  1

  9
$DIMAPOST
  1

  9
$DIMALT
 70
0
  9
$DIMALTD
 70
3
  9
$DIMALTF
 40
0.03937007874
  9
$DIMLFAC
 40
1.0
  9
$DIMTOFL
 70
1
  9
$DIMTVP
 40
0.0
  9
$DIMTIX
 70
0
  9
$DIMSOXD
 70
0
  9
$DIMSAH
 70
0
  9
$DIMBLK1
  1

  9
$DIMBLK2
  1

  9
$DIMSTYLE
  2
ISO-25
  9
$DIMCLRD
 70
0
  9
$DIMCLRE
 70
0
  9
$DIMCLRT
 70
0
  9
$DIMTFAC
 40
1.0
  9
$DIMGAP
 40
0.625
  9
$DIMJUST
 70
0
  9
$DIMSD1
 70
0
  9
$DIMSD2
 70
0
  9
$DIMTOLJ
 70
0
  9
$DIMTZIN
 70
8
  9
$DIMALTZ
 70
0
  9
$DIMALTTZ
 70
0
  9
$DIMUPT
 70
0
  9
$DIMDEC
 70
2
  9
$DIMTDEC
 70
2
  9
$DIMALTU
 70
2
  9
$DIMALTTD
 70
3
  9
$DIMTXSTY
  7
Standard
  9
$DIMAUNIT
 70
0
  9
$DIMADEC
 70
0
  9
$DIMALTRND
 40
0.0
  9
$DIMAZIN
 70
0
  9
$DIMDSEP
 70
44
  9
$DIMATFIT
 70
3
  9
$DIMFRAC
 70
0
  9
$DIMLDRBLK
  1

  9
$DIMLUNIT
 70
2
  9
$DIMLWD
 70
-2
  9
$DIMLWE
 70
-2
  9
$DIMTMOVE
 70
0
  9
$DIMFXL
 40
1.0
  9
$DIMFXLON
 70
0
  9
$DIMJOGANG
 40
0.785398163397
  9
$DIMTFILL
 70
0
  9
$DIMTFILLCLR
 70
0
  9
$DIMARCSYM
 70
0
  9
$DIMLTYPE
  6

  9
$DIMLTEX1
  6

  9
$DIMLTEX2
  6

  9
$DIMTXTDIRECTION
 70
0
  9
$LUNITS
 70
2
  9
$LUPREC
 70
4
  9
$SKETCHINC
 40
1.0
  9
$FILLETRAD
 40
10.0
  9
$AUNITS
 70
0
  9
$AUPREC
 70
2
  9
$MENU
  1
.
  9
$ELEVATION
 40
0.0
  9
$PELEVATION
 40
0.0
  9
$THICKNESS
 40
0.0
  9
$LIMCHECK
 70
0
  9
$CHAMFERA
 40
0.0
  9
$CHAMFERB
 40
0.0
  9
$CHAMFERC
 40
0.0
  9
$CHAMFERD
 40
0.0
  9
$SKPOLY
 70
0
  9
$TDCREATE
 40
2451545.0
  9
$TDUCREATE
 40
2451545.0
  9
$TDUPDATE
 40
2451545.0
  9
$TDUUPDATE
 40
2451545.0
  9
$TDINDWG
 40
0.0
  9
$TDUSRTIMER
 40
0.0
  9
$USRTIMER
 70
1
  9
$ANGBASE
 50
0.0
  9
$ANGDIR
 70
0
  9
$PDMODE
 70
0
  9
$PDSIZE
 40
0.0
  9
$PLINEWID
 40
0.0
  9
$SPLFRAME
 70
0
  9
$SPLINETYPE
 70
6
  9
$SPLINESEGS
 70
8
  9
$HANDSEED
  5
4F
  9
$SURFTAB1
 70
6
  9
$SURFTAB2
 70
6
  9
$SURFTYPE
 70
6
  9
$SURFU
 70
6
  9
$SURFV
 70
6
  9
$UCSBASE
  2

  9
$UCSNAME
  2

  9
$UCSORG
 10
0.0
 20
0.0
 30
0.0
  9
$UCSXDIR
 10
1.0
 20
0.0
 30
0.0
  9
$UCSYDIR
 10
0.0
 20
1.0
 30
0.0
  9
$UCSORTHOREF
  2

  9
$UCSORTHOVIEW
 70
0
  9
$UCSORGTOP
 10
0.0
 20
0.0
 30
0.0
  9
$UCSORGBOTTOM
 10
0.0
 20
0.0
 30
0.0
  9
$UCSORGLEFT
 10
0.0
 20
0.0
 30
0.0
  9
$UCSORGRIGHT
 10
0.0
 20
0.0
 30
0.0
  9
$UCSORGFRONT
 10
0.0
 20
0.0
 30
0.0
  9
$UCSORGBACK
 10
0.0
 20
0.0
 30
0.0
  9
$PUCSBASE
  2

  9
$PUCSNAME
  2

  9
$PUCSORG
 10
0.0
 20
0.0
 30
0.0
  9
$PUCSXDIR
 10
1.0
 20
0.0
 30
0.0
  9
$PUCSYDIR
 10
0.0
 20
1.0
 30
0.0
  9
$PUCSORTHOREF
  2

  9
$PUCSORTHOVIEW
 70
0
  9
$PUCSORGTOP
 10
0.0
 20
0.0
 30
0.0
  9
$PUCSORGBOTTOM
 10
0.0
 20
0.0
 30
0.0
  9
$PUCSORGLEFT
 10
0.0
 20
0.0
 30
0.0
  9
$PUCSORGRIGHT
 10
0.0
 20
0.0
 30
0.0
  9
$PUCSORGFRONT
 10
0.0
 20
0.0
 30
0.0
  9
$PUCSORGBACK
 10
0.0
 20
0.0
 30
0.0
  9
$USERI1
 70
0
  9
$USERI2
 70
0
  9
$USERI3
 70
0
  9
$USERI4
 70
0
  9
$USERI5
 70
0
  9
$USERR1
 40
0.0
  9
$USERR2
 40
0.0
  9
$USERR3
 40
0.0
  9
$USERR4
 40
0.0
  9
$USERR5
 40
0.0
  9
$WORLDVIEW
 70
1
  9
$SHADEDGE
 70
3
  9
$SHADEDIF
 70
70
  9
$TILEMODE
 70
1
  9
$MAXACTVP
 70
64
  9
$PINSBASE
 10
0.0
 20
0.0
 30
0.0
  9
$PLIMCHECK
 70
0
  9
$PEXTMIN
 10
1e+20
 20
1e+20
 30
1e+20
  9
$PEXTMAX
 10
-1e+20
 20
-1e+20
 30
-1e+20
  9
$PLIMMIN
 10
0.0
 20
0.0
  9
$PLIMMAX
 10
420.0
 20
297.0
  9
$UNITMODE
 70
0
  9
$VISRETAIN
 70
1
  9
$PLINEGEN
 70
0
  9
$PSLTSCALE
 70
1
  9
$TREEDEPTH
 70
3020
  9
$CMLSTYLE
  2
Standard
  9
$CMLJUST
 70
0
  9
$CMLSCALE
 40
20.0
  9
$PROXYGRAPHICS
 70
1
  9
$MEASUREMENT
 70
1
  9
$CELWEIGHT
370
-1
  9
$ENDCAPS
280
0
  9
$JOINSTYLE
280
0
  9
$LWDISPLAY
290
0
  9
$INSUNITS
 70
4
  9
$HYPERLINKBASE
  1

  9
$STYLESHEET
  1

  9
$XEDIT
290
1
  9
$CEPSNTYPE
380
0
  9
$PSTYLEMODE
290
1
  9
$FINGERPRINTGUID
  2
{00000000-0000-0000-0000-000000000000}
  9
$VERSIONGUID
  2
{00000000-0000-0000-0000-000000000000}
  9
$EXTNAMES
290
1
  9
$PSVPSCALE
 40
0.0
  9
$OLESTARTUP
290
0
  9
$SORTENTS
280
127
  9
$INDEXCTL
280
0
  9
$HIDETEXT
280
1
  9
$XCLIPFRAME
280
1
  9
$HALOGAP
280
0
  9
$OBSCOLOR
 70
257
  9
$OBSLTYPE
280
0
  9
$INTERSECTIONDISPLAY
280
0
  9
$INTERSECTIONCOLOR
 70
257
  9
$DIMASSOC
280
2
  9
$PROJECTNAME
  1

  9
$CAMERADISPLAY
290
0
  9
$LENSLENGTH
 40
50.0
  9
$CAMERAHEIGHT
 40
0.0
  9
$STEPSPERSEC
 40
24.0
  9
$STEPSIZE
 40
100.0
  9
$3DDWFPREC
 40
2.0
  9
$PSOLWIDTH
 40
0.005
  9
$PSOLHEIGHT
 40
0.08
  9
$LOFTANG1
 40
1.570796326795
  9
$LOFTANG2
 40
1.570796326795
  9
$LOFTMAG1
 40
0.0
  9
$LOFTMAG2
 40
0.0
  9
$LOFTPARAM
 70
7
  9
$LOFTNORMALS
280
1
  9
$LATITUDE
 40
37.795
  9
$LONGITUDE
 40
-122.394
  9
$NORTHDIRECTION
 40
0.0
  9
$TIMEZONE
 70
-8000
  9
$LIGHTGLYPHDISPLAY
280
1
  9
$TILEMODELIGHTSYNCH
280
1
  9
$CMATERIAL
347
20
  9
$SOLIDHIST
280
0
  9
$SHOWHIST
280
1
  9
$DWFFRAME
280
2
  9
$DGNFRAME
280
2
  9
$REALWORLDSCALE
290
1
  9
$INTERFERECOLOR
 62
256
  9
$CSHADOW
280
0
  9
$SHADOWPLANELOCATION
 40
0.0
  0
ENDSEC
  0
SECTION
  2
CLASSES
  0
CLASS
  1
ACDBDETAILVIEWSTYLE
  2
AcDbDetailViewStyle
  3
ObjectDBX Classes
 90
1025
 91
0
280
0
281
0
  0
CLASS
  1
ACDBDICTIONARYWDFLT
  2
AcDbDictionaryWithDefault
  3
ObjectDBX Classes
 90
0
 91
0
280
0
281
0
  0
CLASS
  1
ACDBPLACEHOLDER
  2
AcDbPlaceHolder
  3
ObjectDBX Classes
 90
0
 91
0
280
0
281
0
  0
CLASS
  1
ACDBSECTIONVIEWSTYLE
  2
AcDbSectionViewStyle
  3
ObjectDBX Classes
 90
1025
 91
0
280
0
281
0
  0
CLASS
  1
CELLSTYLEMAP
  2
AcDbCellStyleMap
  3
ObjectDBX Classes
 90
1152
 91
0
280
0
281
0
  0
CLASS
  1
DICTIONARYVAR
  2
AcDbDictionaryVar
  3
ObjectDBX Classes
 90
0
 91
0
280
0
281
0
  0
CLASS
  1
LAYOUT
  2
AcDbLayout
  3
ObjectDBX Classes
 90
0
 91
0
280
0
281
0
  0
CLASS
  1
MATERIAL
  2
AcDbMaterial
  3
ObjectDBX Classes
 90
1153
 91
0
280
0
281
0
  0
CLASS
  1
MENTALRAYRENDERSETTINGS
  2
AcDbMentalRayRenderSettings
  3
SCENEOE
 90
1024
 91
0
280
0
281
0
  0
CLASS
  1
MLEADERSTYLE
  2
AcDbMLeaderStyle
  3
ACDB_MLEADERSTYLE_CLASS
 90
4095
 91
0
280
0
281
0
  0
CLASS
  1
RASTERVARIABLES
  2
AcDbRasterVariables
  3
ISM
 90
0
 91
0
280
0
281
0
  0
CLASS
  1
SCALE
  2
AcDbScale
  3
ObjectDBX Classes
 90
1153
 91
0
280
0
281
0
  0
CLASS
  1
SUN
  2
AcDbSun
  3
SCENEOE
 90
1153
 91
0
280
0
281
0
  0
CLASS
  1
TABLESTYLE
  2
AcDbTableStyle
  3
ObjectDBX Classes
 90
4095
 91
0
280
0
281
0
  0
CLASS
  1
VISUALSTYLE
  2
AcDbVisualStyle
  3
ObjectDBX Classes
 90
4095
 91
0
280
0
281
0
  0
ENDSEC
  0
SECTION
  2
TABLES
  0
TABLE
  2
VPORT
  5
8
330
0
100
AcDbSymbolTable
 70
1
  0
VPORT
  5
4B
330
8
100
AcDbSymbolTableRecord
100
AcDbViewportTableRecord
  2
*Active
 70
0
 10
0.0
 20
0.0
 11
1.0
 21
1.0
 12
196.5
 22
132.00000000000003
 13
0.0
 23
0.0
 14
0.5
 24
0.5
 15
0.5
 25
0.5
 16
0.0
 26
0.0
 36
1.0
 17
0.0
 27
0.0
 37
0.0
 40
264.0
 41
1.34
 42
50.0
 43
0.0
 44
0.0
 50
0.0
 51
0.0
 71
0
 72
1000
 73
1
 74
3
 75
0
 76
0
 77
0
 78
0
281
0
 65
1
110
0.0
120
0.0
130
0.0
111
1.0
121
0.0
131
0.0
112
0.0
122
1.0
132
0.0
 79
0
146
0.0
  0
ENDTAB
  0
TABLE
  2
LTYPE
  5
2
330
0
100
AcDbSymbolTable
 70
3
  0
LTYPE
  5
24
330
2
100
AcDbSymbolTableRecord
100
AcDbLinetypeTableRecord
  2
ByBlock
 70
0
  3

 72
65
 73
0
 40
0.0
  0
LTYPE
  5
25
330
2
100
AcDbSymbolTableRecord
100
AcDbLinetypeTableRecord
  2
ByLayer
 70
0
  3

 72
65
 73
0
 40
0.0
  0
LTYPE
  5
26
330
2
100
AcDbSymbolTableRecord
100
AcDbLinetypeTableRecord
  2
Continuous
 70
0
  3

 72
65
 73
0
 40
0.0
  0
ENDTAB
  0
TABLE
  2
LAYER
  5
1
330
0
100
AcDbSymbolTable
 70
3
  0
LAYER
  5
27
330
1
100
AcDbSymbolTableRecord
100
AcDbLayerTableRecord
  2
0
 70
0
 62
7
  6
Continuous
370
-3
390
13
347
21
  0
LAYER
  5
28
330
1
100
AcDbSymbolTableRecord
100
AcDbLayerTableRecord
  2
Defpoints
 70
0
 62
7
  6
Continuous
290
0
370
-3
390
13
347
21
  0
LAYER
  5
2F
330
1
100
AcDbSymbolTableRecord
100
AcDbLayerTableRecord
  2
CUT
 70
0
 62
7
  6
Continuous
370
-3
390
13
347
21
  0
ENDTAB
  0
TABLE
  2
STYLE
  5
5
330
0
100
AcDbSymbolTable
 70
1
  0
STYLE
  5
29
330
5
100
AcDbSymbolTableRecord
100
AcDbTextStyleTableRecord
  2
Standard
 70
0
 40
0.0
 41
1.0
 50
0.0
 71
0
 42
2.5
  3
txt
  4

  0
ENDTAB
  0
TABLE
  2
VIEW
  5
7
330
0
100
AcDbSymbolTable
 70
0
  0
ENDTAB
  0
TABLE
  2
UCS
  5
6
330
0
100
AcDbSymbolTable
 70
0
  0
ENDTAB
  0
TABLE
  2
APPID
  5
3
330
0
100
AcDbSymbolTable
 70
3
  0
APPID
  5
2A
330
3
100
AcDbSymbolTableRecord
100
AcDbRegAppTableRecord
  2
ACAD
 70
0
  0
APPID
  5
4C
330
3
100
AcDbSymbolTableRecord
100
AcDbRegAppTableRecord
  2
HATCHBACKGROUNDCOLOR
 70
0
  0
APPID
  5
4D
330
3
100
AcDbSymbolTableRecord
100
AcDbRegAppTableRecord
  2
EZDXF
 70
0
  0
ENDTAB
  0
TABLE
  2
DIMSTYLE
  5
4
330
0
100
AcDbSymbolTable
 70
1
100
AcDbDimStyleTable
  0
DIMSTYLE
105
2B
330
4
100
AcDbSymbolTableRecord
100
AcDbDimStyleTableRecord
  2
Standard
 70
0
 40
1.0
 41
2.5
 42
0.625
 43
3.75
 44
1.25
 45
0.0
 46
0.0
 47
0.0
 48
0.0
 49
2.5
140
2.5
141
2.5
142
0.0
143
0.03937007874
144
1.0
145
0.0
146
1.0
147
0.625
148
0.0
 69
0
 70
0
 71
0
 72
0
 73
0
 74
0
 75
0
 76
0
 77
1
 78
8
 79
3
170
0
171
3
172
1
173
0
174
0
175
0
176
0
177
0
178
0
179
2
271
2
272
2
273
2
274
3
275
0
276
0
277
2
278
44
279
0
280
0
281
0
282
0
283
0
284
8
285
0
286
0
288
0
289
3
290
0
371
-2
372
-2
  0
ENDTAB
  0
TABLE
  2
BLOCK_RECORD
  5
9
330
0
100
AcDbSymbolTable
 70
2
  0
BLOCK_RECORD
  5
17
330
9
100
AcDbSymbolTableRecord
100
AcDbBlockTableRecord
  2
*Model_Space
340
1A
 70
0
280
1
281
0
  0
BLOCK_RECORD
  5
1B
330
9
100
AcDbSymbolTableRecord
100
AcDbBlockTableRecord
  2
*Paper_Space
340
1E
 70
0
280
1
281
0
  0
ENDTAB
  0
ENDSEC
  0
SECTION
  2
BLOCKS
  0
BLOCK
  5
18
330
17
100
AcDbEntity
  8
0
100
AcDbBlockBegin
  2
*Model_Space
 70
0
 10
0.0
 20
0.0
 30
0.0
  3
*Model_Space
  1

  0
ENDBLK
  5
19
330
17
100
AcDbEntity
  8
0
100
AcDbBlockEnd
  0
BLOCK
  5
1C
330
1B
100
AcDbEntity
  8
0
100
AcDbBlockBegin
  2
*Paper_Space
 70
0
 10
0.0
 20
0.0
 30
0.0
  3
*Paper_Space
  1

  0
ENDBLK
  5
1D
330
1B
100
AcDbEntity
  8
0
100
AcDbBlockEnd
  0
ENDSEC
  0
SECTION
  2
ENTITIES
  0
SPLINE
  5
30
330
17
100
AcDbEntity
  8
CUT
100
AcDbSpline
 70
0
 71
3
 72
125
 73
121
 74
0
 40
0.0
 40
0.0
 40
0.0
 40
0.0
 40
0.0005266961195605439
 40
0.0005266961195605439
 40
0.0005266961195605439
 40
0.003525199489734719
 40
0.003525199489734719
 40
0.003525199489734719
 40
0.006523702859908894
 40
0.006523702859908894
 40
0.006523702859908894
 40
0.014283897340028204
 40
0.014283897340028204
 40
0.014283897340028204
 40
0.026623476955835283
 40
0.026623476955835283
 40
0.026623476955835283
 40
0.059160701975866266
 40
0.059160701975866266
 40
0.059160701975866266
 40
0.11754254064069944
 40
0.11754254064069944
 40
0.11754254064069944
 40
0.18041838717073416
 40
0.18041838717073416
 40
0.18041838717073416
 40
0.24554180871209116
 40
0.24554180871209116
 40
0.24554180871209116
 40
0.2702455613654691
 40
0.2702455613654691
 40
0.2702455613654691
 40
0.30168551139102967
 40
0.30168551139102967
 40
0.30168551139102967
 40
0.36791855324349015
 40
0.36791855324349015
 40
0.36791855324349015
 40
0.49249890334036095
 40
0.49249890334036095
 40
0.49249890334036095
 40
0.5183119106205556
 40
0.5183119106205556
 40
0.5183119106205556
 40
0.535139874531699
 40
0.535139874531699
 40
0.535139874531699
 40
0.5474789058461336
 40
0.5474789058461336
 40
0.5474789058461336
 40
0.5534995384507957
 40
0.5534995384507957
 40
0.5534995384507957
 40
0.5595201710554579
 40
0.5595201710554579
 40
0.5595201710554579
 40
0.5604986128975631
 40
0.5604986128975631
 40
0.5604986128975631
 40
0.5614770547396682
 40
0.5614770547396682
 40
0.5614770547396682
 40
0.5615987238750543
 40
0.5615987238750543
 40
0.5615987238750543
 40
0.5629050960142421
 40
0.5629050960142421
 40
0.5629050960142421
 40
0.5642114681534298
 40
0.5642114681534298
 40
0.5642114681534298
 40
0.5668242124318053
 40
0.5668242124318053
 40
0.5668242124318053
 40
0.5721496807646199
 40
0.5721496807646199
 40
0.5721496807646199
 40
0.5808755847370148
 40
0.5808755847370148
 40
0.5808755847370148
 40
0.6123483344609966
 40
0.6123483344609966
 40
0.6123483344609966
 40
0.6735472353694646
 40
0.6735472353694646
 40
0.6735472353694646
 40
0.7102663842459663
 40
0.7102663842459663
 40
0.7102663842459663
 40
0.7443667489910611
 40
0.7443667489910611
 40
0.7443667489910611
 40
0.7767242811452362
 40
0.7767242811452362
 40
0.7767242811452362
 40
0.8090881676875438
 40
0.8090881676875438
 40
0.8090881676875438
 40
0.8362042590780298
 40
0.8362042590780298
 40
0.8362042590780298
 40
0.8746886189527169
 40
0.8746886189527169
 40
0.8746886189527169
 40
0.9035525546088101
 40
0.9035525546088101
 40
0.9035525546088101
 40
0.9359150777418446
 40
0.9359150777418446
 40
0.9359150777418446
 40
0.9700264298525187
 40
0.9700264298525187
 40
0.9700264298525187
 40
0.9822715623694015
 40
0.9822715623694015
 40
0.9822715623694015
 40
0.9910182339321626
 40
0.9910182339321626
 40
0.9910182339321626
 40
1.0
 40
1.0
 40
1.0
 40
1.0
 10
40.0
 20
20.35294117647061
 30
0.0
 10
39.999629644251804
 20
20.34494103659794
 30
0.0
 10
39.99916980127342
 20
20.345181991741374
 30
0.0
 10
39.99862047106481
 20
20.353664041900892
 30
0.0
 10
39.99619285898271
 20
20.397424126668735
 30
0.0
 10
39.994053290503686
 20
20.46170138094493
 30
0.0
 10
39.98870835603509
 20
20.50676949064758
 30
0.0
 10
39.9832932416532
 20
20.553285935662693
 30
0.0
 10
39.97532462245295
 20
20.59226198476372
 30
0.0
 10
39.96480249843444
 20
20.6236976379507
 30
0.0
 10
39.93865012786712
 20
20.712490731698043
 30
0.0
 10
39.91091724610157
 20
20.830559809743903
 30
0.0
 10
39.87849201002044
 20
20.940596725380214
 30
0.0
 10
39.826931365520295
 20
21.11754711768943
 30
0.0
 10
39.758293048470485
 20
21.275070859248036
 30
0.0
 10
39.680122895411415
 20
21.431802229211428
 30
0.0
 10
39.475207505169415
 20
21.849716653731896
 30
0.0
 10
39.20038403421147
 20
22.234546337180504
 30
0.0
 10
38.86711102553871
 20
22.55665289075383
 30
0.0
 10
38.27231868549788
 20
23.140900436402763
 30
0.0
 10
37.47723607353108
 20
23.52230970167853
 30
0.0
 10
36.644623226934655
 20
23.59563515311835
 30
0.0
 10
35.748180591305584
 20
23.68036370291085
 30
0.0
 10
34.83238146990656
 20
23.41627515493927
 30
0.0
 10
34.09847181370466
 20
22.899952322500308
 30
0.0
 10
33.33638268348806
 20
22.369003830647692
 30
0.0
 10
32.758945837520365
 20
21.56103620738147
 30
0.0
 10
32.55575792633641
 20
20.649734844172777
 30
0.0
 10
32.4781494040296
 20
20.302678979404742
 30
0.0
 10
32.453576685608375
 20
19.951929066599536
 30
0.0
 10
32.48203977107267
 20
19.597485105757112
 30
0.0
 10
32.51741545763448
 20
19.14917295618862
 30
0.0
 10
32.63777078695062
 20
18.71035744983071
 30
0.0
 10
32.81666411249525
 20
18.298870002080974
 30
0.0
 10
33.19675725624275
 20
17.428670408268868
 30
0.0
 10
33.81234696288855
 20
16.68766020207822
 30
0.0
 10
34.47472777687902
 20
16.018505857809178
 30
0.0
 10
35.730376028304335
 20
14.758446176389539
 30
0.0
 10
37.18674907504104
 20
13.718921194465038
 30
0.0
 10
38.43470012022873
 20
12.45069591830576
 30
0.0
 10
38.69389998710056
 20
12.18839542843168
 30
0.0
 10
38.93842145277507
 20
11.913232119210294
 30
0.0
 10
39.16826451725242
 20
11.625205990641646
 30
0.0
 10
39.31784031337655
 20
11.437220575093873
 30
0.0
 10
39.4561268973143
 20
11.240514666538697
 30
0.0
 10
39.583124269065614
 20
11.035088264976105
 30
0.0
 10
39.67527723375661
 20
10.88359866244875
 30
0.0
 10
39.76049211482102
 20
10.734886788701898
 30
0.0
 10
39.832351756709215
 20
10.572708989729083
 30
0.0
 10
39.86764581791646
 20
10.49264774565578
 30
0.0
 10
39.90137767027314
 20
10.40113294951673
 30
0.0
 10
39.92823503053942
 20
10.317864016695337
 30
0.0
 10
39.95488681988971
 20
10.23058115814382
 30
0.0
 10
39.98204777194452
 20
10.175997175900557
 30
0.0
 10
39.993391590593596
 20
10.07268811732931
 30
0.0
 10
39.99497402442145
 20
10.057829908146044
 30
0.0
 10
39.99610062842925
 20
10.044375545780092
 30
0.0
 10
39.99677140261683
 20
10.032325030231439
 30
0.0
 10
39.99761211052735
 20
10.019408113932599
 30
0.0
 10
39.9986383268751
 20
10.001775675097692
 30
0.0
 10
39.99990504868179
 20
10.000043867979167
 30
0.0
 10
40.00005885705256
 20
10.000241276516837
 30
0.0
 10
40.00021266542341
 20
10.000438685054517
 30
0.0
 10
40.00036647379417
 20
10.000636093592187
 30
0.0
 10
40.001926289679126
 20
10.006826485953118
 30
0.0
 10
40.002981033993954
 20
10.033107511957006
 30
0.0
 10
40.005052239930805
 20
10.056053835055414
 30
0.0
 10
40.00709840073515
 20
10.080130457900003
 30
0.0
 10
40.00986373292606
 20
10.101809786493602
 30
0.0
 10
40.0133482365035
 20
10.12109182083619
 30
0.0
 10
40.020547534525036
 20
10.160104339300506
 30
0.0
 10
40.02826910853476
 20
10.184602596049789
 30
0.0
 10
40.040684063732904
 20
10.222747503069991
 30
0.0
 10
40.066765419410764
 20
10.303661897299726
 30
0.0
 10
40.09887468953107
 20
10.403750877907722
 30
0.0
 10
40.13551960709865
 20
10.495959928972995
 30
0.0
 10
40.197066458194364
 20
10.64512309334518
 30
0.0
 10
40.2687134140795
 20
10.787834574253601
 30
0.0
 10
40.35046047475395
 20
10.92409437169823
 30
0.0
 10
40.64125285517227
 20
11.424625497183987
 30
0.0
 10
41.01403338620293
 20
11.869049070906327
 30
0.0
 10
41.40881473954035
 20
12.28820335344822
 30
0.0
 10
42.181655864015816
 20
13.101501285471874
 30
0.0
 10
43.05018274934957
 20
13.814476335575678
 30
0.0
 10
43.900814189170454
 20
14.543179536767292
 30
0.0
 10
44.41178668987146
 20
14.980181169505146
 30
0.0
 10
44.919751895421825
 20
15.421661986107228
 30
0.0
 10
45.39945521287853
 20
15.893265641549043
 30
0.0
 10
45.84413394484463
 20
16.331243404784512
 30
0.0
 10
46.265924916273114
 20
16.795862911817053
 30
0.0
 10
46.623292987744485
 20
17.308933238019964
 30
0.0
 10
46.96140712942438
 20
17.79477852923541
 30
0.0
 10
47.240708239629555
 20
18.328291873289224
 30
0.0
 10
47.39590146928505
 20
18.901980144242913
 30
0.0
 10
47.552575950327025
 20
19.47394493098621
 30
0.0
 10
47.57559623375232
 20
20.08502852631797
 30
0.0
 10
47.440991089243944
 20
20.664029931316573
 30
0.0
 10
47.32990307425686
 20
21.149098721474243
 30
0.0
 10
47.11333099256511
 20
21.608294110173848
 30
0.0
 10
46.81798284238285
 20
22.008100755213547
 30
0.0
 10
46.39901501132426
 20
22.57628801798118
 30
0.0
 10
45.82428979104349
 20
23.02715665261736
 30
0.0
 10
45.17500661791516
 20
23.303447847360506
 30
0.0
 10
44.688312373652195
 20
23.510995406163442
 30
0.0
 10
44.15846784761199
 20
23.61943040559756
 30
0.0
 10
43.62895364739957
 20
23.61043644353608
 30
0.0
 10
43.03535664765718
 20
23.601838184776494
 30
0.0
 10
42.445126027658645
 20
23.44197100005206
 30
0.0
 10
41.927684913680174
 20
23.15138096140023
 30
0.0
 10
41.38119207938459
 20
22.84619412856902
 30
0.0
 10
40.91673247380238
 20
22.401355705287447
 30
0.0
 10
40.57417641116181
 20
21.879071782530566
 30
0.0
 10
40.45071859953434
 20
21.691150744406603
 30
0.0
 10
40.34367976793176
 20
21.494303133487662
 30
0.0
 10
40.253059916353955
 20
21.288528949773717
 30
0.0
 10
40.18827817474653
 20
21.141698289172957
 30
0.0
 10
40.13368913825948
 20
20.991227826987643
 30
0.0
 10
40.08929280689284
 20
20.83711756321784
 30
0.0
 10
40.04535832854548
 20
20.67896504304916
 30
0.0
 10
40.00713701259675
 20
20.517472345657076
 30
0.0
 10
40.00000000000001
 20
20.352941176470615
 30
0.0
  0
SPLINE
  5
31
330
17
100
AcDbEntity
  8
CUT
100
AcDbSpline
 70
0
 71
3
 72
125
 73
121
 74
0
 40
0.0
 40
0.0
 40
0.0
 40
0.0
 40
0.0005266961194290642
 40
0.0005266961194290642
 40
0.0005266961194290642
 40
0.003525199488907434
 40
0.003525199488907434
 40
0.003525199488907434
 40
0.006523702858385804
 40
0.006523702858385804
 40
0.006523702858385804
 40
0.014283897336437947
 40
0.014283897336437947
 40
0.014283897336437947
 40
0.02662347694902438
 40
0.02662347694902438
 40
0.02662347694902438
 40
0.0591607019605637
 40
0.0591607019605637
 40
0.0591607019605637
 40
0.11754254062452825
 40
0.11754254062452825
 40
0.11754254062452825
 40
0.18041838715917258
 40
0.18041838715917258
 40
0.18041838715917258
 40
0.24554180870546713
 40
0.24554180870546713
 40
0.24554180870546713
 40
0.2702455613606863
 40
0.2702455613606863
 40
0.2702455613606863
 40
0.30168551138916655
 40
0.30168551138916655
 40
0.30168551138916655
 40
0.3679185532406765
 40
0.3679185532406765
 40
0.3679185532406765
 40
0.49249890333052226
 40
0.49249890333052226
 40
0.49249890333052226
 40
0.5183119106084926
 40
0.5183119106084926
 40
0.5183119106084926
 40
0.5351398745178312
 40
0.5351398745178312
 40
0.5351398745178312
 40
0.5474789058309919
 40
0.5474789058309919
 40
0.5474789058309919
 40
0.5534995384349701
 40
0.5534995384349701
 40
0.5534995384349701
 40
0.5595201710389482
 40
0.5595201710389482
 40
0.5595201710389482
 40
0.5604986128809384
 40
0.5604986128809384
 40
0.5604986128809384
 40
0.5614770547229286
 40
0.5614770547229286
 40
0.5614770547229286
 40
0.5615987238583003
 40
0.5615987238583003
 40
0.5615987238583003
 40
0.5629050959974309
 40
0.5629050959974309
 40
0.5629050959974309
 40
0.5642114681365614
 40
0.5642114681365614
 40
0.5642114681365614
 40
0.5668242124148225
 40
0.5668242124148225
 40
0.5668242124148225
 40
0.5721496807474585
 40
0.5721496807474585
 40
0.5721496807474585
 40
0.5808755847195524
 40
0.5808755847195524
 40
0.5808755847195524
 40
0.6123483344429219
 40
0.6123483344429219
 40
0.6123483344429219
 40
0.6735472353525751
 40
0.6735472353525751
 40
0.6735472353525751
 40
0.710266384229971
 40
0.710266384229971
 40
0.710266384229971
 40
0.7443667489761183
 40
0.7443667489761183
 40
0.7443667489761183
 40
0.7767242811321831
 40
0.7767242811321831
 40
0.7767242811321831
 40
0.8090881676763618
 40
0.8090881676763618
 40
0.8090881676763618
 40
0.8362042590684329
 40
0.8362042590684329
 40
0.8362042590684329
 40
0.8746886189452308
 40
0.8746886189452308
 40
0.8746886189452308
 40
0.9035525546028909
 40
0.9035525546028909
 40
0.9035525546028909
 40
0.9359150777377913
 40
0.9359150777377913
 40
0.9359150777377913
 40
0.9700264298506113
 40
0.9700264298506113
 40
0.9700264298506113
 40
0.9822715623682664
 40
0.9822715623682664
 40
0.9822715623682664
 40
0.99101823393157
 40
0.99101823393157
 40
0.99101823393157
 40
1.0
 40
1.0
 40
1.0
 40
1.0
 10
70.0
 20
22.352941176470612
 30
0.0
 10
69.99962964425181
 20
22.34494103659798
 30
0.0
 10
69.99916980127341
 20
22.345181991741413
 30
0.0
 10
69.99862047106483
 20
22.353664041900906
 30
0.0
 10
69.99619285898274
 20
22.397424126668636
 30
0.0
 10
69.99405329050363
 20
22.461701380945062
 30
0.0
 10
69.98870835603508
 20
22.506769490647596
 30
0.0
 10
69.98329324165319
 20
22.55328593566265
 30
0.0
 10
69.97532462245297
 20
22.592261984763695
 30
0.0
 10
69.96480249843442
 20
22.6236976379507
 30
0.0
 10
69.93865012786713
 20
22.71249073169805
 30
0.0
 10
69.91091724610153
 20
22.830559809743903
 30
0.0
 10
69.87849201002045
 20
22.940596725380207
 30
0.0
 10
69.82693136552027
 20
23.117547117689433
 30
0.0
 10
69.75829304847048
 20
23.27507085924803
 30
0.0
 10
69.68012289541142
 20
23.431802229211424
 30
0.0
 10
69.47520750516614
 20
23.849716653738977
 30
0.0
 10
69.2003840342034
 20
24.234546337188988
 30
0.0
 10
68.86711102553872
 20
24.556652890753835
 30
0.0
 10
68.27231868531732
 20
25.14090043654528
 30
0.0
 10
67.47723607344724
 20
25.52230970166845
 30
0.0
 10
66.64462322693464
 20
25.59563515311835
 30
0.0
 10
65.7481805913296
 20
25.68036370291328
 30
0.0
 10
64.83238146990342
 20
25.41627515494121
 30
0.0
 10
64.09847181370466
 20
24.899952322500305
 30
0.0
 10
63.33638268348843
 20
24.369003830647753
 30
0.0
 10
62.758945837519725
 20
23.561036207380962
 30
0.0
 10
62.55575792633642
 20
22.649734844172766
 30
0.0
 10
62.47814940402958
 20
22.30267897940469
 30
0.0
 10
62.453576685608354
 20
21.951929066599476
 30
0.0
 10
62.48203977107267
 20
21.597485105757094
 30
0.0
 10
62.51741545763242
 20
21.14917295620353
 30
0.0
 10
62.63777078694702
 20
20.710357449838252
 30
0.0
 10
62.816664112495246
 20
20.298870002080967
 30
0.0
 10
63.196757256184284
 20
19.42867040837178
 30
0.0
 10
63.812346962867764
 20
18.687660202086494
 30
0.0
 10
64.474727776879
 20
18.01850585780918
 30
0.0
 10
65.73037602829987
 20
16.758446176393647
 30
0.0
 10
67.18674907503969
 20
15.718921194466075
 30
0.0
 10
68.43470012022875
 20
14.450695918305756
 30
0.0
 10
68.69389998709512
 20
14.188395428437843
 30
0.0
 10
68.93842145276966
 20
13.913232119216469
 30
0.0
 10
69.16826451725245
 20
13.62520599064165
 30
0.0
 10
69.31784031337655
 20
13.437220575093912
 30
0.0
 10
69.4561268973143
 20
13.240514666538726
 30
0.0
 10
69.58312426906564
 20
13.035088264976105
 30
0.0
 10
69.67527723375655
 20
12.883598662448732
 30
0.0
 10
69.760492114821
 20
12.734886788701903
 30
0.0
 10
69.83235175670922
 20
12.572708989729081
 30
0.0
 10
69.8676458179165
 20
12.492647745655901
 30
0.0
 10
69.90137767027313
 20
12.401132949516569
 30
0.0
 10
69.92823503053945
 20
12.31786401669538
 30
0.0
 10
69.95488681988971
 20
12.230581158143714
 30
0.0
 10
69.98204777194454
 20
12.175997175900639
 30
0.0
 10
69.99339159059356
 20
12.072688117329308
 30
0.0
 10
69.9949740244214
 20
12.057829908146001
 30
0.0
 10
69.99610062842925
 20
12.044375545780069
 30
0.0
 10
69.99677140261687
 20
12.032325030231434
 30
0.0
 10
69.9976121105273
 20
12.019408113932599
 30
0.0
 10
69.9986383268752
 20
12.001775675097688
 30
0.0
 10
69.99990504868182
 20
12.000043867979167
 30
0.0
 10
70.00005885705255
 20
12.000241276516833
 30
0.0
 10
70.00021266542342
 20
12.00043868505452
 30
0.0
 10
70.00036647379416
 20
12.000636093592183
 30
0.0
 10
70.00192628967919
 20
12.006826485953162
 30
0.0
 10
70.00298103399392
 20
12.033107511956972
 30
0.0
 10
70.00505223993082
 20
12.056053835055417
 30
0.0
 10
70.0070984007352
 20
12.08013045790003
 30
0.0
 10
70.0098637329261
 20
12.101809786493622
 30
0.0
 10
70.01334823650348
 20
12.121091820836195
 30
0.0
 10
70.02054753452506
 20
12.16010433930038
 30
0.0
 10
70.0282691085348
 20
12.184602596049963
 30
0.0
 10
70.04068406373293
 20
12.222747503069996
 30
0.0
 10
70.06676541941079
 20
12.303661897299728
 30
0.0
 10
70.09887468953106
 20
12.403750877907731
 30
0.0
 10
70.13551960709866
 20
12.495959928972995
 30
0.0
 10
70.19706645819436
 20
12.645123093345184
 30
0.0
 10
70.26871341407956
 20
12.787834574253603
 30
0.0
 10
70.35046047475397
 20
12.92409437169823
 30
0.0
 10
70.64125285517187
 20
13.424625497184362
 30
0.0
 10
71.0140333862129
 20
13.869049070917724
 30
0.0
 10
71.40881473954038
 20
14.288203353448225
 30
0.0
 10
72.18165586401658
 20
15.101501285472297
 30
0.0
 10
73.05018274933879
 20
15.814476335566484
 30
0.0
 10
73.90081418917045
 20
16.543179536767294
 30
0.0
 10
74.41178668986568
 20
16.980181169500213
 30
0.0
 10
74.9197518954194
 20
17.421661986104752
 30
0.0
 10
75.39945521287852
 20
17.893265641549036
 30
0.0
 10
75.84413394484999
 20
18.331243404789145
 30
0.0
 10
76.2659249162847
 20
18.7958629118321
 30
0.0
 10
76.62329298774448
 20
19.308933238019964
 30
0.0
 10
76.96140712941934
 20
19.794778529227475
 30
0.0
 10
77.24070823962944
 20
20.328291873287146
 30
0.0
 10
77.39590146928504
 20
20.90198014424291
 30
0.0
 10
77.55257595032737
 20
21.47394493098815
 30
0.0
 10
77.57559623375205
 20
22.085028526318805
 30
0.0
 10
77.4409910892439
 20
22.664029931316566
 30
0.0
 10
77.32990307425763
 20
23.149098721472733
 30
0.0
 10
77.1133309925641
 20
23.6082941101756
 30
0.0
 10
76.81798284238285
 20
24.008100755213533
 30
0.0
 10
76.39901501133131
 20
24.5762880179725
 30
0.0
 10
75.82428979105079
 20
25.027156652614543
 30
0.0
 10
75.17500661791517
 20
25.303447847360506
 30
0.0
 10
74.68831237365204
 20
25.51099540616348
 30
0.0
 10
74.15846784761192
 20
25.61943040559754
 30
0.0
 10
73.62895364739957
 20
25.610436443536095
 30
0.0
 10
73.03535664765596
 20
25.60183818477624
 30
0.0
 10
72.44512602765974
 20
25.44197100005236
 30
0.0
 10
71.92768491368017
 20
25.15138096140023
 30
0.0
 10
71.38119207938422
 20
24.84619412856877
 30
0.0
 10
70.9167324738023
 20
24.401355705287283
 30
0.0
 10
70.57417641116179
 20
23.87907178253056
 30
0.0
 10
70.45071859953437
 20
23.691150744406624
 30
0.0
 10
70.34367976793179
 20
23.494303133487662
 30
0.0
 10
70.25305991635398
 20
23.288528949773717
 30
0.0
 10
70.18827817474646
 20
23.14169828917294
 30
0.0
 10
70.1336891382595
 20
22.99122782698767
 30
0.0
 10
70.08929280689283
 20
22.837117563217838
 30
0.0
 10
70.0453583285455
 20
22.678965043049164
 30
0.0
 10
70.00713701259673
 20
22.517472345657062
 30
0.0
 10
70.00000000000001
 20
22.352941176470612
 30
0.0
  0
SPLINE
  5
32
330
17
100
AcDbEntity
  8
CUT
100
AcDbSpline
 70
0
 71
3
 72
149
 73
145
 74
0
 40
0.0
 40
0.0
 40
0.0
 40
0.0
 40
0.0006592971875940754
 40
0.0006592971875940754
 40
0.0006592971875940754
 40
0.003992575904525019
 40
0.003992575904525019
 40
0.003992575904525019
 40
0.007325854621455962
 40
0.007325854621455962
 40
0.007325854621455962
 40
0.015208620905859518
 40
0.015208620905859518
 40
0.015208620905859518
 40
0.02708216624686325
 40
0.02708216624686325
 40
0.02708216624686325
 40
0.03884848087923292
 40
0.03884848087923292
 40
0.03884848087923292
 40
0.06338999421307277
 40
0.06338999421307277
 40
0.06338999421307277
 40
0.09752536178394314
 40
0.09752536178394314
 40
0.09752536178394314
 40
0.1252607531539672
 40
0.1252607531539672
 40
0.1252607531539672
 40
0.1924627915781087
 40
0.1924627915781087
 40
0.1924627915781087
 40
0.22339692069515138
 40
0.22339692069515138
 40
0.22339692069515138
 40
0.251132125171919
 40
0.251132125171919
 40
0.251132125171919
 40
0.28099998188420744
 40
0.28099998188420744
 40
0.28099998188420744
 40
0.31300162591992947
 40
0.31300162591992947
 40
0.31300162591992947
 40
0.3513996709390065
 40
0.3513996709390065
 40
0.3513996709390065
 40
0.38126006343237245
 40
0.38126006343237245
 40
0.38126006343237245
 40
0.44737689662399166
 40
0.44737689662399166
 40
0.44737689662399166
 40
0.4772365846383553
 40
0.4772365846383553
 40
0.4772365846383553
 40
0.5028305715360607
 40
0.5028305715360607
 40
0.5028305715360607
 40
0.5102954843559198
 40
0.5102954843559198
 40
0.5102954843559198
 40
0.522020264902222
 40
0.522020264902222
 40
0.522020264902222
 40
0.5276840158856551
 40
0.5276840158856551
 40
0.5276840158856551
 40
0.5305158913773715
 40
0.5305158913773715
 40
0.5305158913773715
 40
0.533347766869088
 40
0.533347766869088
 40
0.533347766869088
 40
0.5340728405884867
 40
0.5340728405884867
 40
0.5340728405884867
 40
0.5347979143078855
 40
0.5347979143078855
 40
0.5347979143078855
 40
0.5348833277178652
 40
0.5348833277178652
 40
0.5348833277178652
 40
0.5354523397747373
 40
0.5354523397747373
 40
0.5354523397747373
 40
0.5360213518316095
 40
0.5360213518316095
 40
0.5360213518316095
 40
0.5395319921206199
 40
0.5395319921206199
 40
0.5395319921206199
 40
0.5451970615612677
 40
0.5451970615612677
 40
0.5451970615612677
 40
0.5544742741097562
 40
0.5544742741097562
 40
0.5544742741097562
 40
0.5646970462975217
 40
0.5646970462975217
 40
0.5646970462975217
 40
0.6027996768945827
 40
0.6027996768945827
 40
0.6027996768945827
 40
0.6306803035946088
 40
0.6306803035946088
 40
0.6306803035946088
 40
0.689228985327201
 40
0.689228985327201
 40
0.689228985327201
 40
0.7180419190353643
 40
0.7180419190353643
 40
0.7180419190353643
 40
0.7505738074108522
 40
0.7505738074108522
 40
0.7505738074108522
 40
0.7821833766870432
 40
0.7821833766870432
 40
0.7821833766870432
 40
0.8072889265025808
 40
0.8072889265025808
 40
0.8072889265025808
 40
0.8379715015365411
 40
0.8379715015365411
 40
0.8379715015365411
 40
0.8742305091587913
 40
0.8742305091587913
 40
0.8742305091587913
 40
0.9067719920384522
 40
0.9067719920384522
 40
0.9067719920384522
 40
0.9402428016033486
 40
0.9402428016033486
 40
0.9402428016033486
 40
0.9681351075541229
 40
0.9681351075541229
 40
0.9681351075541229
 40
0.9811515169968665
 40
0.9811515169968665
 40
0.9811515169968665
 40
0.9904490147600403
 40
0.9904490147600403
 40
0.9904490147600403
 40
1.0
 40
1.0
 40
1.0
 40
1.0
 10
221.5
 20
115.00000000000001
 30
0.0
 10
221.49922325708133
 20
114.98253907946533
 30
0.0
 10
221.49823863809615
 20
114.98337074064935
 30
0.0
 10
221.49704614304432
 20
115.00249498355201
 30
0.0
 10
221.49157241853035
 20
115.10183758121754
 30
0.0
 10
221.4873210929758
 20
115.22894765142303
 30
0.0
 10
221.47600664003346
 20
115.32774594136416
 30
0.0
 10
221.46514525124297
 20
115.42929980521761
 30
0.0
 10
221.44700779942298
 20
115.50383534629096
 30
0.0
 10
221.4256971128764
 20
115.57319314854732
 30
0.0
 10
221.37634731165025
 20
115.73789274875314
 30
0.0
 10
221.31503913091598
 20
115.99948669207373
 30
0.0
 10
221.2417947580316
 20
116.24892820118151
 30
0.0
 10
221.1322323150302
 20
116.62463801492783
 30
0.0
 10
220.98637102615317
 20
116.9596177953877
 30
0.0
 10
220.82025868771333
 20
117.29254077092752
 30
0.0
 10
220.65561559304976
 20
117.62612473542933
 30
0.0
 10
220.4697794694588
 20
117.95172233808076
 30
0.0
 10
220.26275031694084
 20
118.2693335788821
 30
0.0
 10
219.83138918857236
 20
118.92433368829946
 30
0.0
 10
219.30971874887507
 20
119.51533272747557
 30
0.0
 10
218.71566408177011
 20
120.0279527652381
 30
0.0
 10
217.88994123450394
 20
120.7398456635042
 30
0.0
 10
216.91756729635026
 20
121.2829266271156
 30
0.0
 10
215.8726915930289
 20
121.59774309220263
 30
0.0
 10
215.02437375815208
 20
121.85439615267506
 30
0.0
 10
214.13114984381275
 20
121.95997382191477
 30
0.0
 10
213.2462671815051
 20
121.91209761043517
 30
0.0
 10
211.0970605120543
 20
121.80053841094929
 30
0.0
 10
209.02692761792477
 20
120.78531381073503
 30
0.0
 10
207.57705603850783
 20
119.20285807459956
 30
0.0
 10
206.9084263408252
 20
118.47546725302983
 30
0.0
 10
206.36870731258728
 20
117.6270924395269
 30
0.0
 10
206.0099275903279
 20
116.7054209098473
 30
0.0
 10
205.68707197581938
 20
115.87983286907253
 30
0.0
 10
205.51322873497784
 20
114.99631403023018
 30
0.0
 10
205.5008105569962
 20
114.10983434666036
 30
0.0
 10
205.48613450652454
 20
113.15472621500719
 30
0.0
 10
205.65901133354765
 20
112.20085366289634
 30
0.0
 10
205.9745733842272
 20
111.30127547737835
 30
0.0
 10
206.3118386505263
 20
110.33516076503525
 30
0.0
 10
206.80640752807142
 20
109.43059714425792
 30
0.0
 10
207.3850947267252
 20
108.5898869435192
 30
0.0
 10
208.08105950188093
 20
107.58020156880737
 30
0.0
 10
208.89637927161272
 20
106.6586186853307
 30
0.0
 10
209.7587962702534
 20
105.78932491827936
 30
0.0
 10
210.43017219362
 20
105.11317092338824
 30
0.0
 10
211.13214719747762
 20
104.46814068184896
 30
0.0
 10
211.84581591189823
 20
103.83714734957351
 30
0.0
 10
213.4266128756178
 20
102.440291876345
 30
0.0
 10
215.0674985567047
 20
101.11262789188325
 30
0.0
 10
216.62711759095896
 20
99.691573041081
 30
0.0
 10
217.33089971525487
 20
99.04957045107673
 30
0.0
 10
218.0184560598505
 20
98.38913263752632
 30
0.0
 10
218.66721647204218
 20
97.69073594403741
 30
0.0
 10
219.22255058154883
 20
97.09112822277729
 30
0.0
 10
219.7509331345398
 20
96.46827698565485
 30
0.0
 10
220.22072801517942
 20
95.79874174828595
 30
0.0
 10
220.35784098398528
 20
95.6028807919443
 30
0.0
 10
220.48897534564748
 20
95.40313445299479
 30
0.0
 10
220.61413110016656
 20
95.19950273143786
 30
0.0
 10
220.8099987945541
 20
94.87828110943094
 30
0.0
 10
220.99097046855525
 20
94.56017633584352
 30
0.0
 10
221.14383819855667
 20
94.2187634486765
 30
0.0
 10
221.2178241999647
 20
94.05021480724469
 30
0.0
 10
221.29087593634475
 20
93.84988619687238
 30
0.0
 10
221.3477739276304
 20
93.67500611135986
 30
0.0
 10
221.376746019203
 20
93.58770118004607
 30
0.0
 10
221.40359982441635
 20
93.5049459230876
 30
0.0
 10
221.42833534327016
 20
93.42674034048439
 30
0.0
 10
221.45277744124274
 20
93.34614212449837
 30
0.0
 10
221.47471106977034
 20
93.26833240056145
 30
0.0
 10
221.48600193803694
 20
93.14721706087782
 30
0.0
 10
221.4889013002434
 20
93.11650057797755
 30
0.0
 10
221.4911345752269
 20
93.09743491381576
 30
0.0
 10
221.49314817098707
 20
93.0691832509355
 30
0.0
 10
221.49518742813177
 20
93.04314351996653
 30
0.0
 10
221.49702543573164
 20
93.00490298980976
 30
0.0
 10
221.49979853554365
 20
93.00012767116358
 30
0.0
 10
221.50012519862003
 20
93.00054954268782
 30
0.0
 10
221.50045186169618
 20
93.00097141421199
 30
0.0
 10
221.50077852477253
 20
93.0013932857362
 30
0.0
 10
221.50289690449426
 20
93.0099304613509
 30
0.0
 10
221.50440597647253
 20
93.03470998799907
 30
0.0
 10
221.5060134220637
 20
93.05639172848616
 30
0.0
 10
221.5077533047702
 20
93.0784012240858
 30
0.0
 10
221.50949318747658
 20
93.10041071968534
 30
0.0
 10
221.51123307018318
 20
93.12242021528498
 30
0.0
 10
221.52223662678875
 20
93.26610310436519
 30
0.0
 10
221.55117606911048
 20
93.36803003141551
 30
0.0
 10
221.58645703294826
 20
93.47317069789489
 30
0.0
 10
221.64188262176722
 20
93.64540085770356
 30
0.0
 10
221.71010204499967
 20
93.85791213262648
 30
0.0
 10
221.78797536754482
 20
94.05396133123338
 30
0.0
 10
221.91545662112748
 20
94.37510859078266
 30
0.0
 10
222.0743280045818
 20
94.66989707069777
 30
0.0
 10
222.2447266967511
 20
94.96371521537154
 30
0.0
 10
222.43362552429357
 20
95.28757010228321
 30
0.0
 10
222.6374889633551
 20
95.60220773730555
 30
0.0
 10
222.85631701393555
 20
95.90762812043863
 30
0.0
 10
223.67301451376457
 20
97.04037205745195
 30
0.0
 10
224.64082894892334
 20
98.05425521725049
 30
0.0
 10
225.648587172197
 20
99.01721302000072
 30
0.0
 10
226.38773840185604
 20
99.72127329767793
 30
0.0
 10
227.1534074003446
 20
100.3969118580985
 30
0.0
 10
227.9264006793099
 20
101.06339874953547
 30
0.0
 10
229.54894326564659
 20
102.46333234294411
 30
0.0
 10
231.21145240653948
 20
103.82008650410664
 30
0.0
 10
232.75459803959828
 20
105.30937019116779
 30
0.0
 10
233.51259326146024
 20
106.0426803788942
 30
0.0
 10
234.241006427014
 20
106.80886666321815
 30
0.0
 10
234.90118364584632
 20
107.63240747910858
 30
0.0
 10
235.64526894934806
 20
108.56123169097346
 30
0.0
 10
236.30476496833307
 20
109.56745367860168
 30
0.0
 10
236.77693486079446
 20
110.66367669602371
 30
0.0
 10
237.23618310011105
 20
111.72594168687368
 30
0.0
 10
237.5074566216487
 20
112.87793206551704
 30
0.0
 10
237.4998994274678
 20
114.03872176243537
 30
0.0
 10
237.4958478737918
 20
114.95937776477167
 30
0.0
 10
237.317557809011
 20
115.87848272241294
 30
0.0
 10
236.97870094964264
 20
116.7344260969701
 30
0.0
 10
236.5661227457199
 20
117.78171967657379
 30
0.0
 10
235.9200268439536
 20
118.73239083814227
 30
0.0
 10
235.11682668208417
 20
119.51899710665268
 30
0.0
 10
234.16778465377837
 20
120.44943267903196
 30
0.0
 10
232.9983714815498
 20
121.15486683865078
 30
0.0
 10
231.72985822737337
 20
121.5528387467618
 30
0.0
 10
230.59245135958682
 20
121.91113230724936
 30
0.0
 10
229.3734465236951
 20
122.01682408787481
 30
0.0
 10
228.1932948488966
 20
121.83765358046635
 30
0.0
 10
226.97898302282934
 20
121.65668248523981
 30
0.0
 10
225.8140970788881
 20
121.17203986906512
 30
0.0
 10
224.82135369496189
 20
120.45192872741997
 30
0.0
 10
223.99263794061577
 20
119.85307479548591
 30
0.0
 10
223.28059935179846
 20
119.09678683557773
 30
0.0
 10
222.72012489968887
 20
118.24302751362082
 30
0.0
 10
222.4577775491136
 20
117.84369796626926
 30
0.0
 10
222.2303200955954
 20
117.42539679462641
 30
0.0
 10
222.03775253913398
 20
116.98812399869207
 30
0.0
 10
221.90006838402317
 20
116.67610873365355
 30
0.0
 10
221.78408509653
 20
116.35635912043199
 30
0.0
 10
221.68980267665472
 20
116.02887515902759
 30
0.0
 10
221.59634262719692
 20
115.69281061127332
 30
0.0
 10
221.51518455017228
 20
115.3496175252769
 30
0.0
 10
221.49999999999997
 20
115.00000000000003
 30
0.0
  0
SPLINE
  5
33
330
17
100
AcDbEntity
  8
CUT
100
AcDbSpline
 70
0
 71
3
 72
149
 73
145
 74
0
 40
0.0
 40
0.0
 40
0.0
 40
0.0
 40
0.0006592971873703272
 40
0.0006592971873703272
 40
0.0006592971873703272
 40
0.003992575903903622
 40
0.003992575903903622
 40
0.003992575903903622
 40
0.007325854620436916
 40
0.007325854620436916
 40
0.007325854620436916
 40
0.015208620903886621
 40
0.015208620903886621
 40
0.015208620903886621
 40
0.027082166244151003
 40
0.027082166244151003
 40
0.027082166244151003
 40
0.038848480874840066
 40
0.038848480874840066
 40
0.038848480874840066
 40
0.06338999420620522
 40
0.06338999420620522
 40
0.06338999420620522
 40
0.09752536176995884
 40
0.09752536176995884
 40
0.09752536176995884
 40
0.1252607531324848
 40
0.1252607531324848
 40
0.1252607531324848
 40
0.1924627915377989
 40
0.1924627915377989
 40
0.1924627915377989
 40
0.22339692064419786
 40
0.22339692064419786
 40
0.22339692064419786
 40
0.2511321251105444
 40
0.2511321251105444
 40
0.2511321251105444
 40
0.28099998180853003
 40
0.28099998180853003
 40
0.28099998180853003
 40
0.31300162582696545
 40
0.31300162582696545
 40
0.31300162582696545
 40
0.35139967083227597
 40
0.35139967083227597
 40
0.35139967083227597
 40
0.38126006331530404
 40
0.38126006331530404
 40
0.38126006331530404
 40
0.4473768964856486
 40
0.4473768964856486
 40
0.4473768964856486
 40
0.47723658449067236
 40
0.47723658449067236
 40
0.47723658449067236
 40
0.5028305713804132
 40
0.5028305713804132
 40
0.5028305713804132
 40
0.5102954841979588
 40
0.5102954841979588
 40
0.5102954841979588
 40
0.5220202647407759
 40
0.5220202647407759
 40
0.5220202647407759
 40
0.5276840157230575
 40
0.5276840157230575
 40
0.5276840157230575
 40
0.5305158912141983
 40
0.5305158912141983
 40
0.5305158912141983
 40
0.533347766705339
 40
0.533347766705339
 40
0.533347766705339
 40
0.5340728404245492
 40
0.5340728404245492
 40
0.5340728404245492
 40
0.5347979141437592
 40
0.5347979141437592
 40
0.5347979141437592
 40
0.534883327553707
 40
0.534883327553707
 40
0.534883327553707
 40
0.5354523396107689
 40
0.5354523396107689
 40
0.5354523396107689
 40
0.5360213516678307
 40
0.5360213516678307
 40
0.5360213516678307
 40
0.539531991958027
 40
0.539531991958027
 40
0.539531991958027
 40
0.5451970614005825
 40
0.5451970614005825
 40
0.5451970614005825
 40
0.5544742739523152
 40
0.5544742739523152
 40
0.5544742739523152
 40
0.564697046143331
 40
0.564697046143331
 40
0.564697046143331
 40
0.6027996767537044
 40
0.6027996767537044
 40
0.6027996767537044
 40
0.6306803034627194
 40
0.6306803034627194
 40
0.6306803034627194
 40
0.689228985210666
 40
0.689228985210666
 40
0.689228985210666
 40
0.7180419189300686
 40
0.7180419189300686
 40
0.7180419189300686
 40
0.7505738073196617
 40
0.7505738073196617
 40
0.7505738073196617
 40
0.7821833766102042
 40
0.7821833766102042
 40
0.7821833766102042
 40
0.8072889264371359
 40
0.8072889264371359
 40
0.8072889264371359
 40
0.8379715014850778
 40
0.8379715014850778
 40
0.8379715014850778
 40
0.8742305091223745
 40
0.8742305091223745
 40
0.8742305091223745
 40
0.906771992014091
 40
0.906771992014091
 40
0.906771992014091
 40
0.9402428015894836
 40
0.9402428015894836
 40
0.9402428015894836
 40
0.968135107546726
 40
0.968135107546726
 40
0.968135107546726
 40
0.9811515169924844
 40
0.9811515169924844
 40
0.9811515169924844
 40
0.9904490147578187
 40
0.9904490147578187
 40
0.9904490147578187
 40
1.0
 40
1.0
 40
1.0
 40
1.0
 10
221.5
 20
170.00000000000003
 30
0.0
 10
221.49922325708133
 20
169.982539079466
 30
0.0
 10
221.49823863809615
 20
169.98337074064992
 30
0.0
 10
221.49704614304432
 20
170.0024949835517
 30
0.0
 10
221.49157241853018
 20
170.1018375812175
 30
0.0
 10
221.4873210929759
 20
170.22894765142294
 30
0.0
 10
221.47600664003357
 20
170.32774594136416
 30
0.0
 10
221.46514525124297
 20
170.42929980521748
 30
0.0
 10
221.44700779942306
 20
170.50383534629097
 30
0.0
 10
221.42569711287643
 20
170.57319314854743
 30
0.0
 10
221.37634731165068
 20
170.73789274875193
 30
0.0
 10
221.31503913091512
 20
170.99948669207666
 30
0.0
 10
221.24179475803277
 20
171.24892820117782
 30
0.0
 10
221.1322323150284
 20
171.62463801493288
 30
0.0
 10
220.98637102615598
 20
171.9596177953812
 30
0.0
 10
220.82025868771035
 20
172.2925407709339
 30
0.0
 10
220.65561559304945
 20
172.62612473543086
 30
0.0
 10
220.4697794694601
 20
172.95172233807867
 30
0.0
 10
220.26275031694195
 20
173.26933357887702
 30
0.0
 10
219.83138918856878
 20
173.92433368830928
 30
0.0
 10
219.3097187488695
 20
174.51533272747938
 30
0.0
 10
218.71566408177023
 20
175.0279527652381
 30
0.0
 10
217.8899412346365
 20
175.73984566340107
 30
0.0
 10
216.9175672964119
 20
176.2829266271063
 30
0.0
 10
215.87269159302892
 20
176.5977430922026
 30
0.0
 10
215.02437375815077
 20
176.8543961526742
 30
0.0
 10
214.131149843819
 20
176.95997382191604
 30
0.0
 10
213.24626718150134
 20
176.91209761043407
 30
0.0
 10
211.09706051196088
 20
176.80053841090722
 30
0.0
 10
209.02692761806213
 20
175.7853138108145
 30
0.0
 10
207.57705603850653
 20
174.20285807459842
 30
0.0
 10
206.90842634082463
 20
173.47546725302786
 30
0.0
 10
206.36870731258546
 20
172.62709243952514
 30
0.0
 10
206.0099275903271
 20
171.70542090984495
 30
0.0
 10
205.68707197582017
 20
170.87983286907533
 30
0.0
 10
205.51322873497753
 20
169.99631403022852
 30
0.0
 10
205.5008105569962
 20
169.10983434666042
 30
0.0
 10
205.48613450652428
 20
168.15472621512515
 30
0.0
 10
205.659011333512
 20
167.20085366299165
 30
0.0
 10
205.97457338422726
 20
166.3012754773784
 30
0.0
 10
206.3118386505324
 20
165.33516076501093
 30
0.0
 10
206.8064075281151
 20
164.43059714419115
 30
0.0
 10
207.38509472671913
 20
163.5898869435283
 30
0.0
 10
208.08105950188656
 20
162.58020156879823
 30
0.0
 10
208.89637927160362
 20
161.65861868534327
 30
0.0
 10
209.7587962702517
 20
160.78932491828022
 30
0.0
 10
210.43017219362252
 20
160.1131709233866
 30
0.0
 10
211.13214719747972
 20
159.46814068184662
 30
0.0
 10
211.84581591189698
 20
158.83714734957462
 30
0.0
 10
213.4266128756165
 20
157.44029187634592
 30
0.0
 10
215.06749855670418
 20
156.11262789188353
 30
0.0
 10
216.62711759095868
 20
154.69157304108134
 30
0.0
 10
217.33089971525865
 20
154.0495704510733
 30
0.0
 10
218.0184560598506
 20
153.38913263752605
 30
0.0
 10
218.66721647204216
 20
152.69073594403739
 30
0.0
 10
219.22255058154926
 20
152.09112822277697
 30
0.0
 10
219.75093313453993
 20
151.46827698565434
 30
0.0
 10
220.2207280151794
 20
150.79874174828592
 30
0.0
 10
220.35784098398523
 20
150.6028807919442
 30
0.0
 10
220.4889753456475
 20
150.40313445299475
 30
0.0
 10
220.61413110016665
 20
150.19950273143812
 30
0.0
 10
220.80999879455305
 20
149.87828110943227
 30
0.0
 10
220.99097046855755
 20
149.56017633583954
 30
0.0
 10
221.14383819855394
 20
149.21876344868159
 30
0.0
 10
221.21782419996532
 20
149.0502148072433
 30
0.0
 10
221.29087593634418
 20
148.84988619687337
 30
0.0
 10
221.34777392763039
 20
148.6750061113598
 30
0.0
 10
221.37674601920358
 20
148.58770118004605
 30
0.0
 10
221.4035998244165
 20
148.50494592308746
 30
0.0
 10
221.42833534327013
 20
148.4267403404842
 30
0.0
 10
221.45277744124277
 20
148.34614212449847
 30
0.0
 10
221.47471106977076
 20
148.26833240056095
 30
0.0
 10
221.4860019380373
 20
148.14721706087673
 30
0.0
 10
221.48890130024358
 20
148.11650057797794
 30
0.0
 10
221.49113457522694
 20
148.09743491381556
 30
0.0
 10
221.49314817098693
 20
148.06918325093542
 30
0.0
 10
221.4951874281317
 20
148.04314351996643
 30
0.0
 10
221.49702543573167
 20
148.00490298980975
 30
0.0
 10
221.49979853554365
 20
148.0001276711636
 30
0.0
 10
221.50012519861977
 20
148.00054954268768
 30
0.0
 10
221.50045186169615
 20
148.00097141421188
 30
0.0
 10
221.5007785247723
 20
148.00139328573593
 30
0.0
 10
221.50289690449426
 20
148.00993046135096
 30
0.0
 10
221.50440597647258
 20
148.0347099879991
 30
0.0
 10
221.50601342206363
 20
148.0563917284862
 30
0.0
 10
221.50775330477
 20
148.07840122408575
 30
0.0
 10
221.5094931874767
 20
148.10041071968533
 30
0.0
 10
221.51123307018312
 20
148.1224202152849
 30
0.0
 10
221.52223662678873
 20
148.26610310436527
 30
0.0
 10
221.55117606911054
 20
148.36803003141551
 30
0.0
 10
221.58645703294826
 20
148.4731706978949
 30
0.0
 10
221.64188262176722
 20
148.64540085770335
 30
0.0
 10
221.71010204499999
 20
148.85791213262718
 30
0.0
 10
221.7879753675445
 20
149.0539613312327
 30
0.0
 10
221.91545662112827
 20
149.37510859078387
 30
0.0
 10
222.0743280045802
 20
149.669897070696
 30
0.0
 10
222.24472669675288
 20
149.96371521537333
 30
0.0
 10
222.43362552429423
 20
150.2875701022838
 30
0.0
 10
222.63748896335449
 20
150.60220773730492
 30
0.0
 10
222.8563170139335
 20
150.90762812043675
 30
0.0
 10
223.673014513766
 20
152.0403720574532
 30
0.0
 10
224.64082894892243
 20
153.0542552172494
 30
0.0
 10
225.64858717219687
 20
154.01721302000087
 30
0.0
 10
226.387738401829
 20
154.7212732976513
 30
0.0
 10
227.15340740030624
 20
155.3969118580662
 30
0.0
 10
227.92640067931558
 20
156.06339874953977
 30
0.0
 10
229.5489432656361
 20
157.46333234293854
 30
0.0
 10
231.21145240662642
 20
158.82008650417492
 30
0.0
 10
232.75459803958688
 20
160.30937019116607
 30
0.0
 10
233.51259326150725
 20
161.04268037893067
 30
0.0
 10
234.24100642702373
 20
161.8088666632375
 30
0.0
 10
234.9011836458463
 20
162.63240747910862
 30
0.0
 10
235.64526894937225
 20
163.56123169100542
 30
0.0
 10
236.3047649683443
 20
164.56745367862945
 30
0.0
 10
236.7769348607943
 20
165.66367669602363
 30
0.0
 10
237.23618310011136
 20
166.72594168687405
 30
0.0
 10
237.50745662164888
 20
167.87793206551785
 30
0.0
 10
237.49989942746782
 20
169.03872176243527
 30
0.0
 10
237.4958478737919
 20
169.95937776477174
 30
0.0
 10
237.31755780901148
 20
170.87848272241226
 30
0.0
 10
236.97870094964227
 20
171.73442609697008
 30
0.0
 10
236.5661227457252
 20
172.78171967656448
 30
0.0
 10
235.9200268439563
 20
173.7323908381395
 30
0.0
 10
235.11682668208448
 20
174.51899710665296
 30
0.0
 10
234.16778465382205
 20
175.4494326789894
 30
0.0
 10
232.99837148161345
 20
176.15486683863077
 30
0.0
 10
231.72985822737334
 20
176.55283874676175
 30
0.0
 10
230.59245135958756
 20
176.91113230724935
 30
0.0
 10
229.37344652369524
 20
177.01682408787474
 30
0.0
 10
228.1932948488969
 20
176.83765358046654
 30
0.0
 10
226.97898302291955
 20
176.65668248525012
 30
0.0
 10
225.81409707900403
 20
176.17203986913833
 30
0.0
 10
224.82135369496183
 20
175.45192872741995
 30
0.0
 10
223.99263794061582
 20
174.85307479548607
 30
0.0
 10
223.28059935179868
 20
174.09678683557783
 30
0.0
 10
222.7201248996888
 20
173.2430275136208
 30
0.0
 10
222.45777754911376
 20
172.84369796626922
 30
0.0
 10
222.2303200955953
 20
172.42539679462638
 30
0.0
 10
222.03775253913375
 20
171.98812399869206
 30
0.0
 10
221.90006838402306
 20
171.67610873365356
 30
0.0
 10
221.7840850965301
 20
171.35635912043205
 30
0.0
 10
221.68980267665543
 20
171.02887515902765
 30
0.0
 10
221.59634262719618
 20
170.69281061127313
 30
0.0
 10
221.5151845501725
 20
170.3496175252768
 30
0.0
 10
221.49999999999997
 20
170.00000000000003
 30
0.0
  0
SPLINE
  5
34
330
17
100
AcDbEntity
  8
CUT
100
AcDbSpline
 70
0
 71
3
 72
125
 73
121
 74
0
 40
0.0
 40
0.0
 40
0.0
 40
0.0
 40
0.0005266961195905934
 40
0.0005266961195905934
 40
0.0005266961195905934
 40
0.003525199489641038
 40
0.003525199489641038
 40
0.003525199489641038
 40
0.006523702859691482
 40
0.006523702859691482
 40
0.006523702859691482
 40
0.014283897339578654
 40
0.014283897339578654
 40
0.014283897339578654
 40
0.026623476955012524
 40
0.026623476955012524
 40
0.026623476955012524
 40
0.05916070197443849
 40
0.05916070197443849
 40
0.05916070197443849
 40
0.11754254065461814
 40
0.11754254065461814
 40
0.11754254065461814
 40
0.18041838720742662
 40
0.18041838720742662
 40
0.18041838720742662
 40
0.24554180876121573
 40
0.24554180876121573
 40
0.24554180876121573
 40
0.27024556141857786
 40
0.27024556141857786
 40
0.27024556141857786
 40
0.3016855114530659
 40
0.3016855114530659
 40
0.3016855114530659
 40
0.3679185533143025
 40
0.3679185533143025
 40
0.3679185533143025
 40
0.49249890341911623
 40
0.49249890341911623
 40
0.49249890341911623
 40
0.5183119106986753
 40
0.5183119106986753
 40
0.5183119106986753
 40
0.5351398746086187
 40
0.5351398746086187
 40
0.5351398746086187
 40
0.5474789059223077
 40
0.5474789059223077
 40
0.5474789059223077
 40
0.5534995385265238
 40
0.5534995385265238
 40
0.5534995385265238
 40
0.5595201711307397
 40
0.5595201711307397
 40
0.5595201711307397
 40
0.5604986129727767
 40
0.5604986129727767
 40
0.5604986129727767
 40
0.5614770548148137
 40
0.5614770548148137
 40
0.5614770548148137
 40
0.5615987239501946
 40
0.5615987239501946
 40
0.5615987239501946
 40
0.5629050960891259
 40
0.5629050960891259
 40
0.5629050960891259
 40
0.5642114682280571
 40
0.5642114682280571
 40
0.5642114682280571
 40
0.5668242125059196
 40
0.5668242125059196
 40
0.5668242125059196
 40
0.5721496808376979
 40
0.5721496808376979
 40
0.5721496808376979
 40
0.580875584808391
 40
0.580875584808391
 40
0.580875584808391
 40
0.612348334525967
 40
0.612348334525967
 40
0.612348334525967
 40
0.6735472354215789
 40
0.6735472354215789
 40
0.6735472354215789
 40
0.7102663842905943
 40
0.7102663842905943
 40
0.7102663842905943
 40
0.7443667490287097
 40
0.7443667490287097
 40
0.7443667490287097
 40
0.776724281177774
 40
0.776724281177774
 40
0.776724281177774
 40
0.8090881677151961
 40
0.8090881677151961
 40
0.8090881677151961
 40
0.8362042591015849
 40
0.8362042591015849
 40
0.8362042591015849
 40
0.8746886189705134
 40
0.8746886189705134
 40
0.8746886189705134
 40
0.9035525546223383
 40
0.9035525546223383
 40
0.9035525546223383
 40
0.9359150777508368
 40
0.9359150777508368
 40
0.9359150777508368
 40
0.970026429856734
 40
0.970026429856734
 40
0.970026429856734
 40
0.982271562371894
 40
0.982271562371894
 40
0.982271562371894
 40
0.991018233933416
 40
0.991018233933416
 40
0.991018233933416
 40
1.0
 40
1.0
 40
1.0
 40
1.0
 10
250.0
 20
22.352941176470612
 30
0.0
 10
249.99962964425166
 20
22.34494103659752
 30
0.0
 10
249.9991698012734
 20
22.34518199174095
 30
0.0
 10
249.99862047106484
 20
22.3536640419009
 30
0.0
 10
249.99619285898262
 20
22.397424126668675
 30
0.0
 10
249.9940532905038
 20
22.461701380944977
 30
0.0
 10
249.9887083560351
 20
22.50676949064761
 30
0.0
 10
249.98329324165306
 20
22.55328593566266
 30
0.0
 10
249.9753246224531
 20
22.59226198476372
 30
0.0
 10
249.96480249843438
 20
22.62369763795068
 30
0.0
 10
249.9386501278671
 20
22.712490731698043
 30
0.0
 10
249.91091724610158
 20
22.830559809743896
 30
0.0
 10
249.87849201002035
 20
22.94059672538022
 30
0.0
 10
249.82693136552044
 20
23.117547117689448
 30
0.0
 10
249.75829304847045
 20
23.275070859248075
 30
0.0
 10
249.68012289541144
 20
23.431802229211424
 30
0.0
 10
249.47520750516037
 20
23.84971665374958
 30
0.0
 10
249.20038403419764
 20
24.23454633719451
 30
0.0
 10
248.86711102553872
 20
24.556652890753856
 30
0.0
 10
248.2723186853053
 20
25.140900436554453
 30
0.0
 10
247.47723607345785
 20
25.52230970166137
 30
0.0
 10
246.6446232269347
 20
25.595635153118348
 30
0.0
 10
245.74818059130877
 20
25.680363702910267
 30
0.0
 10
244.83238146992133
 20
25.416275154945513
 30
0.0
 10
244.09847181370466
 20
24.899952322500305
 30
0.0
 10
243.33638268355477
 20
24.369003830707623
 30
0.0
 10
242.758945837516
 20
23.56103620740515
 30
0.0
 10
242.55575792633644
 20
22.649734844172777
 30
0.0
 10
242.47814940402944
 20
22.302678979404618
 30
0.0
 10
242.45357668560848
 20
21.95192906659941
 30
0.0
 10
242.48203977107275
 20
21.59748510575709
 30
0.0
 10
242.51741545763934
 20
21.149172956152825
 30
0.0
 10
242.63777078695938
 20
20.710357449812193
 30
0.0
 10
242.8166641124953
 20
20.298870002080967
 30
0.0
 10
243.1967572561247
 20
19.428670408478276
 30
0.0
 10
243.812346962836
 20
18.68766020210675
 30
0.0
 10
244.47472777687904
 20
18.01850585780918
 30
0.0
 10
245.73037602831204
 20
16.758446176382634
 30
0.0
 10
247.18674907503055
 20
15.718921194474497
 30
0.0
 10
248.43470012022863
 20
14.450695918305769
 30
0.0
 10
248.6938999870883
 20
14.188395428445467
 30
0.0
 10
248.9384214527628
 20
13.913232119224098
 30
0.0
 10
249.16826451725245
 20
13.625205990641652
 30
0.0
 10
249.31784031337648
 20
13.437220575093944
 30
0.0
 10
249.45612689731425
 20
13.240514666538765
 30
0.0
 10
249.58312426906565
 20
13.035088264976116
 30
0.0
 10
249.67527723375656
 20
12.88359866244873
 30
0.0
 10
249.76049211482086
 20
12.734886788701917
 30
0.0
 10
249.83235175670916
 20
12.572708989729083
 30
0.0
 10
249.86764581791664
 20
12.492647745655772
 30
0.0
 10
249.90137767027278
 20
12.401132949516782
 30
0.0
 10
249.9282350305396
 20
12.317864016695324
 30
0.0
 10
249.95488681988962
 20
12.230581158143906
 30
0.0
 10
249.98204777194456
 20
12.175997175900495
 30
0.0
 10
249.99339159059355
 20
12.072688117329317
 30
0.0
 10
249.9949740244215
 20
12.05782990814606
 30
0.0
 10
249.9961006284292
 20
12.044375545780097
 30
0.0
 10
249.9967714026168
 20
12.03232503023145
 30
0.0
 10
249.99761211052737
 20
12.019408113932595
 30
0.0
 10
249.99863832687498
 20
12.001775675097699
 30
0.0
 10
249.99990504868174
 20
12.000043867979171
 30
0.0
 10
250.00005885705252
 20
12.000241276516835
 30
0.0
 10
250.0002126654234
 20
12.000438685054513
 30
0.0
 10
250.00036647379417
 20
12.000636093592183
 30
0.0
 10
250.00192628967918
 20
12.006826485953125
 30
0.0
 10
250.00298103399408
 20
12.033107511956981
 30
0.0
 10
250.00505223993088
 20
12.0560538350554
 30
0.0
 10
250.0070984007353
 20
12.080130457900001
 30
0.0
 10
250.0098637329261
 20
12.101809786493591
 30
0.0
 10
250.01334823650353
 20
12.12109182083618
 30
0.0
 10
250.02054753452504
 20
12.160104339300494
 30
0.0
 10
250.02826910853486
 20
12.1846025960498
 30
0.0
 10
250.0406840637329
 20
12.222747503069984
 30
0.0
 10
250.0667654194107
 20
12.303661897299705
 30
0.0
 10
250.09887468953096
 20
12.403750877907706
 30
0.0
 10
250.13551960709856
 20
12.495959928972981
 30
0.0
 10
250.19706645819429
 20
12.645123093345168
 30
0.0
 10
250.26871341407949
 20
12.787834574253585
 30
0.0
 10
250.35046047475393
 20
12.924094371698223
 30
0.0
 10
250.6412528551696
 20
13.424625497179536
 30
0.0
 10
251.01403338619494
 20
13.869049070897523
 30
0.0
 10
251.40881473954028
 20
14.288203353448216
 30
0.0
 10
252.18165586401534
 20
15.101501285471421
 30
0.0
 10
253.05018274934696
 20
15.814476335573312
 30
0.0
 10
253.90081418917043
 20
16.543179536767298
 30
0.0
 10
254.411786689869
 20
16.980181169503172
 30
0.0
 10
254.91975189542077
 20
17.421661986106194
 30
0.0
 10
255.39945521287848
 20
17.89326564154904
 30
0.0
 10
255.84413394484517
 20
18.331243404784978
 30
0.0
 10
256.265924916274
 20
18.795862911818343
 30
0.0
 10
256.6232929877445
 20
19.308933238019957
 30
0.0
 10
256.96140712943037
 20
19.794778529244986
 30
0.0
 10
257.24070823962967
 20
20.32829187329162
 30
0.0
 10
257.3959014692851
 20
20.90198014424291
 30
0.0
 10
257.55257595032737
 20
21.473944930986423
 30
0.0
 10
257.5755962337521
 20
22.085028526321018
 30
0.0
 10
257.4409910892439
 20
22.66402993131656
 30
0.0
 10
257.3299030742582
 20
23.14909872147072
 30
0.0
 10
257.1133309925636
 20
23.608294110177013
 30
0.0
 10
256.81798284238283
 20
24.008100755213544
 30
0.0
 10
256.399015011329
 20
24.576288017975134
 30
0.0
 10
255.82428979105023
 20
25.02715665261429
 30
0.0
 10
255.17500661791513
 20
25.303447847360477
 30
0.0
 10
254.6883123736524
 20
25.51099540616355
 30
0.0
 10
254.1584678476119
 20
25.61943040559749
 30
0.0
 10
253.6289536473996
 20
25.610436443536088
 30
0.0
 10
253.03535664765428
 20
25.60183818477671
 30
0.0
 10
252.44512602765403
 20
25.44197100004971
 30
0.0
 10
251.92768491368014
 20
25.151380961400235
 30
0.0
 10
251.3811920793848
 20
24.846194128569135
 30
0.0
 10
250.91673247380268
 20
24.401355705287767
 30
0.0
 10
250.57417641116177
 20
23.879071782530577
 30
0.0
 10
250.45071859953444
 20
23.691150744406634
 30
0.0
 10
250.34367976793183
 20
23.494303133487676
 30
0.0
 10
250.25305991635398
 20
23.28852894977373
 30
0.0
 10
250.18827817474636
 20
23.14169828917295
 30
0.0
 10
250.13368913825963
 20
22.991227826987682
 30
0.0
 10
250.0892928068928
 20
22.837117563217845
 30
0.0
 10
250.0453583285454
 20
22.67896504304919
 30
0.0
 10
250.0071370125968
 20
22.517472345657055
 30
0.0
 10
249.99999999999997
 20
22.352941176470612
 30
0.0
  0
SPLINE
  5
35
330
17
100
AcDbEntity
  8
CUT
100
AcDbSpline
 70
0
 71
3
 72
149
 73
145
 74
0
 40
0.0
 40
0.0
 40
0.0
 40
0.0
 40
0.0006592971871861883
 40
0.0006592971871861883
 40
0.0006592971871861883
 40
0.003992575903661222
 40
0.003992575903661222
 40
0.003992575903661222
 40
0.007325854620136255
 40
0.007325854620136255
 40
0.007325854620136255
 40
0.015208620903470544
 40
0.015208620903470544
 40
0.015208620903470544
 40
0.027082166242962766
 40
0.027082166242962766
 40
0.027082166242962766
 40
0.03884848087313138
 40
0.03884848087313138
 40
0.03884848087313138
 40
0.06338999420216554
 40
0.06338999420216554
 40
0.06338999420216554
 40
0.0975253617711934
 40
0.0975253617711934
 40
0.0975253617711934
 40
0.12526075314233506
 40
0.12526075314233506
 40
0.12526075314233506
 40
0.19246279156800022
 40
0.19246279156800022
 40
0.19246279156800022
 40
0.22339692068424755
 40
0.22339692068424755
 40
0.22339692068424755
 40
0.2511321251598028
 40
0.2511321251598028
 40
0.2511321251598028
 40
0.28099998187174097
 40
0.28099998187174097
 40
0.28099998187174097
 40
0.31300162590761393
 40
0.31300162590761393
 40
0.31300162590761393
 40
0.35139967092744484
 40
0.35139967092744484
 40
0.35139967092744484
 40
0.3812600634194816
 40
0.3812600634194816
 40
0.3812600634194816
 40
0.44737689659389923
 40
0.44737689659389923
 40
0.44737689659389923
 40
0.4772365846008418
 40
0.4772365846008418
 40
0.4772365846008418
 40
0.5028305714922773
 40
0.5028305714922773
 40
0.5028305714922773
 40
0.5102954843103094
 40
0.5102954843103094
 40
0.5102954843103094
 40
0.5220202648540134
 40
0.5220202648540134
 40
0.5220202648540134
 40
0.5276840158364222
 40
0.5276840158364222
 40
0.5276840158364222
 40
0.5305158913276266
 40
0.5305158913276266
 40
0.5305158913276266
 40
0.5333477668188309
 40
0.5333477668188309
 40
0.5333477668188309
 40
0.5340728405380575
 40
0.5340728405380575
 40
0.5340728405380575
 40
0.534797914257284
 40
0.534797914257284
 40
0.534797914257284
 40
0.5348833276672402
 40
0.5348833276672402
 40
0.5348833276672402
 40
0.535452339724187
 40
0.535452339724187
 40
0.535452339724187
 40
0.536021351781134
 40
0.536021351781134
 40
0.536021351781134
 40
0.5395319920705767
 40
0.5395319920705767
 40
0.5395319920705767
 40
0.5451970615119163
 40
0.5451970615119163
 40
0.5451970615119163
 40
0.5544742740615897
 40
0.5544742740615897
 40
0.5544742740615897
 40
0.5646970462505885
 40
0.5646970462505885
 40
0.5646970462505885
 40
0.6027996768527609
 40
0.6027996768527609
 40
0.6027996768527609
 40
0.6306803035559477
 40
0.6306803035559477
 40
0.6306803035559477
 40
0.6892289852952114
 40
0.6892289852952114
 40
0.6892289852952114
 40
0.7180419190066957
 40
0.7180419190066957
 40
0.7180419190066957
 40
0.7505738073867191
 40
0.7505738073867191
 40
0.7505738073867191
 40
0.7821833766682176
 40
0.7821833766682176
 40
0.7821833766682176
 40
0.8072889264879625
 40
0.8072889264879625
 40
0.8072889264879625
 40
0.8379715015272021
 40
0.8379715015272021
 40
0.8379715015272021
 40
0.8742305091541338
 40
0.8742305091541338
 40
0.8742305091541338
 40
0.9067719920367062
 40
0.9067719920367062
 40
0.9067719920367062
 40
0.9402428016032706
 40
0.9402428016032706
 40
0.9402428016032706
 40
0.968135107554078
 40
0.968135107554078
 40
0.968135107554078
 40
0.9811515169968319
 40
0.9811515169968319
 40
0.9811515169968319
 40
0.9904490147600183
 40
0.9904490147600183
 40
0.9904490147600183
 40
1.0
 40
1.0
 40
1.0
 40
1.0
 10
281.5
 20
123.00000000000003
 30
0.0
 10
281.49922325708053
 20
122.9825390794668
 30
0.0
 10
281.4982386380956
 20
122.98337074065068
 30
0.0
 10
281.4970461430445
 20
123.00249498355151
 30
0.0
 10
281.4915724185305
 20
123.10183758121772
 30
0.0
 10
281.48732109297583
 20
123.2289476514229
 30
0.0
 10
281.4760066400334
 20
123.32774594136421
 30
0.0
 10
281.4651452512432
 20
123.42929980521755
 30
0.0
 10
281.4470077994231
 20
123.50383534629103
 30
0.0
 10
281.4256971128763
 20
123.57319314854729
 30
0.0
 10
281.3763473116504
 20
123.73789274875338
 30
0.0
 10
281.3150391309159
 20
123.99948669207348
 30
0.0
 10
281.24179475803174
 20
124.24892820118178
 30
0.0
 10
281.1322323150299
 20
124.62463801492807
 30
0.0
 10
280.9863710261541
 20
124.95961779538675
 30
0.0
 10
280.82025868771206
 20
125.29254077092864
 30
0.0
 10
280.6556155930505
 20
125.62612473542819
 30
0.0
 10
280.46977946945935
 20
125.95172233808019
 30
0.0
 10
280.2627503169387
 20
126.26933357888439
 30
0.0
 10
279.83138918855553
 20
126.9243336883274
 30
0.0
 10
279.3097187488302
 20
127.51533272751772
 30
0.0
 10
278.7156640817703
 20
128.0279527652382
 30
0.0
 10
277.88994123440705
 20
128.73984566358945
 30
0.0
 10
276.9175672962076
 20
129.28292662716348
 30
0.0
 10
275.87269159302895
 20
129.59774309220268
 30
0.0
 10
275.02437375815026
 20
129.85439615267518
 30
0.0
 10
274.1311498438189
 20
129.95997382191413
 30
0.0
 10
273.2462671815007
 20
129.9120976104357
 30
0.0
 10
271.0970605119678
 20
129.8005384109102
 30
0.0
 10
269.02692761802876
 20
128.785313810794
 30
0.0
 10
267.5770560385056
 20
127.20285807459902
 30
0.0
 10
266.90842634081787
 20
126.47546725301977
 30
0.0
 10
266.3687073125733
 20
125.62709243950096
 30
0.0
 10
266.0099275903268
 20
124.70542090984398
 30
0.0
 10
265.6870719758202
 20
123.87983286907473
 30
0.0
 10
265.51322873497725
 20
122.99631403022705
 30
0.0
 10
265.5008105569963
 20
122.1098343466605
 30
0.0
 10
265.4861345065252
 20
121.15472621496995
 30
0.0
 10
265.6590113335559
 20
120.20085366287736
 30
0.0
 10
265.9745733842272
 20
119.30127547737835
 30
0.0
 10
266.3118386505249
 20
118.3351607650399
 30
0.0
 10
266.8064075280664
 20
117.43059714426654
 30
0.0
 10
267.3850947267246
 20
116.5898869435199
 30
0.0
 10
268.08105950187326
 20
115.58020156881709
 30
0.0
 10
268.89637927160607
 20
114.65861868533857
 30
0.0
 10
269.7587962702524
 20
113.78932491827968
 30
0.0
 10
270.43017219356307
 20
113.11317092344619
 30
0.0
 10
271.1321471973856
 20
112.4681406819303
 30
0.0
 10
271.84581591190323
 20
111.83714734956845
 30
0.0
 10
273.4266128756026
 20
110.4402918763597
 30
0.0
 10
275.067498556709
 20
109.11262789187842
 30
0.0
 10
276.6271175909586
 20
107.69157304108133
 30
0.0
 10
277.3308997152607
 20
107.04957045107132
 30
0.0
 10
278.0184560598532
 20
106.38913263752346
 30
0.0
 10
278.6672164720422
 20
105.69073594403736
 30
0.0
 10
279.2225505815488
 20
105.09112822277737
 30
0.0
 10
279.75093313453965
 20
104.46827698565495
 30
0.0
 10
280.22072801517953
 20
103.79874174828598
 30
0.0
 10
280.3578409839852
 20
103.6028807919438
 30
0.0
 10
280.48897534564736
 20
103.40313445299482
 30
0.0
 10
280.61413110016616
 20
103.19950273143884
 30
0.0
 10
280.8099987945542
 20
102.87828110943082
 30
0.0
 10
280.9909704685559
 20
102.56017633584237
 30
0.0
 10
281.1438381985557
 20
102.21876344867827
 30
0.0
 10
281.2178241999648
 20
102.05021480724396
 30
0.0
 10
281.2908759363443
 20
101.849886196873
 30
0.0
 10
281.34777392763056
 20
101.67500611135976
 30
0.0
 10
281.37674601920327
 20
101.58770118004605
 30
0.0
 10
281.4035998244165
 20
101.50494592308762
 30
0.0
 10
281.4283353432701
 20
101.42674034048433
 30
0.0
 10
281.4527774412424
 20
101.3461421244984
 30
0.0
 10
281.4747110697708
 20
101.26833240056057
 30
0.0
 10
281.4860019380372
 20
101.1472170608766
 30
0.0
 10
281.48890130024375
 20
101.1165005779779
 30
0.0
 10
281.49113457522657
 20
101.09743491381563
 30
0.0
 10
281.493148170987
 20
101.06918325093538
 30
0.0
 10
281.49518742813177
 20
101.04314351996662
 30
0.0
 10
281.4970254357316
 20
101.0049029898097
 30
0.0
 10
281.49979853554396
 20
101.00012767116358
 30
0.0
 10
281.50012519861974
 20
101.00054954268779
 30
0.0
 10
281.50045186169586
 20
101.00097141421192
 30
0.0
 10
281.5007785247717
 20
101.00139328573611
 30
0.0
 10
281.50289690449426
 20
101.00993046135088
 30
0.0
 10
281.5044059764723
 20
101.03470998799912
 30
0.0
 10
281.5060134220638
 20
101.05639172848618
 30
0.0
 10
281.5077533047702
 20
101.0784012240858
 30
0.0
 10
281.5094931874767
 20
101.10041071968548
 30
0.0
 10
281.51123307018315
 20
101.12242021528509
 30
0.0
 10
281.52223662678875
 20
101.26610310436514
 30
0.0
 10
281.5511760691105
 20
101.3680300314156
 30
0.0
 10
281.5864570329482
 20
101.4731706978949
 30
0.0
 10
281.6418826217669
 20
101.64540085770354
 30
0.0
 10
281.7101020449997
 20
101.85791213262665
 30
0.0
 10
281.7879753675447
 20
102.05396133123313
 30
0.0
 10
281.91545662112776
 20
102.37510859078299
 30
0.0
 10
282.0743280045813
 20
102.66989707069729
 30
0.0
 10
282.244726696752
 20
102.96371521537192
 30
0.0
 10
282.43362552429386
 20
103.28757010228338
 30
0.0
 10
282.6374889633547
 20
103.60220773730542
 30
0.0
 10
282.8563170139348
 20
103.90762812043802
 30
0.0
 10
283.67301451376585
 20
105.04037205745384
 30
0.0
 10
284.6408289489244
 20
106.0542552172502
 30
0.0
 10
285.64858717219664
 20
107.01721302000173
 30
0.0
 10
286.3877384018522
 20
107.7212732976727
 30
0.0
 10
287.1534074003354
 20
108.39691185809014
 30
0.0
 10
287.9264006793124
 20
109.06339874953849
 30
0.0
 10
289.54894326564664
 20
110.46333234294201
 30
0.0
 10
291.21145240653794
 20
111.82008650410869
 30
0.0
 10
292.7545980396025
 20
113.30937019116855
 30
0.0
 10
293.51259326146567
 20
114.04268037890314
 30
0.0
 10
294.24100642702024
 20
114.80886666322363
 30
0.0
 10
294.9011836458464
 20
115.63240747910858
 30
0.0
 10
295.64526894936364
 20
116.5612316909916
 30
0.0
 10
296.3047649683539
 20
117.56745367864549
 30
0.0
 10
296.7769348607944
 20
118.66367669602359
 30
0.0
 10
297.23618310011136
 20
119.72594168687371
 30
0.0
 10
297.5074566216488
 20
120.87793206551707
 30
0.0
 10
297.4998994274678
 20
122.03872176243536
 30
0.0
 10
297.49584787379297
 20
122.9593777647716
 30
0.0
 10
297.3175578090093
 20
123.8784827224123
 30
0.0
 10
296.9787009496442
 20
124.73442609697042
 30
0.0
 10
296.56612274572194
 20
125.78171967656253
 30
0.0
 10
295.9200268439596
 20
126.73239083813814
 30
0.0
 10
295.1168266820842
 20
127.51899710665303
 30
0.0
 10
294.16778465382424
 20
128.44943267898958
 30
0.0
 10
292.9983714816051
 20
129.15486683863398
 30
0.0
 10
291.72985822737337
 20
129.55283874676175
 30
0.0
 10
290.5924513595881
 20
129.9111323072493
 30
0.0
 10
289.373446523696
 20
130.01682408787477
 30
0.0
 10
288.1932948488966
 20
129.83765358046642
 30
0.0
 10
286.9789830228916
 20
129.65668248524844
 30
0.0
 10
285.81409707895625
 20
129.1720398691078
 30
0.0
 10
284.82135369496183
 20
128.45192872741998
 30
0.0
 10
283.99263794061596
 20
127.85307479548601
 30
0.0
 10
283.28059935179846
 20
127.09678683557782
 30
0.0
 10
282.7201248996888
 20
126.24302751362082
 30
0.0
 10
282.45777754911364
 20
125.84369796626918
 30
0.0
 10
282.23032009559563
 20
125.42539679462635
 30
0.0
 10
282.037752539134
 20
124.98812399869222
 30
0.0
 10
281.9000683840231
 20
124.67610873365356
 30
0.0
 10
281.78408509653
 20
124.3563591204321
 30
0.0
 10
281.68980267665546
 20
124.02887515902763
 30
0.0
 10
281.59634262719584
 20
123.69281061127319
 30
0.0
 10
281.51518455017276
 20
123.34961752527695
 30
0.0
 10
281.4999999999999
 20
123.00000000000001
 30
0.0
  0
SPLINE
  5
36
330
17
100
AcDbEntity
  8
CUT
100
AcDbSpline
 70
0
 71
3
 72
149
 73
145
 74
0
 40
0.0
 40
0.0
 40
0.0
 40
0.0
 40
0.0006592971875330048
 40
0.0006592971875330048
 40
0.0006592971875330048
 40
0.003992575905038202
 40
0.003992575905038202
 40
0.003992575905038202
 40
0.0073258546225434
 40
0.0073258546225434
 40
0.0073258546225434
 40
0.015208620908391004
 40
0.015208620908391004
 40
0.015208620908391004
 40
0.02708216625200388
 40
0.02708216625200388
 40
0.02708216625200388
 40
0.03884848088549769
 40
0.03884848088549769
 40
0.03884848088549769
 40
0.06338999422355973
 40
0.06338999422355973
 40
0.06338999422355973
 40
0.09752536179770137
 40
0.09752536179770137
 40
0.09752536179770137
 40
0.12526075316899946
 40
0.12526075316899946
 40
0.12526075316899946
 40
0.1924627915936608
 40
0.1924627915936608
 40
0.1924627915936608
 40
0.2233969207060981
 40
0.2233969207060981
 40
0.2233969207060981
 40
0.25113212517804345
 40
0.25113212517804345
 40
0.25113212517804345
 40
0.2809999818839667
 40
0.2809999818839667
 40
0.2809999818839667
 40
0.31300162591086683
 40
0.31300162591086683
 40
0.31300162591086683
 40
0.351399670917311
 40
0.351399670917311
 40
0.351399670917311
 40
0.3812600634013022
 40
0.3812600634013022
 40
0.3812600634013022
 40
0.44737689657618346
 40
0.44737689657618346
 40
0.44737689657618346
 40
0.47723658458306256
 40
0.47723658458306256
 40
0.47723658458306256
 40
0.5028305714743141
 40
0.5028305714743141
 40
0.5028305714743141
 40
0.5102954842922897
 40
0.5102954842922897
 40
0.5102954842922897
 40
0.5220202648360018
 40
0.5220202648360018
 40
0.5220202648360018
 40
0.5276840158185006
 40
0.5276840158185006
 40
0.5276840158185006
 40
0.53051589130975
 40
0.53051589130975
 40
0.53051589130975
 40
0.5333477668009994
 40
0.5333477668009994
 40
0.5333477668009994
 40
0.5340728405201869
 40
0.5340728405201869
 40
0.5340728405201869
 40
0.5347979142393743
 40
0.5347979142393743
 40
0.5347979142393743
 40
0.5348833276493075
 40
0.5348833276493075
 40
0.5348833276493075
 40
0.5354523397063038
 40
0.5354523397063038
 40
0.5354523397063038
 40
0.5360213517633002
 40
0.5360213517633002
 40
0.5360213517633002
 40
0.5395319920531108
 40
0.5395319920531108
 40
0.5395319920531108
 40
0.5451970614949924
 40
0.5451970614949924
 40
0.5451970614949924
 40
0.5544742740455427
 40
0.5544742740455427
 40
0.5544742740455427
 40
0.5646970462351446
 40
0.5646970462351446
 40
0.5646970462351446
 40
0.6027996768405
 40
0.6027996768405
 40
0.6027996768405
 40
0.6306803035463704
 40
0.6306803035463704
 40
0.6306803035463704
 40
0.689228985290397
 40
0.689228985290397
 40
0.689228985290397
 40
0.7180419190045277
 40
0.7180419190045277
 40
0.7180419190045277
 40
0.7505738073855531
 40
0.7505738073855531
 40
0.7505738073855531
 40
0.7821833766663123
 40
0.7821833766663123
 40
0.7821833766663123
 40
0.807288926485484
 40
0.807288926485484
 40
0.807288926485484
 40
0.8379715015238351
 40
0.8379715015238351
 40
0.8379715015238351
 40
0.8742305091502132
 40
0.8742305091502132
 40
0.8742305091502132
 40
0.906771992032901
 40
0.906771992032901
 40
0.906771992032901
 40
0.9402428016003054
 40
0.9402428016003054
 40
0.9402428016003054
 40
0.9681351075524587
 40
0.9681351075524587
 40
0.9681351075524587
 40
0.9811515169958432
 40
0.9811515169958432
 40
0.9811515169958432
 40
0.9904490147594858
 40
0.9904490147594858
 40
0.9904490147594858
 40
1.0
 40
1.0
 40
1.0
 40
1.0
 10
281.5
 20
178.00000000000006
 30
0.0
 10
281.4992232570809
 20
177.9825390794662
 30
0.0
 10
281.498238638096
 20
177.98337074064972
 30
0.0
 10
281.4970461430445
 20
178.0024949835506
 30
0.0
 10
281.4915724185303
 20
178.10183758121522
 30
0.0
 10
281.487321092976
 20
178.22894765141936
 30
0.0
 10
281.4760066400341
 20
178.32774594136015
 30
0.0
 10
281.46514525124337
 20
178.42929980521276
 30
0.0
 10
281.4470077994244
 20
178.50383534628676
 30
0.0
 10
281.4256971128779
 20
178.57319314854175
 30
0.0
 10
281.3763473116531
 20
178.73789274874574
 30
0.0
 10
281.3150391309167
 20
178.99948669206677
 30
0.0
 10
281.24179475803527
 20
179.24892820117145
 30
0.0
 10
281.13223231503036
 20
179.62463801492444
 30
0.0
 10
280.98637102616044
 20
179.95961779537458
 30
0.0
 10
280.820258687712
 20
180.2925407709277
 30
0.0
 10
280.65561559305246
 20
180.62612473542356
 30
0.0
 10
280.46977946946436
 20
180.9517223380717
 30
0.0
 10
280.2627503169475
 20
181.2693335788717
 30
0.0
 10
279.83138918856804
 20
181.92433368830842
 30
0.0
 10
279.309718748867
 20
182.51533272748134
 30
0.0
 10
278.71566408177586
 20
183.0279527652332
 30
0.0
 10
277.8899412346143
 20
183.73984566341827
 30
0.0
 10
276.91756729640963
 20
184.2829266271036
 30
0.0
 10
275.8726915930362
 20
184.59774309220043
 30
0.0
 10
275.02437375815543
 20
184.8543961526733
 30
0.0
 10
274.1311498438283
 20
184.9599738219153
 30
0.0
 10
273.24626718150563
 20
184.91209761043473
 30
0.0
 10
271.0970605119319
 20
184.80053841088045
 30
0.0
 10
269.0269276181462
 20
183.78531381087532
 30
0.0
 10
267.5770560385093
 20
182.20285807460354
 30
0.0
 10
266.9084263408288
 20
181.4754672530308
 30
0.0
 10
266.36870731258654
 20
180.62709243952915
 30
0.0
 10
266.00992759032994
 20
179.70542090985143
 30
0.0
 10
265.6870719758217
 20
178.87983286908207
 30
0.0
 10
265.51322873497855
 20
177.99631403023523
 30
0.0
 10
265.5008105569963
 20
177.10983434666818
 30
0.0
 10
265.4861345065237
 20
176.15472621506134
 30
0.0
 10
265.6590113335321
 20
175.20085366293972
 30
0.0
 10
265.9745733842247
 20
174.30127547738553
 30
0.0
 10
266.31183865051355
 20
173.3351607650721
 30
0.0
 10
266.80640752803174
 20
172.43059714432016
 30
0.0
 10
267.3850947267211
 20
171.58988694352453
 30
0.0
 10
268.08105950186774
 20
170.58020156882574
 30
0.0
 10
268.8963792715932
 20
169.65861868535148
 30
0.0
 10
269.7587962702462
 20
168.78932491828616
 30
0.0
 10
270.4301721936207
 20
168.1131709233868
 30
0.0
 10
271.13214719748265
 20
167.46814068184574
 30
0.0
 10
271.845815911889
 20
166.83714734958005
 30
0.0
 10
273.4266128756193
 20
165.4402918763454
 30
0.0
 10
275.0674985566987
 20
164.11262789188726
 30
0.0
 10
276.62711759095356
 20
162.691573041086
 30
0.0
 10
277.3308997152482
 20
162.04957045108313
 30
0.0
 10
278.01845605984374
 20
161.38913263753312
 30
0.0
 10
278.667216472037
 20
160.69073594404293
 30
0.0
 10
279.2225505815442
 20
160.09112822278294
 30
0.0
 10
279.7509331345351
 20
159.4682769856606
 30
0.0
 10
280.2207280151751
 20
158.79874174829217
 30
0.0
 10
280.35784098398125
 20
158.60288079195
 30
0.0
 10
280.4889753456433
 20
158.40313445300114
 30
0.0
 10
280.6141311001616
 20
158.19950273144573
 30
0.0
 10
280.80999879455135
 20
157.87828110943727
 30
0.0
 10
280.9909704685514
 20
157.56017633584833
 30
0.0
 10
281.1438381985535
 20
157.21876344868616
 30
0.0
 10
281.21782419996185
 20
157.05021480725102
 30
0.0
 10
281.2908759363422
 20
156.84988619688096
 30
0.0
 10
281.34777392762794
 20
156.675006111367
 30
0.0
 10
281.37674601920105
 20
156.58770118005302
 30
0.0
 10
281.4035998244142
 20
156.50494592309403
 30
0.0
 10
281.42833534326815
 20
156.42674034049077
 30
0.0
 10
281.45277744124155
 20
156.3461421245048
 30
0.0
 10
281.47471106976843
 20
156.26833240056814
 30
0.0
 10
281.4860019380359
 20
156.1472170608871
 30
0.0
 10
281.4889013002424
 20
156.1165005779909
 30
0.0
 10
281.4911345752263
 20
156.0974349138244
 30
0.0
 10
281.4931481709866
 20
156.06918325094315
 30
0.0
 10
281.4951874281314
 20
156.04314351997255
 30
0.0
 10
281.4970254357311
 20
156.0049029898173
 30
0.0
 10
281.4997985355435
 20
156.00012767116417
 30
0.0
 10
281.5001251986193
 20
156.0005495426873
 30
0.0
 10
281.5004518616951
 20
156.00097141421074
 30
0.0
 10
281.500778524771
 20
156.00139328573394
 30
0.0
 10
281.5028969044939
 20
156.0099304613442
 30
0.0
 10
281.50440597647184
 20
156.03470998799222
 30
0.0
 10
281.50601342206323
 20
156.05639172847808
 30
0.0
 10
281.50775330476966
 20
156.0784012240768
 30
0.0
 10
281.5094931874758
 20
156.10041071967547
 30
0.0
 10
281.5112330701822
 20
156.12242021527416
 30
0.0
 10
281.52223662678705
 20
156.266103104357
 30
0.0
 10
281.5511760691084
 20
156.368030031409
 30
0.0
 10
281.5864570329462
 20
156.4731706978886
 30
0.0
 10
281.64188262176475
 20
156.645400857696
 30
0.0
 10
281.71010204499703
 20
156.85791213261905
 30
0.0
 10
281.78797536754183
 20
157.05396133122585
 30
0.0
 10
281.9154566211244
 20
157.37510859077676
 30
0.0
 10
282.074328004577
 20
157.66989707068916
 30
0.0
 10
282.2447266967489
 20
157.96371521536742
 30
0.0
 10
282.43362552429005
 20
158.28757010227739
 30
0.0
 10
282.6374889633501
 20
158.6022077372984
 30
0.0
 10
282.8563170139295
 20
158.9076281204304
 30
0.0
 10
283.6730145137621
 20
160.04037205744982
 30
0.0
 10
284.64082894891726
 20
161.05425521724342
 30
0.0
 10
285.6485871721923
 20
162.01721301999666
 30
0.0
 10
286.3877384018505
 20
162.7212732976718
 30
0.0
 10
287.1534074003354
 20
163.3969118580906
 30
0.0
 10
287.9264006793068
 20
164.06339874953278
 30
0.0
 10
289.54894326563203
 20
165.46333234293277
 30
0.0
 10
291.2114524065655
 20
166.8200865041275
 30
0.0
 10
292.7545980395856
 20
168.30937019115842
 30
0.0
 10
293.5125932614489
 20
169.04268037887914
 30
0.0
 10
294.2410064269977
 20
169.80886666320157
 30
0.0
 10
294.9011836458416
 20
170.63240747910268
 30
0.0
 10
295.64526894931294
 20
171.56123169093058
 30
0.0
 10
296.30476496831284
 20
172.5674536785601
 30
0.0
 10
296.77693486079124
 20
173.6636766960166
 30
0.0
 10
297.2361831001093
 20
174.72594168686697
 30
0.0
 10
297.50745662164775
 20
175.87793206550987
 30
0.0
 10
297.4998994274678
 20
177.0387217624278
 30
0.0
 10
297.4958478737939
 20
177.95937776476458
 30
0.0
 10
297.3175578090109
 20
178.87848272240373
 30
0.0
 10
296.9787009496471
 20
179.73442609696417
 30
0.0
 10
296.5661227457224
 20
180.78171967656127
 30
0.0
 10
295.9200268439629
 20
181.73239083813303
 30
0.0
 10
295.11682668209005
 20
182.5189971066478
 30
0.0
 10
294.1677846538141
 20
183.44943267900044
 30
0.0
 10
292.9983714815853
 20
184.15486683863986
 30
0.0
 10
291.72985822738076
 20
184.55283874675953
 30
0.0
 10
290.59245135959475
 20
184.9111323072482
 30
0.0
 10
289.37344652370325
 20
185.0168240878745
 30
0.0
 10
288.1932948489043
 20
184.83765358046762
 30
0.0
 10
286.97898302286814
 20
184.6566824852458
 30
0.0
 10
285.81409707892976
 20
184.17203986908834
 30
0.0
 10
284.8213536949679
 20
183.45192872742442
 30
0.0
 10
283.9926379406211
 20
182.85307479549127
 30
0.0
 10
283.28059935180374
 20
182.09678683558363
 30
0.0
 10
282.7201248996929
 20
181.2430275136272
 30
0.0
 10
282.4577775491175
 20
180.84369796627578
 30
0.0
 10
282.23032009559887
 20
180.42539679463326
 30
0.0
 10
282.0377525391369
 20
179.98812399869902
 30
0.0
 10
281.9000683840257
 20
179.67610873366084
 30
0.0
 10
281.78408509653275
 20
179.3563591204394
 30
0.0
 10
281.6898026766576
 20
179.02887515903427
 30
0.0
 10
281.59634262719726
 20
178.69281061127887
 30
0.0
 10
281.5151845501724
 20
178.34961752527914
 30
0.0
 10
281.49999999999994
 20
178.00000000000003
 30
0.0
  0
SPLINE
  5
37
330
17
100
AcDbEntity
  8
CUT
100
AcDbSpline
 70
0
 71
3
 72
125
 73
121
 74
0
 40
0.0
 40
0.0
 40
0.0
 40
0.0
 40
0.0005266961194700504
 40
0.0005266961194700504
 40
0.0005266961194700504
 40
0.0035251994890675557
 40
0.0035251994890675557
 40
0.0035251994890675557
 40
0.006523702858665061
 40
0.006523702858665061
 40
0.006523702858665061
 40
0.014283897336932982
 40
0.014283897336932982
 40
0.014283897336932982
 40
0.026623476949731967
 40
0.026623476949731967
 40
0.026623476949731967
 40
0.059160701962774766
 40
0.059160701962774766
 40
0.059160701962774766
 40
0.11754254062469854
 40
0.11754254062469854
 40
0.11754254062469854
 40
0.18041838715406724
 40
0.18041838715406724
 40
0.18041838715406724
 40
0.24554180869143075
 40
0.24554180869143075
 40
0.24554180869143075
 40
0.27024556134305944
 40
0.27024556134305944
 40
0.27024556134305944
 40
0.3016855113681446
 40
0.3016855113681446
 40
0.3016855113681446
 40
0.3679185532320098
 40
0.3679185532320098
 40
0.3679185532320098
 40
0.4924989033604886
 40
0.4924989033604886
 40
0.4924989033604886
 40
0.5183119106475622
 40
0.5183119106475622
 40
0.5183119106475622
 40
0.5351398745632832
 40
0.5351398745632832
 40
0.5351398745632832
 40
0.54747890588121
 40
0.54747890588121
 40
0.54747890588121
 40
0.553499538487448
 40
0.553499538487448
 40
0.553499538487448
 40
0.5595201710936861
 40
0.5595201710936861
 40
0.5595201710936861
 40
0.5604986129360542
 40
0.5604986129360542
 40
0.5604986129360542
 40
0.5614770547784222
 40
0.5614770547784222
 40
0.5614770547784222
 40
0.5615987239138643
 40
0.5615987239138643
 40
0.5615987239138643
 40
0.5629050960527859
 40
0.5629050960527859
 40
0.5629050960527859
 40
0.5642114681917074
 40
0.5642114681917074
 40
0.5642114681917074
 40
0.5668242124695506
 40
0.5668242124695506
 40
0.5668242124695506
 40
0.5721496808013546
 40
0.5721496808013546
 40
0.5721496808013546
 40
0.5808755847721009
 40
0.5808755847721009
 40
0.5808755847721009
 40
0.6123483344903824
 40
0.6123483344903824
 40
0.6123483344903824
 40
0.6735472353897729
 40
0.6735472353897729
 40
0.6735472353897729
 40
0.7102663842609386
 40
0.7102663842609386
 40
0.7102663842609386
 40
0.744366749001435
 40
0.744366749001435
 40
0.744366749001435
 40
0.7767242811539731
 40
0.7767242811539731
 40
0.7767242811539731
 40
0.8090881676949678
 40
0.8090881676949678
 40
0.8090881676949678
 40
0.8362042590842026
 40
0.8362042590842026
 40
0.8362042590842026
 40
0.8746886189572093
 40
0.8746886189572093
 40
0.8746886189572093
 40
0.9035525546120781
 40
0.9035525546120781
 40
0.9035525546120781
 40
0.9359150777440138
 40
0.9359150777440138
 40
0.9359150777440138
 40
0.9700264298535858
 40
0.9700264298535858
 40
0.9700264298535858
 40
0.9822715623700592
 40
0.9822715623700592
 40
0.9822715623700592
 40
0.9910182339325238
 40
0.9910182339325238
 40
0.9910182339325238
 40
1.0
 40
1.0
 40
1.0
 40
1.0
 10
310.0
 20
22.352941176470612
 30
0.0
 10
309.99962964425174
 20
22.344941036597714
 30
0.0
 10
309.99916980127364
 20
22.345181991741153
 30
0.0
 10
309.9986204710648
 20
22.353664041900878
 30
0.0
 10
309.99619285898314
 20
22.397424126668575
 30
0.0
 10
309.99405329050325
 20
22.461701380945165
 30
0.0
 10
309.9887083560351
 20
22.50676949064755
 30
0.0
 10
309.9832932416531
 20
22.553285935662675
 30
0.0
 10
309.9753246224531
 20
22.592261984763716
 30
0.0
 10
309.9648024984343
 20
22.62369763795067
 30
0.0
 10
309.9386501278673
 20
22.712490731698043
 30
0.0
 10
309.9109172461014
 20
22.83055980974389
 30
0.0
 10
309.87849201002024
 20
22.940596725380196
 30
0.0
 10
309.8269313655203
 20
23.117547117689405
 30
0.0
 10
309.7582930484703
 20
23.27507085924803
 30
0.0
 10
309.68012289541156
 20
23.431802229211428
 30
0.0
 10
309.47520750516475
 20
23.849716653742778
 30
0.0
 10
309.20038403419306
 20
24.234546337200698
 30
0.0
 10
308.86711102553875
 20
24.556652890753853
 30
0.0
 10
308.2723186854389
 20
25.140900436450206
 30
0.0
 10
307.4772360735039
 20
25.522309701674306
 30
0.0
 10
306.64462322693464
 20
25.595635153118344
 30
0.0
 10
305.7481805913133
 20
25.680363702911684
 30
0.0
 10
304.8323814699133
 20
25.41627515494241
 30
0.0
 10
304.09847181370463
 20
24.899952322500322
 30
0.0
 10
303.336382683514
 20
24.369003830672106
 30
0.0
 10
302.75894583751347
 20
23.561036207380628
 30
0.0
 10
302.55575792633636
 20
22.649734844172773
 30
0.0
 10
302.47814940402975
 20
22.30267897940485
 30
0.0
 10
302.4535766856086
 20
21.95192906659963
 30
0.0
 10
302.48203977107266
 20
21.5974851057571
 30
0.0
 10
302.5174154576358
 20
21.149172956181907
 30
0.0
 10
302.63777078695216
 20
20.710357449827118
 30
0.0
 10
302.81666411249535
 20
20.29887000208097
 30
0.0
 10
303.19675725636097
 20
19.428670408061805
 30
0.0
 10
303.812346962928
 20
18.687660202063597
 30
0.0
 10
304.47472777687904
 20
18.018505857809203
 30
0.0
 10
305.73037602829913
 20
16.758446176393786
 30
0.0
 10
307.18674907502395
 20
15.718921194480373
 30
0.0
 10
308.4347001202287
 20
14.450695918305762
 30
0.0
 10
308.6938999871015
 20
14.188395428430304
 30
0.0
 10
308.93842145277625
 20
13.913232119208946
 30
0.0
 10
309.1682645172525
 20
13.62520599064166
 30
0.0
 10
309.3178403133766
 20
13.437220575093903
 30
0.0
 10
309.4561268973144
 20
13.240514666538727
 30
0.0
 10
309.58312426906554
 20
13.035088264976125
 30
0.0
 10
309.67527723375656
 20
12.883598662448739
 30
0.0
 10
309.760492114821
 20
12.734886788701928
 30
0.0
 10
309.8323517567093
 20
12.572708989729085
 30
0.0
 10
309.8676458179163
 20
12.492647745655841
 30
0.0
 10
309.9013776702731
 20
12.401132949516732
 30
0.0
 10
309.9282350305395
 20
12.317864016695333
 30
0.0
 10
309.95488681988957
 20
12.230581158143904
 30
0.0
 10
309.98204777194474
 20
12.175997175900482
 30
0.0
 10
309.9933915905936
 20
12.072688117329319
 30
0.0
 10
309.9949740244216
 20
12.057829908146072
 30
0.0
 10
309.99610062842913
 20
12.0443755457801
 30
0.0
 10
309.9967714026169
 20
12.03232503023145
 30
0.0
 10
309.9976121105276
 20
12.019408113932606
 30
0.0
 10
309.99863832687504
 20
12.001775675097694
 30
0.0
 10
309.99990504868185
 20
12.00004386797917
 30
0.0
 10
310.00005885705247
 20
12.000241276516844
 30
0.0
 10
310.00021266542353
 20
12.000438685054508
 30
0.0
 10
310.00036647379403
 20
12.00063609359218
 30
0.0
 10
310.001926289679
 20
12.006826485953113
 30
0.0
 10
310.0029810339939
 20
12.033107511956963
 30
0.0
 10
310.0050522399308
 20
12.0560538350554
 30
0.0
 10
310.0070984007353
 20
12.080130457900026
 30
0.0
 10
310.0098637329261
 20
12.101809786493622
 30
0.0
 10
310.01334823650336
 20
12.121091820836183
 30
0.0
 10
310.0205475345252
 20
12.160104339300293
 30
0.0
 10
310.0282691085349
 20
12.184602596050011
 30
0.0
 10
310.04068406373295
 20
12.222747503069975
 30
0.0
 10
310.06676541941056
 20
12.3036618972997
 30
0.0
 10
310.09887468953127
 20
12.403750877907715
 30
0.0
 10
310.13551960709873
 20
12.495959928972976
 30
0.0
 10
310.19706645819434
 20
12.645123093345163
 30
0.0
 10
310.26871341407957
 20
12.787834574253587
 30
0.0
 10
310.3504604747539
 20
12.92409437169822
 30
0.0
 10
310.64125285517105
 20
13.42462549718248
 30
0.0
 10
311.01403338620605
 20
13.869049070910094
 30
0.0
 10
311.40881473954045
 20
14.2882033534482
 30
0.0
 10
312.181655864018
 20
15.101501285474031
 30
0.0
 10
313.0501827493476
 20
15.814476335573826
 30
0.0
 10
313.90081418917043
 20
16.543179536767294
 30
0.0
 10
314.4117866898659
 20
16.980181169500238
 30
0.0
 10
314.9197518954193
 20
17.42166198610475
 30
0.0
 10
315.39945521287854
 20
17.893265641549018
 30
0.0
 10
315.84413394485216
 20
18.33124340479117
 30
0.0
 10
316.2659249162877
 20
18.795862911836164
 30
0.0
 10
316.62329298774455
 20
19.308933238019947
 30
0.0
 10
316.9614071294304
 20
19.794778529245608
 30
0.0
 10
317.2407082396299
 20
20.32829187329184
 30
0.0
 10
317.3959014692852
 20
20.901980144242895
 30
0.0
 10
317.5525759503263
 20
21.473944930982018
 30
0.0
 10
317.5755962337526
 20
22.08502852631953
 30
0.0
 10
317.4409910892439
 20
22.664029931316545
 30
0.0
 10
317.32990307425945
 20
23.149098721467883
 30
0.0
 10
317.11333099256285
 20
23.608294110178296
 30
0.0
 10
316.8179828423829
 20
24.008100755213526
 30
0.0
 10
316.39901501132675
 20
24.576288017977554
 30
0.0
 10
315.8242897910487
 20
25.027156652614973
 30
0.0
 10
315.17500661791513
 20
25.3034478473605
 30
0.0
 10
314.6883123736517
 20
25.51099540616365
 30
0.0
 10
314.1584678476114
 20
25.619430405597548
 30
0.0
 10
313.62895364739956
 20
25.610436443536088
 30
0.0
 10
313.0353566476541
 20
25.601838184776625
 30
0.0
 10
312.4451260276546
 20
25.44197100004989
 30
0.0
 10
311.92768491368
 20
25.151380961400243
 30
0.0
 10
311.3811920793847
 20
24.846194128568722
 30
0.0
 10
310.9167324738023
 20
24.401355705287713
 30
0.0
 10
310.5741764111618
 20
23.879071782530605
 30
0.0
 10
310.45071859953464
 20
23.691150744406713
 30
0.0
 10
310.3436797679318
 20
23.494303133487737
 30
0.0
 10
310.253059916354
 20
23.28852894977374
 30
0.0
 10
310.1882781747463
 20
23.141698289172965
 30
0.0
 10
310.1336891382593
 20
22.991227826987675
 30
0.0
 10
310.08929280689296
 20
22.83711756321787
 30
0.0
 10
310.0453583285458
 20
22.678965043049214
 30
0.0
 10
310.0071370125967
 20
22.51747234565707
 30
0.0
 10
310.0
 20
22.352941176470615
 30
0.0
  0
SPLINE
  5
38
330
17
100
AcDbEntity
  8
CUT
100
AcDbSpline
 70
0
 71
3
 72
125
 73
121
 74
0
 40
0.0
 40
0.0
 40
0.0
 40
0.0
 40
0.0005266961195393013
 40
0.0005266961195393013
 40
0.0005266961195393013
 40
0.003525199489615257
 40
0.003525199489615257
 40
0.003525199489615257
 40
0.0065237028596912125
 40
0.0065237028596912125
 40
0.0065237028596912125
 40
0.014283897339265888
 40
0.014283897339265888
 40
0.014283897339265888
 40
0.026623476954016095
 40
0.026623476954016095
 40
0.026623476954016095
 40
0.0591607019718412
 40
0.0591607019718412
 40
0.0591607019718412
 40
0.11754254063168385
 40
0.11754254063168385
 40
0.11754254063168385
 40
0.1804183871564584
 40
0.1804183871564584
 40
0.1804183871564584
 40
0.24554180869201075
 40
0.24554180869201075
 40
0.24554180869201075
 40
0.27024556134323974
 40
0.27024556134323974
 40
0.27024556134323974
 40
0.3016855113619515
 40
0.3016855113619515
 40
0.3016855113619515
 40
0.367918553201203
 40
0.367918553201203
 40
0.367918553201203
 40
0.492498903277853
 40
0.492498903277853
 40
0.492498903277853
 40
0.5183119105524665
 40
0.5183119105524665
 40
0.5183119105524665
 40
0.5351398744595641
 40
0.5351398744595641
 40
0.5351398744595641
 40
0.5474789057710275
 40
0.5474789057710275
 40
0.5474789057710275
 40
0.5534995383741593
 40
0.5534995383741593
 40
0.5534995383741593
 40
0.5595201709772911
 40
0.5595201709772911
 40
0.5595201709772911
 40
0.5604986128191489
 40
0.5604986128191489
 40
0.5604986128191489
 40
0.5614770546610066
 40
0.5614770546610066
 40
0.5614770546610066
 40
0.5615987237963486
 40
0.5615987237963486
 40
0.5615987237963486
 40
0.5629050959357229
 40
0.5629050959357229
 40
0.5629050959357229
 40
0.5642114680750974
 40
0.5642114680750974
 40
0.5642114680750974
 40
0.5668242123538461
 40
0.5668242123538461
 40
0.5668242123538461
 40
0.572149680687443
 40
0.572149680687443
 40
0.572149680687443
 40
0.580875584661164
 40
0.580875584661164
 40
0.580875584661164
 40
0.612348334389792
 40
0.612348334389792
 40
0.612348334389792
 40
0.6735472353076561
 40
0.6735472353076561
 40
0.6735472353076561
 40
0.7102663841897692
 40
0.7102663841897692
 40
0.7102663841897692
 40
0.7443667489401999
 40
0.7443667489401999
 40
0.7443667489401999
 40
0.7767242811007898
 40
0.7767242811007898
 40
0.7767242811007898
 40
0.8090881676496864
 40
0.8090881676496864
 40
0.8090881676496864
 40
0.836204259045593
 40
0.836204259045593
 40
0.836204259045593
 40
0.8746886189275906
 40
0.8746886189275906
 40
0.8746886189275906
 40
0.9035525545892987
 40
0.9035525545892987
 40
0.9035525545892987
 40
0.9359150777288613
 40
0.9359150777288613
 40
0.9359150777288613
 40
0.9700264298464268
 40
0.9700264298464268
 40
0.9700264298464268
 40
0.9822715623657818
 40
0.9822715623657818
 40
0.9822715623657818
 40
0.9910182339303001
 40
0.9910182339303001
 40
0.9910182339303001
 40
1.0
 40
1.0
 40
1.0
 40
1.0
 10
340.0
 20
20.352941176470612
 30
0.0
 10
339.9996296442518
 20
20.344941036597753
 30
0.0
 10
339.9991698012735
 20
20.345181991741185
 30
0.0
 10
339.99862047106484
 20
20.35366404190088
 30
0.0
 10
339.99619285898257
 20
20.397424126668575
 30
0.0
 10
339.9940532905037
 20
20.46170138094506
 30
0.0
 10
339.988708356035
 20
20.506769490647603
 30
0.0
 10
339.98329324165326
 20
20.553285935662657
 30
0.0
 10
339.975324622453
 20
20.59226198476368
 30
0.0
 10
339.9648024984343
 20
20.62369763795067
 30
0.0
 10
339.9386501278672
 20
20.71249073169804
 30
0.0
 10
339.91091724610163
 20
20.830559809743903
 30
0.0
 10
339.87849201002035
 20
20.940596725380203
 30
0.0
 10
339.8269313655203
 20
21.117547117689362
 30
0.0
 10
339.7582930484705
 20
21.27507085924806
 30
0.0
 10
339.68012289541144
 20
21.431802229211435
 30
0.0
 10
339.47520750516884
 20
21.84971665373252
 30
0.0
 10
339.2003840342149
 20
22.234546337175992
 30
0.0
 10
338.86711102553875
 20
22.55665289075385
 30
0.0
 10
338.27231868548677
 20
23.14090043641121
 30
0.0
 10
337.47723607353004
 20
23.522309701676512
 30
0.0
 10
336.6446232269346
 20
23.59563515311834
 30
0.0
 10
335.7481805913304
 20
23.680363702912736
 30
0.0
 10
334.8323814699116
 20
23.416275154944643
 30
0.0
 10
334.09847181370463
 20
22.899952322500315
 30
0.0
 10
333.33638268349085
 20
22.369003830651984
 30
0.0
 10
332.7589458375141
 20
21.561036207370293
 30
0.0
 10
332.55575792633636
 20
20.649734844172773
 30
0.0
 10
332.4781494040294
 20
20.302678979404813
 30
0.0
 10
332.4535766856083
 20
19.951929066599593
 30
0.0
 10
332.48203977107266
 20
19.597485105757105
 30
0.0
 10
332.5174154576279
 20
19.149172956237
 30
0.0
 10
332.63777078693863
 20
18.71035744985581
 30
0.0
 10
332.81666411249523
 20
18.298870002080967
 30
0.0
 10
333.1967572562876
 20
17.428670408189728
 30
0.0
 10
333.81234696291153
 20
16.687660202063164
 30
0.0
 10
334.47472777687904
 20
16.01850585780921
 30
0.0
 10
335.7303760283128
 20
14.758446176382101
 30
0.0
 10
337.1867490750293
 20
13.718921194475671
 30
0.0
 10
338.43470012022857
 20
12.450695918305756
 30
0.0
 10
338.69389998709426
 20
12.188395428438701
 30
0.0
 10
338.9384214527687
 20
11.913232119217335
 30
0.0
 10
339.16826451725234
 20
11.625205990641659
 30
0.0
 10
339.31784031337645
 20
11.437220575093974
 30
0.0
 10
339.4561268973142
 20
11.240514666538798
 30
0.0
 10
339.5831242690656
 20
11.035088264976121
 30
0.0
 10
339.6752772337567
 20
10.883598662448751
 30
0.0
 10
339.76049211482086
 20
10.734886788701912
 30
0.0
 10
339.8323517567092
 20
10.572708989729087
 30
0.0
 10
339.86764581791647
 20
10.492647745655884
 30
0.0
 10
339.9013776702731
 20
10.401132949516642
 30
0.0
 10
339.9282350305395
 20
10.317864016695351
 30
0.0
 10
339.95488681989013
 20
10.230581158143863
 30
0.0
 10
339.9820477719442
 20
10.175997175900525
 30
0.0
 10
339.9933915905936
 20
10.07268811732932
 30
0.0
 10
339.9949740244215
 20
10.057829908146045
 30
0.0
 10
339.99610062842936
 20
10.044375545780094
 30
0.0
 10
339.996771402617
 20
10.032325030231453
 30
0.0
 10
339.9976121105273
 20
10.019408113932602
 30
0.0
 10
339.9986383268752
 20
10.001775675097697
 30
0.0
 10
339.99990504868185
 20
10.000043867979167
 30
0.0
 10
340.0000588570525
 20
10.000241276516835
 30
0.0
 10
340.00021266542353
 20
10.00043868505451
 30
0.0
 10
340.0003664737942
 20
10.00063609359218
 30
0.0
 10
340.001926289679
 20
10.006826485953116
 30
0.0
 10
340.0029810339942
 20
10.033107511956974
 30
0.0
 10
340.0050522399309
 20
10.056053835055394
 30
0.0
 10
340.00709840073546
 20
10.080130457900001
 30
0.0
 10
340.00986373292625
 20
10.101809786493595
 30
0.0
 10
340.01334823650365
 20
10.121091820836181
 30
0.0
 10
340.02054753452495
 20
10.160104339300444
 30
0.0
 10
340.02826910853497
 20
10.184602596049842
 30
0.0
 10
340.04068406373295
 20
10.222747503069975
 30
0.0
 10
340.06676541941044
 20
10.303661897299714
 30
0.0
 10
340.0988746895312
 20
10.40375087790769
 30
0.0
 10
340.1355196070987
 20
10.495959928972983
 30
0.0
 10
340.19706645819434
 20
10.645123093345164
 30
0.0
 10
340.2687134140797
 20
10.787834574253583
 30
0.0
 10
340.35046047475396
 20
10.924094371698226
 30
0.0
 10
340.64125285517116
 20
11.424625497181614
 30
0.0
 10
341.0140333861954
 20
11.869049070897892
 30
0.0
 10
341.40881473954045
 20
12.288203353448202
 30
0.0
 10
342.1816558640155
 20
13.101501285471448
 30
0.0
 10
343.0501827493385
 20
13.814476335566253
 30
0.0
 10
343.9008141891704
 20
14.543179536767294
 30
0.0
 10
344.41178668987146
 20
14.98018116950513
 30
0.0
 10
344.91975189542194
 20
15.42166198610717
 30
0.0
 10
345.39945521287854
 20
15.89326564154901
 30
0.0
 10
345.8441339448464
 20
16.331243404786015
 30
0.0
 10
346.2659249162776
 20
16.79586291182286
 30
0.0
 10
346.62329298774443
 20
17.308933238019943
 30
0.0
 10
346.9614071294284
 20
17.79477852924171
 30
0.0
 10
347.24070823962944
 20
18.328291873290663
 30
0.0
 10
347.3959014692851
 20
18.901980144242895
 30
0.0
 10
347.5525759503266
 20
19.473944930985763
 30
0.0
 10
347.5755962337524
 20
20.085028526317753
 30
0.0
 10
347.44099108924394
 20
20.664029931316552
 30
0.0
 10
347.32990307425774
 20
21.149098721471933
 30
0.0
 10
347.11333099256524
 20
21.608294110173876
 30
0.0
 10
346.81798284238283
 20
22.008100755213533
 30
0.0
 10
346.3990150113282
 20
22.576288017976314
 30
0.0
 10
345.82428979105197
 20
23.02715665261279
 30
0.0
 10
345.17500661791536
 20
23.303447847360502
 30
0.0
 10
344.68831237365174
 20
23.5109954061635
 30
0.0
 10
344.15846784761214
 20
23.61943040559749
 30
0.0
 10
343.6289536473997
 20
23.610436443536095
 30
0.0
 10
343.03535664765434
 20
23.60183818477652
 30
0.0
 10
342.4451260276556
 20
23.441971000050476
 30
0.0
 10
341.92768491368014
 20
23.15138096140025
 30
0.0
 10
341.38119207938405
 20
22.84619412856862
 30
0.0
 10
340.9167324738027
 20
22.401355705287454
 30
0.0
 10
340.5741764111618
 20
21.879071782530602
 30
0.0
 10
340.4507185995344
 20
21.691150744406656
 30
0.0
 10
340.3436797679318
 20
21.494303133487698
 30
0.0
 10
340.25305991635395
 20
21.28852894977375
 30
0.0
 10
340.18827817474636
 20
21.14169828917296
 30
0.0
 10
340.13368913825957
 20
20.99122782698769
 30
0.0
 10
340.0892928068929
 20
20.83711756321787
 30
0.0
 10
340.0453583285453
 20
20.678965043049192
 30
0.0
 10
340.007137012597
 20
20.517472345657072
 30
0.0
 10
340.00000000000006
 20
20.352941176470615
 30
0.0
  0
SPLINE
  5
39
330
17
100
AcDbEntity
  8
CUT
100
AcDbSpline
 70
0
 71
3
 72
149
 73
145
 74
0
 40
0.0
 40
0.0
 40
0.0
 40
0.0
 40
0.0006592971872490623
 40
0.0006592971872490623
 40
0.0006592971872490623
 40
0.003992575901751897
 40
0.003992575901751897
 40
0.003992575901751897
 40
0.007325854616254733
 40
0.007325854616254733
 40
0.007325854616254733
 40
0.015208620894929364
 40
0.015208620894929364
 40
0.015208620894929364
 40
0.027082166227863247
 40
0.027082166227863247
 40
0.027082166227863247
 40
0.03884848085170145
 40
0.03884848085170145
 40
0.03884848085170145
 40
0.06338999416655042
 40
0.06338999416655042
 40
0.06338999416655042
 40
0.09752536171753237
 40
0.09752536171753237
 40
0.09752536171753237
 40
0.12526075307453644
 40
0.12526075307453644
 40
0.12526075307453644
 40
0.19246279146718784
 40
0.19246279146718784
 40
0.19246279146718784
 40
0.22339692056798285
 40
0.22339692056798285
 40
0.22339692056798285
 40
0.25113212502962473
 40
0.25113212502962473
 40
0.25113212502962473
 40
0.2809999817301079
 40
0.2809999817301079
 40
0.2809999817301079
 40
0.31300162575564616
 40
0.31300162575564616
 40
0.31300162575564616
 40
0.3513996707626821
 40
0.3513996707626821
 40
0.3513996707626821
 40
0.3812600632480155
 40
0.3812600632480155
 40
0.3812600632480155
 40
0.4473768964292793
 40
0.4473768964292793
 40
0.4473768964292793
 40
0.477236584439281
 40
0.477236584439281
 40
0.477236584439281
 40
0.5028305713332939
 40
0.5028305713332939
 40
0.5028305713332939
 40
0.5102954841520893
 40
0.5102954841520893
 40
0.5102954841520893
 40
0.5220202646969366
 40
0.5220202646969366
 40
0.5220202646969366
 40
0.5276840156799487
 40
0.5276840156799487
 40
0.5276840156799487
 40
0.5305158911714548
 40
0.5305158911714548
 40
0.5305158911714548
 40
0.5333477666629609
 40
0.5333477666629609
 40
0.5333477666629609
 40
0.5340728403822532
 40
0.5340728403822532
 40
0.5340728403822532
 40
0.5347979141015456
 40
0.5347979141015456
 40
0.5347979141015456
 40
0.5348833275114955
 40
0.5348833275114955
 40
0.5348833275114955
 40
0.5354523395686068
 40
0.5354523395686068
 40
0.5354523395686068
 40
0.5360213516257183
 40
0.5360213516257183
 40
0.5360213516257183
 40
0.5395319919162391
 40
0.5395319919162391
 40
0.5395319919162391
 40
0.5451970613593125
 40
0.5451970613593125
 40
0.5451970613593125
 40
0.5544742739119146
 40
0.5544742739119146
 40
0.5544742739119146
 40
0.5646970461040027
 40
0.5646970461040027
 40
0.5646970461040027
 40
0.6027996767184247
 40
0.6027996767184247
 40
0.6027996767184247
 40
0.630680303430067
 40
0.630680303430067
 40
0.630680303430067
 40
0.6892289851820651
 40
0.6892289851820651
 40
0.6892289851820651
 40
0.7180419189023022
 40
0.7180419189023022
 40
0.7180419189023022
 40
0.7505738072933366
 40
0.7505738072933366
 40
0.7505738072933366
 40
0.7821833765859503
 40
0.7821833765859503
 40
0.7821833765859503
 40
0.8072889264145304
 40
0.8072889264145304
 40
0.8072889264145304
 40
0.837971501464598
 40
0.837971501464598
 40
0.837971501464598
 40
0.8742305091047595
 40
0.8742305091047595
 40
0.8742305091047595
 40
0.9067719919995347
 40
0.9067719919995347
 40
0.9067719919995347
 40
0.9402428015790867
 40
0.9402428015790867
 40
0.9402428015790867
 40
0.9681351075411843
 40
0.9681351075411843
 40
0.9681351075411843
 40
0.9811515169892098
 40
0.9811515169892098
 40
0.9811515169892098
 40
0.9904490147561641
 40
0.9904490147561641
 40
0.9904490147561641
 40
1.0
 40
1.0
 40
1.0
 40
1.0
 10
341.5
 20
115.00000000000003
 30
0.0
 10
341.49922325708127
 20
114.98253907946513
 30
0.0
 10
341.49823863809604
 20
114.9833707406492
 30
0.0
 10
341.4970461430445
 20
115.0024949835523
 30
0.0
 10
341.49157241853004
 20
115.10183758121751
 30
0.0
 10
341.4873210929761
 20
115.22894765142296
 30
0.0
 10
341.47600664003346
 20
115.32774594136426
 30
0.0
 10
341.46514525124303
 20
115.4292998052174
 30
0.0
 10
341.4470077994229
 20
115.503835346291
 30
0.0
 10
341.4256971128765
 20
115.57319314854732
 30
0.0
 10
341.3763473116506
 20
115.73789274875242
 30
0.0
 10
341.3150391309155
 20
115.99948669207578
 30
0.0
 10
341.2417947580324
 20
116.24892820117893
 30
0.0
 10
341.132232315029
 20
116.62463801493173
 30
0.0
 10
340.9863710261553
 20
116.9596177953824
 30
0.0
 10
340.82025868771126
 20
117.29254077093294
 30
0.0
 10
340.65561559305144
 20
117.62612473542747
 30
0.0
 10
340.4697794694599
 20
117.95172233807828
 30
0.0
 10
340.26275031693666
 20
118.26933357888548
 30
0.0
 10
339.83138918854627
 20
118.92433368834436
 30
0.0
 10
339.3097187488039
 20
119.51533272754187
 30
0.0
 10
338.7156640817704
 20
120.02795276523806
 30
0.0
 10
337.88994123438744
 20
120.73984566360554
 30
0.0
 10
336.91756729617924
 20
121.28292662717325
 30
0.0
 10
335.87269159302895
 20
121.5977430922026
 30
0.0
 10
335.0243737581504
 20
121.85439615267393
 30
0.0
 10
334.1311498438169
 20
121.95997382191702
 30
0.0
 10
333.246267181502
 20
121.91209761043332
 30
0.0
 10
331.0970605119661
 20
121.80053841092001
 30
0.0
 10
329.0269276179823
 20
120.78531381076013
 30
0.0
 10
327.57705603850656
 20
119.20285807459857
 30
0.0
 10
326.9084263408257
 20
118.47546725302878
 30
0.0
 10
326.3687073125877
 20
117.62709243952986
 30
0.0
 10
326.0099275903274
 20
116.70542090984539
 30
0.0
 10
325.68707197582006
 20
115.8798328690743
 30
0.0
 10
325.5132287349775
 20
114.99631403022866
 30
0.0
 10
325.50081055699627
 20
114.10983434666045
 30
0.0
 10
325.48613450652755
 20
113.15472621482586
 30
0.0
 10
325.6590113335914
 20
112.20085366279058
 30
0.0
 10
325.97457338422726
 20
111.3012754773784
 30
0.0
 10
326.3118386505149
 20
110.33516076506888
 30
0.0
 10
326.80640752803265
 20
109.43059714431921
 30
0.0
 10
327.3850947267239
 20
108.58988694352082
 30
0.0
 10
328.08105950187854
 20
107.58020156880998
 30
0.0
 10
328.8963792716099
 20
106.65861868533457
 30
0.0
 10
329.7587962702524
 20
105.78932491828003
 30
0.0
 10
330.4301721936634
 20
105.11317092334401
 30
0.0
 10
331.1321471975432
 20
104.46814068179211
 30
0.0
 10
331.84581591189374
 20
103.83714734957539
 30
0.0
 10
333.4266128756109
 20
102.44029187635353
 30
0.0
 10
335.06749855670466
 20
101.11262789188206
 30
0.0
 10
336.6271175909586
 20
99.69157304108106
 30
0.0
 10
337.3308997152594
 20
99.04957045107295
 30
0.0
 10
338.01845605985085
 20
98.38913263752536
 30
0.0
 10
338.6672164720422
 20
97.69073594403733
 30
0.0
 10
339.2225505815494
 20
97.09112822277692
 30
0.0
 10
339.75093313454005
 20
96.46827698565423
 30
0.0
 10
340.22072801517936
 20
95.79874174828602
 30
0.0
 10
340.35784098398534
 20
95.6028807919438
 30
0.0
 10
340.4889753456474
 20
95.40313445299476
 30
0.0
 10
340.6141311001663
 20
95.19950273143867
 30
0.0
 10
340.8099987945538
 20
94.87828110943119
 30
0.0
 10
340.9909704685566
 20
94.56017633584128
 30
0.0
 10
341.1438381985551
 20
94.21876344867955
 30
0.0
 10
341.21782419996515
 20
94.05021480724406
 30
0.0
 10
341.2908759363442
 20
93.84988619687266
 30
0.0
 10
341.34777392763056
 20
93.67500611135982
 30
0.0
 10
341.3767460192032
 20
93.58770118004607
 30
0.0
 10
341.4035998244165
 20
93.50494592308759
 30
0.0
 10
341.42833534327025
 20
93.4267403404842
 30
0.0
 10
341.4527774412427
 20
93.34614212449816
 30
0.0
 10
341.4747110697707
 20
93.26833240056087
 30
0.0
 10
341.48600193803753
 20
93.14721706087626
 30
0.0
 10
341.48890130024375
 20
93.11650057797783
 30
0.0
 10
341.49113457522714
 20
93.09743491381556
 30
0.0
 10
341.4931481709868
 20
93.06918325093544
 30
0.0
 10
341.49518742813177
 20
93.04314351996648
 30
0.0
 10
341.49702543573164
 20
93.00490298980971
 30
0.0
 10
341.49979853554396
 20
93.00012767116357
 30
0.0
 10
341.50012519861974
 20
93.00054954268765
 30
0.0
 10
341.5004518616957
 20
93.00097141421186
 30
0.0
 10
341.50077852477165
 20
93.00139328573597
 30
0.0
 10
341.50289690449443
 20
93.00993046135096
 30
0.0
 10
341.50440597647236
 20
93.03470998799907
 30
0.0
 10
341.5060134220637
 20
93.0563917284862
 30
0.0
 10
341.5077533047702
 20
93.07840122408577
 30
0.0
 10
341.50949318747666
 20
93.10041071968534
 30
0.0
 10
341.51123307018315
 20
93.1224202152849
 30
0.0
 10
341.5222366267885
 20
93.26610310436523
 30
0.0
 10
341.5511760691103
 20
93.36803003141553
 30
0.0
 10
341.58645703294826
 20
93.47317069789494
 30
0.0
 10
341.6418826217674
 20
93.64540085770341
 30
0.0
 10
341.71010204499964
 20
93.85791213262704
 30
0.0
 10
341.78797536754445
 20
94.05396133123271
 30
0.0
 10
341.9154566211281
 20
94.37510859078357
 30
0.0
 10
342.0743280045809
 20
94.6698970706965
 30
0.0
 10
342.2447266967521
 20
94.96371521537277
 30
0.0
 10
342.4336255242946
 20
95.2875701022839
 30
0.0
 10
342.63748896335477
 20
95.6022077373051
 30
0.0
 10
342.85631701393424
 20
95.90762812043698
 30
0.0
 10
343.6730145137661
 20
97.04037205745435
 30
0.0
 10
344.64082894892374
 20
98.05425521724995
 30
0.0
 10
345.6485871721966
 20
99.01721302000101
 30
0.0
 10
346.38773840181557
 20
99.72127329763907
 30
0.0
 10
347.15340740029484
 20
100.3969118580556
 30
0.0
 10
347.92640067931376
 20
101.06339874953923
 30
0.0
 10
349.5489432656332
 20
102.46333234293401
 30
0.0
 10
351.2114524065456
 20
103.82008650410893
 30
0.0
 10
352.7545980395912
 20
105.30937019116357
 30
0.0
 10
353.5125932615059
 20
106.0426803789369
 30
0.0
 10
354.2410064270281
 20
106.80886666323858
 30
0.0
 10
354.90118364584634
 20
107.63240747910856
 30
0.0
 10
355.6452689493805
 20
108.5612316910148
 30
0.0
 10
356.3047649683612
 20
109.56745367866577
 30
0.0
 10
356.7769348607944
 20
110.66367669602367
 30
0.0
 10
357.2361831001109
 20
111.72594168687313
 30
0.0
 10
357.50745662164906
 20
112.87793206551646
 30
0.0
 10
357.4998994274677
 20
114.0387217624354
 30
0.0
 10
357.49584787379274
 20
114.95937776477125
 30
0.0
 10
357.31755780900994
 20
115.87848272241325
 30
0.0
 10
356.97870094964355
 20
116.73442609696968
 30
0.0
 10
356.56612274572797
 20
117.78171967655442
 30
0.0
 10
355.920026843959
 20
118.73239083813937
 30
0.0
 10
355.116826682084
 20
119.51899710665265
 30
0.0
 10
354.16778465381196
 20
120.44943267900167
 30
0.0
 10
352.9983714815916
 20
121.15486683863867
 30
0.0
 10
351.7298582273733
 20
121.55283874676171
 30
0.0
 10
350.59245135958724
 20
121.91113230724918
 30
0.0
 10
349.3734465236963
 20
122.01682408787501
 30
0.0
 10
348.19329484889647
 20
121.83765358046617
 30
0.0
 10
346.9789830228716
 20
121.656682485246
 30
0.0
 10
345.8140970789319
 20
121.1720398690906
 30
0.0
 10
344.8213536949618
 20
120.45192872741993
 30
0.0
 10
343.99263794061585
 20
119.85307479548598
 30
0.0
 10
343.2805993517984
 20
119.09678683557773
 30
0.0
 10
342.72012489968876
 20
118.24302751362083
 30
0.0
 10
342.45777754911353
 20
117.84369796626918
 30
0.0
 10
342.2303200955956
 20
117.42539679462641
 30
0.0
 10
342.0377525391338
 20
116.98812399869209
 30
0.0
 10
341.9000683840229
 20
116.67610873365354
 30
0.0
 10
341.78408509653025
 20
116.35635912043209
 30
0.0
 10
341.6898026766558
 20
116.02887515902766
 30
0.0
 10
341.5963426271958
 20
115.69281061127305
 30
0.0
 10
341.5151845501725
 20
115.34961752527698
 30
0.0
 10
341.49999999999994
 20
115.00000000000003
 30
0.0
  0
SPLINE
  5
3A
330
17
100
AcDbEntity
  8
CUT
100
AcDbSpline
 70
0
 71
3
 72
149
 73
145
 74
0
 40
0.0
 40
0.0
 40
0.0
 40
0.0
 40
0.0006592971873972563
 40
0.0006592971873972563
 40
0.0006592971873972563
 40
0.003992575903139897
 40
0.003992575903139897
 40
0.003992575903139897
 40
0.007325854618882537
 40
0.007325854618882537
 40
0.007325854618882537
 40
0.01520862090056934
 40
0.01520862090056934
 40
0.01520862090056934
 40
0.02708216623830753
 40
0.02708216623830753
 40
0.02708216623830753
 40
0.038848480866371604
 40
0.038848480866371604
 40
0.038848480866371604
 40
0.0633899941923318
 40
0.0633899941923318
 40
0.0633899941923318
 40
0.09752536175491199
 40
0.09752536175491199
 40
0.09752536175491199
 40
0.12526075312096763
 40
0.12526075312096763
 40
0.12526075312096763
 40
0.19246279153296708
 40
0.19246279153296708
 40
0.19246279153296708
 40
0.22339692064060865
 40
0.22339692064060865
 40
0.22339692064060865
 40
0.25113212510894706
 40
0.25113212510894706
 40
0.25113212510894706
 40
0.28099998181342783
 40
0.28099998181342783
 40
0.28099998181342783
 40
0.3130016258402215
 40
0.3130016258402215
 40
0.3130016258402215
 40
0.3513996708434536
 40
0.3513996708434536
 40
0.3513996708434536
 40
0.3812600633235795
 40
0.3812600633235795
 40
0.3812600633235795
 40
0.4473768964790969
 40
0.4473768964790969
 40
0.4473768964790969
 40
0.47723658447649886
 40
0.47723658447649886
 40
0.47723658447649886
 40
0.502830571359501
 40
0.502830571359501
 40
0.502830571359501
 40
0.510295484175071
 40
0.510295484175071
 40
0.510295484175071
 40
0.5220202647143833
 40
0.5220202647143833
 40
0.5220202647143833
 40
0.5276840156950873
 40
0.5276840156950873
 40
0.5276840156950873
 40
0.5305158911854393
 40
0.5305158911854393
 40
0.5305158911854393
 40
0.5333477666757913
 40
0.5333477666757913
 40
0.5333477666757913
 40
0.5340728403946831
 40
0.5340728403946831
 40
0.5340728403946831
 40
0.5347979141135749
 40
0.5347979141135749
 40
0.5347979141135749
 40
0.5348833275234529
 40
0.5348833275234529
 40
0.5348833275234529
 40
0.5354523395805388
 40
0.5354523395805388
 40
0.5354523395805388
 40
0.5360213516376249
 40
0.5360213516376249
 40
0.5360213516376249
 40
0.5395319919279398
 40
0.5395319919279398
 40
0.5395319919279398
 40
0.5451970613706352
 40
0.5451970613706352
 40
0.5451970613706352
 40
0.5544742739224805
 40
0.5544742739224805
 40
0.5544742739224805
 40
0.5646970461136818
 40
0.5646970461136818
 40
0.5646970461136818
 40
0.6027996767243738
 40
0.6027996767243738
 40
0.6027996767243738
 40
0.6306803034348698
 40
0.6306803034348698
 40
0.6306803034348698
 40
0.689228985194162
 40
0.689228985194162
 40
0.689228985194162
 40
0.718041918915397
 40
0.718041918915397
 40
0.718041918915397
 40
0.750573807305875
 40
0.750573807305875
 40
0.750573807305875
 40
0.7821833765975491
 40
0.7821833765975491
 40
0.7821833765975491
 40
0.8072889264253951
 40
0.8072889264253951
 40
0.8072889264253951
 40
0.8379715014743926
 40
0.8379715014743926
 40
0.8379715014743926
 40
0.8742305091131399
 40
0.8742305091131399
 40
0.8742305091131399
 40
0.9067719920063603
 40
0.9067719920063603
 40
0.9067719920063603
 40
0.9402428015838937
 40
0.9402428015838937
 40
0.9402428015838937
 40
0.968135107543712
 40
0.968135107543712
 40
0.968135107543712
 40
0.9811515169906766
 40
0.9811515169906766
 40
0.9811515169906766
 40
0.9904490147568737
 40
0.9904490147568737
 40
0.9904490147568737
 40
1.0
 40
1.0
 40
1.0
 40
1.0
 10
341.5
 20
170.00000000000003
 30
0.0
 10
341.49922325708104
 20
169.9825390794659
 30
0.0
 10
341.49823863809604
 20
169.98337074064975
 30
0.0
 10
341.49704614304426
 20
170.00249498355166
 30
0.0
 10
341.4915724185301
 20
170.10183758121485
 30
0.0
 10
341.48732109297595
 20
170.22894765141956
 30
0.0
 10
341.47600664003386
 20
170.32774594136004
 30
0.0
 10
341.4651452512438
 20
170.42929980521305
 30
0.0
 10
341.4470077994241
 20
170.50383534628654
 30
0.0
 10
341.42569711287797
 20
170.57319314854172
 30
0.0
 10
341.37634731165264
 20
170.7378927487445
 30
0.0
 10
341.31503913091683
 20
170.99948669206915
 30
0.0
 10
341.2417947580358
 20
171.24892820116884
 30
0.0
 10
341.13223231503036
 20
171.62463801492635
 30
0.0
 10
340.9863710261596
 20
171.95961779537427
 30
0.0
 10
340.82025868771353
 20
172.2925407709271
 30
0.0
 10
340.65561559305263
 20
172.62612473542393
 30
0.0
 10
340.46977946946384
 20
172.9517223380719
 30
0.0
 10
340.26275031694735
 20
173.26933357887143
 30
0.0
 10
339.83138918857674
 20
173.9243336882952
 30
0.0
 10
339.3097187488853
 20
174.51533272746454
 30
0.0
 10
338.71566408177597
 20
175.02795276523307
 30
0.0
 10
337.889941234436
 20
175.73984566356907
 30
0.0
 10
336.9175672961949
 20
176.2829266271705
 30
0.0
 10
335.8726915930362
 20
176.59774309220035
 30
0.0
 10
335.02437375815754
 20
176.85439615267316
 30
0.0
 10
334.1311498438251
 20
176.95997382191516
 30
0.0
 10
333.2462671815088
 20
176.9120976104348
 30
0.0
 10
331.09706051202346
 20
176.80053841091262
 30
0.0
 10
329.0269276180944
 20
175.78531381085313
 30
0.0
 10
327.5770560385098
 20
174.2028580746049
 30
0.0
 10
326.9084263408338
 20
173.47546725303548
 30
0.0
 10
326.3687073125885
 20
172.62709243953444
 30
0.0
 10
326.0099275903306
 20
171.70542090985342
 30
0.0
 10
325.68707197582063
 20
170.8798328690785
 30
0.0
 10
325.5132287349788
 20
169.99631403023565
 30
0.0
 10
325.5008105569964
 20
169.1098343466681
 30
0.0
 10
325.48613450652243
 20
168.1547262149714
 30
0.0
 10
325.65901133356357
 20
167.20085366285252
 30
0.0
 10
325.9745733842247
 20
166.30127547738556
 30
0.0
 10
326.3118386505031
 20
165.33516076510645
 30
0.0
 10
326.80640752798166
 20
164.43059714439786
 30
0.0
 10
327.38509472672365
 20
163.58988694352064
 30
0.0
 10
328.0810595018691
 20
162.58020156882338
 30
0.0
 10
328.8963792716111
 20
161.65861868533224
 30
0.0
 10
329.7587962702477
 20
160.78932491828428
 30
0.0
 10
330.4301721935841
 20
160.11317092342392
 30
0.0
 10
331.13214719743183
 20
159.46814068189
 30
0.0
 10
331.84581591189067
 20
158.8371473495794
 30
0.0
 10
333.4266128756004
 20
157.4402918763609
 30
0.0
 10
335.06749855669784
 20
156.11262789188808
 30
0.0
 10
336.62711759095396
 20
154.69157304108577
 30
0.0
 10
337.3308997152392
 20
154.0495704510916
 30
0.0
 10
338.0184560598409
 20
153.38913263753648
 30
0.0
 10
338.667216472037
 20
152.69073594404293
 30
0.0
 10
339.2225505815438
 20
152.09112822278286
 30
0.0
 10
339.75093313453505
 20
151.46827698566076
 30
0.0
 10
340.22072801517504
 20
150.7987417482922
 30
0.0
 10
340.3578409839802
 20
150.60288079195095
 30
0.0
 10
340.48897534564327
 20
150.4031344530014
 30
0.0
 10
340.61413110016343
 20
150.19950273144335
 30
0.0
 10
340.8099987945486
 20
149.87828110944056
 30
0.0
 10
340.99097046855474
 20
149.56017633584432
 30
0.0
 10
341.14383819855004
 20
149.21876344869014
 30
0.0
 10
341.2178241999627
 20
149.05021480725037
 30
0.0
 10
341.2908759363415
 20
148.84988619688113
 30
0.0
 10
341.34777392762805
 20
148.67500611136703
 30
0.0
 10
341.37674601920094
 20
148.58770118005287
 30
0.0
 10
341.40359982441436
 20
148.5049459230942
 30
0.0
 10
341.42833534326815
 20
148.4267403404905
 30
0.0
 10
341.45277744124064
 20
148.34614212450438
 30
0.0
 10
341.47471106976946
 20
148.2683324005676
 30
0.0
 10
341.4860019380362
 20
148.14721706088523
 30
0.0
 10
341.48890130024193
 20
148.1165005779912
 30
0.0
 10
341.4911345752264
 20
148.0974349138243
 30
0.0
 10
341.49314817098633
 20
148.06918325094313
 30
0.0
 10
341.49518742813143
 20
148.04314351997257
 30
0.0
 10
341.49702543573096
 20
148.0049029898173
 30
0.0
 10
341.49979853554316
 20
148.00012767116414
 30
0.0
 10
341.5001251986191
 20
148.00054954268728
 30
0.0
 10
341.50045186169564
 20
148.00097141421048
 30
0.0
 10
341.5007785247715
 20
148.0013932857336
 30
0.0
 10
341.50289690449364
 20
148.0099304613443
 30
0.0
 10
341.5044059764717
 20
148.03470998799202
 30
0.0
 10
341.50601342206323
 20
148.0563917284781
 30
0.0
 10
341.50775330476944
 20
148.07840122407683
 30
0.0
 10
341.5094931874762
 20
148.10041071967558
 30
0.0
 10
341.5112330701824
 20
148.1224202152743
 30
0.0
 10
341.52223662678705
 20
148.26610310435694
 30
0.0
 10
341.55117606910835
 20
148.36803003140906
 30
0.0
 10
341.58645703294616
 20
148.47317069788852
 30
0.0
 10
341.64188262176475
 20
148.6454008576961
 30
0.0
 10
341.71010204499726
 20
148.85791213261885
 30
0.0
 10
341.7879753675418
 20
149.05396133122608
 30
0.0
 10
341.91545662112435
 20
149.3751085907762
 30
0.0
 10
342.0743280045775
 20
149.66989707068998
 30
0.0
 10
342.24472669674816
 20
149.96371521536634
 30
0.0
 10
342.4336255242898
 20
150.287570102277
 30
0.0
 10
342.6374889633505
 20
150.60220773729867
 30
0.0
 10
342.85631701393027
 20
150.90762812043135
 30
0.0
 10
343.6730145137601
 20
152.04037205744748
 30
0.0
 10
344.6408289489191
 20
153.05425521724555
 30
0.0
 10
345.64858717219124
 20
154.0172130199956
 30
0.0
 10
346.3877384018691
 20
154.72127329768844
 30
0.0
 10
347.15340740035793
 20
155.39691185811057
 30
0.0
 10
347.92640067930415
 20
156.06339874952945
 30
0.0
 10
349.5489432656431
 20
157.46333234294184
 30
0.0
 10
351.21145240663367
 20
158.82008650418751
 30
0.0
 10
352.7545980395903
 20
160.309370191164
 30
0.0
 10
353.5125932614293
 20
161.0426803788589
 30
0.0
 10
354.2410064269936
 20
161.80886666319626
 30
0.0
 10
354.9011836458417
 20
162.6324074791026
 30
0.0
 10
355.6452689493635
 20
163.5612316909924
 30
0.0
 10
356.30476496834785
 20
164.5674536786388
 30
0.0
 10
356.7769348607914
 20
165.6636766960166
 30
0.0
 10
357.2361831001092
 20
166.7259416868668
 30
0.0
 10
357.50745662164763
 20
167.87793206551004
 30
0.0
 10
357.49989942746794
 20
169.0387217624277
 30
0.0
 10
357.495847873794
 20
169.95937776476453
 30
0.0
 10
357.3175578090109
 20
170.87848272240427
 30
0.0
 10
356.97870094964685
 20
171.73442609696377
 30
0.0
 10
356.566122745721
 20
172.7817196765659
 30
0.0
 10
355.92002684395993
 20
173.73239083813596
 30
0.0
 10
355.11682668209016
 20
174.51899710664745
 30
0.0
 10
354.167784653827
 20
175.4494326789879
 30
0.0
 10
352.9983714816114
 20
176.15486683863043
 30
0.0
 10
351.72985822738065
 20
176.55283874675948
 30
0.0
 10
350.59245135959475
 20
176.91113230724812
 30
0.0
 10
349.37344652370285
 20
177.01682408787477
 30
0.0
 10
348.19329484890426
 20
176.83765358046756
 30
0.0
 10
346.9789830229027
 20
176.6566824852507
 30
0.0
 10
345.81409707896995
 20
176.172039869115
 30
0.0
 10
344.8213536949678
 20
175.45192872742444
 30
0.0
 10
343.9926379406213
 20
174.8530747954911
 30
0.0
 10
343.2805993518034
 20
174.0967868355836
 30
0.0
 10
342.7201248996929
 20
173.24302751362717
 30
0.0
 10
342.45777754911757
 20
172.84369796627576
 30
0.0
 10
342.2303200955987
 20
172.42539679463312
 30
0.0
 10
342.03775253913676
 20
171.98812399869905
 30
0.0
 10
341.9000683840259
 20
171.67610873366087
 30
0.0
 10
341.7840850965327
 20
171.3563591204393
 30
0.0
 10
341.68980267665705
 20
171.0288751590342
 30
0.0
 10
341.5963426271981
 20
170.69281061127896
 30
0.0
 10
341.5151845501721
 20
170.34961752527911
 30
0.0
 10
341.49999999999994
 20
170.00000000000003
 30
0.0
  0
LINE
  5
3B
330
17
100
AcDbEntity
  8
CUT
100
AcDbLine
 10
6.0
 20
6.0000000000000275
 30
0.0
 11
95.04
 21
6.0000000000000275
 31
0.0
  0
LINE
  5
3C
330
17
100
AcDbEntity
  8
CUT
100
AcDbLine
 10
6.0
 20
264.0
 30
0.0
 11
6.0
 21
6.0000000000000275
 31
0.0
  0
LINE
  5
3D
330
17
100
AcDbEntity
  8
CUT
100
AcDbLine
 10
95.04
 20
2.7422508708241367e-14
 30
0.0
 11
125.04
 21
2.7422508708241367e-14
 31
0.0
  0
LINE
  5
3E
330
17
100
AcDbEntity
  8
CUT
100
AcDbLine
 10
95.04
 20
6.0000000000000275
 30
0.0
 11
95.04
 21
2.7422508708241367e-14
 31
0.0
  0
LINE
  5
3F
330
17
100
AcDbEntity
  8
CUT
100
AcDbLine
 10
125.04
 20
2.7422508708241367e-14
 30
0.0
 11
125.04
 21
6.0000000000000275
 31
0.0
  0
LINE
  5
40
330
17
100
AcDbEntity
  8
CUT
100
AcDbLine
 10
125.04
 20
6.0000000000000275
 30
0.0
 11
166.5
 21
6.0000000000000275
 31
0.0
  0
LINE
  5
41
330
17
100
AcDbEntity
  8
CUT
100
AcDbLine
 10
166.5
 20
6.0000000000000275
 30
0.0
 11
166.5
 21
28.00000000000003
 31
0.0
  0
LINE
  5
42
330
17
100
AcDbEntity
  8
CUT
100
AcDbLine
 10
166.5
 20
28.00000000000003
 30
0.0
 11
226.5
 21
28.00000000000003
 31
0.0
  0
LINE
  5
43
330
17
100
AcDbEntity
  8
CUT
100
AcDbLine
 10
226.5
 20
6.0000000000000275
 30
0.0
 11
267.96
 21
6.0000000000000275
 31
0.0
  0
LINE
  5
44
330
17
100
AcDbEntity
  8
CUT
100
AcDbLine
 10
226.5
 20
28.00000000000003
 30
0.0
 11
226.5
 21
6.0000000000000275
 31
0.0
  0
LINE
  5
45
330
17
100
AcDbEntity
  8
CUT
100
AcDbLine
 10
267.96
 20
2.7422508708241367e-14
 30
0.0
 11
297.96
 21
2.7422508708241367e-14
 31
0.0
  0
LINE
  5
46
330
17
100
AcDbEntity
  8
CUT
100
AcDbLine
 10
267.96
 20
6.0000000000000275
 30
0.0
 11
267.96
 21
2.7422508708241367e-14
 31
0.0
  0
LINE
  5
47
330
17
100
AcDbEntity
  8
CUT
100
AcDbLine
 10
297.96
 20
2.7422508708241367e-14
 30
0.0
 11
297.96
 21
6.0000000000000275
 31
0.0
  0
LINE
  5
48
330
17
100
AcDbEntity
  8
CUT
100
AcDbLine
 10
297.96
 20
6.0000000000000275
 30
0.0
 11
387.0
 21
6.0000000000000275
 31
0.0
  0
LINE
  5
49
330
17
100
AcDbEntity
  8
CUT
100
AcDbLine
 10
387.0
 20
6.0000000000000275
 30
0.0
 11
387.0
 21
264.0
 31
0.0
  0
LINE
  5
4A
330
17
100
AcDbEntity
  8
CUT
100
AcDbLine
 10
387.0
 20
264.0
 30
0.0
 11
6.0
 21
264.0
 31
0.0
  0
ENDSEC
  0
SECTION
  2
OBJECTS
  0
DICTIONARY
  5
A
330
0
100
AcDbDictionary
281
1
  3
ACAD_COLOR
350
B
  3
ACAD_GROUP
350
C
  3
ACAD_LAYOUT
350
D
  3
ACAD_MATERIAL
350
E
  3
ACAD_MLEADERSTYLE
350
F
  3
ACAD_MLINESTYLE
350
10
  3
ACAD_PLOTSETTINGS
350
11
  3
ACAD_PLOTSTYLENAME
350
12
  3
ACAD_SCALELIST
350
14
  3
ACAD_TABLESTYLE
350
15
  3
ACAD_VISUALSTYLE
350
16
  3
EZDXF_META
350
2D
  0
DICTIONARY
  5
B
330
A
100
AcDbDictionary
281
1
  0
DICTIONARY
  5
C
330
A
100
AcDbDictionary
281
1
  0
DICTIONARY
  5
D
330
A
100
AcDbDictionary
281
1
  3
Model
350
1A
  3
Layout1
350
1E
  0
DICTIONARY
  5
E
330
A
100
AcDbDictionary
281
1
  3
ByBlock
350
1F
  3
ByLayer
350
20
  3
Global
350
21
  0
DICTIONARY
  5
F
330
A
100
AcDbDictionary
281
1
  3
Standard
350
2C
  0
DICTIONARY
  5
10
330
A
100
AcDbDictionary
281
1
  3
Standard
350
22
  0
DICTIONARY
  5
11
330
A
100
AcDbDictionary
281
1
  0
ACDBDICTIONARYWDFLT
  5
12
330
A
100
AcDbDictionary
281
1
  3
Normal
350
13
100
AcDbDictionaryWithDefault
340
13
  0
ACDBPLACEHOLDER
  5
13
330
12
  0
DICTIONARY
  5
14
330
A
100
AcDbDictionary
281
1
  0
DICTIONARY
  5
15
330
A
100
AcDbDictionary
281
1
  0
DICTIONARY
  5
16
330
A
100
AcDbDictionary
281
1
  0
LAYOUT
  5
1A
330
D
100
AcDbPlotSettings
  1

  4
A3
  6

 40
7.5
 41
20.0
 42
7.5
 43
20.0
 44
420.0
 45
297.0
 46
0.0
 47
0.0
 48
0.0
 49
0.0
140
0.0
141
0.0
142
1.0
143
1.0
 70
1024
 72
1
 73
0
 74
5
  7

 75
16
 76
0
 77
2
 78
300
147
1.0
148
0.0
149
0.0
100
AcDbLayout
  1
Model
 70
1
 71
0
 10
0.0
 20
0.0
 11
420.0
 21
297.0
 12
0.0
 22
0.0
 32
0.0
 14
1e+20
 24
1e+20
 34
1e+20
 15
-1e+20
 25
-1e+20
 35
-1e+20
146
0.0
 13
0.0
 23
0.0
 33
0.0
 16
1.0
 26
0.0
 36
0.0
 17
0.0
 27
1.0
 37
0.0
 76
1
330
17
  0
LAYOUT
  5
1E
330
D
100
AcDbPlotSettings
  1

  4
A3
  6

 40
7.5
 41
20.0
 42
7.5
 43
20.0
 44
420.0
 45
297.0
 46
0.0
 47
0.0
 48
0.0
 49
0.0
140
0.0
141
0.0
142
1.0
143
1.0
 70
0
 72
1
 73
0
 74
5
  7

 75
16
 76
0
 77
2
 78
300
147
1.0
148
0.0
149
0.0
100
AcDbLayout
  1
Layout1
 70
1
 71
1
 10
0.0
 20
0.0
 11
420.0
 21
297.0
 12
0.0
 22
0.0
 32
0.0
 14
1e+20
 24
1e+20
 34
1e+20
 15
-1e+20
 25
-1e+20
 35
-1e+20
146
0.0
 13
0.0
 23
0.0
 33
0.0
 16
1.0
 26
0.0
 36
0.0
 17
0.0
 27
1.0
 37
0.0
 76
1
330
1B
  0
MATERIAL
  5
1F
102
{ACAD_REACTORS
330
E
102
}
330
E
100
AcDbMaterial
  1
ByBlock
  2

 70
0
 40
1.0
 71
1
 41
1.0
 91
-1023410177
 42
1.0
 72
1
  3

 73
1
 74
1
 75
1
 44
0.5
 73
0
 45
1.0
 46
1.0
 77
1
  4

 78
1
 79
1
170
1
 48
1.0
171
1
  6

172
1
173
1
174
1
140
1.0
141
1.0
175
1
  7

176
1
177
1
178
1
143
1.0
179
1
  8

270
1
271
1
272
1
145
1.0
146
1.0
273
1
  9

274
1
275
1
276
1
 42
1.0
 72
1
  3

 73
1
 74
1
 75
1
 94
63
  0
MATERIAL
  5
20
102
{ACAD_REACTORS
330
E
102
}
330
E
100
AcDbMaterial
  1
ByLayer
  2

 70
0
 40
1.0
 71
1
 41
1.0
 91
-1023410177
 42
1.0
 72
1
  3

 73
1
 74
1
 75
1
 44
0.5
 73
0
 45
1.0
 46
1.0
 77
1
  4

 78
1
 79
1
170
1
 48
1.0
171
1
  6

172
1
173
1
174
1
140
1.0
141
1.0
175
1
  7

176
1
177
1
178
1
143
1.0
179
1
  8

270
1
271
1
272
1
145
1.0
146
1.0
273
1
  9

274
1
275
1
276
1
 42
1.0
 72
1
  3

 73
1
 74
1
 75
1
 94
63
  0
MATERIAL
  5
21
102
{ACAD_REACTORS
330
E
102
}
330
E
100
AcDbMaterial
  1
Global
  2

 70
0
 40
1.0
 71
1
 41
1.0
 91
-1023410177
 42
1.0
 72
1
  3

 73
1
 74
1
 75
1
 44
0.5
 73
0
 45
1.0
 46
1.0
 77
1
  4

 78
1
 79
1
170
1
 48
1.0
171
1
  6

172
1
173
1
174
1
140
1.0
141
1.0
175
1
  7

176
1
177
1
178
1
143
1.0
179
1
  8

270
1
271
1
272
1
145
1.0
146
1.0
273
1
  9

274
1
275
1
276
1
 42
1.0
 72
1
  3

 73
1
 74
1
 75
1
 94
63
  0
MLINESTYLE
  5
22
102
{ACAD_REACTORS
330
10
102
}
330
10
100
AcDbMlineStyle
  2
Standard
 70
0
  3

 62
256
 51
90.0
 52
90.0
 71
2
 49
0.5
 62
256
  6
BYLAYER
 49
-0.5
 62
256
  6
BYLAYER
  0
MLEADERSTYLE
  5
2C
102
{ACAD_REACTORS
330
F
102
}
330
F
100
AcDbMLeaderStyle
179
2
170
2
171
1
172
0
 90
2
 40
0.0
 41
0.0
173
1
 91
-1056964608
 92
-2
290
1
 42
2.0
291
1
 43
8.0
  3
Standard
 44
4.0
300

342
29
174
1
175
1
176
0
178
1
 93
-1056964608
 45
4.0
292
0
297
0
 46
4.0
 94
-1056964608
 47
1.0
 49
1.0
140
1.0
294
1
141
0.0
177
0
142
1.0
295
0
296
0
143
3.75
271
0
272
9
273
9
  0
DICTIONARY
  5
2D
330
A
100
AcDbDictionary
280
1
281
1
  3
CREATED_BY_EZDXF
350
2E
  3
WRITTEN_BY_EZDXF
350
4E
  0
DICTIONARYVAR
  5
2E
330
2D
100
DictionaryVariables
280
0
  1
0.0 @ 2000-01-01T00:00:00.000000+00:00
  0
DICTIONARYVAR
  5
4E
330
2D
100
DictionaryVariables
280
0
  1
0.0 @ 2000-01-01T00:00:00.000000+00:00
  0
ENDSEC
  0
EOF
