  0
SECTION
  2
HEADER
  9
$ACADVER
  1
AC1027
  9
$ACADMAINTVER
 70
105
  9
$DWGCODEPAGE
  3
ANSI_1252
  9
$LASTSAVEDBY
  1
ezdxf
  9
$REQUIREDVERSIONS
160
0
  9
$INSBASE
 10
0.0
 20
0.0
 30
0.0
  9
$EXTMIN
 10
1e+20
 20
1e+20
 30
1e+20
  9
$EXTMAX
 10
-1e+20
 20
-1e+20
 30
-1e+20
  9
$LIMMIN
 10
0.0
 20
0.0
  9
$LIMMAX
 10
420.0
 20
297.0
  9
$ORTHOMODE
 70
0
  9
$REGENMODE
 70
1
  9
$FILLMODE
 70
1
  9
$QTEXTMODE
 70
0
  9
$MIRRTEXT
 70
1
  9
$LTSCALE
 40
1.0
  9
$ATTMODE
 70
1
  9
$TEXTSIZE
 40
2.5
  9
$TRACEWID
 40
1.0
  9
$TEXTSTYLE
  7
Standard
  9
$CLAYER
  8
0
  9
$CELTYPE
  6
ByLayer
  9
$CECOLOR
 62
256
  9
$CELTSCALE
 40
1.0
  9
$DISPSILH
 70
0
  9
$DIMSCALE
 40
1.0
  9
$DIMASZ
 40
2.5
  9
$DIMEXO
 40
0.625
  9
$DIMDLI
 40
3.75
  9
$DIMRND
 40
0.0
  9
$DIMDLE
 40
0.0
  9
$DIMEXE
 40
1.25
  9
$DIMTP
 40
0.0
  9
$DIMTM
 40
0.0
  9
$DIMTXT
 40
2.5
  9
$DIMCEN
 40
2.5
  9
$DIMTSZ
 40
0.0
  9
$DIMTOL
 70
0
  9
$DIMLIM
 70
0
  9
$DIMTIH
 70
0
  9
$DIMTOH
 70
0
  9
$DIMSE1
 70
0
  9
$DIMSE2
 70
0
  9
$DIMTAD
 70
1
  9
$DIMZIN
 70
8
  9
$DIMBLK
  1

  9
$DIMASO
 70
1
  9
$DIMSHO
 70
1
  9
$DIMPOST
  1

  9
$DIMAPOST
  1

  9
$DIMALT
 70
0
  9
$DIMALTD
 70
3
  9
$DIMALTF
 40
0.03937007874
  9
$DIMLFAC
 40
1.0
  9
$DIMTOFL
 70
1
  9
$DIMTVP
 40
0.0
  9
$DIMTIX
 70
0
  9
$DIMSOXD
 70
0
  9
$DIMSAH
 70
0
  9
$DIMBLK1
  1

  9
$DIMBLK2
  1

  9
$DIMSTYLE
  2
ISO-25
  9
$DIMCLRD
 70
0
  9
$DIMCLRE
 70
0
  9
$DIMCLRT
 70
0
  9
$DIMTFAC
 40
1.0
  9
$DIMGAP
 40
0.625
  9
$DIMJUST
 70
0
  9
$DIMSD1
 70
0
  9
$DIMSD2
 70
0
  9
$DIMTOLJ
 70
0
  9
$DIMTZIN
 70
8
  9
$DIMALTZ
 70
0
  9
$DIMALTTZ
 70
0
  9
$DIMUPT
 70
0
  9
$DIMDEC
 70
2
  9
$DIMTDEC
 70
2
  9
$DIMALTU
 70
2
  9
$DIMALTTD
 70
3
  9
$DIMTXSTY
  7
Standard
  9
$DIMAUNIT
 70
0
  9
$DIMADEC
 70
0
  9
$DIMALTRND
 40
0.0
  9
$DIMAZIN
 70
0
  9
$DIMDSEP
 70
44
  9
$DIMATFIT
 70
3
  9
$DIMFRAC
 70
0
  9
$DIMLDRBLK
  1

  9
$DIMLUNIT
 70
2
  9
$DIMLWD
 70
-2
  9
$DIMLWE
 70
-2
  9
$DIMTMOVE
 70
0
  9
$DIMFXL
 40
1.0
  9
$DIMFXLON
 70
0
  9
$DIMJOGANG
 40
0.785398163397
  9
$DIMTFILL
 70
0
  9
$DIMTFILLCLR
 70
0
  9
$DIMARCSYM
 70
0
  9
$DIMLTYPE
  6

  9
$DIMLTEX1
  6

  9
$DIMLTEX2
  6

  9
$DIMTXTDIRECTION
 70
0
  9
$LUNITS
 70
2
  9
$LUPREC
 70
4
  9
$SKETCHINC
 40
1.0
  9
$FILLETRAD
 40
10.0
  9
$AUNITS
 70
0
  9
$AUPREC
 70
2
  9
$MENU
  1
.
  9
$ELEVATION
 40
0.0
  9
$PELEVATION
 40
0.0
  9
$THICKNESS
 40
0.0
  9
$LIMCHECK
 70
0
  9
$CHAMFERA
 40
0.0
  9
$CHAMFERB
 40
0.0
  9
$CHAMFERC
 40
0.0
  9
$CHAMFERD
 40
0.0
  9
$SKPOLY
 70
0
  9
$TDCREATE
 40
2451545.0
  9
$TDUCREATE
 40
2451545.0
  9
$TDUPDATE
 40
2451545.0
  9
$TDUUPDATE
 40
2451545.0
  9
$TDINDWG
 40
0.0
  9
$TDUSRTIMER
 40
0.0
  9
$USRTIMER
 70
1
  9
$ANGBASE
 50
0.0
  9
$ANGDIR
 70
0
  9
$PDMODE
 70
0
  9
$PDSIZE
 40
0.0
  9
$PLINEWID
 40
0.0
  9
$SPLFRAME
 70
0
  9
$SPLINETYPE
 70
6
  9
$SPLINESEGS
 70
8
  9
$HANDSEED
  5
296
  9
$SURFTAB1
 70
6
  9
$SURFTAB2
 70
6
  9
$SURFTYPE
 70
6
  9
$SURFU
 70
6
  9
$SURFV
 70
6
  9
$UCSBASE
  2

  9
$UCSNAME
  2

  9
$UCSORG
 10
0.0
 20
0.0
 30
0.0
  9
$UCSXDIR
 10
1.0
 20
0.0
 30
0.0
  9
$UCSYDIR
 10
0.0
 20
1.0
 30
0.0
  9
$UCSORTHOREF
  2

  9
$UCSORTHOVIEW
 70
0
  9
$UCSORGTOP
 10
0.0
 20
0.0
 30
0.0
  9
$UCSORGBOTTOM
 10
0.0
 20
0.0
 30
0.0
  9
$UCSORGLEFT
 10
0.0
 20
0.0
 30
0.0
  9
$UCSORGRIGHT
 10
0.0
 20
0.0
 30
0.0
  9
$UCSORGFRONT
 10
0.0
 20
0.0
 30
0.0
  9
$UCSORGBACK
 10
0.0
 20
0.0
 30
0.0
  9
$PUCSBASE
  2

  9
$PUCSNAME
  2

  9
$PUCSORG
 10
0.0
 20
0.0
 30
0.0
  9
$PUCSXDIR
 10
1.0
 20
0.0
 30
0.0
  9
$PUCSYDIR
 10
0.0
 20
1.0
 30
0.0
  9
$PUCSORTHOREF
  2

  9
$PUCSORTHOVIEW
 70
0
  9
$PUCSORGTOP
 10
0.0
 20
0.0
 30
0.0
  9
$PUCSORGBOTTOM
 10
0.0
 20
0.0
 30
0.0
  9
$PUCSORGLEFT
 10
0.0
 20
0.0
 30
0.0
  9
$PUCSORGRIGHT
 10
0.0
 20
0.0
 30
0.0
  9
$PUCSORGFRONT
 10
0.0
 20
0.0
 30
0.0
  9
$PUCSORGBACK
 10
0.0
 20
0.0
 30
0.0
  9
$USERI1
 70
0
  9
$USERI2
 70
0
  9
$USERI3
 70
0
  9
$USERI4
 70
0
  9
$USERI5
 70
0
  9
$USERR1
 40
0.0
  9
$USERR2
 40
0.0
  9
$USERR3
 40
0.0
  9
$USERR4
 40
0.0
  9
$USERR5
 40
0.0
  9
$WORLDVIEW
 70
1
  9
$SHADEDGE
 70
3
  9
$SHADEDIF
 70
70
  9
$TILEMODE
 70
1
  9
$MAXACTVP
 70
64
  9
$PINSBASE
 10
0.0
 20
0.0
 30
0.0
  9
$PLIMCHECK
 70
0
  9
$PEXTMIN
 10
1e+20
 20
1e+20
 30
1e+20
  9
$PEXTMAX
 10
-1e+20
 20
-1e+20
 30
-1e+20
  9
$PLIMMIN
 10
0.0
 20
0.0
  9
$PLIMMAX
 10
420.0
 20
297.0
  9
$UNITMODE
 70
0
  9
$VISRETAIN
 70
1
  9
$PLINEGEN
 70
0
  9
$PSLTSCALE
 70
1
  9
$TREEDEPTH
 70
3020
  9
$CMLSTYLE
  2
Standard
  9
$CMLJUST
 70
0
  9
$CMLSCALE
 40
20.0
  9
$PROXYGRAPHICS
 70
1
  9
$MEASUREMENT
 70
1
  9
$CELWEIGHT
370
-1
  9
$ENDCAPS
280
0
  9
$JOINSTYLE
280
0
  9
$LWDISPLAY
290
0
  9
$INSUNITS
 70
4
  9
$HYPERLINKBASE
  1

  9
$STYLESHEET
  1

  9
$XEDIT
290
1
  9
$CEPSNTYPE
380
0
  9
$PSTYLEMODE
290
1
  9
$FINGERPRINTGUID
  2
{00000000-0000-0000-0000-000000000000}
  9
$VERSIONGUID
  2
{00000000-0000-0000-0000-000000000000}
  9
$EXTNAMES
290
1
  9
$PSVPSCALE
 40
0.0
  9
$OLESTARTUP
290
0
  9
$SORTENTS
280
127
  9
$INDEXCTL
280
0
  9
$HIDETEXT
280
1
  9
$XCLIPFRAME
280
1
  9
$HALOGAP
280
0
  9
$OBSCOLOR
 70
257
  9
$OBSLTYPE
280
0
  9
$INTERSECTIONDISPLAY
280
0
  9
$INTERSECTIONCOLOR
 70
257
  9
$DIMASSOC
280
2
  9
$PROJECTNAME
  1

  9
$CAMERADISPLAY
290
0
  9
$LENSLENGTH
 40
50.0
  9
$CAMERAHEIGHT
 40
0.0
  9
$STEPSPERSEC
 40
24.0
  9
$STEPSIZE
 40
100.0
  9
$3DDWFPREC
 40
2.0
  9
$PSOLWIDTH
 40
0.005
  9
$PSOLHEIGHT
 40
0.08
  9
$LOFTANG1
 40
1.570796326795
  9
$LOFTANG2
 40
1.570796326795
  9
$LOFTMAG1
 40
0.0
  9
$LOFTMAG2
 40
0.0
  9
$LOFTPARAM
 70
7
  9
$LOFTNORMALS
280
1
  9
$LATITUDE
 40
37.795
  9
$LONGITUDE
 40
-122.394
  9
$NORTHDIRECTION
 40
0.0
  9
$TIMEZONE
 70
-8000
  9
$LIGHTGLYPHDISPLAY
280
1
  9
$TILEMODELIGHTSYNCH
280
1
  9
$CMATERIAL
347
20
  9
$SOLIDHIST
280
0
  9
$SHOWHIST
280
1
  9
$DWFFRAME
280
2
  9
$DGNFRAME
280
2
  9
$REALWORLDSCALE
290
1
  9
$INTERFERECOLOR
 62
256
  9
$CSHADOW
280
0
  9
$SHADOWPLANELOCATION
 40
0.0
  0
ENDSEC
  0
SECTION
  2
CLASSES
  0
CLASS
  1
ACDBDETAILVIEWSTYLE
  2
AcDbDetailViewStyle
  3
ObjectDBX Classes
 90
1025
 91
0
280
0
281
0
  0
CLASS
  1
ACDBDICTIONARYWDFLT
  2
AcDbDictionaryWithDefault
  3
ObjectDBX Classes
 90
0
 91
0
280
0
281
0
  0
CLASS
  1
ACDBPLACEHOLDER
  2
AcDbPlaceHolder
  3
ObjectDBX Classes
 90
0
 91
0
280
0
281
0
  0
CLASS
  1
ACDBSECTIONVIEWSTYLE
  2
AcDbSectionViewStyle
  3
ObjectDBX Classes
 90
1025
 91
0
280
0
281
0
  0
CLASS
  1
CELLSTYLEMAP
  2
AcDbCellStyleMap
  3
ObjectDBX Classes
 90
1152
 91
0
280
0
281
0
  0
CLASS
  1
DICTIONARYVAR
  2
AcDbDictionaryVar
  3
ObjectDBX Classes
 90
0
 91
0
280
0
281
0
  0
CLASS
  1
LAYOUT
  2
AcDbLayout
  3
ObjectDBX Classes
 90
0
 91
0
280
0
281
0
  0
CLASS
  1
MATERIAL
  2
AcDbMaterial
  3
ObjectDBX Classes
 90
1153
 91
0
280
0
281
0
  0
CLASS
  1
MENTALRAYRENDERSETTINGS
  2
AcDbMentalRayRenderSettings
  3
SCENEOE
 90
1024
 91
0
280
0
281
0
  0
CLASS
  1
MLEADERSTYLE
  2
AcDbMLeaderStyle
  3
ACDB_MLEADERSTYLE_CLASS
 90
4095
 91
0
280
0
281
0
  0
CLASS
  1
RASTERVARIABLES
  2
AcDbRasterVariables
  3
ISM
 90
0
 91
0
280
0
281
0
  0
CLASS
  1
SCALE
  2
AcDbScale
  3
ObjectDBX Classes
 90
1153
 91
0
280
0
281
0
  0
CLASS
  1
SUN
  2
AcDbSun
  3
SCENEOE
 90
1153
 91
0
280
0
281
0
  0
CLASS
  1
TABLESTYLE
  2
AcDbTableStyle
  3
ObjectDBX Classes
 90
4095
 91
0
280
0
281
0
  0
CLASS
  1
VISUALSTYLE
  2
AcDbVisualStyle
  3
ObjectDBX Classes
 90
4095
 91
0
280
0
281
0
  0
ENDSEC
  0
SECTION
  2
TABLES
  0
TABLE
  2
VPORT
  5
8
330
0
100
AcDbSymbolTable
 70
1
  0
VPORT
  5
292
330
8
100
AcDbSymbolTableRecord
100
AcDbViewportTableRecord
  2
*Active
 70
0
 10
0.0
 20
0.0
 11
1.0
 21
1.0
 12
93.5
 22
150.0
 13
0.0
 23
0.0
 14
0.5
 24
0.5
 15
0.5
 25
0.5
 16
0.0
 26
0.0
 36
1.0
 17
0.0
 27
0.0
 37
0.0
 40
222.39999999999998
 41
1.34
 42
50.0
 43
0.0
 44
0.0
 50
0.0
 51
0.0
 71
0
 72
1000
 73
1
 74
3
 75
0
 76
0
 77
0
 78
0
281
0
 65
1
110
0.0
120
0.0
130
0.0
111
1.0
121
0.0
131
0.0
112
0.0
122
1.0
132
0.0
 79
0
146
0.0
  0
ENDTAB
  0
TABLE
  2
LTYPE
  5
2
330
0
100
AcDbSymbolTable
 70
3
  0
LTYPE
  5
24
330
2
100
AcDbSymbolTableRecord
100
AcDbLinetypeTableRecord
  2
ByBlock
 70
0
  3

 72
65
 73
0
 40
0.0
  0
LTYPE
  5
25
330
2
100
AcDbSymbolTableRecord
100
AcDbLinetypeTableRecord
  2
ByLayer
 70
0
  3

 72
65
 73
0
 40
0.0
  0
LTYPE
  5
26
330
2
100
AcDbSymbolTableRecord
100
AcDbLinetypeTableRecord
  2
Continuous
 70
0
  3

 72
65
 73
0
 40
0.0
  0
ENDTAB
  0
TABLE
  2
LAYER
  5
1
330
0
100
AcDbSymbolTable
 70
4
  0
LAYER
  5
27
330
1
100
AcDbSymbolTableRecord
100
AcDbLayerTableRecord
  2
0
 70
0
 62
7
  6
Continuous
370
-3
390
13
347
21
  0
LAYER
  5
28
330
1
100
AcDbSymbolTableRecord
100
AcDbLayerTableRecord
  2
Defpoints
 70
0
 62
7
  6
Continuous
290
0
370
-3
390
13
347
21
  0
LAYER
  5
2F
330
1
100
AcDbSymbolTableRecord
100
AcDbLayerTableRecord
  2
CUT
 70
0
 62
7
  6
Continuous
370
-3
390
13
347
21
  0
LAYER
  5
40
330
1
100
AcDbSymbolTableRecord
100
AcDbLayerTableRecord
  2
ENGRAVE
 70
0
 62
7
  6
Continuous
370
-3
390
13
347
21
  0
ENDTAB
  0
TABLE
  2
STYLE
  5
5
330
0
100
AcDbSymbolTable
 70
1
  0
STYLE
  5
29
330
5
100
AcDbSymbolTableRecord
100
AcDbTextStyleTableRecord
  2
Standard
 70
0
 40
0.0
 41
1.0
 50
0.0
 71
0
 42
2.5
  3
txt
  4

  0
ENDTAB
  0
TABLE
  2
VIEW
  5
7
330
0
100
AcDbSymbolTable
 70
0
  0
ENDTAB
  0
TABLE
  2
UCS
  5
6
330
0
100
AcDbSymbolTable
 70
0
  0
ENDTAB
  0
TABLE
  2
APPID
  5
3
330
0
100
AcDbSymbolTable
 70
3
  0
APPID
  5
2A
330
3
100
AcDbSymbolTableRecord
100
AcDbRegAppTableRecord
  2
ACAD
 70
0
  0
APPID
  5
293
330
3
100
AcDbSymbolTableRecord
100
AcDbRegAppTableRecord
  2
HATCHBACKGROUNDCOLOR
 70
0
  0
APPID
  5
294
330
3
100
AcDbSymbolTableRecord
100
AcDbRegAppTableRecord
  2
EZDXF
 70
0
  0
ENDTAB
  0
TABLE
  2
DIMSTYLE
  5
4
330
0
100
AcDbSymbolTable
 70
1
100
AcDbDimStyleTable
  0
DIMSTYLE
105
2B
330
4
100
AcDbSymbolTableRecord
100
AcDbDimStyleTableRecord
  2
Standard
 70
0
 40
1.0
 41
2.5
 42
0.625
 43
3.75
 44
1.25
 45
0.0
 46
0.0
 47
0.0
 48
0.0
 49
2.5
140
2.5
141
2.5
142
0.0
143
0.03937007874
144
1.0
145
0.0
146
1.0
147
0.625
148
0.0
 69
0
 70
0
 71
0
 72
0
 73
0
 74
0
 75
0
 76
0
 77
1
 78
8
 79
3
170
0
171
3
172
1
173
0
174
0
175
0
176
0
177
0
178
0
179
2
271
2
272
2
273
2
274
3
275
0
276
0
277
2
278
44
279
0
280
0
281
0
282
0
283
0
284
8
285
0
286
0
288
0
289
3
290
0
371
-2
372
-2
  0
ENDTAB
  0
TABLE
  2
BLOCK_RECORD
  5
9
330
0
100
AcDbSymbolTable
 70
2
  0
BLOCK_RECORD
  5
17
330
9
100
AcDbSymbolTableRecord
100
AcDbBlockTableRecord
  2
*Model_Space
340
1A
 70
0
280
1
281
0
  0
BLOCK_RECORD
  5
1B
330
9
100
AcDbSymbolTableRecord
100
AcDbBlockTableRecord
  2
*Paper_Space
340
1E
 70
0
280
1
281
0
  0
ENDTAB
  0
ENDSEC
  0
SECTION
  2
BLOCKS
  0
BLOCK
  5
18
330
17
100
AcDbEntity
  8
0
100
AcDbBlockBegin
  2
*Model_Space
 70
0
 10
0.0
 20
0.0
 30
0.0
  3
*Model_Space
  1

  0
ENDBLK
  5
19
330
17
100
AcDbEntity
  8
0
100
AcDbBlockEnd
  0
BLOCK
  5
1C
330
1B
100
AcDbEntity
  8
0
100
AcDbBlockBegin
  2
*Paper_Space
 70
0
 10
0.0
 20
0.0
 30
0.0
  3
*Paper_Space
  1

  0
ENDBLK
  5
1D
330
1B
100
AcDbEntity
  8
0
100
AcDbBlockEnd
  0
ENDSEC
  0
SECTION
  2
ENTITIES
  0
ARC
  5
30
330
17
100
AcDbEntity
  8
CUT
100
AcDbCircle
 10
45.09999999999991
 20
71.3
 30
0.0
 40
32.5
100
AcDbArc
 50
180.0
 51
270.0
  0
ARC
  5
31
330
17
100
AcDbEntity
  8
CUT
100
AcDbCircle
 10
45.09999999999974
 20
228.7
 30
0.0
 40
16.5
100
AcDbArc
 50
90.0
 51
180.0
  0
ARC
  5
32
330
17
100
AcDbEntity
  8
CUT
100
AcDbCircle
 10
45.09999999999974
 20
71.3
 30
0.0
 40
16.5
100
AcDbArc
 50
180.0
 51
270.0
  0
ARC
  5
33
330
17
100
AcDbEntity
  8
CUT
100
AcDbCircle
 10
45.09999999999991
 20
228.7
 30
0.0
 40
32.5
100
AcDbArc
 50
90.0
 51
180.0
  0
ARC
  5
34
330
17
100
AcDbEntity
  8
CUT
100
AcDbCircle
 10
141.89999999439215
 20
228.7
 30
0.0
 40
16.5
100
AcDbArc
 50
0.0
 51
90.0
  0
ARC
  5
35
330
17
100
AcDbEntity
  8
CUT
100
AcDbCircle
 10
141.89999999696514
 20
71.3
 30
0.0
 40
32.5
100
AcDbArc
 50
270.0
 51
360.0
  0
ARC
  5
36
330
17
100
AcDbEntity
  8
CUT
100
AcDbCircle
 10
141.89999999439215
 20
71.3
 30
0.0
 40
16.5
100
AcDbArc
 50
270.0
 51
360.0
  0
ARC
  5
37
330
17
100
AcDbEntity
  8
CUT
100
AcDbCircle
 10
141.89999999696514
 20
228.7
 30
0.0
 40
32.5
100
AcDbArc
 50
0.0
 51
90.0
  0
LINE
  5
38
330
17
100
AcDbEntity
  8
CUT
100
AcDbLine
 10
12.60000000000008
 20
228.7
 30
0.0
 11
12.60000000000008
 21
71.3
 31
0.0
  0
LINE
  5
39
330
17
100
AcDbEntity
  8
CUT
100
AcDbLine
 10
28.60000000000025
 20
71.3
 30
0.0
 11
28.60000000000025
 21
228.7
 31
0.0
  0
LINE
  5
3A
330
17
100
AcDbEntity
  8
CUT
100
AcDbLine
 10
45.09999999999991
 20
38.8
 30
0.0
 11
141.89999999696514
 21
38.8
 31
0.0
  0
LINE
  5
3B
330
17
100
AcDbEntity
  8
CUT
100
AcDbLine
 10
45.099999999999746
 20
245.2
 30
0.0
 11
141.89999999439215
 21
245.2
 31
0.0
  0
LINE
  5
3C
330
17
100
AcDbEntity
  8
CUT
100
AcDbLine
 10
141.89999999439215
 20
54.8
 30
0.0
 11
45.099999999999746
 21
54.8
 31
0.0
  0
LINE
  5
3D
330
17
100
AcDbEntity
  8
CUT
100
AcDbLine
 10
141.89999999696514
 20
261.2
 30
0.0
 11
45.09999999999991
 21
261.2
 31
0.0
  0
LINE
  5
3E
330
17
100
AcDbEntity
  8
CUT
100
AcDbLine
 10
158.40000000000026
 20
228.7
 30
0.0
 11
158.40000000000026
 21
71.3
 31
0.0
  0
LINE
  5
3F
330
17
100
AcDbEntity
  8
CUT
100
AcDbLine
 10
174.4000000000001
 20
71.3
 30
0.0
 11
174.4000000000001
 21
228.7
 31
0.0
  0
SPLINE
  5
41
330
17
100
AcDbEntity
  8
ENGRAVE
100
AcDbSpline
 70
0
 71
2
 72
6
 73
3
 74
0
 40
0.0
 40
0.0
 40
0.0
 40
1.0
 40
1.0
 40
1.0
 10
72.45655356043562
 20
250.43854095065404
 30
0.0
 10
72.28605714116479
 20
250.6090373699249
 30
0.0
 10
72.31903565678978
 20
250.7410230470082
 30
0.0
  0
SPLINE
  5
42
330
17
100
AcDbEntity
  8
ENGRAVE
100
AcDbSpline
 70
0
 71
2
 72
6
 73
3
 74
0
 40
0.0
 40
0.0
 40
0.0
 40
1.0
 40
1.0
 40
1.0
 10
72.31903565678978
 20
250.7410230470082
 30
0.0
 10
72.34105714116478
 20
250.80701588554987
 30
0.0
 10
72.39605714116479
 20
250.86201588554988
 30
0.0
  0
SPLINE
  5
43
330
17
100
AcDbEntity
  8
ENGRAVE
100
AcDbSpline
 70
0
 71
2
 72
6
 73
3
 74
0
 40
0.0
 40
0.0
 40
0.0
 40
1.0
 40
1.0
 40
1.0
 10
73.00105714116478
 20
250.1140373699249
 30
0.0
 10
72.62704997970646
 20
250.26804453138323
 30
0.0
 10
72.45655356043562
 20
250.43854095065404
 30
0.0
  0
SPLINE
  5
44
330
17
100
AcDbEntity
  8
ENGRAVE
100
AcDbSpline
 70
0
 71
2
 72
6
 73
3
 74
0
 40
0.0
 40
0.0
 40
0.0
 40
1.0
 40
1.0
 40
1.0
 10
72.63804281824811
 20
252.22052662773737
 30
0.0
 10
72.57204997970645
 20
252.43503020846654
 30
0.0
 10
72.57204997970645
 20
252.61102304700822
 30
0.0
  0
SPLINE
  5
45
330
17
100
AcDbEntity
  8
ENGRAVE
100
AcDbSpline
 70
0
 71
2
 72
6
 73
3
 74
0
 40
0.0
 40
0.0
 40
0.0
 40
1.0
 40
1.0
 40
1.0
 10
72.78105714116478
 20
252.00602304700823
 30
0.0
 10
72.70403565678978
 20
252.00602304700823
 30
0.0
 10
72.63804281824811
 20
252.22052662773737
 30
0.0
  0
SPLINE
  5
46
330
17
100
AcDbEntity
  8
ENGRAVE
100
AcDbSpline
 70
0
 71
2
 72
6
 73
3
 74
0
 40
0.0
 40
0.0
 40
0.0
 40
1.0
 40
1.0
 40
1.0
 10
72.39605714116479
 20
250.86201588554988
 30
0.0
 10
72.45105714116478
 20
250.9170158855499
 30
0.0
 10
72.64355714116478
 20
250.91151946627906
 30
0.0
  0
SPLINE
  5
47
330
17
100
AcDbEntity
  8
ENGRAVE
100
AcDbSpline
 70
0
 71
2
 72
6
 73
3
 74
0
 40
0.0
 40
0.0
 40
0.0
 40
1.0
 40
1.0
 40
1.0
 10
72.57204997970645
 20
252.61102304700822
 30
0.0
 10
72.57204997970645
 20
252.9410230470082
 30
0.0
 10
72.77554281824811
 20
253.26003020846656
 30
0.0
  0
SPLINE
  5
48
330
17
100
AcDbEntity
  8
ENGRAVE
100
AcDbSpline
 70
0
 71
2
 72
6
 73
3
 74
0
 40
0.0
 40
0.0
 40
0.0
 40
1.0
 40
1.0
 40
1.0
 10
72.93504639897728
 20
251.72003020846654
 30
0.0
 10
72.73704997970646
 20
251.87403736992488
 30
0.0
 10
72.78105714116478
 20
251.95102304700822
 30
0.0
  0
SPLINE
  5
49
330
17
100
AcDbEntity
  8
ENGRAVE
100
AcDbSpline
 70
0
 71
2
 72
6
 73
3
 74
0
 40
0.0
 40
0.0
 40
0.0
 40
1.0
 40
1.0
 40
1.0
 10
73.37502849533145
 20
251.36804453138322
 30
0.0
 10
73.13304281824811
 20
251.5660230470082
 30
0.0
 10
72.93504639897728
 20
251.72003020846654
 30
0.0
  0
SPLINE
  5
4A
330
17
100
AcDbEntity
  8
ENGRAVE
100
AcDbSpline
 70
0
 71
2
 72
6
 73
3
 74
0
 40
0.0
 40
0.0
 40
0.0
 40
1.0
 40
1.0
 40
1.0
 10
73.51252849533145
 20
250.02052662773738
 30
0.0
 10
73.21002849533144
 20
250.0260230470082
 30
0.0
 10
73.00105714116478
 20
250.1140373699249
 30
0.0
  0
SPLINE
  5
4B
330
17
100
AcDbEntity
  8
ENGRAVE
100
AcDbSpline
 70
0
 71
2
 72
6
 73
3
 74
0
 40
0.0
 40
0.0
 40
0.0
 40
1.0
 40
1.0
 40
1.0
 10
72.77554281824811
 20
253.26003020846656
 30
0.0
 10
72.97903565678979
 20
253.5790373699249
 30
0.0
 10
73.21002849533144
 20
253.82102304700823
 30
0.0
  0
SPLINE
  5
4C
330
17
100
AcDbEntity
  8
ENGRAVE
100
AcDbSpline
 70
0
 71
2
 72
6
 73
3
 74
0
 40
0.0
 40
0.0
 40
0.0
 40
1.0
 40
1.0
 40
1.0
 10
72.64355714116478
 20
250.91151946627906
 30
0.0
 10
72.83605714116479
 20
250.9060230470082
 30
0.0
 10
73.24304281824811
 20
250.80701588554987
 30
0.0
  0
SPLINE
  5
4D
330
17
100
AcDbEntity
  8
ENGRAVE
100
AcDbSpline
 70
0
 71
2
 72
6
 73
3
 74
0
 40
0.0
 40
0.0
 40
0.0
 40
1.0
 40
1.0
 40
1.0
 10
73.54554281824812
 20
251.24701588554987
 30
0.0
 10
73.47403565678978
 20
251.30201588554988
 30
0.0
 10
73.37502849533145
 20
251.36804453138322
 30
0.0
  0
SPLINE
  5
4E
330
17
100
AcDbEntity
  8
ENGRAVE
100
AcDbSpline
 70
0
 71
2
 72
6
 73
3
 74
0
 40
0.0
 40
0.0
 40
0.0
 40
1.0
 40
1.0
 40
1.0
 10
74.09002849533145
 20
250.0645337891957
 30
0.0
 10
73.81502849533145
 20
250.01503020846656
 30
0.0
 10
73.51252849533145
 20
250.02052662773738
 30
0.0
  0
SPLINE
  5
4F
330
17
100
AcDbEntity
  8
ENGRAVE
100
AcDbSpline
 70
0
 71
2
 72
6
 73
3
 74
0
 40
0.0
 40
0.0
 40
0.0
 40
1.0
 40
1.0
 40
1.0
 10
73.55653565678978
 20
252.68253020846655
 30
0.0
 10
73.51804281824812
 20
252.60003020846653
 30
0.0
 10
73.52903565678979
 20
252.51201588554989
 30
0.0
  0
SPLINE
  5
50
330
17
100
AcDbEntity
  8
ENGRAVE
100
AcDbSpline
 70
0
 71
2
 72
6
 73
3
 74
0
 40
0.0
 40
0.0
 40
0.0
 40
1.0
 40
1.0
 40
1.0
 10
73.63903565678979
 20
251.13701588554989
 30
0.0
 10
73.61704997970645
 20
251.1920158855499
 30
0.0
 10
73.54554281824812
 20
251.24701588554987
 30
0.0
  0
SPLINE
  5
51
330
17
100
AcDbEntity
  8
ENGRAVE
100
AcDbSpline
 70
0
 71
2
 72
6
 73
3
 74
0
 40
0.0
 40
0.0
 40
0.0
 40
1.0
 40
1.0
 40
1.0
 10
73.60605714116478
 20
252.8640373699249
 30
0.0
 10
73.59502849533145
 20
252.76503020846656
 30
0.0
 10
73.55653565678978
 20
252.68253020846655
 30
0.0
  0
SPLINE
  5
52
330
17
100
AcDbEntity
  8
ENGRAVE
100
AcDbSpline
 70
0
 71
2
 72
6
 73
3
 74
0
 40
0.0
 40
0.0
 40
0.0
 40
1.0
 40
1.0
 40
1.0
 10
73.24304281824811
 20
250.80701588554987
 30
0.0
 10
73.43002849533146
 20
250.80701588554987
 30
0.0
 10
73.60054281824812
 20
250.82901946627905
 30
0.0
  0
SPLINE
  5
53
330
17
100
AcDbEntity
  8
ENGRAVE
100
AcDbSpline
 70
0
 71
2
 72
6
 73
3
 74
0
 40
0.0
 40
0.0
 40
0.0
 40
1.0
 40
1.0
 40
1.0
 10
73.78204997970644
 20
253.10602304700822
 30
0.0
 10
73.67204997970644
 20
252.95201588554988
 30
0.0
 10
73.60605714116478
 20
252.8640373699249
 30
0.0
  0
SPLINE
  5
54
330
17
100
AcDbEntity
  8
ENGRAVE
100
AcDbSpline
 70
0
 71
2
 72
6
 73
3
 74
0
 40
0.0
 40
0.0
 40
0.0
 40
1.0
 40
1.0
 40
1.0
 10
73.83704997970645
 20
251.0490373699249
 30
0.0
 10
73.74903565678979
 20
251.13701588554989
 30
0.0
 10
73.63903565678979
 20
251.13701588554989
 30
0.0
  0
SPLINE
  5
55
330
17
100
AcDbEntity
  8
ENGRAVE
100
AcDbSpline
 70
0
 71
2
 72
6
 73
3
 74
0
 40
0.0
 40
0.0
 40
0.0
 40
1.0
 40
1.0
 40
1.0
 10
73.52903565678979
 20
252.51201588554989
 30
0.0
 10
73.54002849533146
 20
252.40201588554987
 30
0.0
 10
73.63903565678979
 20
252.30302662773738
 30
0.0
  0
SPLINE
  5
56
330
17
100
AcDbEntity
  8
ENGRAVE
100
AcDbSpline
 70
0
 71
2
 72
6
 73
3
 74
0
 40
0.0
 40
0.0
 40
0.0
 40
1.0
 40
1.0
 40
1.0
 10
73.98004639897728
 20
253.36453378919572
 30
0.0
 10
73.89204997970646
 20
253.26003020846656
 30
0.0
 10
73.78204997970644
 20
253.10602304700822
 30
0.0
  0
SPLINE
  5
57
330
17
100
AcDbEntity
  8
ENGRAVE
100
AcDbSpline
 70
0
 71
2
 72
6
 73
3
 74
0
 40
0.0
 40
0.0
 40
0.0
 40
1.0
 40
1.0
 40
1.0
 10
73.91405356043562
 20
250.96653736992488
 30
0.0
 10
73.89204997970646
 20
251.00503020846654
 30
0.0
 10
73.83704997970645
 20
251.0490373699249
 30
0.0
  0
SPLINE
  5
58
330
17
100
AcDbEntity
  8
ENGRAVE
100
AcDbSpline
 70
0
 71
2
 72
6
 73
3
 74
0
 40
0.0
 40
0.0
 40
0.0
 40
1.0
 40
1.0
 40
1.0
 10
73.60054281824812
 20
250.82901946627905
 30
0.0
 10
73.77105714116479
 20
250.85102304700823
 30
0.0
 10
73.88105714116479
 20
250.9060230470082
 30
0.0
  0
SPLINE
  5
59
330
17
100
AcDbEntity
  8
ENGRAVE
100
AcDbSpline
 70
0
 71
2
 72
6
 73
3
 74
0
 40
0.0
 40
0.0
 40
0.0
 40
1.0
 40
1.0
 40
1.0
 10
73.21002849533144
 20
253.82102304700823
 30
0.0
 10
73.51804281824812
 20
254.11804453138322
 30
0.0
 10
73.90304281824811
 20
254.39304453138323
 30
0.0
  0
SPLINE
  5
5A
330
17
100
AcDbEntity
  8
ENGRAVE
100
AcDbSpline
 70
0
 71
2
 72
6
 73
3
 74
0
 40
0.0
 40
0.0
 40
0.0
 40
1.0
 40
1.0
 40
1.0
 10
73.88105714116479
 20
250.9060230470082
 30
0.0
 10
73.93605714116478
 20
250.92804453138322
 30
0.0
 10
73.91405356043562
 20
250.96653736992488
 30
0.0
  0
SPLINE
  5
5B
330
17
100
AcDbEntity
  8
ENGRAVE
100
AcDbSpline
 70
0
 71
2
 72
6
 73
3
 74
0
 40
0.0
 40
0.0
 40
0.0
 40
1.0
 40
1.0
 40
1.0
 10
73.63903565678979
 20
252.30302662773738
 30
0.0
 10
73.73804281824812
 20
252.2040373699249
 30
0.0
 10
73.92502849533145
 20
252.05003020846655
 30
0.0
  0
SPLINE
  5
5C
330
17
100
AcDbEntity
  8
ENGRAVE
100
AcDbSpline
 70
0
 71
2
 72
6
 73
3
 74
0
 40
0.0
 40
0.0
 40
0.0
 40
1.0
 40
1.0
 40
1.0
 10
74.06804281824812
 20
253.41403736992487
 30
0.0
 10
74.06804281824812
 20
253.46903736992488
 30
0.0
 10
73.98004639897728
 20
253.36453378919572
 30
0.0
  0
SPLINE
  5
5D
330
17
100
AcDbEntity
  8
ENGRAVE
100
AcDbSpline
 70
0
 71
2
 72
6
 73
3
 74
0
 40
0.0
 40
0.0
 40
0.0
 40
1.0
 40
1.0
 40
1.0
 10
74.12853923751895
 20
253.43604095065405
 30
0.0
 10
74.11204997970646
 20
253.41403736992487
 30
0.0
 10
74.06804281824812
 20
253.41403736992487
 30
0.0
  0
SPLINE
  5
5E
330
17
100
AcDbEntity
  8
ENGRAVE
100
AcDbSpline
 70
0
 71
2
 72
6
 73
3
 74
0
 40
0.0
 40
0.0
 40
0.0
 40
1.0
 40
1.0
 40
1.0
 10
74.47502849533144
 20
250.1690373699249
 30
0.0
 10
74.36502849533144
 20
250.1140373699249
 30
0.0
 10
74.09002849533145
 20
250.0645337891957
 30
0.0
  0
SPLINE
  5
5F
330
17
100
AcDbEntity
  8
ENGRAVE
100
AcDbSpline
 70
0
 71
2
 72
6
 73
3
 74
0
 40
0.0
 40
0.0
 40
0.0
 40
1.0
 40
1.0
 40
1.0
 10
74.18903565678978
 20
253.53503020846654
 30
0.0
 10
74.14502849533145
 20
253.45804453138322
 30
0.0
 10
74.12853923751895
 20
253.43604095065405
 30
0.0
  0
SPLINE
  5
60
330
17
100
AcDbEntity
  8
ENGRAVE
100
AcDbSpline
 70
0
 71
2
 72
6
 73
3
 74
0
 40
0.0
 40
0.0
 40
0.0
 40
1.0
 40
1.0
 40
1.0
 10
74.49703207606062
 20
253.7605266277374
 30
0.0
 10
74.29903565678978
 20
253.63403736992487
 30
0.0
 10
74.18903565678978
 20
253.53503020846654
 30
0.0
  0
SPLINE
  5
61
330
17
100
AcDbEntity
  8
ENGRAVE
100
AcDbSpline
 70
0
 71
2
 72
6
 73
3
 74
0
 40
0.0
 40
0.0
 40
0.0
 40
1.0
 40
1.0
 40
1.0
 10
74.91504639897728
 20
250.54852304700822
 30
0.0
 10
74.77204997970645
 20
250.30102304700821
 30
0.0
 10
74.47502849533144
 20
250.1690373699249
 30
0.0
  0
SPLINE
  5
62
330
17
100
AcDbEntity
  8
ENGRAVE
100
AcDbSpline
 70
0
 71
2
 72
6
 73
3
 74
0
 40
0.0
 40
0.0
 40
0.0
 40
1.0
 40
1.0
 40
1.0
 10
74.87653565678978
 20
253.97503020846653
 30
0.0
 10
74.69502849533146
 20
253.88701588554989
 30
0.0
 10
74.49703207606062
 20
253.7605266277374
 30
0.0
  0
SPLINE
  5
63
330
17
100
AcDbEntity
  8
ENGRAVE
100
AcDbSpline
 70
0
 71
2
 72
6
 73
3
 74
0
 40
0.0
 40
0.0
 40
0.0
 40
1.0
 40
1.0
 40
1.0
 10
73.92502849533145
 20
252.05003020846655
 30
0.0
 10
74.31002849533145
 20
251.7640373699249
 30
0.0
 10
74.50252849533145
 20
251.59903736992487
 30
0.0
  0
SPLINE
  5
64
330
17
100
AcDbEntity
  8
ENGRAVE
100
AcDbSpline
 70
0
 71
2
 72
6
 73
3
 74
0
 40
0.0
 40
0.0
 40
0.0
 40
1.0
 40
1.0
 40
1.0
 10
74.50252849533145
 20
251.59903736992487
 30
0.0
 10
74.69502849533146
 20
251.43403736992488
 30
0.0
 10
74.77203207606061
 20
251.33503020846655
 30
0.0
  0
SPLINE
  5
65
330
17
100
AcDbEntity
  8
ENGRAVE
100
AcDbSpline
 70
0
 71
2
 72
6
 73
3
 74
0
 40
0.0
 40
0.0
 40
0.0
 40
1.0
 40
1.0
 40
1.0
 10
73.90304281824811
 20
254.39304453138323
 30
0.0
 10
74.28804281824812
 20
254.6680445313832
 30
0.0
 10
74.79403565678979
 20
254.80003020846655
 30
0.0
  0
SPLINE
  5
66
330
17
100
AcDbEntity
  8
ENGRAVE
100
AcDbSpline
 70
0
 71
2
 72
6
 73
3
 74
0
 40
0.0
 40
0.0
 40
0.0
 40
1.0
 40
1.0
 40
1.0
 10
74.83252849533145
 20
253.12253020846654
 30
0.0
 10
74.80502849533146
 20
253.17201588554988
 30
0.0
 10
74.80502849533146
 20
253.2160230470082
 30
0.0
  0
SPLINE
  5
67
330
17
100
AcDbEntity
  8
ENGRAVE
100
AcDbSpline
 70
0
 71
2
 72
6
 73
3
 74
0
 40
0.0
 40
0.0
 40
0.0
 40
1.0
 40
1.0
 40
1.0
 10
74.86002849533145
 20
253.0730445313832
 30
0.0
 10
74.86002849533145
 20
253.0730445313832
 30
0.0
 10
74.83252849533145
 20
253.12253020846654
 30
0.0
  0
SPLINE
  5
68
330
17
100
AcDbEntity
  8
ENGRAVE
100
AcDbSpline
 70
0
 71
2
 72
6
 73
3
 74
0
 40
0.0
 40
0.0
 40
0.0
 40
1.0
 40
1.0
 40
1.0
 10
74.80502849533146
 20
253.2160230470082
 30
0.0
 10
74.80502849533146
 20
253.26003020846656
 30
0.0
 10
74.83804281824811
 20
253.29852304700822
 30
0.0
  0
SPLINE
  5
69
330
17
100
AcDbEntity
  8
ENGRAVE
100
AcDbSpline
 70
0
 71
2
 72
6
 73
3
 74
0
 40
0.0
 40
0.0
 40
0.0
 40
1.0
 40
1.0
 40
1.0
 10
74.95903565678978
 20
252.96302662773738
 30
0.0
 10
74.90403565678979
 20
253.0070158855499
 30
0.0
 10
74.86002849533145
 20
253.0730445313832
 30
0.0
  0
SPLINE
  5
6A
330
17
100
AcDbEntity
  8
ENGRAVE
100
AcDbSpline
 70
0
 71
2
 72
6
 73
3
 74
0
 40
0.0
 40
0.0
 40
0.0
 40
1.0
 40
1.0
 40
1.0
 10
74.77203207606061
 20
251.33503020846655
 30
0.0
 10
74.84903565678978
 20
251.23602304700822
 30
0.0
 10
74.87105714116478
 20
251.13701588554989
 30
0.0
  0
SPLINE
  5
6B
330
17
100
AcDbEntity
  8
ENGRAVE
100
AcDbSpline
 70
0
 71
2
 72
6
 73
3
 74
0
 40
0.0
 40
0.0
 40
0.0
 40
1.0
 40
1.0
 40
1.0
 10
74.83804281824811
 20
253.29852304700822
 30
0.0
 10
74.87105714116478
 20
253.33701588554987
 30
0.0
 10
74.87105714116478
 20
253.33701588554987
 30
0.0
  0
SPLINE
  5
6C
330
17
100
AcDbEntity
  8
ENGRAVE
100
AcDbSpline
 70
0
 71
2
 72
6
 73
3
 74
0
 40
0.0
 40
0.0
 40
0.0
 40
1.0
 40
1.0
 40
1.0
 10
75.11304281824812
 20
254.0630445313832
 30
0.0
 10
75.05804281824811
 20
254.0630445313832
 30
0.0
 10
74.87653565678978
 20
253.97503020846653
 30
0.0
  0
SPLINE
  5
6D
330
17
100
AcDbEntity
  8
ENGRAVE
100
AcDbSpline
 70
0
 71
2
 72
6
 73
3
 74
0
 40
0.0
 40
0.0
 40
0.0
 40
1.0
 40
1.0
 40
1.0
 10
74.87105714116478
 20
251.13701588554989
 30
0.0
 10
75.05804281824811
 20
250.79602304700822
 30
0.0
 10
74.91504639897728
 20
250.54852304700822
 30
0.0
  0
SPLINE
  5
6E
330
17
100
AcDbEntity
  8
ENGRAVE
100
AcDbSpline
 70
0
 71
2
 72
6
 73
3
 74
0
 40
0.0
 40
0.0
 40
0.0
 40
1.0
 40
1.0
 40
1.0
 10
75.08002849533145
 20
252.87503020846654
 30
0.0
 10
75.01403565678979
 20
252.9190373699249
 30
0.0
 10
74.95903565678978
 20
252.96302662773738
 30
0.0
  0
SPLINE
  5
6F
330
17
100
AcDbEntity
  8
ENGRAVE
100
AcDbSpline
 70
0
 71
2
 72
6
 73
3
 74
0
 40
0.0
 40
0.0
 40
0.0
 40
1.0
 40
1.0
 40
1.0
 10
75.36603923751895
 20
252.88604095065403
 30
0.0
 10
75.17903565678978
 20
252.79804453138323
 30
0.0
 10
75.08002849533145
 20
252.87503020846654
 30
0.0
  0
SPLINE
  5
70
330
17
100
AcDbEntity
  8
ENGRAVE
100
AcDbSpline
 70
0
 71
2
 72
6
 73
3
 74
0
 40
0.0
 40
0.0
 40
0.0
 40
1.0
 40
1.0
 40
1.0
 10
75.25605714116479
 20
253.96403736992488
 30
0.0
 10
75.25605714116479
 20
254.0630445313832
 30
0.0
 10
75.11304281824812
 20
254.0630445313832
 30
0.0
  0
SPLINE
  5
71
330
17
100
AcDbEntity
  8
ENGRAVE
100
AcDbSpline
 70
0
 71
2
 72
6
 73
3
 74
0
 40
0.0
 40
0.0
 40
0.0
 40
1.0
 40
1.0
 40
1.0
 10
74.79403565678979
 20
254.80003020846655
 30
0.0
 10
74.94804281824811
 20
254.83304453138322
 30
0.0
 10
75.14603923751895
 20
254.83304453138322
 30
0.0
  0
SPLINE
  5
72
330
17
100
AcDbEntity
  8
ENGRAVE
100
AcDbSpline
 70
0
 71
2
 72
6
 73
3
 74
0
 40
0.0
 40
0.0
 40
0.0
 40
1.0
 40
1.0
 40
1.0
 10
74.87105714116478
 20
253.33701588554987
 30
0.0
 10
75.09105714116478
 20
253.54602304700822
 30
0.0
 10
75.17355714116478
 20
253.71651946627904
 30
0.0
  0
SPLINE
  5
73
330
17
100
AcDbEntity
  8
ENGRAVE
100
AcDbSpline
 70
0
 71
2
 72
6
 73
3
 74
0
 40
0.0
 40
0.0
 40
0.0
 40
1.0
 40
1.0
 40
1.0
 10
75.17355714116478
 20
253.71651946627904
 30
0.0
 10
75.25605714116479
 20
253.88701588554989
 30
0.0
 10
75.25605714116479
 20
253.96403736992488
 30
0.0
  0
SPLINE
  5
74
330
17
100
AcDbEntity
  8
ENGRAVE
100
AcDbSpline
 70
0
 71
2
 72
6
 73
3
 74
0
 40
0.0
 40
0.0
 40
0.0
 40
1.0
 40
1.0
 40
1.0
 10
75.76204997970645
 20
253.11701588554988
 30
0.0
 10
75.55304281824812
 20
252.97403736992487
 30
0.0
 10
75.36603923751895
 20
252.88604095065403
 30
0.0
  0
SPLINE
  5
75
330
17
100
AcDbEntity
  8
ENGRAVE
100
AcDbSpline
 70
0
 71
2
 72
6
 73
3
 74
0
 40
0.0
 40
0.0
 40
0.0
 40
1.0
 40
1.0
 40
1.0
 10
75.14603923751895
 20
254.83304453138322
 30
0.0
 10
75.34403565678979
 20
254.83304453138322
 30
0.0
 10
75.43204997970645
 20
254.77804453138322
 30
0.0
  0
SPLINE
  5
76
330
17
100
AcDbEntity
  8
ENGRAVE
100
AcDbSpline
 70
0
 71
2
 72
6
 73
3
 74
0
 40
0.0
 40
0.0
 40
0.0
 40
1.0
 40
1.0
 40
1.0
 10
75.43204997970645
 20
254.77804453138322
 30
0.0
 10
75.52002849533145
 20
254.83304453138322
 30
0.0
 10
75.65203207606062
 20
254.7505445313832
 30
0.0
  0
SPLINE
  5
77
330
17
100
AcDbEntity
  8
ENGRAVE
100
AcDbSpline
 70
0
 71
2
 72
6
 73
3
 74
0
 40
0.0
 40
0.0
 40
0.0
 40
1.0
 40
1.0
 40
1.0
 10
75.92704997970645
 20
253.37003020846655
 30
0.0
 10
75.92704997970645
 20
253.26003020846656
 30
0.0
 10
75.76204997970645
 20
253.11701588554988
 30
0.0
  0
SPLINE
  5
78
330
17
100
AcDbEntity
  8
ENGRAVE
100
AcDbSpline
 70
0
 71
2
 72
6
 73
3
 74
0
 40
0.0
 40
0.0
 40
0.0
 40
1.0
 40
1.0
 40
1.0
 10
75.65203207606062
 20
254.7505445313832
 30
0.0
 10
75.78403565678978
 20
254.6680445313832
 30
0.0
 10
75.91603923751894
 20
254.52503020846655
 30
0.0
  0
SPLINE
  5
79
330
17
100
AcDbEntity
  8
ENGRAVE
100
AcDbSpline
 70
0
 71
2
 72
6
 73
3
 74
0
 40
0.0
 40
0.0
 40
0.0
 40
1.0
 40
1.0
 40
1.0
 10
75.95454997970646
 20
253.43052662773738
 30
0.0
 10
75.92704997970645
 20
253.42503020846655
 30
0.0
 10
75.92704997970645
 20
253.37003020846655
 30
0.0
  0
SPLINE
  5
7A
330
17
100
AcDbEntity
  8
ENGRAVE
100
AcDbSpline
 70
0
 71
2
 72
6
 73
3
 74
0
 40
0.0
 40
0.0
 40
0.0
 40
1.0
 40
1.0
 40
1.0
 10
75.98204997970645
 20
253.4360230470082
 30
0.0
 10
75.98204997970645
 20
253.4360230470082
 30
0.0
 10
75.95454997970646
 20
253.43052662773738
 30
0.0
  0
SPLINE
  5
7B
330
17
100
AcDbEntity
  8
ENGRAVE
100
AcDbSpline
 70
0
 71
2
 72
6
 73
3
 74
0
 40
0.0
 40
0.0
 40
0.0
 40
1.0
 40
1.0
 40
1.0
 10
76.08103923751895
 20
253.57901946627905
 30
0.0
 10
76.05903565678979
 20
253.4360230470082
 30
0.0
 10
75.98204997970645
 20
253.4360230470082
 30
0.0
  0
SPLINE
  5
7C
330
17
100
AcDbEntity
  8
ENGRAVE
100
AcDbSpline
 70
0
 71
2
 72
6
 73
3
 74
0
 40
0.0
 40
0.0
 40
0.0
 40
1.0
 40
1.0
 40
1.0
 10
76.10853923751895
 20
253.9145158855499
 30
0.0
 10
76.10304281824811
 20
253.7220158855499
 30
0.0
 10
76.08103923751895
 20
253.57901946627905
 30
0.0
  0
SPLINE
  5
7D
330
17
100
AcDbEntity
  8
ENGRAVE
100
AcDbSpline
 70
0
 71
2
 72
6
 73
3
 74
0
 40
0.0
 40
0.0
 40
0.0
 40
1.0
 40
1.0
 40
1.0
 10
76.11403565678978
 20
254.2390373699249
 30
0.0
 10
76.11403565678978
 20
254.10701588554988
 30
0.0
 10
76.10853923751895
 20
253.9145158855499
 30
0.0
  0
SPLINE
  5
7E
330
17
100
AcDbEntity
  8
ENGRAVE
100
AcDbSpline
 70
0
 71
2
 72
6
 73
3
 74
0
 40
0.0
 40
0.0
 40
0.0
 40
1.0
 40
1.0
 40
1.0
 10
75.91603923751894
 20
254.52503020846655
 30
0.0
 10
76.04804281824812
 20
254.3820158855499
 30
0.0
 10
76.11403565678978
 20
254.2390373699249
 30
0.0
  0
SPLINE
  5
7F
330
17
100
AcDbEntity
  8
ENGRAVE
100
AcDbSpline
 70
0
 71
2
 72
6
 73
3
 74
0
 40
0.0
 40
0.0
 40
0.0
 40
1.0
 40
1.0
 40
1.0
 10
76.27903565678979
 20
251.12052662773738
 30
0.0
 10
76.18002849533146
 20
251.43403736992488
 30
0.0
 10
76.2460571411648
 20
251.9730445313832
 30
0.0
  0
SPLINE
  5
80
330
17
100
AcDbEntity
  8
ENGRAVE
100
AcDbSpline
 70
0
 71
2
 72
6
 73
3
 74
0
 40
0.0
 40
0.0
 40
0.0
 40
1.0
 40
1.0
 40
1.0
 10
76.48804281824812
 20
250.66403736992487
 30
0.0
 10
76.37804281824812
 20
250.80701588554987
 30
0.0
 10
76.27903565678979
 20
251.12052662773738
 30
0.0
  0
SPLINE
  5
81
330
17
100
AcDbEntity
  8
ENGRAVE
100
AcDbSpline
 70
0
 71
2
 72
6
 73
3
 74
0
 40
0.0
 40
0.0
 40
0.0
 40
1.0
 40
1.0
 40
1.0
 10
77.00504639897729
 20
250.2845337891957
 30
0.0
 10
76.6860571411648
 20
250.4110230470082
 30
0.0
 10
76.48804281824812
 20
250.66403736992487
 30
0.0
  0
SPLINE
  5
82
330
17
100
AcDbEntity
  8
ENGRAVE
100
AcDbSpline
 70
0
 71
2
 72
6
 73
3
 74
0
 40
0.0
 40
0.0
 40
0.0
 40
1.0
 40
1.0
 40
1.0
 10
76.2460571411648
 20
251.9730445313832
 30
0.0
 10
76.31204997970646
 20
252.47903736992487
 30
0.0
 10
76.55954997970646
 20
252.99604095065405
 30
0.0
  0
SPLINE
  5
83
330
17
100
AcDbEntity
  8
ENGRAVE
100
AcDbSpline
 70
0
 71
2
 72
6
 73
3
 74
0
 40
0.0
 40
0.0
 40
0.0
 40
1.0
 40
1.0
 40
1.0
 10
77.69254639897729
 20
250.18554453138321
 30
0.0
 10
77.32403565678979
 20
250.1580445313832
 30
0.0
 10
77.00504639897729
 20
250.2845337891957
 30
0.0
  0
SPLINE
  5
84
330
17
100
AcDbEntity
  8
ENGRAVE
100
AcDbSpline
 70
0
 71
2
 72
6
 73
3
 74
0
 40
0.0
 40
0.0
 40
0.0
 40
1.0
 40
1.0
 40
1.0
 10
77.19752849533145
 20
252.09403736992488
 30
0.0
 10
77.11502849533146
 20
251.9840373699249
 30
0.0
 10
77.1260571411648
 20
251.66503020846656
 30
0.0
  0
SPLINE
  5
85
330
17
100
AcDbEntity
  8
ENGRAVE
100
AcDbSpline
 70
0
 71
2
 72
6
 73
3
 74
0
 40
0.0
 40
0.0
 40
0.0
 40
1.0
 40
1.0
 40
1.0
 10
76.55954997970646
 20
252.99604095065405
 30
0.0
 10
76.80704997970646
 20
253.5130445313832
 30
0.0
 10
77.17004639897729
 20
253.90903736992487
 30
0.0
  0
SPLINE
  5
86
330
17
100
AcDbEntity
  8
ENGRAVE
100
AcDbSpline
 70
0
 71
2
 72
6
 73
3
 74
0
 40
0.0
 40
0.0
 40
0.0
 40
1.0
 40
1.0
 40
1.0
 10
77.54403565678979
 20
252.14903736992488
 30
0.0
 10
77.28002849533146
 20
252.2040373699249
 30
0.0
 10
77.19752849533145
 20
252.09403736992488
 30
0.0
  0
SPLINE
  5
87
330
17
100
AcDbEntity
  8
ENGRAVE
100
AcDbSpline
 70
0
 71
2
 72
6
 73
3
 74
0
 40
0.0
 40
0.0
 40
0.0
 40
1.0
 40
1.0
 40
1.0
 10
77.1260571411648
 20
251.66503020846656
 30
0.0
 10
77.14804281824813
 20
251.46701588554987
 30
0.0
 10
77.21954997970646
 20
251.31852304700823
 30
0.0
  0
SPLINE
  5
88
330
17
100
AcDbEntity
  8
ENGRAVE
100
AcDbSpline
 70
0
 71
2
 72
6
 73
3
 74
0
 40
0.0
 40
0.0
 40
0.0
 40
1.0
 40
1.0
 40
1.0
 10
77.21954997970646
 20
251.31852304700823
 30
0.0
 10
77.29105714116479
 20
251.17003020846656
 30
0.0
 10
77.4890356567898
 20
251.11503020846655
 30
0.0
  0
SPLINE
  5
89
330
17
100
AcDbEntity
  8
ENGRAVE
100
AcDbSpline
 70
0
 71
2
 72
6
 73
3
 74
0
 40
0.0
 40
0.0
 40
0.0
 40
1.0
 40
1.0
 40
1.0
 10
77.69804281824813
 20
253.21052662773738
 30
0.0
 10
77.55502849533146
 20
253.04003020846656
 30
0.0
 10
77.5110571411648
 20
252.95201588554988
 30
0.0
  0
SPLINE
  5
8A
330
17
100
AcDbEntity
  8
ENGRAVE
100
AcDbSpline
 70
0
 71
2
 72
6
 73
3
 74
0
 40
0.0
 40
0.0
 40
0.0
 40
1.0
 40
1.0
 40
1.0
 10
78.23703207606063
 20
252.08302662773738
 30
0.0
 10
77.98403565678979
 20
252.0610230470082
 30
0.0
 10
77.54403565678979
 20
252.14903736992488
 30
0.0
  0
SPLINE
  5
8B
330
17
100
AcDbEntity
  8
ENGRAVE
100
AcDbSpline
 70
0
 71
2
 72
6
 73
3
 74
0
 40
0.0
 40
0.0
 40
0.0
 40
1.0
 40
1.0
 40
1.0
 10
78.3910571411648
 20
250.40003020846655
 30
0.0
 10
78.0610571411648
 20
250.21304453138322
 30
0.0
 10
77.69254639897729
 20
250.18554453138321
 30
0.0
  0
SPLINE
  5
8C
330
17
100
AcDbEntity
  8
ENGRAVE
100
AcDbSpline
 70
0
 71
2
 72
6
 73
3
 74
0
 40
0.0
 40
0.0
 40
0.0
 40
1.0
 40
1.0
 40
1.0
 10
78.01155356043563
 20
253.53503020846654
 30
0.0
 10
77.8410571411648
 20
253.38102304700823
 30
0.0
 10
77.69804281824813
 20
253.21052662773738
 30
0.0
  0
SPLINE
  5
8D
330
17
100
AcDbEntity
  8
ENGRAVE
100
AcDbSpline
 70
0
 71
2
 72
6
 73
3
 74
0
 40
0.0
 40
0.0
 40
0.0
 40
1.0
 40
1.0
 40
1.0
 10
77.5110571411648
 20
252.95201588554988
 30
0.0
 10
77.56605714116479
 20
252.87503020846654
 30
0.0
 10
77.82454997970646
 20
252.8420337891957
 30
0.0
  0
SPLINE
  5
8E
330
17
100
AcDbEntity
  8
ENGRAVE
100
AcDbSpline
 70
0
 71
2
 72
6
 73
3
 74
0
 40
0.0
 40
0.0
 40
0.0
 40
1.0
 40
1.0
 40
1.0
 10
77.4890356567898
 20
251.11503020846655
 30
0.0
 10
77.74204997970647
 20
251.07102304700823
 30
0.0
 10
77.85204997970646
 20
251.10953378919572
 30
0.0
  0
SPLINE
  5
8F
330
17
100
AcDbEntity
  8
ENGRAVE
100
AcDbSpline
 70
0
 71
2
 72
6
 73
3
 74
0
 40
0.0
 40
0.0
 40
0.0
 40
1.0
 40
1.0
 40
1.0
 10
77.17004639897729
 20
253.90903736992487
 30
0.0
 10
77.53304281824812
 20
254.30503020846655
 30
0.0
 10
77.96204997970646
 20
254.4480445313832
 30
0.0
  0
SPLINE
  5
90
330
17
100
AcDbEntity
  8
ENGRAVE
100
AcDbSpline
 70
0
 71
2
 72
6
 73
3
 74
0
 40
0.0
 40
0.0
 40
0.0
 40
1.0
 40
1.0
 40
1.0
 10
78.29204997970646
 20
253.7220158855499
 30
0.0
 10
78.18204997970646
 20
253.68903736992488
 30
0.0
 10
78.01155356043563
 20
253.53503020846654
 30
0.0
  0
SPLINE
  5
91
330
17
100
AcDbEntity
  8
ENGRAVE
100
AcDbSpline
 70
0
 71
2
 72
6
 73
3
 74
0
 40
0.0
 40
0.0
 40
0.0
 40
1.0
 40
1.0
 40
1.0
 10
77.85204997970646
 20
251.10953378919572
 30
0.0
 10
77.96204997970646
 20
251.14804453138322
 30
0.0
 10
78.12704997970646
 20
251.22503020846653
 30
0.0
  0
SPLINE
  5
92
330
17
100
AcDbEntity
  8
ENGRAVE
100
AcDbSpline
 70
0
 71
2
 72
6
 73
3
 74
0
 40
0.0
 40
0.0
 40
0.0
 40
1.0
 40
1.0
 40
1.0
 10
78.67704997970645
 20
252.18201588554987
 30
0.0
 10
78.49002849533146
 20
252.10503020846656
 30
0.0
 10
78.23703207606063
 20
252.08302662773738
 30
0.0
  0
SPLINE
  5
93
330
17
100
AcDbEntity
  8
ENGRAVE
100
AcDbSpline
 70
0
 71
2
 72
6
 73
3
 74
0
 40
0.0
 40
0.0
 40
0.0
 40
1.0
 40
1.0
 40
1.0
 10
77.82454997970646
 20
252.8420337891957
 30
0.0
 10
78.08304281824813
 20
252.80903736992488
 30
0.0
 10
78.24804281824812
 20
252.8530445313832
 30
0.0
  0
SPLINE
  5
94
330
17
100
AcDbEntity
  8
ENGRAVE
100
AcDbSpline
 70
0
 71
2
 72
6
 73
3
 74
0
 40
0.0
 40
0.0
 40
0.0
 40
1.0
 40
1.0
 40
1.0
 10
77.96204997970646
 20
254.4480445313832
 30
0.0
 10
78.11605714116479
 20
254.5030445313832
 30
0.0
 10
78.27554281824813
 20
254.5305445313832
 30
0.0
  0
SPLINE
  5
95
330
17
100
AcDbEntity
  8
ENGRAVE
100
AcDbSpline
 70
0
 71
2
 72
6
 73
3
 74
0
 40
0.0
 40
0.0
 40
0.0
 40
1.0
 40
1.0
 40
1.0
 10
78.70453207606063
 20
253.68901946627903
 30
0.0
 10
78.54502849533147
 20
253.77701588554987
 30
0.0
 10
78.29204997970646
 20
253.7220158855499
 30
0.0
  0
SPLINE
  5
96
330
17
100
AcDbEntity
  8
ENGRAVE
100
AcDbSpline
 70
0
 71
2
 72
6
 73
3
 74
0
 40
0.0
 40
0.0
 40
0.0
 40
1.0
 40
1.0
 40
1.0
 10
78.12704997970646
 20
251.22503020846653
 30
0.0
 10
78.24804281824812
 20
251.30201588554988
 30
0.0
 10
78.38004639897729
 20
251.4120158855499
 30
0.0
  0
SPLINE
  5
97
330
17
100
AcDbEntity
  8
ENGRAVE
100
AcDbSpline
 70
0
 71
2
 72
6
 73
3
 74
0
 40
0.0
 40
0.0
 40
0.0
 40
1.0
 40
1.0
 40
1.0
 10
78.95754639897729
 20
250.86201588554988
 30
0.0
 10
78.72105714116479
 20
250.58701588554987
 30
0.0
 10
78.3910571411648
 20
250.40003020846655
 30
0.0
  0
SPLINE
  5
98
330
17
100
AcDbEntity
  8
ENGRAVE
100
AcDbSpline
 70
0
 71
2
 72
6
 73
3
 74
0
 40
0.0
 40
0.0
 40
0.0
 40
1.0
 40
1.0
 40
1.0
 10
78.24804281824812
 20
252.8530445313832
 30
0.0
 10
78.32502849533145
 20
252.88602304700822
 30
0.0
 10
78.47353923751896
 20
253.0070337891957
 30
0.0
  0
SPLINE
  5
99
330
17
100
AcDbEntity
  8
ENGRAVE
100
AcDbSpline
 70
0
 71
2
 72
6
 73
3
 74
0
 40
0.0
 40
0.0
 40
0.0
 40
1.0
 40
1.0
 40
1.0
 10
78.38004639897729
 20
251.4120158855499
 30
0.0
 10
78.51204997970646
 20
251.52201588554988
 30
0.0
 10
78.60002849533146
 20
251.57701588554988
 30
0.0
  0
SPLINE
  5
9A
330
17
100
AcDbEntity
  8
ENGRAVE
100
AcDbSpline
 70
0
 71
2
 72
6
 73
3
 74
0
 40
0.0
 40
0.0
 40
0.0
 40
1.0
 40
1.0
 40
1.0
 10
79.3975463989773
 20
252.7870337891957
 30
0.0
 10
79.13903565678979
 20
252.38003020846654
 30
0.0
 10
78.67704997970645
 20
252.18201588554987
 30
0.0
  0
SPLINE
  5
9B
330
17
100
AcDbEntity
  8
ENGRAVE
100
AcDbSpline
 70
0
 71
2
 72
6
 73
3
 74
0
 40
0.0
 40
0.0
 40
0.0
 40
1.0
 40
1.0
 40
1.0
 10
78.27554281824813
 20
254.5305445313832
 30
0.0
 10
78.43502849533147
 20
254.55804453138322
 30
0.0
 10
78.69903565678979
 20
254.5360230470082
 30
0.0
  0
SPLINE
  5
9C
330
17
100
AcDbEntity
  8
ENGRAVE
100
AcDbSpline
 70
0
 71
2
 72
6
 73
3
 74
0
 40
0.0
 40
0.0
 40
0.0
 40
1.0
 40
1.0
 40
1.0
 10
78.8640356567898
 20
253.48003020846656
 30
0.0
 10
78.8640356567898
 20
253.60102304700823
 30
0.0
 10
78.70453207606063
 20
253.68901946627903
 30
0.0
  0
SPLINE
  5
9D
330
17
100
AcDbEntity
  8
ENGRAVE
100
AcDbSpline
 70
0
 71
2
 72
6
 73
3
 74
0
 40
0.0
 40
0.0
 40
0.0
 40
1.0
 40
1.0
 40
1.0
 10
78.47353923751896
 20
253.0070337891957
 30
0.0
 10
78.62204997970646
 20
253.1280445313832
 30
0.0
 10
78.74304281824813
 20
253.26554453138323
 30
0.0
  0
SPLINE
  5
9E
330
17
100
AcDbEntity
  8
ENGRAVE
100
AcDbSpline
 70
0
 71
2
 72
6
 73
3
 74
0
 40
0.0
 40
0.0
 40
0.0
 40
1.0
 40
1.0
 40
1.0
 10
78.60002849533146
 20
251.57701588554988
 30
0.0
 10
78.68804281824812
 20
251.64304453138323
 30
0.0
 10
78.82002849533146
 20
251.64304453138323
 30
0.0
  0
SPLINE
  5
9F
330
17
100
AcDbEntity
  8
ENGRAVE
100
AcDbSpline
 70
0
 71
2
 72
6
 73
3
 74
0
 40
0.0
 40
0.0
 40
0.0
 40
1.0
 40
1.0
 40
1.0
 10
78.74304281824813
 20
253.26554453138323
 30
0.0
 10
78.8640356567898
 20
253.40304453138322
 30
0.0
 10
78.8640356567898
 20
253.48003020846656
 30
0.0
  0
SPLINE
  5
A0
330
17
100
AcDbEntity
  8
ENGRAVE
100
AcDbSpline
 70
0
 71
2
 72
6
 73
3
 74
0
 40
0.0
 40
0.0
 40
0.0
 40
1.0
 40
1.0
 40
1.0
 10
79.1940356567898
 20
251.28003020846654
 30
0.0
 10
79.1940356567898
 20
251.13701588554989
 30
0.0
 10
78.95754639897729
 20
250.86201588554988
 30
0.0
  0
SPLINE
  5
A1
330
17
100
AcDbEntity
  8
ENGRAVE
100
AcDbSpline
 70
0
 71
2
 72
6
 73
3
 74
0
 40
0.0
 40
0.0
 40
0.0
 40
1.0
 40
1.0
 40
1.0
 10
78.82002849533146
 20
251.64304453138323
 30
0.0
 10
78.94105714116479
 20
251.6320158855499
 30
0.0
 10
79.05105714116479
 20
251.51102304700822
 30
0.0
  0
SPLINE
  5
A2
330
17
100
AcDbEntity
  8
ENGRAVE
100
AcDbSpline
 70
0
 71
2
 72
6
 73
3
 74
0
 40
0.0
 40
0.0
 40
0.0
 40
1.0
 40
1.0
 40
1.0
 10
78.69903565678979
 20
254.5360230470082
 30
0.0
 10
78.95204997970646
 20
254.5030445313832
 30
0.0
 10
79.1500463989773
 20
254.4095337891957
 30
0.0
  0
SPLINE
  5
A3
330
17
100
AcDbEntity
  8
ENGRAVE
100
AcDbSpline
 70
0
 71
2
 72
6
 73
3
 74
0
 40
0.0
 40
0.0
 40
0.0
 40
1.0
 40
1.0
 40
1.0
 10
79.05105714116479
 20
251.51102304700822
 30
0.0
 10
79.16105714116479
 20
251.39003020846656
 30
0.0
 10
79.1940356567898
 20
251.28003020846654
 30
0.0
  0
SPLINE
  5
A4
330
17
100
AcDbEntity
  8
ENGRAVE
100
AcDbSpline
 70
0
 71
2
 72
6
 73
3
 74
0
 40
0.0
 40
0.0
 40
0.0
 40
1.0
 40
1.0
 40
1.0
 10
79.71105714116479
 20
253.54602304700822
 30
0.0
 10
79.6560571411648
 20
253.19403736992487
 30
0.0
 10
79.3975463989773
 20
252.7870337891957
 30
0.0
  0
SPLINE
  5
A5
330
17
100
AcDbEntity
  8
ENGRAVE
100
AcDbSpline
 70
0
 71
2
 72
6
 73
3
 74
0
 40
0.0
 40
0.0
 40
0.0
 40
1.0
 40
1.0
 40
1.0
 10
79.1500463989773
 20
254.4095337891957
 30
0.0
 10
79.34804281824813
 20
254.3160230470082
 30
0.0
 10
79.4360571411648
 20
254.20602304700822
 30
0.0
  0
SPLINE
  5
A6
330
17
100
AcDbEntity
  8
ENGRAVE
100
AcDbSpline
 70
0
 71
2
 72
6
 73
3
 74
0
 40
0.0
 40
0.0
 40
0.0
 40
1.0
 40
1.0
 40
1.0
 10
79.4360571411648
 20
254.20602304700822
 30
0.0
 10
79.61204997970646
 20
254.03003020846654
 30
0.0
 10
79.66704997970646
 20
253.86503020846655
 30
0.0
  0
SPLINE
  5
A7
330
17
100
AcDbEntity
  8
ENGRAVE
100
AcDbSpline
 70
0
 71
2
 72
6
 73
3
 74
0
 40
0.0
 40
0.0
 40
0.0
 40
1.0
 40
1.0
 40
1.0
 10
79.66704997970646
 20
253.86503020846655
 30
0.0
 10
79.72204997970645
 20
253.70003020846656
 30
0.0
 10
79.71105714116479
 20
253.54602304700822
 30
0.0
  0
SPLINE
  5
A8
330
17
100
AcDbEntity
  8
ENGRAVE
100
AcDbSpline
 70
0
 71
2
 72
6
 73
3
 74
0
 40
0.0
 40
0.0
 40
0.0
 40
1.0
 40
1.0
 40
1.0
 10
80.03006430262312
 20
250.17453378919572
 30
0.0
 10
79.86506430262311
 20
250.34503020846654
 30
0.0
 10
79.79905356043561
 20
250.67503020846655
 30
0.0
  0
SPLINE
  5
A9
330
17
100
AcDbEntity
  8
ENGRAVE
100
AcDbSpline
 70
0
 71
2
 72
6
 73
3
 74
0
 40
0.0
 40
0.0
 40
0.0
 40
1.0
 40
1.0
 40
1.0
 10
79.79905356043561
 20
250.67503020846655
 30
0.0
 10
79.73304281824811
 20
251.00503020846654
 30
0.0
 10
79.82105714116477
 20
251.4120158855499
 30
0.0
  0
SPLINE
  5
AA
330
17
100
AcDbEntity
  8
ENGRAVE
100
AcDbSpline
 70
0
 71
2
 72
6
 73
3
 74
0
 40
0.0
 40
0.0
 40
0.0
 40
1.0
 40
1.0
 40
1.0
 10
79.82105714116477
 20
251.4120158855499
 30
0.0
 10
79.87605714116478
 20
251.5440373699249
 30
0.0
 10
79.90905356043561
 20
251.6705266277374
 30
0.0
  0
SPLINE
  5
AB
330
17
100
AcDbEntity
  8
ENGRAVE
100
AcDbSpline
 70
0
 71
2
 72
6
 73
3
 74
0
 40
0.0
 40
0.0
 40
0.0
 40
1.0
 40
1.0
 40
1.0
 10
79.90905356043561
 20
251.6705266277374
 30
0.0
 10
79.94204997970644
 20
251.79701588554988
 30
0.0
 10
79.94204997970644
 20
251.87403736992488
 30
0.0
  0
SPLINE
  5
AC
330
17
100
AcDbEntity
  8
ENGRAVE
100
AcDbSpline
 70
0
 71
2
 72
6
 73
3
 74
0
 40
0.0
 40
0.0
 40
0.0
 40
1.0
 40
1.0
 40
1.0
 10
79.94204997970644
 20
251.87403736992488
 30
0.0
 10
79.96403565678978
 20
251.9840373699249
 30
0.0
 10
80.03004639897728
 20
252.19854095065403
 30
0.0
  0
SPLINE
  5
AD
330
17
100
AcDbEntity
  8
ENGRAVE
100
AcDbSpline
 70
0
 71
2
 72
6
 73
3
 74
0
 40
0.0
 40
0.0
 40
0.0
 40
1.0
 40
1.0
 40
1.0
 10
80.40403565678977
 20
250.05903736992488
 30
0.0
 10
80.19506430262311
 20
250.00403736992487
 30
0.0
 10
80.03006430262312
 20
250.17453378919572
 30
0.0
  0
SPLINE
  5
AE
330
17
100
AcDbEntity
  8
ENGRAVE
100
AcDbSpline
 70
0
 71
2
 72
6
 73
3
 74
0
 40
0.0
 40
0.0
 40
0.0
 40
1.0
 40
1.0
 40
1.0
 10
80.03004639897728
 20
252.19854095065403
 30
0.0
 10
80.09605714116478
 20
252.4130445313832
 30
0.0
 10
80.17306072189395
 20
252.6440373699249
 30
0.0
  0
SPLINE
  5
AF
330
17
100
AcDbEntity
  8
ENGRAVE
100
AcDbSpline
 70
0
 71
2
 72
6
 73
3
 74
0
 40
0.0
 40
0.0
 40
0.0
 40
1.0
 40
1.0
 40
1.0
 10
80.17306072189395
 20
252.6440373699249
 30
0.0
 10
80.25006430262312
 20
252.87503020846654
 30
0.0
 10
80.32155356043562
 20
253.05653736992488
 30
0.0
  0
SPLINE
  5
B0
330
17
100
AcDbEntity
  8
ENGRAVE
100
AcDbSpline
 70
0
 71
2
 72
6
 73
3
 74
0
 40
0.0
 40
0.0
 40
0.0
 40
1.0
 40
1.0
 40
1.0
 10
80.57454997970645
 20
250.24604095065405
 30
0.0
 10
80.49204997970645
 20
250.1030445313832
 30
0.0
 10
80.40403565678977
 20
250.05903736992488
 30
0.0
  0
SPLINE
  5
B1
330
17
100
AcDbEntity
  8
ENGRAVE
100
AcDbSpline
 70
0
 71
2
 72
6
 73
3
 74
0
 40
0.0
 40
0.0
 40
0.0
 40
1.0
 40
1.0
 40
1.0
 10
80.32155356043562
 20
253.05653736992488
 30
0.0
 10
80.3930428182481
 20
253.23804453138322
 30
0.0
 10
80.41506430262311
 20
253.28201588554987
 30
0.0
  0
SPLINE
  5
B2
330
17
100
AcDbEntity
  8
ENGRAVE
100
AcDbSpline
 70
0
 71
2
 72
6
 73
3
 74
0
 40
0.0
 40
0.0
 40
0.0
 40
1.0
 40
1.0
 40
1.0
 10
80.41506430262311
 20
253.28201588554987
 30
0.0
 10
80.45903565678978
 20
253.28201588554987
 30
0.0
 10
80.49204997970645
 20
253.35901946627905
 30
0.0
  0
SPLINE
  5
B3
330
17
100
AcDbEntity
  8
ENGRAVE
100
AcDbSpline
 70
0
 71
2
 72
6
 73
3
 74
0
 40
0.0
 40
0.0
 40
0.0
 40
1.0
 40
1.0
 40
1.0
 10
80.49204997970645
 20
253.35901946627905
 30
0.0
 10
80.52506430262311
 20
253.4360230470082
 30
0.0
 10
80.52506430262311
 20
253.5130445313832
 30
0.0
  0
SPLINE
  5
B4
330
17
100
AcDbEntity
  8
ENGRAVE
100
AcDbSpline
 70
0
 71
2
 72
6
 73
3
 74
0
 40
0.0
 40
0.0
 40
0.0
 40
1.0
 40
1.0
 40
1.0
 10
80.52506430262311
 20
253.5130445313832
 30
0.0
 10
80.52506430262311
 20
253.60102304700823
 30
0.0
 10
80.56355714116478
 20
253.7110230470082
 30
0.0
  0
SPLINE
  5
B5
330
17
100
AcDbEntity
  8
ENGRAVE
100
AcDbSpline
 70
0
 71
2
 72
6
 73
3
 74
0
 40
0.0
 40
0.0
 40
0.0
 40
1.0
 40
1.0
 40
1.0
 10
80.65704997970644
 20
250.65304453138322
 30
0.0
 10
80.65704997970644
 20
250.3890373699249
 30
0.0
 10
80.57454997970645
 20
250.24604095065405
 30
0.0
  0
SPLINE
  5
B6
330
17
100
AcDbEntity
  8
ENGRAVE
100
AcDbSpline
 70
0
 71
2
 72
6
 73
3
 74
0
 40
0.0
 40
0.0
 40
0.0
 40
1.0
 40
1.0
 40
1.0
 10
80.56355714116478
 20
253.7110230470082
 30
0.0
 10
80.60204997970645
 20
253.82102304700823
 30
0.0
 10
80.64605714116477
 20
253.86503020846655
 30
0.0
  0
SPLINE
  5
B7
330
17
100
AcDbEntity
  8
ENGRAVE
100
AcDbSpline
 70
0
 71
2
 72
6
 73
3
 74
0
 40
0.0
 40
0.0
 40
0.0
 40
1.0
 40
1.0
 40
1.0
 10
80.80554281824811
 20
251.4670337891957
 30
0.0
 10
80.65704997970644
 20
250.9610230470082
 30
0.0
 10
80.65704997970644
 20
250.65304453138322
 30
0.0
  0
SPLINE
  5
B8
330
17
100
AcDbEntity
  8
ENGRAVE
100
AcDbSpline
 70
0
 71
2
 72
6
 73
3
 74
0
 40
0.0
 40
0.0
 40
0.0
 40
1.0
 40
1.0
 40
1.0
 10
80.64605714116477
 20
253.86503020846655
 30
0.0
 10
80.64605714116477
 20
253.92003020846656
 30
0.0
 10
80.67355714116478
 20
253.99153736992488
 30
0.0
  0
SPLINE
  5
B9
330
17
100
AcDbEntity
  8
ENGRAVE
100
AcDbSpline
 70
0
 71
2
 72
6
 73
3
 74
0
 40
0.0
 40
0.0
 40
0.0
 40
1.0
 40
1.0
 40
1.0
 10
80.67355714116478
 20
253.99153736992488
 30
0.0
 10
80.70105714116478
 20
254.0630445313832
 30
0.0
 10
80.70105714116478
 20
254.10701588554988
 30
0.0
  0
SPLINE
  5
BA
330
17
100
AcDbEntity
  8
ENGRAVE
100
AcDbSpline
 70
0
 71
2
 72
6
 73
3
 74
0
 40
0.0
 40
0.0
 40
0.0
 40
1.0
 40
1.0
 40
1.0
 10
80.70105714116478
 20
254.10701588554988
 30
0.0
 10
80.70105714116478
 20
254.1510230470082
 30
0.0
 10
80.72855714116479
 20
254.19503020846653
 30
0.0
  0
SPLINE
  5
BB
330
17
100
AcDbEntity
  8
ENGRAVE
100
AcDbSpline
 70
0
 71
2
 72
6
 73
3
 74
0
 40
0.0
 40
0.0
 40
0.0
 40
1.0
 40
1.0
 40
1.0
 10
80.72855714116479
 20
254.19503020846653
 30
0.0
 10
80.75605714116477
 20
254.2390373699249
 30
0.0
 10
80.75605714116477
 20
254.2830445313832
 30
0.0
  0
SPLINE
  5
BC
330
17
100
AcDbEntity
  8
ENGRAVE
100
AcDbSpline
 70
0
 71
2
 72
6
 73
3
 74
0
 40
0.0
 40
0.0
 40
0.0
 40
1.0
 40
1.0
 40
1.0
 10
81.13006430262311
 20
252.57804453138323
 30
0.0
 10
80.95403565678978
 20
251.9730445313832
 30
0.0
 10
80.80554281824811
 20
251.4670337891957
 30
0.0
  0
SPLINE
  5
BD
330
17
100
AcDbEntity
  8
ENGRAVE
100
AcDbSpline
 70
0
 71
2
 72
6
 73
3
 74
0
 40
0.0
 40
0.0
 40
0.0
 40
1.0
 40
1.0
 40
1.0
 10
80.75605714116477
 20
254.2830445313832
 30
0.0
 10
80.83304281824812
 20
254.42602304700821
 30
0.0
 10
80.95954997970645
 20
254.73953378919572
 30
0.0
  0
SPLINE
  5
BE
330
17
100
AcDbEntity
  8
ENGRAVE
100
AcDbSpline
 70
0
 71
2
 72
6
 73
3
 74
0
 40
0.0
 40
0.0
 40
0.0
 40
1.0
 40
1.0
 40
1.0
 10
81.30605714116479
 20
253.1610230470082
 30
0.0
 10
81.30605714116479
 20
253.05102304700821
 30
0.0
 10
81.13006430262311
 20
252.57804453138323
 30
0.0
  0
SPLINE
  5
BF
330
17
100
AcDbEntity
  8
ENGRAVE
100
AcDbSpline
 70
0
 71
2
 72
6
 73
3
 74
0
 40
0.0
 40
0.0
 40
0.0
 40
1.0
 40
1.0
 40
1.0
 10
80.95954997970645
 20
254.73953378919572
 30
0.0
 10
81.08605714116477
 20
255.05304453138322
 30
0.0
 10
81.23454997970644
 20
255.4380445313832
 30
0.0
  0
SPLINE
  5
C0
330
17
100
AcDbEntity
  8
ENGRAVE
100
AcDbSpline
 70
0
 71
2
 72
6
 73
3
 74
0
 40
0.0
 40
0.0
 40
0.0
 40
1.0
 40
1.0
 40
1.0
 10
81.31155356043561
 20
253.22151946627903
 30
0.0
 10
81.30605714116479
 20
253.1610230470082
 30
0.0
 10
81.30605714116479
 20
253.1610230470082
 30
0.0
  0
SPLINE
  5
C1
330
17
100
AcDbEntity
  8
ENGRAVE
100
AcDbSpline
 70
0
 71
2
 72
6
 73
3
 74
0
 40
0.0
 40
0.0
 40
0.0
 40
1.0
 40
1.0
 40
1.0
 10
81.36105714116478
 20
253.28201588554987
 30
0.0
 10
81.31704997970644
 20
253.28201588554987
 30
0.0
 10
81.31155356043561
 20
253.22151946627903
 30
0.0
  0
SPLINE
  5
C2
330
17
100
AcDbEntity
  8
ENGRAVE
100
AcDbSpline
 70
0
 71
2
 72
6
 73
3
 74
0
 40
0.0
 40
0.0
 40
0.0
 40
1.0
 40
1.0
 40
1.0
 10
81.41056072189394
 20
253.37003020846655
 30
0.0
 10
81.40506430262312
 20
253.32602304700822
 30
0.0
 10
81.36105714116478
 20
253.28201588554987
 30
0.0
  0
SPLINE
  5
C3
330
17
100
AcDbEntity
  8
ENGRAVE
100
AcDbSpline
 70
0
 71
2
 72
6
 73
3
 74
0
 40
0.0
 40
0.0
 40
0.0
 40
1.0
 40
1.0
 40
1.0
 10
81.41605714116479
 20
253.45804453138322
 30
0.0
 10
81.41605714116479
 20
253.41403736992487
 30
0.0
 10
81.41056072189394
 20
253.37003020846655
 30
0.0
  0
SPLINE
  5
C4
330
17
100
AcDbEntity
  8
ENGRAVE
100
AcDbSpline
 70
0
 71
2
 72
6
 73
3
 74
0
 40
0.0
 40
0.0
 40
0.0
 40
1.0
 40
1.0
 40
1.0
 10
81.47105714116478
 20
253.61753020846655
 30
0.0
 10
81.41605714116479
 20
253.48003020846656
 30
0.0
 10
81.41605714116479
 20
253.45804453138322
 30
0.0
  0
SPLINE
  5
C5
330
17
100
AcDbEntity
  8
ENGRAVE
100
AcDbSpline
 70
0
 71
2
 72
6
 73
3
 74
0
 40
0.0
 40
0.0
 40
0.0
 40
1.0
 40
1.0
 40
1.0
 10
81.60855714116478
 20
253.94753020846656
 30
0.0
 10
81.52605714116478
 20
253.75503020846654
 30
0.0
 10
81.47105714116478
 20
253.61753020846655
 30
0.0
  0
SPLINE
  5
C6
330
17
100
AcDbEntity
  8
ENGRAVE
100
AcDbSpline
 70
0
 71
2
 72
6
 73
3
 74
0
 40
0.0
 40
0.0
 40
0.0
 40
1.0
 40
1.0
 40
1.0
 10
81.23454997970644
 20
255.4380445313832
 30
0.0
 10
81.38304281824811
 20
255.8230445313832
 30
0.0
 10
81.51504639897728
 20
256.1970337891957
 30
0.0
  0
SPLINE
  5
C7
330
17
100
AcDbEntity
  8
ENGRAVE
100
AcDbSpline
 70
0
 71
2
 72
6
 73
3
 74
0
 40
0.0
 40
0.0
 40
0.0
 40
1.0
 40
1.0
 40
1.0
 10
81.76806072189395
 20
254.31052662773737
 30
0.0
 10
81.69105714116478
 20
254.14003020846656
 30
0.0
 10
81.60855714116478
 20
253.94753020846656
 30
0.0
  0
SPLINE
  5
C8
330
17
100
AcDbEntity
  8
ENGRAVE
100
AcDbSpline
 70
0
 71
2
 72
6
 73
3
 74
0
 40
0.0
 40
0.0
 40
0.0
 40
1.0
 40
1.0
 40
1.0
 10
81.72407146408145
 20
249.27804453138322
 30
0.0
 10
81.64704997970645
 20
249.3660230470082
 30
0.0
 10
81.62506430262312
 20
249.46503020846654
 30
0.0
  0
SPLINE
  5
C9
330
17
100
AcDbEntity
  8
ENGRAVE
100
AcDbSpline
 70
0
 71
2
 72
6
 73
3
 74
0
 40
0.0
 40
0.0
 40
0.0
 40
1.0
 40
1.0
 40
1.0
 10
81.62506430262312
 20
249.46503020846654
 30
0.0
 10
81.60307862553978
 20
249.56403736992488
 30
0.0
 10
81.63605714116478
 20
249.83903736992488
 30
0.0
  0
SPLINE
  5
CA
330
17
100
AcDbEntity
  8
ENGRAVE
100
AcDbSpline
 70
0
 71
2
 72
6
 73
3
 74
0
 40
0.0
 40
0.0
 40
0.0
 40
1.0
 40
1.0
 40
1.0
 10
81.63605714116478
 20
249.83903736992488
 30
0.0
 10
81.68006430262311
 20
249.96003020846655
 30
0.0
 10
81.68556072189395
 20
250.07003020846653
 30
0.0
  0
SPLINE
  5
CB
330
17
100
AcDbEntity
  8
ENGRAVE
100
AcDbSpline
 70
0
 71
2
 72
6
 73
3
 74
0
 40
0.0
 40
0.0
 40
0.0
 40
1.0
 40
1.0
 40
1.0
 10
81.68556072189395
 20
250.07003020846653
 30
0.0
 10
81.69105714116478
 20
250.18003020846655
 30
0.0
 10
81.69105714116478
 20
250.22403736992487
 30
0.0
  0
SPLINE
  5
CC
330
17
100
AcDbEntity
  8
ENGRAVE
100
AcDbSpline
 70
0
 71
2
 72
6
 73
3
 74
0
 40
0.0
 40
0.0
 40
0.0
 40
1.0
 40
1.0
 40
1.0
 10
82.10907146408145
 20
248.95352304700822
 30
0.0
 10
81.87807862553979
 20
249.1020158855499
 30
0.0
 10
81.72407146408145
 20
249.27804453138322
 30
0.0
  0
SPLINE
  5
CD
330
17
100
AcDbEntity
  8
ENGRAVE
100
AcDbSpline
 70
0
 71
2
 72
6
 73
3
 74
0
 40
0.0
 40
0.0
 40
0.0
 40
1.0
 40
1.0
 40
1.0
 10
81.51504639897728
 20
256.1970337891957
 30
0.0
 10
81.64704997970645
 20
256.5710230470082
 30
0.0
 10
81.72954997970645
 20
256.8295337891957
 30
0.0
  0
SPLINE
  5
CE
330
17
100
AcDbEntity
  8
ENGRAVE
100
AcDbSpline
 70
0
 71
2
 72
6
 73
3
 74
0
 40
0.0
 40
0.0
 40
0.0
 40
1.0
 40
1.0
 40
1.0
 10
81.69105714116478
 20
250.22403736992487
 30
0.0
 10
81.69105714116478
 20
250.29003020846656
 30
0.0
 10
81.72956788335227
 20
250.5320337891957
 30
0.0
  0
SPLINE
  5
CF
330
17
100
AcDbEntity
  8
ENGRAVE
100
AcDbSpline
 70
0
 71
2
 72
6
 73
3
 74
0
 40
0.0
 40
0.0
 40
0.0
 40
1.0
 40
1.0
 40
1.0
 10
81.88903565678977
 20
254.56903736992487
 30
0.0
 10
81.84506430262311
 20
254.48102304700822
 30
0.0
 10
81.76806072189395
 20
254.31052662773737
 30
0.0
  0
SPLINE
  5
D0
330
17
100
AcDbEntity
  8
ENGRAVE
100
AcDbSpline
 70
0
 71
2
 72
6
 73
3
 74
0
 40
0.0
 40
0.0
 40
0.0
 40
1.0
 40
1.0
 40
1.0
 10
81.72954997970645
 20
256.8295337891957
 30
0.0
 10
81.81204997970644
 20
257.0880445313832
 30
0.0
 10
81.81204997970644
 20
257.1430445313832
 30
0.0
  0
SPLINE
  5
D1
330
17
100
AcDbEntity
  8
ENGRAVE
100
AcDbSpline
 70
0
 71
2
 72
6
 73
3
 74
0
 40
0.0
 40
0.0
 40
0.0
 40
1.0
 40
1.0
 40
1.0
 10
81.72956788335227
 20
250.5320337891957
 30
0.0
 10
81.76807862553979
 20
250.77403736992488
 30
0.0
 10
81.81206788335228
 20
251.04354095065403
 30
0.0
  0
SPLINE
  5
D2
330
17
100
AcDbEntity
  8
ENGRAVE
100
AcDbSpline
 70
0
 71
2
 72
6
 73
3
 74
0
 40
0.0
 40
0.0
 40
0.0
 40
1.0
 40
1.0
 40
1.0
 10
81.81204997970644
 20
257.1430445313832
 30
0.0
 10
81.81204997970644
 20
257.2310230470082
 30
0.0
 10
81.8780428182481
 20
257.3080266277374
 30
0.0
  0
SPLINE
  5
D3
330
17
100
AcDbEntity
  8
ENGRAVE
100
AcDbSpline
 70
0
 71
2
 72
6
 73
3
 74
0
 40
0.0
 40
0.0
 40
0.0
 40
1.0
 40
1.0
 40
1.0
 10
81.97155356043561
 20
254.78901946627906
 30
0.0
 10
81.93304281824811
 20
254.70102304700822
 30
0.0
 10
81.88903565678977
 20
254.56903736992487
 30
0.0
  0
SPLINE
  5
D4
330
17
100
AcDbEntity
  8
ENGRAVE
100
AcDbSpline
 70
0
 71
2
 72
6
 73
3
 74
0
 40
0.0
 40
0.0
 40
0.0
 40
1.0
 40
1.0
 40
1.0
 10
81.81206788335228
 20
251.04354095065403
 30
0.0
 10
81.85605714116478
 20
251.3130445313832
 30
0.0
 10
81.88907146408144
 20
251.45602304700822
 30
0.0
  0
SPLINE
  5
D5
330
17
100
AcDbEntity
  8
ENGRAVE
100
AcDbSpline
 70
0
 71
2
 72
6
 73
3
 74
0
 40
0.0
 40
0.0
 40
0.0
 40
1.0
 40
1.0
 40
1.0
 10
81.88907146408144
 20
251.45602304700822
 30
0.0
 10
81.88907146408144
 20
251.46701588554987
 30
0.0
 10
81.90556072189395
 20
251.53302662773737
 30
0.0
  0
SPLINE
  5
D6
330
17
100
AcDbEntity
  8
ENGRAVE
100
AcDbSpline
 70
0
 71
2
 72
6
 73
3
 74
0
 40
0.0
 40
0.0
 40
0.0
 40
1.0
 40
1.0
 40
1.0
 10
81.90556072189395
 20
251.53302662773737
 30
0.0
 10
81.92204997970644
 20
251.59903736992487
 30
0.0
 10
81.93307862553978
 20
251.6320158855499
 30
0.0
  0
SPLINE
  5
D7
330
17
100
AcDbEntity
  8
ENGRAVE
100
AcDbSpline
 70
0
 71
2
 72
6
 73
3
 74
0
 40
0.0
 40
0.0
 40
0.0
 40
1.0
 40
1.0
 40
1.0
 10
82.0100643026231
 20
254.92102304700822
 30
0.0
 10
82.0100643026231
 20
254.8770158855499
 30
0.0
 10
81.97155356043561
 20
254.78901946627906
 30
0.0
  0
SPLINE
  5
D8
330
17
100
AcDbEntity
  8
ENGRAVE
100
AcDbSpline
 70
0
 71
2
 72
6
 73
3
 74
0
 40
0.0
 40
0.0
 40
0.0
 40
1.0
 40
1.0
 40
1.0
 10
81.93307862553978
 20
251.6320158855499
 30
0.0
 10
81.95506430262311
 20
251.73102304700822
 30
0.0
 10
81.98806072189394
 20
251.87401946627904
 30
0.0
  0
SPLINE
  5
D9
330
17
100
AcDbEntity
  8
ENGRAVE
100
AcDbSpline
 70
0
 71
2
 72
6
 73
3
 74
0
 40
0.0
 40
0.0
 40
0.0
 40
1.0
 40
1.0
 40
1.0
 10
82.10905356043561
 20
255.15753020846654
 30
0.0
 10
82.0100643026231
 20
254.96503020846654
 30
0.0
 10
82.0100643026231
 20
254.92102304700822
 30
0.0
  0
SPLINE
  5
DA
330
17
100
AcDbEntity
  8
ENGRAVE
100
AcDbSpline
 70
0
 71
2
 72
6
 73
3
 74
0
 40
0.0
 40
0.0
 40
0.0
 40
1.0
 40
1.0
 40
1.0
 10
81.8780428182481
 20
257.3080266277374
 30
0.0
 10
81.94403565678978
 20
257.38503020846656
 30
0.0
 10
82.03204997970644
 20
257.38503020846656
 30
0.0
  0
SPLINE
  5
DB
330
17
100
AcDbEntity
  8
ENGRAVE
100
AcDbSpline
 70
0
 71
2
 72
6
 73
3
 74
0
 40
0.0
 40
0.0
 40
0.0
 40
1.0
 40
1.0
 40
1.0
 10
81.98806072189394
 20
251.87401946627904
 30
0.0
 10
82.02105714116477
 20
252.01701588554988
 30
0.0
 10
82.05407146408145
 20
252.25903736992487
 30
0.0
  0
SPLINE
  5
DC
330
17
100
AcDbEntity
  8
ENGRAVE
100
AcDbSpline
 70
0
 71
2
 72
6
 73
3
 74
0
 40
0.0
 40
0.0
 40
0.0
 40
1.0
 40
1.0
 40
1.0
 10
82.29605714116478
 20
255.57003020846653
 30
0.0
 10
82.20804281824812
 20
255.35003020846653
 30
0.0
 10
82.10905356043561
 20
255.15753020846654
 30
0.0
  0
SPLINE
  5
DD
330
17
100
AcDbEntity
  8
ENGRAVE
100
AcDbSpline
 70
0
 71
2
 72
6
 73
3
 74
0
 40
0.0
 40
0.0
 40
0.0
 40
1.0
 40
1.0
 40
1.0
 10
82.40605714116478
 20
248.84903736992487
 30
0.0
 10
82.34006430262312
 20
248.80503020846655
 30
0.0
 10
82.10907146408145
 20
248.95352304700822
 30
0.0
  0
SPLINE
  5
DE
330
17
100
AcDbEntity
  8
ENGRAVE
100
AcDbSpline
 70
0
 71
2
 72
6
 73
3
 74
0
 40
0.0
 40
0.0
 40
0.0
 40
1.0
 40
1.0
 40
1.0
 10
82.03204997970644
 20
257.38503020846656
 30
0.0
 10
82.06506430262311
 20
257.4180445313832
 30
0.0
 10
82.18605714116478
 20
257.4345337891957
 30
0.0
  0
SPLINE
  5
DF
330
17
100
AcDbEntity
  8
ENGRAVE
100
AcDbSpline
 70
0
 71
2
 72
6
 73
3
 74
0
 40
0.0
 40
0.0
 40
0.0
 40
1.0
 40
1.0
 40
1.0
 10
82.05407146408145
 20
252.25903736992487
 30
0.0
 10
82.14204997970644
 20
252.53403736992487
 30
0.0
 10
82.20256430262312
 20
252.80354095065405
 30
0.0
  0
SPLINE
  5
E0
330
17
100
AcDbEntity
  8
ENGRAVE
100
AcDbSpline
 70
0
 71
2
 72
6
 73
3
 74
0
 40
0.0
 40
0.0
 40
0.0
 40
1.0
 40
1.0
 40
1.0
 10
82.20256430262312
 20
252.80354095065405
 30
0.0
 10
82.26307862553978
 20
253.0730445313832
 30
0.0
 10
82.26307862553978
 20
253.17201588554988
 30
0.0
  0
SPLINE
  5
E1
330
17
100
AcDbEntity
  8
ENGRAVE
100
AcDbSpline
 70
0
 71
2
 72
6
 73
3
 74
0
 40
0.0
 40
0.0
 40
0.0
 40
1.0
 40
1.0
 40
1.0
 10
82.60405356043562
 20
256.2355266277374
 30
0.0
 10
82.50506430262311
 20
256.01003020846656
 30
0.0
 10
82.29605714116478
 20
255.57003020846653
 30
0.0
  0
SPLINE
  5
E2
330
17
100
AcDbEntity
  8
ENGRAVE
100
AcDbSpline
 70
0
 71
2
 72
6
 73
3
 74
0
 40
0.0
 40
0.0
 40
0.0
 40
1.0
 40
1.0
 40
1.0
 10
82.18605714116478
 20
257.4345337891957
 30
0.0
 10
82.30704997970645
 20
257.4510230470082
 30
0.0
 10
82.35105714116477
 20
257.4510230470082
 30
0.0
  0
SPLINE
  5
E3
330
17
100
AcDbEntity
  8
ENGRAVE
100
AcDbSpline
 70
0
 71
2
 72
6
 73
3
 74
0
 40
0.0
 40
0.0
 40
0.0
 40
1.0
 40
1.0
 40
1.0
 10
82.35105714116477
 20
257.4510230470082
 30
0.0
 10
82.35105714116477
 20
257.4510230470082
 30
0.0
 10
82.39504639897729
 20
257.40703378919574
 30
0.0
  0
SPLINE
  5
E4
330
17
100
AcDbEntity
  8
ENGRAVE
100
AcDbSpline
 70
0
 71
2
 72
6
 73
3
 74
0
 40
0.0
 40
0.0
 40
0.0
 40
1.0
 40
1.0
 40
1.0
 10
82.48855714116478
 20
249.00854095065404
 30
0.0
 10
82.46105714116479
 20
248.90403736992488
 30
0.0
 10
82.40605714116478
 20
248.84903736992487
 30
0.0
  0
SPLINE
  5
E5
330
17
100
AcDbEntity
  8
ENGRAVE
100
AcDbSpline
 70
0
 71
2
 72
6
 73
3
 74
0
 40
0.0
 40
0.0
 40
0.0
 40
1.0
 40
1.0
 40
1.0
 10
82.26307862553978
 20
253.17201588554988
 30
0.0
 10
82.26307862553978
 20
253.37003020846655
 30
0.0
 10
82.41704997970645
 20
253.45804453138322
 30
0.0
  0
SPLINE
  5
E6
330
17
100
AcDbEntity
  8
ENGRAVE
100
AcDbSpline
 70
0
 71
2
 72
6
 73
3
 74
0
 40
0.0
 40
0.0
 40
0.0
 40
1.0
 40
1.0
 40
1.0
 10
82.41704997970645
 20
253.45804453138322
 30
0.0
 10
82.42807862553978
 20
253.5130445313832
 30
0.0
 10
82.48307862553978
 20
253.62854095065404
 30
0.0
  0
SPLINE
  5
E7
330
17
100
AcDbEntity
  8
ENGRAVE
100
AcDbSpline
 70
0
 71
2
 72
6
 73
3
 74
0
 40
0.0
 40
0.0
 40
0.0
 40
1.0
 40
1.0
 40
1.0
 10
82.52704997970645
 20
249.25602304700823
 30
0.0
 10
82.51605714116478
 20
249.11304453138322
 30
0.0
 10
82.48855714116478
 20
249.00854095065404
 30
0.0
  0
SPLINE
  5
E8
330
17
100
AcDbEntity
  8
ENGRAVE
100
AcDbSpline
 70
0
 71
2
 72
6
 73
3
 74
0
 40
0.0
 40
0.0
 40
0.0
 40
1.0
 40
1.0
 40
1.0
 10
82.39504639897729
 20
257.40703378919574
 30
0.0
 10
82.43903565678978
 20
257.3630445313832
 30
0.0
 10
82.52704997970645
 20
257.27503020846655
 30
0.0
  0
SPLINE
  5
E9
330
17
100
AcDbEntity
  8
ENGRAVE
100
AcDbSpline
 70
0
 71
2
 72
6
 73
3
 74
0
 40
0.0
 40
0.0
 40
0.0
 40
1.0
 40
1.0
 40
1.0
 10
82.57657146408144
 20
249.93253020846655
 30
0.0
 10
82.56006430262312
 20
249.7510230470082
 30
0.0
 10
82.56006430262312
 20
249.57503020846656
 30
0.0
  0
SPLINE
  5
EA
330
17
100
AcDbEntity
  8
ENGRAVE
100
AcDbSpline
 70
0
 71
2
 72
6
 73
3
 74
0
 40
0.0
 40
0.0
 40
0.0
 40
1.0
 40
1.0
 40
1.0
 10
82.60407146408144
 20
250.22403736992487
 30
0.0
 10
82.59307862553977
 20
250.1140373699249
 30
0.0
 10
82.57657146408144
 20
249.93253020846655
 30
0.0
  0
SPLINE
  5
EB
330
17
100
AcDbEntity
  8
ENGRAVE
100
AcDbSpline
 70
0
 71
2
 72
6
 73
3
 74
0
 40
0.0
 40
0.0
 40
0.0
 40
1.0
 40
1.0
 40
1.0
 10
82.48307862553978
 20
253.62854095065404
 30
0.0
 10
82.53807862553978
 20
253.74403736992488
 30
0.0
 10
82.58204997970644
 20
253.82102304700823
 30
0.0
  0
SPLINE
  5
EC
330
17
100
AcDbEntity
  8
ENGRAVE
100
AcDbSpline
 70
0
 71
2
 72
6
 73
3
 74
0
 40
0.0
 40
0.0
 40
0.0
 40
1.0
 40
1.0
 40
1.0
 10
82.7415535604356
 20
256.5930266277374
 30
0.0
 10
82.70304281824811
 20
256.4610230470082
 30
0.0
 10
82.60405356043562
 20
256.2355266277374
 30
0.0
  0
SPLINE
  5
ED
330
17
100
AcDbEntity
  8
ENGRAVE
100
AcDbSpline
 70
0
 71
2
 72
6
 73
3
 74
0
 40
0.0
 40
0.0
 40
0.0
 40
1.0
 40
1.0
 40
1.0
 10
82.61506430262311
 20
250.29003020846656
 30
0.0
 10
82.61506430262311
 20
250.2570158855499
 30
0.0
 10
82.60407146408144
 20
250.22403736992487
 30
0.0
  0
SPLINE
  5
EE
330
17
100
AcDbEntity
  8
ENGRAVE
100
AcDbSpline
 70
0
 71
2
 72
6
 73
3
 74
0
 40
0.0
 40
0.0
 40
0.0
 40
1.0
 40
1.0
 40
1.0
 10
82.61506430262311
 20
250.33403736992489
 30
0.0
 10
82.61506430262311
 20
250.3230445313832
 30
0.0
 10
82.61506430262311
 20
250.29003020846656
 30
0.0
  0
SPLINE
  5
EF
330
17
100
AcDbEntity
  8
ENGRAVE
100
AcDbSpline
 70
0
 71
2
 72
6
 73
3
 74
0
 40
0.0
 40
0.0
 40
0.0
 40
1.0
 40
1.0
 40
1.0
 10
82.62605714116478
 20
250.44953378919573
 30
0.0
 10
82.61506430262311
 20
250.3780445313832
 30
0.0
 10
82.61506430262311
 20
250.33403736992489
 30
0.0
  0
SPLINE
  5
F0
330
17
100
AcDbEntity
  8
ENGRAVE
100
AcDbSpline
 70
0
 71
2
 72
6
 73
3
 74
0
 40
0.0
 40
0.0
 40
0.0
 40
1.0
 40
1.0
 40
1.0
 10
82.68105714116479
 20
250.6090373699249
 30
0.0
 10
82.63704997970645
 20
250.5210230470082
 30
0.0
 10
82.62605714116478
 20
250.44953378919573
 30
0.0
  0
SPLINE
  5
F1
330
17
100
AcDbEntity
  8
ENGRAVE
100
AcDbSpline
 70
0
 71
2
 72
6
 73
3
 74
0
 40
0.0
 40
0.0
 40
0.0
 40
1.0
 40
1.0
 40
1.0
 10
82.69206788335228
 20
250.81253020846654
 30
0.0
 10
82.68105714116479
 20
250.6970158855499
 30
0.0
 10
82.68105714116479
 20
250.6090373699249
 30
0.0
  0
SPLINE
  5
F2
330
17
100
AcDbEntity
  8
ENGRAVE
100
AcDbSpline
 70
0
 71
2
 72
6
 73
3
 74
0
 40
0.0
 40
0.0
 40
0.0
 40
1.0
 40
1.0
 40
1.0
 10
82.76907146408145
 20
251.00503020846654
 30
0.0
 10
82.70307862553977
 20
250.92804453138322
 30
0.0
 10
82.69206788335228
 20
250.81253020846654
 30
0.0
  0
SPLINE
  5
F3
330
17
100
AcDbEntity
  8
ENGRAVE
100
AcDbSpline
 70
0
 71
2
 72
6
 73
3
 74
0
 40
0.0
 40
0.0
 40
0.0
 40
1.0
 40
1.0
 40
1.0
 10
82.52704997970645
 20
257.27503020846655
 30
0.0
 10
82.61506430262311
 20
257.19804453138323
 30
0.0
 10
82.6975643026231
 20
257.0990373699249
 30
0.0
  0
SPLINE
  5
F4
330
17
100
AcDbEntity
  8
ENGRAVE
100
AcDbSpline
 70
0
 71
2
 72
6
 73
3
 74
0
 40
0.0
 40
0.0
 40
0.0
 40
1.0
 40
1.0
 40
1.0
 10
82.78006430262312
 20
256.8680445313832
 30
0.0
 10
82.78006430262312
 20
256.72503020846653
 30
0.0
 10
82.7415535604356
 20
256.5930266277374
 30
0.0
  0
SPLINE
  5
F5
330
17
100
AcDbEntity
  8
ENGRAVE
100
AcDbSpline
 70
0
 71
2
 72
6
 73
3
 74
0
 40
0.0
 40
0.0
 40
0.0
 40
1.0
 40
1.0
 40
1.0
 10
82.80756430262312
 20
251.27453378919571
 30
0.0
 10
82.76907146408145
 20
251.07102304700823
 30
0.0
 10
82.76907146408145
 20
251.00503020846654
 30
0.0
  0
SPLINE
  5
F6
330
17
100
AcDbEntity
  8
ENGRAVE
100
AcDbSpline
 70
0
 71
2
 72
6
 73
3
 74
0
 40
0.0
 40
0.0
 40
0.0
 40
1.0
 40
1.0
 40
1.0
 10
82.6975643026231
 20
257.0990373699249
 30
0.0
 10
82.78006430262312
 20
257.00003020846657
 30
0.0
 10
82.78006430262312
 20
256.8680445313832
 30
0.0
  0
SPLINE
  5
F7
330
17
100
AcDbEntity
  8
ENGRAVE
100
AcDbSpline
 70
0
 71
2
 72
6
 73
3
 74
0
 40
0.0
 40
0.0
 40
0.0
 40
1.0
 40
1.0
 40
1.0
 10
82.89556072189394
 20
251.7145337891957
 30
0.0
 10
82.84605714116478
 20
251.4780445313832
 30
0.0
 10
82.80756430262312
 20
251.27453378919571
 30
0.0
  0
SPLINE
  5
F8
330
17
100
AcDbEntity
  8
ENGRAVE
100
AcDbSpline
 70
0
 71
2
 72
6
 73
3
 74
0
 40
0.0
 40
0.0
 40
0.0
 40
1.0
 40
1.0
 40
1.0
 10
82.99456788335227
 20
252.1545337891957
 30
0.0
 10
82.94506430262311
 20
251.95102304700822
 30
0.0
 10
82.89556072189394
 20
251.7145337891957
 30
0.0
  0
SPLINE
  5
F9
330
17
100
AcDbEntity
  8
ENGRAVE
100
AcDbSpline
 70
0
 71
2
 72
6
 73
3
 74
0
 40
0.0
 40
0.0
 40
0.0
 40
1.0
 40
1.0
 40
1.0
 10
82.58204997970644
 20
253.82102304700823
 30
0.0
 10
82.80204997970645
 20
254.4480445313832
 30
0.0
 10
82.94506430262311
 20
254.8220337891957
 30
0.0
  0
SPLINE
  5
FA
330
17
100
AcDbEntity
  8
ENGRAVE
100
AcDbSpline
 70
0
 71
2
 72
6
 73
3
 74
0
 40
0.0
 40
0.0
 40
0.0
 40
1.0
 40
1.0
 40
1.0
 10
83.06605714116478
 20
252.4240373699249
 30
0.0
 10
83.04407146408144
 20
252.3580445313832
 30
0.0
 10
82.99456788335227
 20
252.1545337891957
 30
0.0
  0
SPLINE
  5
FB
330
17
100
AcDbEntity
  8
ENGRAVE
100
AcDbSpline
 70
0
 71
2
 72
6
 73
3
 74
0
 40
0.0
 40
0.0
 40
0.0
 40
1.0
 40
1.0
 40
1.0
 10
83.12105714116478
 20
252.65503020846654
 30
0.0
 10
83.12105714116478
 20
252.51201588554989
 30
0.0
 10
83.06605714116478
 20
252.4240373699249
 30
0.0
  0
SPLINE
  5
FC
330
17
100
AcDbEntity
  8
ENGRAVE
100
AcDbSpline
 70
0
 71
2
 72
6
 73
3
 74
0
 40
0.0
 40
0.0
 40
0.0
 40
1.0
 40
1.0
 40
1.0
 10
83.14855714116479
 20
252.74854095065405
 30
0.0
 10
83.12105714116478
 20
252.6880445313832
 30
0.0
 10
83.12105714116478
 20
252.65503020846654
 30
0.0
  0
SPLINE
  5
FD
330
17
100
AcDbEntity
  8
ENGRAVE
100
AcDbSpline
 70
0
 71
2
 72
6
 73
3
 74
0
 40
0.0
 40
0.0
 40
0.0
 40
1.0
 40
1.0
 40
1.0
 10
83.22006430262311
 20
252.80903736992488
 30
0.0
 10
83.17605714116478
 20
252.80903736992488
 30
0.0
 10
83.14855714116479
 20
252.74854095065405
 30
0.0
  0
SPLINE
  5
FE
330
17
100
AcDbEntity
  8
ENGRAVE
100
AcDbSpline
 70
0
 71
2
 72
6
 73
3
 74
0
 40
0.0
 40
0.0
 40
0.0
 40
1.0
 40
1.0
 40
1.0
 10
83.41806072189395
 20
252.90253020846654
 30
0.0
 10
83.23105714116478
 20
252.8530445313832
 30
0.0
 10
83.22006430262311
 20
252.80903736992488
 30
0.0
  0
SPLINE
  5
FF
330
17
100
AcDbEntity
  8
ENGRAVE
100
AcDbSpline
 70
0
 71
2
 72
6
 73
3
 74
0
 40
0.0
 40
0.0
 40
0.0
 40
1.0
 40
1.0
 40
1.0
 10
82.94506430262311
 20
254.8220337891957
 30
0.0
 10
83.08807862553978
 20
255.19602304700823
 30
0.0
 10
83.24204997970645
 20
255.4710230470082
 30
0.0
  0
SPLINE
  5
100
330
17
100
AcDbEntity
  8
ENGRAVE
100
AcDbSpline
 70
0
 71
2
 72
6
 73
3
 74
0
 40
0.0
 40
0.0
 40
0.0
 40
1.0
 40
1.0
 40
1.0
 10
83.24204997970645
 20
255.4710230470082
 30
0.0
 10
83.30807862553978
 20
255.6580445313832
 30
0.0
 10
83.39057862553977
 20
255.85604095065406
 30
0.0
  0
SPLINE
  5
101
330
17
100
AcDbEntity
  8
ENGRAVE
100
AcDbSpline
 70
0
 71
2
 72
6
 73
3
 74
0
 40
0.0
 40
0.0
 40
0.0
 40
1.0
 40
1.0
 40
1.0
 10
83.85256430262311
 20
253.00151946627903
 30
0.0
 10
83.60506430262312
 20
252.95201588554988
 30
0.0
 10
83.41806072189395
 20
252.90253020846654
 30
0.0
  0
SPLINE
  5
102
330
17
100
AcDbEntity
  8
ENGRAVE
100
AcDbSpline
 70
0
 71
2
 72
6
 73
3
 74
0
 40
0.0
 40
0.0
 40
0.0
 40
1.0
 40
1.0
 40
1.0
 10
83.59407146408145
 20
254.08503020846655
 30
0.0
 10
83.53907146408145
 20
253.95304453138323
 30
0.0
 10
83.53907146408145
 20
253.9310230470082
 30
0.0
  0
SPLINE
  5
103
330
17
100
AcDbEntity
  8
ENGRAVE
100
AcDbSpline
 70
0
 71
2
 72
6
 73
3
 74
0
 40
0.0
 40
0.0
 40
0.0
 40
1.0
 40
1.0
 40
1.0
 10
83.39057862553977
 20
255.85604095065406
 30
0.0
 10
83.47307862553978
 20
256.05403736992486
 30
0.0
 10
83.56105714116478
 20
256.16403736992487
 30
0.0
  0
SPLINE
  5
104
330
17
100
AcDbEntity
  8
ENGRAVE
100
AcDbSpline
 70
0
 71
2
 72
6
 73
3
 74
0
 40
0.0
 40
0.0
 40
0.0
 40
1.0
 40
1.0
 40
1.0
 10
83.69857504481061
 20
254.3435230470082
 30
0.0
 10
83.64907146408144
 20
254.21701588554987
 30
0.0
 10
83.59407146408145
 20
254.08503020846655
 30
0.0
  0
SPLINE
  5
105
330
17
100
AcDbEntity
  8
ENGRAVE
100
AcDbSpline
 70
0
 71
2
 72
6
 73
3
 74
0
 40
0.0
 40
0.0
 40
0.0
 40
1.0
 40
1.0
 40
1.0
 10
83.74807862553978
 20
254.47003020846654
 30
0.0
 10
83.74807862553978
 20
254.47003020846654
 30
0.0
 10
83.69857504481061
 20
254.3435230470082
 30
0.0
  0
SPLINE
  5
106
330
17
100
AcDbEntity
  8
ENGRAVE
100
AcDbSpline
 70
0
 71
2
 72
6
 73
3
 74
0
 40
0.0
 40
0.0
 40
0.0
 40
1.0
 40
1.0
 40
1.0
 10
83.94605714116479
 20
254.83304453138322
 30
0.0
 10
83.84704997970644
 20
254.58003020846655
 30
0.0
 10
83.75907146408144
 20
254.49201588554988
 30
0.0
  0
SPLINE
  5
107
330
17
100
AcDbEntity
  8
ENGRAVE
100
AcDbSpline
 70
0
 71
2
 72
6
 73
3
 74
0
 40
0.0
 40
0.0
 40
0.0
 40
1.0
 40
1.0
 40
1.0
 10
83.53907146408145
 20
253.9310230470082
 30
0.0
 10
83.53907146408145
 20
253.86503020846655
 30
0.0
 10
83.81407146408145
 20
253.89802662773738
 30
0.0
  0
SPLINE
  5
108
330
17
100
AcDbEntity
  8
ENGRAVE
100
AcDbSpline
 70
0
 71
2
 72
6
 73
3
 74
0
 40
0.0
 40
0.0
 40
0.0
 40
1.0
 40
1.0
 40
1.0
 10
83.56105714116478
 20
256.16403736992487
 30
0.0
 10
83.63807862553978
 20
256.31804453138324
 30
0.0
 10
83.83057862553979
 20
256.54354095065406
 30
0.0
  0
SPLINE
  5
109
330
17
100
AcDbEntity
  8
ENGRAVE
100
AcDbSpline
 70
0
 71
2
 72
6
 73
3
 74
0
 40
0.0
 40
0.0
 40
0.0
 40
1.0
 40
1.0
 40
1.0
 10
84.29807862553977
 20
253.09503020846654
 30
0.0
 10
84.10006430262311
 20
253.05102304700821
 30
0.0
 10
83.85256430262311
 20
253.00151946627903
 30
0.0
  0
SPLINE
  5
10A
330
17
100
AcDbEntity
  8
ENGRAVE
100
AcDbSpline
 70
0
 71
2
 72
6
 73
3
 74
0
 40
0.0
 40
0.0
 40
0.0
 40
1.0
 40
1.0
 40
1.0
 10
84.0725643026231
 20
255.0970158855499
 30
0.0
 10
84.03407146408145
 20
254.98701588554988
 30
0.0
 10
83.94605714116479
 20
254.83304453138322
 30
0.0
  0
SPLINE
  5
10B
330
17
100
AcDbEntity
  8
ENGRAVE
100
AcDbSpline
 70
0
 71
2
 72
6
 73
3
 74
0
 40
0.0
 40
0.0
 40
0.0
 40
1.0
 40
1.0
 40
1.0
 10
84.11105714116478
 20
255.20701588554988
 30
0.0
 10
84.11105714116478
 20
255.20701588554988
 30
0.0
 10
84.0725643026231
 20
255.0970158855499
 30
0.0
  0
SPLINE
  5
10C
330
17
100
AcDbEntity
  8
ENGRAVE
100
AcDbSpline
 70
0
 71
2
 72
6
 73
3
 74
0
 40
0.0
 40
0.0
 40
0.0
 40
1.0
 40
1.0
 40
1.0
 10
84.17704997970645
 20
255.3170158855499
 30
0.0
 10
84.17704997970645
 20
255.20701588554988
 30
0.0
 10
84.11105714116478
 20
255.20701588554988
 30
0.0
  0
SPLINE
  5
10D
330
17
100
AcDbEntity
  8
ENGRAVE
100
AcDbSpline
 70
0
 71
2
 72
6
 73
3
 74
0
 40
0.0
 40
0.0
 40
0.0
 40
1.0
 40
1.0
 40
1.0
 10
84.36407146408145
 20
255.68003020846655
 30
0.0
 10
84.17704997970645
 20
255.41602304700822
 30
0.0
 10
84.17704997970645
 20
255.3170158855499
 30
0.0
  0
SPLINE
  5
10E
330
17
100
AcDbEntity
  8
ENGRAVE
100
AcDbSpline
 70
0
 71
2
 72
6
 73
3
 74
0
 40
0.0
 40
0.0
 40
0.0
 40
1.0
 40
1.0
 40
1.0
 10
83.83057862553979
 20
256.54354095065406
 30
0.0
 10
84.02307862553978
 20
256.7690373699249
 30
0.0
 10
84.24307862553978
 20
256.9780266277374
 30
0.0
  0
SPLINE
  5
10F
330
17
100
AcDbEntity
  8
ENGRAVE
100
AcDbSpline
 70
0
 71
2
 72
6
 73
3
 74
0
 40
0.0
 40
0.0
 40
0.0
 40
1.0
 40
1.0
 40
1.0
 10
84.76556072189395
 20
253.21604095065405
 30
0.0
 10
84.52907146408144
 20
253.1390373699249
 30
0.0
 10
84.29807862553977
 20
253.09503020846654
 30
0.0
  0
SPLINE
  5
110
330
17
100
AcDbEntity
  8
ENGRAVE
100
AcDbSpline
 70
0
 71
2
 72
6
 73
3
 74
0
 40
0.0
 40
0.0
 40
0.0
 40
1.0
 40
1.0
 40
1.0
 10
83.81407146408145
 20
253.89802662773738
 30
0.0
 10
84.08907146408144
 20
253.9310230470082
 30
0.0
 10
84.35307862553978
 20
254.0080445313832
 30
0.0
  0
SPLINE
  5
111
330
17
100
AcDbEntity
  8
ENGRAVE
100
AcDbSpline
 70
0
 71
2
 72
6
 73
3
 74
0
 40
0.0
 40
0.0
 40
0.0
 40
1.0
 40
1.0
 40
1.0
 10
84.54556072189395
 20
255.93854095065404
 30
0.0
 10
84.48506430262312
 20
255.8230445313832
 30
0.0
 10
84.36407146408145
 20
255.68003020846655
 30
0.0
  0
SPLINE
  5
112
330
17
100
AcDbEntity
  8
ENGRAVE
100
AcDbSpline
 70
0
 71
2
 72
6
 73
3
 74
0
 40
0.0
 40
0.0
 40
0.0
 40
1.0
 40
1.0
 40
1.0
 10
84.60605714116478
 20
256.05403736992486
 30
0.0
 10
84.60605714116478
 20
256.05403736992486
 30
0.0
 10
84.54556072189395
 20
255.93854095065404
 30
0.0
  0
SPLINE
  5
113
330
17
100
AcDbEntity
  8
ENGRAVE
100
AcDbSpline
 70
0
 71
2
 72
6
 73
3
 74
0
 40
0.0
 40
0.0
 40
0.0
 40
1.0
 40
1.0
 40
1.0
 10
84.35307862553978
 20
254.0080445313832
 30
0.0
 10
84.50704997970645
 20
254.05201588554988
 30
0.0
 10
84.57306072189395
 20
254.05201588554988
 30
0.0
  0
SPLINE
  5
114
330
17
100
AcDbEntity
  8
ENGRAVE
100
AcDbSpline
 70
0
 71
2
 72
6
 73
3
 74
0
 40
0.0
 40
0.0
 40
0.0
 40
1.0
 40
1.0
 40
1.0
 10
84.24307862553978
 20
256.9780266277374
 30
0.0
 10
84.46307862553978
 20
257.1870158855499
 30
0.0
 10
84.59506430262311
 20
257.2860230470082
 30
0.0
  0
SPLINE
  5
115
330
17
100
AcDbEntity
  8
ENGRAVE
100
AcDbSpline
 70
0
 71
2
 72
6
 73
3
 74
0
 40
0.0
 40
0.0
 40
0.0
 40
1.0
 40
1.0
 40
1.0
 10
84.73256430262312
 20
256.2465373699249
 30
0.0
 10
84.60605714116478
 20
256.10903736992486
 30
0.0
 10
84.60605714116478
 20
256.05403736992486
 30
0.0
  0
SPLINE
  5
116
330
17
100
AcDbEntity
  8
ENGRAVE
100
AcDbSpline
 70
0
 71
2
 72
6
 73
3
 74
0
 40
0.0
 40
0.0
 40
0.0
 40
1.0
 40
1.0
 40
1.0
 10
85.00206788335228
 20
256.51604095065403
 30
0.0
 10
84.85907146408145
 20
256.3840373699249
 30
0.0
 10
84.73256430262312
 20
256.2465373699249
 30
0.0
  0
SPLINE
  5
117
330
17
100
AcDbEntity
  8
ENGRAVE
100
AcDbSpline
 70
0
 71
2
 72
6
 73
3
 74
0
 40
0.0
 40
0.0
 40
0.0
 40
1.0
 40
1.0
 40
1.0
 10
85.01307862553978
 20
253.33701588554987
 30
0.0
 10
85.00204997970644
 20
253.2930445313832
 30
0.0
 10
84.76556072189395
 20
253.21604095065405
 30
0.0
  0
SPLINE
  5
118
330
17
100
AcDbEntity
  8
ENGRAVE
100
AcDbSpline
 70
0
 71
2
 72
6
 73
3
 74
0
 40
0.0
 40
0.0
 40
0.0
 40
1.0
 40
1.0
 40
1.0
 10
84.57306072189395
 20
254.05201588554988
 30
0.0
 10
84.63907146408144
 20
254.05201588554988
 30
0.0
 10
84.78204997970644
 20
254.0080445313832
 30
0.0
  0
SPLINE
  5
119
330
17
100
AcDbEntity
  8
ENGRAVE
100
AcDbSpline
 70
0
 71
2
 72
6
 73
3
 74
0
 40
0.0
 40
0.0
 40
0.0
 40
1.0
 40
1.0
 40
1.0
 10
84.78204997970644
 20
254.0080445313832
 30
0.0
 10
84.87006430262312
 20
253.95304453138323
 30
0.0
 10
84.92506430262311
 20
253.8155445313832
 30
0.0
  0
SPLINE
  5
11A
330
17
100
AcDbEntity
  8
ENGRAVE
100
AcDbSpline
 70
0
 71
2
 72
6
 73
3
 74
0
 40
0.0
 40
0.0
 40
0.0
 40
1.0
 40
1.0
 40
1.0
 10
85.18907146408145
 20
256.6700302084665
 30
0.0
 10
85.14506430262311
 20
256.6480445313832
 30
0.0
 10
85.00206788335228
 20
256.51604095065403
 30
0.0
  0
SPLINE
  5
11B
330
17
100
AcDbEntity
  8
ENGRAVE
100
AcDbSpline
 70
0
 71
2
 72
6
 73
3
 74
0
 40
0.0
 40
0.0
 40
0.0
 40
1.0
 40
1.0
 40
1.0
 10
84.92506430262311
 20
253.8155445313832
 30
0.0
 10
84.9800643026231
 20
253.67804453138322
 30
0.0
 10
85.00756430262311
 20
253.5405445313832
 30
0.0
  0
SPLINE
  5
11C
330
17
100
AcDbEntity
  8
ENGRAVE
100
AcDbSpline
 70
0
 71
2
 72
6
 73
3
 74
0
 40
0.0
 40
0.0
 40
0.0
 40
1.0
 40
1.0
 40
1.0
 10
85.00756430262311
 20
253.5405445313832
 30
0.0
 10
85.03506430262311
 20
253.40304453138322
 30
0.0
 10
85.01307862553978
 20
253.33701588554987
 30
0.0
  0
SPLINE
  5
11D
330
17
100
AcDbEntity
  8
ENGRAVE
100
AcDbSpline
 70
0
 71
2
 72
6
 73
3
 74
0
 40
0.0
 40
0.0
 40
0.0
 40
1.0
 40
1.0
 40
1.0
 10
84.59506430262311
 20
257.2860230470082
 30
0.0
 10
84.83704997970645
 20
257.40701588554987
 30
0.0
 10
85.04605714116478
 20
257.48401946627905
 30
0.0
  0
SPLINE
  5
11E
330
17
100
AcDbEntity
  8
ENGRAVE
100
AcDbSpline
 70
0
 71
2
 72
6
 73
3
 74
0
 40
0.0
 40
0.0
 40
0.0
 40
1.0
 40
1.0
 40
1.0
 10
85.10657146408144
 20
250.63102304700823
 30
0.0
 10
85.06807862553978
 20
250.80701588554987
 30
0.0
 10
85.07907146408144
 20
250.97753020846656
 30
0.0
  0
SPLINE
  5
11F
330
17
100
AcDbEntity
  8
ENGRAVE
100
AcDbSpline
 70
0
 71
2
 72
6
 73
3
 74
0
 40
0.0
 40
0.0
 40
0.0
 40
1.0
 40
1.0
 40
1.0
 10
85.23307862553978
 20
250.36701588554988
 30
0.0
 10
85.14506430262311
 20
250.45503020846655
 30
0.0
 10
85.10657146408144
 20
250.63102304700823
 30
0.0
  0
SPLINE
  5
120
330
17
100
AcDbEntity
  8
ENGRAVE
100
AcDbSpline
 70
0
 71
2
 72
6
 73
3
 74
0
 40
0.0
 40
0.0
 40
0.0
 40
1.0
 40
1.0
 40
1.0
 10
85.07907146408144
 20
250.97753020846656
 30
0.0
 10
85.0900643026231
 20
251.14804453138322
 30
0.0
 10
85.13407146408144
 20
251.23602304700822
 30
0.0
  0
SPLINE
  5
121
330
17
100
AcDbEntity
  8
ENGRAVE
100
AcDbSpline
 70
0
 71
2
 72
6
 73
3
 74
0
 40
0.0
 40
0.0
 40
0.0
 40
1.0
 40
1.0
 40
1.0
 10
85.13407146408144
 20
251.23602304700822
 30
0.0
 10
85.13407146408144
 20
251.3240373699249
 30
0.0
 10
85.16157146408145
 20
251.37354095065405
 30
0.0
  0
SPLINE
  5
122
330
17
100
AcDbEntity
  8
ENGRAVE
100
AcDbSpline
 70
0
 71
2
 72
6
 73
3
 74
0
 40
0.0
 40
0.0
 40
0.0
 40
1.0
 40
1.0
 40
1.0
 10
85.16157146408145
 20
251.37354095065405
 30
0.0
 10
85.18907146408145
 20
251.42304453138323
 30
0.0
 10
85.17807862553978
 20
251.46701588554987
 30
0.0
  0
SPLINE
  5
123
330
17
100
AcDbEntity
  8
ENGRAVE
100
AcDbSpline
 70
0
 71
2
 72
6
 73
3
 74
0
 40
0.0
 40
0.0
 40
0.0
 40
1.0
 40
1.0
 40
1.0
 10
85.46956788335228
 20
256.56003020846657
 30
0.0
 10
85.43105714116479
 20
256.6920158855499
 30
0.0
 10
85.18907146408145
 20
256.6700302084665
 30
0.0
  0
SPLINE
  5
124
330
17
100
AcDbEntity
  8
ENGRAVE
100
AcDbSpline
 70
0
 71
2
 72
6
 73
3
 74
0
 40
0.0
 40
0.0
 40
0.0
 40
1.0
 40
1.0
 40
1.0
 10
85.17807862553978
 20
251.46701588554987
 30
0.0
 10
85.16704997970645
 20
251.51102304700822
 30
0.0
 10
85.2000643026231
 20
251.6210230470082
 30
0.0
  0
SPLINE
  5
125
330
17
100
AcDbEntity
  8
ENGRAVE
100
AcDbSpline
 70
0
 71
2
 72
6
 73
3
 74
0
 40
0.0
 40
0.0
 40
0.0
 40
1.0
 40
1.0
 40
1.0
 10
85.6675643026231
 20
250.23503020846655
 30
0.0
 10
85.4200643026231
 20
250.1580445313832
 30
0.0
 10
85.23307862553978
 20
250.36701588554988
 30
0.0
  0
SPLINE
  5
126
330
17
100
AcDbEntity
  8
ENGRAVE
100
AcDbSpline
 70
0
 71
2
 72
6
 73
3
 74
0
 40
0.0
 40
0.0
 40
0.0
 40
1.0
 40
1.0
 40
1.0
 10
85.37607504481062
 20
255.43802662773737
 30
0.0
 10
85.23307862553978
 20
255.4710230470082
 30
0.0
 10
85.23307862553978
 20
255.63602304700822
 30
0.0
  0
SPLINE
  5
127
330
17
100
AcDbEntity
  8
ENGRAVE
100
AcDbSpline
 70
0
 71
2
 72
6
 73
3
 74
0
 40
0.0
 40
0.0
 40
0.0
 40
1.0
 40
1.0
 40
1.0
 10
85.23307862553978
 20
255.63602304700822
 30
0.0
 10
85.23307862553978
 20
255.71304453138322
 30
0.0
 10
85.23857504481062
 20
255.77903736992488
 30
0.0
  0
SPLINE
  5
128
330
17
100
AcDbEntity
  8
ENGRAVE
100
AcDbSpline
 70
0
 71
2
 72
6
 73
3
 74
0
 40
0.0
 40
0.0
 40
0.0
 40
1.0
 40
1.0
 40
1.0
 10
85.23857504481062
 20
255.77903736992488
 30
0.0
 10
85.24407146408144
 20
255.84503020846654
 30
0.0
 10
85.24407146408144
 20
255.84503020846654
 30
0.0
  0
SPLINE
  5
129
330
17
100
AcDbEntity
  8
ENGRAVE
100
AcDbSpline
 70
0
 71
2
 72
6
 73
3
 74
0
 40
0.0
 40
0.0
 40
0.0
 40
1.0
 40
1.0
 40
1.0
 10
85.2000643026231
 20
251.6210230470082
 30
0.0
 10
85.23307862553978
 20
251.73102304700822
 30
0.0
 10
85.26605714116478
 20
251.83003020846655
 30
0.0
  0
SPLINE
  5
12A
330
17
100
AcDbEntity
  8
ENGRAVE
100
AcDbSpline
 70
0
 71
2
 72
6
 73
3
 74
0
 40
0.0
 40
0.0
 40
0.0
 40
1.0
 40
1.0
 40
1.0
 10
85.65105714116478
 20
255.48201588554988
 30
0.0
 10
85.51907146408145
 20
255.40503020846654
 30
0.0
 10
85.37607504481062
 20
255.43802662773737
 30
0.0
  0
SPLINE
  5
12B
330
17
100
AcDbEntity
  8
ENGRAVE
100
AcDbSpline
 70
0
 71
2
 72
6
 73
3
 74
0
 40
0.0
 40
0.0
 40
0.0
 40
1.0
 40
1.0
 40
1.0
 10
85.24407146408144
 20
255.84503020846654
 30
0.0
 10
85.31006430262312
 20
256.1200302084666
 30
0.0
 10
85.42006430262312
 20
256.28503020846654
 30
0.0
  0
SPLINE
  5
12C
330
17
100
AcDbEntity
  8
ENGRAVE
100
AcDbSpline
 70
0
 71
2
 72
6
 73
3
 74
0
 40
0.0
 40
0.0
 40
0.0
 40
1.0
 40
1.0
 40
1.0
 10
85.26605714116478
 20
251.83003020846655
 30
0.0
 10
85.34307862553977
 20
252.00602304700823
 30
0.0
 10
85.44206788335228
 20
252.28651946627906
 30
0.0
  0
SPLINE
  5
12D
330
17
100
AcDbEntity
  8
ENGRAVE
100
AcDbSpline
 70
0
 71
2
 72
6
 73
3
 74
0
 40
0.0
 40
0.0
 40
0.0
 40
1.0
 40
1.0
 40
1.0
 10
85.42006430262312
 20
256.28503020846654
 30
0.0
 10
85.50807862553978
 20
256.4280445313832
 30
0.0
 10
85.46956788335228
 20
256.56003020846657
 30
0.0
  0
SPLINE
  5
12E
330
17
100
AcDbEntity
  8
ENGRAVE
100
AcDbSpline
 70
0
 71
2
 72
6
 73
3
 74
0
 40
0.0
 40
0.0
 40
0.0
 40
1.0
 40
1.0
 40
1.0
 10
85.04605714116478
 20
257.48401946627905
 30
0.0
 10
85.25506430262311
 20
257.56102304700823
 30
0.0
 10
85.48605714116478
 20
257.56102304700823
 30
0.0
  0
SPLINE
  5
12F
330
17
100
AcDbEntity
  8
ENGRAVE
100
AcDbSpline
 70
0
 71
2
 72
6
 73
3
 74
0
 40
0.0
 40
0.0
 40
0.0
 40
1.0
 40
1.0
 40
1.0
 10
85.44206788335228
 20
252.28651946627906
 30
0.0
 10
85.54105714116477
 20
252.5670158855499
 30
0.0
 10
85.64006430262312
 20
252.85852304700822
 30
0.0
  0
SPLINE
  5
130
330
17
100
AcDbEntity
  8
ENGRAVE
100
AcDbSpline
 70
0
 71
2
 72
6
 73
3
 74
0
 40
0.0
 40
0.0
 40
0.0
 40
1.0
 40
1.0
 40
1.0
 10
85.86006430262312
 20
255.69653736992487
 30
0.0
 10
85.71704997970645
 20
255.49304453138322
 30
0.0
 10
85.65105714116478
 20
255.48201588554988
 30
0.0
  0
SPLINE
  5
131
330
17
100
AcDbEntity
  8
ENGRAVE
100
AcDbSpline
 70
0
 71
2
 72
6
 73
3
 74
0
 40
0.0
 40
0.0
 40
0.0
 40
1.0
 40
1.0
 40
1.0
 10
86.01407146408144
 20
250.7630445313832
 30
0.0
 10
85.91506430262311
 20
250.31201588554987
 30
0.0
 10
85.6675643026231
 20
250.23503020846655
 30
0.0
  0
SPLINE
  5
132
330
17
100
AcDbEntity
  8
ENGRAVE
100
AcDbSpline
 70
0
 71
2
 72
6
 73
3
 74
0
 40
0.0
 40
0.0
 40
0.0
 40
1.0
 40
1.0
 40
1.0
 10
85.64006430262312
 20
252.85852304700822
 30
0.0
 10
85.73907146408145
 20
253.15003020846655
 30
0.0
 10
85.80506430262311
 20
253.36453378919572
 30
0.0
  0
SPLINE
  5
133
330
17
100
AcDbEntity
  8
ENGRAVE
100
AcDbSpline
 70
0
 71
2
 72
6
 73
3
 74
0
 40
0.0
 40
0.0
 40
0.0
 40
1.0
 40
1.0
 40
1.0
 10
85.48605714116478
 20
257.56102304700823
 30
0.0
 10
85.69506430262311
 20
257.56102304700823
 30
0.0
 10
85.85456788335227
 20
257.46753020846654
 30
0.0
  0
SPLINE
  5
134
330
17
100
AcDbEntity
  8
ENGRAVE
100
AcDbSpline
 70
0
 71
2
 72
6
 73
3
 74
0
 40
0.0
 40
0.0
 40
0.0
 40
1.0
 40
1.0
 40
1.0
 10
86.15706788335228
 20
256.1585230470082
 30
0.0
 10
86.00307862553979
 20
255.90003020846655
 30
0.0
 10
85.86006430262312
 20
255.69653736992487
 30
0.0
  0
SPLINE
  5
135
330
17
100
AcDbEntity
  8
ENGRAVE
100
AcDbSpline
 70
0
 71
2
 72
6
 73
3
 74
0
 40
0.0
 40
0.0
 40
0.0
 40
1.0
 40
1.0
 40
1.0
 10
85.80506430262311
 20
253.36453378919572
 30
0.0
 10
85.87105714116478
 20
253.5790373699249
 30
0.0
 10
85.88204997970644
 20
253.62304453138321
 30
0.0
  0
SPLINE
  5
136
330
17
100
AcDbEntity
  8
ENGRAVE
100
AcDbSpline
 70
0
 71
2
 72
6
 73
3
 74
0
 40
0.0
 40
0.0
 40
0.0
 40
1.0
 40
1.0
 40
1.0
 10
86.10206788335228
 20
251.00503020846654
 30
0.0
 10
86.06907146408145
 20
250.85102304700823
 30
0.0
 10
86.01407146408144
 20
250.7630445313832
 30
0.0
  0
SPLINE
  5
137
330
17
100
AcDbEntity
  8
ENGRAVE
100
AcDbSpline
 70
0
 71
2
 72
6
 73
3
 74
0
 40
0.0
 40
0.0
 40
0.0
 40
1.0
 40
1.0
 40
1.0
 10
85.88204997970644
 20
253.62304453138321
 30
0.0
 10
85.88204997970644
 20
253.75503020846654
 30
0.0
 10
86.05807862553978
 20
253.76602304700822
 30
0.0
  0
SPLINE
  5
138
330
17
100
AcDbEntity
  8
ENGRAVE
100
AcDbSpline
 70
0
 71
2
 72
6
 73
3
 74
0
 40
0.0
 40
0.0
 40
0.0
 40
1.0
 40
1.0
 40
1.0
 10
86.15706788335228
 20
251.30753020846655
 30
0.0
 10
86.1350643026231
 20
251.15903736992487
 30
0.0
 10
86.10206788335228
 20
251.00503020846654
 30
0.0
  0
SPLINE
  5
139
330
17
100
AcDbEntity
  8
ENGRAVE
100
AcDbSpline
 70
0
 71
2
 72
6
 73
3
 74
0
 40
0.0
 40
0.0
 40
0.0
 40
1.0
 40
1.0
 40
1.0
 10
86.20105714116478
 20
251.51102304700822
 30
0.0
 10
86.17907146408145
 20
251.45602304700822
 30
0.0
 10
86.15706788335228
 20
251.30753020846655
 30
0.0
  0
SPLINE
  5
13A
330
17
100
AcDbEntity
  8
ENGRAVE
100
AcDbSpline
 70
0
 71
2
 72
6
 73
3
 74
0
 40
0.0
 40
0.0
 40
0.0
 40
1.0
 40
1.0
 40
1.0
 10
86.38807862553978
 20
256.5930445313832
 30
0.0
 10
86.31105714116478
 20
256.41701588554986
 30
0.0
 10
86.15706788335228
 20
256.1585230470082
 30
0.0
  0
SPLINE
  5
13B
330
17
100
AcDbEntity
  8
ENGRAVE
100
AcDbSpline
 70
0
 71
2
 72
6
 73
3
 74
0
 40
0.0
 40
0.0
 40
0.0
 40
1.0
 40
1.0
 40
1.0
 10
86.19556072189394
 20
255.1080266277374
 30
0.0
 10
86.14605714116477
 20
255.3060230470082
 30
0.0
 10
86.19006430262311
 20
255.33903736992488
 30
0.0
  0
SPLINE
  5
13C
330
17
100
AcDbEntity
  8
ENGRAVE
100
AcDbSpline
 70
0
 71
2
 72
6
 73
3
 74
0
 40
0.0
 40
0.0
 40
0.0
 40
1.0
 40
1.0
 40
1.0
 10
86.42105714116478
 20
254.77804453138322
 30
0.0
 10
86.2450643026231
 20
254.91003020846654
 30
0.0
 10
86.19556072189394
 20
255.1080266277374
 30
0.0
  0
SPLINE
  5
13D
330
17
100
AcDbEntity
  8
ENGRAVE
100
AcDbSpline
 70
0
 71
2
 72
6
 73
3
 74
0
 40
0.0
 40
0.0
 40
0.0
 40
1.0
 40
1.0
 40
1.0
 10
86.30556072189394
 20
251.81354095065404
 30
0.0
 10
86.2450643026231
 20
251.65403736992488
 30
0.0
 10
86.20105714116478
 20
251.51102304700822
 30
0.0
  0
SPLINE
  5
13E
330
17
100
AcDbEntity
  8
ENGRAVE
100
AcDbSpline
 70
0
 71
2
 72
6
 73
3
 74
0
 40
0.0
 40
0.0
 40
0.0
 40
1.0
 40
1.0
 40
1.0
 10
86.41006430262311
 20
252.0610230470082
 30
0.0
 10
86.36605714116477
 20
251.9730445313832
 30
0.0
 10
86.30556072189394
 20
251.81354095065404
 30
0.0
  0
SPLINE
  5
13F
330
17
100
AcDbEntity
  8
ENGRAVE
100
AcDbSpline
 70
0
 71
2
 72
6
 73
3
 74
0
 40
0.0
 40
0.0
 40
0.0
 40
1.0
 40
1.0
 40
1.0
 10
85.85456788335227
 20
257.46753020846654
 30
0.0
 10
86.01407146408144
 20
257.3740373699249
 30
0.0
 10
86.33307862553978
 20
257.0880445313832
 30
0.0
  0
SPLINE
  5
140
330
17
100
AcDbEntity
  8
ENGRAVE
100
AcDbSpline
 70
0
 71
2
 72
6
 73
3
 74
0
 40
0.0
 40
0.0
 40
0.0
 40
1.0
 40
1.0
 40
1.0
 10
86.05807862553978
 20
253.76602304700822
 30
0.0
 10
86.19006430262311
 20
253.81003020846654
 30
0.0
 10
86.37706788335228
 20
253.6560230470082
 30
0.0
  0
SPLINE
  5
141
330
17
100
AcDbEntity
  8
ENGRAVE
100
AcDbSpline
 70
0
 71
2
 72
6
 73
3
 74
0
 40
0.0
 40
0.0
 40
0.0
 40
1.0
 40
1.0
 40
1.0
 10
86.19006430262311
 20
255.33903736992488
 30
0.0
 10
86.30006430262311
 20
255.46003020846655
 30
0.0
 10
86.38256430262311
 20
255.65802662773737
 30
0.0
  0
SPLINE
  5
142
330
17
100
AcDbEntity
  8
ENGRAVE
100
AcDbSpline
 70
0
 71
2
 72
6
 73
3
 74
0
 40
0.0
 40
0.0
 40
0.0
 40
1.0
 40
1.0
 40
1.0
 10
86.44307862553978
 20
256.8130266277374
 30
0.0
 10
86.44307862553978
 20
256.68102304700824
 30
0.0
 10
86.38807862553978
 20
256.5930445313832
 30
0.0
  0
SPLINE
  5
143
330
17
100
AcDbEntity
  8
ENGRAVE
100
AcDbSpline
 70
0
 71
2
 72
6
 73
3
 74
0
 40
0.0
 40
0.0
 40
0.0
 40
1.0
 40
1.0
 40
1.0
 10
86.49256430262311
 20
252.39653736992489
 30
0.0
 10
86.43204997970645
 20
252.1930445313832
 30
0.0
 10
86.41006430262311
 20
252.0610230470082
 30
0.0
  0
SPLINE
  5
144
330
17
100
AcDbEntity
  8
ENGRAVE
100
AcDbSpline
 70
0
 71
2
 72
6
 73
3
 74
0
 40
0.0
 40
0.0
 40
0.0
 40
1.0
 40
1.0
 40
1.0
 10
86.82806072189395
 20
254.72854095065404
 30
0.0
 10
86.5750643026231
 20
254.6680445313832
 30
0.0
 10
86.42105714116478
 20
254.77804453138322
 30
0.0
  0
SPLINE
  5
145
330
17
100
AcDbEntity
  8
ENGRAVE
100
AcDbSpline
 70
0
 71
2
 72
6
 73
3
 74
0
 40
0.0
 40
0.0
 40
0.0
 40
1.0
 40
1.0
 40
1.0
 10
86.33307862553978
 20
257.0880445313832
 30
0.0
 10
86.44307862553978
 20
256.94503020846656
 30
0.0
 10
86.44307862553978
 20
256.8130266277374
 30
0.0
  0
SPLINE
  5
146
330
17
100
AcDbEntity
  8
ENGRAVE
100
AcDbSpline
 70
0
 71
2
 72
6
 73
3
 74
0
 40
0.0
 40
0.0
 40
0.0
 40
1.0
 40
1.0
 40
1.0
 10
86.59704997970644
 20
252.6880445313832
 30
0.0
 10
86.55307862553978
 20
252.60003020846653
 30
0.0
 10
86.49256430262311
 20
252.39653736992489
 30
0.0
  0
SPLINE
  5
147
330
17
100
AcDbEntity
  8
ENGRAVE
100
AcDbSpline
 70
0
 71
2
 72
6
 73
3
 74
0
 40
0.0
 40
0.0
 40
0.0
 40
1.0
 40
1.0
 40
1.0
 10
86.38256430262311
 20
255.65802662773737
 30
0.0
 10
86.4650643026231
 20
255.85602304700822
 30
0.0
 10
86.56407146408145
 20
256.0210230470082
 30
0.0
  0
SPLINE
  5
148
330
17
100
AcDbEntity
  8
ENGRAVE
100
AcDbSpline
 70
0
 71
2
 72
6
 73
3
 74
0
 40
0.0
 40
0.0
 40
0.0
 40
1.0
 40
1.0
 40
1.0
 10
86.74006430262311
 20
253.09503020846654
 30
0.0
 10
86.71807862553977
 20
252.95201588554988
 30
0.0
 10
86.59704997970644
 20
252.6880445313832
 30
0.0
  0
SPLINE
  5
149
330
17
100
AcDbEntity
  8
ENGRAVE
100
AcDbSpline
 70
0
 71
2
 72
6
 73
3
 74
0
 40
0.0
 40
0.0
 40
0.0
 40
1.0
 40
1.0
 40
1.0
 10
86.56407146408145
 20
256.0210230470082
 30
0.0
 10
86.58605714116477
 20
256.05403736992486
 30
0.0
 10
86.62456788335227
 20
256.1145337891957
 30
0.0
  0
SPLINE
  5
14A
330
17
100
AcDbEntity
  8
ENGRAVE
100
AcDbSpline
 70
0
 71
2
 72
6
 73
3
 74
0
 40
0.0
 40
0.0
 40
0.0
 40
1.0
 40
1.0
 40
1.0
 10
86.37706788335228
 20
253.6560230470082
 30
0.0
 10
86.56407146408145
 20
253.5020158855499
 30
0.0
 10
86.67407146408145
 20
253.32602304700822
 30
0.0
  0
SPLINE
  5
14B
330
17
100
AcDbEntity
  8
ENGRAVE
100
AcDbSpline
 70
0
 71
2
 72
6
 73
3
 74
0
 40
0.0
 40
0.0
 40
0.0
 40
1.0
 40
1.0
 40
1.0
 10
86.62456788335227
 20
256.1145337891957
 30
0.0
 10
86.66307862553978
 20
256.1750302084665
 30
0.0
 10
86.70704997970644
 20
256.18602304700823
 30
0.0
  0
SPLINE
  5
14C
330
17
100
AcDbEntity
  8
ENGRAVE
100
AcDbSpline
 70
0
 71
2
 72
6
 73
3
 74
0
 40
0.0
 40
0.0
 40
0.0
 40
1.0
 40
1.0
 40
1.0
 10
86.67407146408145
 20
253.32602304700822
 30
0.0
 10
86.76204997970645
 20
253.23804453138322
 30
0.0
 10
86.74006430262311
 20
253.09503020846654
 30
0.0
  0
SPLINE
  5
14D
330
17
100
AcDbEntity
  8
ENGRAVE
100
AcDbSpline
 70
0
 71
2
 72
6
 73
3
 74
0
 40
0.0
 40
0.0
 40
0.0
 40
1.0
 40
1.0
 40
1.0
 10
87.24605714116478
 20
255.00903736992487
 30
0.0
 10
87.08105714116478
 20
254.78903736992487
 30
0.0
 10
86.82806072189395
 20
254.72854095065404
 30
0.0
  0
SPLINE
  5
14E
330
17
100
AcDbEntity
  8
ENGRAVE
100
AcDbSpline
 70
0
 71
2
 72
6
 73
3
 74
0
 40
0.0
 40
0.0
 40
0.0
 40
1.0
 40
1.0
 40
1.0
 10
86.70704997970644
 20
256.18602304700823
 30
0.0
 10
86.83907146408144
 20
256.2740373699249
 30
0.0
 10
87.07556072189395
 20
256.1750302084665
 30
0.0
  0
SPLINE
  5
14F
330
17
100
AcDbEntity
  8
ENGRAVE
100
AcDbSpline
 70
0
 71
2
 72
6
 73
3
 74
0
 40
0.0
 40
0.0
 40
0.0
 40
1.0
 40
1.0
 40
1.0
 10
87.42204997970644
 20
255.90003020846655
 30
0.0
 10
87.6200643026231
 20
255.46003020846655
 30
0.0
 10
87.24605714116478
 20
255.00903736992487
 30
0.0
  0
SPLINE
  5
150
330
17
100
AcDbEntity
  8
ENGRAVE
100
AcDbSpline
 70
0
 71
2
 72
6
 73
3
 74
0
 40
0.0
 40
0.0
 40
0.0
 40
1.0
 40
1.0
 40
1.0
 10
87.36704997970645
 20
251.12052662773738
 30
0.0
 10
87.26804281824812
 20
251.43403736992488
 30
0.0
 10
87.33407146408146
 20
251.9730445313832
 30
0.0
  0
SPLINE
  5
151
330
17
100
AcDbEntity
  8
ENGRAVE
100
AcDbSpline
 70
0
 71
2
 72
6
 73
3
 74
0
 40
0.0
 40
0.0
 40
0.0
 40
1.0
 40
1.0
 40
1.0
 10
87.57605714116478
 20
250.66403736992487
 30
0.0
 10
87.46605714116478
 20
250.80701588554987
 30
0.0
 10
87.36704997970645
 20
251.12052662773738
 30
0.0
  0
SPLINE
  5
152
330
17
100
AcDbEntity
  8
ENGRAVE
100
AcDbSpline
 70
0
 71
2
 72
6
 73
3
 74
0
 40
0.0
 40
0.0
 40
0.0
 40
1.0
 40
1.0
 40
1.0
 10
87.07556072189395
 20
256.1750302084665
 30
0.0
 10
87.31204997970644
 20
256.0760230470082
 30
0.0
 10
87.42204997970644
 20
255.90003020846655
 30
0.0
  0
SPLINE
  5
153
330
17
100
AcDbEntity
  8
ENGRAVE
100
AcDbSpline
 70
0
 71
2
 72
6
 73
3
 74
0
 40
0.0
 40
0.0
 40
0.0
 40
1.0
 40
1.0
 40
1.0
 10
88.09306072189395
 20
250.2845337891957
 30
0.0
 10
87.77407146408146
 20
250.4110230470082
 30
0.0
 10
87.57605714116478
 20
250.66403736992487
 30
0.0
  0
SPLINE
  5
154
330
17
100
AcDbEntity
  8
ENGRAVE
100
AcDbSpline
 70
0
 71
2
 72
6
 73
3
 74
0
 40
0.0
 40
0.0
 40
0.0
 40
1.0
 40
1.0
 40
1.0
 10
87.33407146408146
 20
251.9730445313832
 30
0.0
 10
87.40006430262312
 20
252.47903736992487
 30
0.0
 10
87.64756430262312
 20
252.99604095065405
 30
0.0
  0
SPLINE
  5
155
330
17
100
AcDbEntity
  8
ENGRAVE
100
AcDbSpline
 70
0
 71
2
 72
6
 73
3
 74
0
 40
0.0
 40
0.0
 40
0.0
 40
1.0
 40
1.0
 40
1.0
 10
88.78056072189395
 20
250.18554453138321
 30
0.0
 10
88.41204997970645
 20
250.1580445313832
 30
0.0
 10
88.09306072189395
 20
250.2845337891957
 30
0.0
  0
SPLINE
  5
156
330
17
100
AcDbEntity
  8
ENGRAVE
100
AcDbSpline
 70
0
 71
2
 72
6
 73
3
 74
0
 40
0.0
 40
0.0
 40
0.0
 40
1.0
 40
1.0
 40
1.0
 10
88.28554281824812
 20
252.09403736992488
 30
0.0
 10
88.20304281824812
 20
251.9840373699249
 30
0.0
 10
88.21407146408146
 20
251.66503020846656
 30
0.0
  0
SPLINE
  5
157
330
17
100
AcDbEntity
  8
ENGRAVE
100
AcDbSpline
 70
0
 71
2
 72
6
 73
3
 74
0
 40
0.0
 40
0.0
 40
0.0
 40
1.0
 40
1.0
 40
1.0
 10
87.64756430262312
 20
252.99604095065405
 30
0.0
 10
87.89506430262313
 20
253.5130445313832
 30
0.0
 10
88.25806072189395
 20
253.90903736992487
 30
0.0
  0
SPLINE
  5
158
330
17
100
AcDbEntity
  8
ENGRAVE
100
AcDbSpline
 70
0
 71
2
 72
6
 73
3
 74
0
 40
0.0
 40
0.0
 40
0.0
 40
1.0
 40
1.0
 40
1.0
 10
88.63204997970645
 20
252.14903736992488
 30
0.0
 10
88.36804281824813
 20
252.2040373699249
 30
0.0
 10
88.28554281824812
 20
252.09403736992488
 30
0.0
  0
SPLINE
  5
159
330
17
100
AcDbEntity
  8
ENGRAVE
100
AcDbSpline
 70
0
 71
2
 72
6
 73
3
 74
0
 40
0.0
 40
0.0
 40
0.0
 40
1.0
 40
1.0
 40
1.0
 10
88.21407146408146
 20
251.66503020846656
 30
0.0
 10
88.23605714116479
 20
251.46701588554987
 30
0.0
 10
88.30756430262312
 20
251.31852304700823
 30
0.0
  0
SPLINE
  5
15A
330
17
100
AcDbEntity
  8
ENGRAVE
100
AcDbSpline
 70
0
 71
2
 72
6
 73
3
 74
0
 40
0.0
 40
0.0
 40
0.0
 40
1.0
 40
1.0
 40
1.0
 10
88.30756430262312
 20
251.31852304700823
 30
0.0
 10
88.37907146408145
 20
251.17003020846656
 30
0.0
 10
88.57704997970646
 20
251.11503020846655
 30
0.0
  0
SPLINE
  5
15B
330
17
100
AcDbEntity
  8
ENGRAVE
100
AcDbSpline
 70
0
 71
2
 72
6
 73
3
 74
0
 40
0.0
 40
0.0
 40
0.0
 40
1.0
 40
1.0
 40
1.0
 10
88.78605714116479
 20
253.21052662773738
 30
0.0
 10
88.64304281824812
 20
253.04003020846656
 30
0.0
 10
88.59907146408146
 20
252.95201588554988
 30
0.0
  0
SPLINE
  5
15C
330
17
100
AcDbEntity
  8
ENGRAVE
100
AcDbSpline
 70
0
 71
2
 72
6
 73
3
 74
0
 40
0.0
 40
0.0
 40
0.0
 40
1.0
 40
1.0
 40
1.0
 10
89.32504639897729
 20
252.08302662773738
 30
0.0
 10
89.07204997970645
 20
252.0610230470082
 30
0.0
 10
88.63204997970645
 20
252.14903736992488
 30
0.0
  0
SPLINE
  5
15D
330
17
100
AcDbEntity
  8
ENGRAVE
100
AcDbSpline
 70
0
 71
2
 72
6
 73
3
 74
0
 40
0.0
 40
0.0
 40
0.0
 40
1.0
 40
1.0
 40
1.0
 10
89.47907146408146
 20
250.40003020846655
 30
0.0
 10
89.14907146408146
 20
250.21304453138322
 30
0.0
 10
88.78056072189395
 20
250.18554453138321
 30
0.0
  0
SPLINE
  5
15E
330
17
100
AcDbEntity
  8
ENGRAVE
100
AcDbSpline
 70
0
 71
2
 72
6
 73
3
 74
0
 40
0.0
 40
0.0
 40
0.0
 40
1.0
 40
1.0
 40
1.0
 10
89.0995678833523
 20
253.53503020846654
 30
0.0
 10
88.92907146408146
 20
253.38102304700823
 30
0.0
 10
88.78605714116479
 20
253.21052662773738
 30
0.0
  0
SPLINE
  5
15F
330
17
100
AcDbEntity
  8
ENGRAVE
100
AcDbSpline
 70
0
 71
2
 72
6
 73
3
 74
0
 40
0.0
 40
0.0
 40
0.0
 40
1.0
 40
1.0
 40
1.0
 10
88.59907146408146
 20
252.95201588554988
 30
0.0
 10
88.65407146408145
 20
252.87503020846654
 30
0.0
 10
88.91256430262312
 20
252.8420337891957
 30
0.0
  0
SPLINE
  5
160
330
17
100
AcDbEntity
  8
ENGRAVE
100
AcDbSpline
 70
0
 71
2
 72
6
 73
3
 74
0
 40
0.0
 40
0.0
 40
0.0
 40
1.0
 40
1.0
 40
1.0
 10
88.57704997970646
 20
251.11503020846655
 30
0.0
 10
88.83006430262313
 20
251.07102304700823
 30
0.0
 10
88.94006430262313
 20
251.10953378919572
 30
0.0
  0
SPLINE
  5
161
330
17
100
AcDbEntity
  8
ENGRAVE
100
AcDbSpline
 70
0
 71
2
 72
6
 73
3
 74
0
 40
0.0
 40
0.0
 40
0.0
 40
1.0
 40
1.0
 40
1.0
 10
88.25806072189395
 20
253.90903736992487
 30
0.0
 10
88.62105714116478
 20
254.30503020846655
 30
0.0
 10
89.05006430262313
 20
254.4480445313832
 30
0.0
  0
SPLINE
  5
162
330
17
100
AcDbEntity
  8
ENGRAVE
100
AcDbSpline
 70
0
 71
2
 72
6
 73
3
 74
0
 40
0.0
 40
0.0
 40
0.0
 40
1.0
 40
1.0
 40
1.0
 10
89.38006430262313
 20
253.7220158855499
 30
0.0
 10
89.27006430262313
 20
253.68903736992488
 30
0.0
 10
89.0995678833523
 20
253.53503020846654
 30
0.0
  0
SPLINE
  5
163
330
17
100
AcDbEntity
  8
ENGRAVE
100
AcDbSpline
 70
0
 71
2
 72
6
 73
3
 74
0
 40
0.0
 40
0.0
 40
0.0
 40
1.0
 40
1.0
 40
1.0
 10
88.94006430262313
 20
251.10953378919572
 30
0.0
 10
89.05006430262313
 20
251.14804453138322
 30
0.0
 10
89.21506430262312
 20
251.22503020846653
 30
0.0
  0
SPLINE
  5
164
330
17
100
AcDbEntity
  8
ENGRAVE
100
AcDbSpline
 70
0
 71
2
 72
6
 73
3
 74
0
 40
0.0
 40
0.0
 40
0.0
 40
1.0
 40
1.0
 40
1.0
 10
89.76506430262312
 20
252.18201588554987
 30
0.0
 10
89.57804281824812
 20
252.10503020846656
 30
0.0
 10
89.32504639897729
 20
252.08302662773738
 30
0.0
  0
SPLINE
  5
165
330
17
100
AcDbEntity
  8
ENGRAVE
100
AcDbSpline
 70
0
 71
2
 72
6
 73
3
 74
0
 40
0.0
 40
0.0
 40
0.0
 40
1.0
 40
1.0
 40
1.0
 10
88.91256430262312
 20
252.8420337891957
 30
0.0
 10
89.1710571411648
 20
252.80903736992488
 30
0.0
 10
89.33605714116479
 20
252.8530445313832
 30
0.0
  0
SPLINE
  5
166
330
17
100
AcDbEntity
  8
ENGRAVE
100
AcDbSpline
 70
0
 71
2
 72
6
 73
3
 74
0
 40
0.0
 40
0.0
 40
0.0
 40
1.0
 40
1.0
 40
1.0
 10
89.05006430262313
 20
254.4480445313832
 30
0.0
 10
89.20407146408145
 20
254.5030445313832
 30
0.0
 10
89.36355714116479
 20
254.5305445313832
 30
0.0
  0
SPLINE
  5
167
330
17
100
AcDbEntity
  8
ENGRAVE
100
AcDbSpline
 70
0
 71
2
 72
6
 73
3
 74
0
 40
0.0
 40
0.0
 40
0.0
 40
1.0
 40
1.0
 40
1.0
 10
89.7925463989773
 20
253.68901946627903
 30
0.0
 10
89.63304281824813
 20
253.77701588554987
 30
0.0
 10
89.38006430262313
 20
253.7220158855499
 30
0.0
  0
SPLINE
  5
168
330
17
100
AcDbEntity
  8
ENGRAVE
100
AcDbSpline
 70
0
 71
2
 72
6
 73
3
 74
0
 40
0.0
 40
0.0
 40
0.0
 40
1.0
 40
1.0
 40
1.0
 10
89.21506430262312
 20
251.22503020846653
 30
0.0
 10
89.33605714116479
 20
251.30201588554988
 30
0.0
 10
89.46806072189395
 20
251.4120158855499
 30
0.0
  0
SPLINE
  5
169
330
17
100
AcDbEntity
  8
ENGRAVE
100
AcDbSpline
 70
0
 71
2
 72
6
 73
3
 74
0
 40
0.0
 40
0.0
 40
0.0
 40
1.0
 40
1.0
 40
1.0
 10
90.04556072189395
 20
250.86201588554988
 30
0.0
 10
89.80907146408146
 20
250.58701588554987
 30
0.0
 10
89.47907146408146
 20
250.40003020846655
 30
0.0
  0
SPLINE
  5
16A
330
17
100
AcDbEntity
  8
ENGRAVE
100
AcDbSpline
 70
0
 71
2
 72
6
 73
3
 74
0
 40
0.0
 40
0.0
 40
0.0
 40
1.0
 40
1.0
 40
1.0
 10
89.33605714116479
 20
252.8530445313832
 30
0.0
 10
89.41304281824812
 20
252.88602304700822
 30
0.0
 10
89.56155356043563
 20
253.0070337891957
 30
0.0
  0
SPLINE
  5
16B
330
17
100
AcDbEntity
  8
ENGRAVE
100
AcDbSpline
 70
0
 71
2
 72
6
 73
3
 74
0
 40
0.0
 40
0.0
 40
0.0
 40
1.0
 40
1.0
 40
1.0
 10
89.46806072189395
 20
251.4120158855499
 30
0.0
 10
89.60006430262312
 20
251.52201588554988
 30
0.0
 10
89.68804281824812
 20
251.57701588554988
 30
0.0
  0
SPLINE
  5
16C
330
17
100
AcDbEntity
  8
ENGRAVE
100
AcDbSpline
 70
0
 71
2
 72
6
 73
3
 74
0
 40
0.0
 40
0.0
 40
0.0
 40
1.0
 40
1.0
 40
1.0
 10
90.48556072189396
 20
252.7870337891957
 30
0.0
 10
90.22704997970645
 20
252.38003020846654
 30
0.0
 10
89.76506430262312
 20
252.18201588554987
 30
0.0
  0
SPLINE
  5
16D
330
17
100
AcDbEntity
  8
ENGRAVE
100
AcDbSpline
 70
0
 71
2
 72
6
 73
3
 74
0
 40
0.0
 40
0.0
 40
0.0
 40
1.0
 40
1.0
 40
1.0
 10
89.36355714116479
 20
254.5305445313832
 30
0.0
 10
89.52304281824811
 20
254.55804453138322
 30
0.0
 10
89.78704997970645
 20
254.5360230470082
 30
0.0
  0
SPLINE
  5
16E
330
17
100
AcDbEntity
  8
ENGRAVE
100
AcDbSpline
 70
0
 71
2
 72
6
 73
3
 74
0
 40
0.0
 40
0.0
 40
0.0
 40
1.0
 40
1.0
 40
1.0
 10
89.95204997970646
 20
253.48003020846656
 30
0.0
 10
89.95204997970646
 20
253.60102304700823
 30
0.0
 10
89.7925463989773
 20
253.68901946627903
 30
0.0
  0
SPLINE
  5
16F
330
17
100
AcDbEntity
  8
ENGRAVE
100
AcDbSpline
 70
0
 71
2
 72
6
 73
3
 74
0
 40
0.0
 40
0.0
 40
0.0
 40
1.0
 40
1.0
 40
1.0
 10
89.56155356043563
 20
253.0070337891957
 30
0.0
 10
89.71006430262312
 20
253.1280445313832
 30
0.0
 10
89.83105714116479
 20
253.26554453138323
 30
0.0
  0
SPLINE
  5
170
330
17
100
AcDbEntity
  8
ENGRAVE
100
AcDbSpline
 70
0
 71
2
 72
6
 73
3
 74
0
 40
0.0
 40
0.0
 40
0.0
 40
1.0
 40
1.0
 40
1.0
 10
89.68804281824812
 20
251.57701588554988
 30
0.0
 10
89.77605714116478
 20
251.64304453138323
 30
0.0
 10
89.90804281824812
 20
251.64304453138323
 30
0.0
  0
SPLINE
  5
171
330
17
100
AcDbEntity
  8
ENGRAVE
100
AcDbSpline
 70
0
 71
2
 72
6
 73
3
 74
0
 40
0.0
 40
0.0
 40
0.0
 40
1.0
 40
1.0
 40
1.0
 10
89.83105714116479
 20
253.26554453138323
 30
0.0
 10
89.95204997970646
 20
253.40304453138322
 30
0.0
 10
89.95204997970646
 20
253.48003020846656
 30
0.0
  0
SPLINE
  5
172
330
17
100
AcDbEntity
  8
ENGRAVE
100
AcDbSpline
 70
0
 71
2
 72
6
 73
3
 74
0
 40
0.0
 40
0.0
 40
0.0
 40
1.0
 40
1.0
 40
1.0
 10
90.28204997970646
 20
251.28003020846654
 30
0.0
 10
90.28204997970646
 20
251.13701588554989
 30
0.0
 10
90.04556072189395
 20
250.86201588554988
 30
0.0
  0
SPLINE
  5
173
330
17
100
AcDbEntity
  8
ENGRAVE
100
AcDbSpline
 70
0
 71
2
 72
6
 73
3
 74
0
 40
0.0
 40
0.0
 40
0.0
 40
1.0
 40
1.0
 40
1.0
 10
89.90804281824812
 20
251.64304453138323
 30
0.0
 10
90.02907146408145
 20
251.6320158855499
 30
0.0
 10
90.13907146408145
 20
251.51102304700822
 30
0.0
  0
SPLINE
  5
174
330
17
100
AcDbEntity
  8
ENGRAVE
100
AcDbSpline
 70
0
 71
2
 72
6
 73
3
 74
0
 40
0.0
 40
0.0
 40
0.0
 40
1.0
 40
1.0
 40
1.0
 10
89.78704997970645
 20
254.5360230470082
 30
0.0
 10
90.04006430262312
 20
254.5030445313832
 30
0.0
 10
90.23806072189396
 20
254.4095337891957
 30
0.0
  0
SPLINE
  5
175
330
17
100
AcDbEntity
  8
ENGRAVE
100
AcDbSpline
 70
0
 71
2
 72
6
 73
3
 74
0
 40
0.0
 40
0.0
 40
0.0
 40
1.0
 40
1.0
 40
1.0
 10
90.13907146408145
 20
251.51102304700822
 30
0.0
 10
90.24907146408145
 20
251.39003020846656
 30
0.0
 10
90.28204997970646
 20
251.28003020846654
 30
0.0
  0
SPLINE
  5
176
330
17
100
AcDbEntity
  8
ENGRAVE
100
AcDbSpline
 70
0
 71
2
 72
6
 73
3
 74
0
 40
0.0
 40
0.0
 40
0.0
 40
1.0
 40
1.0
 40
1.0
 10
90.79907146408145
 20
253.54602304700822
 30
0.0
 10
90.74407146408146
 20
253.19403736992487
 30
0.0
 10
90.48556072189396
 20
252.7870337891957
 30
0.0
  0
SPLINE
  5
177
330
17
100
AcDbEntity
  8
ENGRAVE
100
AcDbSpline
 70
0
 71
2
 72
6
 73
3
 74
0
 40
0.0
 40
0.0
 40
0.0
 40
1.0
 40
1.0
 40
1.0
 10
90.23806072189396
 20
254.4095337891957
 30
0.0
 10
90.43605714116478
 20
254.3160230470082
 30
0.0
 10
90.52407146408146
 20
254.20602304700822
 30
0.0
  0
SPLINE
  5
178
330
17
100
AcDbEntity
  8
ENGRAVE
100
AcDbSpline
 70
0
 71
2
 72
6
 73
3
 74
0
 40
0.0
 40
0.0
 40
0.0
 40
1.0
 40
1.0
 40
1.0
 10
90.52407146408146
 20
254.20602304700822
 30
0.0
 10
90.70006430262312
 20
254.03003020846654
 30
0.0
 10
90.75506430262313
 20
253.86503020846655
 30
0.0
  0
SPLINE
  5
179
330
17
100
AcDbEntity
  8
ENGRAVE
100
AcDbSpline
 70
0
 71
2
 72
6
 73
3
 74
0
 40
0.0
 40
0.0
 40
0.0
 40
1.0
 40
1.0
 40
1.0
 10
90.75506430262313
 20
253.86503020846655
 30
0.0
 10
90.81006430262312
 20
253.70003020846656
 30
0.0
 10
90.79907146408145
 20
253.54602304700822
 30
0.0
  0
SPLINE
  5
17A
330
17
100
AcDbEntity
  8
ENGRAVE
100
AcDbSpline
 70
0
 71
2
 72
6
 73
3
 74
0
 40
0.0
 40
0.0
 40
0.0
 40
1.0
 40
1.0
 40
1.0
 10
93.95605714116478
 20
251.54953378919572
 30
0.0
 10
93.89006430262312
 20
251.61003020846655
 30
0.0
 10
93.89006430262312
 20
251.7530445313832
 30
0.0
  0
SPLINE
  5
17B
330
17
100
AcDbEntity
  8
ENGRAVE
100
AcDbSpline
 70
0
 71
2
 72
6
 73
3
 74
0
 40
0.0
 40
0.0
 40
0.0
 40
1.0
 40
1.0
 40
1.0
 10
94.12105714116478
 20
251.4120158855499
 30
0.0
 10
94.02204997970645
 20
251.4890373699249
 30
0.0
 10
93.95605714116478
 20
251.54953378919572
 30
0.0
  0
SPLINE
  5
17C
330
17
100
AcDbEntity
  8
ENGRAVE
100
AcDbSpline
 70
0
 71
2
 72
6
 73
3
 74
0
 40
0.0
 40
0.0
 40
0.0
 40
1.0
 40
1.0
 40
1.0
 10
93.89006430262312
 20
251.7530445313832
 30
0.0
 10
93.89006430262312
 20
251.9180445313832
 30
0.0
 10
94.00006430262312
 20
252.31403736992488
 30
0.0
  0
SPLINE
  5
17D
330
17
100
AcDbEntity
  8
ENGRAVE
100
AcDbSpline
 70
0
 71
2
 72
6
 73
3
 74
0
 40
0.0
 40
0.0
 40
0.0
 40
1.0
 40
1.0
 40
1.0
 10
94.21454997970645
 20
251.25253020846654
 30
0.0
 10
94.1430428182481
 20
251.3130445313832
 30
0.0
 10
94.12105714116478
 20
251.4120158855499
 30
0.0
  0
SPLINE
  5
17E
330
17
100
AcDbEntity
  8
ENGRAVE
100
AcDbSpline
 70
0
 71
2
 72
6
 73
3
 74
0
 40
0.0
 40
0.0
 40
0.0
 40
1.0
 40
1.0
 40
1.0
 10
94.00006430262312
 20
252.31403736992488
 30
0.0
 10
94.06605714116478
 20
252.60003020846653
 30
0.0
 10
94.14306072189395
 20
252.91352304700823
 30
0.0
  0
SPLINE
  5
17F
330
17
100
AcDbEntity
  8
ENGRAVE
100
AcDbSpline
 70
0
 71
2
 72
6
 73
3
 74
0
 40
0.0
 40
0.0
 40
0.0
 40
1.0
 40
1.0
 40
1.0
 10
94.33006430262311
 20
251.17003020846656
 30
0.0
 10
94.28605714116478
 20
251.1920158855499
 30
0.0
 10
94.21454997970645
 20
251.25253020846654
 30
0.0
  0
SPLINE
  5
180
330
17
100
AcDbEntity
  8
ENGRAVE
100
AcDbSpline
 70
0
 71
2
 72
6
 73
3
 74
0
 40
0.0
 40
0.0
 40
0.0
 40
1.0
 40
1.0
 40
1.0
 10
94.14306072189395
 20
252.91352304700823
 30
0.0
 10
94.22006430262311
 20
253.2270158855499
 30
0.0
 10
94.29155356043562
 20
253.45253020846656
 30
0.0
  0
SPLINE
  5
181
330
17
100
AcDbEntity
  8
ENGRAVE
100
AcDbSpline
 70
0
 71
2
 72
6
 73
3
 74
0
 40
0.0
 40
0.0
 40
0.0
 40
1.0
 40
1.0
 40
1.0
 10
94.54454997970645
 20
251.23602304700822
 30
0.0
 10
94.41804281824811
 20
251.17003020846656
 30
0.0
 10
94.33006430262311
 20
251.17003020846656
 30
0.0
  0
SPLINE
  5
182
330
17
100
AcDbEntity
  8
ENGRAVE
100
AcDbSpline
 70
0
 71
2
 72
6
 73
3
 74
0
 40
0.0
 40
0.0
 40
0.0
 40
1.0
 40
1.0
 40
1.0
 10
94.29155356043562
 20
253.45253020846656
 30
0.0
 10
94.36304281824812
 20
253.67804453138322
 30
0.0
 10
94.39605714116477
 20
253.70003020846656
 30
0.0
  0
SPLINE
  5
183
330
17
100
AcDbEntity
  8
ENGRAVE
100
AcDbSpline
 70
0
 71
2
 72
6
 73
3
 74
0
 40
0.0
 40
0.0
 40
0.0
 40
1.0
 40
1.0
 40
1.0
 10
94.39605714116477
 20
253.70003020846656
 30
0.0
 10
94.39605714116477
 20
253.70003020846656
 30
0.0
 10
94.44004639897727
 20
253.7990373699249
 30
0.0
  0
SPLINE
  5
184
330
17
100
AcDbEntity
  8
ENGRAVE
100
AcDbSpline
 70
0
 71
2
 72
6
 73
3
 74
0
 40
0.0
 40
0.0
 40
0.0
 40
1.0
 40
1.0
 40
1.0
 10
94.46754639897728
 20
250.7520158855499
 30
0.0
 10
94.45105714116478
 20
250.80701588554987
 30
0.0
 10
94.46204997970645
 20
250.85102304700823
 30
0.0
  0
SPLINE
  5
185
330
17
100
AcDbEntity
  8
ENGRAVE
100
AcDbSpline
 70
0
 71
2
 72
6
 73
3
 74
0
 40
0.0
 40
0.0
 40
0.0
 40
1.0
 40
1.0
 40
1.0
 10
94.57204997970645
 20
250.5980445313832
 30
0.0
 10
94.48403565678979
 20
250.6970158855499
 30
0.0
 10
94.46754639897728
 20
250.7520158855499
 30
0.0
  0
SPLINE
  5
186
330
17
100
AcDbEntity
  8
ENGRAVE
100
AcDbSpline
 70
0
 71
2
 72
6
 73
3
 74
0
 40
0.0
 40
0.0
 40
0.0
 40
1.0
 40
1.0
 40
1.0
 10
94.44004639897727
 20
253.7990373699249
 30
0.0
 10
94.48403565678979
 20
253.89804453138322
 30
0.0
 10
94.48403565678979
 20
254.03003020846654
 30
0.0
  0
SPLINE
  5
187
330
17
100
AcDbEntity
  8
ENGRAVE
100
AcDbSpline
 70
0
 71
2
 72
6
 73
3
 74
0
 40
0.0
 40
0.0
 40
0.0
 40
1.0
 40
1.0
 40
1.0
 10
94.67105714116478
 20
251.3460230470082
 30
0.0
 10
94.67105714116478
 20
251.30201588554988
 30
0.0
 10
94.54454997970645
 20
251.23602304700822
 30
0.0
  0
SPLINE
  5
188
330
17
100
AcDbEntity
  8
ENGRAVE
100
AcDbSpline
 70
0
 71
2
 72
6
 73
3
 74
0
 40
0.0
 40
0.0
 40
0.0
 40
1.0
 40
1.0
 40
1.0
 10
94.48403565678979
 20
254.03003020846654
 30
0.0
 10
94.50605714116477
 20
254.1620158855499
 30
0.0
 10
94.55556072189394
 20
254.26102304700822
 30
0.0
  0
SPLINE
  5
189
330
17
100
AcDbEntity
  8
ENGRAVE
100
AcDbSpline
 70
0
 71
2
 72
6
 73
3
 74
0
 40
0.0
 40
0.0
 40
0.0
 40
1.0
 40
1.0
 40
1.0
 10
94.46204997970645
 20
250.85102304700823
 30
0.0
 10
94.51704997970644
 20
250.85102304700823
 30
0.0
 10
94.56105714116478
 20
250.85651946627905
 30
0.0
  0
SPLINE
  5
18A
330
17
100
AcDbEntity
  8
ENGRAVE
100
AcDbSpline
 70
0
 71
2
 72
6
 73
3
 74
0
 40
0.0
 40
0.0
 40
0.0
 40
1.0
 40
1.0
 40
1.0
 10
94.76454997970644
 20
250.3615373699249
 30
0.0
 10
94.63804281824811
 20
250.45503020846655
 30
0.0
 10
94.57204997970645
 20
250.5980445313832
 30
0.0
  0
SPLINE
  5
18B
330
17
100
AcDbEntity
  8
ENGRAVE
100
AcDbSpline
 70
0
 71
2
 72
6
 73
3
 74
0
 40
0.0
 40
0.0
 40
0.0
 40
1.0
 40
1.0
 40
1.0
 10
94.55556072189394
 20
254.26102304700822
 30
0.0
 10
94.6050643026231
 20
254.36003020846655
 30
0.0
 10
94.6050643026231
 20
254.40403736992488
 30
0.0
  0
SPLINE
  5
18C
330
17
100
AcDbEntity
  8
ENGRAVE
100
AcDbSpline
 70
0
 71
2
 72
6
 73
3
 74
0
 40
0.0
 40
0.0
 40
0.0
 40
1.0
 40
1.0
 40
1.0
 10
94.56105714116478
 20
250.85651946627905
 30
0.0
 10
94.6050643026231
 20
250.86201588554988
 30
0.0
 10
94.61605714116477
 20
250.89503020846655
 30
0.0
  0
SPLINE
  5
18D
330
17
100
AcDbEntity
  8
ENGRAVE
100
AcDbSpline
 70
0
 71
2
 72
6
 73
3
 74
0
 40
0.0
 40
0.0
 40
0.0
 40
1.0
 40
1.0
 40
1.0
 10
94.61605714116477
 20
250.89503020846655
 30
0.0
 10
94.61605714116477
 20
250.92804453138322
 30
0.0
 10
94.65454997970645
 20
250.93903736992488
 30
0.0
  0
SPLINE
  5
18E
330
17
100
AcDbEntity
  8
ENGRAVE
100
AcDbSpline
 70
0
 71
2
 72
6
 73
3
 74
0
 40
0.0
 40
0.0
 40
0.0
 40
1.0
 40
1.0
 40
1.0
 10
94.82504639897728
 20
251.52753020846654
 30
0.0
 10
94.67105714116478
 20
251.3460230470082
 30
0.0
 10
94.67105714116478
 20
251.3460230470082
 30
0.0
  0
SPLINE
  5
18F
330
17
100
AcDbEntity
  8
ENGRAVE
100
AcDbSpline
 70
0
 71
2
 72
6
 73
3
 74
0
 40
0.0
 40
0.0
 40
0.0
 40
1.0
 40
1.0
 40
1.0
 10
94.65454997970645
 20
250.93903736992488
 30
0.0
 10
94.69304281824812
 20
250.95003020846656
 30
0.0
 10
94.73704997970644
 20
250.93903736992488
 30
0.0
  0
SPLINE
  5
190
330
17
100
AcDbEntity
  8
ENGRAVE
100
AcDbSpline
 70
0
 71
2
 72
6
 73
3
 74
0
 40
0.0
 40
0.0
 40
0.0
 40
1.0
 40
1.0
 40
1.0
 10
94.6050643026231
 20
254.40403736992488
 30
0.0
 10
94.64903565678978
 20
254.43701588554987
 30
0.0
 10
94.73704997970644
 20
254.6680266277374
 30
0.0
  0
SPLINE
  5
191
330
17
100
AcDbEntity
  8
ENGRAVE
100
AcDbSpline
 70
0
 71
2
 72
6
 73
3
 74
0
 40
0.0
 40
0.0
 40
0.0
 40
1.0
 40
1.0
 40
1.0
 10
95.11105714116478
 20
250.2460230470082
 30
0.0
 10
94.89105714116478
 20
250.26804453138323
 30
0.0
 10
94.76454997970644
 20
250.3615373699249
 30
0.0
  0
SPLINE
  5
192
330
17
100
AcDbEntity
  8
ENGRAVE
100
AcDbSpline
 70
0
 71
2
 72
6
 73
3
 74
0
 40
0.0
 40
0.0
 40
0.0
 40
1.0
 40
1.0
 40
1.0
 10
95.11105714116478
 20
251.88503020846656
 30
0.0
 10
94.97903565678978
 20
251.70903736992489
 30
0.0
 10
94.82504639897728
 20
251.52753020846654
 30
0.0
  0
SPLINE
  5
193
330
17
100
AcDbEntity
  8
ENGRAVE
100
AcDbSpline
 70
0
 71
2
 72
6
 73
3
 74
0
 40
0.0
 40
0.0
 40
0.0
 40
1.0
 40
1.0
 40
1.0
 10
94.73704997970644
 20
254.6680266277374
 30
0.0
 10
94.8250643026231
 20
254.89903736992488
 30
0.0
 10
94.95704997970644
 20
255.27304453138322
 30
0.0
  0
SPLINE
  5
194
330
17
100
AcDbEntity
  8
ENGRAVE
100
AcDbSpline
 70
0
 71
2
 72
6
 73
3
 74
0
 40
0.0
 40
0.0
 40
0.0
 40
1.0
 40
1.0
 40
1.0
 10
94.95704997970644
 20
255.27304453138322
 30
0.0
 10
94.95704997970644
 20
255.3060230470082
 30
0.0
 10
95.03405356043561
 20
255.48753020846655
 30
0.0
  0
SPLINE
  5
195
330
17
100
AcDbEntity
  8
ENGRAVE
100
AcDbSpline
 70
0
 71
2
 72
6
 73
3
 74
0
 40
0.0
 40
0.0
 40
0.0
 40
1.0
 40
1.0
 40
1.0
 10
95.36403565678978
 20
250.2955445313832
 30
0.0
 10
95.19903565678977
 20
250.26804453138323
 30
0.0
 10
95.11105714116478
 20
250.2460230470082
 30
0.0
  0
SPLINE
  5
196
330
17
100
AcDbEntity
  8
ENGRAVE
100
AcDbSpline
 70
0
 71
2
 72
6
 73
3
 74
0
 40
0.0
 40
0.0
 40
0.0
 40
1.0
 40
1.0
 40
1.0
 10
95.63905356043561
 20
252.45703378919572
 30
0.0
 10
95.35304281824811
 20
252.2040373699249
 30
0.0
 10
95.11105714116478
 20
251.88503020846656
 30
0.0
  0
SPLINE
  5
197
330
17
100
AcDbEntity
  8
ENGRAVE
100
AcDbSpline
 70
0
 71
2
 72
6
 73
3
 74
0
 40
0.0
 40
0.0
 40
0.0
 40
1.0
 40
1.0
 40
1.0
 10
95.38056072189394
 20
253.81003020846654
 30
0.0
 10
95.27605714116478
 20
253.4910230470082
 30
0.0
 10
95.16605714116479
 20
253.20503020846655
 30
0.0
  0
SPLINE
  5
198
330
17
100
AcDbEntity
  8
ENGRAVE
100
AcDbSpline
 70
0
 71
2
 72
6
 73
3
 74
0
 40
0.0
 40
0.0
 40
0.0
 40
1.0
 40
1.0
 40
1.0
 10
95.03405356043561
 20
255.48753020846655
 30
0.0
 10
95.11105714116478
 20
255.6690373699249
 30
0.0
 10
95.22105714116478
 20
255.91653736992487
 30
0.0
  0
SPLINE
  5
199
330
17
100
AcDbEntity
  8
ENGRAVE
100
AcDbSpline
 70
0
 71
2
 72
6
 73
3
 74
0
 40
0.0
 40
0.0
 40
0.0
 40
1.0
 40
1.0
 40
1.0
 10
94.73704997970644
 20
250.93903736992488
 30
0.0
 10
94.94605714116477
 20
250.92804453138322
 30
0.0
 10
95.24855714116478
 20
251.08203378919572
 30
0.0
  0
SPLINE
  5
19A
330
17
100
AcDbEntity
  8
ENGRAVE
100
AcDbSpline
 70
0
 71
2
 72
6
 73
3
 74
0
 40
0.0
 40
0.0
 40
0.0
 40
1.0
 40
1.0
 40
1.0
 10
95.61704997970645
 20
250.33403736992489
 30
0.0
 10
95.52903565678977
 20
250.3230445313832
 30
0.0
 10
95.36403565678978
 20
250.2955445313832
 30
0.0
  0
SPLINE
  5
19B
330
17
100
AcDbEntity
  8
ENGRAVE
100
AcDbSpline
 70
0
 71
2
 72
6
 73
3
 74
0
 40
0.0
 40
0.0
 40
0.0
 40
1.0
 40
1.0
 40
1.0
 10
95.65556072189395
 20
254.56903736992487
 30
0.0
 10
95.48506430262312
 20
254.12903736992487
 30
0.0
 10
95.38056072189394
 20
253.81003020846654
 30
0.0
  0
SPLINE
  5
19C
330
17
100
AcDbEntity
  8
ENGRAVE
100
AcDbSpline
 70
0
 71
2
 72
6
 73
3
 74
0
 40
0.0
 40
0.0
 40
0.0
 40
1.0
 40
1.0
 40
1.0
 10
95.22105714116478
 20
255.91653736992487
 30
0.0
 10
95.33105714116478
 20
256.16403736992487
 30
0.0
 10
95.44655356043562
 20
256.43354095065405
 30
0.0
  0
SPLINE
  5
19D
330
17
100
AcDbEntity
  8
ENGRAVE
100
AcDbSpline
 70
0
 71
2
 72
6
 73
3
 74
0
 40
0.0
 40
0.0
 40
0.0
 40
1.0
 40
1.0
 40
1.0
 10
96.09556072189395
 20
250.5595337891957
 30
0.0
 10
95.81506430262311
 20
250.40003020846655
 30
0.0
 10
95.61704997970645
 20
250.33403736992489
 30
0.0
  0
SPLINE
  5
19E
330
17
100
AcDbEntity
  8
ENGRAVE
100
AcDbSpline
 70
0
 71
2
 72
6
 73
3
 74
0
 40
0.0
 40
0.0
 40
0.0
 40
1.0
 40
1.0
 40
1.0
 10
95.39704997970645
 20
253.28201588554987
 30
0.0
 10
95.50704997970645
 20
253.39201588554988
 30
0.0
 10
95.6280428182481
 20
253.4910230470082
 30
0.0
  0
SPLINE
  5
19F
330
17
100
AcDbEntity
  8
ENGRAVE
100
AcDbSpline
 70
0
 71
2
 72
6
 73
3
 74
0
 40
0.0
 40
0.0
 40
0.0
 40
1.0
 40
1.0
 40
1.0
 10
95.44655356043562
 20
256.43354095065405
 30
0.0
 10
95.56204997970644
 20
256.7030445313832
 30
0.0
 10
95.63903565678977
 20
256.91201588554986
 30
0.0
  0
SPLINE
  5
1A0
330
17
100
AcDbEntity
  8
ENGRAVE
100
AcDbSpline
 70
0
 71
2
 72
6
 73
3
 74
0
 40
0.0
 40
0.0
 40
0.0
 40
1.0
 40
1.0
 40
1.0
 10
96.39804281824811
 20
253.0070158855499
 30
0.0
 10
95.92506430262311
 20
252.71003020846655
 30
0.0
 10
95.63905356043561
 20
252.45703378919572
 30
0.0
  0
SPLINE
  5
1A1
330
17
100
AcDbEntity
  8
ENGRAVE
100
AcDbSpline
 70
0
 71
2
 72
6
 73
3
 74
0
 40
0.0
 40
0.0
 40
0.0
 40
1.0
 40
1.0
 40
1.0
 10
96.13403565678978
 20
255.6690373699249
 30
0.0
 10
95.82605714116478
 20
255.00903736992487
 30
0.0
 10
95.65556072189395
 20
254.56903736992487
 30
0.0
  0
SPLINE
  5
1A2
330
17
100
AcDbEntity
  8
ENGRAVE
100
AcDbSpline
 70
0
 71
2
 72
6
 73
3
 74
0
 40
0.0
 40
0.0
 40
0.0
 40
1.0
 40
1.0
 40
1.0
 10
95.63903565678977
 20
256.91201588554986
 30
0.0
 10
95.77105714116477
 20
257.0990373699249
 30
0.0
 10
95.86454997970644
 20
257.29153736992487
 30
0.0
  0
SPLINE
  5
1A3
330
17
100
AcDbEntity
  8
ENGRAVE
100
AcDbSpline
 70
0
 71
2
 72
6
 73
3
 74
0
 40
0.0
 40
0.0
 40
0.0
 40
1.0
 40
1.0
 40
1.0
 10
95.6280428182481
 20
253.4910230470082
 30
0.0
 10
95.74903565678977
 20
253.59003020846654
 30
0.0
 10
95.89204997970644
 20
253.68903736992488
 30
0.0
  0
SPLINE
  5
1A4
330
17
100
AcDbEntity
  8
ENGRAVE
100
AcDbSpline
 70
0
 71
2
 72
6
 73
3
 74
0
 40
0.0
 40
0.0
 40
0.0
 40
1.0
 40
1.0
 40
1.0
 10
95.24855714116478
 20
251.08203378919572
 30
0.0
 10
95.55105714116478
 20
251.23602304700822
 30
0.0
 10
95.9140535604356
 20
251.51651946627905
 30
0.0
  0
SPLINE
  5
1A5
330
17
100
AcDbEntity
  8
ENGRAVE
100
AcDbSpline
 70
0
 71
2
 72
6
 73
3
 74
0
 40
0.0
 40
0.0
 40
0.0
 40
1.0
 40
1.0
 40
1.0
 10
95.86454997970644
 20
257.29153736992487
 30
0.0
 10
95.95804281824812
 20
257.48403736992486
 30
0.0
 10
96.03506430262311
 20
257.5170158855499
 30
0.0
  0
SPLINE
  5
1A6
330
17
100
AcDbEntity
  8
ENGRAVE
100
AcDbSpline
 70
0
 71
2
 72
6
 73
3
 74
0
 40
0.0
 40
0.0
 40
0.0
 40
1.0
 40
1.0
 40
1.0
 10
96.66204997970644
 20
250.92253020846655
 30
0.0
 10
96.37605714116478
 20
250.71903736992488
 30
0.0
 10
96.09556072189395
 20
250.5595337891957
 30
0.0
  0
SPLINE
  5
1A7
330
17
100
AcDbEntity
  8
ENGRAVE
100
AcDbSpline
 70
0
 71
2
 72
6
 73
3
 74
0
 40
0.0
 40
0.0
 40
0.0
 40
1.0
 40
1.0
 40
1.0
 10
95.89204997970644
 20
253.68903736992488
 30
0.0
 10
95.9800643026231
 20
253.75503020846654
 30
0.0
 10
96.12855714116478
 20
253.8265373699249
 30
0.0
  0
SPLINE
  5
1A8
330
17
100
AcDbEntity
  8
ENGRAVE
100
AcDbSpline
 70
0
 71
2
 72
6
 73
3
 74
0
 40
0.0
 40
0.0
 40
0.0
 40
1.0
 40
1.0
 40
1.0
 10
96.50806072189394
 20
256.45552662773736
 30
0.0
 10
96.37605714116478
 20
256.1750302084665
 30
0.0
 10
96.13403565678978
 20
255.6690373699249
 30
0.0
  0
SPLINE
  5
1A9
330
17
100
AcDbEntity
  8
ENGRAVE
100
AcDbSpline
 70
0
 71
2
 72
6
 73
3
 74
0
 40
0.0
 40
0.0
 40
0.0
 40
1.0
 40
1.0
 40
1.0
 10
96.03506430262311
 20
257.5170158855499
 30
0.0
 10
96.0900643026231
 20
257.5280445313832
 30
0.0
 10
96.22756430262311
 20
257.4730445313832
 30
0.0
  0
SPLINE
  5
1AA
330
17
100
AcDbEntity
  8
ENGRAVE
100
AcDbSpline
 70
0
 71
2
 72
6
 73
3
 74
0
 40
0.0
 40
0.0
 40
0.0
 40
1.0
 40
1.0
 40
1.0
 10
96.90403565678977
 20
253.2270158855499
 30
0.0
 10
96.73903565678978
 20
253.2270158855499
 30
0.0
 10
96.39804281824811
 20
253.0070158855499
 30
0.0
  0
SPLINE
  5
1AB
330
17
100
AcDbEntity
  8
ENGRAVE
100
AcDbSpline
 70
0
 71
2
 72
6
 73
3
 74
0
 40
0.0
 40
0.0
 40
0.0
 40
1.0
 40
1.0
 40
1.0
 10
96.12855714116478
 20
253.8265373699249
 30
0.0
 10
96.27704997970645
 20
253.89804453138322
 30
0.0
 10
96.42004639897728
 20
253.95304453138323
 30
0.0
  0
SPLINE
  5
1AC
330
17
100
AcDbEntity
  8
ENGRAVE
100
AcDbSpline
 70
0
 71
2
 72
6
 73
3
 74
0
 40
0.0
 40
0.0
 40
0.0
 40
1.0
 40
1.0
 40
1.0
 10
96.69506430262311
 20
256.8625302084665
 30
0.0
 10
96.64006430262312
 20
256.7360230470082
 30
0.0
 10
96.50806072189394
 20
256.45552662773736
 30
0.0
  0
SPLINE
  5
1AD
330
17
100
AcDbEntity
  8
ENGRAVE
100
AcDbSpline
 70
0
 71
2
 72
6
 73
3
 74
0
 40
0.0
 40
0.0
 40
0.0
 40
1.0
 40
1.0
 40
1.0
 10
96.22756430262311
 20
257.4730445313832
 30
0.0
 10
96.36506430262311
 20
257.4180445313832
 30
0.0
 10
96.50806072189394
 20
257.33003020846655
 30
0.0
  0
SPLINE
  5
1AE
330
17
100
AcDbEntity
  8
ENGRAVE
100
AcDbSpline
 70
0
 71
2
 72
6
 73
3
 74
0
 40
0.0
 40
0.0
 40
0.0
 40
1.0
 40
1.0
 40
1.0
 10
96.42004639897728
 20
253.95304453138323
 30
0.0
 10
96.5630428182481
 20
254.0080445313832
 30
0.0
 10
96.62903565678978
 20
254.0190373699249
 30
0.0
  0
SPLINE
  5
1AF
330
17
100
AcDbEntity
  8
ENGRAVE
100
AcDbSpline
 70
0
 71
2
 72
6
 73
3
 74
0
 40
0.0
 40
0.0
 40
0.0
 40
1.0
 40
1.0
 40
1.0
 10
95.9140535604356
 20
251.51651946627905
 30
0.0
 10
96.27704997970645
 20
251.79701588554988
 30
0.0
 10
96.64006430262312
 20
252.1270158855499
 30
0.0
  0
SPLINE
  5
1B0
330
17
100
AcDbEntity
  8
ENGRAVE
100
AcDbSpline
 70
0
 71
2
 72
6
 73
3
 74
0
 40
0.0
 40
0.0
 40
0.0
 40
1.0
 40
1.0
 40
1.0
 10
97.14605714116477
 20
251.33503020846655
 30
0.0
 10
96.94804281824811
 20
251.1260230470082
 30
0.0
 10
96.66204997970644
 20
250.92253020846655
 30
0.0
  0
SPLINE
  5
1B1
330
17
100
AcDbEntity
  8
ENGRAVE
100
AcDbSpline
 70
0
 71
2
 72
6
 73
3
 74
0
 40
0.0
 40
0.0
 40
0.0
 40
1.0
 40
1.0
 40
1.0
 10
96.74454997970645
 20
257.04403736992487
 30
0.0
 10
96.75006430262312
 20
256.98903736992486
 30
0.0
 10
96.69506430262311
 20
256.8625302084665
 30
0.0
  0
SPLINE
  5
1B2
330
17
100
AcDbEntity
  8
ENGRAVE
100
AcDbSpline
 70
0
 71
2
 72
6
 73
3
 74
0
 40
0.0
 40
0.0
 40
0.0
 40
1.0
 40
1.0
 40
1.0
 10
96.50806072189394
 20
257.33003020846655
 30
0.0
 10
96.65105714116478
 20
257.2420158855499
 30
0.0
 10
96.70605714116478
 20
257.1540373699249
 30
0.0
  0
SPLINE
  5
1B3
330
17
100
AcDbEntity
  8
ENGRAVE
100
AcDbSpline
 70
0
 71
2
 72
6
 73
3
 74
0
 40
0.0
 40
0.0
 40
0.0
 40
1.0
 40
1.0
 40
1.0
 10
96.70605714116478
 20
257.1540373699249
 30
0.0
 10
96.73903565678978
 20
257.0990373699249
 30
0.0
 10
96.74454997970645
 20
257.04403736992487
 30
0.0
  0
SPLINE
  5
1B4
330
17
100
AcDbEntity
  8
ENGRAVE
100
AcDbSpline
 70
0
 71
2
 72
6
 73
3
 74
0
 40
0.0
 40
0.0
 40
0.0
 40
1.0
 40
1.0
 40
1.0
 10
96.62903565678978
 20
254.0190373699249
 30
0.0
 10
96.66204997970644
 20
254.03003020846654
 30
0.0
 10
96.85454997970645
 20
254.06852304700823
 30
0.0
  0
SPLINE
  5
1B5
330
17
100
AcDbEntity
  8
ENGRAVE
100
AcDbSpline
 70
0
 71
2
 72
6
 73
3
 74
0
 40
0.0
 40
0.0
 40
0.0
 40
1.0
 40
1.0
 40
1.0
 10
97.11304281824812
 20
253.1390373699249
 30
0.0
 10
97.06903565678978
 20
253.2270158855499
 30
0.0
 10
96.90403565678977
 20
253.2270158855499
 30
0.0
  0
SPLINE
  5
1B6
330
17
100
AcDbEntity
  8
ENGRAVE
100
AcDbSpline
 70
0
 71
2
 72
6
 73
3
 74
0
 40
0.0
 40
0.0
 40
0.0
 40
1.0
 40
1.0
 40
1.0
 10
96.64006430262312
 20
252.1270158855499
 30
0.0
 10
96.92605714116478
 20
252.5010230470082
 30
0.0
 10
97.04155356043562
 20
252.67703378919572
 30
0.0
  0
SPLINE
  5
1B7
330
17
100
AcDbEntity
  8
ENGRAVE
100
AcDbSpline
 70
0
 71
2
 72
6
 73
3
 74
0
 40
0.0
 40
0.0
 40
0.0
 40
1.0
 40
1.0
 40
1.0
 10
97.16254639897728
 20
252.94653736992487
 30
0.0
 10
97.16804281824811
 20
253.04003020846656
 30
0.0
 10
97.11304281824812
 20
253.1390373699249
 30
0.0
  0
SPLINE
  5
1B8
330
17
100
AcDbEntity
  8
ENGRAVE
100
AcDbSpline
 70
0
 71
2
 72
6
 73
3
 74
0
 40
0.0
 40
0.0
 40
0.0
 40
1.0
 40
1.0
 40
1.0
 10
97.52004639897729
 20
251.78052662773737
 30
0.0
 10
97.33304281824812
 20
251.5440373699249
 30
0.0
 10
97.14605714116477
 20
251.33503020846655
 30
0.0
  0
SPLINE
  5
1B9
330
17
100
AcDbEntity
  8
ENGRAVE
100
AcDbSpline
 70
0
 71
2
 72
6
 73
3
 74
0
 40
0.0
 40
0.0
 40
0.0
 40
1.0
 40
1.0
 40
1.0
 10
97.04155356043562
 20
252.67703378919572
 30
0.0
 10
97.15704997970644
 20
252.8530445313832
 30
0.0
 10
97.16254639897728
 20
252.94653736992487
 30
0.0
  0
SPLINE
  5
1BA
330
17
100
AcDbEntity
  8
ENGRAVE
100
AcDbSpline
 70
0
 71
2
 72
6
 73
3
 74
0
 40
0.0
 40
0.0
 40
0.0
 40
1.0
 40
1.0
 40
1.0
 10
96.85454997970645
 20
254.06852304700823
 30
0.0
 10
97.04704997970644
 20
254.10701588554988
 30
0.0
 10
97.23403565678979
 20
254.10701588554988
 30
0.0
  0
SPLINE
  5
1BB
330
17
100
AcDbEntity
  8
ENGRAVE
100
AcDbSpline
 70
0
 71
2
 72
6
 73
3
 74
0
 40
0.0
 40
0.0
 40
0.0
 40
1.0
 40
1.0
 40
1.0
 10
97.71804281824811
 20
252.09403736992488
 30
0.0
 10
97.70704997970644
 20
252.01701588554988
 30
0.0
 10
97.52004639897729
 20
251.78052662773737
 30
0.0
  0
SPLINE
  5
1BC
330
17
100
AcDbEntity
  8
ENGRAVE
100
AcDbSpline
 70
0
 71
2
 72
6
 73
3
 74
0
 40
0.0
 40
0.0
 40
0.0
 40
1.0
 40
1.0
 40
1.0
 10
97.23403565678979
 20
254.10701588554988
 30
0.0
 10
97.47605714116477
 20
254.10701588554988
 30
0.0
 10
97.65754639897727
 20
253.93651946627904
 30
0.0
  0
SPLINE
  5
1BD
330
17
100
AcDbEntity
  8
ENGRAVE
100
AcDbSpline
 70
0
 71
2
 72
6
 73
3
 74
0
 40
0.0
 40
0.0
 40
0.0
 40
1.0
 40
1.0
 40
1.0
 10
97.77304281824811
 20
252.20953378919572
 30
0.0
 10
97.71804281824811
 20
252.1380445313832
 30
0.0
 10
97.71804281824811
 20
252.09403736992488
 30
0.0
  0
SPLINE
  5
1BE
330
17
100
AcDbEntity
  8
ENGRAVE
100
AcDbSpline
 70
0
 71
2
 72
6
 73
3
 74
0
 40
0.0
 40
0.0
 40
0.0
 40
1.0
 40
1.0
 40
1.0
 10
97.88304281824811
 20
252.32503020846656
 30
0.0
 10
97.82804281824811
 20
252.2810230470082
 30
0.0
 10
97.77304281824811
 20
252.20953378919572
 30
0.0
  0
SPLINE
  5
1BF
330
17
100
AcDbEntity
  8
ENGRAVE
100
AcDbSpline
 70
0
 71
2
 72
6
 73
3
 74
0
 40
0.0
 40
0.0
 40
0.0
 40
1.0
 40
1.0
 40
1.0
 10
98.07004639897728
 20
252.93554453138321
 30
0.0
 10
98.03704997970644
 20
252.57804453138323
 30
0.0
 10
97.88304281824811
 20
252.32503020846656
 30
0.0
  0
SPLINE
  5
1C0
330
17
100
AcDbEntity
  8
ENGRAVE
100
AcDbSpline
 70
0
 71
2
 72
6
 73
3
 74
0
 40
0.0
 40
0.0
 40
0.0
 40
1.0
 40
1.0
 40
1.0
 10
97.65754639897727
 20
253.93651946627904
 30
0.0
 10
97.83903565678978
 20
253.76602304700822
 30
0.0
 10
97.98204997970645
 20
253.52403736992488
 30
0.0
  0
SPLINE
  5
1C1
330
17
100
AcDbEntity
  8
ENGRAVE
100
AcDbSpline
 70
0
 71
2
 72
6
 73
3
 74
0
 40
0.0
 40
0.0
 40
0.0
 40
1.0
 40
1.0
 40
1.0
 10
97.98204997970645
 20
253.52403736992488
 30
0.0
 10
98.10304281824811
 20
253.2930445313832
 30
0.0
 10
98.07004639897728
 20
252.93554453138321
 30
0.0
  0
SPLINE
  5
1C2
330
17
100
AcDbEntity
  8
ENGRAVE
100
AcDbSpline
 70
0
 71
2
 72
6
 73
3
 74
0
 40
0.0
 40
0.0
 40
0.0
 40
1.0
 40
1.0
 40
1.0
 10
98.48804281824812
 20
251.6320158855499
 30
0.0
 10
98.43304281824813
 20
251.68701588554987
 30
0.0
 10
98.45504639897729
 20
251.70352304700822
 30
0.0
  0
SPLINE
  5
1C3
330
17
100
AcDbEntity
  8
ENGRAVE
100
AcDbSpline
 70
0
 71
2
 72
6
 73
3
 74
0
 40
0.0
 40
0.0
 40
0.0
 40
1.0
 40
1.0
 40
1.0
 10
98.55954997970646
 20
250.93901946627903
 30
0.0
 10
98.43304281824813
 20
251.1920158855499
 30
0.0
 10
98.46605714116478
 20
251.37903736992487
 30
0.0
  0
SPLINE
  5
1C4
330
17
100
AcDbEntity
  8
ENGRAVE
100
AcDbSpline
 70
0
 71
2
 72
6
 73
3
 74
0
 40
0.0
 40
0.0
 40
0.0
 40
1.0
 40
1.0
 40
1.0
 10
98.49355714116479
 20
251.54951588554988
 30
0.0
 10
98.48804281824812
 20
251.6320158855499
 30
0.0
 10
98.48804281824812
 20
251.6320158855499
 30
0.0
  0
SPLINE
  5
1C5
330
17
100
AcDbEntity
  8
ENGRAVE
100
AcDbSpline
 70
0
 71
2
 72
6
 73
3
 74
0
 40
0.0
 40
0.0
 40
0.0
 40
1.0
 40
1.0
 40
1.0
 10
98.46605714116478
 20
251.37903736992487
 30
0.0
 10
98.49907146408145
 20
251.46701588554987
 30
0.0
 10
98.49355714116479
 20
251.54951588554988
 30
0.0
  0
SPLINE
  5
1C6
330
17
100
AcDbEntity
  8
ENGRAVE
100
AcDbSpline
 70
0
 71
2
 72
6
 73
3
 74
0
 40
0.0
 40
0.0
 40
0.0
 40
1.0
 40
1.0
 40
1.0
 10
98.45504639897729
 20
251.70352304700822
 30
0.0
 10
98.47704997970645
 20
251.72003020846654
 30
0.0
 10
98.49907146408145
 20
251.7640373699249
 30
0.0
  0
SPLINE
  5
1C7
330
17
100
AcDbEntity
  8
ENGRAVE
100
AcDbSpline
 70
0
 71
2
 72
6
 73
3
 74
0
 40
0.0
 40
0.0
 40
0.0
 40
1.0
 40
1.0
 40
1.0
 10
98.49907146408145
 20
251.7640373699249
 30
0.0
 10
98.56506430262311
 20
251.7640373699249
 30
0.0
 10
98.54304281824813
 20
251.88503020846656
 30
0.0
  0
SPLINE
  5
1C8
330
17
100
AcDbEntity
  8
ENGRAVE
100
AcDbSpline
 70
0
 71
2
 72
6
 73
3
 74
0
 40
0.0
 40
0.0
 40
0.0
 40
1.0
 40
1.0
 40
1.0
 10
98.89506430262313
 20
250.4660230470082
 30
0.0
 10
98.68605714116478
 20
250.6860230470082
 30
0.0
 10
98.55954997970646
 20
250.93901946627903
 30
0.0
  0
SPLINE
  5
1C9
330
17
100
AcDbEntity
  8
ENGRAVE
100
AcDbSpline
 70
0
 71
2
 72
6
 73
3
 74
0
 40
0.0
 40
0.0
 40
0.0
 40
1.0
 40
1.0
 40
1.0
 10
98.54304281824813
 20
251.88503020846656
 30
0.0
 10
98.52105714116479
 20
251.9730445313832
 30
0.0
 10
98.61454997970645
 20
252.26453378919572
 30
0.0
  0
SPLINE
  5
1CA
330
17
100
AcDbEntity
  8
ENGRAVE
100
AcDbSpline
 70
0
 71
2
 72
6
 73
3
 74
0
 40
0.0
 40
0.0
 40
0.0
 40
1.0
 40
1.0
 40
1.0
 10
98.61454997970645
 20
252.26453378919572
 30
0.0
 10
98.70804281824812
 20
252.5560230470082
 30
0.0
 10
98.87304281824812
 20
252.82003020846653
 30
0.0
  0
SPLINE
  5
1CB
330
17
100
AcDbEntity
  8
ENGRAVE
100
AcDbSpline
 70
0
 71
2
 72
6
 73
3
 74
0
 40
0.0
 40
0.0
 40
0.0
 40
1.0
 40
1.0
 40
1.0
 10
99.09855714116479
 20
250.31201588554987
 30
0.0
 10
99.0160571411648
 20
250.36701588554988
 30
0.0
 10
98.89506430262313
 20
250.4660230470082
 30
0.0
  0
SPLINE
  5
1CC
330
17
100
AcDbEntity
  8
ENGRAVE
100
AcDbSpline
 70
0
 71
2
 72
6
 73
3
 74
0
 40
0.0
 40
0.0
 40
0.0
 40
1.0
 40
1.0
 40
1.0
 10
98.87304281824812
 20
252.82003020846653
 30
0.0
 10
98.93907146408145
 20
252.93003020846655
 30
0.0
 10
99.07105714116479
 20
253.1115373699249
 30
0.0
  0
SPLINE
  5
1CD
330
17
100
AcDbEntity
  8
ENGRAVE
100
AcDbSpline
 70
0
 71
2
 72
6
 73
3
 74
0
 40
0.0
 40
0.0
 40
0.0
 40
1.0
 40
1.0
 40
1.0
 10
99.32407146408146
 20
250.2570158855499
 30
0.0
 10
99.18105714116479
 20
250.2570158855499
 30
0.0
 10
99.09855714116479
 20
250.31201588554987
 30
0.0
  0
SPLINE
  5
1CE
330
17
100
AcDbEntity
  8
ENGRAVE
100
AcDbSpline
 70
0
 71
2
 72
6
 73
3
 74
0
 40
0.0
 40
0.0
 40
0.0
 40
1.0
 40
1.0
 40
1.0
 10
99.84105714116478
 20
250.3120337891957
 30
0.0
 10
99.57704997970646
 20
250.27903736992488
 30
0.0
 10
99.32407146408146
 20
250.2570158855499
 30
0.0
  0
SPLINE
  5
1CF
330
17
100
AcDbEntity
  8
ENGRAVE
100
AcDbSpline
 70
0
 71
2
 72
6
 73
3
 74
0
 40
0.0
 40
0.0
 40
0.0
 40
1.0
 40
1.0
 40
1.0
 10
99.07105714116479
 20
253.1115373699249
 30
0.0
 10
99.20304281824812
 20
253.2930445313832
 30
0.0
 10
99.36254639897729
 20
253.4745337891957
 30
0.0
  0
SPLINE
  5
1D0
330
17
100
AcDbEntity
  8
ENGRAVE
100
AcDbSpline
 70
0
 71
2
 72
6
 73
3
 74
0
 40
0.0
 40
0.0
 40
0.0
 40
1.0
 40
1.0
 40
1.0
 10
99.94556072189395
 20
252.6055445313832
 30
0.0
 10
99.66506430262312
 20
252.24804453138321
 30
0.0
 10
99.55506430262312
 20
251.73102304700822
 30
0.0
  0
SPLINE
  5
1D1
330
17
100
AcDbEntity
  8
ENGRAVE
100
AcDbSpline
 70
0
 71
2
 72
6
 73
3
 74
0
 40
0.0
 40
0.0
 40
0.0
 40
1.0
 40
1.0
 40
1.0
 10
99.36254639897729
 20
253.4745337891957
 30
0.0
 10
99.52204997970645
 20
253.6560230470082
 30
0.0
 10
99.65407146408145
 20
253.76602304700822
 30
0.0
  0
SPLINE
  5
1D2
330
17
100
AcDbEntity
  8
ENGRAVE
100
AcDbSpline
 70
0
 71
2
 72
6
 73
3
 74
0
 40
0.0
 40
0.0
 40
0.0
 40
1.0
 40
1.0
 40
1.0
 10
99.55506430262312
 20
251.73102304700822
 30
0.0
 10
99.51105714116478
 20
251.3240373699249
 30
0.0
 10
99.74204997970645
 20
251.23604095065406
 30
0.0
  0
SPLINE
  5
1D3
330
17
100
AcDbEntity
  8
ENGRAVE
100
AcDbSpline
 70
0
 71
2
 72
6
 73
3
 74
0
 40
0.0
 40
0.0
 40
0.0
 40
1.0
 40
1.0
 40
1.0
 10
100.33605714116479
 20
250.49903736992488
 30
0.0
 10
100.10506430262312
 20
250.34503020846654
 30
0.0
 10
99.84105714116478
 20
250.3120337891957
 30
0.0
  0
SPLINE
  5
1D4
330
17
100
AcDbEntity
  8
ENGRAVE
100
AcDbSpline
 70
0
 71
2
 72
6
 73
3
 74
0
 40
0.0
 40
0.0
 40
0.0
 40
1.0
 40
1.0
 40
1.0
 10
100.55605714116479
 20
253.23804453138322
 30
0.0
 10
100.22605714116479
 20
252.96304453138322
 30
0.0
 10
99.94556072189395
 20
252.6055445313832
 30
0.0
  0
SPLINE
  5
1D5
330
17
100
AcDbEntity
  8
ENGRAVE
100
AcDbSpline
 70
0
 71
2
 72
6
 73
3
 74
0
 40
0.0
 40
0.0
 40
0.0
 40
1.0
 40
1.0
 40
1.0
 10
99.65407146408145
 20
253.76602304700822
 30
0.0
 10
99.92907146408146
 20
253.99701588554987
 30
0.0
 10
100.16556072189395
 20
254.14003020846656
 30
0.0
  0
SPLINE
  5
1D6
330
17
100
AcDbEntity
  8
ENGRAVE
100
AcDbSpline
 70
0
 71
2
 72
6
 73
3
 74
0
 40
0.0
 40
0.0
 40
0.0
 40
1.0
 40
1.0
 40
1.0
 10
100.91905356043561
 20
250.9060230470082
 30
0.0
 10
100.65506430262312
 20
250.6860230470082
 30
0.0
 10
100.33605714116479
 20
250.49903736992488
 30
0.0
  0
SPLINE
  5
1D7
330
17
100
AcDbEntity
  8
ENGRAVE
100
AcDbSpline
 70
0
 71
2
 72
6
 73
3
 74
0
 40
0.0
 40
0.0
 40
0.0
 40
1.0
 40
1.0
 40
1.0
 10
99.74204997970645
 20
251.23604095065406
 30
0.0
 10
99.97304281824812
 20
251.14804453138322
 30
0.0
 10
100.44605714116479
 20
251.59903736992487
 30
0.0
  0
SPLINE
  5
1D8
330
17
100
AcDbEntity
  8
ENGRAVE
100
AcDbSpline
 70
0
 71
2
 72
6
 73
3
 74
0
 40
0.0
 40
0.0
 40
0.0
 40
1.0
 40
1.0
 40
1.0
 10
100.80905356043561
 20
253.3865373699249
 30
0.0
 10
100.71006430262312
 20
253.3480445313832
 30
0.0
 10
100.55605714116479
 20
253.23804453138322
 30
0.0
  0
SPLINE
  5
1D9
330
17
100
AcDbEntity
  8
ENGRAVE
100
AcDbSpline
 70
0
 71
2
 72
6
 73
3
 74
0
 40
0.0
 40
0.0
 40
0.0
 40
1.0
 40
1.0
 40
1.0
 10
100.16556072189395
 20
254.14003020846656
 30
0.0
 10
100.40204997970645
 20
254.2830445313832
 30
0.0
 10
100.64407146408145
 20
254.33804453138322
 30
0.0
  0
SPLINE
  5
1DA
330
17
100
AcDbEntity
  8
ENGRAVE
100
AcDbSpline
 70
0
 71
2
 72
6
 73
3
 74
0
 40
0.0
 40
0.0
 40
0.0
 40
1.0
 40
1.0
 40
1.0
 10
100.44605714116479
 20
251.59903736992487
 30
0.0
 10
100.68804281824812
 20
251.80804453138322
 30
0.0
 10
100.7925463989773
 20
252.06104095065405
 30
0.0
  0
SPLINE
  5
1DB
330
17
100
AcDbEntity
  8
ENGRAVE
100
AcDbSpline
 70
0
 71
2
 72
6
 73
3
 74
0
 40
0.0
 40
0.0
 40
0.0
 40
1.0
 40
1.0
 40
1.0
 10
101.00704997970645
 20
253.3480445313832
 30
0.0
 10
100.90804281824812
 20
253.42503020846655
 30
0.0
 10
100.80905356043561
 20
253.3865373699249
 30
0.0
  0
SPLINE
  5
1DC
330
17
100
AcDbEntity
  8
ENGRAVE
100
AcDbSpline
 70
0
 71
2
 72
6
 73
3
 74
0
 40
0.0
 40
0.0
 40
0.0
 40
1.0
 40
1.0
 40
1.0
 10
101.45804281824812
 20
251.52201588554988
 30
0.0
 10
101.18304281824813
 20
251.1260230470082
 30
0.0
 10
100.91905356043561
 20
250.9060230470082
 30
0.0
  0
SPLINE
  5
1DD
330
17
100
AcDbEntity
  8
ENGRAVE
100
AcDbSpline
 70
0
 71
2
 72
6
 73
3
 74
0
 40
0.0
 40
0.0
 40
0.0
 40
1.0
 40
1.0
 40
1.0
 10
101.08405356043562
 20
253.17753020846655
 30
0.0
 10
101.07304281824813
 20
253.32602304700822
 30
0.0
 10
101.00704997970645
 20
253.3480445313832
 30
0.0
  0
SPLINE
  5
1DE
330
17
100
AcDbEntity
  8
ENGRAVE
100
AcDbSpline
 70
0
 71
2
 72
6
 73
3
 74
0
 40
0.0
 40
0.0
 40
0.0
 40
1.0
 40
1.0
 40
1.0
 10
100.7925463989773
 20
252.06104095065405
 30
0.0
 10
100.89704997970645
 20
252.31403736992488
 30
0.0
 10
101.01804281824812
 20
252.65503020846654
 30
0.0
  0
SPLINE
  5
1DF
330
17
100
AcDbEntity
  8
ENGRAVE
100
AcDbSpline
 70
0
 71
2
 72
6
 73
3
 74
0
 40
0.0
 40
0.0
 40
0.0
 40
1.0
 40
1.0
 40
1.0
 10
101.01804281824812
 20
252.65503020846654
 30
0.0
 10
101.06204997970646
 20
252.7210230470082
 30
0.0
 10
101.0785571411648
 20
252.87503020846654
 30
0.0
  0
SPLINE
  5
1E0
330
17
100
AcDbEntity
  8
ENGRAVE
100
AcDbSpline
 70
0
 71
2
 72
6
 73
3
 74
0
 40
0.0
 40
0.0
 40
0.0
 40
1.0
 40
1.0
 40
1.0
 10
101.0785571411648
 20
252.87503020846654
 30
0.0
 10
101.09506430262311
 20
253.02903736992488
 30
0.0
 10
101.08405356043562
 20
253.17753020846655
 30
0.0
  0
SPLINE
  5
1E1
330
17
100
AcDbEntity
  8
ENGRAVE
100
AcDbSpline
 70
0
 71
2
 72
6
 73
3
 74
0
 40
0.0
 40
0.0
 40
0.0
 40
1.0
 40
1.0
 40
1.0
 10
100.64407146408145
 20
254.33804453138322
 30
0.0
 10
100.88605714116478
 20
254.39304453138323
 30
0.0
 10
101.14454997970645
 20
254.39304453138323
 30
0.0
  0
SPLINE
  5
1E2
330
17
100
AcDbEntity
  8
ENGRAVE
100
AcDbSpline
 70
0
 71
2
 72
6
 73
3
 74
0
 40
0.0
 40
0.0
 40
0.0
 40
1.0
 40
1.0
 40
1.0
 10
101.99704997970646
 20
252.62753020846654
 30
0.0
 10
101.89804281824811
 20
252.14903736992488
 30
0.0
 10
101.45804281824812
 20
251.52201588554988
 30
0.0
  0
SPLINE
  5
1E3
330
17
100
AcDbEntity
  8
ENGRAVE
100
AcDbSpline
 70
0
 71
2
 72
6
 73
3
 74
0
 40
0.0
 40
0.0
 40
0.0
 40
1.0
 40
1.0
 40
1.0
 10
101.14454997970645
 20
254.39304453138323
 30
0.0
 10
101.40304281824812
 20
254.39304453138323
 30
0.0
 10
101.56804281824812
 20
254.21701588554987
 30
0.0
  0
SPLINE
  5
1E4
330
17
100
AcDbEntity
  8
ENGRAVE
100
AcDbSpline
 70
0
 71
2
 72
6
 73
3
 74
0
 40
0.0
 40
0.0
 40
0.0
 40
1.0
 40
1.0
 40
1.0
 10
101.56804281824812
 20
254.21701588554987
 30
0.0
 10
101.82105714116479
 20
254.10701588554988
 30
0.0
 10
101.92556072189396
 20
253.92003020846656
 30
0.0
  0
SPLINE
  5
1E5
330
17
100
AcDbEntity
  8
ENGRAVE
100
AcDbSpline
 70
0
 71
2
 72
6
 73
3
 74
0
 40
0.0
 40
0.0
 40
0.0
 40
1.0
 40
1.0
 40
1.0
 10
102.06304281824812
 20
253.4360230470082
 30
0.0
 10
102.09605714116479
 20
253.10602304700822
 30
0.0
 10
101.99704997970646
 20
252.62753020846654
 30
0.0
  0
SPLINE
  5
1E6
330
17
100
AcDbEntity
  8
ENGRAVE
100
AcDbSpline
 70
0
 71
2
 72
6
 73
3
 74
0
 40
0.0
 40
0.0
 40
0.0
 40
1.0
 40
1.0
 40
1.0
 10
101.92556072189396
 20
253.92003020846656
 30
0.0
 10
102.03006430262312
 20
253.7330445313832
 30
0.0
 10
102.06304281824812
 20
253.4360230470082
 30
0.0
  0
SPLINE
  5
1E7
330
17
100
AcDbEntity
  8
ENGRAVE
100
AcDbSpline
 70
0
 71
2
 72
6
 73
3
 74
0
 40
0.0
 40
0.0
 40
0.0
 40
1.0
 40
1.0
 40
1.0
 10
102.47002849533145
 20
251.6320158855499
 30
0.0
 10
102.41502849533146
 20
251.68701588554987
 30
0.0
 10
102.43703207606062
 20
251.70352304700822
 30
0.0
  0
SPLINE
  5
1E8
330
17
100
AcDbEntity
  8
ENGRAVE
100
AcDbSpline
 70
0
 71
2
 72
6
 73
3
 74
0
 40
0.0
 40
0.0
 40
0.0
 40
1.0
 40
1.0
 40
1.0
 10
102.54153565678979
 20
250.93901946627903
 30
0.0
 10
102.41502849533146
 20
251.1920158855499
 30
0.0
 10
102.44804281824811
 20
251.37903736992487
 30
0.0
  0
SPLINE
  5
1E9
330
17
100
AcDbEntity
  8
ENGRAVE
100
AcDbSpline
 70
0
 71
2
 72
6
 73
3
 74
0
 40
0.0
 40
0.0
 40
0.0
 40
1.0
 40
1.0
 40
1.0
 10
102.47554281824812
 20
251.54951588554988
 30
0.0
 10
102.47002849533145
 20
251.6320158855499
 30
0.0
 10
102.47002849533145
 20
251.6320158855499
 30
0.0
  0
SPLINE
  5
1EA
330
17
100
AcDbEntity
  8
ENGRAVE
100
AcDbSpline
 70
0
 71
2
 72
6
 73
3
 74
0
 40
0.0
 40
0.0
 40
0.0
 40
1.0
 40
1.0
 40
1.0
 10
102.44804281824811
 20
251.37903736992487
 30
0.0
 10
102.48105714116478
 20
251.46701588554987
 30
0.0
 10
102.47554281824812
 20
251.54951588554988
 30
0.0
  0
SPLINE
  5
1EB
330
17
100
AcDbEntity
  8
ENGRAVE
100
AcDbSpline
 70
0
 71
2
 72
6
 73
3
 74
0
 40
0.0
 40
0.0
 40
0.0
 40
1.0
 40
1.0
 40
1.0
 10
102.43703207606062
 20
251.70352304700822
 30
0.0
 10
102.45903565678978
 20
251.72003020846654
 30
0.0
 10
102.48105714116478
 20
251.7640373699249
 30
0.0
  0
SPLINE
  5
1EC
330
17
100
AcDbEntity
  8
ENGRAVE
100
AcDbSpline
 70
0
 71
2
 72
6
 73
3
 74
0
 40
0.0
 40
0.0
 40
0.0
 40
1.0
 40
1.0
 40
1.0
 10
102.48105714116478
 20
251.7640373699249
 30
0.0
 10
102.54704997970646
 20
251.7640373699249
 30
0.0
 10
102.52502849533145
 20
251.88503020846656
 30
0.0
  0
SPLINE
  5
1ED
330
17
100
AcDbEntity
  8
ENGRAVE
100
AcDbSpline
 70
0
 71
2
 72
6
 73
3
 74
0
 40
0.0
 40
0.0
 40
0.0
 40
1.0
 40
1.0
 40
1.0
 10
102.87704997970646
 20
250.4660230470082
 30
0.0
 10
102.66804281824811
 20
250.6860230470082
 30
0.0
 10
102.54153565678979
 20
250.93901946627903
 30
0.0
  0
SPLINE
  5
1EE
330
17
100
AcDbEntity
  8
ENGRAVE
100
AcDbSpline
 70
0
 71
2
 72
6
 73
3
 74
0
 40
0.0
 40
0.0
 40
0.0
 40
1.0
 40
1.0
 40
1.0
 10
102.52502849533145
 20
251.88503020846656
 30
0.0
 10
102.50304281824812
 20
251.9730445313832
 30
0.0
 10
102.59653565678978
 20
252.26453378919572
 30
0.0
  0
SPLINE
  5
1EF
330
17
100
AcDbEntity
  8
ENGRAVE
100
AcDbSpline
 70
0
 71
2
 72
6
 73
3
 74
0
 40
0.0
 40
0.0
 40
0.0
 40
1.0
 40
1.0
 40
1.0
 10
102.59653565678978
 20
252.26453378919572
 30
0.0
 10
102.69002849533145
 20
252.5560230470082
 30
0.0
 10
102.85502849533145
 20
252.82003020846653
 30
0.0
  0
SPLINE
  5
1F0
330
17
100
AcDbEntity
  8
ENGRAVE
100
AcDbSpline
 70
0
 71
2
 72
6
 73
3
 74
0
 40
0.0
 40
0.0
 40
0.0
 40
1.0
 40
1.0
 40
1.0
 10
103.08054281824812
 20
250.31201588554987
 30
0.0
 10
102.99804281824812
 20
250.36701588554988
 30
0.0
 10
102.87704997970646
 20
250.4660230470082
 30
0.0
  0
SPLINE
  5
1F1
330
17
100
AcDbEntity
  8
ENGRAVE
100
AcDbSpline
 70
0
 71
2
 72
6
 73
3
 74
0
 40
0.0
 40
0.0
 40
0.0
 40
1.0
 40
1.0
 40
1.0
 10
102.85502849533145
 20
252.82003020846653
 30
0.0
 10
102.92105714116478
 20
252.93003020846655
 30
0.0
 10
103.05304281824812
 20
253.1115373699249
 30
0.0
  0
SPLINE
  5
1F2
330
17
100
AcDbEntity
  8
ENGRAVE
100
AcDbSpline
 70
0
 71
2
 72
6
 73
3
 74
0
 40
0.0
 40
0.0
 40
0.0
 40
1.0
 40
1.0
 40
1.0
 10
103.30605714116479
 20
250.2570158855499
 30
0.0
 10
103.16304281824812
 20
250.2570158855499
 30
0.0
 10
103.08054281824812
 20
250.31201588554987
 30
0.0
  0
SPLINE
  5
1F3
330
17
100
AcDbEntity
  8
ENGRAVE
100
AcDbSpline
 70
0
 71
2
 72
6
 73
3
 74
0
 40
0.0
 40
0.0
 40
0.0
 40
1.0
 40
1.0
 40
1.0
 10
103.82304281824811
 20
250.3120337891957
 30
0.0
 10
103.55903565678979
 20
250.27903736992488
 30
0.0
 10
103.30605714116479
 20
250.2570158855499
 30
0.0
  0
SPLINE
  5
1F4
330
17
100
AcDbEntity
  8
ENGRAVE
100
AcDbSpline
 70
0
 71
2
 72
6
 73
3
 74
0
 40
0.0
 40
0.0
 40
0.0
 40
1.0
 40
1.0
 40
1.0
 10
103.05304281824812
 20
253.1115373699249
 30
0.0
 10
103.18502849533145
 20
253.2930445313832
 30
0.0
 10
103.34453207606062
 20
253.4745337891957
 30
0.0
  0
SPLINE
  5
1F5
330
17
100
AcDbEntity
  8
ENGRAVE
100
AcDbSpline
 70
0
 71
2
 72
6
 73
3
 74
0
 40
0.0
 40
0.0
 40
0.0
 40
1.0
 40
1.0
 40
1.0
 10
103.92754639897728
 20
252.6055445313832
 30
0.0
 10
103.64704997970645
 20
252.24804453138321
 30
0.0
 10
103.53704997970645
 20
251.73102304700822
 30
0.0
  0
SPLINE
  5
1F6
330
17
100
AcDbEntity
  8
ENGRAVE
100
AcDbSpline
 70
0
 71
2
 72
6
 73
3
 74
0
 40
0.0
 40
0.0
 40
0.0
 40
1.0
 40
1.0
 40
1.0
 10
103.34453207606062
 20
253.4745337891957
 30
0.0
 10
103.50403565678978
 20
253.6560230470082
 30
0.0
 10
103.63605714116478
 20
253.76602304700822
 30
0.0
  0
SPLINE
  5
1F7
330
17
100
AcDbEntity
  8
ENGRAVE
100
AcDbSpline
 70
0
 71
2
 72
6
 73
3
 74
0
 40
0.0
 40
0.0
 40
0.0
 40
1.0
 40
1.0
 40
1.0
 10
103.53704997970645
 20
251.73102304700822
 30
0.0
 10
103.49304281824811
 20
251.3240373699249
 30
0.0
 10
103.72403565678978
 20
251.23604095065406
 30
0.0
  0
SPLINE
  5
1F8
330
17
100
AcDbEntity
  8
ENGRAVE
100
AcDbSpline
 70
0
 71
2
 72
6
 73
3
 74
0
 40
0.0
 40
0.0
 40
0.0
 40
1.0
 40
1.0
 40
1.0
 10
104.31804281824812
 20
250.49903736992488
 30
0.0
 10
104.08704997970645
 20
250.34503020846654
 30
0.0
 10
103.82304281824811
 20
250.3120337891957
 30
0.0
  0
SPLINE
  5
1F9
330
17
100
AcDbEntity
  8
ENGRAVE
100
AcDbSpline
 70
0
 71
2
 72
6
 73
3
 74
0
 40
0.0
 40
0.0
 40
0.0
 40
1.0
 40
1.0
 40
1.0
 10
104.53804281824812
 20
253.23804453138322
 30
0.0
 10
104.20804281824812
 20
252.96304453138322
 30
0.0
 10
103.92754639897728
 20
252.6055445313832
 30
0.0
  0
SPLINE
  5
1FA
330
17
100
AcDbEntity
  8
ENGRAVE
100
AcDbSpline
 70
0
 71
2
 72
6
 73
3
 74
0
 40
0.0
 40
0.0
 40
0.0
 40
1.0
 40
1.0
 40
1.0
 10
103.63605714116478
 20
253.76602304700822
 30
0.0
 10
103.91105714116479
 20
253.99701588554987
 30
0.0
 10
104.14754639897728
 20
254.14003020846656
 30
0.0
  0
SPLINE
  5
1FB
330
17
100
AcDbEntity
  8
ENGRAVE
100
AcDbSpline
 70
0
 71
2
 72
6
 73
3
 74
0
 40
0.0
 40
0.0
 40
0.0
 40
1.0
 40
1.0
 40
1.0
 10
104.90103923751894
 20
250.9060230470082
 30
0.0
 10
104.63704997970645
 20
250.6860230470082
 30
0.0
 10
104.31804281824812
 20
250.49903736992488
 30
0.0
  0
SPLINE
  5
1FC
330
17
100
AcDbEntity
  8
ENGRAVE
100
AcDbSpline
 70
0
 71
2
 72
6
 73
3
 74
0
 40
0.0
 40
0.0
 40
0.0
 40
1.0
 40
1.0
 40
1.0
 10
103.72403565678978
 20
251.23604095065406
 30
0.0
 10
103.95502849533145
 20
251.14804453138322
 30
0.0
 10
104.42804281824812
 20
251.59903736992487
 30
0.0
  0
SPLINE
  5
1FD
330
17
100
AcDbEntity
  8
ENGRAVE
100
AcDbSpline
 70
0
 71
2
 72
6
 73
3
 74
0
 40
0.0
 40
0.0
 40
0.0
 40
1.0
 40
1.0
 40
1.0
 10
104.79103923751894
 20
253.3865373699249
 30
0.0
 10
104.69204997970645
 20
253.3480445313832
 30
0.0
 10
104.53804281824812
 20
253.23804453138322
 30
0.0
  0
SPLINE
  5
1FE
330
17
100
AcDbEntity
  8
ENGRAVE
100
AcDbSpline
 70
0
 71
2
 72
6
 73
3
 74
0
 40
0.0
 40
0.0
 40
0.0
 40
1.0
 40
1.0
 40
1.0
 10
104.14754639897728
 20
254.14003020846656
 30
0.0
 10
104.38403565678978
 20
254.2830445313832
 30
0.0
 10
104.62605714116478
 20
254.33804453138322
 30
0.0
  0
SPLINE
  5
1FF
330
17
100
AcDbEntity
  8
ENGRAVE
100
AcDbSpline
 70
0
 71
2
 72
6
 73
3
 74
0
 40
0.0
 40
0.0
 40
0.0
 40
1.0
 40
1.0
 40
1.0
 10
104.42804281824812
 20
251.59903736992487
 30
0.0
 10
104.67002849533145
 20
251.80804453138322
 30
0.0
 10
104.77453207606062
 20
252.06104095065405
 30
0.0
  0
SPLINE
  5
200
330
17
100
AcDbEntity
  8
ENGRAVE
100
AcDbSpline
 70
0
 71
2
 72
6
 73
3
 74
0
 40
0.0
 40
0.0
 40
0.0
 40
1.0
 40
1.0
 40
1.0
 10
104.98903565678978
 20
253.3480445313832
 30
0.0
 10
104.89002849533145
 20
253.42503020846655
 30
0.0
 10
104.79103923751894
 20
253.3865373699249
 30
0.0
  0
SPLINE
  5
201
330
17
100
AcDbEntity
  8
ENGRAVE
100
AcDbSpline
 70
0
 71
2
 72
6
 73
3
 74
0
 40
0.0
 40
0.0
 40
0.0
 40
1.0
 40
1.0
 40
1.0
 10
105.44002849533145
 20
251.52201588554988
 30
0.0
 10
105.16502849533146
 20
251.1260230470082
 30
0.0
 10
104.90103923751894
 20
250.9060230470082
 30
0.0
  0
SPLINE
  5
202
330
17
100
AcDbEntity
  8
ENGRAVE
100
AcDbSpline
 70
0
 71
2
 72
6
 73
3
 74
0
 40
0.0
 40
0.0
 40
0.0
 40
1.0
 40
1.0
 40
1.0
 10
105.06603923751895
 20
253.17753020846655
 30
0.0
 10
105.05502849533146
 20
253.32602304700822
 30
0.0
 10
104.98903565678978
 20
253.3480445313832
 30
0.0
  0
SPLINE
  5
203
330
17
100
AcDbEntity
  8
ENGRAVE
100
AcDbSpline
 70
0
 71
2
 72
6
 73
3
 74
0
 40
0.0
 40
0.0
 40
0.0
 40
1.0
 40
1.0
 40
1.0
 10
104.77453207606062
 20
252.06104095065405
 30
0.0
 10
104.87903565678978
 20
252.31403736992488
 30
0.0
 10
105.00002849533145
 20
252.65503020846654
 30
0.0
  0
SPLINE
  5
204
330
17
100
AcDbEntity
  8
ENGRAVE
100
AcDbSpline
 70
0
 71
2
 72
6
 73
3
 74
0
 40
0.0
 40
0.0
 40
0.0
 40
1.0
 40
1.0
 40
1.0
 10
105.00002849533145
 20
252.65503020846654
 30
0.0
 10
105.04403565678979
 20
252.7210230470082
 30
0.0
 10
105.06054281824812
 20
252.87503020846654
 30
0.0
  0
SPLINE
  5
205
330
17
100
AcDbEntity
  8
ENGRAVE
100
AcDbSpline
 70
0
 71
2
 72
6
 73
3
 74
0
 40
0.0
 40
0.0
 40
0.0
 40
1.0
 40
1.0
 40
1.0
 10
105.06054281824812
 20
252.87503020846654
 30
0.0
 10
105.07704997970644
 20
253.02903736992488
 30
0.0
 10
105.06603923751895
 20
253.17753020846655
 30
0.0
  0
SPLINE
  5
206
330
17
100
AcDbEntity
  8
ENGRAVE
100
AcDbSpline
 70
0
 71
2
 72
6
 73
3
 74
0
 40
0.0
 40
0.0
 40
0.0
 40
1.0
 40
1.0
 40
1.0
 10
104.62605714116478
 20
254.33804453138322
 30
0.0
 10
104.86804281824811
 20
254.39304453138323
 30
0.0
 10
105.12653565678978
 20
254.39304453138323
 30
0.0
  0
SPLINE
  5
207
330
17
100
AcDbEntity
  8
ENGRAVE
100
AcDbSpline
 70
0
 71
2
 72
6
 73
3
 74
0
 40
0.0
 40
0.0
 40
0.0
 40
1.0
 40
1.0
 40
1.0
 10
105.97903565678979
 20
252.62753020846654
 30
0.0
 10
105.88002849533144
 20
252.14903736992488
 30
0.0
 10
105.44002849533145
 20
251.52201588554988
 30
0.0
  0
SPLINE
  5
208
330
17
100
AcDbEntity
  8
ENGRAVE
100
AcDbSpline
 70
0
 71
2
 72
6
 73
3
 74
0
 40
0.0
 40
0.0
 40
0.0
 40
1.0
 40
1.0
 40
1.0
 10
105.12653565678978
 20
254.39304453138323
 30
0.0
 10
105.38502849533145
 20
254.39304453138323
 30
0.0
 10
105.55002849533145
 20
254.21701588554987
 30
0.0
  0
SPLINE
  5
209
330
17
100
AcDbEntity
  8
ENGRAVE
100
AcDbSpline
 70
0
 71
2
 72
6
 73
3
 74
0
 40
0.0
 40
0.0
 40
0.0
 40
1.0
 40
1.0
 40
1.0
 10
105.55002849533145
 20
254.21701588554987
 30
0.0
 10
105.80304281824812
 20
254.10701588554988
 30
0.0
 10
105.90754639897729
 20
253.92003020846656
 30
0.0
  0
SPLINE
  5
20A
330
17
100
AcDbEntity
  8
ENGRAVE
100
AcDbSpline
 70
0
 71
2
 72
6
 73
3
 74
0
 40
0.0
 40
0.0
 40
0.0
 40
1.0
 40
1.0
 40
1.0
 10
106.04502849533145
 20
253.4360230470082
 30
0.0
 10
106.07804281824812
 20
253.10602304700822
 30
0.0
 10
105.97903565678979
 20
252.62753020846654
 30
0.0
  0
SPLINE
  5
20B
330
17
100
AcDbEntity
  8
ENGRAVE
100
AcDbSpline
 70
0
 71
2
 72
6
 73
3
 74
0
 40
0.0
 40
0.0
 40
0.0
 40
1.0
 40
1.0
 40
1.0
 10
105.90754639897729
 20
253.92003020846656
 30
0.0
 10
106.01204997970645
 20
253.7330445313832
 30
0.0
 10
106.04502849533145
 20
253.4360230470082
 30
0.0
  0
SPLINE
  5
20C
330
17
100
AcDbEntity
  8
ENGRAVE
100
AcDbSpline
 70
0
 71
2
 72
6
 73
3
 74
0
 40
0.0
 40
0.0
 40
0.0
 40
1.0
 40
1.0
 40
1.0
 10
106.59502849533145
 20
250.9610230470082
 30
0.0
 10
106.55102133387311
 20
250.99403736992488
 30
0.0
 10
106.54552491460228
 20
251.25253020846654
 30
0.0
  0
SPLINE
  5
20D
330
17
100
AcDbEntity
  8
ENGRAVE
100
AcDbSpline
 70
0
 71
2
 72
6
 73
3
 74
0
 40
0.0
 40
0.0
 40
0.0
 40
1.0
 40
1.0
 40
1.0
 10
106.54552491460228
 20
251.25253020846654
 30
0.0
 10
106.54002849533144
 20
251.51102304700822
 30
0.0
 10
106.57302491460229
 20
251.83003020846655
 30
0.0
  0
SPLINE
  5
20E
330
17
100
AcDbEntity
  8
ENGRAVE
100
AcDbSpline
 70
0
 71
2
 72
6
 73
3
 74
0
 40
0.0
 40
0.0
 40
0.0
 40
1.0
 40
1.0
 40
1.0
 10
106.62252849533145
 20
250.92802662773738
 30
0.0
 10
106.59502849533145
 20
250.9610230470082
 30
0.0
 10
106.59502849533145
 20
250.9610230470082
 30
0.0
  0
SPLINE
  5
20F
330
17
100
AcDbEntity
  8
ENGRAVE
100
AcDbSpline
 70
0
 71
2
 72
6
 73
3
 74
0
 40
0.0
 40
0.0
 40
0.0
 40
1.0
 40
1.0
 40
1.0
 10
106.65002849533144
 20
250.87304453138321
 30
0.0
 10
106.65002849533144
 20
250.89503020846655
 30
0.0
 10
106.62252849533145
 20
250.92802662773738
 30
0.0
  0
SPLINE
  5
210
330
17
100
AcDbEntity
  8
ENGRAVE
100
AcDbSpline
 70
0
 71
2
 72
6
 73
3
 74
0
 40
0.0
 40
0.0
 40
0.0
 40
1.0
 40
1.0
 40
1.0
 10
106.79853923751895
 20
250.60354095065404
 30
0.0
 10
106.68304281824811
 20
250.7630445313832
 30
0.0
 10
106.65002849533144
 20
250.87304453138321
 30
0.0
  0
SPLINE
  5
211
330
17
100
AcDbEntity
  8
ENGRAVE
100
AcDbSpline
 70
0
 71
2
 72
6
 73
3
 74
0
 40
0.0
 40
0.0
 40
0.0
 40
1.0
 40
1.0
 40
1.0
 10
106.57302491460229
 20
251.83003020846655
 30
0.0
 10
106.60602133387312
 20
252.14903736992488
 30
0.0
 10
106.65002849533144
 20
252.3360230470082
 30
0.0
  0
SPLINE
  5
212
330
17
100
AcDbEntity
  8
ENGRAVE
100
AcDbSpline
 70
0
 71
2
 72
6
 73
3
 74
0
 40
0.0
 40
0.0
 40
0.0
 40
1.0
 40
1.0
 40
1.0
 10
106.73252849533145
 20
254.20602304700822
 30
0.0
 10
106.68304281824811
 20
254.27201588554988
 30
0.0
 10
106.68304281824811
 20
254.3160230470082
 30
0.0
  0
SPLINE
  5
213
330
17
100
AcDbEntity
  8
ENGRAVE
100
AcDbSpline
 70
0
 71
2
 72
6
 73
3
 74
0
 40
0.0
 40
0.0
 40
0.0
 40
1.0
 40
1.0
 40
1.0
 10
106.85903565678979
 20
254.11804453138322
 30
0.0
 10
106.78201417241478
 20
254.14003020846656
 30
0.0
 10
106.73252849533145
 20
254.20602304700822
 30
0.0
  0
SPLINE
  5
214
330
17
100
AcDbEntity
  8
ENGRAVE
100
AcDbSpline
 70
0
 71
2
 72
6
 73
3
 74
0
 40
0.0
 40
0.0
 40
0.0
 40
1.0
 40
1.0
 40
1.0
 10
106.68304281824811
 20
254.3160230470082
 30
0.0
 10
106.68304281824811
 20
254.40403736992488
 30
0.0
 10
106.78203207606062
 20
254.56903736992487
 30
0.0
  0
SPLINE
  5
215
330
17
100
AcDbEntity
  8
ENGRAVE
100
AcDbSpline
 70
0
 71
2
 72
6
 73
3
 74
0
 40
0.0
 40
0.0
 40
0.0
 40
1.0
 40
1.0
 40
1.0
 10
107.05703207606061
 20
250.31753020846654
 30
0.0
 10
106.91403565678978
 20
250.44403736992487
 30
0.0
 10
106.79853923751895
 20
250.60354095065404
 30
0.0
  0
SPLINE
  5
216
330
17
100
AcDbEntity
  8
ENGRAVE
100
AcDbSpline
 70
0
 71
2
 72
6
 73
3
 74
0
 40
0.0
 40
0.0
 40
0.0
 40
1.0
 40
1.0
 40
1.0
 10
106.65002849533144
 20
252.3360230470082
 30
0.0
 10
106.70502849533145
 20
252.51201588554989
 30
0.0
 10
106.81502849533145
 20
252.8145158855499
 30
0.0
  0
SPLINE
  5
217
330
17
100
AcDbEntity
  8
ENGRAVE
100
AcDbSpline
 70
0
 71
2
 72
6
 73
3
 74
0
 40
0.0
 40
0.0
 40
0.0
 40
1.0
 40
1.0
 40
1.0
 10
106.78203207606062
 20
254.56903736992487
 30
0.0
 10
106.88102133387311
 20
254.7340373699249
 30
0.0
 10
106.92502849533145
 20
254.7340373699249
 30
0.0
  0
SPLINE
  5
218
330
17
100
AcDbEntity
  8
ENGRAVE
100
AcDbSpline
 70
0
 71
2
 72
6
 73
3
 74
0
 40
0.0
 40
0.0
 40
0.0
 40
1.0
 40
1.0
 40
1.0
 10
106.81502849533145
 20
252.8145158855499
 30
0.0
 10
106.92502849533145
 20
253.11701588554988
 30
0.0
 10
107.00201417241477
 20
253.3590373699249
 30
0.0
  0
SPLINE
  5
219
330
17
100
AcDbEntity
  8
ENGRAVE
100
AcDbSpline
 70
0
 71
2
 72
6
 73
3
 74
0
 40
0.0
 40
0.0
 40
0.0
 40
1.0
 40
1.0
 40
1.0
 10
107.32102133387312
 20
250.1690373699249
 30
0.0
 10
107.20002849533145
 20
250.1910230470082
 30
0.0
 10
107.05703207606061
 20
250.31753020846654
 30
0.0
  0
SPLINE
  5
21A
330
17
100
AcDbEntity
  8
ENGRAVE
100
AcDbSpline
 70
0
 71
2
 72
6
 73
3
 74
0
 40
0.0
 40
0.0
 40
0.0
 40
1.0
 40
1.0
 40
1.0
 10
106.92502849533145
 20
254.7340373699249
 30
0.0
 10
106.98002849533145
 20
254.7230445313832
 30
0.0
 10
107.12852133387311
 20
254.7230445313832
 30
0.0
  0
SPLINE
  5
21B
330
17
100
AcDbEntity
  8
ENGRAVE
100
AcDbSpline
 70
0
 71
2
 72
6
 73
3
 74
0
 40
0.0
 40
0.0
 40
0.0
 40
1.0
 40
1.0
 40
1.0
 10
108.10201417241478
 20
250.18003020846655
 30
0.0
 10
107.60701417241478
 20
250.1140373699249
 30
0.0
 10
107.32102133387312
 20
250.1690373699249
 30
0.0
  0
SPLINE
  5
21C
330
17
100
AcDbEntity
  8
ENGRAVE
100
AcDbSpline
 70
0
 71
2
 72
6
 73
3
 74
0
 40
0.0
 40
0.0
 40
0.0
 40
1.0
 40
1.0
 40
1.0
 10
107.60151775314395
 20
252.29753020846655
 30
0.0
 10
107.49701417241478
 20
251.87403736992488
 30
0.0
 10
107.42002849533145
 20
251.45602304700822
 30
0.0
  0
SPLINE
  5
21D
330
17
100
AcDbEntity
  8
ENGRAVE
100
AcDbSpline
 70
0
 71
2
 72
6
 73
3
 74
0
 40
0.0
 40
0.0
 40
0.0
 40
1.0
 40
1.0
 40
1.0
 10
107.12852133387311
 20
254.7230445313832
 30
0.0
 10
107.27701417241478
 20
254.7230445313832
 30
0.0
 10
107.42002849533145
 20
254.7340373699249
 30
0.0
  0
SPLINE
  5
21E
330
17
100
AcDbEntity
  8
ENGRAVE
100
AcDbSpline
 70
0
 71
2
 72
6
 73
3
 74
0
 40
0.0
 40
0.0
 40
0.0
 40
1.0
 40
1.0
 40
1.0
 10
107.42002849533145
 20
251.45602304700822
 30
0.0
 10
107.38701417241478
 20
251.24701588554987
 30
0.0
 10
107.43651775314395
 20
251.1535230470082
 30
0.0
  0
SPLINE
  5
21F
330
17
100
AcDbEntity
  8
ENGRAVE
100
AcDbSpline
 70
0
 71
2
 72
6
 73
3
 74
0
 40
0.0
 40
0.0
 40
0.0
 40
1.0
 40
1.0
 40
1.0
 10
107.42002849533145
 20
254.7340373699249
 30
0.0
 10
107.5630428182481
 20
254.74503020846655
 30
0.0
 10
107.59602133387311
 20
254.75602304700823
 30
0.0
  0
SPLINE
  5
220
330
17
100
AcDbEntity
  8
ENGRAVE
100
AcDbSpline
 70
0
 71
2
 72
6
 73
3
 74
0
 40
0.0
 40
0.0
 40
0.0
 40
1.0
 40
1.0
 40
1.0
 10
107.86002849533145
 20
253.18304453138322
 30
0.0
 10
107.70602133387311
 20
252.7210230470082
 30
0.0
 10
107.60151775314395
 20
252.29753020846655
 30
0.0
  0
SPLINE
  5
221
330
17
100
AcDbEntity
  8
ENGRAVE
100
AcDbSpline
 70
0
 71
2
 72
6
 73
3
 74
0
 40
0.0
 40
0.0
 40
0.0
 40
1.0
 40
1.0
 40
1.0
 10
107.59602133387311
 20
254.75602304700823
 30
0.0
 10
107.64002849533145
 20
254.77804453138322
 30
0.0
 10
107.68403565678977
 20
254.81653736992487
 30
0.0
  0
SPLINE
  5
222
330
17
100
AcDbEntity
  8
ENGRAVE
100
AcDbSpline
 70
0
 71
2
 72
6
 73
3
 74
0
 40
0.0
 40
0.0
 40
0.0
 40
1.0
 40
1.0
 40
1.0
 10
107.43651775314395
 20
251.1535230470082
 30
0.0
 10
107.48602133387311
 20
251.06003020846654
 30
0.0
 10
107.71701417241478
 20
251.0380445313832
 30
0.0
  0
SPLINE
  5
223
330
17
100
AcDbEntity
  8
ENGRAVE
100
AcDbSpline
 70
0
 71
2
 72
6
 73
3
 74
0
 40
0.0
 40
0.0
 40
0.0
 40
1.0
 40
1.0
 40
1.0
 10
107.68403565678977
 20
254.81653736992487
 30
0.0
 10
107.72804281824811
 20
254.85503020846656
 30
0.0
 10
107.75002849533145
 20
254.93201588554987
 30
0.0
  0
SPLINE
  5
224
330
17
100
AcDbEntity
  8
ENGRAVE
100
AcDbSpline
 70
0
 71
2
 72
6
 73
3
 74
0
 40
0.0
 40
0.0
 40
0.0
 40
1.0
 40
1.0
 40
1.0
 10
107.75002849533145
 20
254.93201588554987
 30
0.0
 10
107.80502849533144
 20
255.05304453138322
 30
0.0
 10
107.84903565678978
 20
255.11903736992488
 30
0.0
  0
SPLINE
  5
225
330
17
100
AcDbEntity
  8
ENGRAVE
100
AcDbSpline
 70
0
 71
2
 72
6
 73
3
 74
0
 40
0.0
 40
0.0
 40
0.0
 40
1.0
 40
1.0
 40
1.0
 10
108.08002849533145
 20
253.59003020846654
 30
0.0
 10
107.99201417241478
 20
253.40304453138322
 30
0.0
 10
107.86002849533145
 20
253.18304453138322
 30
0.0
  0
SPLINE
  5
226
330
17
100
AcDbEntity
  8
ENGRAVE
100
AcDbSpline
 70
0
 71
2
 72
6
 73
3
 74
0
 40
0.0
 40
0.0
 40
0.0
 40
1.0
 40
1.0
 40
1.0
 10
107.84903565678978
 20
255.11903736992488
 30
0.0
 10
107.89304281824812
 20
255.18503020846654
 30
0.0
 10
107.97002849533145
 20
255.3170158855499
 30
0.0
  0
SPLINE
  5
227
330
17
100
AcDbEntity
  8
ENGRAVE
100
AcDbSpline
 70
0
 71
2
 72
6
 73
3
 74
0
 40
0.0
 40
0.0
 40
0.0
 40
1.0
 40
1.0
 40
1.0
 10
107.71701417241478
 20
251.0380445313832
 30
0.0
 10
107.83804281824811
 20
251.02701588554987
 30
0.0
 10
108.06903565678978
 20
251.04352304700822
 30
0.0
  0
SPLINE
  5
228
330
17
100
AcDbEntity
  8
ENGRAVE
100
AcDbSpline
 70
0
 71
2
 72
6
 73
3
 74
0
 40
0.0
 40
0.0
 40
0.0
 40
1.0
 40
1.0
 40
1.0
 10
108.21201417241478
 20
253.82102304700823
 30
0.0
 10
108.16804281824811
 20
253.77701588554987
 30
0.0
 10
108.08002849533145
 20
253.59003020846654
 30
0.0
  0
SPLINE
  5
229
330
17
100
AcDbEntity
  8
ENGRAVE
100
AcDbSpline
 70
0
 71
2
 72
6
 73
3
 74
0
 40
0.0
 40
0.0
 40
0.0
 40
1.0
 40
1.0
 40
1.0
 10
107.97002849533145
 20
255.3170158855499
 30
0.0
 10
108.04701417241478
 20
255.46003020846655
 30
0.0
 10
108.09651775314394
 20
255.55903736992488
 30
0.0
  0
SPLINE
  5
22A
330
17
100
AcDbEntity
  8
ENGRAVE
100
AcDbSpline
 70
0
 71
2
 72
6
 73
3
 74
0
 40
0.0
 40
0.0
 40
0.0
 40
1.0
 40
1.0
 40
1.0
 10
109.09201417241478
 20
250.55403736992488
 30
0.0
 10
108.59701417241477
 20
250.2460230470082
 30
0.0
 10
108.10201417241478
 20
250.18003020846655
 30
0.0
  0
SPLINE
  5
22B
330
17
100
AcDbEntity
  8
ENGRAVE
100
AcDbSpline
 70
0
 71
2
 72
6
 73
3
 74
0
 40
0.0
 40
0.0
 40
0.0
 40
1.0
 40
1.0
 40
1.0
 10
108.29453207606062
 20
253.95854095065405
 30
0.0
 10
108.25602133387311
 20
253.90903736992487
 30
0.0
 10
108.21201417241478
 20
253.82102304700823
 30
0.0
  0
SPLINE
  5
22C
330
17
100
AcDbEntity
  8
ENGRAVE
100
AcDbSpline
 70
0
 71
2
 72
6
 73
3
 74
0
 40
0.0
 40
0.0
 40
0.0
 40
1.0
 40
1.0
 40
1.0
 10
108.09651775314394
 20
255.55903736992488
 30
0.0
 10
108.14602133387311
 20
255.6580445313832
 30
0.0
 10
108.25602133387311
 20
255.83403736992489
 30
0.0
  0
SPLINE
  5
22D
330
17
100
AcDbEntity
  8
ENGRAVE
100
AcDbSpline
 70
0
 71
2
 72
6
 73
3
 74
0
 40
0.0
 40
0.0
 40
0.0
 40
1.0
 40
1.0
 40
1.0
 10
108.42102133387311
 20
254.03003020846654
 30
0.0
 10
108.33304281824812
 20
254.0080445313832
 30
0.0
 10
108.29453207606062
 20
253.95854095065405
 30
0.0
  0
SPLINE
  5
22E
330
17
100
AcDbEntity
  8
ENGRAVE
100
AcDbSpline
 70
0
 71
2
 72
6
 73
3
 74
0
 40
0.0
 40
0.0
 40
0.0
 40
1.0
 40
1.0
 40
1.0
 10
108.25602133387311
 20
255.83403736992489
 30
0.0
 10
108.31102133387311
 20
255.9110230470082
 30
0.0
 10
108.37703207606062
 20
256.0210230470082
 30
0.0
  0
SPLINE
  5
22F
330
17
100
AcDbEntity
  8
ENGRAVE
100
AcDbSpline
 70
0
 71
2
 72
6
 73
3
 74
0
 40
0.0
 40
0.0
 40
0.0
 40
1.0
 40
1.0
 40
1.0
 10
108.55302491460228
 20
254.05201588554988
 30
0.0
 10
108.50903565678978
 20
254.05201588554988
 30
0.0
 10
108.42102133387311
 20
254.03003020846654
 30
0.0
  0
SPLINE
  5
230
330
17
100
AcDbEntity
  8
ENGRAVE
100
AcDbSpline
 70
0
 71
2
 72
6
 73
3
 74
0
 40
0.0
 40
0.0
 40
0.0
 40
1.0
 40
1.0
 40
1.0
 10
108.06903565678978
 20
251.04352304700822
 30
0.0
 10
108.30002849533145
 20
251.06003020846654
 30
0.0
 10
108.45403565678978
 20
251.10403736992487
 30
0.0
  0
SPLINE
  5
231
330
17
100
AcDbEntity
  8
ENGRAVE
100
AcDbSpline
 70
0
 71
2
 72
6
 73
3
 74
0
 40
0.0
 40
0.0
 40
0.0
 40
1.0
 40
1.0
 40
1.0
 10
108.37703207606062
 20
256.0210230470082
 30
0.0
 10
108.44304281824812
 20
256.1310230470082
 30
0.0
 10
108.54201417241478
 20
256.2080445313832
 30
0.0
  0
SPLINE
  5
232
330
17
100
AcDbEntity
  8
ENGRAVE
100
AcDbSpline
 70
0
 71
2
 72
6
 73
3
 74
0
 40
0.0
 40
0.0
 40
0.0
 40
1.0
 40
1.0
 40
1.0
 10
108.74002849533144
 20
254.0630445313832
 30
0.0
 10
108.59701417241477
 20
254.05201588554988
 30
0.0
 10
108.55302491460228
 20
254.05201588554988
 30
0.0
  0
SPLINE
  5
233
330
17
100
AcDbEntity
  8
ENGRAVE
100
AcDbSpline
 70
0
 71
2
 72
6
 73
3
 74
0
 40
0.0
 40
0.0
 40
0.0
 40
1.0
 40
1.0
 40
1.0
 10
108.45403565678978
 20
251.10403736992487
 30
0.0
 10
108.57502849533145
 20
251.15903736992487
 30
0.0
 10
108.70703207606061
 20
251.2195337891957
 30
0.0
  0
SPLINE
  5
234
330
17
100
AcDbEntity
  8
ENGRAVE
100
AcDbSpline
 70
0
 71
2
 72
6
 73
3
 74
0
 40
0.0
 40
0.0
 40
0.0
 40
1.0
 40
1.0
 40
1.0
 10
109.01502849533145
 20
254.06854095065404
 30
0.0
 10
108.82804281824811
 20
254.0630445313832
 30
0.0
 10
108.74002849533144
 20
254.0630445313832
 30
0.0
  0
SPLINE
  5
235
330
17
100
AcDbEntity
  8
ENGRAVE
100
AcDbSpline
 70
0
 71
2
 72
6
 73
3
 74
0
 40
0.0
 40
0.0
 40
0.0
 40
1.0
 40
1.0
 40
1.0
 10
108.85002849533144
 20
255.0970158855499
 30
0.0
 10
108.67403565678978
 20
254.85503020846656
 30
0.0
 10
108.78403565678978
 20
254.8220337891957
 30
0.0
  0
SPLINE
  5
236
330
17
100
AcDbEntity
  8
ENGRAVE
100
AcDbSpline
 70
0
 71
2
 72
6
 73
3
 74
0
 40
0.0
 40
0.0
 40
0.0
 40
1.0
 40
1.0
 40
1.0
 10
109.06453207606062
 20
255.43253020846655
 30
0.0
 10
108.94903565678977
 20
255.28403736992487
 30
0.0
 10
108.85002849533144
 20
255.0970158855499
 30
0.0
  0
SPLINE
  5
237
330
17
100
AcDbEntity
  8
ENGRAVE
100
AcDbSpline
 70
0
 71
2
 72
6
 73
3
 74
0
 40
0.0
 40
0.0
 40
0.0
 40
1.0
 40
1.0
 40
1.0
 10
108.54201417241478
 20
256.2080445313832
 30
0.0
 10
108.64102133387311
 20
256.2960230470082
 30
0.0
 10
108.86651775314395
 20
256.3345337891957
 30
0.0
  0
SPLINE
  5
238
330
17
100
AcDbEntity
  8
ENGRAVE
100
AcDbSpline
 70
0
 71
2
 72
6
 73
3
 74
0
 40
0.0
 40
0.0
 40
0.0
 40
1.0
 40
1.0
 40
1.0
 10
108.70703207606061
 20
251.2195337891957
 30
0.0
 10
108.83903565678978
 20
251.28003020846654
 30
0.0
 10
108.94903565678977
 20
251.3460230470082
 30
0.0
  0
SPLINE
  5
239
330
17
100
AcDbEntity
  8
ENGRAVE
100
AcDbSpline
 70
0
 71
2
 72
6
 73
3
 74
0
 40
0.0
 40
0.0
 40
0.0
 40
1.0
 40
1.0
 40
1.0
 10
109.46602133387312
 20
254.11804453138322
 30
0.0
 10
109.20201417241478
 20
254.0740373699249
 30
0.0
 10
109.01502849533145
 20
254.06854095065404
 30
0.0
  0
SPLINE
  5
23A
330
17
100
AcDbEntity
  8
ENGRAVE
100
AcDbSpline
 70
0
 71
2
 72
6
 73
3
 74
0
 40
0.0
 40
0.0
 40
0.0
 40
1.0
 40
1.0
 40
1.0
 10
109.26804281824812
 20
255.76804453138323
 30
0.0
 10
109.18002849533144
 20
255.58102304700822
 30
0.0
 10
109.06453207606062
 20
255.43253020846655
 30
0.0
  0
SPLINE
  5
23B
330
17
100
AcDbEntity
  8
ENGRAVE
100
AcDbSpline
 70
0
 71
2
 72
6
 73
3
 74
0
 40
0.0
 40
0.0
 40
0.0
 40
1.0
 40
1.0
 40
1.0
 10
109.49903565678979
 20
250.9335230470082
 30
0.0
 10
109.44403565678978
 20
250.7520158855499
 30
0.0
 10
109.09201417241478
 20
250.55403736992488
 30
0.0
  0
SPLINE
  5
23C
330
17
100
AcDbEntity
  8
ENGRAVE
100
AcDbSpline
 70
0
 71
2
 72
6
 73
3
 74
0
 40
0.0
 40
0.0
 40
0.0
 40
1.0
 40
1.0
 40
1.0
 10
108.94903565678977
 20
251.3460230470082
 30
0.0
 10
109.04804281824812
 20
251.4010230470082
 30
0.0
 10
109.14703207606061
 20
251.46151946627904
 30
0.0
  0
SPLINE
  5
23D
330
17
100
AcDbEntity
  8
ENGRAVE
100
AcDbSpline
 70
0
 71
2
 72
6
 73
3
 74
0
 40
0.0
 40
0.0
 40
0.0
 40
1.0
 40
1.0
 40
1.0
 10
109.14703207606061
 20
251.46151946627904
 30
0.0
 10
109.24602133387312
 20
251.52201588554988
 30
0.0
 10
109.24602133387312
 20
251.52201588554988
 30
0.0
  0
SPLINE
  5
23E
330
17
100
AcDbEntity
  8
ENGRAVE
100
AcDbSpline
 70
0
 71
2
 72
6
 73
3
 74
0
 40
0.0
 40
0.0
 40
0.0
 40
1.0
 40
1.0
 40
1.0
 10
108.86651775314395
 20
256.3345337891957
 30
0.0
 10
109.09201417241478
 20
256.3730445313832
 30
0.0
 10
109.25701417241478
 20
256.23003020846653
 30
0.0
  0
SPLINE
  5
23F
330
17
100
AcDbEntity
  8
ENGRAVE
100
AcDbSpline
 70
0
 71
2
 72
6
 73
3
 74
0
 40
0.0
 40
0.0
 40
0.0
 40
1.0
 40
1.0
 40
1.0
 10
109.35602133387312
 20
256.0210230470082
 30
0.0
 10
109.36701417241478
 20
255.92201588554988
 30
0.0
 10
109.26804281824812
 20
255.76804453138323
 30
0.0
  0
SPLINE
  5
240
330
17
100
AcDbEntity
  8
ENGRAVE
100
AcDbSpline
 70
0
 71
2
 72
6
 73
3
 74
0
 40
0.0
 40
0.0
 40
0.0
 40
1.0
 40
1.0
 40
1.0
 10
109.25701417241478
 20
256.23003020846653
 30
0.0
 10
109.34502849533145
 20
256.1200302084666
 30
0.0
 10
109.35602133387312
 20
256.0210230470082
 30
0.0
  0
SPLINE
  5
241
330
17
100
AcDbEntity
  8
ENGRAVE
100
AcDbSpline
 70
0
 71
2
 72
6
 73
3
 74
0
 40
0.0
 40
0.0
 40
0.0
 40
1.0
 40
1.0
 40
1.0
 10
108.78403565678978
 20
254.8220337891957
 30
0.0
 10
108.89403565678978
 20
254.78903736992487
 30
0.0
 10
109.40002849533144
 20
254.8660230470082
 30
0.0
  0
SPLINE
  5
242
330
17
100
AcDbEntity
  8
ENGRAVE
100
AcDbSpline
 70
0
 71
2
 72
6
 73
3
 74
0
 40
0.0
 40
0.0
 40
0.0
 40
1.0
 40
1.0
 40
1.0
 10
109.24602133387312
 20
251.52201588554988
 30
0.0
 10
109.30102133387311
 20
251.61003020846655
 30
0.0
 10
109.40552491460228
 20
251.4945337891957
 30
0.0
  0
SPLINE
  5
243
330
17
100
AcDbEntity
  8
ENGRAVE
100
AcDbSpline
 70
0
 71
2
 72
6
 73
3
 74
0
 40
0.0
 40
0.0
 40
0.0
 40
1.0
 40
1.0
 40
1.0
 10
109.97203207606061
 20
254.17304453138323
 30
0.0
 10
109.88403565678978
 20
254.11804453138322
 30
0.0
 10
109.46602133387312
 20
254.11804453138322
 30
0.0
  0
SPLINE
  5
244
330
17
100
AcDbEntity
  8
ENGRAVE
100
AcDbSpline
 70
0
 71
2
 72
6
 73
3
 74
0
 40
0.0
 40
0.0
 40
0.0
 40
1.0
 40
1.0
 40
1.0
 10
109.55403565678978
 20
251.24701588554987
 30
0.0
 10
109.55403565678978
 20
251.11503020846655
 30
0.0
 10
109.49903565678979
 20
250.9335230470082
 30
0.0
  0
SPLINE
  5
245
330
17
100
AcDbEntity
  8
ENGRAVE
100
AcDbSpline
 70
0
 71
2
 72
6
 73
3
 74
0
 40
0.0
 40
0.0
 40
0.0
 40
1.0
 40
1.0
 40
1.0
 10
109.40552491460228
 20
251.4945337891957
 30
0.0
 10
109.51002849533145
 20
251.37903736992487
 30
0.0
 10
109.55403565678978
 20
251.24701588554987
 30
0.0
  0
SPLINE
  5
246
330
17
100
AcDbEntity
  8
ENGRAVE
100
AcDbSpline
 70
0
 71
2
 72
6
 73
3
 74
0
 40
0.0
 40
0.0
 40
0.0
 40
1.0
 40
1.0
 40
1.0
 10
109.40002849533144
 20
254.8660230470082
 30
0.0
 10
109.71903565678979
 20
254.92102304700822
 30
0.0
 10
109.86203207606061
 20
254.80003020846655
 30
0.0
  0
SPLINE
  5
247
330
17
100
AcDbEntity
  8
ENGRAVE
100
AcDbSpline
 70
0
 71
2
 72
6
 73
3
 74
0
 40
0.0
 40
0.0
 40
0.0
 40
1.0
 40
1.0
 40
1.0
 10
110.02701417241478
 20
254.49201588554988
 30
0.0
 10
110.06002849533145
 20
254.2280445313832
 30
0.0
 10
109.97203207606061
 20
254.17304453138323
 30
0.0
  0
SPLINE
  5
248
330
17
100
AcDbEntity
  8
ENGRAVE
100
AcDbSpline
 70
0
 71
2
 72
6
 73
3
 74
0
 40
0.0
 40
0.0
 40
0.0
 40
1.0
 40
1.0
 40
1.0
 10
109.86203207606061
 20
254.80003020846655
 30
0.0
 10
110.00502849533144
 20
254.67903736992488
 30
0.0
 10
110.02701417241478
 20
254.49201588554988
 30
0.0
  0
SPLINE
  5
249
330
17
100
AcDbEntity
  8
ENGRAVE
100
AcDbSpline
 70
0
 71
2
 72
6
 73
3
 74
0
 40
0.0
 40
0.0
 40
0.0
 40
1.0
 40
1.0
 40
1.0
 10
110.26903565678978
 20
250.78503020846654
 30
0.0
 10
110.10403565678978
 20
250.9720158855499
 30
0.0
 10
110.08203207606061
 20
251.12052662773738
 30
0.0
  0
SPLINE
  5
24A
330
17
100
AcDbEntity
  8
ENGRAVE
100
AcDbSpline
 70
0
 71
2
 72
6
 73
3
 74
0
 40
0.0
 40
0.0
 40
0.0
 40
1.0
 40
1.0
 40
1.0
 10
110.08203207606061
 20
251.12052662773738
 30
0.0
 10
110.06002849533144
 20
251.2690373699249
 30
0.0
 10
110.09300701095644
 20
251.52201588554988
 30
0.0
  0
SPLINE
  5
24B
330
17
100
AcDbEntity
  8
ENGRAVE
100
AcDbSpline
 70
0
 71
2
 72
6
 73
3
 74
0
 40
0.0
 40
0.0
 40
0.0
 40
1.0
 40
1.0
 40
1.0
 10
110.09300701095644
 20
251.52201588554988
 30
0.0
 10
110.14800701095645
 20
251.6980445313832
 30
0.0
 10
110.22501059168562
 20
251.99503020846655
 30
0.0
  0
SPLINE
  5
24C
330
17
100
AcDbEntity
  8
ENGRAVE
100
AcDbSpline
 70
0
 71
2
 72
6
 73
3
 74
0
 40
0.0
 40
0.0
 40
0.0
 40
1.0
 40
1.0
 40
1.0
 10
110.43951417241477
 20
250.6585230470082
 30
0.0
 10
110.34602133387311
 20
250.73003020846656
 30
0.0
 10
110.26903565678978
 20
250.78503020846654
 30
0.0
  0
SPLINE
  5
24D
330
17
100
AcDbEntity
  8
ENGRAVE
100
AcDbSpline
 70
0
 71
2
 72
6
 73
3
 74
0
 40
0.0
 40
0.0
 40
0.0
 40
1.0
 40
1.0
 40
1.0
 10
110.22501059168562
 20
251.99503020846655
 30
0.0
 10
110.30201417241477
 20
252.2920158855499
 30
0.0
 10
110.41201417241477
 20
252.6330445313832
 30
0.0
  0
SPLINE
  5
24E
330
17
100
AcDbEntity
  8
ENGRAVE
100
AcDbSpline
 70
0
 71
2
 72
6
 73
3
 74
0
 40
0.0
 40
0.0
 40
0.0
 40
1.0
 40
1.0
 40
1.0
 10
110.61002849533145
 20
250.5980445313832
 30
0.0
 10
110.53300701095644
 20
250.58701588554987
 30
0.0
 10
110.43951417241477
 20
250.6585230470082
 30
0.0
  0
SPLINE
  5
24F
330
17
100
AcDbEntity
  8
ENGRAVE
100
AcDbSpline
 70
0
 71
2
 72
6
 73
3
 74
0
 40
0.0
 40
0.0
 40
0.0
 40
1.0
 40
1.0
 40
1.0
 10
110.41201417241477
 20
252.6330445313832
 30
0.0
 10
110.43403565678977
 20
252.76503020846656
 30
0.0
 10
110.49453207606061
 20
252.94653736992487
 30
0.0
  0
SPLINE
  5
250
330
17
100
AcDbEntity
  8
ENGRAVE
100
AcDbSpline
 70
0
 71
2
 72
6
 73
3
 74
0
 40
0.0
 40
0.0
 40
0.0
 40
1.0
 40
1.0
 40
1.0
 10
110.98401775314395
 20
250.76854095065406
 30
0.0
 10
110.83002849533145
 20
250.6090373699249
 30
0.0
 10
110.61002849533145
 20
250.5980445313832
 30
0.0
  0
SPLINE
  5
251
330
17
100
AcDbEntity
  8
ENGRAVE
100
AcDbSpline
 70
0
 71
2
 72
6
 73
3
 74
0
 40
0.0
 40
0.0
 40
0.0
 40
1.0
 40
1.0
 40
1.0
 10
110.49453207606061
 20
252.94653736992487
 30
0.0
 10
110.55502849533144
 20
253.1280445313832
 30
0.0
 10
110.62102133387312
 20
253.29854095065406
 30
0.0
  0
SPLINE
  5
252
330
17
100
AcDbEntity
  8
ENGRAVE
100
AcDbSpline
 70
0
 71
2
 72
6
 73
3
 74
0
 40
0.0
 40
0.0
 40
0.0
 40
1.0
 40
1.0
 40
1.0
 10
110.62102133387312
 20
253.29854095065406
 30
0.0
 10
110.68701417241478
 20
253.46903736992488
 30
0.0
 10
110.72002849533145
 20
253.55701588554987
 30
0.0
  0
SPLINE
  5
253
330
17
100
AcDbEntity
  8
ENGRAVE
100
AcDbSpline
 70
0
 71
2
 72
6
 73
3
 74
0
 40
0.0
 40
0.0
 40
0.0
 40
1.0
 40
1.0
 40
1.0
 10
110.72002849533145
 20
253.55701588554987
 30
0.0
 10
110.79701417241478
 20
253.83201588554988
 30
0.0
 10
110.87951417241477
 20
254.08503020846655
 30
0.0
  0
SPLINE
  5
254
330
17
100
AcDbEntity
  8
ENGRAVE
100
AcDbSpline
 70
0
 71
2
 72
6
 73
3
 74
0
 40
0.0
 40
0.0
 40
0.0
 40
1.0
 40
1.0
 40
1.0
 10
111.27002849533145
 20
251.0930445313832
 30
0.0
 10
111.13800701095644
 20
250.92804453138322
 30
0.0
 10
110.98401775314395
 20
250.76854095065406
 30
0.0
  0
SPLINE
  5
255
330
17
100
AcDbEntity
  8
ENGRAVE
100
AcDbSpline
 70
0
 71
2
 72
6
 73
3
 74
0
 40
0.0
 40
0.0
 40
0.0
 40
1.0
 40
1.0
 40
1.0
 10
110.87951417241477
 20
254.08503020846655
 30
0.0
 10
110.96201417241478
 20
254.33804453138322
 30
0.0
 10
111.08302491460228
 20
254.6680445313832
 30
0.0
  0
SPLINE
  5
256
330
17
100
AcDbEntity
  8
ENGRAVE
100
AcDbSpline
 70
0
 71
2
 72
6
 73
3
 74
0
 40
0.0
 40
0.0
 40
0.0
 40
1.0
 40
1.0
 40
1.0
 10
111.91901775314395
 20
251.78052662773737
 30
0.0
 10
111.54502849533145
 20
251.44503020846653
 30
0.0
 10
111.27002849533145
 20
251.0930445313832
 30
0.0
  0
SPLINE
  5
257
330
17
100
AcDbEntity
  8
ENGRAVE
100
AcDbSpline
 70
0
 71
2
 72
6
 73
3
 74
0
 40
0.0
 40
0.0
 40
0.0
 40
1.0
 40
1.0
 40
1.0
 10
111.31401775314394
 20
252.46802662773737
 30
0.0
 10
111.29201417241478
 20
252.38003020846654
 30
0.0
 10
111.28102133387311
 20
252.2920158855499
 30
0.0
  0
SPLINE
  5
258
330
17
100
AcDbEntity
  8
ENGRAVE
100
AcDbSpline
 70
0
 71
2
 72
6
 73
3
 74
0
 40
0.0
 40
0.0
 40
0.0
 40
1.0
 40
1.0
 40
1.0
 10
111.34701417241477
 20
252.61102304700822
 30
0.0
 10
111.3360213338731
 20
252.5560230470082
 30
0.0
 10
111.31401775314394
 20
252.46802662773737
 30
0.0
  0
SPLINE
  5
259
330
17
100
AcDbEntity
  8
ENGRAVE
100
AcDbSpline
 70
0
 71
2
 72
6
 73
3
 74
0
 40
0.0
 40
0.0
 40
0.0
 40
1.0
 40
1.0
 40
1.0
 10
111.41302491460227
 20
252.82003020846653
 30
0.0
 10
111.38002849533144
 20
252.6990373699249
 30
0.0
 10
111.34701417241477
 20
252.61102304700822
 30
0.0
  0
SPLINE
  5
25A
330
17
100
AcDbEntity
  8
ENGRAVE
100
AcDbSpline
 70
0
 71
2
 72
6
 73
3
 74
0
 40
0.0
 40
0.0
 40
0.0
 40
1.0
 40
1.0
 40
1.0
 10
111.08302491460228
 20
254.6680445313832
 30
0.0
 10
111.20403565678977
 20
254.99804453138321
 30
0.0
 10
111.38002849533144
 20
255.50403736992487
 30
0.0
  0
SPLINE
  5
25B
330
17
100
AcDbEntity
  8
ENGRAVE
100
AcDbSpline
 70
0
 71
2
 72
6
 73
3
 74
0
 40
0.0
 40
0.0
 40
0.0
 40
1.0
 40
1.0
 40
1.0
 10
111.45701417241477
 20
253.0070158855499
 30
0.0
 10
111.4460213338731
 20
252.9410230470082
 30
0.0
 10
111.41302491460227
 20
252.82003020846653
 30
0.0
  0
SPLINE
  5
25C
330
17
100
AcDbEntity
  8
ENGRAVE
100
AcDbSpline
 70
0
 71
2
 72
6
 73
3
 74
0
 40
0.0
 40
0.0
 40
0.0
 40
1.0
 40
1.0
 40
1.0
 10
111.28102133387311
 20
252.2920158855499
 30
0.0
 10
111.3360213338731
 20
252.3580445313832
 30
0.0
 10
111.43502849533144
 20
252.4515373699249
 30
0.0
  0
SPLINE
  5
25D
330
17
100
AcDbEntity
  8
ENGRAVE
100
AcDbSpline
 70
0
 71
2
 72
6
 73
3
 74
0
 40
0.0
 40
0.0
 40
0.0
 40
1.0
 40
1.0
 40
1.0
 10
111.49552491460227
 20
253.08401946627905
 30
0.0
 10
111.45701417241477
 20
253.0070158855499
 30
0.0
 10
111.45701417241477
 20
253.0070158855499
 30
0.0
  0
SPLINE
  5
25E
330
17
100
AcDbEntity
  8
ENGRAVE
100
AcDbSpline
 70
0
 71
2
 72
6
 73
3
 74
0
 40
0.0
 40
0.0
 40
0.0
 40
1.0
 40
1.0
 40
1.0
 10
111.57800701095644
 20
253.24903736992488
 30
0.0
 10
111.53403565678978
 20
253.1610230470082
 30
0.0
 10
111.49552491460227
 20
253.08401946627905
 30
0.0
  0
SPLINE
  5
25F
330
17
100
AcDbEntity
  8
ENGRAVE
100
AcDbSpline
 70
0
 71
2
 72
6
 73
3
 74
0
 40
0.0
 40
0.0
 40
0.0
 40
1.0
 40
1.0
 40
1.0
 10
111.68251059168561
 20
253.46901946627904
 30
0.0
 10
111.62201417241478
 20
253.33701588554987
 30
0.0
 10
111.57800701095644
 20
253.24903736992488
 30
0.0
  0
SPLINE
  5
260
330
17
100
AcDbEntity
  8
ENGRAVE
100
AcDbSpline
 70
0
 71
2
 72
6
 73
3
 74
0
 40
0.0
 40
0.0
 40
0.0
 40
1.0
 40
1.0
 40
1.0
 10
111.75403565678978
 20
253.6560230470082
 30
0.0
 10
111.74300701095645
 20
253.60102304700823
 30
0.0
 10
111.68251059168561
 20
253.46901946627904
 30
0.0
  0
SPLINE
  5
261
330
17
100
AcDbEntity
  8
ENGRAVE
100
AcDbSpline
 70
0
 71
2
 72
6
 73
3
 74
0
 40
0.0
 40
0.0
 40
0.0
 40
1.0
 40
1.0
 40
1.0
 10
111.43502849533144
 20
252.4515373699249
 30
0.0
 10
111.53403565678978
 20
252.54503020846656
 30
0.0
 10
111.68800701095644
 20
252.6880445313832
 30
0.0
  0
SPLINE
  5
262
330
17
100
AcDbEntity
  8
ENGRAVE
100
AcDbSpline
 70
0
 71
2
 72
6
 73
3
 74
0
 40
0.0
 40
0.0
 40
0.0
 40
1.0
 40
1.0
 40
1.0
 10
111.38002849533144
 20
255.50403736992487
 30
0.0
 10
111.62201417241478
 20
256.16403736992487
 30
0.0
 10
111.74302491460227
 20
256.49403736992485
 30
0.0
  0
SPLINE
  5
263
330
17
100
AcDbEntity
  8
ENGRAVE
100
AcDbSpline
 70
0
 71
2
 72
6
 73
3
 74
0
 40
0.0
 40
0.0
 40
0.0
 40
1.0
 40
1.0
 40
1.0
 10
112.08403565678978
 20
254.54703378919572
 30
0.0
 10
111.91903565678977
 20
254.0630445313832
 30
0.0
 10
111.75403565678978
 20
253.6560230470082
 30
0.0
  0
SPLINE
  5
264
330
17
100
AcDbEntity
  8
ENGRAVE
100
AcDbSpline
 70
0
 71
2
 72
6
 73
3
 74
0
 40
0.0
 40
0.0
 40
0.0
 40
1.0
 40
1.0
 40
1.0
 10
112.63951417241478
 20
252.3360230470082
 30
0.0
 10
112.29300701095644
 20
252.1160230470082
 30
0.0
 10
111.91901775314395
 20
251.78052662773737
 30
0.0
  0
SPLINE
  5
265
330
17
100
AcDbEntity
  8
ENGRAVE
100
AcDbSpline
 70
0
 71
2
 72
6
 73
3
 74
0
 40
0.0
 40
0.0
 40
0.0
 40
1.0
 40
1.0
 40
1.0
 10
111.74302491460227
 20
256.49403736992485
 30
0.0
 10
111.86403565678978
 20
256.8240373699249
 30
0.0
 10
111.91903565678977
 20
256.96703378919574
 30
0.0
  0
SPLINE
  5
266
330
17
100
AcDbEntity
  8
ENGRAVE
100
AcDbSpline
 70
0
 71
2
 72
6
 73
3
 74
0
 40
0.0
 40
0.0
 40
0.0
 40
1.0
 40
1.0
 40
1.0
 10
111.68800701095644
 20
252.6880445313832
 30
0.0
 10
111.86403565678978
 20
252.84201588554987
 30
0.0
 10
111.99602133387312
 20
252.95201588554988
 30
0.0
  0
SPLINE
  5
267
330
17
100
AcDbEntity
  8
ENGRAVE
100
AcDbSpline
 70
0
 71
2
 72
6
 73
3
 74
0
 40
0.0
 40
0.0
 40
0.0
 40
1.0
 40
1.0
 40
1.0
 10
111.91903565678977
 20
256.96703378919574
 30
0.0
 10
111.97403565678978
 20
257.1100302084665
 30
0.0
 10
111.99602133387312
 20
257.19804453138323
 30
0.0
  0
SPLINE
  5
268
330
17
100
AcDbEntity
  8
ENGRAVE
100
AcDbSpline
 70
0
 71
2
 72
6
 73
3
 74
0
 40
0.0
 40
0.0
 40
0.0
 40
1.0
 40
1.0
 40
1.0
 10
112.4195320760606
 20
255.52052662773738
 30
0.0
 10
112.24903565678977
 20
255.0310230470082
 30
0.0
 10
112.08403565678978
 20
254.54703378919572
 30
0.0
  0
SPLINE
  5
269
330
17
100
AcDbEntity
  8
ENGRAVE
100
AcDbSpline
 70
0
 71
2
 72
6
 73
3
 74
0
 40
0.0
 40
0.0
 40
0.0
 40
1.0
 40
1.0
 40
1.0
 10
111.99602133387312
 20
257.19804453138323
 30
0.0
 10
111.99602133387312
 20
257.2860230470082
 30
0.0
 10
112.12252849533144
 20
257.36852304700824
 30
0.0
  0
SPLINE
  5
26A
330
17
100
AcDbEntity
  8
ENGRAVE
100
AcDbSpline
 70
0
 71
2
 72
6
 73
3
 74
0
 40
0.0
 40
0.0
 40
0.0
 40
1.0
 40
1.0
 40
1.0
 10
111.99602133387312
 20
252.95201588554988
 30
0.0
 10
112.12800701095644
 20
253.06201588554987
 30
0.0
 10
112.26002849533144
 20
253.15003020846655
 30
0.0
  0
SPLINE
  5
26B
330
17
100
AcDbEntity
  8
ENGRAVE
100
AcDbSpline
 70
0
 71
2
 72
6
 73
3
 74
0
 40
0.0
 40
0.0
 40
0.0
 40
1.0
 40
1.0
 40
1.0
 10
112.12252849533144
 20
257.36852304700824
 30
0.0
 10
112.24903565678977
 20
257.4510230470082
 30
0.0
 10
112.34800701095645
 20
257.4510230470082
 30
0.0
  0
SPLINE
  5
26C
330
17
100
AcDbEntity
  8
ENGRAVE
100
AcDbSpline
 70
0
 71
2
 72
6
 73
3
 74
0
 40
0.0
 40
0.0
 40
0.0
 40
1.0
 40
1.0
 40
1.0
 10
112.76602133387311
 20
256.4060230470082
 30
0.0
 10
112.59002849533144
 20
256.01003020846656
 30
0.0
 10
112.4195320760606
 20
255.52052662773738
 30
0.0
  0
SPLINE
  5
26D
330
17
100
AcDbEntity
  8
ENGRAVE
100
AcDbSpline
 70
0
 71
2
 72
6
 73
3
 74
0
 40
0.0
 40
0.0
 40
0.0
 40
1.0
 40
1.0
 40
1.0
 10
112.26002849533144
 20
253.15003020846655
 30
0.0
 10
112.38102133387311
 20
253.23804453138322
 30
0.0
 10
112.48552491460228
 20
253.31503020846654
 30
0.0
  0
SPLINE
  5
26E
330
17
100
AcDbEntity
  8
ENGRAVE
100
AcDbSpline
 70
0
 71
2
 72
6
 73
3
 74
0
 40
0.0
 40
0.0
 40
0.0
 40
1.0
 40
1.0
 40
1.0
 10
112.48552491460228
 20
253.31503020846654
 30
0.0
 10
112.59002849533144
 20
253.39201588554988
 30
0.0
 10
112.59002849533144
 20
253.39201588554988
 30
0.0
  0
SPLINE
  5
26F
330
17
100
AcDbEntity
  8
ENGRAVE
100
AcDbSpline
 70
0
 71
2
 72
6
 73
3
 74
0
 40
0.0
 40
0.0
 40
0.0
 40
1.0
 40
1.0
 40
1.0
 10
113.1510213338731
 20
252.5560230470082
 30
0.0
 10
112.98602133387311
 20
252.5560230470082
 30
0.0
 10
112.63951417241478
 20
252.3360230470082
 30
0.0
  0
SPLINE
  5
270
330
17
100
AcDbEntity
  8
ENGRAVE
100
AcDbSpline
 70
0
 71
2
 72
6
 73
3
 74
0
 40
0.0
 40
0.0
 40
0.0
 40
1.0
 40
1.0
 40
1.0
 10
112.59002849533144
 20
253.39201588554988
 30
0.0
 10
112.61201417241477
 20
253.42503020846655
 30
0.0
 10
112.63951417241478
 20
253.46903736992488
 30
0.0
  0
SPLINE
  5
271
330
17
100
AcDbEntity
  8
ENGRAVE
100
AcDbSpline
 70
0
 71
2
 72
6
 73
3
 74
0
 40
0.0
 40
0.0
 40
0.0
 40
1.0
 40
1.0
 40
1.0
 10
112.34800701095645
 20
257.4510230470082
 30
0.0
 10
112.50201417241477
 20
257.44003020846657
 30
0.0
 10
112.6450105916856
 20
257.2695337891957
 30
0.0
  0
SPLINE
  5
272
330
17
100
AcDbEntity
  8
ENGRAVE
100
AcDbSpline
 70
0
 71
2
 72
6
 73
3
 74
0
 40
0.0
 40
0.0
 40
0.0
 40
1.0
 40
1.0
 40
1.0
 10
112.63951417241478
 20
253.46903736992488
 30
0.0
 10
112.66701417241478
 20
253.5130445313832
 30
0.0
 10
112.70002849533144
 20
253.52403736992488
 30
0.0
  0
SPLINE
  5
273
330
17
100
AcDbEntity
  8
ENGRAVE
100
AcDbSpline
 70
0
 71
2
 72
6
 73
3
 74
0
 40
0.0
 40
0.0
 40
0.0
 40
1.0
 40
1.0
 40
1.0
 10
112.84300701095644
 20
256.8625302084665
 30
0.0
 10
112.89800701095645
 20
256.62602304700823
 30
0.0
 10
112.76602133387311
 20
256.4060230470082
 30
0.0
  0
SPLINE
  5
274
330
17
100
AcDbEntity
  8
ENGRAVE
100
AcDbSpline
 70
0
 71
2
 72
6
 73
3
 74
0
 40
0.0
 40
0.0
 40
0.0
 40
1.0
 40
1.0
 40
1.0
 10
112.70002849533144
 20
253.52403736992488
 30
0.0
 10
112.72201417241477
 20
253.54602304700822
 30
0.0
 10
112.77701417241478
 20
253.58453378919572
 30
0.0
  0
SPLINE
  5
275
330
17
100
AcDbEntity
  8
ENGRAVE
100
AcDbSpline
 70
0
 71
2
 72
6
 73
3
 74
0
 40
0.0
 40
0.0
 40
0.0
 40
1.0
 40
1.0
 40
1.0
 10
112.6450105916856
 20
257.2695337891957
 30
0.0
 10
112.78800701095645
 20
257.0990373699249
 30
0.0
 10
112.84300701095644
 20
256.8625302084665
 30
0.0
  0
SPLINE
  5
276
330
17
100
AcDbEntity
  8
ENGRAVE
100
AcDbSpline
 70
0
 71
2
 72
6
 73
3
 74
0
 40
0.0
 40
0.0
 40
0.0
 40
1.0
 40
1.0
 40
1.0
 10
112.77701417241478
 20
253.58453378919572
 30
0.0
 10
112.83201417241477
 20
253.62304453138321
 30
0.0
 10
112.88701417241478
 20
253.6670158855499
 30
0.0
  0
SPLINE
  5
277
330
17
100
AcDbEntity
  8
ENGRAVE
100
AcDbSpline
 70
0
 71
2
 72
6
 73
3
 74
0
 40
0.0
 40
0.0
 40
0.0
 40
1.0
 40
1.0
 40
1.0
 10
113.26102133387312
 20
252.34151946627904
 30
0.0
 10
113.27201417241477
 20
252.5560230470082
 30
0.0
 10
113.1510213338731
 20
252.5560230470082
 30
0.0
  0
SPLINE
  5
278
330
17
100
AcDbEntity
  8
ENGRAVE
100
AcDbSpline
 70
0
 71
2
 72
6
 73
3
 74
0
 40
0.0
 40
0.0
 40
0.0
 40
1.0
 40
1.0
 40
1.0
 10
113.26651775314394
 20
251.10401946627906
 30
0.0
 10
113.19502849533144
 20
251.30201588554988
 30
0.0
 10
113.20602133387311
 20
251.64304453138323
 30
0.0
  0
SPLINE
  5
279
330
17
100
AcDbEntity
  8
ENGRAVE
100
AcDbSpline
 70
0
 71
2
 72
6
 73
3
 74
0
 40
0.0
 40
0.0
 40
0.0
 40
1.0
 40
1.0
 40
1.0
 10
113.20602133387311
 20
251.64304453138323
 30
0.0
 10
113.25002849533145
 20
252.1270158855499
 30
0.0
 10
113.26102133387312
 20
252.34151946627904
 30
0.0
  0
SPLINE
  5
27A
330
17
100
AcDbEntity
  8
ENGRAVE
100
AcDbSpline
 70
0
 71
2
 72
6
 73
3
 74
0
 40
0.0
 40
0.0
 40
0.0
 40
1.0
 40
1.0
 40
1.0
 10
113.54701417241478
 20
250.7630445313832
 30
0.0
 10
113.33800701095645
 20
250.9060230470082
 30
0.0
 10
113.26651775314394
 20
251.10401946627906
 30
0.0
  0
SPLINE
  5
27B
330
17
100
AcDbEntity
  8
ENGRAVE
100
AcDbSpline
 70
0
 71
2
 72
6
 73
3
 74
0
 40
0.0
 40
0.0
 40
0.0
 40
1.0
 40
1.0
 40
1.0
 10
113.97052491460228
 20
250.6860230470082
 30
0.0
 10
113.76701417241478
 20
250.64201588554988
 30
0.0
 10
113.54701417241478
 20
250.7630445313832
 30
0.0
  0
SPLINE
  5
27C
330
17
100
AcDbEntity
  8
ENGRAVE
100
AcDbSpline
 70
0
 71
2
 72
6
 73
3
 74
0
 40
0.0
 40
0.0
 40
0.0
 40
1.0
 40
1.0
 40
1.0
 10
112.88701417241478
 20
253.6670158855499
 30
0.0
 10
113.19502849533144
 20
253.86503020846655
 30
0.0
 10
113.55800701095644
 20
253.86503020846655
 30
0.0
  0
SPLINE
  5
27D
330
17
100
AcDbEntity
  8
ENGRAVE
100
AcDbSpline
 70
0
 71
2
 72
6
 73
3
 74
0
 40
0.0
 40
0.0
 40
0.0
 40
1.0
 40
1.0
 40
1.0
 10
113.55800701095644
 20
253.86503020846655
 30
0.0
 10
113.69002849533145
 20
253.86503020846655
 30
0.0
 10
113.83302491460228
 20
253.7605266277374
 30
0.0
  0
SPLINE
  5
27E
330
17
100
AcDbEntity
  8
ENGRAVE
100
AcDbSpline
 70
0
 71
2
 72
6
 73
3
 74
0
 40
0.0
 40
0.0
 40
0.0
 40
1.0
 40
1.0
 40
1.0
 10
114.43800701095644
 20
250.9060230470082
 30
0.0
 10
114.17403565678978
 20
250.73003020846656
 30
0.0
 10
113.97052491460228
 20
250.6860230470082
 30
0.0
  0
SPLINE
  5
27F
330
17
100
AcDbEntity
  8
ENGRAVE
100
AcDbSpline
 70
0
 71
2
 72
6
 73
3
 74
0
 40
0.0
 40
0.0
 40
0.0
 40
1.0
 40
1.0
 40
1.0
 10
113.83302491460228
 20
253.7605266277374
 30
0.0
 10
113.9760213338731
 20
253.6560230470082
 30
0.0
 10
114.09701417241477
 20
253.46903736992488
 30
0.0
  0
SPLINE
  5
280
330
17
100
AcDbEntity
  8
ENGRAVE
100
AcDbSpline
 70
0
 71
2
 72
6
 73
3
 74
0
 40
0.0
 40
0.0
 40
0.0
 40
1.0
 40
1.0
 40
1.0
 10
114.19052491460228
 20
252.29203378919573
 30
0.0
 10
114.14102133387311
 20
252.05003020846655
 30
0.0
 10
114.11903565678978
 20
251.92903736992488
 30
0.0
  0
SPLINE
  5
281
330
17
100
AcDbEntity
  8
ENGRAVE
100
AcDbSpline
 70
0
 71
2
 72
6
 73
3
 74
0
 40
0.0
 40
0.0
 40
0.0
 40
1.0
 40
1.0
 40
1.0
 10
114.24002849533144
 20
252.62201588554987
 30
0.0
 10
114.24002849533144
 20
252.53403736992487
 30
0.0
 10
114.19052491460228
 20
252.29203378919573
 30
0.0
  0
SPLINE
  5
282
330
17
100
AcDbEntity
  8
ENGRAVE
100
AcDbSpline
 70
0
 71
2
 72
6
 73
3
 74
0
 40
0.0
 40
0.0
 40
0.0
 40
1.0
 40
1.0
 40
1.0
 10
114.09701417241477
 20
253.46903736992488
 30
0.0
 10
114.28403565678978
 20
253.20503020846655
 30
0.0
 10
114.24002849533144
 20
252.62201588554987
 30
0.0
  0
SPLINE
  5
283
330
17
100
AcDbEntity
  8
ENGRAVE
100
AcDbSpline
 70
0
 71
2
 72
6
 73
3
 74
0
 40
0.0
 40
0.0
 40
0.0
 40
1.0
 40
1.0
 40
1.0
 10
114.10800701095644
 20
251.55503020846655
 30
0.0
 10
114.22903565678978
 20
251.59903736992487
 30
0.0
 10
114.34453207606062
 20
251.56604095065404
 30
0.0
  0
SPLINE
  5
284
330
17
100
AcDbEntity
  8
ENGRAVE
100
AcDbSpline
 70
0
 71
2
 72
6
 73
3
 74
0
 40
0.0
 40
0.0
 40
0.0
 40
1.0
 40
1.0
 40
1.0
 10
114.63602133387312
 20
251.13701588554989
 30
0.0
 10
114.54800701095644
 20
250.9720158855499
 30
0.0
 10
114.43800701095644
 20
250.9060230470082
 30
0.0
  0
SPLINE
  5
285
330
17
100
AcDbEntity
  8
ENGRAVE
100
AcDbSpline
 70
0
 71
2
 72
6
 73
3
 74
0
 40
0.0
 40
0.0
 40
0.0
 40
1.0
 40
1.0
 40
1.0
 10
114.34453207606062
 20
251.56604095065404
 30
0.0
 10
114.46002849533144
 20
251.5330445313832
 30
0.0
 10
114.46002849533144
 20
251.5330445313832
 30
0.0
  0
SPLINE
  5
286
330
17
100
AcDbEntity
  8
ENGRAVE
100
AcDbSpline
 70
0
 71
2
 72
6
 73
3
 74
0
 40
0.0
 40
0.0
 40
0.0
 40
1.0
 40
1.0
 40
1.0
 10
114.46002849533144
 20
251.5330445313832
 30
0.0
 10
114.51502849533145
 20
251.50003020846654
 30
0.0
 10
114.56453207606062
 20
251.45602304700822
 30
0.0
  0
SPLINE
  5
287
330
17
100
AcDbEntity
  8
ENGRAVE
100
AcDbSpline
 70
0
 71
2
 72
6
 73
3
 74
0
 40
0.0
 40
0.0
 40
0.0
 40
1.0
 40
1.0
 40
1.0
 10
114.65800701095644
 20
251.39003020846656
 30
0.0
 10
114.72403565678978
 20
251.30201588554988
 30
0.0
 10
114.63602133387312
 20
251.13701588554989
 30
0.0
  0
SPLINE
  5
288
330
17
100
AcDbEntity
  8
ENGRAVE
100
AcDbSpline
 70
0
 71
2
 72
6
 73
3
 74
0
 40
0.0
 40
0.0
 40
0.0
 40
1.0
 40
1.0
 40
1.0
 10
114.56453207606062
 20
251.45602304700822
 30
0.0
 10
114.61403565678978
 20
251.4120158855499
 30
0.0
 10
114.65800701095644
 20
251.39003020846656
 30
0.0
  0
LINE
  5
289
330
17
100
AcDbEntity
  8
ENGRAVE
100
AcDbLine
 10
72.78105714116478
 20
252.00602304700823
 30
0.0
 11
72.78105714116478
 21
251.95102304700822
 31
0.0
  0
LINE
  5
28A
330
17
100
AcDbEntity
  8
ENGRAVE
100
AcDbLine
 10
82.52704997970645
 20
249.25602304700823
 30
0.0
 11
82.56006430262312
 21
249.57503020846656
 31
0.0
  0
LINE
  5
28B
330
17
100
AcDbEntity
  8
ENGRAVE
100
AcDbLine
 10
83.74807862553978
 20
254.47003020846654
 30
0.0
 11
83.75907146408144
 21
254.49201588554988
 31
0.0
  0
LINE
  5
28C
330
17
100
AcDbEntity
  8
ENGRAVE
100
AcDbLine
 10
95.11105714116478
 20
252.96304453138322
 30
0.0
 11
95.16605714116479
 21
253.20503020846655
 31
0.0
  0
LINE
  5
28D
330
17
100
AcDbEntity
  8
ENGRAVE
100
AcDbLine
 10
95.39704997970645
 20
253.28201588554987
 30
0.0
 11
95.11105714116478
 21
252.96304453138322
 31
0.0
  0
LINE
  5
28E
330
17
100
AcDbEntity
  8
ENGRAVE
100
AcDbLine
 10
106.85903565678979
 20
254.11804453138322
 30
0.0
 11
107.29903565678978
 21
253.99701588554987
 31
0.0
  0
LINE
  5
28F
330
17
100
AcDbEntity
  8
ENGRAVE
100
AcDbLine
 10
107.29903565678978
 20
253.99701588554987
 30
0.0
 11
107.00201417241477
 21
253.3590373699249
 31
0.0
  0
LINE
  5
290
330
17
100
AcDbEntity
  8
ENGRAVE
100
AcDbLine
 10
114.02002849533145
 20
251.55503020846655
 30
0.0
 11
114.11903565678978
 21
251.92903736992488
 31
0.0
  0
LINE
  5
291
330
17
100
AcDbEntity
  8
ENGRAVE
100
AcDbLine
 10
114.10800701095644
 20
251.55503020846655
 30
0.0
 11
114.02002849533145
 21
251.55503020846655
 31
0.0
  0
ENDSEC
  0
SECTION
  2
OBJECTS
  0
DICTIONARY
  5
A
330
0
100
AcDbDictionary
281
1
  3
ACAD_COLOR
350
B
  3
ACAD_GROUP
350
C
  3
ACAD_LAYOUT
350
D
  3
ACAD_MATERIAL
350
E
  3
ACAD_MLEADERSTYLE
350
F
  3
ACAD_MLINESTYLE
350
10
  3
ACAD_PLOTSETTINGS
350
11
  3
ACAD_PLOTSTYLENAME
350
12
  3
ACAD_SCALELIST
350
14
  3
ACAD_TABLESTYLE
350
15
  3
ACAD_VISUALSTYLE
350
16
  3
EZDXF_META
350
2D
  0
DICTIONARY
  5
B
330
A
100
AcDbDictionary
281
1
  0
DICTIONARY
  5
C
330
A
100
AcDbDictionary
281
1
  0
DICTIONARY
  5
D
330
A
100
AcDbDictionary
281
1
  3
Model
350
1A
  3
Layout1
350
1E
  0
DICTIONARY
  5
E
330
A
100
AcDbDictionary
281
1
  3
ByBlock
350
1F
  3
ByLayer
350
20
  3
Global
350
21
  0
DICTIONARY
  5
F
330
A
100
AcDbDictionary
281
1
  3
Standard
350
2C
  0
DICTIONARY
  5
10
330
A
100
AcDbDictionary
281
1
  3
Standard
350
22
  0
DICTIONARY
  5
11
330
A
100
AcDbDictionary
281
1
  0
ACDBDICTIONARYWDFLT
  5
12
330
A
100
AcDbDictionary
281
1
  3
Normal
350
13
100
AcDbDictionaryWithDefault
340
13
  0
ACDBPLACEHOLDER
  5
13
330
12
  0
DICTIONARY
  5
14
330
A
100
AcDbDictionary
281
1
  0
DICTIONARY
  5
15
330
A
100
AcDbDictionary
281
1
  0
DICTIONARY
  5
16
330
A
100
AcDbDictionary
281
1
  0
LAYOUT
  5
1A
330
D
100
AcDbPlotSettings
  1

  4
A3
  6

 40
7.5
 41
20.0
 42
7.5
 43
20.0
 44
420.0
 45
297.0
 46
0.0
 47
0.0
 48
0.0
 49
0.0
140
0.0
141
0.0
142
1.0
143
1.0
 70
1024
 72
1
 73
0
 74
5
  7

 75
16
 76
0
 77
2
 78
300
147
1.0
148
0.0
149
0.0
100
AcDbLayout
  1
Model
 70
1
 71
0
 10
0.0
 20
0.0
 11
420.0
 21
297.0
 12
0.0
 22
0.0
 32
0.0
 14
1e+20
 24
1e+20
 34
1e+20
 15
-1e+20
 25
-1e+20
 35
-1e+20
146
0.0
 13
0.0
 23
0.0
 33
0.0
 16
1.0
 26
0.0
 36
0.0
 17
0.0
 27
1.0
 37
0.0
 76
1
330
17
  0
LAYOUT
  5
1E
330
D
100
AcDbPlotSettings
  1

  4
A3
  6

 40
7.5
 41
20.0
 42
7.5
 43
20.0
 44
420.0
 45
297.0
 46
0.0
 47
0.0
 48
0.0
 49
0.0
140
0.0
141
0.0
142
1.0
143
1.0
 70
0
 72
1
 73
0
 74
5
  7

 75
16
 76
0
 77
2
 78
300
147
1.0
148
0.0
149
0.0
100
AcDbLayout
  1
Layout1
 70
1
 71
1
 10
0.0
 20
0.0
 11
420.0
 21
297.0
 12
0.0
 22
0.0
 32
0.0
 14
1e+20
 24
1e+20
 34
1e+20
 15
-1e+20
 25
-1e+20
 35
-1e+20
146
0.0
 13
0.0
 23
0.0
 33
0.0
 16
1.0
 26
0.0
 36
0.0
 17
0.0
 27
1.0
 37
0.0
 76
1
330
1B
  0
MATERIAL
  5
1F
102
{ACAD_REACTORS
330
E
102
}
330
E
100
AcDbMaterial
  1
ByBlock
  2

 70
0
 40
1.0
 71
1
 41
1.0
 91
-1023410177
 42
1.0
 72
1
  3

 73
1
 74
1
 75
1
 44
0.5
 73
0
 45
1.0
 46
1.0
 77
1
  4

 78
1
 79
1
170
1
 48
1.0
171
1
  6

172
1
173
1
174
1
140
1.0
141
1.0
175
1
  7

176
1
177
1
178
1
143
1.0
179
1
  8

270
1
271
1
272
1
145
1.0
146
1.0
273
1
  9

274
1
275
1
276
1
 42
1.0
 72
1
  3

 73
1
 74
1
 75
1
 94
63
  0
MATERIAL
  5
20
102
{ACAD_REACTORS
330
E
102
}
330
E
100
AcDbMaterial
  1
ByLayer
  2

 70
0
 40
1.0
 71
1
 41
1.0
 91
-1023410177
 42
1.0
 72
1
  3

 73
1
 74
1
 75
1
 44
0.5
 73
0
 45
1.0
 46
1.0
 77
1
  4

 78
1
 79
1
170
1
 48
1.0
171
1
  6

172
1
173
1
174
1
140
1.0
141
1.0
175
1
  7

176
1
177
1
178
1
143
1.0
179
1
  8

270
1
271
1
272
1
145
1.0
146
1.0
273
1
  9

274
1
275
1
276
1
 42
1.0
 72
1
  3

 73
1
 74
1
 75
1
 94
63
  0
MATERIAL
  5
21
102
{ACAD_REACTORS
330
E
102
}
330
E
100
AcDbMaterial
  1
Global
  2

 70
0
 40
1.0
 71
1
 41
1.0
 91
-1023410177
 42
1.0
 72
1
  3

 73
1
 74
1
 75
1
 44
0.5
 73
0
 45
1.0
 46
1.0
 77
1
  4

 78
1
 79
1
170
1
 48
1.0
171
1
  6

172
1
173
1
174
1
140
1.0
141
1.0
175
1
  7

176
1
177
1
178
1
143
1.0
179
1
  8

270
1
271
1
272
1
145
1.0
146
1.0
273
1
  9

274
1
275
1
276
1
 42
1.0
 72
1
  3

 73
1
 74
1
 75
1
 94
63
  0
MLINESTYLE
  5
22
102
{ACAD_REACTORS
330
10
102
}
330
10
100
AcDbMlineStyle
  2
Standard
 70
0
  3

 62
256
 51
90.0
 52
90.0
 71
2
 49
0.5
 62
256
  6
BYLAYER
 49
-0.5
 62
256
  6
BYLAYER
  0
MLEADERSTYLE
  5
2C
102
{ACAD_REACTORS
330
F
102
}
330
F
100
AcDbMLeaderStyle
179
2
170
2
171
1
172
0
 90
2
 40
0.0
 41
0.0
173
1
 91
-1056964608
 92
-2
290
1
 42
2.0
291
1
 43
8.0
  3
Standard
 44
4.0
300

342
29
174
1
175
1
176
0
178
1
 93
-1056964608
 45
4.0
292
0
297
0
 46
4.0
 94
-1056964608
 47
1.0
 49
1.0
140
1.0
294
1
141
0.0
177
0
142
1.0
295
0
296
0
143
3.75
271
0
272
9
273
9
  0
DICTIONARY
  5
2D
330
A
100
AcDbDictionary
280
1
281
1
  3
CREATED_BY_EZDXF
350
2E
  3
WRITTEN_BY_EZDXF
350
295
  0
DICTIONARYVAR
  5
2E
330
2D
100
DictionaryVariables
280
0
  1
0.0 @ 2000-01-01T00:00:00.000000+00:00
  0
DICTIONARYVAR
  5
295
330
2D
100
DictionaryVariables
280
0
  1
0.0 @ 2000-01-01T00:00:00.000000+00:00
  0
ENDSEC
  0
EOF
