  0
SECTION
  2
HEADER
  9
$ACADVER
  1
AC1027
  9
$ACADMAINTVER
 70
105
  9
$DWGCODEPAGE
  3
ANSI_1252
  9
$LASTSAVEDBY
  1
ezdxf
  9
$REQUIREDVERSIONS
160
0
  9
$INSBASE
 10
0.0
 20
0.0
 30
0.0
  9
$EXTMIN
 10
1e+20
 20
1e+20
 30
1e+20
  9
$EXTMAX
 10
-1e+20
 20
-1e+20
 30
-1e+20
  9
$LIMMIN
 10
0.0
 20
0.0
  9
$LIMMAX
 10
420.0
 20
297.0
  9
$ORTHOMODE
 70
0
  9
$REGENMODE
 70
1
  9
$FILLMODE
 70
1
  9
$QTEXTMODE
 70
0
  9
$MIRRTEXT
 70
1
  9
$LTSCALE
 40
1.0
  9
$ATTMODE
 70
1
  9
$TEXTSIZE
 40
2.5
  9
$TRACEWID
 40
1.0
  9
$TEXTSTYLE
  7
Standard
  9
$CLAYER
  8
0
  9
$CELTYPE
  6
ByLayer
  9
$CECOLOR
 62
256
  9
$CELTSCALE
 40
1.0
  9
$DISPSILH
 70
0
  9
$DIMSCALE
 40
1.0
  9
$DIMASZ
 40
2.5
  9
$DIMEXO
 40
0.625
  9
$DIMDLI
 40
3.75
  9
$DIMRND
 40
0.0
  9
$DIMDLE
 40
0.0
  9
$DIMEXE
 40
1.25
  9
$DIMTP
 40
0.0
  9
$DIMTM
 40
0.0
  9
$DIMTXT
 40
2.5
  9
$DIMCEN
 40
2.5
  9
$DIMTSZ
 40
0.0
  9
$DIMTOL
 70
0
  9
$DIMLIM
 70
0
  9
$DIMTIH
 70
0
  9
$DIMTOH
 70
0
  9
$DIMSE1
 70
0
  9
$DIMSE2
 70
0
  9
$DIMTAD
 70
1
  9
$DIMZIN
 70
8
  9
$DIMBLK
  1

  9
$DIMASO
 70
1
  9
$DIMSHO
 70
1
  9
$DIMPOST
  1

  9
$DIMAPOST
  1

  9
$DIMALT
 70
0
  9
$DIMALTD
 70
3
  9
$DIMALTF
 40
0.03937007874
  9
$DIMLFAC
 40
1.0
  9
$DIMTOFL
 70
1
  9
$DIMTVP
 40
0.0
  9
$DIMTIX
 70
0
  9
$DIMSOXD
 70
0
  9
$DIMSAH
 70
0
  9
$DIMBLK1
  1

  9
$DIMBLK2
  1

  9
$DIMSTYLE
  2
ISO-25
  9
$DIMCLRD
 70
0
  9
$DIMCLRE
 70
0
  9
$DIMCLRT
 70
0
  9
$DIMTFAC
 40
1.0
  9
$DIMGAP
 40
0.625
  9
$DIMJUST
 70
0
  9
$DIMSD1
 70
0
  9
$DIMSD2
 70
0
  9
$DIMTOLJ
 70
0
  9
$DIMTZIN
 70
8
  9
$DIMALTZ
 70
0
  9
$DIMALTTZ
 70
0
  9
$DIMUPT
 70
0
  9
$DIMDEC
 70
2
  9
$DIMTDEC
 70
2
  9
$DIMALTU
 70
2
  9
$DIMALTTD
 70
3
  9
$DIMTXSTY
  7
Standard
  9
$DIMAUNIT
 70
0
  9
$DIMADEC
 70
0
  9
$DIMALTRND
 40
0.0
  9
$DIMAZIN
 70
0
  9
$DIMDSEP
 70
44
  9
$DIMATFIT
 70
3
  9
$DIMFRAC
 70
0
  9
$DIMLDRBLK
  1

  9
$DIMLUNIT
 70
2
  9
$DIMLWD
 70
-2
  9
$DIMLWE
 70
-2
  9
$DIMTMOVE
 70
0
  9
$DIMFXL
 40
1.0
  9
$DIMFXLON
 70
0
  9
$DIMJOGANG
 40
0.785398163397
  9
$DIMTFILL
 70
0
  9
$DIMTFILLCLR
 70
0
  9
$DIMARCSYM
 70
0
  9
$DIMLTYPE
  6

  9
$DIMLTEX1
  6

  9
$DIMLTEX2
  6

  9
$DIMTXTDIRECTION
 70
0
  9
$LUNITS
 70
2
  9
$LUPREC
 70
4
  9
$SKETCHINC
 40
1.0
  9
$FILLETRAD
 40
10.0
  9
$AUNITS
 70
0
  9
$AUPREC
 70
2
  9
$MENU
  1
.
  9
$ELEVATION
 40
0.0
  9
$PELEVATION
 40
0.0
  9
$THICKNESS
 40
0.0
  9
$LIMCHECK
 70
0
  9
$CHAMFERA
 40
0.0
  9
$CHAMFERB
 40
0.0
  9
$CHAMFERC
 40
0.0
  9
$CHAMFERD
 40
0.0
  9
$SKPOLY
 70
0
  9
$TDCREATE
 40
2451545.0
  9
$TDUCREATE
 40
2451545.0
  9
$TDUPDATE
 40
2451545.0
  9
$TDUUPDATE
 40
2451545.0
  9
$TDINDWG
 40
0.0
  9
$TDUSRTIMER
 40
0.0
  9
$USRTIMER
 70
1
  9
$ANGBASE
 50
0.0
  9
$ANGDIR
 70
0
  9
$PDMODE
 70
0
  9
$PDSIZE
 40
0.0
  9
$PLINEWID
 40
0.0
  9
$SPLFRAME
 70
0
  9
$SPLINETYPE
 70
6
  9
$SPLINESEGS
 70
8
  9
$HANDSEED
  5
41
  9
$SURFTAB1
 70
6
  9
$SURFTAB2
 70
6
  9
$SURFTYPE
 70
6
  9
$SURFU
 70
6
  9
$SURFV
 70
6
  9
$UCSBASE
  2

  9
$UCSNAME
  2

  9
$UCSORG
 10
0.0
 20
0.0
 30
0.0
  9
$UCSXDIR
 10
1.0
 20
0.0
 30
0.0
  9
$UCSYDIR
 10
0.0
 20
1.0
 30
0.0
  9
$UCSORTHOREF
  2

  9
$UCSORTHOVIEW
 70
0
  9
$UCSORGTOP
 10
0.0
 20
0.0
 30
0.0
  9
$UCSORGBOTTOM
 10
0.0
 20
0.0
 30
0.0
  9
$UCSORGLEFT
 10
0.0
 20
0.0
 30
0.0
  9
$UCSORGRIGHT
 10
0.0
 20
0.0
 30
0.0
  9
$UCSORGFRONT
 10
0.0
 20
0.0
 30
0.0
  9
$UCSORGBACK
 10
0.0
 20
0.0
 30
0.0
  9
$PUCSBASE
  2

  9
$PUCSNAME
  2

  9
$PUCSORG
 10
0.0
 20
0.0
 30
0.0
  9
$PUCSXDIR
 10
1.0
 20
0.0
 30
0.0
  9
$PUCSYDIR
 10
0.0
 20
1.0
 30
0.0
  9
$PUCSORTHOREF
  2

  9
$PUCSORTHOVIEW
 70
0
  9
$PUCSORGTOP
 10
0.0
 20
0.0
 30
0.0
  9
$PUCSORGBOTTOM
 10
0.0
 20
0.0
 30
0.0
  9
$PUCSORGLEFT
 10
0.0
 20
0.0
 30
0.0
  9
$PUCSORGRIGHT
 10
0.0
 20
0.0
 30
0.0
  9
$PUCSORGFRONT
 10
0.0
 20
0.0
 30
0.0
  9
$PUCSORGBACK
 10
0.0
 20
0.0
 30
0.0
  9
$USERI1
 70
0
  9
$USERI2
 70
0
  9
$USERI3
 70
0
  9
$USERI4
 70
0
  9
$USERI5
 70
0
  9
$USERR1
 40
0.0
  9
$USERR2
 40
0.0
  9
$USERR3
 40
0.0
  9
$USERR4
 40
0.0
  9
$USERR5
 40
0.0
  9
$WORLDVIEW
 70
1
  9
$SHADEDGE
 70
3
  9
$SHADEDIF
 70
70
  9
$TILEMODE
 70
1
  9
$MAXACTVP
 70
64
  9
$PINSBASE
 10
0.0
 20
0.0
 30
0.0
  9
$PLIMCHECK
 70
0
  9
$PEXTMIN
 10
1e+20
 20
1e+20
 30
1e+20
  9
$PEXTMAX
 10
-1e+20
 20
-1e+20
 30
-1e+20
  9
$PLIMMIN
 10
0.0
 20
0.0
  9
$PLIMMAX
 10
420.0
 20
297.0
  9
$UNITMODE
 70
0
  9
$VISRETAIN
 70
1
  9
$PLINEGEN
 70
0
  9
$PSLTSCALE
 70
1
  9
$TREEDEPTH
 70
3020
  9
$CMLSTYLE
  2
Standard
  9
$CMLJUST
 70
0
  9
$CMLSCALE
 40
20.0
  9
$PROXYGRAPHICS
 70
1
  9
$MEASUREMENT
 70
1
  9
$CELWEIGHT
370
-1
  9
$ENDCAPS
280
0
  9
$JOINSTYLE
280
0
  9
$LWDISPLAY
290
0
  9
$INSUNITS
 70
4
  9
$HYPERLINKBASE
  1

  9
$STYLESHEET
  1

  9
$XEDIT
290
1
  9
$CEPSNTYPE
380
0
  9
$PSTYLEMODE
290
1
  9
$FINGERPRINTGUID
  2
{00000000-0000-0000-0000-000000000000}
  9
$VERSIONGUID
  2
{00000000-0000-0000-0000-000000000000}
  9
$EXTNAMES
290
1
  9
$PSVPSCALE
 40
0.0
  9
$OLESTARTUP
290
0
  9
$SORTENTS
280
127
  9
$INDEXCTL
280
0
  9
$HIDETEXT
280
1
  9
$XCLIPFRAME
280
1
  9
$HALOGAP
280
0
  9
$OBSCOLOR
 70
257
  9
$OBSLTYPE
280
0
  9
$INTERSECTIONDISPLAY
280
0
  9
$INTERSECTIONCOLOR
 70
257
  9
$DIMASSOC
280
2
  9
$PROJECTNAME
  1

  9
$CAMERADISPLAY
290
0
  9
$LENSLENGTH
 40
50.0
  9
$CAMERAHEIGHT
 40
0.0
  9
$STEPSPERSEC
 40
24.0
  9
$STEPSIZE
 40
100.0
  9
$3DDWFPREC
 40
2.0
  9
$PSOLWIDTH
 40
0.005
  9
$PSOLHEIGHT
 40
0.08
  9
$LOFTANG1
 40
1.570796326795
  9
$LOFTANG2
 40
1.570796326795
  9
$LOFTMAG1
 40
0.0
  9
$LOFTMAG2
 40
0.0
  9
$LOFTPARAM
 70
7
  9
$LOFTNORMALS
280
1
  9
$LATITUDE
 40
37.795
  9
$LONGITUDE
 40
-122.394
  9
$NORTHDIRECTION
 40
0.0
  9
$TIMEZONE
 70
-8000
  9
$LIGHTGLYPHDISPLAY
280
1
  9
$TILEMODELIGHTSYNCH
280
1
  9
$CMATERIAL
347
20
  9
$SOLIDHIST
280
0
  9
$SHOWHIST
280
1
  9
$DWFFRAME
280
2
  9
$DGNFRAME
280
2
  9
$REALWORLDSCALE
290
1
  9
$INTERFERECOLOR
 62
256
  9
$CSHADOW
280
0
  9
$SHADOWPLANELOCATION
 40
0.0
  0
ENDSEC
  0
SECTION
  2
CLASSES
  0
CLASS
  1
ACDBDETAILVIEWSTYLE
  2
AcDbDetailViewStyle
  3
ObjectDBX Classes
 90
1025
 91
0
280
0
281
0
  0
CLASS
  1
ACDBDICTIONARYWDFLT
  2
AcDbDictionaryWithDefault
  3
ObjectDBX Classes
 90
0
 91
0
280
0
281
0
  0
CLASS
  1
ACDBPLACEHOLDER
  2
AcDbPlaceHolder
  3
ObjectDBX Classes
 90
0
 91
0
280
0
281
0
  0
CLASS
  1
ACDBSECTIONVIEWSTYLE
  2
AcDbSectionViewStyle
  3
ObjectDBX Classes
 90
1025
 91
0
280
0
281
0
  0
CLASS
  1
CELLSTYLEMAP
  2
AcDbCellStyleMap
  3
ObjectDBX Classes
 90
1152
 91
0
280
0
281
0
  0
CLASS
  1
DICTIONARYVAR
  2
AcDbDictionaryVar
  3
ObjectDBX Classes
 90
0
 91
0
280
0
281
0
  0
CLASS
  1
LAYOUT
  2
AcDbLayout
  3
ObjectDBX Classes
 90
0
 91
0
280
0
281
0
  0
CLASS
  1
MATERIAL
  2
AcDbMaterial
  3
ObjectDBX Classes
 90
1153
 91
0
280
0
281
0
  0
CLASS
  1
MENTALRAYRENDERSETTINGS
  2
AcDbMentalRayRenderSettings
  3
SCENEOE
 90
1024
 91
0
280
0
281
0
  0
CLASS
  1
MLEADERSTYLE
  2
AcDbMLeaderStyle
  3
ACDB_MLEADERSTYLE_CLASS
 90
4095
 91
0
280
0
281
0
  0
CLASS
  1
RASTERVARIABLES
  2
AcDbRasterVariables
  3
ISM
 90
0
 91
0
280
0
281
0
  0
CLASS
  1
SCALE
  2
AcDbScale
  3
ObjectDBX Classes
 90
1153
 91
0
280
0
281
0
  0
CLASS
  1
SUN
  2
AcDbSun
  3
SCENEOE
 90
1153
 91
0
280
0
281
0
  0
CLASS
  1
TABLESTYLE
  2
AcDbTableStyle
  3
ObjectDBX Classes
 90
4095
 91
0
280
0
281
0
  0
CLASS
  1
VISUALSTYLE
  2
AcDbVisualStyle
  3
ObjectDBX Classes
 90
4095
 91
0
280
0
281
0
  0
ENDSEC
  0
SECTION
  2
TABLES
  0
TABLE
  2
VPORT
  5
8
330
0
100
AcDbSymbolTable
 70
1
  0
VPORT
  5
3D
330
8
100
AcDbSymbolTableRecord
100
AcDbViewportTableRecord
  2
*Active
 70
0
 10
0.0
 20
0.0
 11
1.0
 21
1.0
 12
93.5
 22
150.0
 13
0.0
 23
0.0
 14
0.5
 24
0.5
 15
0.5
 25
0.5
 16
0.0
 26
0.0
 36
1.0
 17
0.0
 27
0.0
 37
0.0
 40
223.39999999999998
 41
1.34
 42
50.0
 43
0.0
 44
0.0
 50
0.0
 51
0.0
 71
0
 72
1000
 73
1
 74
3
 75
0
 76
0
 77
0
 78
0
281
0
 65
1
110
0.0
120
0.0
130
0.0
111
1.0
121
0.0
131
0.0
112
0.0
122
1.0
132
0.0
 79
0
146
0.0
  0
ENDTAB
  0
TABLE
  2
LTYPE
  5
2
330
0
100
AcDbSymbolTable
 70
3
  0
LTYPE
  5
24
330
2
100
AcDbSymbolTableRecord
100
AcDbLinetypeTableRecord
  2
ByBlock
 70
0
  3

 72
65
 73
0
 40
0.0
  0
LTYPE
  5
25
330
2
100
AcDbSymbolTableRecord
100
AcDbLinetypeTableRecord
  2
ByLayer
 70
0
  3

 72
65
 73
0
 40
0.0
  0
LTYPE
  5
26
330
2
100
AcDbSymbolTableRecord
100
AcDbLinetypeTableRecord
  2
Continuous
 70
0
  3

 72
65
 73
0
 40
0.0
  0
ENDTAB
  0
TABLE
  2
LAYER
  5
1
330
0
100
AcDbSymbolTable
 70
3
  0
LAYER
  5
27
330
1
100
AcDbSymbolTableRecord
100
AcDbLayerTableRecord
  2
0
 70
0
 62
7
  6
Continuous
370
-3
390
13
347
21
  0
LAYER
  5
28
330
1
100
AcDbSymbolTableRecord
100
AcDbLayerTableRecord
  2
Defpoints
 70
0
 62
7
  6
Continuous
290
0
370
-3
390
13
347
21
  0
LAYER
  5
2F
330
1
100
AcDbSymbolTableRecord
100
AcDbLayerTableRecord
  2
CUT
 70
0
 62
7
  6
Continuous
370
-3
390
13
347
21
  0
ENDTAB
  0
TABLE
  2
STYLE
  5
5
330
0
100
AcDbSymbolTable
 70
1
  0
STYLE
  5
29
330
5
100
AcDbSymbolTableRecord
100
AcDbTextStyleTableRecord
  2
Standard
 70
0
 40
0.0
 41
1.0
 50
0.0
 71
0
 42
2.5
  3
txt
  4

  0
ENDTAB
  0
TABLE
  2
VIEW
  5
7
330
0
100
AcDbSymbolTable
 70
0
  0
ENDTAB
  0
TABLE
  2
UCS
  5
6
330
0
100
AcDbSymbolTable
 70
0
  0
ENDTAB
  0
TABLE
  2
APPID
  5
3
330
0
100
AcDbSymbolTable
 70
3
  0
APPID
  5
2A
330
3
100
AcDbSymbolTableRecord
100
AcDbRegAppTableRecord
  2
ACAD
 70
0
  0
APPID
  5
3E
330
3
100
AcDbSymbolTableRecord
100
AcDbRegAppTableRecord
  2
HATCHBACKGROUNDCOLOR
 70
0
  0
APPID
  5
3F
330
3
100
AcDbSymbolTableRecord
100
AcDbRegAppTableRecord
  2
EZDXF
 70
0
  0
ENDTAB
  0
TABLE
  2
DIMSTYLE
  5
4
330
0
100
AcDbSymbolTable
 70
1
100
AcDbDimStyleTable
  0
DIMSTYLE
105
2B
330
4
100
AcDbSymbolTableRecord
100
AcDbDimStyleTableRecord
  2
Standard
 70
0
 40
1.0
 41
2.5
 42
0.625
 43
3.75
 44
1.25
 45
0.0
 46
0.0
 47
0.0
 48
0.0
 49
2.5
140
2.5
141
2.5
142
0.0
143
0.03937007874
144
1.0
145
0.0
146
1.0
147
0.625
148
0.0
 69
0
 70
0
 71
0
 72
0
 73
0
 74
0
 75
0
 76
0
 77
1
 78
8
 79
3
170
0
171
3
172
1
173
0
174
0
175
0
176
0
177
0
178
0
179
2
271
2
272
2
273
2
274
3
275
0
276
0
277
2
278
44
279
0
280
0
281
0
282
0
283
0
284
8
285
0
286
0
288
0
289
3
290
0
371
-2
372
-2
  0
ENDTAB
  0
TABLE
  2
BLOCK_RECORD
  5
9
330
0
100
AcDbSymbolTable
 70
2
  0
BLOCK_RECORD
  5
17
330
9
100
AcDbSymbolTableRecord
100
AcDbBlockTableRecord
  2
*Model_Space
340
1A
 70
0
280
1
281
0
  0
BLOCK_RECORD
  5
1B
330
9
100
AcDbSymbolTableRecord
100
AcDbBlockTableRecord
  2
*Paper_Space
340
1E
 70
0
280
1
281
0
  0
ENDTAB
  0
ENDSEC
  0
SECTION
  2
BLOCKS
  0
BLOCK
  5
18
330
17
100
AcDbEntity
  8
0
100
AcDbBlockBegin
  2
*Model_Space
 70
0
 10
0.0
 20
0.0
 30
0.0
  3
*Model_Space
  1

  0
ENDBLK
  5
19
330
17
100
AcDbEntity
  8
0
100
AcDbBlockEnd
  0
BLOCK
  5
1C
330
1B
100
AcDbEntity
  8
0
100
AcDbBlockBegin
  2
*Paper_Space
 70
0
 10
0.0
 20
0.0
 30
0.0
  3
*Paper_Space
  1

  0
ENDBLK
  5
1D
330
1B
100
AcDbEntity
  8
0
100
AcDbBlockEnd
  0
ENDSEC
  0
SECTION
  2
ENTITIES
  0
SPLINE
  5
30
330
17
100
AcDbEntity
  8
CUT
100
AcDbSpline
 70
0
 71
3
 72
185
 73
181
 74
0
 40
0.0
 40
0.0
 40
0.0
 40
0.0
 40
0.00031951595459376935
 40
0.00031951595459376935
 40
0.00031951595459376935
 40
0.0006508846766384779
 40
0.0006508846766384779
 40
0.0006508846766384779
 40
0.003941631369186301
 40
0.003941631369186301
 40
0.003941631369186301
 40
0.007232378061734124
 40
0.007232378061734124
 40
0.007232378061734124
 40
0.01501456169588547
 40
0.01501456169588547
 40
0.01501456169588547
 40
0.02673660277953708
 40
0.02673660277953708
 40
0.02673660277953708
 40
0.04484777878754532
 40
0.04484777878754532
 40
0.04484777878754532
 40
0.05764473854465448
 40
0.05764473854465448
 40
0.05764473854465448
 40
0.08218591254730083
 40
0.08218591254730083
 40
0.08218591254730083
 40
0.09712521604078364
 40
0.09712521604078364
 40
0.09712521604078364
 40
0.1248712124278503
 40
0.1248712124278503
 40
0.1248712124278503
 40
0.15901913909776025
 40
0.15901913909776025
 40
0.15901913909776025
 40
0.18249495947308284
 40
0.18249495947308284
 40
0.18249495947308284
 40
0.21130707648421293
 40
0.21130707648421293
 40
0.21130707648421293
 40
0.23478511400843763
 40
0.23478511400843763
 40
0.23478511400843763
 40
0.25079368493393284
 40
0.25079368493393284
 40
0.25079368493393284
 40
0.2806749407764118
 40
0.2806749407764118
 40
0.2806749407764118
 40
0.31269094317210916
 40
0.31269094317210916
 40
0.31269094317210916
 40
0.3425700449738369
 40
0.3425700449738369
 40
0.3425700449738369
 40
0.3735133226432689
 40
0.3735133226432689
 40
0.3735133226432689
 40
0.4364645901801566
 40
0.4364645901801566
 40
0.4364645901801566
 40
0.4695414082974869
 40
0.4695414082974869
 40
0.4695414082974869
 40
0.48981425816153534
 40
0.48981425816153534
 40
0.48981425816153534
 40
0.5026181643254054
 40
0.5026181643254054
 40
0.5026181643254054
 40
0.5100871089797017
 40
0.5100871089797017
 40
0.5100871089797017
 40
0.5159526655574085
 40
0.5159526655574085
 40
0.5159526655574085
 40
0.5218182221351152
 40
0.5218182221351152
 40
0.5218182221351152
 40
0.524651627136173
 40
0.524651627136173
 40
0.524651627136173
 40
0.5274850321372306
 40
0.5274850321372306
 40
0.5274850321372306
 40
0.5303184371382883
 40
0.5303184371382883
 40
0.5303184371382883
 40
0.533151842139346
 40
0.533151842139346
 40
0.533151842139346
 40
0.5338773074743155
 40
0.5338773074743155
 40
0.5338773074743155
 40
0.534602772809285
 40
0.534602772809285
 40
0.534602772809285
 40
0.5346882317557486
 40
0.5346882317557486
 40
0.5346882317557486
 40
0.5352575114967337
 40
0.5352575114967337
 40
0.5352575114967337
 40
0.5358267912377189
 40
0.5358267912377189
 40
0.5358267912377189
 40
0.5393390830605479
 40
0.5393390830605479
 40
0.5393390830605479
 40
0.5450068175572959
 40
0.5450068175572959
 40
0.5450068175572959
 40
0.554288394446355
 40
0.554288394446355
 40
0.554288394446355
 40
0.564515975800402
 40
0.564515975800402
 40
0.564515975800402
 40
0.5877591500937962
 40
0.5877591500937962
 40
0.5877591500937962
 40
0.6026365312706199
 40
0.6026365312706199
 40
0.6026365312706199
 40
0.6305302644402203
 40
0.6305302644402203
 40
0.6305302644402203
 40
0.6891071853252471
 40
0.6891071853252471
 40
0.6891071853252471
 40
0.7142115385007235
 40
0.7142115385007235
 40
0.7142115385007235
 40
0.7337390513620121
 40
0.7337390513620121
 40
0.7337390513620121
 40
0.7504768456679218
 40
0.7504768456679218
 40
0.7504768456679218
 40
0.7662866686947621
 40
0.7662866686947621
 40
0.7662866686947621
 40
0.7820994886734508
 40
0.7820994886734508
 40
0.7820994886734508
 40
0.8072154266735787
 40
0.8072154266735787
 40
0.8072154266735787
 40
0.8379107067548835
 40
0.8379107067548835
 40
0.8379107067548835
 40
0.8704638118410892
 40
0.8704638118410892
 40
0.8704638118410892
 40
0.8974367609177135
 40
0.8974367609177135
 40
0.8974367609177135
 40
0.9141785911421189
 40
0.9141785911421189
 40
0.9141785911421189
 40
0.9318500954151783
 40
0.9318500954151783
 40
0.9318500954151783
 40
0.9681234072592383
 40
0.9681234072592383
 40
0.9681234072592383
 40
0.9811445961258125
 40
0.9811445961258125
 40
0.9811445961258125
 40
0.9904455077860915
 40
0.9904455077860915
 40
0.9904455077860915
 40
0.9952227538930458
 40
0.9952227538930458
 40
0.9952227538930458
 40
1.0
 40
1.0
 40
1.0
 40
1.0
 10
93.49999999999999
 20
169.52941176470586
 30
0.0
 10
93.49917491695456
 20
169.50655145647795
 30
0.0
 10
93.49800741467718
 20
169.49496105088633
 30
0.0
 10
93.49649749316758
 20
169.49464054793043
 30
0.0
 10
93.49495639729152
 20
169.49769856651756
 30
0.0
 10
93.49345963643269
 20
169.5115393494298
 30
0.0
 10
93.49200721059086
 20
169.5361628966664
 30
0.0
 10
93.47719595602396
 20
169.80497227857563
 30
0.0
 10
93.46569236922939
 20
170.1489171744208
 30
0.0
 10
93.4350767906815
 20
170.41625372367113
 30
0.0
 10
93.40568715042549
 20
170.69104653174213
 30
0.0
 10
93.35660933962139
 20
170.89273093700095
 30
0.0
 10
93.29894512896713
 20
171.08040499015968
 30
0.0
 10
93.16541037271182
 20
171.526062731882
 30
0.0
 10
92.99951764836786
 20
172.23390516675448
 30
0.0
 10
92.80132699233643
 20
172.90886454432334
 30
0.0
 10
92.50486390166984
 20
173.92549094877387
 30
0.0
 10
92.11018044728743
 20
174.83190734491768
 30
0.0
 10
91.66069994973701
 20
175.73275692887833
 30
0.0
 10
90.968339253909
 20
177.1283611885527
 30
0.0
 10
90.14377370627531
 20
178.49418678393945
 30
0.0
 10
89.18881569892723
 20
179.72830079811837
 30
0.0
 10
88.51362302642224
 20
180.60431141348332
 30
0.0
 10
87.77931380802714
 20
181.4284649711329
 30
0.0
 10
86.98588804374212
 20
182.20076147106744
 30
0.0
 10
85.46720259843043
 20
183.68031656562667
 30
0.0
 10
83.73678255491498
 20
184.94530017857747
 30
0.0
 10
81.85481884074875
 20
185.92311068551462
 30
0.0
 10
80.70951028546966
 20
186.51865938205688
 30
0.0
 10
79.5090604818095
 20
187.00880983418827
 30
0.0
 10
78.27316548920092
 20
187.3821283037979
 30
0.0
 10
75.97771707547604
 20
188.07660146721324
 30
0.0
 10
73.56075813980367
 20
188.36228192638063
 30
0.0
 10
71.16637001983817
 20
188.23273471744443
 30
0.0
 10
68.21803012999891
 20
188.07678012605183
 30
0.0
 10
65.31053009348871
 20
187.2968251305101
 30
0.0
 10
62.66073715829851
 20
185.9999179537782
 30
0.0
 10
60.8380802349822
 20
185.10890180217822
 30
0.0
 10
59.134438714784125
 20
183.97547802390017
 30
0.0
 10
57.60747374157732
 20
182.6397484233055
 30
0.0
 10
55.7334681614725
 20
181.00097345243165
 30
0.0
 10
54.124884301598165
 20
179.054919524822
 30
0.0
 10
52.89403252142243
 20
176.8894222784462
 30
0.0
 10
51.89070671332121
 20
175.12626486200637
 30
0.0
 10
51.14130670003769
 20
173.21599857878246
 30
0.0
 10
50.69560806062103
 20
171.23597536536042
 30
0.0
 10
50.39161645343424
 20
169.88602719351024
 30
0.0
 10
50.22854312317149
 20
168.50430021702383
 30
0.0
 10
50.20807552840118
 20
167.12072821326439
 30
0.0
 10
50.168364082758266
 20
164.53631779423546
 30
0.0
 10
50.636148322903864
 20
161.955250884803
 30
0.0
 10
51.49002209848319
 20
159.52109835059358
 30
0.0
 10
52.402622230774945
 20
156.9069055996881
 30
0.0
 10
53.74086742869147
 20
154.45926286125456
 30
0.0
 10
55.306726907592356
 20
152.18439996484537
 30
0.0
 10
56.770379290116644
 20
150.05965658893706
 30
0.0
 10
58.432984739991554
 20
148.0782993199613
 30
0.0
 10
60.194811569324756
 20
146.196517992426
 30
0.0
 10
62.0213035471112
 20
144.24748238736325
 30
0.0
 10
63.95543140347712
 20
142.4035432389403
 30
0.0
 10
65.93533585366986
 20
140.6123879661467
 30
0.0
 10
69.96548449486122
 20
136.96929630964962
 30
0.0
 10
74.18289036528016
 20
133.5419159323319
 30
0.0
 10
78.25709111239097
 20
129.9493745941522
 30
0.0
 10
80.39728100472503
 20
128.06144265866826
 30
0.0
 10
82.50093840342952
 20
126.12987407328256
 30
0.0
 10
84.49952719605736
 20
124.09150094994585
 30
0.0
 10
85.72354184153556
 20
122.84190921910782
 30
0.0
 10
86.90818469429723
 20
121.55021407635256
 30
0.0
 10
88.02314305261572
 20
120.20331141391866
 30
0.0
 10
88.72960172209542
 20
119.35485164425533
 30
0.0
 10
89.40136752947514
 20
118.47810312181848
 30
0.0
 10
90.03844047475539
 20
117.57306584660833
 30
0.0
 10
90.40945207708054
 20
117.0430892063577
 30
0.0
 10
90.76428624446073
 20
116.50259913291646
 30
0.0
 10
91.10294297689595
 20
115.95159562628476
 30
0.0
 10
91.36885133946048
 20
115.51921330871271
 30
0.0
 10
91.62223013152713
 20
115.0835265757325
 30
0.0
 10
91.86307935309586
 20
114.64453542734411
 30
0.0
 10
92.10448936825064
 20
114.20793512565947
 30
0.0
 10
92.32888560610604
 20
113.75903348595442
 30
0.0
 10
92.53626806666193
 20
113.2978305082289
 30
0.0
 10
92.63568816802868
 20
113.07262495953297
 30
0.0
 10
92.73585904086738
 20
112.81836744124098
 30
0.0
 10
92.82984189828696
 20
112.56809612650774
 30
0.0
 10
92.92382362246349
 20
112.31415206197495
 30
0.0
 10
93.00990770873543
 20
112.06694906143936
 30
0.0
 10
93.08809415710266
 20
111.82648712490072
 30
0.0
 10
93.16630003978312
 20
111.5874355986274
 30
0.0
 10
93.2393416546901
 20
111.36913891581702
 30
0.0
 10
93.30608387001277
 20
111.15470915664406
 30
0.0
 10
93.37222131158656
 20
110.9366198663286
 30
0.0
 10
93.4315711299597
 20
110.7260759074462
 30
0.0
 10
93.46212289115417
 20
110.3983520471418
 30
0.0
 10
93.46996822418244
 20
110.31523685906168
 30
0.0
 10
93.47601120355164
 20
110.2636474116441
 30
0.0
 10
93.48145975678457
 20
110.18720174064148
 30
0.0
 10
93.48697774669918
 20
110.116741361125
 30
0.0
 10
93.49195117905052
 20
110.01326676919501
 30
0.0
 10
93.49945486080468
 20
110.00034617170269
 30
0.0
 10
93.50035091320706
 20
109.99942910763939
 30
0.0
 10
93.50123482489629
 20
110.00057246429542
 30
0.0
 10
93.50210659587268
 20
110.0037762416713
 30
0.0
 10
93.50783868286133
 20
110.02686940128063
 30
0.0
 10
93.51192205392391
 20
110.09392176933683
 30
0.0
 10
93.51627161263693
 20
110.15258940703096
 30
0.0
 10
93.5204960219358
 20
110.21135830153052
 30
0.0
 10
93.52520393984773
 20
110.27091339922545
 30
0.0
 10
93.53039536637259
 20
110.33125470011585
 30
0.0
 10
93.56016969600692
 20
110.72004369411414
 30
0.0
 10
93.63847642228527
 20
110.99584596731937
 30
0.0
 10
93.73394255972987
 20
111.28034424132392
 30
0.0
 10
93.88391768241432
 20
111.74637879138706
 30
0.0
 10
94.06851141586588
 20
112.3214093000023
 30
0.0
 10
94.2792274651028
 20
112.85189536682047
 30
0.0
 10
94.62417673950267
 20
113.72088206913675
 30
0.0
 10
95.05406401237198
 20
114.51854501478566
 30
0.0
 10
95.5151428264835
 20
115.31358234743826
 30
0.0
 10
96.02628083041793
 20
116.18989557084508
 30
0.0
 10
96.5779113125804
 20
117.04126799502218
 30
0.0
 10
97.17003427297084
 20
117.86769961996944
 30
0.0
 10
98.51346099290554
 20
119.73947291198893
 30
0.0
 10
100.02036954034814
 20
121.48298643982696
 30
0.0
 10
101.60068527600608
 20
123.1571695342628
 30
0.0
 10
102.6153273877886
 20
124.22585065579298
 30
0.0
 10
103.65696186825784
 20
125.26741767808801
 30
0.0
 10
104.72558871741367
 20
126.28187060114756
 30
0.0
 10
106.72562297565669
 20
128.18695660241582
 30
0.0
 10
108.797523999605
 20
130.01523345682807
 30
0.0
 10
110.8890838923787
 20
131.81860846949172
 30
0.0
 10
115.2795019651838
 20
135.60667496478254
 30
0.0
 10
119.77786453542818
 20
139.2777179013877
 30
0.0
 10
123.95362056853472
 20
143.30770720486834
 30
0.0
 10
125.74000342796346
 20
145.03571797199007
 30
0.0
 10
127.46535115315476
 20
146.83158030652154
 30
0.0
 10
129.0616142169426
 20
148.7385510614677
 30
0.0
 10
130.3027864023145
 20
150.22182945375897
 30
0.0
 10
131.4662515894015
 20
151.77260302658468
 30
0.0
 10
132.50150910692867
 20
153.40744950182867
 30
0.0
 10
133.38882635761232
 20
154.8086945935193
 30
0.0
 10
134.1818754946547
 20
156.271618118132
 30
0.0
 10
134.83758844683652
 20
157.79583105978463
 30
0.0
 10
135.45688554242096
 20
159.23539564538183
 30
0.0
 10
135.95364836468457
 20
160.7296381366089
 30
0.0
 10
136.29000248888178
 20
162.26085369448563
 30
0.0
 10
136.62635135617265
 20
163.79209802659983
 30
0.0
 10
136.8020275805747
 20
165.36013488346057
 30
0.0
 10
136.79384560236844
 20
166.92830587346887
 30
0.0
 10
136.78288237777807
 20
169.41949272155972
 30
0.0
 10
136.30045054738375
 20
171.90648237666716
 30
0.0
 10
135.38354374611032
 20
174.22256473293257
 30
0.0
 10
134.2671546125623
 20
177.05642028857136
 30
0.0
 10
132.5188956050654
 20
179.62882203164958
 30
0.0
 10
130.34552989088382
 20
181.75728813340143
 30
0.0
 10
128.04073890025336
 20
184.01665084334897
 30
0.0
 10
125.2564621760956
 20
185.78581126865788
 30
0.0
 10
122.22798460092595
 20
186.90324659693835
 30
0.0
 10
119.71992622120541
 20
187.83005557210066
 30
0.0
 10
117.04178205139085
 20
188.30504617407584
 30
0.0
 10
114.36648376906206
 20
188.26001197983913
 30
0.0
 10
112.70671646484173
 20
188.23354827228474
 30
0.0
 10
111.04995451629078
 20
188.00672412165278
 30
0.0
 10
109.44445231939731
 20
187.5846965067183
 30
0.0
 10
107.74971170895978
 20
187.13963824129195
 30
0.0
 10
106.11301023677215
 20
186.47561354756877
 30
0.0
 10
104.58418937356825
 20
185.6204395194129
 30
0.0
 10
101.44184028446199
 20
183.86560751585412
 30
0.0
 10
98.77121334984712
 20
181.30779387044052
 30
0.0
 10
96.80151443447797
 20
178.30466268395472
 30
0.0
 10
96.0916333682137
 20
177.22412390876875
 30
0.0
 10
95.47616025869122
 20
176.09225015020743
 30
0.0
 10
94.95509510591044
 20
174.90904140826976
 30
0.0
 10
94.58253798031461
 20
174.0647648087538
 30
0.0
 10
94.26870084944994
 20
173.1995599729784
 30
0.0
 10
94.01358371331632
 20
172.3134269009434
 30
0.0
 10
93.88308289042477
 20
171.8586897208537
 30
0.0
 10
93.77132489680264
 20
171.39927584433988
 30
0.0
 10
93.67830973244979
 20
170.93518527140185
 30
0.0
 10
93.58594520830964
 20
170.47120063903392
 30
0.0
 10
93.5184256676373
 20
170.00228283861586
 30
0.0
 10
93.49999999999999
 20
169.52941176470594
 30
0.0
  0
CIRCLE
  5
31
330
17
100
AcDbEntity
  8
CUT
100
AcDbCircle
 10
19.099999999999994
 20
45.3
 30
0.0
 40
1.6
  0
CIRCLE
  5
32
330
17
100
AcDbEntity
  8
CUT
100
AcDbCircle
 10
19.099999999999994
 20
254.7
 30
0.0
 40
1.6
  0
CIRCLE
  5
33
330
17
100
AcDbEntity
  8
CUT
100
AcDbCircle
 10
167.9
 20
45.3
 30
0.0
 40
1.6
  0
CIRCLE
  5
34
330
17
100
AcDbEntity
  8
CUT
100
AcDbCircle
 10
167.9
 20
254.7
 30
0.0
 40
1.6
  0
LINE
  5
35
330
17
100
AcDbEntity
  8
CUT
100
AcDbLine
 10
12.099999999999994
 20
38.3
 30
0.0
 11
78.5
 21
38.3
 31
0.0
  0
LINE
  5
36
330
17
100
AcDbEntity
  8
CUT
100
AcDbLine
 10
12.099999999999994
 20
261.7
 30
0.0
 11
12.099999999999994
 21
38.3
 31
0.0
  0
LINE
  5
37
330
17
100
AcDbEntity
  8
CUT
100
AcDbLine
 10
78.5
 20
38.3
 30
0.0
 11
78.5
 21
64.3
 31
0.0
  0
LINE
  5
38
330
17
100
AcDbEntity
  8
CUT
100
AcDbLine
 10
78.5
 20
64.3
 30
0.0
 11
108.5
 21
64.3
 31
0.0
  0
LINE
  5
39
330
17
100
AcDbEntity
  8
CUT
100
AcDbLine
 10
108.5
 20
38.3
 30
0.0
 11
174.9
 21
38.3
 31
0.0
  0
LINE
  5
3A
330
17
100
AcDbEntity
  8
CUT
100
AcDbLine
 10
108.5
 20
64.3
 30
0.0
 11
108.5
 21
38.3
 31
0.0
  0
LINE
  5
3B
330
17
100
AcDbEntity
  8
CUT
100
AcDbLine
 10
174.9
 20
38.3
 30
0.0
 11
174.9
 21
261.7
 31
0.0
  0
LINE
  5
3C
330
17
100
AcDbEntity
  8
CUT
100
AcDbLine
 10
174.9
 20
261.7
 30
0.0
 11
12.099999999999994
 21
261.7
 31
0.0
  0
ENDSEC
  0
SECTION
  2
OBJECTS
  0
DICTIONARY
  5
A
330
0
100
AcDbDictionary
281
1
  3
ACAD_COLOR
350
B
  3
ACAD_GROUP
350
C
  3
ACAD_LAYOUT
350
D
  3
ACAD_MATERIAL
350
E
  3
ACAD_MLEADERSTYLE
350
F
  3
ACAD_MLINESTYLE
350
10
  3
ACAD_PLOTSETTINGS
350
11
  3
ACAD_PLOTSTYLENAME
350
12
  3
ACAD_SCALELIST
350
14
  3
ACAD_TABLESTYLE
350
15
  3
ACAD_VISUALSTYLE
350
16
  3
EZDXF_META
350
2D
  0
DICTIONARY
  5
B
330
A
100
AcDbDictionary
281
1
  0
DICTIONARY
  5
C
330
A
100
AcDbDictionary
281
1
  0
DICTIONARY
  5
D
330
A
100
AcDbDictionary
281
1
  3
Model
350
1A
  3
Layout1
350
1E
  0
DICTIONARY
  5
E
330
A
100
AcDbDictionary
281
1
  3
ByBlock
350
1F
  3
ByLayer
350
20
  3
Global
350
21
  0
DICTIONARY
  5
F
330
A
100
AcDbDictionary
281
1
  3
Standard
350
2C
  0
DICTIONARY
  5
10
330
A
100
AcDbDictionary
281
1
  3
Standard
350
22
  0
DICTIONARY
  5
11
330
A
100
AcDbDictionary
281
1
  0
ACDBDICTIONARYWDFLT
  5
12
330
A
100
AcDbDictionary
281
1
  3
Normal
350
13
100
AcDbDictionaryWithDefault
340
13
  0
ACDBPLACEHOLDER
  5
13
330
12
  0
DICTIONARY
  5
14
330
A
100
AcDbDictionary
281
1
  0
DICTIONARY
  5
15
330
A
100
AcDbDictionary
281
1
  0
DICTIONARY
  5
16
330
A
100
AcDbDictionary
281
1
  0
LAYOUT
  5
1A
330
D
100
AcDbPlotSettings
  1

  4
A3
  6

 40
7.5
 41
20.0
 42
7.5
 43
20.0
 44
420.0
 45
297.0
 46
0.0
 47
0.0
 48
0.0
 49
0.0
140
0.0
141
0.0
142
1.0
143
1.0
 70
1024
 72
1
 73
0
 74
5
  7

 75
16
 76
0
 77
2
 78
300
147
1.0
148
0.0
149
0.0
100
AcDbLayout
  1
Model
 70
1
 71
0
 10
0.0
 20
0.0
 11
420.0
 21
297.0
 12
0.0
 22
0.0
 32
0.0
 14
1e+20
 24
1e+20
 34
1e+20
 15
-1e+20
 25
-1e+20
 35
-1e+20
146
0.0
 13
0.0
 23
0.0
 33
0.0
 16
1.0
 26
0.0
 36
0.0
 17
0.0
 27
1.0
 37
0.0
 76
1
330
17
  0
LAYOUT
  5
1E
330
D
100
AcDbPlotSettings
  1

  4
A3
  6

 40
7.5
 41
20.0
 42
7.5
 43
20.0
 44
420.0
 45
297.0
 46
0.0
 47
0.0
 48
0.0
 49
0.0
140
0.0
141
0.0
142
1.0
143
1.0
 70
0
 72
1
 73
0
 74
5
  7

 75
16
 76
0
 77
2
 78
300
147
1.0
148
0.0
149
0.0
100
AcDbLayout
  1
Layout1
 70
1
 71
1
 10
0.0
 20
0.0
 11
420.0
 21
297.0
 12
0.0
 22
0.0
 32
0.0
 14
1e+20
 24
1e+20
 34
1e+20
 15
-1e+20
 25
-1e+20
 35
-1e+20
146
0.0
 13
0.0
 23
0.0
 33
0.0
 16
1.0
 26
0.0
 36
0.0
 17
0.0
 27
1.0
 37
0.0
 76
1
330
1B
  0
MATERIAL
  5
1F
102
{ACAD_REACTORS
330
E
102
}
330
E
100
AcDbMaterial
  1
ByBlock
  2

 70
0
 40
1.0
 71
1
 41
1.0
 91
-1023410177
 42
1.0
 72
1
  3

 73
1
 74
1
 75
1
 44
0.5
 73
0
 45
1.0
 46
1.0
 77
1
  4

 78
1
 79
1
170
1
 48
1.0
171
1
  6

172
1
173
1
174
1
140
1.0
141
1.0
175
1
  7

176
1
177
1
178
1
143
1.0
179
1
  8

270
1
271
1
272
1
145
1.0
146
1.0
273
1
  9

274
1
275
1
276
1
 42
1.0
 72
1
  3

 73
1
 74
1
 75
1
 94
63
  0
MATERIAL
  5
20
102
{ACAD_REACTORS
330
E
102
}
330
E
100
AcDbMaterial
  1
ByLayer
  2

 70
0
 40
1.0
 71
1
 41
1.0
 91
-1023410177
 42
1.0
 72
1
  3

 73
1
 74
1
 75
1
 44
0.5
 73
0
 45
1.0
 46
1.0
 77
1
  4

 78
1
 79
1
170
1
 48
1.0
171
1
  6

172
1
173
1
174
1
140
1.0
141
1.0
175
1
  7

176
1
177
1
178
1
143
1.0
179
1
  8

270
1
271
1
272
1
145
1.0
146
1.0
273
1
  9

274
1
275
1
276
1
 42
1.0
 72
1
  3

 73
1
 74
1
 75
1
 94
63
  0
MATERIAL
  5
21
102
{ACAD_REACTORS
330
E
102
}
330
E
100
AcDbMaterial
  1
Global
  2

 70
0
 40
1.0
 71
1
 41
1.0
 91
-1023410177
 42
1.0
 72
1
  3

 73
1
 74
1
 75
1
 44
0.5
 73
0
 45
1.0
 46
1.0
 77
1
  4

 78
1
 79
1
170
1
 48
1.0
171
1
  6

172
1
173
1
174
1
140
1.0
141
1.0
175
1
  7

176
1
177
1
178
1
143
1.0
179
1
  8

270
1
271
1
272
1
145
1.0
146
1.0
273
1
  9

274
1
275
1
276
1
 42
1.0
 72
1
  3

 73
1
 74
1
 75
1
 94
63
  0
MLINESTYLE
  5
22
102
{ACAD_REACTORS
330
10
102
}
330
10
100
AcDbMlineStyle
  2
Standard
 70
0
  3

 62
256
 51
90.0
 52
90.0
 71
2
 49
0.5
 62
256
  6
BYLAYER
 49
-0.5
 62
256
  6
BYLAYER
  0
MLEADERSTYLE
  5
2C
102
{ACAD_REACTORS
330
F
102
}
330
F
100
AcDbMLeaderStyle
179
2
170
2
171
1
172
0
 90
2
 40
0.0
 41
0.0
173
1
 91
-1056964608
 92
-2
290
1
 42
2.0
291
1
 43
8.0
  3
Standard
 44
4.0
300

342
29
174
1
175
1
176
0
178
1
 93
-1056964608
 45
4.0
292
0
297
0
 46
4.0
 94
-1056964608
 47
1.0
 49
1.0
140
1.0
294
1
141
0.0
177
0
142
1.0
295
0
296
0
143
3.75
271
0
272
9
273
9
  0
DICTIONARY
  5
2D
330
A
100
AcDbDictionary
280
1
281
1
  3
CREATED_BY_EZDXF
350
2E
  3
WRITTEN_BY_EZDXF
350
40
  0
DICTIONARYVAR
  5
2E
330
2D
100
DictionaryVariables
280
0
  1
0.0 @ 2000-01-01T00:00:00.000000+00:00
  0
DICTIONARYVAR
  5
40
330
2D
100
DictionaryVariables
280
0
  1
0.0 @ 2000-01-01T00:00:00.000000+00:00
  0
ENDSEC
  0
EOF
