  0
SECTION
  2
HEADER
  9
$ACADVER
  1
AC1027
  9
$ACADMAINTVER
 70
105
  9
$DWGCODEPAGE
  3
ANSI_1252
  9
$LASTSAVEDBY
  1
ezdxf
  9
$REQUIREDVERSIONS
160
0
  9
$INSBASE
 10
0.0
 20
0.0
 30
0.0
  9
$EXTMIN
 10
1e+20
 20
1e+20
 30
1e+20
  9
$EXTMAX
 10
-1e+20
 20
-1e+20
 30
-1e+20
  9
$LIMMIN
 10
0.0
 20
0.0
  9
$LIMMAX
 10
420.0
 20
297.0
  9
$ORTHOMODE
 70
0
  9
$REGENMODE
 70
1
  9
$FILLMODE
 70
1
  9
$QTEXTMODE
 70
0
  9
$MIRRTEXT
 70
1
  9
$LTSCALE
 40
1.0
  9
$ATTMODE
 70
1
  9
$TEXTSIZE
 40
2.5
  9
$TRACEWID
 40
1.0
  9
$TEXTSTYLE
  7
Standard
  9
$CLAYER
  8
0
  9
$CELTYPE
  6
ByLayer
  9
$CECOLOR
 62
256
  9
$CELTSCALE
 40
1.0
  9
$DISPSILH
 70
0
  9
$DIMSCALE
 40
1.0
  9
$DIMASZ
 40
2.5
  9
$DIMEXO
 40
0.625
  9
$DIMDLI
 40
3.75
  9
$DIMRND
 40
0.0
  9
$DIMDLE
 40
0.0
  9
$DIMEXE
 40
1.25
  9
$DIMTP
 40
0.0
  9
$DIMTM
 40
0.0
  9
$DIMTXT
 40
2.5
  9
$DIMCEN
 40
2.5
  9
$DIMTSZ
 40
0.0
  9
$DIMTOL
 70
0
  9
$DIMLIM
 70
0
  9
$DIMTIH
 70
0
  9
$DIMTOH
 70
0
  9
$DIMSE1
 70
0
  9
$DIMSE2
 70
0
  9
$DIMTAD
 70
1
  9
$DIMZIN
 70
8
  9
$DIMBLK
  1

  9
$DIMASO
 70
1
  9
$DIMSHO
 70
1
  9
$DIMPOST
  1

  9
$DIMAPOST
  1

  9
$DIMALT
 70
0
  9
$DIMALTD
 70
3
  9
$DIMALTF
 40
0.03937007874
  9
$DIMLFAC
 40
1.0
  9
$DIMTOFL
 70
1
  9
$DIMTVP
 40
0.0
  9
$DIMTIX
 70
0
  9
$DIMSOXD
 70
0
  9
$DIMSAH
 70
0
  9
$DIMBLK1
  1

  9
$DIMBLK2
  1

  9
$DIMSTYLE
  2
ISO-25
  9
$DIMCLRD
 70
0
  9
$DIMCLRE
 70
0
  9
$DIMCLRT
 70
0
  9
$DIMTFAC
 40
1.0
  9
$DIMGAP
 40
0.625
  9
$DIMJUST
 70
0
  9
$DIMSD1
 70
0
  9
$DIMSD2
 70
0
  9
$DIMTOLJ
 70
0
  9
$DIMTZIN
 70
8
  9
$DIMALTZ
 70
0
  9
$DIMALTTZ
 70
0
  9
$DIMUPT
 70
0
  9
$DIMDEC
 70
2
  9
$DIMTDEC
 70
2
  9
$DIMALTU
 70
2
  9
$DIMALTTD
 70
3
  9
$DIMTXSTY
  7
Standard
  9
$DIMAUNIT
 70
0
  9
$DIMADEC
 70
0
  9
$DIMALTRND
 40
0.0
  9
$DIMAZIN
 70
0
  9
$DIMDSEP
 70
44
  9
$DIMATFIT
 70
3
  9
$DIMFRAC
 70
0
  9
$DIMLDRBLK
  1

  9
$DIMLUNIT
 70
2
  9
$DIMLWD
 70
-2
  9
$DIMLWE
 70
-2
  9
$DIMTMOVE
 70
0
  9
$DIMFXL
 40
1.0
  9
$DIMFXLON
 70
0
  9
$DIMJOGANG
 40
0.785398163397
  9
$DIMTFILL
 70
0
  9
$DIMTFILLCLR
 70
0
  9
$DIMARCSYM
 70
0
  9
$DIMLTYPE
  6

  9
$DIMLTEX1
  6

  9
$DIMLTEX2
  6

  9
$DIMTXTDIRECTION
 70
0
  9
$LUNITS
 70
2
  9
$LUPREC
 70
4
  9
$SKETCHINC
 40
1.0
  9
$FILLETRAD
 40
10.0
  9
$AUNITS
 70
0
  9
$AUPREC
 70
2
  9
$MENU
  1
.
  9
$ELEVATION
 40
0.0
  9
$PELEVATION
 40
0.0
  9
$THICKNESS
 40
0.0
  9
$LIMCHECK
 70
0
  9
$CHAMFERA
 40
0.0
  9
$CHAMFERB
 40
0.0
  9
$CHAMFERC
 40
0.0
  9
$CHAMFERD
 40
0.0
  9
$SKPOLY
 70
0
  9
$TDCREATE
 40
2451545.0
  9
$TDUCREATE
 40
2451545.0
  9
$TDUPDATE
 40
2451545.0
  9
$TDUUPDATE
 40
2451545.0
  9
$TDINDWG
 40
0.0
  9
$TDUSRTIMER
 40
0.0
  9
$USRTIMER
 70
1
  9
$ANGBASE
 50
0.0
  9
$ANGDIR
 70
0
  9
$PDMODE
 70
0
  9
$PDSIZE
 40
0.0
  9
$PLINEWID
 40
0.0
  9
$SPLFRAME
 70
0
  9
$SPLINETYPE
 70
6
  9
$SPLINESEGS
 70
8
  9
$HANDSEED
  5
41
  9
$SURFTAB1
 70
6
  9
$SURFTAB2
 70
6
  9
$SURFTYPE
 70
6
  9
$SURFU
 70
6
  9
$SURFV
 70
6
  9
$UCSBASE
  2

  9
$UCSNAME
  2

  9
$UCSORG
 10
0.0
 20
0.0
 30
0.0
  9
$UCSXDIR
 10
1.0
 20
0.0
 30
0.0
  9
$UCSYDIR
 10
0.0
 20
1.0
 30
0.0
  9
$UCSORTHOREF
  2

  9
$UCSORTHOVIEW
 70
0
  9
$UCSORGTOP
 10
0.0
 20
0.0
 30
0.0
  9
$UCSORGBOTTOM
 10
0.0
 20
0.0
 30
0.0
  9
$UCSORGLEFT
 10
0.0
 20
0.0
 30
0.0
  9
$UCSORGRIGHT
 10
0.0
 20
0.0
 30
0.0
  9
$UCSORGFRONT
 10
0.0
 20
0.0
 30
0.0
  9
$UCSORGBACK
 10
0.0
 20
0.0
 30
0.0
  9
$PUCSBASE
  2

  9
$PUCSNAME
  2

  9
$PUCSORG
 10
0.0
 20
0.0
 30
0.0
  9
$PUCSXDIR
 10
1.0
 20
0.0
 30
0.0
  9
$PUCSYDIR
 10
0.0
 20
1.0
 30
0.0
  9
$PUCSORTHOREF
  2

  9
$PUCSORTHOVIEW
 70
0
  9
$PUCSORGTOP
 10
0.0
 20
0.0
 30
0.0
  9
$PUCSORGBOTTOM
 10
0.0
 20
0.0
 30
0.0
  9
$PUCSORGLEFT
 10
0.0
 20
0.0
 30
0.0
  9
$PUCSORGRIGHT
 10
0.0
 20
0.0
 30
0.0
  9
$PUCSORGFRONT
 10
0.0
 20
0.0
 30
0.0
  9
$PUCSORGBACK
 10
0.0
 20
0.0
 30
0.0
  9
$USERI1
 70
0
  9
$USERI2
 70
0
  9
$USERI3
 70
0
  9
$USERI4
 70
0
  9
$USERI5
 70
0
  9
$USERR1
 40
0.0
  9
$USERR2
 40
0.0
  9
$USERR3
 40
0.0
  9
$USERR4
 40
0.0
  9
$USERR5
 40
0.0
  9
$WORLDVIEW
 70
1
  9
$SHADEDGE
 70
3
  9
$SHADEDIF
 70
70
  9
$TILEMODE
 70
1
  9
$MAXACTVP
 70
64
  9
$PINSBASE
 10
0.0
 20
0.0
 30
0.0
  9
$PLIMCHECK
 70
0
  9
$PEXTMIN
 10
1e+20
 20
1e+20
 30
1e+20
  9
$PEXTMAX
 10
-1e+20
 20
-1e+20
 30
-1e+20
  9
$PLIMMIN
 10
0.0
 20
0.0
  9
$PLIMMAX
 10
420.0
 20
297.0
  9
$UNITMODE
 70
0
  9
$VISRETAIN
 70
1
  9
$PLINEGEN
 70
0
  9
$PSLTSCALE
 70
1
  9
$TREEDEPTH
 70
3020
  9
$CMLSTYLE
  2
Standard
  9
$CMLJUST
 70
0
  9
$CMLSCALE
 40
20.0
  9
$PROXYGRAPHICS
 70
1
  9
$MEASUREMENT
 70
1
  9
$CELWEIGHT
370
-1
  9
$ENDCAPS
280
0
  9
$JOINSTYLE
280
0
  9
$LWDISPLAY
290
0
  9
$INSUNITS
 70
4
  9
$HYPERLINKBASE
  1

  9
$STYLESHEET
  1

  9
$XEDIT
290
1
  9
$CEPSNTYPE
380
0
  9
$PSTYLEMODE
290
1
  9
$FINGERPRINTGUID
  2
{00000000-0000-0000-0000-000000000000}
  9
$VERSIONGUID
  2
{00000000-0000-0000-0000-000000000000}
  9
$EXTNAMES
290
1
  9
$PSVPSCALE
 40
0.0
  9
$OLESTARTUP
290
0
  9
$SORTENTS
280
127
  9
$INDEXCTL
280
0
  9
$HIDETEXT
280
1
  9
$XCLIPFRAME
280
1
  9
$HALOGAP
280
0
  9
$OBSCOLOR
 70
257
  9
$OBSLTYPE
280
0
  9
$INTERSECTIONDISPLAY
280
0
  9
$INTERSECTIONCOLOR
 70
257
  9
$DIMASSOC
280
2
  9
$PROJECTNAME
  1

  9
$CAMERADISPLAY
290
0
  9
$LENSLENGTH
 40
50.0
  9
$CAMERAHEIGHT
 40
0.0
  9
$STEPSPERSEC
 40
24.0
  9
$STEPSIZE
 40
100.0
  9
$3DDWFPREC
 40
2.0
  9
$PSOLWIDTH
 40
0.005
  9
$PSOLHEIGHT
 40
0.08
  9
$LOFTANG1
 40
1.570796326795
  9
$LOFTANG2
 40
1.570796326795
  9
$LOFTMAG1
 40
0.0
  9
$LOFTMAG2
 40
0.0
  9
$LOFTPARAM
 70
7
  9
$LOFTNORMALS
280
1
  9
$LATITUDE
 40
37.795
  9
$LONGITUDE
 40
-122.394
  9
$NORTHDIRECTION
 40
0.0
  9
$TIMEZONE
 70
-8000
  9
$LIGHTGLYPHDISPLAY
280
1
  9
$TILEMODELIGHTSYNCH
280
1
  9
$CMATERIAL
347
20
  9
$SOLIDHIST
280
0
  9
$SHOWHIST
280
1
  9
$DWFFRAME
280
2
  9
$DGNFRAME
280
2
  9
$REALWORLDSCALE
290
1
  9
$INTERFERECOLOR
 62
256
  9
$CSHADOW
280
0
  9
$SHADOWPLANELOCATION
 40
0.0
  0
ENDSEC
  0
SECTION
  2
CLASSES
  0
CLASS
  1
ACDBDETAILVIEWSTYLE
  2
AcDbDetailViewStyle
  3
ObjectDBX Classes
 90
1025
 91
0
280
0
281
0
  0
CLASS
  1
ACDBDICTIONARYWDFLT
  2
AcDbDictionaryWithDefault
  3
ObjectDBX Classes
 90
0
 91
0
280
0
281
0
  0
CLASS
  1
ACDBPLACEHOLDER
  2
AcDbPlaceHolder
  3
ObjectDBX Classes
 90
0
 91
0
280
0
281
0
  0
CLASS
  1
ACDBSECTIONVIEWSTYLE
  2
AcDbSectionViewStyle
  3
ObjectDBX Classes
 90
1025
 91
0
280
0
281
0
  0
CLASS
  1
CELLSTYLEMAP
  2
AcDbCellStyleMap
  3
ObjectDBX Classes
 90
1152
 91
0
280
0
281
0
  0
CLASS
  1
DICTIONARYVAR
  2
AcDbDictionaryVar
  3
ObjectDBX Classes
 90
0
 91
0
280
0
281
0
  0
CLASS
  1
LAYOUT
  2
AcDbLayout
  3
ObjectDBX Classes
 90
0
 91
0
280
0
281
0
  0
CLASS
  1
MATERIAL
  2
AcDbMaterial
  3
ObjectDBX Classes
 90
1153
 91
0
280
0
281
0
  0
CLASS
  1
MENTALRAYRENDERSETTINGS
  2
AcDbMentalRayRenderSettings
  3
SCENEOE
 90
1024
 91
0
280
0
281
0
  0
CLASS
  1
MLEADERSTYLE
  2
AcDbMLeaderStyle
  3
ACDB_MLEADERSTYLE_CLASS
 90
4095
 91
0
280
0
281
0
  0
CLASS
  1
RASTERVARIABLES
  2
AcDbRasterVariables
  3
ISM
 90
0
 91
0
280
0
281
0
  0
CLASS
  1
SCALE
  2
AcDbScale
  3
ObjectDBX Classes
 90
1153
 91
0
280
0
281
0
  0
CLASS
  1
SUN
  2
AcDbSun
  3
SCENEOE
 90
1153
 91
0
280
0
281
0
  0
CLASS
  1
TABLESTYLE
  2
AcDbTableStyle
  3
ObjectDBX Classes
 90
4095
 91
0
280
0
281
0
  0
CLASS
  1
VISUALSTYLE
  2
AcDbVisualStyle
  3
ObjectDBX Classes
 90
4095
 91
0
280
0
281
0
  0
ENDSEC
  0
SECTION
  2
TABLES
  0
TABLE
  2
VPORT
  5
8
330
0
100
AcDbSymbolTable
 70
1
  0
VPORT
  5
3D
330
8
100
AcDbSymbolTableRecord
100
AcDbViewportTableRecord
  2
*Active
 70
0
 10
0.0
 20
0.0
 11
1.0
 21
1.0
 12
93.4
 22
103.0
 13
0.0
 23
0.0
 14
0.5
 24
0.5
 15
0.5
 25
0.5
 16
0.0
 26
0.0
 36
1.0
 17
0.0
 27
0.0
 37
0.0
 40
146.0
 41
1.34
 42
50.0
 43
0.0
 44
0.0
 50
0.0
 51
0.0
 71
0
 72
1000
 73
1
 74
3
 75
0
 76
0
 77
0
 78
0
281
0
 65
1
110
0.0
120
0.0
130
0.0
111
1.0
121
0.0
131
0.0
112
0.0
122
1.0
132
0.0
 79
0
146
0.0
  0
ENDTAB
  0
TABLE
  2
LTYPE
  5
2
330
0
100
AcDbSymbolTable
 70
3
  0
LTYPE
  5
24
330
2
100
AcDbSymbolTableRecord
100
AcDbLinetypeTableRecord
  2
ByBlock
 70
0
  3

 72
65
 73
0
 40
0.0
  0
LTYPE
  5
25
330
2
100
AcDbSymbolTableRecord
100
AcDbLinetypeTableRecord
  2
ByLayer
 70
0
  3

 72
65
 73
0
 40
0.0
  0
LTYPE
  5
26
330
2
100
AcDbSymbolTableRecord
100
AcDbLinetypeTableRecord
  2
Continuous
 70
0
  3

 72
65
 73
0
 40
0.0
  0
ENDTAB
  0
TABLE
  2
LAYER
  5
1
330
0
100
AcDbSymbolTable
 70
3
  0
LAYER
  5
27
330
1
100
AcDbSymbolTableRecord
100
AcDbLayerTableRecord
  2
0
 70
0
 62
7
  6
Continuous
370
-3
390
13
347
21
  0
LAYER
  5
28
330
1
100
AcDbSymbolTableRecord
100
AcDbLayerTableRecord
  2
Defpoints
 70
0
 62
7
  6
Continuous
290
0
370
-3
390
13
347
21
  0
LAYER
  5
2F
330
1
100
AcDbSymbolTableRecord
100
AcDbLayerTableRecord
  2
CUT
 70
0
 62
7
  6
Continuous
370
-3
390
13
347
21
  0
ENDTAB
  0
TABLE
  2
STYLE
  5
5
330
0
100
AcDbSymbolTable
 70
1
  0
STYLE
  5
29
330
5
100
AcDbSymbolTableRecord
100
AcDbTextStyleTableRecord
  2
Standard
 70
0
 40
0.0
 41
1.0
 50
0.0
 71
0
 42
2.5
  3
txt
  4

  0
ENDTAB
  0
TABLE
  2
VIEW
  5
7
330
0
100
AcDbSymbolTable
 70
0
  0
ENDTAB
  0
TABLE
  2
UCS
  5
6
330
0
100
AcDbSymbolTable
 70
0
  0
ENDTAB
  0
TABLE
  2
APPID
  5
3
330
0
100
AcDbSymbolTable
 70
3
  0
APPID
  5
2A
330
3
100
AcDbSymbolTableRecord
100
AcDbRegAppTableRecord
  2
ACAD
 70
0
  0
APPID
  5
3E
330
3
100
AcDbSymbolTableRecord
100
AcDbRegAppTableRecord
  2
HATCHBACKGROUNDCOLOR
 70
0
  0
APPID
  5
3F
330
3
100
AcDbSymbolTableRecord
100
AcDbRegAppTableRecord
  2
EZDXF
 70
0
  0
ENDTAB
  0
TABLE
  2
DIMSTYLE
  5
4
330
0
100
AcDbSymbolTable
 70
1
100
AcDbDimStyleTable
  0
DIMSTYLE
105
2B
330
4
100
AcDbSymbolTableRecord
100
AcDbDimStyleTableRecord
  2
Standard
 70
0
 40
1.0
 41
2.5
 42
0.625
 43
3.75
 44
1.25
 45
0.0
 46
0.0
 47
0.0
 48
0.0
 49
2.5
140
2.5
141
2.5
142
0.0
143
0.03937007874
144
1.0
145
0.0
146
1.0
147
0.625
148
0.0
 69
0
 70
0
 71
0
 72
0
 73
0
 74
0
 75
0
 76
0
 77
1
 78
8
 79
3
170
0
171
3
172
1
173
0
174
0
175
0
176
0
177
0
178
0
179
2
271
2
272
2
273
2
274
3
275
0
276
0
277
2
278
44
279
0
280
0
281
0
282
0
283
0
284
8
285
0
286
0
288
0
289
3
290
0
371
-2
372
-2
  0
ENDTAB
  0
TABLE
  2
BLOCK_RECORD
  5
9
330
0
100
AcDbSymbolTable
 70
2
  0
BLOCK_RECORD
  5
17
330
9
100
AcDbSymbolTableRecord
100
AcDbBlockTableRecord
  2
*Model_Space
340
1A
 70
0
280
1
281
0
  0
BLOCK_RECORD
  5
1B
330
9
100
AcDbSymbolTableRecord
100
AcDbBlockTableRecord
  2
*Paper_Space
340
1E
 70
0
280
1
281
0
  0
ENDTAB
  0
ENDSEC
  0
SECTION
  2
BLOCKS
  0
BLOCK
  5
18
330
17
100
AcDbEntity
  8
0
100
AcDbBlockBegin
  2
*Model_Space
 70
0
 10
0.0
 20
0.0
 30
0.0
  3
*Model_Space
  1

  0
ENDBLK
  5
19
330
17
100
AcDbEntity
  8
0
100
AcDbBlockEnd
  0
BLOCK
  5
1C
330
1B
100
AcDbEntity
  8
0
100
AcDbBlockBegin
  2
*Paper_Space
 70
0
 10
0.0
 20
0.0
 30
0.0
  3
*Paper_Space
  1

  0
ENDBLK
  5
1D
330
1B
100
AcDbEntity
  8
0
100
AcDbBlockEnd
  0
ENDSEC
  0
SECTION
  2
ENTITIES
  0
SPLINE
  5
30
330
17
100
AcDbEntity
  8
CUT
100
AcDbSpline
 70
0
 71
3
 72
170
 73
166
 74
0
 40
0.0
 40
0.0
 40
0.0
 40
0.0
 40
0.000320584320526113
 40
0.000320584320526113
 40
0.000320584320526113
 40
0.0006530610407305421
 40
0.0006530610407305421
 40
0.0006530610407305421
 40
0.0039548110087653625
 40
0.0039548110087653625
 40
0.0039548110087653625
 40
0.007256560976800182
 40
0.007256560976800182
 40
0.007256560976800182
 40
0.015064765911899161
 40
0.015064765911899161
 40
0.015064765911899161
 40
0.026826002005225676
 40
0.026826002005225676
 40
0.026826002005225676
 40
0.03857784152221803
 40
0.03857784152221803
 40
0.03857784152221803
 40
0.06312631920526506
 40
0.06312631920526506
 40
0.06312631920526506
 40
0.09727133694723064
 40
0.09727133694723064
 40
0.09727133694723064
 40
0.12501457059399682
 40
0.12501457059399682
 40
0.12501457059399682
 40
0.1591590817943664
 40
0.1591590817943664
 40
0.1591590817943664
 40
0.18263252366444513
 40
0.18263252366444513
 40
0.18263252366444513
 40
0.21144172144920956
 40
0.21144172144920956
 40
0.21144172144920956
 40
0.23491738024242279
 40
0.23491738024242279
 40
0.23491738024242279
 40
0.25092432779754453
 40
0.25092432779754453
 40
0.25092432779754453
 40
0.28080255615003635
 40
0.28080255615003635
 40
0.28080255615003635
 40
0.3128153147698763
 40
0.3128153147698763
 40
0.3128153147698763
 40
0.33522298286464913
 40
0.33522298286464913
 40
0.33522298286464913
 40
0.37363009820032606
 40
0.37363009820032606
 40
0.37363009820032606
 40
0.43656974447708224
 40
0.43656974447708224
 40
0.43656974447708224
 40
0.46964033675867617
 40
0.46964033675867617
 40
0.46964033675867617
 40
0.4899093707950796
 40
0.4899093707950796
 40
0.4899093707950796
 40
0.502710866962329
 40
0.502710866962329
 40
0.502710866962329
 40
0.5101784057853987
 40
0.5101784057853987
 40
0.5101784057853987
 40
0.5219073108695672
 40
0.5219073108695672
 40
0.5219073108695672
 40
0.52757305424462
 40
0.52757305424462
 40
0.52757305424462
 40
0.5304059259321464
 40
0.5304059259321464
 40
0.5304059259321464
 40
0.5332387976196729
 40
0.5332387976196729
 40
0.5332387976196729
 40
0.5339641264051188
 40
0.5339641264051188
 40
0.5339641264051188
 40
0.5346894551905648
 40
0.5346894551905648
 40
0.5346894551905648
 40
0.5347748980516553
 40
0.5347748980516553
 40
0.5347748980516553
 40
0.5353440706430235
 40
0.5353440706430235
 40
0.5353440706430235
 40
0.5359132432343917
 40
0.5359132432343917
 40
0.5359132432343917
 40
0.5394248739749888
 40
0.5394248739749888
 40
0.5394248739749888
 40
0.5450915416930144
 40
0.5450915416930144
 40
0.5450915416930144
 40
0.5543713716073371
 40
0.5543713716073371
 40
0.5543713716073371
 40
0.5645970279301648
 40
0.5645970279301648
 40
0.5645970279301648
 40
0.5878358274023477
 40
0.5878358274023477
 40
0.5878358274023477
 40
0.6027104083642835
 40
0.6027104083642835
 40
0.6027104083642835
 40
0.6305988913866066
 40
0.6305988913866066
 40
0.6305988913866066
 40
0.689164786942918
 40
0.689164786942918
 40
0.689164786942918
 40
0.7142644149838404
 40
0.7142644149838404
 40
0.7142644149838404
 40
0.7505228963058003
 40
0.7505228963058003
 40
0.7505228963058003
 40
0.7663297436127587
 40
0.7663297436127587
 40
0.7663297436127587
 40
0.7821395873074529
 40
0.7821395873074529
 40
0.7821395873074529
 40
0.8072507979935868
 40
0.8072507979935868
 40
0.8072507979935868
 40
0.8379403006188306
 40
0.8379403006188306
 40
0.8379403006188306
 40
0.8704873888172209
 40
0.8704873888172209
 40
0.8704873888172209
 40
0.8974554186079369
 40
0.8974554186079369
 40
0.8974554186079369
 40
0.9318624928377887
 40
0.9318624928377887
 40
0.9318624928377887
 40
0.9681292060582383
 40
0.9681292060582383
 40
0.9681292060582383
 40
0.9811480261881264
 40
0.9811480261881264
 40
0.9811480261881264
 40
0.9904472458822616
 40
0.9904472458822616
 40
0.9904472458822616
 40
0.9952236229411309
 40
0.9952236229411309
 40
0.9952236229411309
 40
1.0
 40
1.0
 40
1.0
 40
1.0
 10
93.4
 20
122.29411764705888
 30
0.0
 10
93.39937221941877
 20
122.27672393427355
 30
0.0
 10
93.39848390246874
 20
122.26790514741037
 30
0.0
 10
93.39733504914967
 20
122.26766128646905
 30
0.0
 10
93.39616247619998
 20
122.26998803974269
 30
0.0
 10
93.39502363641589
 20
122.28051907022004
 30
0.0
 10
93.39391852979725
 20
122.29925437790084
 30
0.0
 10
93.38264909697435
 20
122.50378325544739
 30
0.0
 10
93.37389636789145
 20
122.76548045881138
 30
0.0
 10
93.35060190595163
 20
122.9688887028079
 30
0.0
 10
93.32824022314732
 20
123.17797018721159
 30
0.0
 10
93.29089841057716
 20
123.33142571295116
 30
0.0
 10
93.24702346768687
 20
123.47422118818442
 30
0.0
 10
93.1454209357524
 20
123.81330860036886
 30
0.0
 10
93.0191982107074
 20
124.35188436604247
 30
0.0
 10
92.86840097242121
 20
124.86544041418313
 30
0.0
 10
92.642831229523
 20
125.63896050452922
 30
0.0
 10
92.3425286011825
 20
126.32862515377016
 30
0.0
 10
92.00053257044372
 20
127.01405418503379
 30
0.0
 10
91.65934450062218
 20
127.69986650916586
 30
0.0
 10
91.27752632549314
 20
128.37866702784927
 30
0.0
 10
90.8527212453261
 20
129.02509931319122
 30
0.0
 10
89.96462574723725
 20
130.37362589288153
 30
0.0
 10
88.89059957428981
 20
131.5903896232144
 30
0.0
 10
87.66754369776366
 20
132.64578510490097
 30
0.0
 10
85.96752606655191
 20
134.1114469007129
 30
0.0
 10
83.96557973692568
 20
135.22955493179987
 30
0.0
 10
81.81436503694471
 20
135.87770627590282
 30
0.0
 10
80.06782827983795
 20
136.4061099117449
 30
0.0
 10
78.22883785340737
 20
136.6234752869569
 30
0.0
 10
76.40702065234755
 20
136.52490697124276
 30
0.0
 10
74.16371930394706
 20
136.40624567970494
 30
0.0
 10
71.95149233799653
 20
135.81280239047572
 30
0.0
 10
69.93534312323389
 20
134.8260246856114
 30
0.0
 10
68.54853974718542
 20
134.1480772535091
 30
0.0
 10
67.25229007254724
 20
133.28568994808222
 30
0.0
 10
66.0904692067802
 20
132.26937374417835
 30
0.0
 10
64.66459525066475
 20
131.02247988112072
 30
0.0
 10
63.44067285884414
 20
129.54178656563045
 30
0.0
 10
62.504155179328215
 20
127.89412564661914
 30
0.0
 10
61.74075505301987
 20
126.55259281950731
 30
0.0
 10
61.17055956258237
 20
125.09912937521557
 30
0.0
 10
60.83144081509301
 20
123.59258993310077
 30
0.0
 10
60.600143059954505
 20
122.56545549343046
 30
0.0
 10
60.476065326746344
 20
121.51414145143131
 30
0.0
 10
60.460492323227584
 20
120.46142365489092
 30
0.0
 10
60.43027692526497
 20
118.4950243902946
 30
0.0
 10
60.786199857172875
 20
116.53116916060063
 30
0.0
 10
61.43588637929072
 20
114.67909657107506
 30
0.0
 10
62.130256045211986
 20
112.69003686914942
 30
0.0
 10
63.14848608727302
 20
110.82770000278096
 30
0.0
 10
64.33990090795403
 20
109.09682606020235
 30
0.0
 10
65.17465196084133
 20
107.88439641552259
 30
0.0
 10
66.09620047918985
 20
106.73303855726596
 30
0.0
 10
67.06903305955099
 20
105.62932302170664
 30
0.0
 10
68.73876354667988
 20
103.73759501865997
 30
0.0
 10
70.55743679267317
 20
101.98391969980118
 30
0.0
 10
72.42688588352836
 20
100.29203428406912
 30
0.0
 10
75.49326282301166
 20
97.52015227703508
 30
0.0
 10
78.70219243584819
 20
94.9123326650849
 30
0.0
 10
81.80213454206081
 20
92.17887197379004
 30
0.0
 10
83.4305398949472
 20
90.74240202285675
 30
0.0
 10
85.03114878522092
 20
89.27273027314621
 30
0.0
 10
86.5518141709363
 20
87.7217942010222
 30
0.0
 10
87.48312966205977
 20
86.77101788408044
 30
0.0
 10
88.38448835437848
 20
85.7882063624177
 30
0.0
 10
89.232826235707
 20
84.76338911926028
 30
0.0
 10
89.77034913639746
 20
84.11782190321162
 30
0.0
 10
90.28147529418584
 20
83.45073063613972
 30
0.0
 10
90.7662047090721
 20
82.76211531804435
 30
0.0
 10
91.04849614562455
 20
82.35887222219908
 30
0.0
 10
91.31847866428198
 20
81.94762977501657
 30
0.0
 10
91.57615226504431
 20
81.52838797649662
 30
0.0
 10
91.97940928290771
 20
80.86704934294342
 30
0.0
 10
92.35199802349254
 20
80.21212775027092
 30
0.0
 10
92.66672570291169
 20
79.50921886492289
 30
0.0
 10
92.8190498234553
 20
79.1622069560946
 30
0.0
 10
92.96945045717987
 20
78.74976569944526
 30
0.0
 10
93.08659338041471
 20
78.38971846456654
 30
0.0
 10
93.14624180424107
 20
78.20997301774403
 30
0.0
 10
93.20152905026832
 20
78.03959454753515
 30
0.0
 10
93.25245511849681
 20
77.87858305394022
 30
0.0
 10
93.30277708491164
 20
77.71264555043955
 30
0.0
 10
93.34793455540857
 20
77.55244905998086
 30
0.0
 10
93.37118046066405
 20
77.30309394886737
 30
0.0
 10
93.37714973579502
 20
77.23985413183664
 30
0.0
 10
93.38174765487895
 20
77.20060129142946
 30
0.0
 10
93.38589329320816
 20
77.14243610697534
 30
0.0
 10
93.39009176379486
 20
77.08882494865547
 30
0.0
 10
93.39387589710604
 20
77.01009428087524
 30
0.0
 10
93.39958522018043
 20
77.00026339151057
 30
0.0
 10
93.40026699918124
 20
76.99956562538033
 30
0.0
 10
93.40093954068449
 20
77.00043557066523
 30
0.0
 10
93.40160284469013
 20
77.00287322736511
 30
0.0
 10
93.40596421522271
 20
77.02044410970035
 30
0.0
 10
93.40907112798797
 20
77.07146221582985
 30
0.0
 10
93.41238057483508
 20
77.1161006358205
 30
0.0
 10
93.41559479930196
 20
77.16081609903353
 30
0.0
 10
93.41917691075709
 20
77.20612976032702
 30
0.0
 10
93.42312690920053
 20
77.25204161970112
 30
0.0
 10
93.44578129044686
 20
77.54785933251476
 30
0.0
 10
93.50536249522682
 20
77.75770888820686
 30
0.0
 10
93.5779997737167
 20
77.97417496625292
 30
0.0
 10
93.69211128010852
 20
78.32876647174103
 30
0.0
 10
93.83256303382261
 20
78.76628968481795
 30
0.0
 10
93.99289046259135
 20
79.16992038783143
 30
0.0
 10
94.25535186702658
 20
79.83110592219869
 30
0.0
 10
94.58244000943264
 20
80.43802338084633
 30
0.0
 10
94.93326084625106
 20
81.04294309046988
 30
0.0
 10
95.3221701970742
 20
81.70970315175836
 30
0.0
 10
95.74188904220095
 20
82.35748651798059
 30
0.0
 10
96.19241738163122
 20
82.98629318913642
 30
0.0
 10
97.21458988592468
 20
84.41046852001675
 30
0.0
 10
98.36115073724619
 20
85.73705489989511
 30
0.0
 10
99.56356488394118
 20
87.01088986305095
 30
0.0
 10
100.33557518638497
 20
87.82401680334517
 30
0.0
 10
101.12812316065548
 20
88.61651345074316
 30
0.0
 10
101.94120880675257
 20
89.38837980524461
 30
0.0
 10
103.46297400326702
 20
90.83790176275251
 30
0.0
 10
105.0394204345392
 20
92.22898197807304
 30
0.0
 10
106.63082470075895
 20
93.60111513986
 30
0.0
 10
109.97136019082915
 20
96.48333964705719
 30
0.0
 10
113.39402736392634
 20
99.27652449019537
 30
0.0
 10
116.57123304130137
 20
102.34282069938043
 30
0.0
 10
117.93043739078989
 20
103.65761150037532
 30
0.0
 10
119.24320196431141
 20
105.02402849403622
 30
0.0
 10
120.45774994768942
 20
106.47498450330892
 30
0.0
 10
122.20890788189962
 20
108.56834811068859
 30
0.0
 10
123.76840113256442
 20
110.85063959906849
 30
0.0
 10
124.85251294869386
 20
113.36639319769422
 30
0.0
 10
125.32371726054947
 20
114.46171407804084
 30
0.0
 10
125.70168897313937
 20
115.59863771267007
 30
0.0
 10
125.95761058937423
 20
116.76369302844786
 30
0.0
 10
126.21352820578852
 20
117.92877023766428
 30
0.0
 10
126.34719489826585
 20
119.12184175918952
 30
0.0
 10
126.34096948006287
 20
120.31501533854451
 30
0.0
 10
126.33262789613227
 20
122.21048359252555
 30
0.0
 10
125.96556019908452
 20
124.10275833010894
 30
0.0
 10
125.2679137198559
 20
125.86499490552434
 30
0.0
 10
124.41848749206535
 20
128.0211890075065
 30
0.0
 10
123.08828953681369
 20
129.97845225919417
 30
0.0
 10
121.43464279762186
 20
131.59793603897597
 30
0.0
 10
119.68099270427552
 20
133.31702111744406
 30
0.0
 10
117.56252293808078
 20
134.66311740398564
 30
0.0
 10
115.25824957691397
 20
135.51334001922308
 30
0.0
 10
113.34994158391368
 20
136.2185209386859
 30
0.0
 10
111.31222439292708
 20
136.57992653608878
 30
0.0
 10
109.2766724329468
 20
136.54566128900802
 30
0.0
 10
106.67968730202735
 20
136.5080414339599
 30
0.0
 10
104.09742546376856
 20
135.8086233820289
 30
0.0
 10
101.83362234942676
 20
134.53729093866633
 30
0.0
 10
99.44270456423308
 20
133.20209267508474
 30
0.0
 10
97.41070580964521
 20
131.2559301187874
 30
0.0
 10
95.91202185230097
 20
128.97093899863185
 30
0.0
 10
95.37189495405794
 20
128.1487899305549
 30
0.0
 10
94.90360019681441
 20
127.2875816359962
 30
0.0
 10
94.50713758057009
 20
126.38731411495536
 30
0.0
 10
94.22367020240047
 20
125.7449297457588
 30
0.0
 10
93.9848810810919
 20
125.08662171853759
 30
0.0
 10
93.79077021664416
 20
124.4123900332916
 30
0.0
 10
93.69147611227251
 20
124.06639435279493
 30
0.0
 10
93.60644285625773
 20
123.71684031632304
 30
0.0
 10
93.53567044859965
 20
123.36372792387553
 30
0.0
 10
93.46231805293381
 20
123.01057187639272
 30
0.0
 10
93.41709457006729
 20
122.65403511745374
 30
0.0
 10
93.4
 20
122.2941176470588
 30
0.0
  0
LINE
  5
31
330
17
100
AcDbEntity
  8
CUT
100
AcDbLine
 10
38.400000000000006
 20
36.0
 30
0.0
 11
49.400000000000006
 21
36.0
 31
0.0
  0
LINE
  5
32
330
17
100
AcDbEntity
  8
CUT
100
AcDbLine
 10
38.400000000000006
 20
176.0
 30
0.0
 11
38.400000000000006
 21
36.0
 31
0.0
  0
LINE
  5
33
330
17
100
AcDbEntity
  8
CUT
100
AcDbLine
 10
49.400000000000006
 20
30.0
 30
0.0
 11
73.4
 21
30.0
 31
0.0
  0
LINE
  5
34
330
17
100
AcDbEntity
  8
CUT
100
AcDbLine
 10
49.400000000000006
 20
36.0
 30
0.0
 11
49.400000000000006
 21
30.0
 31
0.0
  0
LINE
  5
35
330
17
100
AcDbEntity
  8
CUT
100
AcDbLine
 10
73.4
 20
30.0
 30
0.0
 11
73.4
 21
36.0
 31
0.0
  0
LINE
  5
36
330
17
100
AcDbEntity
  8
CUT
100
AcDbLine
 10
73.4
 20
36.0
 30
0.0
 11
113.4
 21
36.0
 31
0.0
  0
LINE
  5
37
330
17
100
AcDbEntity
  8
CUT
100
AcDbLine
 10
113.4
 20
30.0
 30
0.0
 11
137.4
 21
30.0
 31
0.0
  0
LINE
  5
38
330
17
100
AcDbEntity
  8
CUT
100
AcDbLine
 10
113.4
 20
36.0
 30
0.0
 11
113.4
 21
30.0
 31
0.0
  0
LINE
  5
39
330
17
100
AcDbEntity
  8
CUT
100
AcDbLine
 10
137.4
 20
30.0
 30
0.0
 11
137.4
 21
36.0
 31
0.0
  0
LINE
  5
3A
330
17
100
AcDbEntity
  8
CUT
100
AcDbLine
 10
137.4
 20
36.0
 30
0.0
 11
148.4
 21
36.0
 31
0.0
  0
LINE
  5
3B
330
17
100
AcDbEntity
  8
CUT
100
AcDbLine
 10
148.4
 20
36.0
 30
0.0
 11
148.4
 21
176.0
 31
0.0
  0
LINE
  5
3C
330
17
100
AcDbEntity
  8
CUT
100
AcDbLine
 10
148.4
 20
176.0
 30
0.0
 11
38.400000000000006
 21
176.0
 31
0.0
  0
ENDSEC
  0
SECTION
  2
OBJECTS
  0
DICTIONARY
  5
A
330
0
100
AcDbDictionary
281
1
  3
ACAD_COLOR
350
B
  3
ACAD_GROUP
350
C
  3
ACAD_LAYOUT
350
D
  3
ACAD_MATERIAL
350
E
  3
ACAD_MLEADERSTYLE
350
F
  3
ACAD_MLINESTYLE
350
10
  3
ACAD_PLOTSETTINGS
350
11
  3
ACAD_PLOTSTYLENAME
350
12
  3
ACAD_SCALELIST
350
14
  3
ACAD_TABLESTYLE
350
15
  3
ACAD_VISUALSTYLE
350
16
  3
EZDXF_META
350
2D
  0
DICTIONARY
  5
B
330
A
100
AcDbDictionary
281
1
  0
DICTIONARY
  5
C
330
A
100
AcDbDictionary
281
1
  0
DICTIONARY
  5
D
330
A
100
AcDbDictionary
281
1
  3
Model
350
1A
  3
Layout1
350
1E
  0
DICTIONARY
  5
E
330
A
100
AcDbDictionary
281
1
  3
ByBlock
350
1F
  3
ByLayer
350
20
  3
Global
350
21
  0
DICTIONARY
  5
F
330
A
100
AcDbDictionary
281
1
  3
Standard
350
2C
  0
DICTIONARY
  5
10
330
A
100
AcDbDictionary
281
1
  3
Standard
350
22
  0
DICTIONARY
  5
11
330
A
100
AcDbDictionary
281
1
  0
ACDBDICTIONARYWDFLT
  5
12
330
A
100
AcDbDictionary
281
1
  3
Normal
350
13
100
AcDbDictionaryWithDefault
340
13
  0
ACDBPLACEHOLDER
  5
13
330
12
  0
DICTIONARY
  5
14
330
A
100
AcDbDictionary
281
1
  0
DICTIONARY
  5
15
330
A
100
AcDbDictionary
281
1
  0
DICTIONARY
  5
16
330
A
100
AcDbDictionary
281
1
  0
LAYOUT
  5
1A
330
D
100
AcDbPlotSettings
  1

  4
A3
  6

 40
7.5
 41
20.0
 42
7.5
 43
20.0
 44
420.0
 45
297.0
 46
0.0
 47
0.0
 48
0.0
 49
0.0
140
0.0
141
0.0
142
1.0
143
1.0
 70
1024
 72
1
 73
0
 74
5
  7

 75
16
 76
0
 77
2
 78
300
147
1.0
148
0.0
149
0.0
100
AcDbLayout
  1
Model
 70
1
 71
0
 10
0.0
 20
0.0
 11
420.0
 21
297.0
 12
0.0
 22
0.0
 32
0.0
 14
1e+20
 24
1e+20
 34
1e+20
 15
-1e+20
 25
-1e+20
 35
-1e+20
146
0.0
 13
0.0
 23
0.0
 33
0.0
 16
1.0
 26
0.0
 36
0.0
 17
0.0
 27
1.0
 37
0.0
 76
1
330
17
  0
LAYOUT
  5
1E
330
D
100
AcDbPlotSettings
  1

  4
A3
  6

 40
7.5
 41
20.0
 42
7.5
 43
20.0
 44
420.0
 45
297.0
 46
0.0
 47
0.0
 48
0.0
 49
0.0
140
0.0
141
0.0
142
1.0
143
1.0
 70
0
 72
1
 73
0
 74
5
  7

 75
16
 76
0
 77
2
 78
300
147
1.0
148
0.0
149
0.0
100
AcDbLayout
  1
Layout1
 70
1
 71
1
 10
0.0
 20
0.0
 11
420.0
 21
297.0
 12
0.0
 22
0.0
 32
0.0
 14
1e+20
 24
1e+20
 34
1e+20
 15
-1e+20
 25
-1e+20
 35
-1e+20
146
0.0
 13
0.0
 23
0.0
 33
0.0
 16
1.0
 26
0.0
 36
0.0
 17
0.0
 27
1.0
 37
0.0
 76
1
330
1B
  0
MATERIAL
  5
1F
102
{ACAD_REACTORS
330
E
102
}
330
E
100
AcDbMaterial
  1
ByBlock
  2

 70
0
 40
1.0
 71
1
 41
1.0
 91
-1023410177
 42
1.0
 72
1
  3

 73
1
 74
1
 75
1
 44
0.5
 73
0
 45
1.0
 46
1.0
 77
1
  4

 78
1
 79
1
170
1
 48
1.0
171
1
  6

172
1
173
1
174
1
140
1.0
141
1.0
175
1
  7

176
1
177
1
178
1
143
1.0
179
1
  8

270
1
271
1
272
1
145
1.0
146
1.0
273
1
  9

274
1
275
1
276
1
 42
1.0
 72
1
  3

 73
1
 74
1
 75
1
 94
63
  0
MATERIAL
  5
20
102
{ACAD_REACTORS
330
E
102
}
330
E
100
AcDbMaterial
  1
ByLayer
  2

 70
0
 40
1.0
 71
1
 41
1.0
 91
-1023410177
 42
1.0
 72
1
  3

 73
1
 74
1
 75
1
 44
0.5
 73
0
 45
1.0
 46
1.0
 77
1
  4

 78
1
 79
1
170
1
 48
1.0
171
1
  6

172
1
173
1
174
1
140
1.0
141
1.0
175
1
  7

176
1
177
1
178
1
143
1.0
179
1
  8

270
1
271
1
272
1
145
1.0
146
1.0
273
1
  9

274
1
275
1
276
1
 42
1.0
 72
1
  3

 73
1
 74
1
 75
1
 94
63
  0
MATERIAL
  5
21
102
{ACAD_REACTORS
330
E
102
}
330
E
100
AcDbMaterial
  1
Global
  2

 70
0
 40
1.0
 71
1
 41
1.0
 91
-1023410177
 42
1.0
 72
1
  3

 73
1
 74
1
 75
1
 44
0.5
 73
0
 45
1.0
 46
1.0
 77
1
  4

 78
1
 79
1
170
1
 48
1.0
171
1
  6

172
1
173
1
174
1
140
1.0
141
1.0
175
1
  7

176
1
177
1
178
1
143
1.0
179
1
  8

270
1
271
1
272
1
145
1.0
146
1.0
273
1
  9

274
1
275
1
276
1
 42
1.0
 72
1
  3

 73
1
 74
1
 75
1
 94
63
  0
MLINESTYLE
  5
22
102
{ACAD_REACTORS
330
10
102
}
330
10
100
AcDbMlineStyle
  2
Standard
 70
0
  3

 62
256
 51
90.0
 52
90.0
 71
2
 49
0.5
 62
256
  6
BYLAYER
 49
-0.5
 62
256
  6
BYLAYER
  0
MLEADERSTYLE
  5
2C
102
{ACAD_REACTORS
330
F
102
}
330
F
100
AcDbMLeaderStyle
179
2
170
2
171
1
172
0
 90
2
 40
0.0
 41
0.0
173
1
 91
-1056964608
 92
-2
290
1
 42
2.0
291
1
 43
8.0
  3
Standard
 44
4.0
300

342
29
174
1
175
1
176
0
178
1
 93
-1056964608
 45
4.0
292
0
297
0
 46
4.0
 94
-1056964608
 47
1.0
 49
1.0
140
1.0
294
1
141
0.0
177
0
142
1.0
295
0
296
0
143
3.75
271
0
272
9
273
9
  0
DICTIONARY
  5
2D
330
A
100
AcDbDictionary
280
1
281
1
  3
CREATED_BY_EZDXF
350
2E
  3
WRITTEN_BY_EZDXF
350
40
  0
DICTIONARYVAR
  5
2E
330
2D
100
DictionaryVariables
280
0
  1
0.0 @ 2000-01-01T00:00:00.000000+00:00
  0
DICTIONARYVAR
  5
40
330
2D
100
DictionaryVariables
280
0
  1
0.0 @ 2000-01-01T00:00:00.000000+00:00
  0
ENDSEC
  0
EOF
