  0
SECTION
  2
HEADER
  9
$ACADVER
  1
AC1027
  9
$ACADMAINTVER
 70
105
  9
$DWGCODEPAGE
  3
ANSI_1252
  9
$LASTSAVEDBY
  1
ezdxf
  9
$REQUIREDVERSIONS
160
0
  9
$INSBASE
 10
0.0
 20
0.0
 30
0.0
  9
$EXTMIN
 10
1e+20
 20
1e+20
 30
1e+20
  9
$EXTMAX
 10
-1e+20
 20
-1e+20
 30
-1e+20
  9
$LIMMIN
 10
0.0
 20
0.0
  9
$LIMMAX
 10
420.0
 20
297.0
  9
$ORTHOMODE
 70
0
  9
$REGENMODE
 70
1
  9
$FILLMODE
 70
1
  9
$QTEXTMODE
 70
0
  9
$MIRRTEXT
 70
1
  9
$LTSCALE
 40
1.0
  9
$ATTMODE
 70
1
  9
$TEXTSIZE
 40
2.5
  9
$TRACEWID
 40
1.0
  9
$TEXTSTYLE
  7
Standard
  9
$CLAYER
  8
0
  9
$CELTYPE
  6
ByLayer
  9
$CECOLOR
 62
256
  9
$CELTSCALE
 40
1.0
  9
$DISPSILH
 70
0
  9
$DIMSCALE
 40
1.0
  9
$DIMASZ
 40
2.5
  9
$DIMEXO
 40
0.625
  9
$DIMDLI
 40
3.75
  9
$DIMRND
 40
0.0
  9
$DIMDLE
 40
0.0
  9
$DIMEXE
 40
1.25
  9
$DIMTP
 40
0.0
  9
$DIMTM
 40
0.0
  9
$DIMTXT
 40
2.5
  9
$DIMCEN
 40
2.5
  9
$DIMTSZ
 40
0.0
  9
$DIMTOL
 70
0
  9
$DIMLIM
 70
0
  9
$DIMTIH
 70
0
  9
$DIMTOH
 70
0
  9
$DIMSE1
 70
0
  9
$DIMSE2
 70
0
  9
$DIMTAD
 70
1
  9
$DIMZIN
 70
8
  9
$DIMBLK
  1

  9
$DIMASO
 70
1
  9
$DIMSHO
 70
1
  9
$DIMPOST
  1

  9
$DIMAPOST
  1

  9
$DIMALT
 70
0
  9
$DIMALTD
 70
3
  9
$DIMALTF
 40
0.03937007874
  9
$DIMLFAC
 40
1.0
  9
$DIMTOFL
 70
1
  9
$DIMTVP
 40
0.0
  9
$DIMTIX
 70
0
  9
$DIMSOXD
 70
0
  9
$DIMSAH
 70
0
  9
$DIMBLK1
  1

  9
$DIMBLK2
  1

  9
$DIMSTYLE
  2
ISO-25
  9
$DIMCLRD
 70
0
  9
$DIMCLRE
 70
0
  9
$DIMCLRT
 70
0
  9
$DIMTFAC
 40
1.0
  9
$DIMGAP
 40
0.625
  9
$DIMJUST
 70
0
  9
$DIMSD1
 70
0
  9
$DIMSD2
 70
0
  9
$DIMTOLJ
 70
0
  9
$DIMTZIN
 70
8
  9
$DIMALTZ
 70
0
  9
$DIMALTTZ
 70
0
  9
$DIMUPT
 70
0
  9
$DIMDEC
 70
2
  9
$DIMTDEC
 70
2
  9
$DIMALTU
 70
2
  9
$DIMALTTD
 70
3
  9
$DIMTXSTY
  7
Standard
  9
$DIMAUNIT
 70
0
  9
$DIMADEC
 70
0
  9
$DIMALTRND
 40
0.0
  9
$DIMAZIN
 70
0
  9
$DIMDSEP
 70
44
  9
$DIMATFIT
 70
3
  9
$DIMFRAC
 70
0
  9
$DIMLDRBLK
  1

  9
$DIMLUNIT
 70
2
  9
$DIMLWD
 70
-2
  9
$DIMLWE
 70
-2
  9
$DIMTMOVE
 70
0
  9
$DIMFXL
 40
1.0
  9
$DIMFXLON
 70
0
  9
$DIMJOGANG
 40
0.785398163397
  9
$DIMTFILL
 70
0
  9
$DIMTFILLCLR
 70
0
  9
$DIMARCSYM
 70
0
  9
$DIMLTYPE
  6

  9
$DIMLTEX1
  6

  9
$DIMLTEX2
  6

  9
$DIMTXTDIRECTION
 70
0
  9
$LUNITS
 70
2
  9
$LUPREC
 70
4
  9
$SKETCHINC
 40
1.0
  9
$FILLETRAD
 40
10.0
  9
$AUNITS
 70
0
  9
$AUPREC
 70
2
  9
$MENU
  1
.
  9
$ELEVATION
 40
0.0
  9
$PELEVATION
 40
0.0
  9
$THICKNESS
 40
0.0
  9
$LIMCHECK
 70
0
  9
$CHAMFERA
 40
0.0
  9
$CHAMFERB
 40
0.0
  9
$CHAMFERC
 40
0.0
  9
$CHAMFERD
 40
0.0
  9
$SKPOLY
 70
0
  9
$TDCREATE
 40
2451545.0
  9
$TDUCREATE
 40
2451545.0
  9
$TDUPDATE
 40
2451545.0
  9
$TDUUPDATE
 40
2451545.0
  9
$TDINDWG
 40
0.0
  9
$TDUSRTIMER
 40
0.0
  9
$USRTIMER
 70
1
  9
$ANGBASE
 50
0.0
  9
$ANGDIR
 70
0
  9
$PDMODE
 70
0
  9
$PDSIZE
 40
0.0
  9
$PLINEWID
 40
0.0
  9
$SPLFRAME
 70
0
  9
$SPLINETYPE
 70
6
  9
$SPLINESEGS
 70
8
  9
$HANDSEED
  5
41
  9
$SURFTAB1
 70
6
  9
$SURFTAB2
 70
6
  9
$SURFTYPE
 70
6
  9
$SURFU
 70
6
  9
$SURFV
 70
6
  9
$UCSBASE
  2

  9
$UCSNAME
  2

  9
$UCSORG
 10
0.0
 20
0.0
 30
0.0
  9
$UCSXDIR
 10
1.0
 20
0.0
 30
0.0
  9
$UCSYDIR
 10
0.0
 20
1.0
 30
0.0
  9
$UCSORTHOREF
  2

  9
$UCSORTHOVIEW
 70
0
  9
$UCSORGTOP
 10
0.0
 20
0.0
 30
0.0
  9
$UCSORGBOTTOM
 10
0.0
 20
0.0
 30
0.0
  9
$UCSORGLEFT
 10
0.0
 20
0.0
 30
0.0
  9
$UCSORGRIGHT
 10
0.0
 20
0.0
 30
0.0
  9
$UCSORGFRONT
 10
0.0
 20
0.0
 30
0.0
  9
$UCSORGBACK
 10
0.0
 20
0.0
 30
0.0
  9
$PUCSBASE
  2

  9
$PUCSNAME
  2

  9
$PUCSORG
 10
0.0
 20
0.0
 30
0.0
  9
$PUCSXDIR
 10
1.0
 20
0.0
 30
0.0
  9
$PUCSYDIR
 10
0.0
 20
1.0
 30
0.0
  9
$PUCSORTHOREF
  2

  9
$PUCSORTHOVIEW
 70
0
  9
$PUCSORGTOP
 10
0.0
 20
0.0
 30
0.0
  9
$PUCSORGBOTTOM
 10
0.0
 20
0.0
 30
0.0
  9
$PUCSORGLEFT
 10
0.0
 20
0.0
 30
0.0
  9
$PUCSORGRIGHT
 10
0.0
 20
0.0
 30
0.0
  9
$PUCSORGFRONT
 10
0.0
 20
0.0
 30
0.0
  9
$PUCSORGBACK
 10
0.0
 20
0.0
 30
0.0
  9
$USERI1
 70
0
  9
$USERI2
 70
0
  9
$USERI3
 70
0
  9
$USERI4
 70
0
  9
$USERI5
 70
0
  9
$USERR1
 40
0.0
  9
$USERR2
 40
0.0
  9
$USERR3
 40
0.0
  9
$USERR4
 40
0.0
  9
$USERR5
 40
0.0
  9
$WORLDVIEW
 70
1
  9
$SHADEDGE
 70
3
  9
$SHADEDIF
 70
70
  9
$TILEMODE
 70
1
  9
$MAXACTVP
 70
64
  9
$PINSBASE
 10
0.0
 20
0.0
 30
0.0
  9
$PLIMCHECK
 70
0
  9
$PEXTMIN
 10
1e+20
 20
1e+20
 30
1e+20
  9
$PEXTMAX
 10
-1e+20
 20
-1e+20
 30
-1e+20
  9
$PLIMMIN
 10
0.0
 20
0.0
  9
$PLIMMAX
 10
420.0
 20
297.0
  9
$UNITMODE
 70
0
  9
$VISRETAIN
 70
1
  9
$PLINEGEN
 70
0
  9
$PSLTSCALE
 70
1
  9
$TREEDEPTH
 70
3020
  9
$CMLSTYLE
  2
Standard
  9
$CMLJUST
 70
0
  9
$CMLSCALE
 40
20.0
  9
$PROXYGRAPHICS
 70
1
  9
$MEASUREMENT
 70
1
  9
$CELWEIGHT
370
-1
  9
$ENDCAPS
280
0
  9
$JOINSTYLE
280
0
  9
$LWDISPLAY
290
0
  9
$INSUNITS
 70
4
  9
$HYPERLINKBASE
  1

  9
$STYLESHEET
  1

  9
$XEDIT
290
1
  9
$CEPSNTYPE
380
0
  9
$PSTYLEMODE
290
1
  9
$FINGERPRINTGUID
  2
{00000000-0000-0000-0000-000000000000}
  9
$VERSIONGUID
  2
{00000000-0000-0000-0000-000000000000}
  9
$EXTNAMES
290
1
  9
$PSVPSCALE
 40
0.0
  9
$OLESTARTUP
290
0
  9
$SORTENTS
280
127
  9
$INDEXCTL
280
0
  9
$HIDETEXT
280
1
  9
$XCLIPFRAME
280
1
  9
$HALOGAP
280
0
  9
$OBSCOLOR
 70
257
  9
$OBSLTYPE
280
0
  9
$INTERSECTIONDISPLAY
280
0
  9
$INTERSECTIONCOLOR
 70
257
  9
$DIMASSOC
280
2
  9
$PROJECTNAME
  1

  9
$CAMERADISPLAY
290
0
  9
$LENSLENGTH
 40
50.0
  9
$CAMERAHEIGHT
 40
0.0
  9
$STEPSPERSEC
 40
24.0
  9
$STEPSIZE
 40
100.0
  9
$3DDWFPREC
 40
2.0
  9
$PSOLWIDTH
 40
0.005
  9
$PSOLHEIGHT
 40
0.08
  9
$LOFTANG1
 40
1.570796326795
  9
$LOFTANG2
 40
1.570796326795
  9
$LOFTMAG1
 40
0.0
  9
$LOFTMAG2
 40
0.0
  9
$LOFTPARAM
 70
7
  9
$LOFTNORMALS
280
1
  9
$LATITUDE
 40
37.795
  9
$LONGITUDE
 40
-122.394
  9
$NORTHDIRECTION
 40
0.0
  9
$TIMEZONE
 70
-8000
  9
$LIGHTGLYPHDISPLAY
280
1
  9
$TILEMODELIGHTSYNCH
280
1
  9
$CMATERIAL
347
20
  9
$SOLIDHIST
280
0
  9
$SHOWHIST
280
1
  9
$DWFFRAME
280
2
  9
$DGNFRAME
280
2
  9
$REALWORLDSCALE
290
1
  9
$INTERFERECOLOR
 62
256
  9
$CSHADOW
280
0
  9
$SHADOWPLANELOCATION
 40
0.0
  0
ENDSEC
  0
SECTION
  2
CLASSES
  0
CLASS
  1
ACDBDETAILVIEWSTYLE
  2
AcDbDetailViewStyle
  3
ObjectDBX Classes
 90
1025
 91
0
280
0
281
0
  0
CLASS
  1
ACDBDICTIONARYWDFLT
  2
AcDbDictionaryWithDefault
  3
ObjectDBX Classes
 90
0
 91
0
280
0
281
0
  0
CLASS
  1
ACDBPLACEHOLDER
  2
AcDbPlaceHolder
  3
ObjectDBX Classes
 90
0
 91
0
280
0
281
0
  0
CLASS
  1
ACDBSECTIONVIEWSTYLE
  2
AcDbSectionViewStyle
  3
ObjectDBX Classes
 90
1025
 91
0
280
0
281
0
  0
CLASS
  1
CELLSTYLEMAP
  2
AcDbCellStyleMap
  3
ObjectDBX Classes
 90
1152
 91
0
280
0
281
0
  0
CLASS
  1
DICTIONARYVAR
  2
AcDbDictionaryVar
  3
ObjectDBX Classes
 90
0
 91
0
280
0
281
0
  0
CLASS
  1
LAYOUT
  2
AcDbLayout
  3
ObjectDBX Classes
 90
0
 91
0
280
0
281
0
  0
CLASS
  1
MATERIAL
  2
AcDbMaterial
  3
ObjectDBX Classes
 90
1153
 91
0
280
0
281
0
  0
CLASS
  1
MENTALRAYRENDERSETTINGS
  2
AcDbMentalRayRenderSettings
  3
SCENEOE
 90
1024
 91
0
280
0
281
0
  0
CLASS
  1
MLEADERSTYLE
  2
AcDbMLeaderStyle
  3
ACDB_MLEADERSTYLE_CLASS
 90
4095
 91
0
280
0
281
0
  0
CLASS
  1
RASTERVARIABLES
  2
AcDbRasterVariables
  3
ISM
 90
0
 91
0
280
0
281
0
  0
CLASS
  1
SCALE
  2
AcDbScale
  3
ObjectDBX Classes
 90
1153
 91
0
280
0
281
0
  0
CLASS
  1
SUN
  2
AcDbSun
  3
SCENEOE
 90
1153
 91
0
280
0
281
0
  0
CLASS
  1
TABLESTYLE
  2
AcDbTableStyle
  3
ObjectDBX Classes
 90
4095
 91
0
280
0
281
0
  0
CLASS
  1
VISUALSTYLE
  2
AcDbVisualStyle
  3
ObjectDBX Classes
 90
4095
 91
0
280
0
281
0
  0
ENDSEC
  0
SECTION
  2
TABLES
  0
TABLE
  2
VPORT
  5
8
330
0
100
AcDbSymbolTable
 70
1
  0
VPORT
  5
3D
330
8
100
AcDbSymbolTableRecord
100
AcDbViewportTableRecord
  2
*Active
 70
0
 10
0.0
 20
0.0
 11
1.0
 21
1.0
 12
93.5
 22
140.0
 13
0.0
 23
0.0
 14
0.5
 24
0.5
 15
0.5
 25
0.5
 16
0.0
 26
0.0
 36
1.0
 17
0.0
 27
0.0
 37
0.0
 40
223.39999999999998
 41
1.34
 42
50.0
 43
0.0
 44
0.0
 50
0.0
 51
0.0
 71
0
 72
1000
 73
1
 74
3
 75
0
 76
0
 77
0
 78
0
281
0
 65
1
110
0.0
120
0.0
130
0.0
111
1.0
121
0.0
131
0.0
112
0.0
122
1.0
132
0.0
 79
0
146
0.0
  0
ENDTAB
  0
TABLE
  2
LTYPE
  5
2
330
0
100
AcDbSymbolTable
 70
3
  0
LTYPE
  5
24
330
2
100
AcDbSymbolTableRecord
100
AcDbLinetypeTableRecord
  2
ByBlock
 70
0
  3

 72
65
 73
0
 40
0.0
  0
LTYPE
  5
25
330
2
100
AcDbSymbolTableRecord
100
AcDbLinetypeTableRecord
  2
ByLayer
 70
0
  3

 72
65
 73
0
 40
0.0
  0
LTYPE
  5
26
330
2
100
AcDbSymbolTableRecord
100
AcDbLinetypeTableRecord
  2
Continuous
 70
0
  3

 72
65
 73
0
 40
0.0
  0
ENDTAB
  0
TABLE
  2
LAYER
  5
1
330
0
100
AcDbSymbolTable
 70
3
  0
LAYER
  5
27
330
1
100
AcDbSymbolTableRecord
100
AcDbLayerTableRecord
  2
0
 70
0
 62
7
  6
Continuous
370
-3
390
13
347
21
  0
LAYER
  5
28
330
1
100
AcDbSymbolTableRecord
100
AcDbLayerTableRecord
  2
Defpoints
 70
0
 62
7
  6
Continuous
290
0
370
-3
390
13
347
21
  0
LAYER
  5
2F
330
1
100
AcDbSymbolTableRecord
100
AcDbLayerTableRecord
  2
CUT
 70
0
 62
7
  6
Continuous
370
-3
390
13
347
21
  0
ENDTAB
  0
TABLE
  2
STYLE
  5
5
330
0
100
AcDbSymbolTable
 70
1
  0
STYLE
  5
29
330
5
100
AcDbSymbolTableRecord
100
AcDbTextStyleTableRecord
  2
Standard
 70
0
 40
0.0
 41
1.0
 50
0.0
 71
0
 42
2.5
  3
txt
  4

  0
ENDTAB
  0
TABLE
  2
VIEW
  5
7
330
0
100
AcDbSymbolTable
 70
0
  0
ENDTAB
  0
TABLE
  2
UCS
  5
6
330
0
100
AcDbSymbolTable
 70
0
  0
ENDTAB
  0
TABLE
  2
APPID
  5
3
330
0
100
AcDbSymbolTable
 70
3
  0
APPID
  5
2A
330
3
100
AcDbSymbolTableRecord
100
AcDbRegAppTableRecord
  2
ACAD
 70
0
  0
APPID
  5
3E
330
3
100
AcDbSymbolTableRecord
100
AcDbRegAppTableRecord
  2
HATCHBACKGROUNDCOLOR
 70
0
  0
APPID
  5
3F
330
3
100
AcDbSymbolTableRecord
100
AcDbRegAppTableRecord
  2
EZDXF
 70
0
  0
ENDTAB
  0
TABLE
  2
DIMSTYLE
  5
4
330
0
100
AcDbSymbolTable
 70
1
100
AcDbDimStyleTable
  0
DIMSTYLE
105
2B
330
4
100
AcDbSymbolTableRecord
100
AcDbDimStyleTableRecord
  2
Standard
 70
0
 40
1.0
 41
2.5
 42
0.625
 43
3.75
 44
1.25
 45
0.0
 46
0.0
 47
0.0
 48
0.0
 49
2.5
140
2.5
141
2.5
142
0.0
143
0.03937007874
144
1.0
145
0.0
146
1.0
147
0.625
148
0.0
 69
0
 70
0
 71
0
 72
0
 73
0
 74
0
 75
0
 76
0
 77
1
 78
8
 79
3
170
0
171
3
172
1
173
0
174
0
175
0
176
0
177
0
178
0
179
2
271
2
272
2
273
2
274
3
275
0
276
0
277
2
278
44
279
0
280
0
281
0
282
0
283
0
284
8
285
0
286
0
288
0
289
3
290
0
371
-2
372
-2
  0
ENDTAB
  0
TABLE
  2
BLOCK_RECORD
  5
9
330
0
100
AcDbSymbolTable
 70
2
  0
BLOCK_RECORD
  5
17
330
9
100
AcDbSymbolTableRecord
100
AcDbBlockTableRecord
  2
*Model_Space
340
1A
 70
0
280
1
281
0
  0
BLOCK_RECORD
  5
1B
330
9
100
AcDbSymbolTableRecord
100
AcDbBlockTableRecord
  2
*Paper_Space
340
1E
 70
0
280
1
281
0
  0
ENDTAB
  0
ENDSEC
  0
SECTION
  2
BLOCKS
  0
BLOCK
  5
18
330
17
100
AcDbEntity
  8
0
100
AcDbBlockBegin
  2
*Model_Space
 70
0
 10
0.0
 20
0.0
 30
0.0
  3
*Model_Space
  1

  0
ENDBLK
  5
19
330
17
100
AcDbEntity
  8
0
100
AcDbBlockEnd
  0
BLOCK
  5
1C
330
1B
100
AcDbEntity
  8
0
100
AcDbBlockBegin
  2
*Paper_Space
 70
0
 10
0.0
 20
0.0
 30
0.0
  3
*Paper_Space
  1

  0
ENDBLK
  5
1D
330
1B
100
AcDbEntity
  8
0
100
AcDbBlockEnd
  0
ENDSEC
  0
SECTION
  2
ENTITIES
  0
SPLINE
  5
30
330
17
100
AcDbEntity
  8
CUT
100
AcDbSpline
 70
0
 71
3
 72
188
 73
184
 74
0
 40
0.0
 40
0.0
 40
0.0
 40
0.0
 40
0.00027935368288467554
 40
0.00027935368288467554
 40
0.00027935368288467554
 40
0.0005689765398485677
 40
0.0005689765398485677
 40
0.0005689765398485677
 40
0.0021885380362372145
 40
0.0021885380362372145
 40
0.0021885380362372145
 40
0.003808099532625861
 40
0.003808099532625861
 40
0.003808099532625861
 40
0.007047222525403155
 40
0.007047222525403155
 40
0.007047222525403155
 40
0.015430146026195118
 40
0.015430146026195118
 40
0.015430146026195118
 40
0.028759934631145033
 40
0.028759934631145033
 40
0.028759934631145033
 40
0.04935497364290924
 40
0.04935497364290924
 40
0.04935497364290924
 40
0.06390816048764357
 40
0.06390816048764357
 40
0.06390816048764357
 40
0.09544143904643528
 40
0.09544143904643528
 40
0.09544143904643528
 40
0.12697796972114317
 40
0.12697796972114317
 40
0.12697796972114317
 40
0.16336621490897246
 40
0.16336621490897246
 40
0.16336621490897246
 40
0.1949010552359811
 40
0.1949010552359811
 40
0.1949010552359811
 40
0.2215843616747808
 40
0.2215843616747808
 40
0.2215843616747808
 40
0.2519086687305615
 40
0.2519086687305615
 40
0.2519086687305615
 40
0.2834474362273584
 40
0.2834474362273584
 40
0.2834474362273584
 40
0.30649420004437283
 40
0.30649420004437283
 40
0.30649420004437283
 40
0.3392361539770423
 40
0.3392361539770423
 40
0.3392361539770423
 40
0.36833668193885827
 40
0.36833668193885827
 40
0.36833668193885827
 40
0.4010697740760593
 40
0.4010697740760593
 40
0.4010697740760593
 40
0.43501128367784353
 40
0.43501128367784353
 40
0.43501128367784353
 40
0.4944076246470728
 40
0.4944076246470728
 40
0.4944076246470728
 40
0.5198637907631329
 40
0.5198637907631329
 40
0.5198637907631329
 40
0.5550175864695317
 40
0.5550175864695317
 40
0.5550175864695317
 40
0.5695640096588068
 40
0.5695640096588068
 40
0.5695640096588068
 40
0.5780487590469771
 40
0.5780487590469771
 40
0.5780487590469771
 40
0.584714827803835
 40
0.584714827803835
 40
0.584714827803835
 40
0.5913808965606929
 40
0.5913808965606929
 40
0.5913808965606929
 40
0.5978860994214308
 40
0.5978860994214308
 40
0.5978860994214308
 40
0.6011387008517998
 40
0.6011387008517998
 40
0.6011387008517998
 40
0.6043913022821688
 40
0.6043913022821688
 40
0.6043913022821688
 40
0.6052949520682539
 40
0.6052949520682539
 40
0.6052949520682539
 40
0.606198601854339
 40
0.606198601854339
 40
0.606198601854339
 40
0.606307819641918
 40
0.606307819641918
 40
0.606307819641918
 40
0.6074809548607045
 40
0.6074809548607045
 40
0.6074809548607045
 40
0.608654090079491
 40
0.608654090079491
 40
0.608654090079491
 40
0.6098272252982775
 40
0.6098272252982775
 40
0.6098272252982775
 40
0.6110003605170639
 40
0.6110003605170639
 40
0.6110003605170639
 40
0.6157826842278675
 40
0.6157826842278675
 40
0.6157826842278675
 40
0.6236186330792239
 40
0.6236186330792239
 40
0.6236186330792239
 40
0.6322553617431119
 40
0.6322553617431119
 40
0.6322553617431119
 40
0.6401041357426233
 40
0.6401041357426233
 40
0.6401041357426233
 40
0.655022260852033
 40
0.655022260852033
 40
0.655022260852033
 40
0.6879987894039563
 40
0.6879987894039563
 40
0.6879987894039563
 40
0.7249011299676692
 40
0.7249011299676692
 40
0.7249011299676692
 40
0.7515965505682677
 40
0.7515965505682677
 40
0.7515965505682677
 40
0.780649976335501
 40
0.780649976335501
 40
0.780649976335501
 40
0.8026391370977889
 40
0.8026391370977889
 40
0.8026391370977889
 40
0.8159930842857294
 40
0.8159930842857294
 40
0.8159930842857294
 40
0.8285616586055864
 40
0.8285616586055864
 40
0.8285616586055864
 40
0.8458434380473925
 40
0.8458434380473925
 40
0.8458434380473925
 40
0.8741211202959711
 40
0.8741211202959711
 40
0.8741211202959711
 40
0.905539929508327
 40
0.905539929508327
 40
0.905539929508327
 40
0.9212492826773729
 40
0.9212492826773729
 40
0.9212492826773729
 40
0.9330312329300975
 40
0.9330312329300975
 40
0.9330312329300975
 40
0.9495247689446636
 40
0.9495247689446636
 40
0.9495247689446636
 40
0.9636614533827981
 40
0.9636614533827981
 40
0.9636614533827981
 40
0.9840811512364694
 40
0.9840811512364694
 40
0.9840811512364694
 40
0.9919350267269118
 40
0.9919350267269118
 40
0.9919350267269118
 40
0.9959675133634559
 40
0.9959675133634559
 40
0.9959675133634559
 40
1.0
 40
1.0
 40
1.0
 40
1.0
 10
93.49999999999999
 20
159.52941176470588
 30
0.0
 10
93.49917717623802
 20
159.50659605233008
 30
0.0
 10
93.49800963472464
 20
159.49500900068415
 30
0.0
 10
93.49649737545961
 20
159.4946506097678
 30
0.0
 10
93.49493066483122
 20
159.49875020269818
 30
0.0
 10
93.49345410921892
 20
159.51172274641686
 30
0.0
 10
93.49206770862303
 20
159.53356824092458
 30
0.0
 10
93.48459562722451
 20
159.64818606876025
 30
0.0
 10
93.47880736017083
 20
159.82107639121037
 30
0.0
 10
93.46996812475315
 20
159.97340250694614
 30
0.0
 10
93.46152131373651
 20
160.12972772067167
 30
0.0
 10
93.44988962122036
 20
160.27656840875613
 30
0.0
 10
93.43507304720451
 20
160.41392457119923
 30
0.0
 10
93.40588448950969
 20
160.69223565466058
 30
0.0
 10
93.3561682291121
 20
160.89466488773775
 30
0.0
 10
93.29761436600718
 20
161.0862614181852
 30
0.0
 10
93.14723823524653
 20
161.59682170722402
 30
0.0
 10
92.98777416509512
 20
162.27571890597977
 30
0.0
 10
92.80132905763139
 20
162.90843117088872
 30
0.0
 10
92.50485535175824
 20
163.92589592667036
 30
0.0
 10
92.11018502872405
 20
164.83165744063524
 30
0.0
 10
91.66070664863564
 20
165.7328628179253
 30
0.0
 10
90.96832694376813
 20
167.12825740541848
 30
0.0
 10
90.14374681176295
 20
168.49428476769253
 30
0.0
 10
89.18881584603015
 20
169.7282904670692
 30
0.0
 10
88.5140183758492
 20
170.60387646368096
 30
0.0
 10
87.77970922613271
 20
171.42803101525863
 30
0.0
 10
86.9858883968807
 20
172.2007541218022
 30
0.0
 10
85.26923878016561
 20
173.87372488020375
 30
0.0
 10
83.28105212873487
 20
175.27117446168907
 30
0.0
 10
81.1111766861187
 20
176.2913176548359
 30
0.0
 10
78.94271840912994
 20
177.3144316949456
 30
0.0
 10
76.5947968847236
 20
177.9559445175521
 30
0.0
 10
74.20658355492164
 20
178.174902130426
 30
0.0
 10
71.45060462381693
 20
178.43062824107403
 30
0.0
 10
68.64864247574702
 20
178.1247673059174
 30
0.0
 10
66.00301841397548
 20
177.31743998941857
 30
0.0
 10
63.70901165614507
 20
176.61930336867022
 30
0.0
 10
61.529968818682214
 20
175.54977368065497
 30
0.0
 10
59.56621292884194
 20
174.17472585440476
 30
0.0
 10
57.90446715203375
 20
173.01134929172667
 30
0.0
 10
56.395327860100565
 20
171.62865851993803
 30
0.0
 10
55.09778681269497
 20
170.06890998039665
 30
0.0
 10
53.62325231985748
 20
168.29689374739576
 30
0.0
 10
52.42262935891677
 20
166.2937451826762
 30
0.0
 10
51.585688254872395
 20
164.1440771419143
 30
0.0
 10
50.712077541405286
 20
161.9101399509444
 30
0.0
 10
50.24167305277702
 20
159.51943449506683
 30
0.0
 10
50.208080794700564
 20
157.12072963293804
 30
0.0
 10
50.18208664627838
 20
155.36817462798552
 30
0.0
 10
50.38692329668116
 20
153.61392804282542
 30
0.0
 10
50.7902482510455
 20
151.90900133876798
 30
0.0
 10
51.36329206225371
 20
149.48471860412852
 30
0.0
 10
52.332909141826946
 20
147.1649592894016
 30
0.0
 10
53.54967976222427
 20
144.99667823978072
 30
0.0
 10
54.63214471725025
 20
143.0664553241478
 30
0.0
 10
55.90552506186946
 20
141.25056119218607
 30
0.0
 10
57.29066684705832
 20
139.52792872722068
 30
0.0
 10
58.849340921211606
 20
137.58982000354183
 30
0.0
 10
60.548457593735364
 20
135.76871553741202
 30
0.0
 10
62.31635977300289
 20
134.0211457231982
 30
0.0
 10
64.150545037561
 20
132.2091860233076
 30
0.0
 10
66.0609010380894
 20
130.47611240726303
 30
0.0
 10
67.99890775333635
 20
128.77660592552445
 30
0.0
 10
71.39160057874489
 20
125.80303788541983
 30
0.0
 10
74.87301551946851
 20
122.93279242817813
 30
0.0
 10
78.25709119399923
 20
119.94937460513815
 30
0.0
 10
79.70733596821934
 20
118.6707242629779
 30
0.0
 10
81.13951548560782
 20
117.37123688452698
 30
0.0
 10
82.53488466831529
 20
116.03287830800667
 30
0.0
 10
84.46033872760361
 20
114.18510277969982
 30
0.0
 10
86.32014269160908
 20
112.25957755605135
 30
0.0
 10
88.02314396758202
 20
110.20331292655972
 30
0.0
 10
88.72959938067
 20
109.35486205026245
 30
0.0
 10
89.40136673660692
 20
108.47810445406571
 30
0.0
 10
90.03844603539272
 20
107.57304013796931
 30
0.0
 10
90.40944276580578
 20
107.04302398997741
 30
0.0
 10
90.76428226970788
 20
106.50259645187377
 30
0.0
 10
91.10296454709915
 20
105.95175752365847
 30
0.0
 10
91.3688489598487
 20
105.51924564229708
 30
0.0
 10
91.62222331403846
 20
105.0834992585262
 30
0.0
 10
91.86308760966824
 20
104.64451837234559
 30
0.0
 10
92.10363212708424
 20
104.20527457567914
 30
0.0
 10
92.32975402584363
 20
103.76219405178419
 30
0.0
 10
92.5360226010561
 20
103.29307669099195
 30
0.0
 10
92.73896345299923
 20
102.83272453757253
 30
0.0
 10
92.93292160405156
 20
102.30651445977594
 30
0.0
 10
93.0873514255848
 20
101.82771809604927
 30
0.0
 10
93.16641328104618
 20
101.5903028211814
 30
0.0
 10
93.23970996709215
 20
101.36577985238964
 30
0.0
 10
93.30724148372255
 20
101.1541491896739
 30
0.0
 10
93.3739896295729
 20
100.93723171004254
 30
0.0
 10
93.43034066997916
 20
100.72613009823634
 30
0.0
 10
93.46200164590587
 20
100.41795667471261
 30
0.0
 10
93.47088931269329
 20
100.33459528882985
 30
0.0
 10
93.47589478949749
 20
100.26959271866406
 30
0.0
 10
93.48123134117
 20
100.18576983950045
 30
0.0
 10
93.48647132975461
 20
100.10709506003307
 30
0.0
 10
93.4920423932075
 20
100.00959997156802
 30
0.0
 10
93.49945402991624
 20
100.00025224088388
 30
0.0
 10
93.50035073004395
 20
99.99948469131446
 30
0.0
 10
93.50123512817606
 20
100.00061979040011
 30
0.0
 10
93.50210722431241
 20
100.00365753814083
 30
0.0
 10
93.51107616565015
 20
100.03925229415545
 30
0.0
 10
93.51714094545999
 20
100.1903681936804
 30
0.0
 10
93.5290503795971
 20
100.32230955150679
 30
0.0
 10
93.54081580422275
 20
100.46075013287863
 30
0.0
 10
93.55671646432032
 20
100.58540627230322
 30
0.0
 10
93.57675235988967
 20
100.69627796978035
 30
0.0
 10
93.59664616324115
 20
100.80414276356355
 30
0.0
 10
93.61918075890598
 20
100.90243927160223
 30
0.0
 10
93.64435614688396
 20
100.9911674938961
 30
0.0
 10
93.66972667042918
 20
101.08293916496477
 30
0.0
 10
93.69729410863525
 20
101.16779378195758
 30
0.0
 10
93.73393336645117
 20
101.28079814261177
 30
0.0
 10
93.8839011615968
 20
101.7460559094263
 30
0.0
 10
94.06852946478695
 20
102.32156754792058
 30
0.0
 10
94.27923774079885
 20
102.85176959154842
 30
0.0
 10
94.62417598894625
 20
103.72097809171188
 30
0.0
 10
95.05405827658414
 20
104.51852849689547
 30
0.0
 10
95.51514772981116
 20
105.31354263722324
 30
0.0
 10
96.02627780453787
 20
106.18988692685241
 30
0.0
 10
96.57790880395464
 20
107.04128227505407
 30
0.0
 10
97.17004072806131
 20
107.86772868182804
 30
0.0
 10
97.7077589799217
 20
108.61631083894332
 30
0.0
 10
98.26932058937723
 20
109.34546992117949
 30
0.0
 10
98.85472555642757
 20
110.05520592853647
 30
0.0
 10
99.96494926959451
 20
111.4066719224678
 30
0.0
 10
101.14516337878797
 20
112.70140399654112
 30
0.0
 10
102.3662136996372
 20
113.9541185424959
 30
0.0
 10
105.06838491609949
 20
116.72183803712987
 30
0.0
 10
107.96214040446395
 20
119.29321821108486
 30
0.0
 10
110.88908373933775
 20
121.81860849790495
 30
0.0
 10
114.16613715266672
 20
124.64395190959092
 30
0.0
 10
117.49799527465754
 20
127.40632317106093
 30
0.0
 10
120.71690330523855
 20
130.29879605751796
 30
0.0
 10
123.043995969945
 20
132.3916770805392
 30
0.0
 10
125.31413075826485
 20
134.55297010535347
 30
0.0
 10
127.42484984942115
 20
136.86701135775263
 30
0.0
 10
129.71700598457974
 20
139.38452716613384
 30
0.0
 10
131.8284800258792
 20
142.0892562004357
 30
0.0
 10
133.49140978955518
 20
145.07019628967046
 30
0.0
 10
134.7473648145344
 20
147.3217475390622
 30
0.0
 10
135.73587509216458
 20
149.73718042577772
 30
0.0
 10
136.29000209256606
 20
152.26085408817383
 30
0.0
 10
136.62636116865446
 20
153.79214035168587
 30
0.0
 10
136.8020313680894
 20
155.3602130925399
 30
0.0
 10
136.79384363469063
 20
156.92830638586503
 30
0.0
 10
136.78614083481742
 20
158.4041381645045
 30
0.0
 10
136.616046390088
 20
159.87970503329916
 30
0.0
 10
136.285698763163
 20
161.31817210502425
 30
0.0
 10
135.8316287635245
 20
163.2963149674664
 30
0.0
 10
135.07444937628168
 20
165.20345461327742
 30
0.0
 10
134.0641652510982
 20
166.962605363075
 30
0.0
 10
132.4114360720914
 20
169.84427263283243
 30
0.0
 10
130.09051261312885
 20
172.33005677233135
 30
0.0
 10
127.36467059683908
 20
174.22292825971775
 30
0.0
 10
124.33769942334062
 20
176.32821009855402
 30
0.0
 10
120.79562336018225
 20
177.7046710317677
 30
0.0
 10
117.1280117667799
 20
178.12399456052762
 30
0.0
 10
115.29556798886846
 20
178.33448910214713
 30
0.0
 10
113.43528125016105
 20
178.30701420923452
 30
0.0
 10
111.6112682056763
 20
178.03129612901037
 30
0.0
 10
110.24327671147081
 20
177.82511487375004
 30
0.0
 10
108.89619465452313
 20
177.4811190086624
 30
0.0
 10
107.59743161659786
 20
177.0050209696988
 30
0.0
 10
105.77858023509653
 20
176.3395910187695
 30
0.0
 10
104.05580083106663
 20
175.4164043775824
 30
0.0
 10
102.48719114148705
 20
174.2816897560529
 30
0.0
 10
101.14200422321174
 20
173.30963868328712
 30
0.0
 10
99.90977047193383
 20
172.1836844007152
 30
0.0
 10
98.8121687892576
 20
170.93982781556184
 30
0.0
 10
97.22729012916213
 20
169.14263526140078
 30
0.0
 10
95.91979402364066
 20
167.1018422894621
 30
0.0
 10
94.9550945190543
 20
164.90904146124186
 30
0.0
 10
94.58259950480961
 20
164.0647651627882
 30
0.0
 10
94.2687125450072
 20
163.19956000522353
 30
0.0
 10
94.01343363964685
 20
162.31342598854766
 30
0.0
 10
93.8830791489738
 20
161.85874354449078
 30
0.0
 10
93.77136471473302
 20
161.39931245098253
 30
0.0
 10
93.6782903369242
 20
160.93513270802273
 30
0.0
 10
93.58596957379235
 20
160.47109753089728
 30
0.0
 10
93.51842507875202
 20
160.00251413957812
 30
0.0
 10
93.49999999999997
 20
159.5294117647059
 30
0.0
  0
CIRCLE
  5
31
330
17
100
AcDbEntity
  8
CUT
100
AcDbCircle
 10
19.099999999999994
 20
35.3
 30
0.0
 40
1.6
  0
CIRCLE
  5
32
330
17
100
AcDbEntity
  8
CUT
100
AcDbCircle
 10
19.099999999999994
 20
244.7
 30
0.0
 40
1.6
  0
CIRCLE
  5
33
330
17
100
AcDbEntity
  8
CUT
100
AcDbCircle
 10
167.9
 20
35.3
 30
0.0
 40
1.6
  0
CIRCLE
  5
34
330
17
100
AcDbEntity
  8
CUT
100
AcDbCircle
 10
167.9
 20
244.7
 30
0.0
 40
1.6
  0
LINE
  5
35
330
17
100
AcDbEntity
  8
CUT
100
AcDbLine
 10
12.099999999999994
 20
28.299999999999997
 30
0.0
 11
78.5
 21
28.299999999999997
 31
0.0
  0
LINE
  5
36
330
17
100
AcDbEntity
  8
CUT
100
AcDbLine
 10
12.099999999999994
 20
251.7
 30
0.0
 11
12.099999999999994
 21
28.299999999999997
 31
0.0
  0
LINE
  5
37
330
17
100
AcDbEntity
  8
CUT
100
AcDbLine
 10
78.5
 20
28.299999999999997
 30
0.0
 11
78.5
 21
54.3
 31
0.0
  0
LINE
  5
38
330
17
100
AcDbEntity
  8
CUT
100
AcDbLine
 10
78.5
 20
54.3
 30
0.0
 11
108.5
 21
54.3
 31
0.0
  0
LINE
  5
39
330
17
100
AcDbEntity
  8
CUT
100
AcDbLine
 10
108.5
 20
28.299999999999997
 30
0.0
 11
174.9
 21
28.299999999999997
 31
0.0
  0
LINE
  5
3A
330
17
100
AcDbEntity
  8
CUT
100
AcDbLine
 10
108.5
 20
54.3
 30
0.0
 11
108.5
 21
28.299999999999997
 31
0.0
  0
LINE
  5
3B
330
17
100
AcDbEntity
  8
CUT
100
AcDbLine
 10
174.9
 20
28.299999999999997
 30
0.0
 11
174.9
 21
251.7
 31
0.0
  0
LINE
  5
3C
330
17
100
AcDbEntity
  8
CUT
100
AcDbLine
 10
174.9
 20
251.7
 30
0.0
 11
12.099999999999994
 21
251.7
 31
0.0
  0
ENDSEC
  0
SECTION
  2
OBJECTS
  0
DICTIONARY
  5
A
330
0
100
AcDbDictionary
281
1
  3
ACAD_COLOR
350
B
  3
ACAD_GROUP
350
C
  3
ACAD_LAYOUT
350
D
  3
ACAD_MATERIAL
350
E
  3
ACAD_MLEADERSTYLE
350
F
  3
ACAD_MLINESTYLE
350
10
  3
ACAD_PLOTSETTINGS
350
11
  3
ACAD_PLOTSTYLENAME
350
12
  3
ACAD_SCALELIST
350
14
  3
ACAD_TABLESTYLE
350
15
  3
ACAD_VISUALSTYLE
350
16
  3
EZDXF_META
350
2D
  0
DICTIONARY
  5
B
330
A
100
AcDbDictionary
281
1
  0
DICTIONARY
  5
C
330
A
100
AcDbDictionary
281
1
  0
DICTIONARY
  5
D
330
A
100
AcDbDictionary
281
1
  3
Model
350
1A
  3
Layout1
350
1E
  0
DICTIONARY
  5
E
330
A
100
AcDbDictionary
281
1
  3
ByBlock
350
1F
  3
ByLayer
350
20
  3
Global
350
21
  0
DICTIONARY
  5
F
330
A
100
AcDbDictionary
281
1
  3
Standard
350
2C
  0
DICTIONARY
  5
10
330
A
100
AcDbDictionary
281
1
  3
Standard
350
22
  0
DICTIONARY
  5
11
330
A
100
AcDbDictionary
281
1
  0
ACDBDICTIONARYWDFLT
  5
12
330
A
100
AcDbDictionary
281
1
  3
Normal
350
13
100
AcDbDictionaryWithDefault
340
13
  0
ACDBPLACEHOLDER
  5
13
330
12
  0
DICTIONARY
  5
14
330
A
100
AcDbDictionary
281
1
  0
DICTIONARY
  5
15
330
A
100
AcDbDictionary
281
1
  0
DICTIONARY
  5
16
330
A
100
AcDbDictionary
281
1
  0
LAYOUT
  5
1A
330
D
100
AcDbPlotSettings
  1

  4
A3
  6

 40
7.5
 41
20.0
 42
7.5
 43
20.0
 44
420.0
 45
297.0
 46
0.0
 47
0.0
 48
0.0
 49
0.0
140
0.0
141
0.0
142
1.0
143
1.0
 70
1024
 72
1
 73
0
 74
5
  7

 75
16
 76
0
 77
2
 78
300
147
1.0
148
0.0
149
0.0
100
AcDbLayout
  1
Model
 70
1
 71
0
 10
0.0
 20
0.0
 11
420.0
 21
297.0
 12
0.0
 22
0.0
 32
0.0
 14
1e+20
 24
1e+20
 34
1e+20
 15
-1e+20
 25
-1e+20
 35
-1e+20
146
0.0
 13
0.0
 23
0.0
 33
0.0
 16
1.0
 26
0.0
 36
0.0
 17
0.0
 27
1.0
 37
0.0
 76
1
330
17
  0
LAYOUT
  5
1E
330
D
100
AcDbPlotSettings
  1

  4
A3
  6

 40
7.5
 41
20.0
 42
7.5
 43
20.0
 44
420.0
 45
297.0
 46
0.0
 47
0.0
 48
0.0
 49
0.0
140
0.0
141
0.0
142
1.0
143
1.0
 70
0
 72
1
 73
0
 74
5
  7

 75
16
 76
0
 77
2
 78
300
147
1.0
148
0.0
149
0.0
100
AcDbLayout
  1
Layout1
 70
1
 71
1
 10
0.0
 20
0.0
 11
420.0
 21
297.0
 12
0.0
 22
0.0
 32
0.0
 14
1e+20
 24
1e+20
 34
1e+20
 15
-1e+20
 25
-1e+20
 35
-1e+20
146
0.0
 13
0.0
 23
0.0
 33
0.0
 16
1.0
 26
0.0
 36
0.0
 17
0.0
 27
1.0
 37
0.0
 76
1
330
1B
  0
MATERIAL
  5
1F
102
{ACAD_REACTORS
330
E
102
}
330
E
100
AcDbMaterial
  1
ByBlock
  2

 70
0
 40
1.0
 71
1
 41
1.0
 91
-1023410177
 42
1.0
 72
1
  3

 73
1
 74
1
 75
1
 44
0.5
 73
0
 45
1.0
 46
1.0
 77
1
  4

 78
1
 79
1
170
1
 48
1.0
171
1
  6

172
1
173
1
174
1
140
1.0
141
1.0
175
1
  7

176
1
177
1
178
1
143
1.0
179
1
  8

270
1
271
1
272
1
145
1.0
146
1.0
273
1
  9

274
1
275
1
276
1
 42
1.0
 72
1
  3

 73
1
 74
1
 75
1
 94
63
  0
MATERIAL
  5
20
102
{ACAD_REACTORS
330
E
102
}
330
E
100
AcDbMaterial
  1
ByLayer
  2

 70
0
 40
1.0
 71
1
 41
1.0
 91
-1023410177
 42
1.0
 72
1
  3

 73
1
 74
1
 75
1
 44
0.5
 73
0
 45
1.0
 46
1.0
 77
1
  4

 78
1
 79
1
170
1
 48
1.0
171
1
  6

172
1
173
1
174
1
140
1.0
141
1.0
175
1
  7

176
1
177
1
178
1
143
1.0
179
1
  8

270
1
271
1
272
1
145
1.0
146
1.0
273
1
  9

274
1
275
1
276
1
 42
1.0
 72
1
  3

 73
1
 74
1
 75
1
 94
63
  0
MATERIAL
  5
21
102
{ACAD_REACTORS
330
E
102
}
330
E
100
AcDbMaterial
  1
Global
  2

 70
0
 40
1.0
 71
1
 41
1.0
 91
-1023410177
 42
1.0
 72
1
  3

 73
1
 74
1
 75
1
 44
0.5
 73
0
 45
1.0
 46
1.0
 77
1
  4

 78
1
 79
1
170
1
 48
1.0
171
1
  6

172
1
173
1
174
1
140
1.0
141
1.0
175
1
  7

176
1
177
1
178
1
143
1.0
179
1
  8

270
1
271
1
272
1
145
1.0
146
1.0
273
1
  9

274
1
275
1
276
1
 42
1.0
 72
1
  3

 73
1
 74
1
 75
1
 94
63
  0
MLINESTYLE
  5
22
102
{ACAD_REACTORS
330
10
102
}
330
10
100
AcDbMlineStyle
  2
Standard
 70
0
  3

 62
256
 51
90.0
 52
90.0
 71
2
 49
0.5
 62
256
  6
BYLAYER
 49
-0.5
 62
256
  6
BYLAYER
  0
MLEADERSTYLE
  5
2C
102
{ACAD_REACTORS
330
F
102
}
330
F
100
AcDbMLeaderStyle
179
2
170
2
171
1
172
0
 90
2
 40
0.0
 41
0.0
173
1
 91
-1056964608
 92
-2
290
1
 42
2.0
291
1
 43
8.0
  3
Standard
 44
4.0
300

342
29
174
1
175
1
176
0
178
1
 93
-1056964608
 45
4.0
292
0
297
0
 46
4.0
 94
-1056964608
 47
1.0
 49
1.0
140
1.0
294
1
141
0.0
177
0
142
1.0
295
0
296
0
143
3.75
271
0
272
9
273
9
  0
DICTIONARY
  5
2D
330
A
100
AcDbDictionary
280
1
281
1
  3
CREATED_BY_EZDXF
350
2E
  3
WRITTEN_BY_EZDXF
350
40
  0
DICTIONARYVAR
  5
2E
330
2D
100
DictionaryVariables
280
0
  1
0.0 @ 2000-01-01T00:00:00.000000+00:00
  0
DICTIONARYVAR
  5
40
330
2D
100
DictionaryVariables
280
0
  1
0.0 @ 2000-01-01T00:00:00.000000+00:00
  0
ENDSEC
  0
EOF
