  0
SECTION
  2
HEADER
  9
$ACADVER
  1
AC1027
  9
$ACADMAINTVER
 70
105
  9
$DWGCODEPAGE
  3
ANSI_1252
  9
$LASTSAVEDBY
  1
ezdxf
  9
$REQUIREDVERSIONS
160
0
  9
$INSBASE
 10
0.0
 20
0.0
 30
0.0
  9
$EXTMIN
 10
1e+20
 20
1e+20
 30
1e+20
  9
$EXTMAX
 10
-1e+20
 20
-1e+20
 30
-1e+20
  9
$LIMMIN
 10
0.0
 20
0.0
  9
$LIMMAX
 10
420.0
 20
297.0
  9
$ORTHOMODE
 70
0
  9
$REGENMODE
 70
1
  9
$FILLMODE
 70
1
  9
$QTEXTMODE
 70
0
  9
$MIRRTEXT
 70
1
  9
$LTSCALE
 40
1.0
  9
$ATTMODE
 70
1
  9
$TEXTSIZE
 40
2.5
  9
$TRACEWID
 40
1.0
  9
$TEXTSTYLE
  7
Standard
  9
$CLAYER
  8
0
  9
$CELTYPE
  6
ByLayer
  9
$CECOLOR
 62
256
  9
$CELTSCALE
 40
1.0
  9
$DISPSILH
 70
0
  9
$DIMSCALE
 40
1.0
  9
$DIMASZ
 40
2.5
  9
$DIMEXO
 40
0.625
  9
$DIMDLI
 40
3.75
  9
$DIMRND
 40
0.0
  9
$DIMDLE
 40
0.0
  9
$DIMEXE
 40
1.25
  9
$DIMTP
 40
0.0
  9
$DIMTM
 40
0.0
  9
$DIMTXT
 40
2.5
  9
$DIMCEN
 40
2.5
  9
$DIMTSZ
 40
0.0
  9
$DIMTOL
 70
0
  9
$DIMLIM
 70
0
  9
$DIMTIH
 70
0
  9
$DIMTOH
 70
0
  9
$DIMSE1
 70
0
  9
$DIMSE2
 70
0
  9
$DIMTAD
 70
1
  9
$DIMZIN
 70
8
  9
$DIMBLK
  1

  9
$DIMASO
 70
1
  9
$DIMSHO
 70
1
  9
$DIMPOST
  1

  9
$DIMAPOST
  1

  9
$DIMALT
 70
0
  9
$DIMALTD
 70
3
  9
$DIMALTF
 40
0.03937007874
  9
$DIMLFAC
 40
1.0
  9
$DIMTOFL
 70
1
  9
$DIMTVP
 40
0.0
  9
$DIMTIX
 70
0
  9
$DIMSOXD
 70
0
  9
$DIMSAH
 70
0
  9
$DIMBLK1
  1

  9
$DIMBLK2
  1

  9
$DIMSTYLE
  2
ISO-25
  9
$DIMCLRD
 70
0
  9
$DIMCLRE
 70
0
  9
$DIMCLRT
 70
0
  9
$DIMTFAC
 40
1.0
  9
$DIMGAP
 40
0.625
  9
$DIMJUST
 70
0
  9
$DIMSD1
 70
0
  9
$DIMSD2
 70
0
  9
$DIMTOLJ
 70
0
  9
$DIMTZIN
 70
8
  9
$DIMALTZ
 70
0
  9
$DIMALTTZ
 70
0
  9
$DIMUPT
 70
0
  9
$DIMDEC
 70
2
  9
$DIMTDEC
 70
2
  9
$DIMALTU
 70
2
  9
$DIMALTTD
 70
3
  9
$DIMTXSTY
  7
Standard
  9
$DIMAUNIT
 70
0
  9
$DIMADEC
 70
0
  9
$DIMALTRND
 40
0.0
  9
$DIMAZIN
 70
0
  9
$DIMDSEP
 70
44
  9
$DIMATFIT
 70
3
  9
$DIMFRAC
 70
0
  9
$DIMLDRBLK
  1

  9
$DIMLUNIT
 70
2
  9
$DIMLWD
 70
-2
  9
$DIMLWE
 70
-2
  9
$DIMTMOVE
 70
0
  9
$DIMFXL
 40
1.0
  9
$DIMFXLON
 70
0
  9
$DIMJOGANG
 40
0.785398163397
  9
$DIMTFILL
 70
0
  9
$DIMTFILLCLR
 70
0
  9
$DIMARCSYM
 70
0
  9
$DIMLTYPE
  6

  9
$DIMLTEX1
  6

  9
$DIMLTEX2
  6

  9
$DIMTXTDIRECTION
 70
0
  9
$LUNITS
 70
2
  9
$LUPREC
 70
4
  9
$SKETCHINC
 40
1.0
  9
$FILLETRAD
 40
10.0
  9
$AUNITS
 70
0
  9
$AUPREC
 70
2
  9
$MENU
  1
.
  9
$ELEVATION
 40
0.0
  9
$PELEVATION
 40
0.0
  9
$THICKNESS
 40
0.0
  9
$LIMCHECK
 70
0
  9
$CHAMFERA
 40
0.0
  9
$CHAMFERB
 40
0.0
  9
$CHAMFERC
 40
0.0
  9
$CHAMFERD
 40
0.0
  9
$SKPOLY
 70
0
  9
$TDCREATE
 40
2451545.0
  9
$TDUCREATE
 40
2451545.0
  9
$TDUPDATE
 40
2451545.0
  9
$TDUUPDATE
 40
2451545.0
  9
$TDINDWG
 40
0.0
  9
$TDUSRTIMER
 40
0.0
  9
$USRTIMER
 70
1
  9
$ANGBASE
 50
0.0
  9
$ANGDIR
 70
0
  9
$PDMODE
 70
0
  9
$PDSIZE
 40
0.0
  9
$PLINEWID
 40
0.0
  9
$SPLFRAME
 70
0
  9
$SPLINETYPE
 70
6
  9
$SPLINESEGS
 70
8
  9
$HANDSEED
  5
76
  9
$SURFTAB1
 70
6
  9
$SURFTAB2
 70
6
  9
$SURFTYPE
 70
6
  9
$SURFU
 70
6
  9
$SURFV
 70
6
  9
$UCSBASE
  2

  9
$UCSNAME
  2

  9
$UCSORG
 10
0.0
 20
0.0
 30
0.0
  9
$UCSXDIR
 10
1.0
 20
0.0
 30
0.0
  9
$UCSYDIR
 10
0.0
 20
1.0
 30
0.0
  9
$UCSORTHOREF
  2

  9
$UCSORTHOVIEW
 70
0
  9
$UCSORGTOP
 10
0.0
 20
0.0
 30
0.0
  9
$UCSORGBOTTOM
 10
0.0
 20
0.0
 30
0.0
  9
$UCSORGLEFT
 10
0.0
 20
0.0
 30
0.0
  9
$UCSORGRIGHT
 10
0.0
 20
0.0
 30
0.0
  9
$UCSORGFRONT
 10
0.0
 20
0.0
 30
0.0
  9
$UCSORGBACK
 10
0.0
 20
0.0
 30
0.0
  9
$PUCSBASE
  2

  9
$PUCSNAME
  2

  9
$PUCSORG
 10
0.0
 20
0.0
 30
0.0
  9
$PUCSXDIR
 10
1.0
 20
0.0
 30
0.0
  9
$PUCSYDIR
 10
0.0
 20
1.0
 30
0.0
  9
$PUCSORTHOREF
  2

  9
$PUCSORTHOVIEW
 70
0
  9
$PUCSORGTOP
 10
0.0
 20
0.0
 30
0.0
  9
$PUCSORGBOTTOM
 10
0.0
 20
0.0
 30
0.0
  9
$PUCSORGLEFT
 10
0.0
 20
0.0
 30
0.0
  9
$PUCSORGRIGHT
 10
0.0
 20
0.0
 30
0.0
  9
$PUCSORGFRONT
 10
0.0
 20
0.0
 30
0.0
  9
$PUCSORGBACK
 10
0.0
 20
0.0
 30
0.0
  9
$USERI1
 70
0
  9
$USERI2
 70
0
  9
$USERI3
 70
0
  9
$USERI4
 70
0
  9
$USERI5
 70
0
  9
$USERR1
 40
0.0
  9
$USERR2
 40
0.0
  9
$USERR3
 40
0.0
  9
$USERR4
 40
0.0
  9
$USERR5
 40
0.0
  9
$WORLDVIEW
 70
1
  9
$SHADEDGE
 70
3
  9
$SHADEDIF
 70
70
  9
$TILEMODE
 70
1
  9
$MAXACTVP
 70
64
  9
$PINSBASE
 10
0.0
 20
0.0
 30
0.0
  9
$PLIMCHECK
 70
0
  9
$PEXTMIN
 10
1e+20
 20
1e+20
 30
1e+20
  9
$PEXTMAX
 10
-1e+20
 20
-1e+20
 30
-1e+20
  9
$PLIMMIN
 10
0.0
 20
0.0
  9
$PLIMMAX
 10
420.0
 20
297.0
  9
$UNITMODE
 70
0
  9
$VISRETAIN
 70
1
  9
$PLINEGEN
 70
0
  9
$PSLTSCALE
 70
1
  9
$TREEDEPTH
 70
3020
  9
$CMLSTYLE
  2
Standard
  9
$CMLJUST
 70
0
  9
$CMLSCALE
 40
20.0
  9
$PROXYGRAPHICS
 70
1
  9
$MEASUREMENT
 70
1
  9
$CELWEIGHT
370
-1
  9
$ENDCAPS
280
0
  9
$JOINSTYLE
280
0
  9
$LWDISPLAY
290
0
  9
$INSUNITS
 70
4
  9
$HYPERLINKBASE
  1

  9
$STYLESHEET
  1

  9
$XEDIT
290
1
  9
$CEPSNTYPE
380
0
  9
$PSTYLEMODE
290
1
  9
$FINGERPRINTGUID
  2
{00000000-0000-0000-0000-000000000000}
  9
$VERSIONGUID
  2
{00000000-0000-0000-0000-000000000000}
  9
$EXTNAMES
290
1
  9
$PSVPSCALE
 40
0.0
  9
$OLESTARTUP
290
0
  9
$SORTENTS
280
127
  9
$INDEXCTL
280
0
  9
$HIDETEXT
280
1
  9
$XCLIPFRAME
280
1
  9
$HALOGAP
280
0
  9
$OBSCOLOR
 70
257
  9
$OBSLTYPE
280
0
  9
$INTERSECTIONDISPLAY
280
0
  9
$INTERSECTIONCOLOR
 70
257
  9
$DIMASSOC
280
2
  9
$PROJECTNAME
  1

  9
$CAMERADISPLAY
290
0
  9
$LENSLENGTH
 40
50.0
  9
$CAMERAHEIGHT
 40
0.0
  9
$STEPSPERSEC
 40
24.0
  9
$STEPSIZE
 40
100.0
  9
$3DDWFPREC
 40
2.0
  9
$PSOLWIDTH
 40
0.005
  9
$PSOLHEIGHT
 40
0.08
  9
$LOFTANG1
 40
1.570796326795
  9
$LOFTANG2
 40
1.570796326795
  9
$LOFTMAG1
 40
0.0
  9
$LOFTMAG2
 40
0.0
  9
$LOFTPARAM
 70
7
  9
$LOFTNORMALS
280
1
  9
$LATITUDE
 40
37.795
  9
$LONGITUDE
 40
-122.394
  9
$NORTHDIRECTION
 40
0.0
  9
$TIMEZONE
 70
-8000
  9
$LIGHTGLYPHDISPLAY
280
1
  9
$TILEMODELIGHTSYNCH
280
1
  9
$CMATERIAL
347
20
  9
$SOLIDHIST
280
0
  9
$SHOWHIST
280
1
  9
$DWFFRAME
280
2
  9
$DGNFRAME
280
2
  9
$REALWORLDSCALE
290
1
  9
$INTERFERECOLOR
 62
256
  9
$CSHADOW
280
0
  9
$SHADOWPLANELOCATION
 40
0.0
  0
ENDSEC
  0
SECTION
  2
CLASSES
  0
CLASS
  1
ACDBDETAILVIEWSTYLE
  2
AcDbDetailViewStyle
  3
ObjectDBX Classes
 90
1025
 91
0
280
0
281
0
  0
CLASS
  1
ACDBDICTIONARYWDFLT
  2
AcDbDictionaryWithDefault
  3
ObjectDBX Classes
 90
0
 91
0
280
0
281
0
  0
CLASS
  1
ACDBPLACEHOLDER
  2
AcDbPlaceHolder
  3
ObjectDBX Classes
 90
0
 91
0
280
0
281
0
  0
CLASS
  1
ACDBSECTIONVIEWSTYLE
  2
AcDbSectionViewStyle
  3
ObjectDBX Classes
 90
1025
 91
0
280
0
281
0
  0
CLASS
  1
CELLSTYLEMAP
  2
AcDbCellStyleMap
  3
ObjectDBX Classes
 90
1152
 91
0
280
0
281
0
  0
CLASS
  1
DICTIONARYVAR
  2
AcDbDictionaryVar
  3
ObjectDBX Classes
 90
0
 91
0
280
0
281
0
  0
CLASS
  1
LAYOUT
  2
AcDbLayout
  3
ObjectDBX Classes
 90
0
 91
0
280
0
281
0
  0
CLASS
  1
MATERIAL
  2
AcDbMaterial
  3
ObjectDBX Classes
 90
1153
 91
0
280
0
281
0
  0
CLASS
  1
MENTALRAYRENDERSETTINGS
  2
AcDbMentalRayRenderSettings
  3
SCENEOE
 90
1024
 91
0
280
0
281
0
  0
CLASS
  1
MLEADERSTYLE
  2
AcDbMLeaderStyle
  3
ACDB_MLEADERSTYLE_CLASS
 90
4095
 91
0
280
0
281
0
  0
CLASS
  1
RASTERVARIABLES
  2
AcDbRasterVariables
  3
ISM
 90
0
 91
0
280
0
281
0
  0
CLASS
  1
SCALE
  2
AcDbScale
  3
ObjectDBX Classes
 90
1153
 91
0
280
0
281
0
  0
CLASS
  1
SUN
  2
AcDbSun
  3
SCENEOE
 90
1153
 91
0
280
0
281
0
  0
CLASS
  1
TABLESTYLE
  2
AcDbTableStyle
  3
ObjectDBX Classes
 90
4095
 91
0
280
0
281
0
  0
CLASS
  1
VISUALSTYLE
  2
AcDbVisualStyle
  3
ObjectDBX Classes
 90
4095
 91
0
280
0
281
0
  0
ENDSEC
  0
SECTION
  2
TABLES
  0
TABLE
  2
VPORT
  5
8
330
0
100
AcDbSymbolTable
 70
1
  0
VPORT
  5
72
330
8
100
AcDbSymbolTableRecord
100
AcDbViewportTableRecord
  2
*Active
 70
0
 10
0.0
 20
0.0
 11
1.0
 21
1.0
 12
135.0
 22
129.5
 13
0.0
 23
0.0
 14
0.5
 24
0.5
 15
0.5
 25
0.5
 16
0.0
 26
0.0
 36
1.0
 17
0.0
 27
0.0
 37
0.0
 40
259.0
 41
1.34
 42
50.0
 43
0.0
 44
0.0
 50
0.0
 51
0.0
 71
0
 72
1000
 73
1
 74
3
 75
0
 76
0
 77
0
 78
0
281
0
 65
1
110
0.0
120
0.0
130
0.0
111
1.0
121
0.0
131
0.0
112
0.0
122
1.0
132
0.0
 79
0
146
0.0
  0
ENDTAB
  0
TABLE
  2
LTYPE
  5
2
330
0
100
AcDbSymbolTable
 70
3
  0
LTYPE
  5
24
330
2
100
AcDbSymbolTableRecord
100
AcDbLinetypeTableRecord
  2
ByBlock
 70
0
  3

 72
65
 73
0
 40
0.0
  0
LTYPE
  5
25
330
2
100
AcDbSymbolTableRecord
100
AcDbLinetypeTableRecord
  2
ByLayer
 70
0
  3

 72
65
 73
0
 40
0.0
  0
LTYPE
  5
26
330
2
100
AcDbSymbolTableRecord
100
AcDbLinetypeTableRecord
  2
Continuous
 70
0
  3

 72
65
 73
0
 40
0.0
  0
ENDTAB
  0
TABLE
  2
LAYER
  5
1
330
0
100
AcDbSymbolTable
 70
3
  0
LAYER
  5
27
330
1
100
AcDbSymbolTableRecord
100
AcDbLayerTableRecord
  2
0
 70
0
 62
7
  6
Continuous
370
-3
390
13
347
21
  0
LAYER
  5
28
330
1
100
AcDbSymbolTableRecord
100
AcDbLayerTableRecord
  2
Defpoints
 70
0
 62
7
  6
Continuous
290
0
370
-3
390
13
347
21
  0
LAYER
  5
2F
330
1
100
AcDbSymbolTableRecord
100
AcDbLayerTableRecord
  2
CUT
 70
0
 62
7
  6
Continuous
370
-3
390
13
347
21
  0
ENDTAB
  0
TABLE
  2
STYLE
  5
5
330
0
100
AcDbSymbolTable
 70
1
  0
STYLE
  5
29
330
5
100
AcDbSymbolTableRecord
100
AcDbTextStyleTableRecord
  2
Standard
 70
0
 40
0.0
 41
1.0
 50
0.0
 71
0
 42
2.5
  3
txt
  4

  0
ENDTAB
  0
TABLE
  2
VIEW
  5
7
330
0
100
AcDbSymbolTable
 70
0
  0
ENDTAB
  0
TABLE
  2
UCS
  5
6
330
0
100
AcDbSymbolTable
 70
0
  0
ENDTAB
  0
TABLE
  2
APPID
  5
3
330
0
100
AcDbSymbolTable
 70
3
  0
APPID
  5
2A
330
3
100
AcDbSymbolTableRecord
100
AcDbRegAppTableRecord
  2
ACAD
 70
0
  0
APPID
  5
73
330
3
100
AcDbSymbolTableRecord
100
AcDbRegAppTableRecord
  2
HATCHBACKGROUNDCOLOR
 70
0
  0
APPID
  5
74
330
3
100
AcDbSymbolTableRecord
100
AcDbRegAppTableRecord
  2
EZDXF
 70
0
  0
ENDTAB
  0
TABLE
  2
DIMSTYLE
  5
4
330
0
100
AcDbSymbolTable
 70
1
100
AcDbDimStyleTable
  0
DIMSTYLE
105
2B
330
4
100
AcDbSymbolTableRecord
100
AcDbDimStyleTableRecord
  2
Standard
 70
0
 40
1.0
 41
2.5
 42
0.625
 43
3.75
 44
1.25
 45
0.0
 46
0.0
 47
0.0
 48
0.0
 49
2.5
140
2.5
141
2.5
142
0.0
143
0.03937007874
144
1.0
145
0.0
146
1.0
147
0.625
148
0.0
 69
0
 70
0
 71
0
 72
0
 73
0
 74
0
 75
0
 76
0
 77
1
 78
8
 79
3
170
0
171
3
172
1
173
0
174
0
175
0
176
0
177
0
178
0
179
2
271
2
272
2
273
2
274
3
275
0
276
0
277
2
278
44
279
0
280
0
281
0
282
0
283
0
284
8
285
0
286
0
288
0
289
3
290
0
371
-2
372
-2
  0
ENDTAB
  0
TABLE
  2
BLOCK_RECORD
  5
9
330
0
100
AcDbSymbolTable
 70
2
  0
BLOCK_RECORD
  5
17
330
9
100
AcDbSymbolTableRecord
100
AcDbBlockTableRecord
  2
*Model_Space
340
1A
 70
0
280
1
281
0
  0
BLOCK_RECORD
  5
1B
330
9
100
AcDbSymbolTableRecord
100
AcDbBlockTableRecord
  2
*Paper_Space
340
1E
 70
0
280
1
281
0
  0
ENDTAB
  0
ENDSEC
  0
SECTION
  2
BLOCKS
  0
BLOCK
  5
18
330
17
100
AcDbEntity
  8
0
100
AcDbBlockBegin
  2
*Model_Space
 70
0
 10
0.0
 20
0.0
 30
0.0
  3
*Model_Space
  1

  0
ENDBLK
  5
19
330
17
100
AcDbEntity
  8
0
100
AcDbBlockEnd
  0
BLOCK
  5
1C
330
1B
100
AcDbEntity
  8
0
100
AcDbBlockBegin
  2
*Paper_Space
 70
0
 10
0.0
 20
0.0
 30
0.0
  3
*Paper_Space
  1

  0
ENDBLK
  5
1D
330
1B
100
AcDbEntity
  8
0
100
AcDbBlockEnd
  0
ENDSEC
  0
SECTION
  2
ENTITIES
  0
SPLINE
  5
30
330
17
100
AcDbEntity
  8
CUT
100
AcDbSpline
 70
0
 71
3
 72
116
 73
112
 74
0
 40
0.0
 40
0.0
 40
0.0
 40
0.0
 40
0.6329408029057368
 40
0.6329408029057368
 40
0.6329408029057368
 40
1.635327825935573
 40
1.635327825935573
 40
1.635327825935573
 40
2.9086868225639666
 40
2.9086868225639666
 40
2.9086868225639666
 40
4.316920974164279
 40
4.316920974164279
 40
4.316920974164279
 40
5.8063705407782775
 40
5.8063705407782775
 40
5.8063705407782775
 40
8.941193221018109
 40
8.941193221018109
 40
8.941193221018109
 40
10.49661427034716
 40
10.49661427034716
 40
10.49661427034716
 40
12.059590758308424
 40
12.059590758308424
 40
12.059590758308424
 40
14.660178642019885
 40
14.660178642019885
 40
14.660178642019885
 40
17.615867674146937
 40
17.615867674146937
 40
17.615867674146937
 40
20.457594145625713
 40
20.457594145625713
 40
20.457594145625713
 40
21.99638040779537
 40
21.99638040779537
 40
21.99638040779537
 40
23.120789785401822
 40
23.120789785401822
 40
23.120789785401822
 40
23.51414663837127
 40
23.51414663837127
 40
23.51414663837127
 40
23.793876944337303
 40
23.793876944337303
 40
23.793876944337303
 40
23.96097214127316
 40
23.96097214127316
 40
23.96097214127316
 40
24.0165323001581
 40
24.0165323001581
 40
24.0165323001581
 40
24.07209245904304
 40
24.07209245904304
 40
24.07209245904304
 40
24.239187655978895
 40
24.239187655978895
 40
24.239187655978895
 40
24.51891796194493
 40
24.51891796194493
 40
24.51891796194493
 40
24.912274814914376
 40
24.912274814914376
 40
24.912274814914376
 40
26.036684192520823
 40
26.036684192520823
 40
26.036684192520823
 40
27.57547045469048
 40
27.57547045469048
 40
27.57547045469048
 40
30.41719692616927
 40
30.41719692616927
 40
30.41719692616927
 40
33.37288595829631
 40
33.37288595829631
 40
33.37288595829631
 40
35.97347384200776
 40
35.97347384200776
 40
35.97347384200776
 40
37.53645032996903
 40
37.53645032996903
 40
37.53645032996903
 40
39.09187137929808
 40
39.09187137929808
 40
39.09187137929808
 40
42.22669405953792
 40
42.22669405953792
 40
42.22669405953792
 40
43.71614362615192
 40
43.71614362615192
 40
43.71614362615192
 40
45.12437777775223
 40
45.12437777775223
 40
45.12437777775223
 40
46.397736774380625
 40
46.397736774380625
 40
46.397736774380625
 40
46.9437335070978
 40
46.9437335070978
 40
46.9437335070978
 40
47.400123797410465
 40
47.400123797410465
 40
47.400123797410465
 40
47.74496878580983
 40
47.74496878580983
 40
47.74496878580983
 40
47.959977686960876
 40
47.959977686960876
 40
47.959977686960876
 40
48.0330646003162
 40
48.0330646003162
 40
48.0330646003162
 40
48.0330646003162
 10
18.352941176470587
 20
40.0
 30
0.0
 10
18.563975478660478
 20
40.01062285337076
 30
0.0
 10
18.770366930627272
 20
40.06621207358812
 30
0.0
 10
18.970680075511808
 20
40.13054184305131
 30
0.0
 10
19.28907719638862
 20
40.2380750635798
 30
0.0
 10
19.588901213650292
 20
40.38400673718736
 30
0.0
 10
19.87015212729677
 20
40.568336863873924
 30
0.0
 10
20.225807848269255
 20
40.80050706897868
 30
0.0
 10
20.54572243405903
 20
41.088359798533425
 30
0.0
 10
20.810615714095324
 20
41.42080655579118
 30
0.0
 10
21.10376974412717
 20
41.788125410258026
 30
0.0
 10
21.32807527040898
 20
42.21110155933538
 30
0.0
 10
21.46193022014033
 20
42.662049058584635
 30
0.0
 10
21.60426763413468
 20
43.138766671924884
 30
0.0
 10
21.644412861084508
 20
43.64503587238316
 30
0.0
 10
21.583289639947793
 20
44.1386109887331
 30
0.0
 10
21.456545374383236
 20
45.17952454593536
 30
0.0
 10
20.885650456183473
 20
46.153252171958506
 30
0.0
 10
20.051288549472027
 20
46.78566448951295
 30
0.0
 10
19.6380683304251
 20
47.10001956324963
 30
0.0
 10
19.158940126196782
 20
47.32961268697728
 30
0.0
 10
18.651768889505753
 20
47.44378337988575
 30
0.0
 10
18.142279430375282
 20
47.559850929269224
 30
0.0
 10
17.607907466810545
 20
47.55554595861379
 30
0.0
 10
17.09820395216496
 20
47.44378337988575
 30
0.0
 10
16.245213217276188
 20
47.25827936595665
 30
0.0
 10
15.481040073355556
 20
46.795033347092385
 30
0.0
 10
14.813299466882535
 20
46.24767597620277
 30
0.0
 10
14.050865671303624
 20
45.62097065114781
 30
0.0
 10
13.390730553016637
 20
44.88317561617238
 30
0.0
 10
12.747199922167331
 20
44.138610988733085
 30
0.0
 10
12.128723431918619
 20
43.421348403729766
 30
0.0
 10
11.52755467161228
 20
42.68835156535221
 30
0.0
 10
10.876646575013904
 20
41.99969397698858
 30
0.0
 10
10.524225772594287
 20
41.62737662284357
 30
0.0
 10
10.156496746717096
 20
41.267633747038445
 30
0.0
 10
9.760785765083437
 20
40.941176470588246
 30
0.0
 10
9.473356995289349
 20
40.703225781055984
 30
0.0
 10
9.163934003382973
 20
40.48231844202212
 30
0.0
 10
8.837706134833581
 20
40.30124240224483
 30
0.0
 10
8.726238002347758
 20
40.23747253325426
 30
0.0
 10
8.608108632178599
 20
40.18057234685639
 30
0.0
 10
8.483318024326122
 20
40.130541843051326
 30
0.0
 10
8.393193666219531
 20
40.095373856749916
 30
0.0
 10
8.296753879555286
 20
40.06455577085991
 30
0.0
 10
8.2188435159349
 20
40.039425003295605
 30
0.0
 10
8.172304234080771
 20
40.02441329213755
 30
0.0
 10
8.132376616441809
 20
40.0114309285186
 30
0.0
 10
8.05533609013576
 20
40.0049848153232
 30
0.0
 10
8.029719651359322
 20
40.00284144388047
 30
0.0
 10
7.999999999999994
 20
40.00142072194026
 30
0.0
 10
7.999999999999998
 20
39.99999999999999
 30
0.0
 10
7.999999999999999
 20
39.99857927805972
 30
0.0
 10
8.029719651359326
 20
39.997158556119494
 30
0.0
 10
8.055336090135762
 20
39.995015184676795
 30
0.0
 10
8.132376616441796
 20
39.98856907148141
 30
0.0
 10
8.172304234080773
 20
39.97558670786243
 30
0.0
 10
8.218843515934891
 20
39.96057499670438
 30
0.0
 10
8.296753879555284
 20
39.93544422914008
 30
0.0
 10
8.393193666219522
 20
39.90462614325009
 30
0.0
 10
8.483318024326122
 20
39.869458156948674
 30
0.0
 10
8.608108632178608
 20
39.8194276531436
 30
0.0
 10
8.72623800234775
 20
39.76252746674575
 30
0.0
 10
8.837706134833589
 20
39.69875759775518
 30
0.0
 10
9.163934003382971
 20
39.51768155797784
 30
0.0
 10
9.473356995289347
 20
39.29677421894404
 30
0.0
 10
9.760785765083432
 20
39.058823529411754
 30
0.0
 10
10.156496746717089
 20
38.73236625296156
 30
0.0
 10
10.524225772594292
 20
38.372623377156415
 30
0.0
 10
10.876646575013897
 20
38.00030602301143
 30
0.0
 10
11.527554671612277
 20
37.31164843464781
 30
0.0
 10
12.128723431918614
 20
36.5786515962702
 30
0.0
 10
12.747199922167342
 20
35.86138901126691
 30
0.0
 10
13.390730553016837
 20
35.116824383827606
 30
0.0
 10
14.050865671303345
 20
34.3790293488522
 30
0.0
 10
14.813299466882539
 20
33.75232402379722
 30
0.0
 10
15.481040073347842
 20
33.204966652907615
 30
0.0
 10
16.2452132172861
 20
32.741720634043304
 30
0.0
 10
17.09820395216496
 20
32.556216620114256
 30
0.0
 10
17.607907466581253
 20
32.44445404138624
 30
0.0
 10
18.142279430688863
 20
32.440149070730726
 30
0.0
 10
18.651768889505757
 20
32.55621662011425
 30
0.0
 10
19.158940123017306
 20
32.670387313022715
 30
0.0
 10
19.638068334867718
 20
32.89998043675037
 30
0.0
 10
20.051288549472027
 20
33.21433551048706
 30
0.0
 10
20.88565029727792
 20
33.84674782804145
 30
0.0
 10
21.456545582535938
 20
34.82047545406465
 30
0.0
 10
21.58328963994779
 20
35.86138901126691
 30
0.0
 10
21.64440484864165
 20
36.354964127616824
 30
0.0
 10
21.604278546919357
 20
36.86123332807512
 30
0.0
 10
21.461930220140335
 20
37.33795094141535
 30
0.0
 10
21.32797277530003
 20
37.78889844066458
 30
0.0
 10
21.103908497348687
 20
38.21187458974202
 30
0.0
 10
20.810615714095327
 20
38.579193444208805
 30
0.0
 10
20.542699748233588
 20
38.91348828425775
 30
0.0
 10
20.229211885967374
 20
39.19764484823013
 30
0.0
 10
19.87015212729677
 20
39.43166313612606
 30
0.0
 10
19.714790178679333
 20
39.53140849751269
 30
0.0
 10
19.556054556161563
 20
39.62043998472236
 30
0.0
 10
19.393945259743525
 20
39.69875759775517
 30
0.0
 10
19.259841914895702
 20
39.764077336335106
 30
0.0
 10
19.126895420133728
 20
39.821548268450655
 30
0.0
 10
18.97068007551181
 20
39.86945815694868
 30
0.0
 10
18.852644964232287
 20
39.90565849971232
 30
0.0
 10
18.72132520767535
 20
39.936400254118276
 30
0.0
 10
18.63809055743121
 20
39.9605749967044
 30
0.0
 10
18.58619422345877
 20
39.97564781206751
 30
0.0
 10
18.552990743843512
 20
39.988167733095565
 30
0.0
 10
18.425857899655345
 20
39.995015184676795
 30
0.0
 10
18.382642260125746
 20
39.99734280505782
 30
0.0
 10
18.32857317216921
 20
39.9990149770083
 30
0.0
 10
18.352941176470587
 20
39.99999999999999
 30
0.0
  0
SPLINE
  5
31
330
17
100
AcDbEntity
  8
CUT
100
AcDbSpline
 70
0
 71
3
 72
116
 73
112
 74
0
 40
0.0
 40
0.0
 40
0.0
 40
0.0
 40
0.6329408029057362
 40
0.6329408029057362
 40
0.6329408029057362
 40
1.6353278259355712
 40
1.6353278259355712
 40
1.6353278259355712
 40
2.908686822563965
 40
2.908686822563965
 40
2.908686822563965
 40
4.316920974164272
 40
4.316920974164272
 40
4.316920974164272
 40
5.8063705407782775
 40
5.8063705407782775
 40
5.8063705407782775
 40
8.941193221018102
 40
8.941193221018102
 40
8.941193221018102
 40
10.496614270347157
 40
10.496614270347157
 40
10.496614270347157
 40
12.05959075830842
 40
12.05959075830842
 40
12.05959075830842
 40
14.660178642019888
 40
14.660178642019888
 40
14.660178642019888
 40
17.615867674146937
 40
17.615867674146937
 40
17.615867674146937
 40
20.45759414562572
 40
20.45759414562572
 40
20.45759414562572
 40
21.996380407795378
 40
21.996380407795378
 40
21.996380407795378
 40
23.120789785401822
 40
23.120789785401822
 40
23.120789785401822
 40
23.514146638371273
 40
23.514146638371273
 40
23.514146638371273
 40
23.793876944337306
 40
23.793876944337306
 40
23.793876944337306
 40
23.960972141273164
 40
23.960972141273164
 40
23.960972141273164
 40
24.016532300158104
 40
24.016532300158104
 40
24.016532300158104
 40
24.072092459043045
 40
24.072092459043045
 40
24.072092459043045
 40
24.2391876559789
 40
24.2391876559789
 40
24.2391876559789
 40
24.518917961944936
 40
24.518917961944936
 40
24.518917961944936
 40
24.912274814914387
 40
24.912274814914387
 40
24.912274814914387
 40
26.036684192520823
 40
26.036684192520823
 40
26.036684192520823
 40
27.575470454690482
 40
27.575470454690482
 40
27.575470454690482
 40
30.41719692616927
 40
30.41719692616927
 40
30.41719692616927
 40
33.372885958296315
 40
33.372885958296315
 40
33.372885958296315
 40
35.973473842007785
 40
35.973473842007785
 40
35.973473842007785
 40
37.53645032996905
 40
37.53645032996905
 40
37.53645032996905
 40
39.0918713792981
 40
39.0918713792981
 40
39.0918713792981
 40
42.22669405953794
 40
42.22669405953794
 40
42.22669405953794
 40
43.71614362615193
 40
43.71614362615193
 40
43.71614362615193
 40
45.12437777775225
 40
45.12437777775225
 40
45.12437777775225
 40
46.39773677438065
 40
46.39773677438065
 40
46.39773677438065
 40
46.94373350709782
 40
46.94373350709782
 40
46.94373350709782
 40
47.40012379741049
 40
47.40012379741049
 40
47.40012379741049
 40
47.74496878580985
 40
47.74496878580985
 40
47.74496878580985
 40
47.9599776869609
 40
47.9599776869609
 40
47.9599776869609
 40
48.03306460031622
 40
48.03306460031622
 40
48.03306460031622
 40
48.03306460031622
 10
18.352941176470587
 20
108.0
 30
0.0
 10
18.563975478660453
 20
108.01062285337072
 30
0.0
 10
18.770366930627315
 20
108.06621207358823
 30
0.0
 10
18.97068007551181
 20
108.13054184305133
 30
0.0
 10
19.289077196388625
 20
108.23807506357977
 30
0.0
 10
19.58890121365029
 20
108.3840067371874
 30
0.0
 10
19.870152127296773
 20
108.56833686387395
 30
0.0
 10
20.225807848269252
 20
108.80050706897862
 30
0.0
 10
20.545722434059027
 20
109.08835979853342
 30
0.0
 10
20.810615714095327
 20
109.42080655579119
 30
0.0
 10
21.103769744127167
 20
109.78812541025809
 30
0.0
 10
21.32807527040898
 20
110.21110155933538
 30
0.0
 10
21.46193022014034
 20
110.66204905858461
 30
0.0
 10
21.60426763413469
 20
111.1387666719248
 30
0.0
 10
21.644412861084504
 20
111.64503587238313
 30
0.0
 10
21.583289639947797
 20
112.13861098873309
 30
0.0
 10
21.456545374383232
 20
113.17952454593531
 30
0.0
 10
20.885650456183484
 20
114.1532521719586
 30
0.0
 10
20.051288549472027
 20
114.78566448951294
 30
0.0
 10
19.63806833042508
 20
115.10001956324963
 30
0.0
 10
19.158940126196796
 20
115.32961268697727
 30
0.0
 10
18.651768889505753
 20
115.44378337988577
 30
0.0
 10
18.14227943037528
 20
115.55985092926926
 30
0.0
 10
17.60790746681056
 20
115.55554595861372
 30
0.0
 10
17.09820395216496
 20
115.44378337988577
 30
0.0
 10
16.2452132172762
 20
115.25827936595665
 30
0.0
 10
15.481040073355539
 20
114.79503334709239
 30
0.0
 10
14.81329946688254
 20
114.24767597620279
 30
0.0
 10
14.050865671303594
 20
113.62097065114769
 30
0.0
 10
13.390730553016654
 20
112.88317561617248
 30
0.0
 10
12.747199922167331
 20
112.13861098873306
 30
0.0
 10
12.128723431918612
 20
111.42134840372977
 30
0.0
 10
11.527554671612268
 20
110.68835156535226
 30
0.0
 10
10.876646575013904
 20
109.99969397698857
 30
0.0
 10
10.524225772594281
 20
109.62737662284354
 30
0.0
 10
10.156496746717096
 20
109.26763374703842
 30
0.0
 10
9.760785765083439
 20
108.94117647058826
 30
0.0
 10
9.473356995289356
 20
108.70322578105595
 30
0.0
 10
9.163934003382982
 20
108.4823184420222
 30
0.0
 10
8.837706134833583
 20
108.30124240224481
 30
0.0
 10
8.726238002347754
 20
108.23747253325422
 30
0.0
 10
8.608108632178595
 20
108.18057234685637
 30
0.0
 10
8.483318024326122
 20
108.13054184305133
 30
0.0
 10
8.393193666219526
 20
108.09537385674989
 30
0.0
 10
8.296753879555295
 20
108.06455577085997
 30
0.0
 10
8.218843515934893
 20
108.0394250032956
 30
0.0
 10
8.172304234080775
 20
108.02441329213762
 30
0.0
 10
8.132376616441796
 20
108.01143092851859
 30
0.0
 10
8.05533609013576
 20
108.00498481532321
 30
0.0
 10
8.029719651359335
 20
108.00284144388041
 30
0.0
 10
7.9999999999999964
 20
108.00142072194028
 30
0.0
 10
7.999999999999998
 20
108.0
 30
0.0
 10
7.999999999999998
 20
107.99857927805968
 30
0.0
 10
8.029719651359336
 20
107.99715855611954
 30
0.0
 10
8.05533609013576
 20
107.99501518467676
 30
0.0
 10
8.132376616441798
 20
107.98856907148138
 30
0.0
 10
8.172304234080773
 20
107.97558670786242
 30
0.0
 10
8.218843515934893
 20
107.96057499670441
 30
0.0
 10
8.296753879555286
 20
107.93544422914006
 30
0.0
 10
8.393193666219517
 20
107.90462614325008
 30
0.0
 10
8.483318024326124
 20
107.86945815694868
 30
0.0
 10
8.608108632178604
 20
107.81942765314358
 30
0.0
 10
8.726238002347754
 20
107.76252746674575
 30
0.0
 10
8.837706134833583
 20
107.69875759775513
 30
0.0
 10
9.163934003382973
 20
107.5176815579779
 30
0.0
 10
9.473356995289349
 20
107.29677421894401
 30
0.0
 10
9.760785765083433
 20
107.0588235294118
 30
0.0
 10
10.156496746717089
 20
106.7323662529616
 30
0.0
 10
10.524225772594283
 20
106.37262337715643
 30
0.0
 10
10.8766465750139
 20
106.00030602301143
 30
0.0
 10
11.527554671612286
 20
105.31164843464782
 30
0.0
 10
12.128723431918619
 20
104.57865159627019
 30
0.0
 10
12.74719992216734
 20
103.86138901126691
 30
0.0
 10
13.390730553016823
 20
103.11682438382758
 30
0.0
 10
14.050865671303363
 20
102.37902934885224
 30
0.0
 10
14.813299466882533
 20
101.75232402379721
 30
0.0
 10
15.481040073347813
 20
101.20496665290754
 30
0.0
 10
16.245213217286132
 20
100.74172063404336
 30
0.0
 10
17.098203952164962
 20
100.55621662011426
 30
0.0
 10
17.60790746658125
 20
100.44445404138615
 30
0.0
 10
18.142279430688866
 20
100.4401490707308
 30
0.0
 10
18.651768889505753
 20
100.55621662011421
 30
0.0
 10
19.158940123017288
 20
100.67038731302269
 30
0.0
 10
19.638068334867707
 20
100.89998043675038
 30
0.0
 10
20.051288549472023
 20
101.21433551048705
 30
0.0
 10
20.885650297277905
 20
101.84674782804163
 30
0.0
 10
21.456545582535927
 20
102.82047545406444
 30
0.0
 10
21.583289639947797
 20
103.86138901126694
 30
0.0
 10
21.644404848641646
 20
104.35496412761688
 30
0.0
 10
21.604278546919375
 20
104.86123332807513
 30
0.0
 10
21.461930220140335
 20
105.33795094141536
 30
0.0
 10
21.32797277530004
 20
105.7888984406646
 30
0.0
 10
21.103908497348687
 20
106.21187458974195
 30
0.0
 10
20.810615714095327
 20
106.5791934442088
 30
0.0
 10
20.542699748233566
 20
106.91348828425774
 30
0.0
 10
20.22921188596737
 20
107.19764484823011
 30
0.0
 10
19.870152127296777
 20
107.43166313612606
 30
0.0
 10
19.71479017867932
 20
107.53140849751266
 30
0.0
 10
19.556054556161566
 20
107.62043998472234
 30
0.0
 10
19.393945259743525
 20
107.69875759775516
 30
0.0
 10
19.259841914895702
 20
107.76407733633508
 30
0.0
 10
19.126895420133728
 20
107.82154826845067
 30
0.0
 10
18.97068007551181
 20
107.86945815694867
 30
0.0
 10
18.852644964232297
 20
107.9056584997123
 30
0.0
 10
18.72132520767538
 20
107.93640025411833
 30
0.0
 10
18.638090557431205
 20
107.9605749967044
 30
0.0
 10
18.58619422345877
 20
107.97564781206745
 30
0.0
 10
18.552990743843498
 20
107.98816773309552
 30
0.0
 10
18.425857899655348
 20
107.99501518467679
 30
0.0
 10
18.382642260125753
 20
107.99734280505774
 30
0.0
 10
18.328573172169218
 20
107.99901497700831
 30
0.0
 10
18.352941176470587
 20
108.0
 30
0.0
  0
SPLINE
  5
32
330
17
100
AcDbEntity
  8
CUT
100
AcDbSpline
 70
0
 71
3
 72
116
 73
112
 74
0
 40
0.0
 40
0.0
 40
0.0
 40
0.0
 40
0.63294080290574
 40
0.63294080290574
 40
0.63294080290574
 40
1.6353278259355768
 40
1.6353278259355768
 40
1.6353278259355768
 40
2.9086868225639617
 40
2.9086868225639617
 40
2.9086868225639617
 40
4.316920974164268
 40
4.316920974164268
 40
4.316920974164268
 40
5.806370540778274
 40
5.806370540778274
 40
5.806370540778274
 40
8.941193221018107
 40
8.941193221018107
 40
8.941193221018107
 40
10.496614270347155
 40
10.496614270347155
 40
10.496614270347155
 40
12.059590758308419
 40
12.059590758308419
 40
12.059590758308419
 40
14.660178642019886
 40
14.660178642019886
 40
14.660178642019886
 40
17.615867674146937
 40
17.615867674146937
 40
17.615867674146937
 40
20.45759414562572
 40
20.45759414562572
 40
20.45759414562572
 40
21.996380407795378
 40
21.996380407795378
 40
21.996380407795378
 40
23.12078978540182
 40
23.12078978540182
 40
23.12078978540182
 40
23.514146638371262
 40
23.514146638371262
 40
23.514146638371262
 40
23.7938769443373
 40
23.7938769443373
 40
23.7938769443373
 40
23.960972141273157
 40
23.960972141273157
 40
23.960972141273157
 40
24.016532300158097
 40
24.016532300158097
 40
24.016532300158097
 40
24.072092459043038
 40
24.072092459043038
 40
24.072092459043038
 40
24.239187655978892
 40
24.239187655978892
 40
24.239187655978892
 40
24.518917961944933
 40
24.518917961944933
 40
24.518917961944933
 40
24.912274814914376
 40
24.912274814914376
 40
24.912274814914376
 40
26.036684192520816
 40
26.036684192520816
 40
26.036684192520816
 40
27.575470454690475
 40
27.575470454690475
 40
27.575470454690475
 40
30.417196926169265
 40
30.417196926169265
 40
30.417196926169265
 40
33.37288595829631
 40
33.37288595829631
 40
33.37288595829631
 40
35.97347384200778
 40
35.97347384200778
 40
35.97347384200778
 40
37.53645032996904
 40
37.53645032996904
 40
37.53645032996904
 40
39.09187137929809
 40
39.09187137929809
 40
39.09187137929809
 40
42.226694059537934
 40
42.226694059537934
 40
42.226694059537934
 40
43.71614362615193
 40
43.71614362615193
 40
43.71614362615193
 40
45.124377777752244
 40
45.124377777752244
 40
45.124377777752244
 40
46.397736774380625
 40
46.397736774380625
 40
46.397736774380625
 40
46.943733507097804
 40
46.943733507097804
 40
46.943733507097804
 40
47.400123797410465
 40
47.400123797410465
 40
47.400123797410465
 40
47.74496878580983
 40
47.74496878580983
 40
47.74496878580983
 40
47.959977686960876
 40
47.959977686960876
 40
47.959977686960876
 40
48.0330646003162
 40
48.0330646003162
 40
48.0330646003162
 40
48.0330646003162
 10
18.352941176470587
 20
175.99999999999997
 30
0.0
 10
18.563975478660474
 20
176.0106228533708
 30
0.0
 10
18.770366930627286
 20
176.06621207358805
 30
0.0
 10
18.970680075511815
 20
176.13054184305136
 30
0.0
 10
19.289077196388657
 20
176.23807506357997
 30
0.0
 10
19.58890121365028
 20
176.3840067371873
 30
0.0
 10
19.87015212729677
 20
176.56833686387392
 30
0.0
 10
20.225807848269262
 20
176.80050706897873
 30
0.0
 10
20.545722434059027
 20
177.08835979853336
 30
0.0
 10
20.810615714095327
 20
177.42080655579122
 30
0.0
 10
21.103769744127163
 20
177.78812541025812
 30
0.0
 10
21.32807527040899
 20
178.21110155933536
 30
0.0
 10
21.461930220140328
 20
178.66204905858459
 30
0.0
 10
21.60426763413471
 20
179.13876667192486
 30
0.0
 10
21.644412861084483
 20
179.64503587238312
 30
0.0
 10
21.583289639947797
 20
180.1386109887331
 30
0.0
 10
21.456545374383253
 20
181.17952454593538
 30
0.0
 10
20.885650456183452
 20
182.15325217195846
 30
0.0
 10
20.051288549472027
 20
182.78566448951298
 30
0.0
 10
19.638068330425078
 20
183.10001956324956
 30
0.0
 10
19.158940126196775
 20
183.32961268697716
 30
0.0
 10
18.65176888950575
 20
183.44378337988576
 30
0.0
 10
18.142279430375268
 20
183.55985092926917
 30
0.0
 10
17.607907466810552
 20
183.5555459586138
 30
0.0
 10
17.09820395216496
 20
183.4437833798858
 30
0.0
 10
16.245213217276206
 20
183.25827936595653
 30
0.0
 10
15.481040073355542
 20
182.79503334709247
 30
0.0
 10
14.81329946688254
 20
182.24767597620277
 30
0.0
 10
14.050865671303596
 20
181.62097065114762
 30
0.0
 10
13.390730553016654
 20
180.88317561617248
 30
0.0
 10
12.747199922167331
 20
180.13861098873306
 30
0.0
 10
12.128723431918603
 20
179.4213484037299
 30
0.0
 10
11.527554671612284
 20
178.68835156535215
 30
0.0
 10
10.876646575013904
 20
177.99969397698857
 30
0.0
 10
10.524225772594274
 20
177.62737662284349
 30
0.0
 10
10.156496746717103
 20
177.26763374703836
 30
0.0
 10
9.760785765083439
 20
176.94117647058826
 30
0.0
 10
9.47335699528933
 20
176.70322578105586
 30
0.0
 10
9.163934003382973
 20
176.48231844202226
 30
0.0
 10
8.837706134833583
 20
176.3012424022448
 30
0.0
 10
8.726238002347747
 20
176.2374725332543
 30
0.0
 10
8.608108632178604
 20
176.1805723468564
 30
0.0
 10
8.483318024326124
 20
176.13054184305133
 30
0.0
 10
8.393193666219517
 20
176.0953738567499
 30
0.0
 10
8.296753879555299
 20
176.06455577086
 30
0.0
 10
8.218843515934898
 20
176.0394250032956
 30
0.0
 10
8.172304234080764
 20
176.02441329213738
 30
0.0
 10
8.1323766164418
 20
176.01143092851876
 30
0.0
 10
8.055336090135762
 20
176.00498481532318
 30
0.0
 10
8.029719651359335
 20
176.0028414438804
 30
0.0
 10
7.999999999999999
 20
176.0014207219403
 30
0.0
 10
7.999999999999998
 20
176.0
 30
0.0
 10
7.999999999999998
 20
175.9985792780597
 30
0.0
 10
8.029719651359336
 20
175.99715855611942
 30
0.0
 10
8.05533609013576
 20
175.99501518467673
 30
0.0
 10
8.132376616441801
 20
175.98856907148135
 30
0.0
 10
8.172304234080768
 20
175.97558670786233
 30
0.0
 10
8.218843515934891
 20
175.9605749967044
 30
0.0
 10
8.296753879555288
 20
175.93544422914005
 30
0.0
 10
8.39319366621952
 20
175.90462614325006
 30
0.0
 10
8.483318024326122
 20
175.8694581569486
 30
0.0
 10
8.608108632178597
 20
175.81942765314355
 30
0.0
 10
8.726238002347747
 20
175.7625274667457
 30
0.0
 10
8.83770613483359
 20
175.69875759775516
 30
0.0
 10
9.163934003382984
 20
175.51768155797785
 30
0.0
 10
9.473356995289349
 20
175.29677421894402
 30
0.0
 10
9.760785765083437
 20
175.05882352941182
 30
0.0
 10
10.156496746717085
 20
174.73236625296147
 30
0.0
 10
10.524225772594283
 20
174.37262337715651
 30
0.0
 10
10.8766465750139
 20
174.00030602301143
 30
0.0
 10
11.527554671612279
 20
173.3116484346478
 30
0.0
 10
12.128723431918607
 20
172.5786515962701
 30
0.0
 10
12.747199922167345
 20
171.86138901126697
 30
0.0
 10
13.390730553016825
 20
171.11682438382752
 30
0.0
 10
14.05086567130336
 20
170.3790293488522
 30
0.0
 10
14.813299466882533
 20
169.7523240237972
 30
0.0
 10
15.481040073347813
 20
169.2049666529076
 30
0.0
 10
16.24521321728612
 20
168.7417206340433
 30
0.0
 10
17.09820395216496
 20
168.55621662011424
 30
0.0
 10
17.607907466581228
 20
168.44445404138622
 30
0.0
 10
18.142279430688877
 20
168.44014907073068
 30
0.0
 10
18.651768889505753
 20
168.5562166201142
 30
0.0
 10
19.158940123017306
 20
168.67038731302281
 30
0.0
 10
19.638068334867707
 20
168.89998043675027
 30
0.0
 10
20.051288549472027
 20
169.21433551048705
 30
0.0
 10
20.88565029727788
 20
169.8467478280415
 30
0.0
 10
21.456545582535952
 20
170.82047545406456
 30
0.0
 10
21.583289639947793
 20
171.8613890112669
 30
0.0
 10
21.644404848641635
 20
172.35496412761654
 30
0.0
 10
21.604278546919375
 20
172.86123332807534
 30
0.0
 10
21.46193022014034
 20
173.33795094141533
 30
0.0
 10
21.327972775300044
 20
173.78889844066447
 30
0.0
 10
21.10390849734867
 20
174.211874589742
 30
0.0
 10
20.810615714095327
 20
174.5791934442088
 30
0.0
 10
20.542699748233563
 20
174.9134882842576
 30
0.0
 10
20.229211885967395
 20
175.19764484823028
 30
0.0
 10
19.87015212729677
 20
175.431663136126
 30
0.0
 10
19.714790178679316
 20
175.53140849751261
 30
0.0
 10
19.556054556161566
 20
175.62043998472245
 30
0.0
 10
19.39394525974353
 20
175.69875759775522
 30
0.0
 10
19.25984191489571
 20
175.76407733633502
 30
0.0
 10
19.12689542013372
 20
175.82154826845078
 30
0.0
 10
18.97068007551181
 20
175.86945815694867
 30
0.0
 10
18.85264496423227
 20
175.9056584997123
 30
0.0
 10
18.721325207675353
 20
175.93640025411827
 30
0.0
 10
18.638090557431205
 20
175.9605749967044
 30
0.0
 10
18.58619422345877
 20
175.97564781206745
 30
0.0
 10
18.552990743843512
 20
175.98816773309557
 30
0.0
 10
18.425857899655345
 20
175.99501518467676
 30
0.0
 10
18.38264226012576
 20
175.99734280505777
 30
0.0
 10
18.32857317216922
 20
175.99901497700827
 30
0.0
 10
18.352941176470587
 20
176.0
 30
0.0
  0
SPLINE
  5
33
330
17
100
AcDbEntity
  8
CUT
100
AcDbSpline
 70
0
 71
3
 72
116
 73
112
 74
0
 40
0.0
 40
0.0
 40
0.0
 40
0.0
 40
0.6329408029057362
 40
0.6329408029057362
 40
0.6329408029057362
 40
1.6353278259355712
 40
1.6353278259355712
 40
1.6353278259355712
 40
2.908686822563965
 40
2.908686822563965
 40
2.908686822563965
 40
4.316920974164272
 40
4.316920974164272
 40
4.316920974164272
 40
5.8063705407782775
 40
5.8063705407782775
 40
5.8063705407782775
 40
8.941193221018102
 40
8.941193221018102
 40
8.941193221018102
 40
10.496614270347157
 40
10.496614270347157
 40
10.496614270347157
 40
12.05959075830842
 40
12.05959075830842
 40
12.05959075830842
 40
14.66017864201989
 40
14.66017864201989
 40
14.66017864201989
 40
17.61586767414694
 40
17.61586767414694
 40
17.61586767414694
 40
20.457594145625723
 40
20.457594145625723
 40
20.457594145625723
 40
21.99638040779538
 40
21.99638040779538
 40
21.99638040779538
 40
23.120789785401826
 40
23.120789785401826
 40
23.120789785401826
 40
23.514146638371276
 40
23.514146638371276
 40
23.514146638371276
 40
23.79387694433731
 40
23.79387694433731
 40
23.79387694433731
 40
23.960972141273167
 40
23.960972141273167
 40
23.960972141273167
 40
24.016532300158108
 40
24.016532300158108
 40
24.016532300158108
 40
24.07209245904305
 40
24.07209245904305
 40
24.07209245904305
 40
24.239187655978903
 40
24.239187655978903
 40
24.239187655978903
 40
24.518917961944936
 40
24.518917961944936
 40
24.518917961944936
 40
24.912274814914387
 40
24.912274814914387
 40
24.912274814914387
 40
26.036684192520823
 40
26.036684192520823
 40
26.036684192520823
 40
27.575470454690482
 40
27.575470454690482
 40
27.575470454690482
 40
30.41719692616927
 40
30.41719692616927
 40
30.41719692616927
 40
33.372885958296315
 40
33.372885958296315
 40
33.372885958296315
 40
35.973473842007785
 40
35.973473842007785
 40
35.973473842007785
 40
37.53645032996905
 40
37.53645032996905
 40
37.53645032996905
 40
39.0918713792981
 40
39.0918713792981
 40
39.0918713792981
 40
42.22669405953794
 40
42.22669405953794
 40
42.22669405953794
 40
43.71614362615193
 40
43.71614362615193
 40
43.71614362615193
 40
45.12437777775225
 40
45.12437777775225
 40
45.12437777775225
 40
46.39773677438065
 40
46.39773677438065
 40
46.39773677438065
 40
46.94373350709782
 40
46.94373350709782
 40
46.94373350709782
 40
47.40012379741049
 40
47.40012379741049
 40
47.40012379741049
 40
47.74496878580985
 40
47.74496878580985
 40
47.74496878580985
 40
47.9599776869609
 40
47.9599776869609
 40
47.9599776869609
 40
48.03306460031622
 40
48.03306460031622
 40
48.03306460031622
 40
48.03306460031622
 10
20.352941176470587
 20
74.00000000000001
 30
0.0
 10
20.563975478660456
 20
74.01062285337073
 30
0.0
 10
20.770366930627308
 20
74.06621207358813
 30
0.0
 10
20.97068007551181
 20
74.13054184305132
 30
0.0
 10
21.289077196388625
 20
74.2380750635798
 30
0.0
 10
21.588901213650296
 20
74.38400673718738
 30
0.0
 10
21.870152127296777
 20
74.56833686387395
 30
0.0
 10
22.22580784826926
 20
74.80050706897863
 30
0.0
 10
22.54572243405902
 20
75.08835979853345
 30
0.0
 10
22.810615714095327
 20
75.42080655579119
 30
0.0
 10
23.10376974412716
 20
75.78812541025803
 30
0.0
 10
23.32807527040899
 20
76.21110155933539
 30
0.0
 10
23.46193022014033
 20
76.66204905858463
 30
0.0
 10
23.60426763413471
 20
77.13876667192493
 30
0.0
 10
23.644412861084483
 20
77.64503587238312
 30
0.0
 10
23.5832896399478
 20
78.13861098873308
 30
0.0
 10
23.456545374383236
 20
79.17952454593538
 30
0.0
 10
22.885650456183477
 20
80.15325217195856
 30
0.0
 10
22.051288549472027
 20
80.78566448951295
 30
0.0
 10
21.638068330425096
 20
81.10001956324962
 30
0.0
 10
21.158940126196782
 20
81.32961268697721
 30
0.0
 10
20.651768889505753
 20
81.44378337988577
 30
0.0
 10
20.14227943037526
 20
81.55985092926925
 30
0.0
 10
19.607907466810563
 20
81.55554595861378
 30
0.0
 10
19.09820395216496
 20
81.44378337988574
 30
0.0
 10
18.245213217276206
 20
81.25827936595664
 30
0.0
 10
17.48104007335554
 20
80.79503334709241
 30
0.0
 10
16.813299466882537
 20
80.24767597620274
 30
0.0
 10
16.050865671303608
 20
79.62097065114784
 30
0.0
 10
15.390730553016647
 20
78.88317561617235
 30
0.0
 10
14.747199922167336
 20
78.13861098873309
 30
0.0
 10
14.12872343191861
 20
77.4213484037298
 30
0.0
 10
13.527554671612284
 20
76.68835156535225
 30
0.0
 10
12.876646575013904
 20
75.99969397698857
 30
0.0
 10
12.524225772594288
 20
75.62737662284354
 30
0.0
 10
12.15649674671709
 20
75.26763374703843
 30
0.0
 10
11.760785765083437
 20
74.94117647058825
 30
0.0
 10
11.47335699528935
 20
74.70322578105598
 30
0.0
 10
11.16393400338297
 20
74.4823184420221
 30
0.0
 10
10.837706134833585
 20
74.30124240224487
 30
0.0
 10
10.72623800234776
 20
74.23747253325428
 30
0.0
 10
10.6081086321786
 20
74.18057234685641
 30
0.0
 10
10.483318024326122
 20
74.1305418430513
 30
0.0
 10
10.393193666219517
 20
74.09537385674987
 30
0.0
 10
10.296753879555299
 20
74.06455577085998
 30
0.0
 10
10.218843515934891
 20
74.03942500329559
 30
0.0
 10
10.17230423408078
 20
74.02441329213765
 30
0.0
 10
10.132376616441807
 20
74.0114309285186
 30
0.0
 10
10.055336090135764
 20
74.00498481532321
 30
0.0
 10
10.029719651359317
 20
74.00284144388047
 30
0.0
 10
10.000000000000004
 20
74.00142072194022
 30
0.0
 10
9.999999999999998
 20
73.99999999999999
 30
0.0
 10
9.999999999999995
 20
73.99857927805972
 30
0.0
 10
10.029719651359331
 20
73.9971585561195
 30
0.0
 10
10.055336090135762
 20
73.99501518467677
 30
0.0
 10
10.132376616441803
 20
73.98856907148144
 30
0.0
 10
10.17230423408077
 20
73.9755867078624
 30
0.0
 10
10.218843515934894
 20
73.96057499670441
 30
0.0
 10
10.296753879555286
 20
73.93544422914006
 30
0.0
 10
10.39319366621953
 20
73.90462614325013
 30
0.0
 10
10.483318024326124
 20
73.86945815694867
 30
0.0
 10
10.608108632178606
 20
73.8194276531436
 30
0.0
 10
10.726238002347753
 20
73.76252746674572
 30
0.0
 10
10.837706134833585
 20
73.69875759775516
 30
0.0
 10
11.163934003382971
 20
73.51768155797791
 30
0.0
 10
11.473356995289345
 20
73.29677421894405
 30
0.0
 10
11.760785765083433
 20
73.05882352941178
 30
0.0
 10
12.156496746717096
 20
72.73236625296155
 30
0.0
 10
12.524225772594287
 20
72.37262337715646
 30
0.0
 10
12.876646575013897
 20
72.00030602301142
 30
0.0
 10
13.527554671612297
 20
71.31164843464785
 30
0.0
 10
14.128723431918612
 20
70.57865159627018
 30
0.0
 10
14.74719992216734
 20
69.86138901126692
 30
0.0
 10
15.39073055301683
 20
69.11682438382756
 30
0.0
 10
16.050865671303352
 20
68.37902934885226
 30
0.0
 10
16.813299466882537
 20
67.75232402379721
 30
0.0
 10
17.48104007334781
 20
67.20496665290756
 30
0.0
 10
18.245213217286132
 20
66.74172063404336
 30
0.0
 10
19.09820395216496
 20
66.55621662011426
 30
0.0
 10
19.607907466581256
 20
66.44445404138624
 30
0.0
 10
20.142279430688863
 20
66.44014907073073
 30
0.0
 10
20.651768889505753
 20
66.55621662011421
 30
0.0
 10
21.15894012301728
 20
66.67038731302274
 30
0.0
 10
21.638068334867704
 20
66.89998043675037
 30
0.0
 10
22.051288549472023
 20
67.21433551048705
 30
0.0
 10
22.885650297277916
 20
67.84674782804154
 30
0.0
 10
23.456545582535927
 20
68.82047545406456
 30
0.0
 10
23.5832896399478
 20
69.86138901126692
 30
0.0
 10
23.644404848641656
 20
70.35496412761685
 30
0.0
 10
23.604278546919367
 20
70.86123332807512
 30
0.0
 10
23.46193022014033
 20
71.33795094141533
 30
0.0
 10
23.327972775300033
 20
71.7888984406646
 30
0.0
 10
23.10390849734869
 20
72.21187458974195
 30
0.0
 10
22.810615714095327
 20
72.57919344420881
 30
0.0
 10
22.542699748233556
 20
72.91348828425771
 30
0.0
 10
22.229211885967366
 20
73.19764484823013
 30
0.0
 10
21.87015212729678
 20
73.43166313612608
 30
0.0
 10
21.71479017867931
 20
73.53140849751267
 30
0.0
 10
21.55605455616156
 20
73.62043998472237
 30
0.0
 10
21.39394525974352
 20
73.69875759775516
 30
0.0
 10
21.259841914895695
 20
73.7640773363351
 30
0.0
 10
21.126895420133742
 20
73.82154826845064
 30
0.0
 10
20.97068007551181
 20
73.86945815694868
 30
0.0
 10
20.852644964232297
 20
73.90565849971232
 30
0.0
 10
20.721325207675367
 20
73.93640025411828
 30
0.0
 10
20.63809055743121
 20
73.9605749967044
 30
0.0
 10
20.586194223458765
 20
73.97564781206744
 30
0.0
 10
20.552990743843495
 20
73.98816773309558
 30
0.0
 10
20.425857899655345
 20
73.99501518467679
 30
0.0
 10
20.38264226012574
 20
73.9973428050578
 30
0.0
 10
20.328573172169204
 20
73.99901497700834
 30
0.0
 10
20.352941176470587
 20
73.99999999999999
 30
0.0
  0
SPLINE
  5
34
330
17
100
AcDbEntity
  8
CUT
100
AcDbSpline
 70
0
 71
3
 72
116
 73
112
 74
0
 40
0.0
 40
0.0
 40
0.0
 40
0.0
 40
0.63294080290574
 40
0.63294080290574
 40
0.63294080290574
 40
1.6353278259355768
 40
1.6353278259355768
 40
1.6353278259355768
 40
2.9086868225639617
 40
2.9086868225639617
 40
2.9086868225639617
 40
4.316920974164268
 40
4.316920974164268
 40
4.316920974164268
 40
5.806370540778274
 40
5.806370540778274
 40
5.806370540778274
 40
8.941193221018107
 40
8.941193221018107
 40
8.941193221018107
 40
10.496614270347155
 40
10.496614270347155
 40
10.496614270347155
 40
12.059590758308419
 40
12.059590758308419
 40
12.059590758308419
 40
14.660178642019888
 40
14.660178642019888
 40
14.660178642019888
 40
17.615867674146937
 40
17.615867674146937
 40
17.615867674146937
 40
20.45759414562572
 40
20.45759414562572
 40
20.45759414562572
 40
21.996380407795378
 40
21.996380407795378
 40
21.996380407795378
 40
23.12078978540182
 40
23.12078978540182
 40
23.12078978540182
 40
23.514146638371262
 40
23.514146638371262
 40
23.514146638371262
 40
23.7938769443373
 40
23.7938769443373
 40
23.7938769443373
 40
23.960972141273157
 40
23.960972141273157
 40
23.960972141273157
 40
24.016532300158097
 40
24.016532300158097
 40
24.016532300158097
 40
24.072092459043038
 40
24.072092459043038
 40
24.072092459043038
 40
24.239187655978892
 40
24.239187655978892
 40
24.239187655978892
 40
24.518917961944933
 40
24.518917961944933
 40
24.518917961944933
 40
24.912274814914376
 40
24.912274814914376
 40
24.912274814914376
 40
26.036684192520816
 40
26.036684192520816
 40
26.036684192520816
 40
27.575470454690475
 40
27.575470454690475
 40
27.575470454690475
 40
30.417196926169265
 40
30.417196926169265
 40
30.417196926169265
 40
33.37288595829631
 40
33.37288595829631
 40
33.37288595829631
 40
35.97347384200778
 40
35.97347384200778
 40
35.97347384200778
 40
37.53645032996904
 40
37.53645032996904
 40
37.53645032996904
 40
39.09187137929809
 40
39.09187137929809
 40
39.09187137929809
 40
42.226694059537934
 40
42.226694059537934
 40
42.226694059537934
 40
43.71614362615193
 40
43.71614362615193
 40
43.71614362615193
 40
45.124377777752244
 40
45.124377777752244
 40
45.124377777752244
 40
46.397736774380625
 40
46.397736774380625
 40
46.397736774380625
 40
46.943733507097804
 40
46.943733507097804
 40
46.943733507097804
 40
47.400123797410465
 40
47.400123797410465
 40
47.400123797410465
 40
47.74496878580983
 40
47.74496878580983
 40
47.74496878580983
 40
47.959977686960876
 40
47.959977686960876
 40
47.959977686960876
 40
48.0330646003162
 40
48.0330646003162
 40
48.0330646003162
 40
48.0330646003162
 10
20.35294117647059
 20
142.0
 30
0.0
 10
20.563975478660463
 20
142.01062285337068
 30
0.0
 10
20.770366930627304
 20
142.06621207358816
 30
0.0
 10
20.97068007551181
 20
142.1305418430513
 30
0.0
 10
21.28907719638866
 20
142.23807506357994
 30
0.0
 10
21.588901213650285
 20
142.3840067371873
 30
0.0
 10
21.87015212729677
 20
142.56833686387392
 30
0.0
 10
22.225807848269273
 20
142.80050706897873
 30
0.0
 10
22.545722434059034
 20
143.0883597985334
 30
0.0
 10
22.81061571409533
 20
143.4208065557912
 30
0.0
 10
23.103769744127163
 20
143.7881254102581
 30
0.0
 10
23.32807527040898
 20
144.21110155933533
 30
0.0
 10
23.461930220140335
 20
144.6620490585846
 30
0.0
 10
23.6042676341347
 20
145.13876667192488
 30
0.0
 10
23.64441286108449
 20
145.64503587238318
 30
0.0
 10
23.5832896399478
 20
146.1386109887331
 30
0.0
 10
23.456545374383253
 20
147.17952454593535
 30
0.0
 10
22.885650456183456
 20
148.1532521719585
 30
0.0
 10
22.051288549472027
 20
148.78566448951293
 30
0.0
 10
21.638068330425078
 20
149.10001956324962
 30
0.0
 10
21.15894012619678
 20
149.32961268697724
 30
0.0
 10
20.651768889505753
 20
149.44378337988573
 30
0.0
 10
20.14227943037527
 20
149.55985092926932
 30
0.0
 10
19.607907466810556
 20
149.55554595861372
 30
0.0
 10
19.09820395216496
 20
149.44378337988573
 30
0.0
 10
18.245213217276184
 20
149.2582793659566
 30
0.0
 10
17.481040073355548
 20
148.79503334709239
 30
0.0
 10
16.813299466882533
 20
148.24767597620277
 30
0.0
 10
16.050865671303605
 20
147.6209706511476
 30
0.0
 10
15.390730553016638
 20
146.8831756161725
 30
0.0
 10
14.747199922167326
 20
146.138610988733
 30
0.0
 10
14.128723431918612
 20
145.42134840372987
 30
0.0
 10
13.527554671612283
 20
144.68835156535212
 30
0.0
 10
12.876646575013904
 20
143.99969397698857
 30
0.0
 10
12.524225772594274
 20
143.6273766228435
 30
0.0
 10
12.1564967467171
 20
143.2676337470383
 30
0.0
 10
11.76078576508344
 20
142.94117647058826
 30
0.0
 10
11.473356995289327
 20
142.70322578105583
 30
0.0
 10
11.163934003382977
 20
142.48231844202226
 30
0.0
 10
10.837706134833583
 20
142.3012424022448
 30
0.0
 10
10.726238002347744
 20
142.23747253325428
 30
0.0
 10
10.608108632178604
 20
142.18057234685642
 30
0.0
 10
10.483318024326122
 20
142.13054184305133
 30
0.0
 10
10.393193666219519
 20
142.09537385674977
 30
0.0
 10
10.296753879555299
 20
142.06455577086007
 30
0.0
 10
10.218843515934896
 20
142.0394250032956
 30
0.0
 10
10.172304234080766
 20
142.02441329213752
 30
0.0
 10
10.132376616441796
 20
142.01143092851868
 30
0.0
 10
10.055336090135762
 20
142.00498481532318
 30
0.0
 10
10.02971965135934
 20
142.0028414438804
 30
0.0
 10
9.999999999999998
 20
142.00142072194035
 30
0.0
 10
10.0
 20
141.99999999999997
 30
0.0
 10
9.999999999999995
 20
141.99857927805965
 30
0.0
 10
10.029719651359338
 20
141.9971585561195
 30
0.0
 10
10.05533609013576
 20
141.99501518467676
 30
0.0
 10
10.132376616441805
 20
141.98856907148135
 30
0.0
 10
10.172304234080759
 20
141.97558670786242
 30
0.0
 10
10.218843515934894
 20
141.96057499670442
 30
0.0
 10
10.296753879555286
 20
141.93544422914
 30
0.0
 10
10.393193666219519
 20
141.90462614325008
 30
0.0
 10
10.483318024326122
 20
141.8694581569486
 30
0.0
 10
10.608108632178599
 20
141.81942765314352
 30
0.0
 10
10.726238002347754
 20
141.76252746674567
 30
0.0
 10
10.837706134833589
 20
141.6987575977552
 30
0.0
 10
11.163934003382986
 20
141.51768155797785
 30
0.0
 10
11.473356995289352
 20
141.29677421894397
 30
0.0
 10
11.760785765083437
 20
141.0588235294118
 30
0.0
 10
12.15649674671708
 20
140.73236625296155
 30
0.0
 10
12.524225772594288
 20
140.37262337715646
 30
0.0
 10
12.8766465750139
 20
140.00030602301143
 30
0.0
 10
13.527554671612277
 20
139.31164843464774
 30
0.0
 10
14.128723431918605
 20
138.57865159627016
 30
0.0
 10
14.747199922167344
 20
137.86138901126694
 30
0.0
 10
15.390730553016818
 20
137.1168243838275
 30
0.0
 10
16.050865671303367
 20
136.37902934885227
 30
0.0
 10
16.813299466882537
 20
135.7523240237972
 30
0.0
 10
17.481040073347806
 20
135.2049666529076
 30
0.0
 10
18.24521321728614
 20
134.74172063404333
 30
0.0
 10
19.098203952164955
 20
134.55621662011424
 30
0.0
 10
19.60790746658124
 20
134.44445404138625
 30
0.0
 10
20.14227943068887
 20
134.44014907073074
 30
0.0
 10
20.651768889505757
 20
134.55621662011424
 30
0.0
 10
21.15894012301731
 20
134.6703873130229
 30
0.0
 10
21.638068334867707
 20
134.89998043675024
 30
0.0
 10
22.051288549472023
 20
135.21433551048705
 30
0.0
 10
22.885650297277895
 20
135.8467478280415
 30
0.0
 10
23.456545582535956
 20
136.8204754540646
 30
0.0
 10
23.58328963994779
 20
137.8613890112669
 30
0.0
 10
23.644404848641628
 20
138.3549641276167
 30
0.0
 10
23.604278546919375
 20
138.86123332807517
 30
0.0
 10
23.46193022014033
 20
139.33795094141536
 30
0.0
 10
23.327972775300033
 20
139.7888984406646
 30
0.0
 10
23.103908497348684
 20
140.2118745897419
 30
0.0
 10
22.810615714095324
 20
140.5791934442088
 30
0.0
 10
22.542699748233556
 20
140.9134882842576
 30
0.0
 10
22.229211885967395
 20
141.19764484823025
 30
0.0
 10
21.870152127296766
 20
141.431663136126
 30
0.0
 10
21.714790178679326
 20
141.5314084975126
 30
0.0
 10
21.55605455616157
 20
141.62043998472245
 30
0.0
 10
21.39394525974353
 20
141.69875759775522
 30
0.0
 10
21.25984191489569
 20
141.76407733633508
 30
0.0
 10
21.126895420133735
 20
141.8215482684507
 30
0.0
 10
20.97068007551181
 20
141.8694581569487
 30
0.0
 10
20.852644964232283
 20
141.90565849971236
 30
0.0
 10
20.721325207675342
 20
141.93640025411827
 30
0.0
 10
20.63809055743121
 20
141.96057499670442
 30
0.0
 10
20.586194223458772
 20
141.97564781206745
 30
0.0
 10
20.55299074384351
 20
141.98816773309554
 30
0.0
 10
20.425857899655345
 20
141.9950151846768
 30
0.0
 10
20.38264226012575
 20
141.9973428050577
 30
0.0
 10
20.328573172169204
 20
141.99901497700833
 30
0.0
 10
20.352941176470587
 20
142.0
 30
0.0
  0
SPLINE
  5
35
330
17
100
AcDbEntity
  8
CUT
100
AcDbSpline
 70
0
 71
3
 72
116
 73
112
 74
0
 40
0.0
 40
0.0
 40
0.0
 40
0.0
 40
0.63294080290574
 40
0.63294080290574
 40
0.63294080290574
 40
1.6353278259355768
 40
1.6353278259355768
 40
1.6353278259355768
 40
2.9086868225639617
 40
2.9086868225639617
 40
2.9086868225639617
 40
4.316920974164268
 40
4.316920974164268
 40
4.316920974164268
 40
5.806370540778274
 40
5.806370540778274
 40
5.806370540778274
 40
8.941193221018107
 40
8.941193221018107
 40
8.941193221018107
 40
10.496614270347155
 40
10.496614270347155
 40
10.496614270347155
 40
12.059590758308419
 40
12.059590758308419
 40
12.059590758308419
 40
14.660178642019888
 40
14.660178642019888
 40
14.660178642019888
 40
17.615867674146937
 40
17.615867674146937
 40
17.615867674146937
 40
20.45759414562572
 40
20.45759414562572
 40
20.45759414562572
 40
21.996380407795378
 40
21.996380407795378
 40
21.996380407795378
 40
23.12078978540182
 40
23.12078978540182
 40
23.12078978540182
 40
23.514146638371262
 40
23.514146638371262
 40
23.514146638371262
 40
23.7938769443373
 40
23.7938769443373
 40
23.7938769443373
 40
23.960972141273157
 40
23.960972141273157
 40
23.960972141273157
 40
24.016532300158097
 40
24.016532300158097
 40
24.016532300158097
 40
24.072092459043038
 40
24.072092459043038
 40
24.072092459043038
 40
24.239187655978892
 40
24.239187655978892
 40
24.239187655978892
 40
24.518917961944933
 40
24.518917961944933
 40
24.518917961944933
 40
24.912274814914376
 40
24.912274814914376
 40
24.912274814914376
 40
26.036684192520816
 40
26.036684192520816
 40
26.036684192520816
 40
27.575470454690475
 40
27.575470454690475
 40
27.575470454690475
 40
30.417196926169265
 40
30.417196926169265
 40
30.417196926169265
 40
33.37288595829631
 40
33.37288595829631
 40
33.37288595829631
 40
35.97347384200778
 40
35.97347384200778
 40
35.97347384200778
 40
37.53645032996904
 40
37.53645032996904
 40
37.53645032996904
 40
39.09187137929809
 40
39.09187137929809
 40
39.09187137929809
 40
42.226694059537934
 40
42.226694059537934
 40
42.226694059537934
 40
43.71614362615193
 40
43.71614362615193
 40
43.71614362615193
 40
45.124377777752244
 40
45.124377777752244
 40
45.124377777752244
 40
46.397736774380625
 40
46.397736774380625
 40
46.397736774380625
 40
46.943733507097804
 40
46.943733507097804
 40
46.943733507097804
 40
47.400123797410465
 40
47.400123797410465
 40
47.400123797410465
 40
47.74496878580983
 40
47.74496878580983
 40
47.74496878580983
 40
47.959977686960876
 40
47.959977686960876
 40
47.959977686960876
 40
48.0330646003162
 40
48.0330646003162
 40
48.0330646003162
 40
48.0330646003162
 10
20.35294117647059
 20
210.0
 30
0.0
 10
20.563975478660463
 20
210.0106228533707
 30
0.0
 10
20.770366930627304
 20
210.0662120735882
 30
0.0
 10
20.97068007551181
 20
210.1305418430513
 30
0.0
 10
21.28907719638866
 20
210.23807506358
 30
0.0
 10
21.588901213650285
 20
210.3840067371873
 30
0.0
 10
21.87015212729677
 20
210.5683368638739
 30
0.0
 10
22.225807848269273
 20
210.8005070689787
 30
0.0
 10
22.545722434059034
 20
211.08835979853342
 30
0.0
 10
22.81061571409533
 20
211.42080655579116
 30
0.0
 10
23.103769744127163
 20
211.7881254102581
 30
0.0
 10
23.32807527040898
 20
212.21110155933533
 30
0.0
 10
23.461930220140335
 20
212.66204905858459
 30
0.0
 10
23.6042676341347
 20
213.13876667192494
 30
0.0
 10
23.64441286108449
 20
213.64503587238312
 30
0.0
 10
23.5832896399478
 20
214.1386109887331
 30
0.0
 10
23.456545374383253
 20
215.17952454593524
 30
0.0
 10
22.885650456183456
 20
216.15325217195854
 30
0.0
 10
22.051288549472027
 20
216.78566448951295
 30
0.0
 10
21.638068330425078
 20
217.10001956324965
 30
0.0
 10
21.15894012619678
 20
217.32961268697724
 30
0.0
 10
20.651768889505753
 20
217.44378337988567
 30
0.0
 10
20.14227943037527
 20
217.55985092926923
 30
0.0
 10
19.607907466810556
 20
217.55554595861378
 30
0.0
 10
19.09820395216496
 20
217.4437833798857
 30
0.0
 10
18.245213217276184
 20
217.2582793659565
 30
0.0
 10
17.481040073355548
 20
216.79503334709247
 30
0.0
 10
16.813299466882533
 20
216.24767597620274
 30
0.0
 10
16.050865671303605
 20
215.62097065114762
 30
0.0
 10
15.390730553016638
 20
214.88317561617234
 30
0.0
 10
14.747199922167326
 20
214.13861098873303
 30
0.0
 10
14.128723431918612
 20
213.4213484037298
 30
0.0
 10
13.527554671612283
 20
212.68835156535226
 30
0.0
 10
12.876646575013904
 20
211.9996939769886
 30
0.0
 10
12.524225772594274
 20
211.62737662284346
 30
0.0
 10
12.1564967467171
 20
211.26763374703845
 30
0.0
 10
11.76078576508344
 20
210.94117647058826
 30
0.0
 10
11.473356995289327
 20
210.70322578105583
 30
0.0
 10
11.163934003382977
 20
210.48231844202218
 30
0.0
 10
10.837706134833583
 20
210.30124240224484
 30
0.0
 10
10.726238002347744
 20
210.2374725332541
 30
0.0
 10
10.608108632178604
 20
210.18057234685656
 30
0.0
 10
10.483318024326122
 20
210.1305418430513
 30
0.0
 10
10.393193666219519
 20
210.09537385674983
 30
0.0
 10
10.296753879555299
 20
210.06455577085998
 30
0.0
 10
10.218843515934896
 20
210.03942500329563
 30
0.0
 10
10.172304234080766
 20
210.0244132921375
 30
0.0
 10
10.132376616441796
 20
210.01143092851868
 30
0.0
 10
10.055336090135762
 20
210.00498481532318
 30
0.0
 10
10.02971965135934
 20
210.00284144388044
 30
0.0
 10
9.999999999999998
 20
210.00142072194026
 30
0.0
 10
10.0
 20
209.99999999999991
 30
0.0
 10
9.999999999999995
 20
209.99857927805957
 30
0.0
 10
10.029719651359338
 20
209.99715855611956
 30
0.0
 10
10.05533609013576
 20
209.99501518467673
 30
0.0
 10
10.132376616441805
 20
209.9885690714814
 30
0.0
 10
10.172304234080759
 20
209.9755867078624
 30
0.0
 10
10.218843515934894
 20
209.9605749967044
 30
0.0
 10
10.296753879555286
 20
209.93544422914002
 30
0.0
 10
10.393193666219519
 20
209.90462614325003
 30
0.0
 10
10.483318024326122
 20
209.8694581569486
 30
0.0
 10
10.608108632178599
 20
209.81942765314352
 30
0.0
 10
10.726238002347754
 20
209.76252746674575
 30
0.0
 10
10.837706134833589
 20
209.69875759775516
 30
0.0
 10
11.163934003382986
 20
209.5176815579778
 30
0.0
 10
11.473356995289352
 20
209.29677421894408
 30
0.0
 10
11.760785765083437
 20
209.05882352941182
 30
0.0
 10
12.15649674671708
 20
208.73236625296153
 30
0.0
 10
12.524225772594288
 20
208.37262337715646
 30
0.0
 10
12.8766465750139
 20
208.00030602301143
 30
0.0
 10
13.527554671612277
 20
207.31164843464765
 30
0.0
 10
14.128723431918605
 20
206.57865159627022
 30
0.0
 10
14.747199922167344
 20
205.861389011267
 30
0.0
 10
15.390730553016818
 20
205.11682438382735
 30
0.0
 10
16.050865671303367
 20
204.37902934885236
 30
0.0
 10
16.813299466882537
 20
203.75232402379723
 30
0.0
 10
17.481040073347806
 20
203.20496665290733
 30
0.0
 10
18.24521321728614
 20
202.7417206340435
 30
0.0
 10
19.098203952164955
 20
202.5562166201142
 30
0.0
 10
19.60790746658124
 20
202.4444540413861
 30
0.0
 10
20.14227943068887
 20
202.44014907073077
 30
0.0
 10
20.651768889505757
 20
202.55621662011424
 30
0.0
 10
21.15894012301731
 20
202.67038731302284
 30
0.0
 10
21.638068334867707
 20
202.89998043675024
 30
0.0
 10
22.051288549472023
 20
203.21433551048705
 30
0.0
 10
22.885650297277895
 20
203.8467478280415
 30
0.0
 10
23.456545582535956
 20
204.8204754540646
 30
0.0
 10
23.58328963994779
 20
205.8613890112669
 30
0.0
 10
23.644404848641628
 20
206.35496412761674
 30
0.0
 10
23.604278546919375
 20
206.86123332807512
 30
0.0
 10
23.46193022014033
 20
207.3379509414154
 30
0.0
 10
23.327972775300033
 20
207.78889844066447
 30
0.0
 10
23.103908497348684
 20
208.21187458974202
 30
0.0
 10
22.810615714095324
 20
208.57919344420878
 30
0.0
 10
22.542699748233556
 20
208.91348828425757
 30
0.0
 10
22.229211885967395
 20
209.19764484823023
 30
0.0
 10
21.870152127296766
 20
209.43166313612596
 30
0.0
 10
21.714790178679326
 20
209.5314084975126
 30
0.0
 10
21.55605455616157
 20
209.62043998472242
 30
0.0
 10
21.39394525974353
 20
209.69875759775525
 30
0.0
 10
21.25984191489569
 20
209.764077336335
 30
0.0
 10
21.126895420133735
 20
209.8215482684508
 30
0.0
 10
20.97068007551181
 20
209.86945815694867
 30
0.0
 10
20.852644964232283
 20
209.90565849971227
 30
0.0
 10
20.721325207675342
 20
209.93640025411827
 30
0.0
 10
20.63809055743121
 20
209.96057499670442
 30
0.0
 10
20.586194223458772
 20
209.9756478120674
 30
0.0
 10
20.55299074384351
 20
209.98816773309554
 30
0.0
 10
20.425857899655345
 20
209.99501518467676
 30
0.0
 10
20.38264226012575
 20
209.99734280505777
 30
0.0
 10
20.328573172169204
 20
209.99901497700822
 30
0.0
 10
20.352941176470587
 20
210.0
 30
0.0
  0
LINE
  5
36
330
17
100
AcDbEntity
  8
CUT
100
AcDbLine
 10
0.0
 20
28.77777777777778
 30
0.0
 11
6.0
 21
28.77777777777778
 31
0.0
  0
LINE
  5
37
330
17
100
AcDbEntity
  8
CUT
100
AcDbLine
 10
0.0
 20
57.55555555555556
 30
0.0
 11
0.0
 21
28.77777777777778
 31
0.0
  0
LINE
  5
38
330
17
100
AcDbEntity
  8
CUT
100
AcDbLine
 10
0.0
 20
86.33333333333334
 30
0.0
 11
6.0
 21
86.33333333333334
 31
0.0
  0
LINE
  5
39
330
17
100
AcDbEntity
  8
CUT
100
AcDbLine
 10
0.0
 20
115.11111111111111
 30
0.0
 11
0.0
 21
86.33333333333334
 31
0.0
  0
LINE
  5
3A
330
17
100
AcDbEntity
  8
CUT
100
AcDbLine
 10
0.0
 20
143.88888888888889
 30
0.0
 11
6.0
 21
143.88888888888889
 31
0.0
  0
LINE
  5
3B
330
17
100
AcDbEntity
  8
CUT
100
AcDbLine
 10
0.0
 20
172.66666666666669
 30
0.0
 11
0.0
 21
143.88888888888889
 31
0.0
  0
LINE
  5
3C
330
17
100
AcDbEntity
  8
CUT
100
AcDbLine
 10
0.0
 20
201.44444444444446
 30
0.0
 11
6.0
 21
201.44444444444446
 31
0.0
  0
LINE
  5
3D
330
17
100
AcDbEntity
  8
CUT
100
AcDbLine
 10
0.0
 20
230.22222222222223
 30
0.0
 11
0.0
 21
201.44444444444446
 31
0.0
  0
LINE
  5
3E
330
17
100
AcDbEntity
  8
CUT
100
AcDbLine
 10
6.0
 20
6.0
 30
0.0
 11
30.0
 21
6.0
 31
0.0
  0
LINE
  5
3F
330
17
100
AcDbEntity
  8
CUT
100
AcDbLine
 10
6.0
 20
28.77777777777778
 30
0.0
 11
6.0
 21
6.0
 31
0.0
  0
LINE
  5
40
330
17
100
AcDbEntity
  8
CUT
100
AcDbLine
 10
6.0
 20
57.55555555555556
 30
0.0
 11
0.0
 21
57.55555555555556
 31
0.0
  0
LINE
  5
41
330
17
100
AcDbEntity
  8
CUT
100
AcDbLine
 10
6.0
 20
86.33333333333334
 30
0.0
 11
6.0
 21
57.55555555555556
 31
0.0
  0
LINE
  5
42
330
17
100
AcDbEntity
  8
CUT
100
AcDbLine
 10
6.0
 20
115.11111111111111
 30
0.0
 11
0.0
 21
115.11111111111111
 31
0.0
  0
LINE
  5
43
330
17
100
AcDbEntity
  8
CUT
100
AcDbLine
 10
6.0
 20
143.88888888888889
 30
0.0
 11
6.0
 21
115.11111111111111
 31
0.0
  0
LINE
  5
44
330
17
100
AcDbEntity
  8
CUT
100
AcDbLine
 10
6.0
 20
172.66666666666669
 30
0.0
 11
0.0
 21
172.66666666666669
 31
0.0
  0
LINE
  5
45
330
17
100
AcDbEntity
  8
CUT
100
AcDbLine
 10
6.0
 20
201.44444444444446
 30
0.0
 11
6.0
 21
172.66666666666669
 31
0.0
  0
LINE
  5
46
330
17
100
AcDbEntity
  8
CUT
100
AcDbLine
 10
6.0
 20
230.22222222222223
 30
0.0
 11
0.0
 21
230.22222222222223
 31
0.0
  0
LINE
  5
47
330
17
100
AcDbEntity
  8
CUT
100
AcDbLine
 10
6.0
 20
259.0
 30
0.0
 11
6.0
 21
230.22222222222223
 31
0.0
  0
LINE
  5
48
330
17
100
AcDbEntity
  8
CUT
100
AcDbLine
 10
30.0
 20
0.0
 30
0.0
 11
60.0
 21
0.0
 31
0.0
  0
LINE
  5
49
330
17
100
AcDbEntity
  8
CUT
100
AcDbLine
 10
30.0
 20
6.0
 30
0.0
 11
30.0
 21
0.0
 31
0.0
  0
LINE
  5
4A
330
17
100
AcDbEntity
  8
CUT
100
AcDbLine
 10
30.0
 20
64.5
 30
0.0
 11
30.0
 21
94.5
 31
0.0
  0
LINE
  5
4B
330
17
100
AcDbEntity
  8
CUT
100
AcDbLine
 10
30.0
 20
94.5
 30
0.0
 11
36.0
 21
94.5
 31
0.0
  0
LINE
  5
4C
330
17
100
AcDbEntity
  8
CUT
100
AcDbLine
 10
30.0
 20
170.5
 30
0.0
 11
30.0
 21
200.5
 31
0.0
  0
LINE
  5
4D
330
17
100
AcDbEntity
  8
CUT
100
AcDbLine
 10
30.0
 20
200.5
 30
0.0
 11
36.0
 21
200.5
 31
0.0
  0
LINE
  5
4E
330
17
100
AcDbEntity
  8
CUT
100
AcDbLine
 10
36.0
 20
64.5
 30
0.0
 11
30.0
 21
64.5
 31
0.0
  0
LINE
  5
4F
330
17
100
AcDbEntity
  8
CUT
100
AcDbLine
 10
36.0
 20
94.5
 30
0.0
 11
36.0
 21
64.5
 31
0.0
  0
LINE
  5
50
330
17
100
AcDbEntity
  8
CUT
100
AcDbLine
 10
36.0
 20
170.5
 30
0.0
 11
30.0
 21
170.5
 31
0.0
  0
LINE
  5
51
330
17
100
AcDbEntity
  8
CUT
100
AcDbLine
 10
36.0
 20
200.5
 30
0.0
 11
36.0
 21
170.5
 31
0.0
  0
LINE
  5
52
330
17
100
AcDbEntity
  8
CUT
100
AcDbLine
 10
60.0
 20
0.0
 30
0.0
 11
60.0
 21
6.0
 31
0.0
  0
LINE
  5
53
330
17
100
AcDbEntity
  8
CUT
100
AcDbLine
 10
60.0
 20
6.0
 30
0.0
 11
90.0
 21
6.0
 31
0.0
  0
LINE
  5
54
330
17
100
AcDbEntity
  8
CUT
100
AcDbLine
 10
90.0
 20
0.0
 30
0.0
 11
120.0
 21
0.0
 31
0.0
  0
LINE
  5
55
330
17
100
AcDbEntity
  8
CUT
100
AcDbLine
 10
90.0
 20
6.0
 30
0.0
 11
90.0
 21
0.0
 31
0.0
  0
LINE
  5
56
330
17
100
AcDbEntity
  8
CUT
100
AcDbLine
 10
120.0
 20
0.0
 30
0.0
 11
120.0
 21
6.0
 31
0.0
  0
LINE
  5
57
330
17
100
AcDbEntity
  8
CUT
100
AcDbLine
 10
120.0
 20
6.0
 30
0.0
 11
150.0
 21
6.0
 31
0.0
  0
LINE
  5
58
330
17
100
AcDbEntity
  8
CUT
100
AcDbLine
 10
150.0
 20
0.0
 30
0.0
 11
180.0
 21
0.0
 31
0.0
  0
LINE
  5
59
330
17
100
AcDbEntity
  8
CUT
100
AcDbLine
 10
150.0
 20
6.0
 30
0.0
 11
150.0
 21
0.0
 31
0.0
  0
LINE
  5
5A
330
17
100
AcDbEntity
  8
CUT
100
AcDbLine
 10
180.0
 20
0.0
 30
0.0
 11
180.0
 21
6.0
 31
0.0
  0
LINE
  5
5B
330
17
100
AcDbEntity
  8
CUT
100
AcDbLine
 10
180.0
 20
6.0
 30
0.0
 11
210.0
 21
6.0
 31
0.0
  0
LINE
  5
5C
330
17
100
AcDbEntity
  8
CUT
100
AcDbLine
 10
210.0
 20
0.0
 30
0.0
 11
240.0
 21
0.0
 31
0.0
  0
LINE
  5
5D
330
17
100
AcDbEntity
  8
CUT
100
AcDbLine
 10
210.0
 20
6.0
 30
0.0
 11
210.0
 21
0.0
 31
0.0
  0
LINE
  5
5E
330
17
100
AcDbEntity
  8
CUT
100
AcDbLine
 10
240.0
 20
0.0
 30
0.0
 11
240.0
 21
6.0
 31
0.0
  0
LINE
  5
5F
330
17
100
AcDbEntity
  8
CUT
100
AcDbLine
 10
240.0
 20
6.0
 30
0.0
 11
264.0
 21
6.0
 31
0.0
  0
LINE
  5
60
330
17
100
AcDbEntity
  8
CUT
100
AcDbLine
 10
264.0
 20
6.0
 30
0.0
 11
264.0
 21
28.77777777777778
 31
0.0
  0
LINE
  5
61
330
17
100
AcDbEntity
  8
CUT
100
AcDbLine
 10
264.0
 20
28.77777777777778
 30
0.0
 11
270.0
 21
28.77777777777778
 31
0.0
  0
LINE
  5
62
330
17
100
AcDbEntity
  8
CUT
100
AcDbLine
 10
264.0
 20
57.55555555555556
 30
0.0
 11
264.0
 21
86.33333333333334
 31
0.0
  0
LINE
  5
63
330
17
100
AcDbEntity
  8
CUT
100
AcDbLine
 10
264.0
 20
86.33333333333334
 30
0.0
 11
270.0
 21
86.33333333333334
 31
0.0
  0
LINE
  5
64
330
17
100
AcDbEntity
  8
CUT
100
AcDbLine
 10
264.0
 20
115.11111111111111
 30
0.0
 11
264.0
 21
143.88888888888889
 31
0.0
  0
LINE
  5
65
330
17
100
AcDbEntity
  8
CUT
100
AcDbLine
 10
264.0
 20
143.88888888888889
 30
0.0
 11
270.0
 21
143.88888888888889
 31
0.0
  0
LINE
  5
66
330
17
100
AcDbEntity
  8
CUT
100
AcDbLine
 10
264.0
 20
172.66666666666669
 30
0.0
 11
264.0
 21
201.44444444444446
 31
0.0
  0
LINE
  5
67
330
17
100
AcDbEntity
  8
CUT
100
AcDbLine
 10
264.0
 20
201.44444444444446
 30
0.0
 11
270.0
 21
201.44444444444446
 31
0.0
  0
LINE
  5
68
330
17
100
AcDbEntity
  8
CUT
100
AcDbLine
 10
264.0
 20
230.22222222222223
 30
0.0
 11
264.0
 21
259.0
 31
0.0
  0
LINE
  5
69
330
17
100
AcDbEntity
  8
CUT
100
AcDbLine
 10
264.0
 20
259.0
 30
0.0
 11
6.0
 21
259.0
 31
0.0
  0
LINE
  5
6A
330
17
100
AcDbEntity
  8
CUT
100
AcDbLine
 10
270.0
 20
28.77777777777778
 30
0.0
 11
270.0
 21
57.55555555555556
 31
0.0
  0
LINE
  5
6B
330
17
100
AcDbEntity
  8
CUT
100
AcDbLine
 10
270.0
 20
57.55555555555556
 30
0.0
 11
264.0
 21
57.55555555555556
 31
0.0
  0
LINE
  5
6C
330
17
100
AcDbEntity
  8
CUT
100
AcDbLine
 10
270.0
 20
86.33333333333334
 30
0.0
 11
270.0
 21
115.11111111111111
 31
0.0
  0
LINE
  5
6D
330
17
100
AcDbEntity
  8
CUT
100
AcDbLine
 10
270.0
 20
115.11111111111111
 30
0.0
 11
264.0
 21
115.11111111111111
 31
0.0
  0
LINE
  5
6E
330
17
100
AcDbEntity
  8
CUT
100
AcDbLine
 10
270.0
 20
143.88888888888889
 30
0.0
 11
270.0
 21
172.66666666666669
 31
0.0
  0
LINE
  5
6F
330
17
100
AcDbEntity
  8
CUT
100
AcDbLine
 10
270.0
 20
172.66666666666669
 30
0.0
 11
264.0
 21
172.66666666666669
 31
0.0
  0
LINE
  5
70
330
17
100
AcDbEntity
  8
CUT
100
AcDbLine
 10
270.0
 20
201.44444444444446
 30
0.0
 11
270.0
 21
230.22222222222223
 31
0.0
  0
LINE
  5
71
330
17
100
AcDbEntity
  8
CUT
100
AcDbLine
 10
270.0
 20
230.22222222222223
 30
0.0
 11
264.0
 21
230.22222222222223
 31
0.0
  0
ENDSEC
  0
SECTION
  2
OBJECTS
  0
DICTIONARY
  5
A
330
0
100
AcDbDictionary
281
1
  3
ACAD_COLOR
350
B
  3
ACAD_GROUP
350
C
  3
ACAD_LAYOUT
350
D
  3
ACAD_MATERIAL
350
E
  3
ACAD_MLEADERSTYLE
350
F
  3
ACAD_MLINESTYLE
350
10
  3
ACAD_PLOTSETTINGS
350
11
  3
ACAD_PLOTSTYLENAME
350
12
  3
ACAD_SCALELIST
350
14
  3
ACAD_TABLESTYLE
350
15
  3
ACAD_VISUALSTYLE
350
16
  3
EZDXF_META
350
2D
  0
DICTIONARY
  5
B
330
A
100
AcDbDictionary
281
1
  0
DICTIONARY
  5
C
330
A
100
AcDbDictionary
281
1
  0
DICTIONARY
  5
D
330
A
100
AcDbDictionary
281
1
  3
Model
350
1A
  3
Layout1
350
1E
  0
DICTIONARY
  5
E
330
A
100
AcDbDictionary
281
1
  3
ByBlock
350
1F
  3
ByLayer
350
20
  3
Global
350
21
  0
DICTIONARY
  5
F
330
A
100
AcDbDictionary
281
1
  3
Standard
350
2C
  0
DICTIONARY
  5
10
330
A
100
AcDbDictionary
281
1
  3
Standard
350
22
  0
DICTIONARY
  5
11
330
A
100
AcDbDictionary
281
1
  0
ACDBDICTIONARYWDFLT
  5
12
330
A
100
AcDbDictionary
281
1
  3
Normal
350
13
100
AcDbDictionaryWithDefault
340
13
  0
ACDBPLACEHOLDER
  5
13
330
12
  0
DICTIONARY
  5
14
330
A
100
AcDbDictionary
281
1
  0
DICTIONARY
  5
15
330
A
100
AcDbDictionary
281
1
  0
DICTIONARY
  5
16
330
A
100
AcDbDictionary
281
1
  0
LAYOUT
  5
1A
330
D
100
AcDbPlotSettings
  1

  4
A3
  6

 40
7.5
 41
20.0
 42
7.5
 43
20.0
 44
420.0
 45
297.0
 46
0.0
 47
0.0
 48
0.0
 49
0.0
140
0.0
141
0.0
142
1.0
143
1.0
 70
1024
 72
1
 73
0
 74
5
  7

 75
16
 76
0
 77
2
 78
300
147
1.0
148
0.0
149
0.0
100
AcDbLayout
  1
Model
 70
1
 71
0
 10
0.0
 20
0.0
 11
420.0
 21
297.0
 12
0.0
 22
0.0
 32
0.0
 14
1e+20
 24
1e+20
 34
1e+20
 15
-1e+20
 25
-1e+20
 35
-1e+20
146
0.0
 13
0.0
 23
0.0
 33
0.0
 16
1.0
 26
0.0
 36
0.0
 17
0.0
 27
1.0
 37
0.0
 76
1
330
17
  0
LAYOUT
  5
1E
330
D
100
AcDbPlotSettings
  1

  4
A3
  6

 40
7.5
 41
20.0
 42
7.5
 43
20.0
 44
420.0
 45
297.0
 46
0.0
 47
0.0
 48
0.0
 49
0.0
140
0.0
141
0.0
142
1.0
143
1.0
 70
0
 72
1
 73
0
 74
5
  7

 75
16
 76
0
 77
2
 78
300
147
1.0
148
0.0
149
0.0
100
AcDbLayout
  1
Layout1
 70
1
 71
1
 10
0.0
 20
0.0
 11
420.0
 21
297.0
 12
0.0
 22
0.0
 32
0.0
 14
1e+20
 24
1e+20
 34
1e+20
 15
-1e+20
 25
-1e+20
 35
-1e+20
146
0.0
 13
0.0
 23
0.0
 33
0.0
 16
1.0
 26
0.0
 36
0.0
 17
0.0
 27
1.0
 37
0.0
 76
1
330
1B
  0
MATERIAL
  5
1F
102
{ACAD_REACTORS
330
E
102
}
330
E
100
AcDbMaterial
  1
ByBlock
  2

 70
0
 40
1.0
 71
1
 41
1.0
 91
-1023410177
 42
1.0
 72
1
  3

 73
1
 74
1
 75
1
 44
0.5
 73
0
 45
1.0
 46
1.0
 77
1
  4

 78
1
 79
1
170
1
 48
1.0
171
1
  6

172
1
173
1
174
1
140
1.0
141
1.0
175
1
  7

176
1
177
1
178
1
143
1.0
179
1
  8

270
1
271
1
272
1
145
1.0
146
1.0
273
1
  9

274
1
275
1
276
1
 42
1.0
 72
1
  3

 73
1
 74
1
 75
1
 94
63
  0
MATERIAL
  5
20
102
{ACAD_REACTORS
330
E
102
}
330
E
100
AcDbMaterial
  1
ByLayer
  2

 70
0
 40
1.0
 71
1
 41
1.0
 91
-1023410177
 42
1.0
 72
1
  3

 73
1
 74
1
 75
1
 44
0.5
 73
0
 45
1.0
 46
1.0
 77
1
  4

 78
1
 79
1
170
1
 48
1.0
171
1
  6

172
1
173
1
174
1
140
1.0
141
1.0
175
1
  7

176
1
177
1
178
1
143
1.0
179
1
  8

270
1
271
1
272
1
145
1.0
146
1.0
273
1
  9

274
1
275
1
276
1
 42
1.0
 72
1
  3

 73
1
 74
1
 75
1
 94
63
  0
MATERIAL
  5
21
102
{ACAD_REACTORS
330
E
102
}
330
E
100
AcDbMaterial
  1
Global
  2

 70
0
 40
1.0
 71
1
 41
1.0
 91
-1023410177
 42
1.0
 72
1
  3

 73
1
 74
1
 75
1
 44
0.5
 73
0
 45
1.0
 46
1.0
 77
1
  4

 78
1
 79
1
170
1
 48
1.0
171
1
  6

172
1
173
1
174
1
140
1.0
141
1.0
175
1
  7

176
1
177
1
178
1
143
1.0
179
1
  8

270
1
271
1
272
1
145
1.0
146
1.0
273
1
  9

274
1
275
1
276
1
 42
1.0
 72
1
  3

 73
1
 74
1
 75
1
 94
63
  0
MLINESTYLE
  5
22
102
{ACAD_REACTORS
330
10
102
}
330
10
100
AcDbMlineStyle
  2
Standard
 70
0
  3

 62
256
 51
90.0
 52
90.0
 71
2
 49
0.5
 62
256
  6
BYLAYER
 49
-0.5
 62
256
  6
BYLAYER
  0
MLEADERSTYLE
  5
2C
102
{ACAD_REACTORS
330
F
102
}
330
F
100
AcDbMLeaderStyle
179
2
170
2
171
1
172
0
 90
2
 40
0.0
 41
0.0
173
1
 91
-1056964608
 92
-2
290
1
 42
2.0
291
1
 43
8.0
  3
Standard
 44
4.0
300

342
29
174
1
175
1
176
0
178
1
 93
-1056964608
 45
4.0
292
0
297
0
 46
4.0
 94
-1056964608
 47
1.0
 49
1.0
140
1.0
294
1
141
0.0
177
0
142
1.0
295
0
296
0
143
3.75
271
0
272
9
273
9
  0
DICTIONARY
  5
2D
330
A
100
AcDbDictionary
280
1
281
1
  3
CREATED_BY_EZDXF
350
2E
  3
WRITTEN_BY_EZDXF
350
75
  0
DICTIONARYVAR
  5
2E
330
2D
100
DictionaryVariables
280
0
  1
0.0 @ 2000-01-01T00:00:00.000000+00:00
  0
DICTIONARYVAR
  5
75
330
2D
100
DictionaryVariables
280
0
  1
0.0 @ 2000-01-01T00:00:00.000000+00:00
  0
ENDSEC
  0
EOF
