  0
SECTION
  2
HEADER
  9
$ACADVER
  1
AC1027
  9
$ACADMAINTVER
 70
105
  9
$DWGCODEPAGE
  3
ANSI_1252
  9
$LASTSAVEDBY
  1
ezdxf
  9
$REQUIREDVERSIONS
160
0
  9
$INSBASE
 10
0.0
 20
0.0
 30
0.0
  9
$EXTMIN
 10
1e+20
 20
1e+20
 30
1e+20
  9
$EXTMAX
 10
-1e+20
 20
-1e+20
 30
-1e+20
  9
$LIMMIN
 10
0.0
 20
0.0
  9
$LIMMAX
 10
420.0
 20
297.0
  9
$ORTHOMODE
 70
0
  9
$REGENMODE
 70
1
  9
$FILLMODE
 70
1
  9
$QTEXTMODE
 70
0
  9
$MIRRTEXT
 70
1
  9
$LTSCALE
 40
1.0
  9
$ATTMODE
 70
1
  9
$TEXTSIZE
 40
2.5
  9
$TRACEWID
 40
1.0
  9
$TEXTSTYLE
  7
Standard
  9
$CLAYER
  8
0
  9
$CELTYPE
  6
ByLayer
  9
$CECOLOR
 62
256
  9
$CELTSCALE
 40
1.0
  9
$DISPSILH
 70
0
  9
$DIMSCALE
 40
1.0
  9
$DIMASZ
 40
2.5
  9
$DIMEXO
 40
0.625
  9
$DIMDLI
 40
3.75
  9
$DIMRND
 40
0.0
  9
$DIMDLE
 40
0.0
  9
$DIMEXE
 40
1.25
  9
$DIMTP
 40
0.0
  9
$DIMTM
 40
0.0
  9
$DIMTXT
 40
2.5
  9
$DIMCEN
 40
2.5
  9
$DIMTSZ
 40
0.0
  9
$DIMTOL
 70
0
  9
$DIMLIM
 70
0
  9
$DIMTIH
 70
0
  9
$DIMTOH
 70
0
  9
$DIMSE1
 70
0
  9
$DIMSE2
 70
0
  9
$DIMTAD
 70
1
  9
$DIMZIN
 70
8
  9
$DIMBLK
  1

  9
$DIMASO
 70
1
  9
$DIMSHO
 70
1
  9
$DIMPOST
  1

  9
$DIMAPOST
  1

  9
$DIMALT
 70
0
  9
$DIMALTD
 70
3
  9
$DIMALTF
 40
0.03937007874
  9
$DIMLFAC
 40
1.0
  9
$DIMTOFL
 70
1
  9
$DIMTVP
 40
0.0
  9
$DIMTIX
 70
0
  9
$DIMSOXD
 70
0
  9
$DIMSAH
 70
0
  9
$DIMBLK1
  1

  9
$DIMBLK2
  1

  9
$DIMSTYLE
  2
ISO-25
  9
$DIMCLRD
 70
0
  9
$DIMCLRE
 70
0
  9
$DIMCLRT
 70
0
  9
$DIMTFAC
 40
1.0
  9
$DIMGAP
 40
0.625
  9
$DIMJUST
 70
0
  9
$DIMSD1
 70
0
  9
$DIMSD2
 70
0
  9
$DIMTOLJ
 70
0
  9
$DIMTZIN
 70
8
  9
$DIMALTZ
 70
0
  9
$DIMALTTZ
 70
0
  9
$DIMUPT
 70
0
  9
$DIMDEC
 70
2
  9
$DIMTDEC
 70
2
  9
$DIMALTU
 70
2
  9
$DIMALTTD
 70
3
  9
$DIMTXSTY
  7
Standard
  9
$DIMAUNIT
 70
0
  9
$DIMADEC
 70
0
  9
$DIMALTRND
 40
0.0
  9
$DIMAZIN
 70
0
  9
$DIMDSEP
 70
44
  9
$DIMATFIT
 70
3
  9
$DIMFRAC
 70
0
  9
$DIMLDRBLK
  1

  9
$DIMLUNIT
 70
2
  9
$DIMLWD
 70
-2
  9
$DIMLWE
 70
-2
  9
$DIMTMOVE
 70
0
  9
$DIMFXL
 40
1.0
  9
$DIMFXLON
 70
0
  9
$DIMJOGANG
 40
0.785398163397
  9
$DIMTFILL
 70
0
  9
$DIMTFILLCLR
 70
0
  9
$DIMARCSYM
 70
0
  9
$DIMLTYPE
  6

  9
$DIMLTEX1
  6

  9
$DIMLTEX2
  6

  9
$DIMTXTDIRECTION
 70
0
  9
$LUNITS
 70
2
  9
$LUPREC
 70
4
  9
$SKETCHINC
 40
1.0
  9
$FILLETRAD
 40
10.0
  9
$AUNITS
 70
0
  9
$AUPREC
 70
2
  9
$MENU
  1
.
  9
$ELEVATION
 40
0.0
  9
$PELEVATION
 40
0.0
  9
$THICKNESS
 40
0.0
  9
$LIMCHECK
 70
0
  9
$CHAMFERA
 40
0.0
  9
$CHAMFERB
 40
0.0
  9
$CHAMFERC
 40
0.0
  9
$CHAMFERD
 40
0.0
  9
$SKPOLY
 70
0
  9
$TDCREATE
 40
2451545.0
  9
$TDUCREATE
 40
2451545.0
  9
$TDUPDATE
 40
2451545.0
  9
$TDUUPDATE
 40
2451545.0
  9
$TDINDWG
 40
0.0
  9
$TDUSRTIMER
 40
0.0
  9
$USRTIMER
 70
1
  9
$ANGBASE
 50
0.0
  9
$ANGDIR
 70
0
  9
$PDMODE
 70
0
  9
$PDSIZE
 40
0.0
  9
$PLINEWID
 40
0.0
  9
$SPLFRAME
 70
0
  9
$SPLINETYPE
 70
6
  9
$SPLINESEGS
 70
8
  9
$HANDSEED
  5
73
  9
$SURFTAB1
 70
6
  9
$SURFTAB2
 70
6
  9
$SURFTYPE
 70
6
  9
$SURFU
 70
6
  9
$SURFV
 70
6
  9
$UCSBASE
  2

  9
$UCSNAME
  2

  9
$UCSORG
 10
0.0
 20
0.0
 30
0.0
  9
$UCSXDIR
 10
1.0
 20
0.0
 30
0.0
  9
$UCSYDIR
 10
0.0
 20
1.0
 30
0.0
  9
$UCSORTHOREF
  2

  9
$UCSORTHOVIEW
 70
0
  9
$UCSORGTOP
 10
0.0
 20
0.0
 30
0.0
  9
$UCSORGBOTTOM
 10
0.0
 20
0.0
 30
0.0
  9
$UCSORGLEFT
 10
0.0
 20
0.0
 30
0.0
  9
$UCSORGRIGHT
 10
0.0
 20
0.0
 30
0.0
  9
$UCSORGFRONT
 10
0.0
 20
0.0
 30
0.0
  9
$UCSORGBACK
 10
0.0
 20
0.0
 30
0.0
  9
$PUCSBASE
  2

  9
$PUCSNAME
  2

  9
$PUCSORG
 10
0.0
 20
0.0
 30
0.0
  9
$PUCSXDIR
 10
1.0
 20
0.0
 30
0.0
  9
$PUCSYDIR
 10
0.0
 20
1.0
 30
0.0
  9
$PUCSORTHOREF
  2

  9
$PUCSORTHOVIEW
 70
0
  9
$PUCSORGTOP
 10
0.0
 20
0.0
 30
0.0
  9
$PUCSORGBOTTOM
 10
0.0
 20
0.0
 30
0.0
  9
$PUCSORGLEFT
 10
0.0
 20
0.0
 30
0.0
  9
$PUCSORGRIGHT
 10
0.0
 20
0.0
 30
0.0
  9
$PUCSORGFRONT
 10
0.0
 20
0.0
 30
0.0
  9
$PUCSORGBACK
 10
0.0
 20
0.0
 30
0.0
  9
$USERI1
 70
0
  9
$USERI2
 70
0
  9
$USERI3
 70
0
  9
$USERI4
 70
0
  9
$USERI5
 70
0
  9
$USERR1
 40
0.0
  9
$USERR2
 40
0.0
  9
$USERR3
 40
0.0
  9
$USERR4
 40
0.0
  9
$USERR5
 40
0.0
  9
$WORLDVIEW
 70
1
  9
$SHADEDGE
 70
3
  9
$SHADEDIF
 70
70
  9
$TILEMODE
 70
1
  9
$MAXACTVP
 70
64
  9
$PINSBASE
 10
0.0
 20
0.0
 30
0.0
  9
$PLIMCHECK
 70
0
  9
$PEXTMIN
 10
1e+20
 20
1e+20
 30
1e+20
  9
$PEXTMAX
 10
-1e+20
 20
-1e+20
 30
-1e+20
  9
$PLIMMIN
 10
0.0
 20
0.0
  9
$PLIMMAX
 10
420.0
 20
297.0
  9
$UNITMODE
 70
0
  9
$VISRETAIN
 70
1
  9
$PLINEGEN
 70
0
  9
$PSLTSCALE
 70
1
  9
$TREEDEPTH
 70
3020
  9
$CMLSTYLE
  2
Standard
  9
$CMLJUST
 70
0
  9
$CMLSCALE
 40
20.0
  9
$PROXYGRAPHICS
 70
1
  9
$MEASUREMENT
 70
1
  9
$CELWEIGHT
370
-1
  9
$ENDCAPS
280
0
  9
$JOINSTYLE
280
0
  9
$LWDISPLAY
290
0
  9
$INSUNITS
 70
4
  9
$HYPERLINKBASE
  1

  9
$STYLESHEET
  1

  9
$XEDIT
290
1
  9
$CEPSNTYPE
380
0
  9
$PSTYLEMODE
290
1
  9
$FINGERPRINTGUID
  2
{00000000-0000-0000-0000-000000000000}
  9
$VERSIONGUID
  2
{00000000-0000-0000-0000-000000000000}
  9
$EXTNAMES
290
1
  9
$PSVPSCALE
 40
0.0
  9
$OLESTARTUP
290
0
  9
$SORTENTS
280
127
  9
$INDEXCTL
280
0
  9
$HIDETEXT
280
1
  9
$XCLIPFRAME
280
1
  9
$HALOGAP
280
0
  9
$OBSCOLOR
 70
257
  9
$OBSLTYPE
280
0
  9
$INTERSECTIONDISPLAY
280
0
  9
$INTERSECTIONCOLOR
 70
257
  9
$DIMASSOC
280
2
  9
$PROJECTNAME
  1

  9
$CAMERADISPLAY
290
0
  9
$LENSLENGTH
 40
50.0
  9
$CAMERAHEIGHT
 40
0.0
  9
$STEPSPERSEC
 40
24.0
  9
$STEPSIZE
 40
100.0
  9
$3DDWFPREC
 40
2.0
  9
$PSOLWIDTH
 40
0.005
  9
$PSOLHEIGHT
 40
0.08
  9
$LOFTANG1
 40
1.570796326795
  9
$LOFTANG2
 40
1.570796326795
  9
$LOFTMAG1
 40
0.0
  9
$LOFTMAG2
 40
0.0
  9
$LOFTPARAM
 70
7
  9
$LOFTNORMALS
280
1
  9
$LATITUDE
 40
37.795
  9
$LONGITUDE
 40
-122.394
  9
$NORTHDIRECTION
 40
0.0
  9
$TIMEZONE
 70
-8000
  9
$LIGHTGLYPHDISPLAY
280
1
  9
$TILEMODELIGHTSYNCH
280
1
  9
$CMATERIAL
347
20
  9
$SOLIDHIST
280
0
  9
$SHOWHIST
280
1
  9
$DWFFRAME
280
2
  9
$DGNFRAME
280
2
  9
$REALWORLDSCALE
290
1
  9
$INTERFERECOLOR
 62
256
  9
$CSHADOW
280
0
  9
$SHADOWPLANELOCATION
 40
0.0
  0
ENDSEC
  0
SECTION
  2
CLASSES
  0
CLASS
  1
ACDBDETAILVIEWSTYLE
  2
AcDbDetailViewStyle
  3
ObjectDBX Classes
 90
1025
 91
0
280
0
281
0
  0
CLASS
  1
ACDBDICTIONARYWDFLT
  2
AcDbDictionaryWithDefault
  3
ObjectDBX Classes
 90
0
 91
0
280
0
281
0
  0
CLASS
  1
ACDBPLACEHOLDER
  2
AcDbPlaceHolder
  3
ObjectDBX Classes
 90
0
 91
0
280
0
281
0
  0
CLASS
  1
ACDBSECTIONVIEWSTYLE
  2
AcDbSectionViewStyle
  3
ObjectDBX Classes
 90
1025
 91
0
280
0
281
0
  0
CLASS
  1
CELLSTYLEMAP
  2
AcDbCellStyleMap
  3
ObjectDBX Classes
 90
1152
 91
0
280
0
281
0
  0
CLASS
  1
DICTIONARYVAR
  2
AcDbDictionaryVar
  3
ObjectDBX Classes
 90
0
 91
0
280
0
281
0
  0
CLASS
  1
LAYOUT
  2
AcDbLayout
  3
ObjectDBX Classes
 90
0
 91
0
280
0
281
0
  0
CLASS
  1
MATERIAL
  2
AcDbMaterial
  3
ObjectDBX Classes
 90
1153
 91
0
280
0
281
0
  0
CLASS
  1
MENTALRAYRENDERSETTINGS
  2
AcDbMentalRayRenderSettings
  3
SCENEOE
 90
1024
 91
0
280
0
281
0
  0
CLASS
  1
MLEADERSTYLE
  2
AcDbMLeaderStyle
  3
ACDB_MLEADERSTYLE_CLASS
 90
4095
 91
0
280
0
281
0
  0
CLASS
  1
RASTERVARIABLES
  2
AcDbRasterVariables
  3
ISM
 90
0
 91
0
280
0
281
0
  0
CLASS
  1
SCALE
  2
AcDbScale
  3
ObjectDBX Classes
 90
1153
 91
0
280
0
281
0
  0
CLASS
  1
SUN
  2
AcDbSun
  3
SCENEOE
 90
1153
 91
0
280
0
281
0
  0
CLASS
  1
TABLESTYLE
  2
AcDbTableStyle
  3
ObjectDBX Classes
 90
4095
 91
0
280
0
281
0
  0
CLASS
  1
VISUALSTYLE
  2
AcDbVisualStyle
  3
ObjectDBX Classes
 90
4095
 91
0
280
0
281
0
  0
ENDSEC
  0
SECTION
  2
TABLES
  0
TABLE
  2
VPORT
  5
8
330
0
100
AcDbSymbolTable
 70
1
  0
VPORT
  5
6F
330
8
100
AcDbSymbolTableRecord
100
AcDbViewportTableRecord
  2
*Active
 70
0
 10
0.0
 20
0.0
 11
1.0
 21
1.0
 12
135.00000000000006
 22
129.5
 13
0.0
 23
0.0
 14
0.5
 24
0.5
 15
0.5
 25
0.5
 16
0.0
 26
0.0
 36
1.0
 17
0.0
 27
0.0
 37
0.0
 40
259.0
 41
1.34
 42
50.0
 43
0.0
 44
0.0
 50
0.0
 51
0.0
 71
0
 72
1000
 73
1
 74
3
 75
0
 76
0
 77
0
 78
0
281
0
 65
1
110
0.0
120
0.0
130
0.0
111
1.0
121
0.0
131
0.0
112
0.0
122
1.0
132
0.0
 79
0
146
0.0
  0
ENDTAB
  0
TABLE
  2
LTYPE
  5
2
330
0
100
AcDbSymbolTable
 70
3
  0
LTYPE
  5
24
330
2
100
AcDbSymbolTableRecord
100
AcDbLinetypeTableRecord
  2
ByBlock
 70
0
  3

 72
65
 73
0
 40
0.0
  0
LTYPE
  5
25
330
2
100
AcDbSymbolTableRecord
100
AcDbLinetypeTableRecord
  2
ByLayer
 70
0
  3

 72
65
 73
0
 40
0.0
  0
LTYPE
  5
26
330
2
100
AcDbSymbolTableRecord
100
AcDbLinetypeTableRecord
  2
Continuous
 70
0
  3

 72
65
 73
0
 40
0.0
  0
ENDTAB
  0
TABLE
  2
LAYER
  5
1
330
0
100
AcDbSymbolTable
 70
3
  0
LAYER
  5
27
330
1
100
AcDbSymbolTableRecord
100
AcDbLayerTableRecord
  2
0
 70
0
 62
7
  6
Continuous
370
-3
390
13
347
21
  0
LAYER
  5
28
330
1
100
AcDbSymbolTableRecord
100
AcDbLayerTableRecord
  2
Defpoints
 70
0
 62
7
  6
Continuous
290
0
370
-3
390
13
347
21
  0
LAYER
  5
2F
330
1
100
AcDbSymbolTableRecord
100
AcDbLayerTableRecord
  2
CUT
 70
0
 62
7
  6
Continuous
370
-3
390
13
347
21
  0
ENDTAB
  0
TABLE
  2
STYLE
  5
5
330
0
100
AcDbSymbolTable
 70
1
  0
STYLE
  5
29
330
5
100
AcDbSymbolTableRecord
100
AcDbTextStyleTableRecord
  2
Standard
 70
0
 40
0.0
 41
1.0
 50
0.0
 71
0
 42
2.5
  3
txt
  4

  0
ENDTAB
  0
TABLE
  2
VIEW
  5
7
330
0
100
AcDbSymbolTable
 70
0
  0
ENDTAB
  0
TABLE
  2
UCS
  5
6
330
0
100
AcDbSymbolTable
 70
0
  0
ENDTAB
  0
TABLE
  2
APPID
  5
3
330
0
100
AcDbSymbolTable
 70
3
  0
APPID
  5
2A
330
3
100
AcDbSymbolTableRecord
100
AcDbRegAppTableRecord
  2
ACAD
 70
0
  0
APPID
  5
70
330
3
100
AcDbSymbolTableRecord
100
AcDbRegAppTableRecord
  2
HATCHBACKGROUNDCOLOR
 70
0
  0
APPID
  5
71
330
3
100
AcDbSymbolTableRecord
100
AcDbRegAppTableRecord
  2
EZDXF
 70
0
  0
ENDTAB
  0
TABLE
  2
DIMSTYLE
  5
4
330
0
100
AcDbSymbolTable
 70
1
100
AcDbDimStyleTable
  0
DIMSTYLE
105
2B
330
4
100
AcDbSymbolTableRecord
100
AcDbDimStyleTableRecord
  2
Standard
 70
0
 40
1.0
 41
2.5
 42
0.625
 43
3.75
 44
1.25
 45
0.0
 46
0.0
 47
0.0
 48
0.0
 49
2.5
140
2.5
141
2.5
142
0.0
143
0.03937007874
144
1.0
145
0.0
146
1.0
147
0.625
148
0.0
 69
0
 70
0
 71
0
 72
0
 73
0
 74
0
 75
0
 76
0
 77
1
 78
8
 79
3
170
0
171
3
172
1
173
0
174
0
175
0
176
0
177
0
178
0
179
2
271
2
272
2
273
2
274
3
275
0
276
0
277
2
278
44
279
0
280
0
281
0
282
0
283
0
284
8
285
0
286
0
288
0
289
3
290
0
371
-2
372
-2
  0
ENDTAB
  0
TABLE
  2
BLOCK_RECORD
  5
9
330
0
100
AcDbSymbolTable
 70
2
  0
BLOCK_RECORD
  5
17
330
9
100
AcDbSymbolTableRecord
100
AcDbBlockTableRecord
  2
*Model_Space
340
1A
 70
0
280
1
281
0
  0
BLOCK_RECORD
  5
1B
330
9
100
AcDbSymbolTableRecord
100
AcDbBlockTableRecord
  2
*Paper_Space
340
1E
 70
0
280
1
281
0
  0
ENDTAB
  0
ENDSEC
  0
SECTION
  2
BLOCKS
  0
BLOCK
  5
18
330
17
100
AcDbEntity
  8
0
100
AcDbBlockBegin
  2
*Model_Space
 70
0
 10
0.0
 20
0.0
 30
0.0
  3
*Model_Space
  1

  0
ENDBLK
  5
19
330
17
100
AcDbEntity
  8
0
100
AcDbBlockEnd
  0
BLOCK
  5
1C
330
1B
100
AcDbEntity
  8
0
100
AcDbBlockBegin
  2
*Paper_Space
 70
0
 10
0.0
 20
0.0
 30
0.0
  3
*Paper_Space
  1

  0
ENDBLK
  5
1D
330
1B
100
AcDbEntity
  8
0
100
AcDbBlockEnd
  0
ENDSEC
  0
SECTION
  2
ENTITIES
  0
SPLINE
  5
30
330
17
100
AcDbEntity
  8
CUT
100
AcDbSpline
 70
0
 71
3
 72
152
 73
148
 74
0
 40
0.0
 40
0.0
 40
0.0
 40
0.0
 40
0.0005689604397526504
 40
0.0005689604397526504
 40
0.0005689604397526504
 40
0.002188476109185199
 40
0.002188476109185199
 40
0.002188476109185199
 40
0.0038079917786177477
 40
0.0038079917786177477
 40
0.0038079917786177477
 40
0.007047023117482845
 40
0.007047023117482845
 40
0.007047023117482845
 40
0.01542970941586684
 40
0.01542970941586684
 40
0.01542970941586684
 40
0.028759120841931947
 40
0.028759120841931947
 40
0.028759120841931947
 40
0.04935357709854989
 40
0.04935357709854989
 40
0.04935357709854989
 40
0.06390635214757931
 40
0.06390635214757931
 40
0.06390635214757931
 40
0.09543873844197188
 40
0.09543873844197188
 40
0.09543873844197188
 40
0.12697508604361393
 40
0.12697508604361393
 40
0.12697508604361393
 40
0.19489867957228718
 40
0.19489867957228718
 40
0.19489867957228718
 40
0.2519076675101208
 40
0.2519076675101208
 40
0.2519076675101208
 40
0.2834469638549665
 40
0.2834469638549665
 40
0.2834469638549665
 40
0.30649411412473715
 40
0.30649411412473715
 40
0.30649411412473715
 40
0.3392366170820352
 40
0.3392366170820352
 40
0.3392366170820352
 40
0.3683376330087968
 40
0.3683376330087968
 40
0.3683376330087968
 40
0.4313766996120054
 40
0.4313766996120054
 40
0.4313766996120054
 40
0.4944094765533382
 40
0.4944094765533382
 40
0.4944094765533382
 40
0.5550192211463143
 40
0.5550192211463143
 40
0.5550192211463143
 40
0.5695655922008338
 40
0.5695655922008338
 40
0.5695655922008338
 40
0.5780503111795584
 40
0.5780503111795584
 40
0.5780503111795584
 40
0.5913824009110884
 40
0.5913824009110884
 40
0.5913824009110884
 40
0.5978875804572084
 40
0.5978875804572084
 40
0.5978875804572084
 40
0.6011401702302683
 40
0.6011401702302683
 40
0.6011401702302683
 40
0.6043927600033282
 40
0.6043927600033282
 40
0.6043927600033282
 40
0.6052964065507329
 40
0.6052964065507329
 40
0.6052964065507329
 40
0.6062000530981375
 40
0.6062000530981375
 40
0.6062000530981375
 40
0.6063092699925976
 40
0.6063092699925976
 40
0.6063092699925976
 40
0.6074823474280531
 40
0.6074823474280531
 40
0.6074823474280531
 40
0.6086554248635084
 40
0.6086554248635084
 40
0.6086554248635084
 40
0.6110015797344193
 40
0.6110015797344193
 40
0.6110015797344193
 40
0.615783667890143
 40
0.615783667890143
 40
0.615783667890143
 40
0.6236192307789854
 40
0.6236192307789854
 40
0.6236192307789854
 40
0.640103921442877
 40
0.640103921442877
 40
0.640103921442877
 40
0.655020656107912
 40
0.655020656107912
 40
0.655020656107912
 40
0.6879969761254432
 40
0.6879969761254432
 40
0.6879969761254432
 40
0.7248982851300597
 40
0.7248982851300597
 40
0.7248982851300597
 40
0.751593857439959
 40
0.751593857439959
 40
0.751593857439959
 40
0.7806475206494435
 40
0.7806475206494435
 40
0.7806475206494435
 40
0.8026368616147492
 40
0.8026368616147492
 40
0.8026368616147492
 40
0.8159909176745372
 40
0.8159909176745372
 40
0.8159909176745372
 40
0.8458426941158612
 40
0.8458426941158612
 40
0.8458426941158612
 40
0.8741210988795556
 40
0.8741210988795556
 40
0.8741210988795556
 40
0.9055399149057113
 40
0.9055399149057113
 40
0.9055399149057113
 40
0.9330312228182834
 40
0.9330312228182834
 40
0.9330312228182834
 40
0.963661448314327
 40
0.963661448314327
 40
0.963661448314327
 40
0.9840811492514359
 40
0.9840811492514359
 40
0.9840811492514359
 40
0.9919350257212444
 40
0.9919350257212444
 40
0.9919350257212444
 40
1.0
 40
1.0
 40
1.0
 40
1.0
 10
36.41176470588241
 20
51.0
 30
0.0
 10
36.395351132924944
 20
50.99949683189076
 30
0.0
 10
36.398628728749124
 20
50.99825216646669
 30
0.0
 10
36.41312007856297
 20
50.99741338324662
 30
0.0
 10
36.45049545720581
 20
50.99497683496451
 30
0.0
 10
36.50687273626569
 20
50.99308935657744
 30
0.0
 10
36.55654429574526
 20
50.990206997202
 30
0.0
 10
36.6075199089171
 20
50.987452602305176
 30
0.0
 10
36.655402741988354
 20
50.98365965909329
 30
0.0
 10
36.70019279495897
 20
50.97882816756638
 30
0.0
 10
36.790946409131095
 20
50.96931015962247
 30
0.0
 10
36.856955941656686
 20
50.95309833557905
 30
0.0
 10
36.91943307115077
 20
50.93400468456659
 30
0.0
 10
37.08592012192521
 20
50.88496898975312
 30
0.0
 10
37.30729964325947
 20
50.832969836442864
 30
0.0
 10
37.51361886007763
 20
50.772172518791315
 30
0.0
 10
37.84540084565815
 20
50.67549631035424
 30
0.0
 10
38.140757861081305
 20
50.5467994658861
 30
0.0
 10
38.43462917976274
 20
50.40023042890071
 30
0.0
 10
38.88964915394098
 20
50.17445443818441
 30
0.0
 10
39.335092859020826
 20
49.905569612538194
 30
0.0
 10
39.73748602187453
 20
49.594179080224066
 30
0.0
 10
40.023003194682616
 20
49.37413642690398
 30
0.0
 10
40.29174924410998
 20
49.13468779112663
 30
0.0
 10
40.54372417015663
 20
48.87583317289208
 30
0.0
 10
41.08925811311207
 20
48.31605612396401
 30
0.0
 10
41.544948194030354
 20
47.667734389803215
 30
0.0
 10
41.877603583101056
 20
46.96016631068586
 30
0.0
 10
42.211238269501884
 20
46.25303799955357
 30
0.0
 10
42.42042133247486
 20
45.48739956541779
 30
0.0
 10
42.491815912095994
 20
44.708668550512094
 30
0.0
 10
42.650682156337275
 20
43.02784592210023
 30
0.0
 10
42.15552004017331
 20
41.31072334377214
 30
0.0
 10
41.18741060469357
 20
39.93463465070408
 30
0.0
 10
40.37838824303523
 20
38.77721847507364
 30
0.0
 10
39.23607409784133
 20
37.84550726494827
 30
0.0
 10
37.91654689409612
 20
37.332289648325464
 30
0.0
 10
37.18808911443132
 20
37.04741658958682
 30
0.0
 10
36.408511248384116
 20
36.89402382155674
 30
0.0
 10
35.626324880298846
 20
36.88306982435878
 30
0.0
 10
35.05206719056299
 20
36.876351215899696
 30
0.0
 10
34.485574984674955
 20
36.93963028724214
 30
0.0
 10
33.926848262634635
 20
37.0729070383861
 30
0.0
 10
33.13632128394715
 20
37.2597691507376
 30
0.0
 10
32.37987802914554
 20
37.575948633207844
 30
0.0
 10
31.67282986079151
 20
37.97272166159856
 30
0.0
 10
31.0434093448279
 20
38.325699364322844
 30
0.0
 10
30.45126995397083
 20
38.740932085394256
 30
0.0
 10
29.889541976261665
 20
39.19260875448035
 30
0.0
 10
28.672604540861283
 20
40.17358986868743
 30
0.0
 10
27.59637970481502
 20
41.313823947522465
 30
0.0
 10
26.56218880669151
 20
42.481602128500015
 30
0.0
 10
25.528485152987187
 20
43.65154876160216
 30
0.0
 10
24.537660950776086
 20
44.85844650143611
 30
0.0
 10
23.505230849496325
 20
46.029486258918766
 30
0.0
 10
22.51195378333683
 20
47.153267323329764
 30
0.0
 10
21.48335534089111
 20
48.25438420373039
 30
0.0
 10
20.327167258654573
 20
49.214068685086275
 30
0.0
 10
20.0504984946445
 20
49.44443458065831
 30
0.0
 10
19.764599278493215
 20
49.66348915324623
 30
0.0
 10
19.469469610200726
 20
49.87123240285011
 30
0.0
 10
19.296638257594577
 20
49.992209597549945
 30
0.0
 10
19.120411886473747
 20
50.10791813143094
 30
0.0
 10
18.94079049683822
 20
50.218358004493126
 30
0.0
 10
18.656747492099555
 20
50.39114481328905
 30
0.0
 10
18.37791272882404
 20
50.550922715285026
 30
0.0
 10
18.073829355750718
 20
50.68565954382596
 30
0.0
 10
17.923714523113496
 20
50.75183590858981
 30
0.0
 10
17.75212428035354
 20
50.81508313175884
 30
0.0
 10
17.595995031312654
 20
50.865440682258495
 30
0.0
 10
17.518577006899605
 20
50.891221722082726
 30
0.0
 10
17.445362995337405
 20
50.91512281535843
 30
0.0
 10
17.376352996626004
 20
50.93714396208558
 30
0.0
 10
17.30561903587666
 20
50.958909661819234
 30
0.0
 10
17.23678155376514
 20
50.97728500108172
 30
0.0
 10
17.136290220004454
 20
50.987609232361706
 30
0.0
 10
17.111052520525522
 20
50.98969941662938
 30
0.0
 10
17.08581482104659
 20
50.99178960089703
 30
0.0
 10
17.060577121567665
 20
50.99387978516468
 30
0.0
 10
17.034922302177122
 20
50.995588477094415
 30
0.0
 10
17.00313042550325
 20
50.99740512822045
 30
0.0
 10
17.000082252461606
 20
50.99982196627768
 30
0.0
 10
17.000452393468695
 20
51.000110356972876
 30
0.0
 10
17.000822534475788
 20
51.00039874766815
 30
0.0
 10
17.00119267548288
 20
51.00068713836339
 30
0.0
 10
17.01279966114893
 20
51.003611793147506
 30
0.0
 10
17.062076584906226
 20
51.00558943873775
 30
0.0
 10
17.10510094071735
 20
51.00947294986932
 30
0.0
 10
17.15024460855341
 20
51.013309501377556
 30
0.0
 10
17.190893349668187
 20
51.0184944992354
 30
0.0
 10
17.22704716406164
 20
51.025027943442836
 30
0.0
 10
17.300195636184462
 20
51.03852662723347
 30
0.0
 10
17.346129867576998
 20
51.05300457849794
 30
0.0
 10
17.417651568246715
 20
51.076282619496126
 30
0.0
 10
17.569366057425956
 20
51.12518516139161
 30
0.0
 10
17.757032896065557
 20
51.18539004286682
 30
0.0
 10
17.929924866813547
 20
51.25409926330565
 30
0.0
 10
18.21336242121445
 20
51.36657912683224
 30
0.0
 10
18.4734332055133
 20
51.506758133670864
 30
0.0
 10
18.732676946924485
 20
51.657113390158045
 30
0.0
 10
19.278694179759196
 20
51.974006208881036
 30
0.0
 10
19.793316746253375
 20
52.346211821593656
 30
0.0
 10
20.2788714984393
 20
52.74610615970748
 30
0.0
 10
20.718750604622905
 20
53.109705531128405
 30
0.0
 10
21.142545453966203
 20
53.49138902495556
 30
0.0
 10
21.550256046469276
 20
53.89115664118912
 30
0.0
 10
22.452782827290818
 20
54.77231029285241
 30
0.0
 10
23.29125087527438
 20
55.71589722511534
 30
0.0
 10
24.114763640624076
 20
56.67035339326562
 30
0.0
 10
25.036066941893697
 20
57.73895263550245
 30
0.0
 10
25.93684385812619
 20
58.82543253184224
 30
0.0
 10
26.88004219267181
 20
59.87507716475486
 30
0.0
 10
27.56251817410776
 20
60.63392779635754
 30
0.0
 10
28.26726867697876
 20
61.374168144845775
 30
0.0
 10
29.021851529705085
 20
62.06245103785756
 30
0.0
 10
29.84278059765573
 20
62.80989325584397
 30
0.0
 10
30.72475745666732
 20
63.49841739974559
 30
0.0
 10
31.696803137939675
 20
64.04067710529173
 30
0.0
 10
32.431004663426805
 20
64.45022766885754
 30
0.0
 10
33.218645806794356
 20
64.77256795772932
 30
0.0
 10
34.041582854843334
 20
64.95326155192463
 30
0.0
 10
34.54291348016635
 20
65.06420304718037
 30
0.0
 10
35.050245251654566
 20
65.11896843219354
 30
0.0
 10
35.56357816930792
 20
65.11755770696432
 30
0.0
 10
36.707604888813094
 20
65.11439004600534
 30
0.0
 10
37.84568522474198
 20
64.79846307869133
 30
0.0
 10
38.83563218361494
 20
64.22744519057349
 30
0.0
 10
39.775312116876634
 20
63.68850306408843
 30
0.0
 10
40.58586782621862
 20
62.931712705512695
 30
0.0
 10
41.20312878034507
 20
62.04282736853121
 30
0.0
 10
41.88963366620819
 20
61.05577168914217
 30
0.0
 10
42.33847966011379
 20
59.9007468142993
 30
0.0
 10
42.47521561756386
 20
58.70478644568516
 30
0.0
 10
42.596752730050284
 20
57.65923654892569
 30
0.0
 10
42.47386716420184
 20
56.58520833920247
 30
0.0
 10
42.11033292490048
 20
55.59698857062603
 30
0.0
 10
41.708206198035896
 20
54.49408528769307
 30
0.0
 10
41.01195829619028
 20
53.50614229403643
 30
0.0
 10
40.13255254854987
 20
52.73222895301617
 30
0.0
 10
39.54651150930385
 20
52.215420704953885
 30
0.0
 10
38.88103555495706
 20
51.78906328111532
 30
0.0
 10
38.165991780836144
 20
51.47448734316827
 30
0.0
 10
37.89068429220985
 20
51.35302157765387
 30
0.0
 10
37.60855217561264
 20
51.25066713424021
 30
0.0
 10
37.319595431044405
 20
51.16742401292721
 30
0.0
 10
37.02305945572466
 20
51.08504686602445
 30
0.0
 10
36.720260648110724
 20
51.01338189861913
 30
0.0
 10
36.411764705882405
 20
51.0
 30
0.0
  0
SPLINE
  5
31
330
17
100
AcDbEntity
  8
CUT
100
AcDbSpline
 70
0
 71
3
 72
152
 73
148
 74
0
 40
0.0
 40
0.0
 40
0.0
 40
0.0
 40
0.0005689604438857251
 40
0.0005689604438857251
 40
0.0005689604438857251
 40
0.0021884761225912513
 40
0.0021884761225912513
 40
0.0021884761225912513
 40
0.0038079918012967778
 40
0.0038079918012967778
 40
0.0038079918012967778
 40
0.00704702315870783
 40
0.00704702315870783
 40
0.00704702315870783
 40
0.015429709505160868
 40
0.015429709505160868
 40
0.015429709505160868
 40
0.028759121007723282
 40
0.028759121007723282
 40
0.028759121007723282
 40
0.04935357738242579
 40
0.04935357738242579
 40
0.04935357738242579
 40
0.06390635251512426
 40
0.06390635251512426
 40
0.06390635251512426
 40
0.09543873899148005
 40
0.09543873899148005
 40
0.09543873899148005
 40
0.12697508677494246
 40
0.12697508677494246
 40
0.12697508677494246
 40
0.1948986806916386
 40
0.1948986806916386
 40
0.1948986806916386
 40
0.2519076689560409
 40
0.2519076689560409
 40
0.2519076689560409
 40
0.28344696548195053
 40
0.28344696548195053
 40
0.28344696548195053
 40
0.3064941158841582
 40
0.3064941158841582
 40
0.3064941158841582
 40
0.33923661902935254
 40
0.33923661902935254
 40
0.33923661902935254
 40
0.36833763512250023
 40
0.36833763512250023
 40
0.36833763512250023
 40
0.43137670208450657
 40
0.43137670208450657
 40
0.43137670208450657
 40
0.49440947937902713
 40
0.49440947937902713
 40
0.49440947937902713
 40
0.5550192243121671
 40
0.5550192243121671
 40
0.5550192243121671
 40
0.5695655954483712
 40
0.5695655954483712
 40
0.5695655954483712
 40
0.5780503144749735
 40
0.5780503144749735
 40
0.5780503144749735
 40
0.5913824042815246
 40
0.5913824042815246
 40
0.5913824042815246
 40
0.5978875838643049
 40
0.5978875838643049
 40
0.5978875838643049
 40
0.6011401736556949
 40
0.6011401736556949
 40
0.6011401736556949
 40
0.6043927634470851
 40
0.6043927634470851
 40
0.6043927634470851
 40
0.6052964099995815
 40
0.6052964099995815
 40
0.6052964099995815
 40
0.6062000565520776
 40
0.6062000565520776
 40
0.6062000565520776
 40
0.6063092734470047
 40
0.6063092734470047
 40
0.6063092734470047
 40
0.6074823508720577
 40
0.6074823508720577
 40
0.6074823508720577
 40
0.6086554282971106
 40
0.6086554282971106
 40
0.6086554282971106
 40
0.6110015831472165
 40
0.6110015831472165
 40
0.6110015831472165
 40
0.6157836712605617
 40
0.6157836712605617
 40
0.6157836712605617
 40
0.6236192340799994
 40
0.6236192340799994
 40
0.6236192340799994
 40
0.6401039245980229
 40
0.6401039245980229
 40
0.6401039245980229
 40
0.6550206591307097
 40
0.6550206591307097
 40
0.6550206591307097
 40
0.6879969788552884
 40
0.6879969788552884
 40
0.6879969788552884
 40
0.7248982875325076
 40
0.7248982875325076
 40
0.7248982875325076
 40
0.7515938596067847
 40
0.7515938596067847
 40
0.7515938596067847
 40
0.7806475225621963
 40
0.7806475225621963
 40
0.7806475225621963
 40
0.8026368633352546
 40
0.8026368633352546
 40
0.8026368633352546
 40
0.8159909192782883
 40
0.8159909192782883
 40
0.8159909192782883
 40
0.8458426954593895
 40
0.8458426954593895
 40
0.8458426954593895
 40
0.8741210999765967
 40
0.8741210999765967
 40
0.8741210999765967
 40
0.9055399157288724
 40
0.9055399157288724
 40
0.9055399157288724
 40
0.9330312234017567
 40
0.9330312234017567
 40
0.9330312234017567
 40
0.9636614486308951
 40
0.9636614486308951
 40
0.9636614486308951
 40
0.9840811493901093
 40
0.9840811493901093
 40
0.9840811493901093
 40
0.991935025791488
 40
0.991935025791488
 40
0.991935025791488
 40
1.0
 40
1.0
 40
1.0
 40
1.0
 10
36.41176470588241
 20
147.0
 30
0.0
 10
36.39535113328483
 20
146.99949683190505
 30
0.0
 10
36.398628728486045
 20
146.99825216646065
 30
0.0
 10
36.41312007856294
 20
146.99741338324657
 30
0.0
 10
36.450495457205186
 20
146.99497683496443
 30
0.0
 10
36.50687273626634
 20
146.99308935657743
 30
0.0
 10
36.5565442957454
 20
146.990206997202
 30
0.0
 10
36.60751990891689
 20
146.9874526023052
 30
0.0
 10
36.65540274198805
 20
146.98365965909335
 30
0.0
 10
36.70019279495884
 20
146.9788281675664
 30
0.0
 10
36.79094640913165
 20
146.96931015962252
 30
0.0
 10
36.85695594165634
 20
146.953098335579
 30
0.0
 10
36.91943307115077
 20
146.93400468456662
 30
0.0
 10
37.08592012192527
 20
146.88496898975305
 30
0.0
 10
37.307299643259405
 20
146.83296983644286
 30
0.0
 10
37.51361886007764
 20
146.77217251879134
 30
0.0
 10
37.84540084565821
 20
146.67549631035428
 30
0.0
 10
38.14075786108127
 20
146.54679946588604
 30
0.0
 10
38.434629179762744
 20
146.40023042890073
 30
0.0
 10
38.88964915394124
 20
146.17445443818414
 30
0.0
 10
39.33509285902202
 20
145.90556961253742
 30
0.0
 10
39.73748602187454
 20
145.59417908022405
 30
0.0
 10
40.0230031946826
 20
145.37413642690382
 30
0.0
 10
40.291749244109994
 20
145.13468779112665
 30
0.0
 10
40.54372417015668
 20
144.87583317289202
 30
0.0
 10
41.08925811311472
 20
144.31605612396132
 30
0.0
 10
41.544948194033395
 20
143.66773438979763
 30
0.0
 10
41.87760358310108
 20
142.96016631068588
 30
0.0
 10
42.21123826949182
 20
142.25303799957803
 30
0.0
 10
42.4204213324739
 20
141.4873995654323
 30
0.0
 10
42.491815912095994
 20
140.70866855051204
 30
0.0
 10
42.6506821563357
 20
139.02784592206828
 30
0.0
 10
42.15552004016624
 20
137.31072334376788
 30
0.0
 10
41.18741060469356
 20
135.93463465070414
 30
0.0
 10
40.37838824301385
 20
134.77721847504625
 30
0.0
 10
39.23607409781818
 20
133.84550726493956
 30
0.0
 10
37.91654689409612
 20
133.33228964832546
 30
0.0
 10
37.18808911443329
 20
133.0474165895875
 30
0.0
 10
36.408511248385345
 20
132.89402382155677
 30
0.0
 10
35.62632488029881
 20
132.88306982435876
 30
0.0
 10
35.05206719056028
 20
132.8763512159
 30
0.0
 10
34.4855749846722
 20
132.93963028724252
 30
0.0
 10
33.926848262634614
 20
133.07290703838618
 30
0.0
 10
33.136321283947936
 20
133.25976915073747
 30
0.0
 10
32.37987802914567
 20
133.57594863320773
 30
0.0
 10
31.672829860791484
 20
133.9727216615986
 30
0.0
 10
31.043409344847444
 20
134.3256993643114
 30
0.0
 10
30.45126995398859
 20
134.74093208538005
 30
0.0
 10
29.88954197626161
 20
135.1926087544804
 30
0.0
 10
28.67260454085616
 20
136.17358986869496
 30
0.0
 10
27.59637970485561
 20
137.31382394747828
 30
0.0
 10
26.562188806691502
 20
138.4816021285001
 30
0.0
 10
25.528485152979503
 20
139.6515487616114
 30
0.0
 10
24.537660950775003
 20
140.85844650143727
 30
0.0
 10
23.505230849496293
 20
142.02948625891887
 30
0.0
 10
22.511953783334214
 20
143.15326732333236
 30
0.0
 10
21.48335534090211
 20
144.25438420371944
 30
0.0
 10
20.32716725865455
 20
145.21406868508635
 30
0.0
 10
20.050498494644465
 20
145.44443458065845
 30
0.0
 10
19.764599278493193
 20
145.66348915324627
 30
0.0
 10
19.469469610200697
 20
145.87123240285024
 30
0.0
 10
19.296638257594555
 20
145.99220959755002
 30
0.0
 10
19.120411886473708
 20
146.10791813143106
 30
0.0
 10
18.94079049683818
 20
146.21835800449315
 30
0.0
 10
18.656747492099562
 20
146.39114481328895
 30
0.0
 10
18.37791272882402
 20
146.55092271528503
 30
0.0
 10
18.073829355750675
 20
146.68565954382598
 30
0.0
 10
17.923714523113585
 20
146.7518359085896
 30
0.0
 10
17.752124280353367
 20
146.8150831317589
 30
0.0
 10
17.595995031312626
 20
146.86544068225848
 30
0.0
 10
17.51857700689959
 20
146.89122172208272
 30
0.0
 10
17.44536299533737
 20
146.91512281535833
 30
0.0
 10
17.376352996625965
 20
146.9371439620856
 30
0.0
 10
17.305619035876617
 20
146.95890966181932
 30
0.0
 10
17.2367815537652
 20
146.97728500108178
 30
0.0
 10
17.136290220004422
 20
146.98760923236176
 30
0.0
 10
17.111052520525494
 20
146.98969941662932
 30
0.0
 10
17.08581482104655
 20
146.99178960089696
 30
0.0
 10
17.060577121567622
 20
146.99387978516458
 30
0.0
 10
17.034922302177083
 20
146.9955884770947
 30
0.0
 10
17.003130425503233
 20
146.99740512822044
 30
0.0
 10
17.00008225246159
 20
146.9998219662777
 30
0.0
 10
17.000452393468677
 20
147.00011035697287
 30
0.0
 10
17.000822534475784
 20
147.00039874766819
 30
0.0
 10
17.001192675482876
 20
147.0006871383634
 30
0.0
 10
17.01279966114896
 20
147.00361179314754
 30
0.0
 10
17.06207658490624
 20
147.0055894387378
 30
0.0
 10
17.105100940717392
 20
147.00947294986935
 30
0.0
 10
17.150244608553443
 20
147.01330950137753
 30
0.0
 10
17.190893349668233
 20
147.0184944992356
 30
0.0
 10
17.22704716406167
 20
147.02502794344286
 30
0.0
 10
17.300195636184302
 20
147.03852662723338
 30
0.0
 10
17.346129867577226
 20
147.0530045784981
 30
0.0
 10
17.417651568246747
 20
147.07628261949614
 30
0.0
 10
17.56936605742601
 20
147.12518516139193
 30
0.0
 10
17.75703289606559
 20
147.18539004286677
 30
0.0
 10
17.92992486681358
 20
147.25409926330562
 30
0.0
 10
18.213362421214473
 20
147.36657912683225
 30
0.0
 10
18.47343320551334
 20
147.50675813367087
 30
0.0
 10
18.732676946924517
 20
147.657113390158
 30
0.0
 10
19.2786941797619
 20
147.97400620888263
 30
0.0
 10
19.793316746256323
 20
148.34621182159606
 30
0.0
 10
20.278871498439315
 20
148.7461061597075
 30
0.0
 10
20.718750604609653
 20
149.10970553111645
 30
0.0
 10
21.142545453952977
 20
149.49138902494374
 30
0.0
 10
21.550256046469315
 20
149.89115664118918
 30
0.0
 10
22.452782827323347
 20
150.77231029288552
 30
0.0
 10
23.291250875283215
 20
151.71589722512692
 30
0.0
 10
24.114763640624098
 20
152.67035339326566
 30
0.0
 10
25.036066941893722
 20
153.73895263550247
 30
0.0
 10
25.936843858126533
 20
154.82543253184258
 30
0.0
 10
26.88004219267183
 20
155.8750771647549
 30
0.0
 10
27.56251817413169
 20
156.63392779638522
 30
0.0
 10
28.267268677027445
 20
157.3741681448923
 30
0.0
 10
29.021851529705113
 20
158.06245103785758
 30
0.0
 10
29.84278059765622
 20
158.8098932558447
 30
0.0
 10
30.724757456671703
 20
159.49841739974846
 30
0.0
 10
31.696803137939714
 20
160.04067710529173
 30
0.0
 10
32.43100466342693
 20
160.45022766885756
 30
0.0
 10
33.21864580679442
 20
160.77256795772917
 30
0.0
 10
34.04158285484337
 20
160.95326155192464
 30
0.0
 10
34.54291348016624
 20
161.06420304718029
 30
0.0
 10
35.05024525165445
 20
161.11896843219364
 30
0.0
 10
35.56357816930796
 20
161.11755770696433
 30
0.0
 10
36.70760488883116
 20
161.11439004600416
 30
0.0
 10
37.84568522475496
 20
160.798463078684
 30
0.0
 10
38.83563218361497
 20
160.22744519057352
 30
0.0
 10
39.77531211687249
 20
159.68850306409024
 30
0.0
 10
40.585867826212095
 20
158.9317127055209
 30
0.0
 10
41.20312878034507
 20
158.04282736853116
 30
0.0
 10
41.889633666208205
 20
157.0557716891422
 30
0.0
 10
42.33847966011369
 20
155.9007468142998
 30
0.0
 10
42.475215617563876
 20
154.7047864456851
 30
0.0
 10
42.59675273005014
 20
153.659236548927
 30
0.0
 10
42.4738671642023
 20
152.58520833920363
 30
0.0
 10
42.11033292490046
 20
151.596988570626
 30
0.0
 10
41.70820619803294
 20
150.49408528768697
 30
0.0
 10
41.011958296188915
 20
149.50614229403595
 30
0.0
 10
40.132552548549874
 20
148.7322289530162
 30
0.0
 10
39.54651150930367
 20
148.2154207049536
 30
0.0
 10
38.88103555495691
 20
147.78906328111532
 30
0.0
 10
38.16599178083614
 20
147.47448734316822
 30
0.0
 10
37.890684292209876
 20
147.35302157765383
 30
0.0
 10
37.60855217561263
 20
147.25066713424025
 30
0.0
 10
37.31959543104437
 20
147.1674240129272
 30
0.0
 10
37.02305945572469
 20
147.08504686602438
 30
0.0
 10
36.72026064811074
 20
147.01338189861917
 30
0.0
 10
36.41176470588241
 20
147.0
 30
0.0
  0
SPLINE
  5
32
330
17
100
AcDbEntity
  8
CUT
100
AcDbSpline
 70
0
 71
3
 72
152
 73
148
 74
0
 40
0.0
 40
0.0
 40
0.0
 40
0.0
 40
0.0005689604425130453
 40
0.0005689604425130453
 40
0.0005689604425130453
 40
0.002188476119242283
 40
0.002188476119242283
 40
0.002188476119242283
 40
0.0038079917959715206
 40
0.0038079917959715206
 40
0.0038079917959715206
 40
0.007047023149429996
 40
0.007047023149429996
 40
0.007047023149429996
 40
0.015429709485399679
 40
0.015429709485399679
 40
0.015429709485399679
 40
0.028759120971110084
 40
0.028759120971110084
 40
0.028759120971110084
 40
0.049353577320635215
 40
0.049353577320635215
 40
0.049353577320635215
 40
0.06390635243404491
 40
0.06390635243404491
 40
0.06390635243404491
 40
0.0954387388675662
 40
0.0954387388675662
 40
0.0954387388675662
 40
0.12697508660747586
 40
0.12697508660747586
 40
0.12697508660747586
 40
0.19489868042715147
 40
0.19489868042715147
 40
0.19489868042715147
 40
0.25190766860929065
 40
0.25190766860929065
 40
0.25190766860929065
 40
0.2834469650897149
 40
0.2834469650897149
 40
0.2834469650897149
 40
0.306494115460094
 40
0.306494115460094
 40
0.306494115460094
 40
0.3392366185623548
 40
0.3392366185623548
 40
0.3392366185623548
 40
0.3683376346163832
 40
0.3683376346163832
 40
0.3683376346163832
 40
0.4313767014954193
 40
0.4313767014954193
 40
0.4313767014954193
 40
0.4944094787183473
 40
0.4944094787183473
 40
0.4944094787183473
 40
0.5550192235823246
 40
0.5550192235823246
 40
0.5550192235823246
 40
0.5695655947017499
 40
0.5695655947017499
 40
0.5695655947017499
 40
0.5780503137183481
 40
0.5780503137183481
 40
0.5780503137183481
 40
0.5913824035094098
 40
0.5913824035094098
 40
0.5913824035094098
 40
0.5978875830845591
 40
0.5978875830845591
 40
0.5978875830845591
 40
0.6011401728721337
 40
0.6011401728721337
 40
0.6011401728721337
 40
0.6043927626597084
 40
0.6043927626597084
 40
0.6043927626597084
 40
0.6052964092111385
 40
0.6052964092111385
 40
0.6052964092111385
 40
0.6062000557625685
 40
0.6062000557625685
 40
0.6062000557625685
 40
0.6063092726574023
 40
0.6063092726574023
 40
0.6063092726574023
 40
0.6074823500848929
 40
0.6074823500848929
 40
0.6074823500848929
 40
0.6086554275123834
 40
0.6086554275123834
 40
0.6086554275123834
 40
0.6110015823673645
 40
0.6110015823673645
 40
0.6110015823673645
 40
0.6157836704906059
 40
0.6157836704906059
 40
0.6157836704906059
 40
0.6236192333262319
 40
0.6236192333262319
 40
0.6236192333262319
 40
0.640103923878346
 40
0.640103923878346
 40
0.640103923878346
 40
0.6550206584420608
 40
0.6550206584420608
 40
0.6550206584420608
 40
0.6879969782343789
 40
0.6879969782343789
 40
0.6879969782343789
 40
0.7248982869859085
 40
0.7248982869859085
 40
0.7248982869859085
 40
0.7515938591139506
 40
0.7515938591139506
 40
0.7515938591139506
 40
0.7806475221271585
 40
0.7806475221271585
 40
0.7806475221271585
 40
0.8026368629439848
 40
0.8026368629439848
 40
0.8026368629439848
 40
0.8159909189136033
 40
0.8159909189136033
 40
0.8159909189136033
 40
0.8458426951540141
 40
0.8458426951540141
 40
0.8458426951540141
 40
0.8741210997272898
 40
0.8741210997272898
 40
0.8741210997272898
 40
0.9055399155416327
 40
0.9055399155416327
 40
0.9055399155416327
 40
0.9330312232688465
 40
0.9330312232688465
 40
0.9330312232688465
 40
0.9636614485587663
 40
0.9636614485587663
 40
0.9636614485587663
 40
0.9840811493585091
 40
0.9840811493585091
 40
0.9840811493585091
 40
0.9919350257754922
 40
0.9919350257754922
 40
0.9919350257754922
 40
1.0
 40
1.0
 40
1.0
 40
1.0
 10
40.4117647058824
 20
98.99999999999999
 30
0.0
 10
40.39535113298082
 20
98.99949683189278
 30
0.0
 10
40.39862872870706
 20
98.9982521664662
 30
0.0
 10
40.41312007856299
 20
98.99741338324658
 30
0.0
 10
40.45049545720572
 20
98.99497683496448
 30
0.0
 10
40.506872736265926
 20
98.99308935657739
 30
0.0
 10
40.55654429574537
 20
98.99020699720197
 30
0.0
 10
40.607519908917105
 20
98.98745260230518
 30
0.0
 10
40.65540274198833
 20
98.98365965909348
 30
0.0
 10
40.70019279495893
 20
98.9788281675664
 30
0.0
 10
40.79094640913164
 20
98.96931015962232
 30
0.0
 10
40.85695594165629
 20
98.95309833557924
 30
0.0
 10
40.91943307115076
 20
98.93400468456657
 30
0.0
 10
41.08592012192527
 20
98.88496898975306
 30
0.0
 10
41.30729964325947
 20
98.83296983644287
 30
0.0
 10
41.513618860077685
 20
98.7721725187913
 30
0.0
 10
41.84540084565808
 20
98.67549631035425
 30
0.0
 10
42.140757861081475
 20
98.54679946588602
 30
0.0
 10
42.43462917976278
 20
98.40023042890071
 30
0.0
 10
42.88964915393714
 20
98.17445443818575
 30
0.0
 10
43.33509285900906
 20
97.9055696125466
 30
0.0
 10
43.737486021874574
 20
97.59417908022404
 30
0.0
 10
44.02300319468261
 20
97.37413642690392
 30
0.0
 10
44.29174924411003
 20
97.13468779112665
 30
0.0
 10
44.54372417015669
 20
96.875833172892
 30
0.0
 10
45.08925811311149
 20
96.3160561239647
 30
0.0
 10
45.54494819402961
 20
95.66773438980458
 30
0.0
 10
45.87760358310108
 20
94.96016631068579
 30
0.0
 10
46.21123826948724
 20
94.25303799958945
 30
0.0
 10
46.42042133247351
 20
93.4873995654388
 30
0.0
 10
46.491815912096015
 20
92.70866855051206
 30
0.0
 10
46.65068215633811
 20
91.02784592211576
 30
0.0
 10
46.15552004017426
 20
89.31072334376695
 30
0.0
 10
45.187410604693554
 20
87.93463465070407
 30
0.0
 10
44.3783882430259
 20
86.77721847506402
 30
0.0
 10
43.236074097842064
 20
85.84550726495026
 30
0.0
 10
41.9165468940961
 20
85.33228964832546
 30
0.0
 10
41.18808911443126
 20
85.04741658958683
 30
0.0
 10
40.408511248384066
 20
84.89402382155674
 30
0.0
 10
39.6263248802988
 20
84.88306982435878
 30
0.0
 10
39.05206719051965
 20
84.87635121590428
 30
0.0
 10
38.485574984631576
 20
84.93963028724663
 30
0.0
 10
37.926848262634614
 20
85.07290703838608
 30
0.0
 10
37.1363212839484
 20
85.2597691507374
 30
0.0
 10
36.37987802914611
 20
85.57594863320743
 30
0.0
 10
35.67282986079146
 20
85.9727216615986
 30
0.0
 10
35.043409344834345
 20
86.32569936431902
 30
0.0
 10
34.4512699539767
 20
86.74093208538962
 30
0.0
 10
33.88954197626163
 20
87.19260875448037
 30
0.0
 10
32.67260454086588
 20
88.1735898686787
 30
0.0
 10
31.59637970474763
 20
89.31382394759571
 30
0.0
 10
30.562188806691495
 20
90.48160212850003
 30
0.0
 10
29.528485152979325
 20
91.65154876161147
 30
0.0
 10
28.537660950775663
 20
92.85844650143655
 30
0.0
 10
27.5052308494963
 20
94.02948625891881
 30
0.0
 10
26.511953783334743
 20
95.15326732333209
 30
0.0
 10
25.483355340891766
 20
96.25438420372961
 30
0.0
 10
24.327167258654544
 20
97.21406868508627
 30
0.0
 10
24.050498494644472
 20
97.44443458065825
 30
0.0
 10
23.764599278493193
 20
97.66348915324627
 30
0.0
 10
23.469469610200687
 20
97.87123240285015
 30
0.0
 10
23.29663825759456
 20
97.99220959754993
 30
0.0
 10
23.12041188647372
 20
98.10791813143096
 30
0.0
 10
22.94079049683818
 20
98.21835800449313
 30
0.0
 10
22.656747492099488
 20
98.39114481328916
 30
0.0
 10
22.377912728824057
 20
98.55092271528504
 30
0.0
 10
22.073829355750675
 20
98.68565954382602
 30
0.0
 10
21.92371452311378
 20
98.75183590858985
 30
0.0
 10
21.752124280353158
 20
98.81508313175885
 30
0.0
 10
21.59599503131267
 20
98.86544068225854
 30
0.0
 10
21.518577006899708
 20
98.89122172208279
 30
0.0
 10
21.44536299533744
 20
98.91512281535839
 30
0.0
 10
21.376352996625933
 20
98.93714396208564
 30
0.0
 10
21.305619035876333
 20
98.95890966181916
 30
0.0
 10
21.236781553765688
 20
98.97728500108175
 30
0.0
 10
21.136290220004433
 20
98.98760923236176
 30
0.0
 10
21.11105252052548
 20
98.98969941662936
 30
0.0
 10
21.085814821046572
 20
98.99178960089704
 30
0.0
 10
21.060577121567626
 20
98.99387978516472
 30
0.0
 10
21.03492230217708
 20
98.9955884770944
 30
0.0
 10
21.003130425503226
 20
98.99740512822046
 30
0.0
 10
21.000082252461596
 20
98.99982196627766
 30
0.0
 10
21.00045239346868
 20
99.0001103569729
 30
0.0
 10
21.00082253447578
 20
99.00039874766813
 30
0.0
 10
21.001192675482883
 20
99.0006871383634
 30
0.0
 10
21.012799661148957
 20
99.00361179314746
 30
0.0
 10
21.062076584906276
 20
99.00558943873776
 30
0.0
 10
21.105100940717396
 20
99.0094729498693
 30
0.0
 10
21.150244608553432
 20
99.01330950137758
 30
0.0
 10
21.190893349668187
 20
99.01849449923542
 30
0.0
 10
21.22704716406165
 20
99.0250279434428
 30
0.0
 10
21.300195636184576
 20
99.03852662723354
 30
0.0
 10
21.34612986757698
 20
99.05300457849799
 30
0.0
 10
21.41765156824676
 20
99.07628261949615
 30
0.0
 10
21.569366057425988
 20
99.12518516139163
 30
0.0
 10
21.757032896065617
 20
99.18539004286686
 30
0.0
 10
21.929924866813572
 20
99.25409926330566
 30
0.0
 10
22.213362421214477
 20
99.36657912683224
 30
0.0
 10
22.473433205513334
 20
99.50675813367097
 30
0.0
 10
22.73267694692452
 20
99.65711339015803
 30
0.0
 10
23.278694179757608
 20
99.97400620888016
 30
0.0
 10
23.793316746251634
 20
100.34621182159225
 30
0.0
 10
24.278871498439315
 20
100.74610615970745
 30
0.0
 10
24.718750604618336
 20
101.10970553112423
 30
0.0
 10
25.142545453961674
 20
101.49138902495157
 30
0.0
 10
25.550256046469325
 20
101.89115664118917
 30
0.0
 10
26.452782827267043
 20
102.77231029282841
 30
0.0
 10
27.291250875253272
 20
103.71589722509037
 30
0.0
 10
28.114763640624094
 20
104.67035339326564
 30
0.0
 10
29.03606694189483
 20
105.7389526355038
 30
0.0
 10
29.93684385812689
 20
106.82543253184306
 30
0.0
 10
30.880042192671823
 20
107.87507716475484
 30
0.0
 10
31.56251817413116
 20
108.63392779638383
 30
0.0
 10
32.26726867700871
 20
109.37416814487423
 30
0.0
 10
33.021851529705124
 20
110.06245103785761
 30
0.0
 10
33.842780597655576
 20
110.80989325584349
 30
0.0
 10
34.72475745666364
 20
111.49841739974333
 30
0.0
 10
35.69680313793972
 20
112.04067710529176
 30
0.0
 10
36.431004663426805
 20
112.45022766885748
 30
0.0
 10
37.218645806794356
 20
112.7725679577293
 30
0.0
 10
38.04158285484337
 20
112.95326155192461
 30
0.0
 10
38.542913480166405
 20
113.06420304718043
 30
0.0
 10
39.050245251654566
 20
113.11896843219355
 30
0.0
 10
39.56357816930795
 20
113.11755770696433
 30
0.0
 10
40.70760488882709
 20
113.11439004600464
 30
0.0
 10
41.845685224753275
 20
112.79846307868512
 30
0.0
 10
42.83563218361495
 20
112.22744519057349
 30
0.0
 10
43.77531211686791
 20
111.6885030640946
 30
0.0
 10
44.58586782621971
 20
110.93171270551306
 30
0.0
 10
45.2031287803451
 20
110.04282736853119
 30
0.0
 10
45.88963366620822
 20
109.05577168914208
 30
0.0
 10
46.3384796601138
 20
107.90074681429934
 30
0.0
 10
46.475215617563876
 20
106.70478644568513
 30
0.0
 10
46.59675273005018
 20
105.65923654892683
 30
0.0
 10
46.473867164202154
 20
104.58520833920309
 30
0.0
 10
46.11033292490046
 20
103.59698857062601
 30
0.0
 10
45.708206198031846
 20
102.49408528768464
 30
0.0
 10
45.01195829618863
 20
101.50614229403604
 30
0.0
 10
44.13255254854982
 20
100.73222895301615
 30
0.0
 10
43.54651150930364
 20
100.2154207049537
 30
0.0
 10
42.881035554956824
 20
99.78906328111518
 30
0.0
 10
42.165991780836094
 20
99.47448734316825
 30
0.0
 10
41.89068429220989
 20
99.35302157765383
 30
0.0
 10
41.608552175612616
 20
99.25066713424015
 30
0.0
 10
41.319595431044384
 20
99.1674240129272
 30
0.0
 10
41.02305945572462
 20
99.08504686602444
 30
0.0
 10
40.72026064811076
 20
99.01338189861903
 30
0.0
 10
40.411764705882405
 20
99.0
 30
0.0
  0
LINE
  5
33
330
17
100
AcDbEntity
  8
CUT
100
AcDbLine
 10
4.296563105299356e-14
 20
28.77777777777778
 30
0.0
 11
6.000000000000043
 21
28.77777777777778
 31
0.0
  0
LINE
  5
34
330
17
100
AcDbEntity
  8
CUT
100
AcDbLine
 10
4.296563105299356e-14
 20
57.55555555555556
 30
0.0
 11
4.296563105299356e-14
 21
28.77777777777778
 31
0.0
  0
LINE
  5
35
330
17
100
AcDbEntity
  8
CUT
100
AcDbLine
 10
4.296563105299356e-14
 20
86.33333333333334
 30
0.0
 11
6.000000000000043
 21
86.33333333333334
 31
0.0
  0
LINE
  5
36
330
17
100
AcDbEntity
  8
CUT
100
AcDbLine
 10
4.296563105299356e-14
 20
115.11111111111111
 30
0.0
 11
4.296563105299356e-14
 21
86.33333333333334
 31
0.0
  0
LINE
  5
37
330
17
100
AcDbEntity
  8
CUT
100
AcDbLine
 10
4.296563105299356e-14
 20
143.88888888888889
 30
0.0
 11
6.000000000000043
 21
143.88888888888889
 31
0.0
  0
LINE
  5
38
330
17
100
AcDbEntity
  8
CUT
100
AcDbLine
 10
4.296563105299356e-14
 20
172.66666666666669
 30
0.0
 11
4.296563105299356e-14
 21
143.88888888888889
 31
0.0
  0
LINE
  5
39
330
17
100
AcDbEntity
  8
CUT
100
AcDbLine
 10
4.296563105299356e-14
 20
201.44444444444446
 30
0.0
 11
6.000000000000043
 21
201.44444444444446
 31
0.0
  0
LINE
  5
3A
330
17
100
AcDbEntity
  8
CUT
100
AcDbLine
 10
4.296563105299356e-14
 20
230.22222222222223
 30
0.0
 11
4.296563105299356e-14
 21
201.44444444444446
 31
0.0
  0
LINE
  5
3B
330
17
100
AcDbEntity
  8
CUT
100
AcDbLine
 10
6.000000000000043
 20
6.0
 30
0.0
 11
30.000000000000043
 21
6.0
 31
0.0
  0
LINE
  5
3C
330
17
100
AcDbEntity
  8
CUT
100
AcDbLine
 10
6.000000000000043
 20
28.77777777777778
 30
0.0
 11
6.000000000000043
 21
6.0
 31
0.0
  0
LINE
  5
3D
330
17
100
AcDbEntity
  8
CUT
100
AcDbLine
 10
6.000000000000043
 20
57.55555555555556
 30
0.0
 11
4.296563105299356e-14
 21
57.55555555555556
 31
0.0
  0
LINE
  5
3E
330
17
100
AcDbEntity
  8
CUT
100
AcDbLine
 10
6.000000000000043
 20
86.33333333333334
 30
0.0
 11
6.000000000000043
 21
57.55555555555556
 31
0.0
  0
LINE
  5
3F
330
17
100
AcDbEntity
  8
CUT
100
AcDbLine
 10
6.000000000000043
 20
115.11111111111111
 30
0.0
 11
4.296563105299356e-14
 21
115.11111111111111
 31
0.0
  0
LINE
  5
40
330
17
100
AcDbEntity
  8
CUT
100
AcDbLine
 10
6.000000000000043
 20
143.88888888888889
 30
0.0
 11
6.000000000000043
 21
115.11111111111111
 31
0.0
  0
LINE
  5
41
330
17
100
AcDbEntity
  8
CUT
100
AcDbLine
 10
6.000000000000043
 20
172.66666666666669
 30
0.0
 11
4.296563105299356e-14
 21
172.66666666666669
 31
0.0
  0
LINE
  5
42
330
17
100
AcDbEntity
  8
CUT
100
AcDbLine
 10
6.000000000000043
 20
201.44444444444446
 30
0.0
 11
6.000000000000043
 21
172.66666666666669
 31
0.0
  0
LINE
  5
43
330
17
100
AcDbEntity
  8
CUT
100
AcDbLine
 10
6.000000000000043
 20
230.22222222222223
 30
0.0
 11
4.296563105299356e-14
 21
230.22222222222223
 31
0.0
  0
LINE
  5
44
330
17
100
AcDbEntity
  8
CUT
100
AcDbLine
 10
6.000000000000043
 20
259.0
 30
0.0
 11
6.000000000000043
 21
230.22222222222223
 31
0.0
  0
LINE
  5
45
330
17
100
AcDbEntity
  8
CUT
100
AcDbLine
 10
30.000000000000043
 20
0.0
 30
0.0
 11
60.00000000000004
 21
0.0
 31
0.0
  0
LINE
  5
46
330
17
100
AcDbEntity
  8
CUT
100
AcDbLine
 10
30.000000000000043
 20
6.0
 30
0.0
 11
30.000000000000043
 21
0.0
 31
0.0
  0
LINE
  5
47
330
17
100
AcDbEntity
  8
CUT
100
AcDbLine
 10
60.00000000000004
 20
0.0
 30
0.0
 11
60.00000000000004
 21
6.0
 31
0.0
  0
LINE
  5
48
330
17
100
AcDbEntity
  8
CUT
100
AcDbLine
 10
60.00000000000004
 20
6.0
 30
0.0
 11
90.00000000000004
 21
6.0
 31
0.0
  0
LINE
  5
49
330
17
100
AcDbEntity
  8
CUT
100
AcDbLine
 10
64.00000000000004
 20
64.5
 30
0.0
 11
64.00000000000004
 21
94.5
 31
0.0
  0
LINE
  5
4A
330
17
100
AcDbEntity
  8
CUT
100
AcDbLine
 10
64.00000000000004
 20
94.5
 30
0.0
 11
70.00000000000004
 21
94.5
 31
0.0
  0
LINE
  5
4B
330
17
100
AcDbEntity
  8
CUT
100
AcDbLine
 10
64.00000000000004
 20
170.5
 30
0.0
 11
64.00000000000004
 21
200.5
 31
0.0
  0
LINE
  5
4C
330
17
100
AcDbEntity
  8
CUT
100
AcDbLine
 10
64.00000000000004
 20
200.5
 30
0.0
 11
70.00000000000004
 21
200.5
 31
0.0
  0
LINE
  5
4D
330
17
100
AcDbEntity
  8
CUT
100
AcDbLine
 10
70.00000000000004
 20
64.5
 30
0.0
 11
64.00000000000004
 21
64.5
 31
0.0
  0
LINE
  5
4E
330
17
100
AcDbEntity
  8
CUT
100
AcDbLine
 10
70.00000000000004
 20
94.5
 30
0.0
 11
70.00000000000004
 21
64.5
 31
0.0
  0
LINE
  5
4F
330
17
100
AcDbEntity
  8
CUT
100
AcDbLine
 10
70.00000000000004
 20
170.5
 30
0.0
 11
64.00000000000004
 21
170.5
 31
0.0
  0
LINE
  5
50
330
17
100
AcDbEntity
  8
CUT
100
AcDbLine
 10
70.00000000000004
 20
200.5
 30
0.0
 11
70.00000000000004
 21
170.5
 31
0.0
  0
LINE
  5
51
330
17
100
AcDbEntity
  8
CUT
100
AcDbLine
 10
90.00000000000004
 20
0.0
 30
0.0
 11
120.00000000000004
 21
0.0
 31
0.0
  0
LINE
  5
52
330
17
100
AcDbEntity
  8
CUT
100
AcDbLine
 10
90.00000000000004
 20
6.0
 30
0.0
 11
90.00000000000004
 21
0.0
 31
0.0
  0
LINE
  5
53
330
17
100
AcDbEntity
  8
CUT
100
AcDbLine
 10
120.00000000000004
 20
0.0
 30
0.0
 11
120.00000000000004
 21
6.0
 31
0.0
  0
LINE
  5
54
330
17
100
AcDbEntity
  8
CUT
100
AcDbLine
 10
120.00000000000004
 20
6.0
 30
0.0
 11
150.00000000000006
 21
6.0
 31
0.0
  0
LINE
  5
55
330
17
100
AcDbEntity
  8
CUT
100
AcDbLine
 10
150.00000000000006
 20
0.0
 30
0.0
 11
180.00000000000006
 21
0.0
 31
0.0
  0
LINE
  5
56
330
17
100
AcDbEntity
  8
CUT
100
AcDbLine
 10
150.00000000000006
 20
6.0
 30
0.0
 11
150.00000000000006
 21
0.0
 31
0.0
  0
LINE
  5
57
330
17
100
AcDbEntity
  8
CUT
100
AcDbLine
 10
180.00000000000006
 20
0.0
 30
0.0
 11
180.00000000000006
 21
6.0
 31
0.0
  0
LINE
  5
58
330
17
100
AcDbEntity
  8
CUT
100
AcDbLine
 10
180.00000000000006
 20
6.0
 30
0.0
 11
210.00000000000006
 21
6.0
 31
0.0
  0
LINE
  5
59
330
17
100
AcDbEntity
  8
CUT
100
AcDbLine
 10
210.00000000000006
 20
0.0
 30
0.0
 11
240.00000000000006
 21
0.0
 31
0.0
  0
LINE
  5
5A
330
17
100
AcDbEntity
  8
CUT
100
AcDbLine
 10
210.00000000000006
 20
6.0
 30
0.0
 11
210.00000000000006
 21
0.0
 31
0.0
  0
LINE
  5
5B
330
17
100
AcDbEntity
  8
CUT
100
AcDbLine
 10
240.00000000000006
 20
0.0
 30
0.0
 11
240.00000000000006
 21
6.0
 31
0.0
  0
LINE
  5
5C
330
17
100
AcDbEntity
  8
CUT
100
AcDbLine
 10
240.00000000000006
 20
6.0
 30
0.0
 11
264.00000000000006
 21
6.0
 31
0.0
  0
LINE
  5
5D
330
17
100
AcDbEntity
  8
CUT
100
AcDbLine
 10
264.00000000000006
 20
6.0
 30
0.0
 11
264.00000000000006
 21
28.77777777777778
 31
0.0
  0
LINE
  5
5E
330
17
100
AcDbEntity
  8
CUT
100
AcDbLine
 10
264.00000000000006
 20
28.77777777777778
 30
0.0
 11
270.00000000000006
 21
28.77777777777778
 31
0.0
  0
LINE
  5
5F
330
17
100
AcDbEntity
  8
CUT
100
AcDbLine
 10
264.00000000000006
 20
57.55555555555556
 30
0.0
 11
264.00000000000006
 21
86.33333333333334
 31
0.0
  0
LINE
  5
60
330
17
100
AcDbEntity
  8
CUT
100
AcDbLine
 10
264.00000000000006
 20
86.33333333333334
 30
0.0
 11
270.00000000000006
 21
86.33333333333334
 31
0.0
  0
LINE
  5
61
330
17
100
AcDbEntity
  8
CUT
100
AcDbLine
 10
264.00000000000006
 20
115.11111111111111
 30
0.0
 11
264.00000000000006
 21
143.88888888888889
 31
0.0
  0
LINE
  5
62
330
17
100
AcDbEntity
  8
CUT
100
AcDbLine
 10
264.00000000000006
 20
143.88888888888889
 30
0.0
 11
270.00000000000006
 21
143.88888888888889
 31
0.0
  0
LINE
  5
63
330
17
100
AcDbEntity
  8
CUT
100
AcDbLine
 10
264.00000000000006
 20
172.66666666666669
 30
0.0
 11
264.00000000000006
 21
201.44444444444446
 31
0.0
  0
LINE
  5
64
330
17
100
AcDbEntity
  8
CUT
100
AcDbLine
 10
264.00000000000006
 20
201.44444444444446
 30
0.0
 11
270.00000000000006
 21
201.44444444444446
 31
0.0
  0
LINE
  5
65
330
17
100
AcDbEntity
  8
CUT
100
AcDbLine
 10
264.00000000000006
 20
230.22222222222223
 30
0.0
 11
264.00000000000006
 21
259.0
 31
0.0
  0
LINE
  5
66
330
17
100
AcDbEntity
  8
CUT
100
AcDbLine
 10
264.00000000000006
 20
259.0
 30
0.0
 11
6.000000000000043
 21
259.0
 31
0.0
  0
LINE
  5
67
330
17
100
AcDbEntity
  8
CUT
100
AcDbLine
 10
270.00000000000006
 20
28.77777777777778
 30
0.0
 11
270.00000000000006
 21
57.55555555555556
 31
0.0
  0
LINE
  5
68
330
17
100
AcDbEntity
  8
CUT
100
AcDbLine
 10
270.00000000000006
 20
57.55555555555556
 30
0.0
 11
264.00000000000006
 21
57.55555555555556
 31
0.0
  0
LINE
  5
69
330
17
100
AcDbEntity
  8
CUT
100
AcDbLine
 10
270.00000000000006
 20
86.33333333333334
 30
0.0
 11
270.00000000000006
 21
115.11111111111111
 31
0.0
  0
LINE
  5
6A
330
17
100
AcDbEntity
  8
CUT
100
AcDbLine
 10
270.00000000000006
 20
115.11111111111111
 30
0.0
 11
264.00000000000006
 21
115.11111111111111
 31
0.0
  0
LINE
  5
6B
330
17
100
AcDbEntity
  8
CUT
100
AcDbLine
 10
270.00000000000006
 20
143.88888888888889
 30
0.0
 11
270.00000000000006
 21
172.66666666666669
 31
0.0
  0
LINE
  5
6C
330
17
100
AcDbEntity
  8
CUT
100
AcDbLine
 10
270.00000000000006
 20
172.66666666666669
 30
0.0
 11
264.00000000000006
 21
172.66666666666669
 31
0.0
  0
LINE
  5
6D
330
17
100
AcDbEntity
  8
CUT
100
AcDbLine
 10
270.00000000000006
 20
201.44444444444446
 30
0.0
 11
270.00000000000006
 21
230.22222222222223
 31
0.0
  0
LINE
  5
6E
330
17
100
AcDbEntity
  8
CUT
100
AcDbLine
 10
270.00000000000006
 20
230.22222222222223
 30
0.0
 11
264.00000000000006
 21
230.22222222222223
 31
0.0
  0
ENDSEC
  0
SECTION
  2
OBJECTS
  0
DICTIONARY
  5
A
330
0
100
AcDbDictionary
281
1
  3
ACAD_COLOR
350
B
  3
ACAD_GROUP
350
C
  3
ACAD_LAYOUT
350
D
  3
ACAD_MATERIAL
350
E
  3
ACAD_MLEADERSTYLE
350
F
  3
ACAD_MLINESTYLE
350
10
  3
ACAD_PLOTSETTINGS
350
11
  3
ACAD_PLOTSTYLENAME
350
12
  3
ACAD_SCALELIST
350
14
  3
ACAD_TABLESTYLE
350
15
  3
ACAD_VISUALSTYLE
350
16
  3
EZDXF_META
350
2D
  0
DICTIONARY
  5
B
330
A
100
AcDbDictionary
281
1
  0
DICTIONARY
  5
C
330
A
100
AcDbDictionary
281
1
  0
DICTIONARY
  5
D
330
A
100
AcDbDictionary
281
1
  3
Model
350
1A
  3
Layout1
350
1E
  0
DICTIONARY
  5
E
330
A
100
AcDbDictionary
281
1
  3
ByBlock
350
1F
  3
ByLayer
350
20
  3
Global
350
21
  0
DICTIONARY
  5
F
330
A
100
AcDbDictionary
281
1
  3
Standard
350
2C
  0
DICTIONARY
  5
10
330
A
100
AcDbDictionary
281
1
  3
Standard
350
22
  0
DICTIONARY
  5
11
330
A
100
AcDbDictionary
281
1
  0
ACDBDICTIONARYWDFLT
  5
12
330
A
100
AcDbDictionary
281
1
  3
Normal
350
13
100
AcDbDictionaryWithDefault
340
13
  0
ACDBPLACEHOLDER
  5
13
330
12
  0
DICTIONARY
  5
14
330
A
100
AcDbDictionary
281
1
  0
DICTIONARY
  5
15
330
A
100
AcDbDictionary
281
1
  0
DICTIONARY
  5
16
330
A
100
AcDbDictionary
281
1
  0
LAYOUT
  5
1A
330
D
100
AcDbPlotSettings
  1

  4
A3
  6

 40
7.5
 41
20.0
 42
7.5
 43
20.0
 44
420.0
 45
297.0
 46
0.0
 47
0.0
 48
0.0
 49
0.0
140
0.0
141
0.0
142
1.0
143
1.0
 70
1024
 72
1
 73
0
 74
5
  7

 75
16
 76
0
 77
2
 78
300
147
1.0
148
0.0
149
0.0
100
AcDbLayout
  1
Model
 70
1
 71
0
 10
0.0
 20
0.0
 11
420.0
 21
297.0
 12
0.0
 22
0.0
 32
0.0
 14
1e+20
 24
1e+20
 34
1e+20
 15
-1e+20
 25
-1e+20
 35
-1e+20
146
0.0
 13
0.0
 23
0.0
 33
0.0
 16
1.0
 26
0.0
 36
0.0
 17
0.0
 27
1.0
 37
0.0
 76
1
330
17
  0
LAYOUT
  5
1E
330
D
100
AcDbPlotSettings
  1

  4
A3
  6

 40
7.5
 41
20.0
 42
7.5
 43
20.0
 44
420.0
 45
297.0
 46
0.0
 47
0.0
 48
0.0
 49
0.0
140
0.0
141
0.0
142
1.0
143
1.0
 70
0
 72
1
 73
0
 74
5
  7

 75
16
 76
0
 77
2
 78
300
147
1.0
148
0.0
149
0.0
100
AcDbLayout
  1
Layout1
 70
1
 71
1
 10
0.0
 20
0.0
 11
420.0
 21
297.0
 12
0.0
 22
0.0
 32
0.0
 14
1e+20
 24
1e+20
 34
1e+20
 15
-1e+20
 25
-1e+20
 35
-1e+20
146
0.0
 13
0.0
 23
0.0
 33
0.0
 16
1.0
 26
0.0
 36
0.0
 17
0.0
 27
1.0
 37
0.0
 76
1
330
1B
  0
MATERIAL
  5
1F
102
{ACAD_REACTORS
330
E
102
}
330
E
100
AcDbMaterial
  1
ByBlock
  2

 70
0
 40
1.0
 71
1
 41
1.0
 91
-1023410177
 42
1.0
 72
1
  3

 73
1
 74
1
 75
1
 44
0.5
 73
0
 45
1.0
 46
1.0
 77
1
  4

 78
1
 79
1
170
1
 48
1.0
171
1
  6

172
1
173
1
174
1
140
1.0
141
1.0
175
1
  7

176
1
177
1
178
1
143
1.0
179
1
  8

270
1
271
1
272
1
145
1.0
146
1.0
273
1
  9

274
1
275
1
276
1
 42
1.0
 72
1
  3

 73
1
 74
1
 75
1
 94
63
  0
MATERIAL
  5
20
102
{ACAD_REACTORS
330
E
102
}
330
E
100
AcDbMaterial
  1
ByLayer
  2

 70
0
 40
1.0
 71
1
 41
1.0
 91
-1023410177
 42
1.0
 72
1
  3

 73
1
 74
1
 75
1
 44
0.5
 73
0
 45
1.0
 46
1.0
 77
1
  4

 78
1
 79
1
170
1
 48
1.0
171
1
  6

172
1
173
1
174
1
140
1.0
141
1.0
175
1
  7

176
1
177
1
178
1
143
1.0
179
1
  8

270
1
271
1
272
1
145
1.0
146
1.0
273
1
  9

274
1
275
1
276
1
 42
1.0
 72
1
  3

 73
1
 74
1
 75
1
 94
63
  0
MATERIAL
  5
21
102
{ACAD_REACTORS
330
E
102
}
330
E
100
AcDbMaterial
  1
Global
  2

 70
0
 40
1.0
 71
1
 41
1.0
 91
-1023410177
 42
1.0
 72
1
  3

 73
1
 74
1
 75
1
 44
0.5
 73
0
 45
1.0
 46
1.0
 77
1
  4

 78
1
 79
1
170
1
 48
1.0
171
1
  6

172
1
173
1
174
1
140
1.0
141
1.0
175
1
  7

176
1
177
1
178
1
143
1.0
179
1
  8

270
1
271
1
272
1
145
1.0
146
1.0
273
1
  9

274
1
275
1
276
1
 42
1.0
 72
1
  3

 73
1
 74
1
 75
1
 94
63
  0
MLINESTYLE
  5
22
102
{ACAD_REACTORS
330
10
102
}
330
10
100
AcDbMlineStyle
  2
Standard
 70
0
  3

 62
256
 51
90.0
 52
90.0
 71
2
 49
0.5
 62
256
  6
BYLAYER
 49
-0.5
 62
256
  6
BYLAYER
  0
MLEADERSTYLE
  5
2C
102
{ACAD_REACTORS
330
F
102
}
330
F
100
AcDbMLeaderStyle
179
2
170
2
171
1
172
0
 90
2
 40
0.0
 41
0.0
173
1
 91
-1056964608
 92
-2
290
1
 42
2.0
291
1
 43
8.0
  3
Standard
 44
4.0
300

342
29
174
1
175
1
176
0
178
1
 93
-1056964608
 45
4.0
292
0
297
0
 46
4.0
 94
-1056964608
 47
1.0
 49
1.0
140
1.0
294
1
141
0.0
177
0
142
1.0
295
0
296
0
143
3.75
271
0
272
9
273
9
  0
DICTIONARY
  5
2D
330
A
100
AcDbDictionary
280
1
281
1
  3
CREATED_BY_EZDXF
350
2E
  3
WRITTEN_BY_EZDXF
350
72
  0
DICTIONARYVAR
  5
2E
330
2D
100
DictionaryVariables
280
0
  1
0.0 @ 2000-01-01T00:00:00.000000+00:00
  0
DICTIONARYVAR
  5
72
330
2D
100
DictionaryVariables
280
0
  1
0.0 @ 2000-01-01T00:00:00.000000+00:00
  0
ENDSEC
  0
EOF
