  0
SECTION
  2
HEADER
  9
$ACADVER
  1
AC1027
  9
$ACADMAINTVER
 70
105
  9
$DWGCODEPAGE
  3
ANSI_1252
  9
$LASTSAVEDBY
  1
ezdxf
  9
$REQUIREDVERSIONS
160
0
  9
$INSBASE
 10
0.0
 20
0.0
 30
0.0
  9
$EXTMIN
 10
1e+20
 20
1e+20
 30
1e+20
  9
$EXTMAX
 10
-1e+20
 20
-1e+20
 30
-1e+20
  9
$LIMMIN
 10
0.0
 20
0.0
  9
$LIMMAX
 10
420.0
 20
297.0
  9
$ORTHOMODE
 70
0
  9
$REGENMODE
 70
1
  9
$FILLMODE
 70
1
  9
$QTEXTMODE
 70
0
  9
$MIRRTEXT
 70
1
  9
$LTSCALE
 40
1.0
  9
$ATTMODE
 70
1
  9
$TEXTSIZE
 40
2.5
  9
$TRACEWID
 40
1.0
  9
$TEXTSTYLE
  7
Standard
  9
$CLAYER
  8
0
  9
$CELTYPE
  6
ByLayer
  9
$CECOLOR
 62
256
  9
$CELTSCALE
 40
1.0
  9
$DISPSILH
 70
0
  9
$DIMSCALE
 40
1.0
  9
$DIMASZ
 40
2.5
  9
$DIMEXO
 40
0.625
  9
$DIMDLI
 40
3.75
  9
$DIMRND
 40
0.0
  9
$DIMDLE
 40
0.0
  9
$DIMEXE
 40
1.25
  9
$DIMTP
 40
0.0
  9
$DIMTM
 40
0.0
  9
$DIMTXT
 40
2.5
  9
$DIMCEN
 40
2.5
  9
$DIMTSZ
 40
0.0
  9
$DIMTOL
 70
0
  9
$DIMLIM
 70
0
  9
$DIMTIH
 70
0
  9
$DIMTOH
 70
0
  9
$DIMSE1
 70
0
  9
$DIMSE2
 70
0
  9
$DIMTAD
 70
1
  9
$DIMZIN
 70
8
  9
$DIMBLK
  1

  9
$DIMASO
 70
1
  9
$DIMSHO
 70
1
  9
$DIMPOST
  1

  9
$DIMAPOST
  1

  9
$DIMALT
 70
0
  9
$DIMALTD
 70
3
  9
$DIMALTF
 40
0.03937007874
  9
$DIMLFAC
 40
1.0
  9
$DIMTOFL
 70
1
  9
$DIMTVP
 40
0.0
  9
$DIMTIX
 70
0
  9
$DIMSOXD
 70
0
  9
$DIMSAH
 70
0
  9
$DIMBLK1
  1

  9
$DIMBLK2
  1

  9
$DIMSTYLE
  2
ISO-25
  9
$DIMCLRD
 70
0
  9
$DIMCLRE
 70
0
  9
$DIMCLRT
 70
0
  9
$DIMTFAC
 40
1.0
  9
$DIMGAP
 40
0.625
  9
$DIMJUST
 70
0
  9
$DIMSD1
 70
0
  9
$DIMSD2
 70
0
  9
$DIMTOLJ
 70
0
  9
$DIMTZIN
 70
8
  9
$DIMALTZ
 70
0
  9
$DIMALTTZ
 70
0
  9
$DIMUPT
 70
0
  9
$DIMDEC
 70
2
  9
$DIMTDEC
 70
2
  9
$DIMALTU
 70
2
  9
$DIMALTTD
 70
3
  9
$DIMTXSTY
  7
Standard
  9
$DIMAUNIT
 70
0
  9
$DIMADEC
 70
0
  9
$DIMALTRND
 40
0.0
  9
$DIMAZIN
 70
0
  9
$DIMDSEP
 70
44
  9
$DIMATFIT
 70
3
  9
$DIMFRAC
 70
0
  9
$DIMLDRBLK
  1

  9
$DIMLUNIT
 70
2
  9
$DIMLWD
 70
-2
  9
$DIMLWE
 70
-2
  9
$DIMTMOVE
 70
0
  9
$DIMFXL
 40
1.0
  9
$DIMFXLON
 70
0
  9
$DIMJOGANG
 40
0.785398163397
  9
$DIMTFILL
 70
0
  9
$DIMTFILLCLR
 70
0
  9
$DIMARCSYM
 70
0
  9
$DIMLTYPE
  6

  9
$DIMLTEX1
  6

  9
$DIMLTEX2
  6

  9
$DIMTXTDIRECTION
 70
0
  9
$LUNITS
 70
2
  9
$LUPREC
 70
4
  9
$SKETCHINC
 40
1.0
  9
$FILLETRAD
 40
10.0
  9
$AUNITS
 70
0
  9
$AUPREC
 70
2
  9
$MENU
  1
.
  9
$ELEVATION
 40
0.0
  9
$PELEVATION
 40
0.0
  9
$THICKNESS
 40
0.0
  9
$LIMCHECK
 70
0
  9
$CHAMFERA
 40
0.0
  9
$CHAMFERB
 40
0.0
  9
$CHAMFERC
 40
0.0
  9
$CHAMFERD
 40
0.0
  9
$SKPOLY
 70
0
  9
$TDCREATE
 40
2451545.0
  9
$TDUCREATE
 40
2451545.0
  9
$TDUPDATE
 40
2451545.0
  9
$TDUUPDATE
 40
2451545.0
  9
$TDINDWG
 40
0.0
  9
$TDUSRTIMER
 40
0.0
  9
$USRTIMER
 70
1
  9
$ANGBASE
 50
0.0
  9
$ANGDIR
 70
0
  9
$PDMODE
 70
0
  9
$PDSIZE
 40
0.0
  9
$PLINEWID
 40
0.0
  9
$SPLFRAME
 70
0
  9
$SPLINETYPE
 70
6
  9
$SPLINESEGS
 70
8
  9
$HANDSEED
  5
7A
  9
$SURFTAB1
 70
6
  9
$SURFTAB2
 70
6
  9
$SURFTYPE
 70
6
  9
$SURFU
 70
6
  9
$SURFV
 70
6
  9
$UCSBASE
  2

  9
$UCSNAME
  2

  9
$UCSORG
 10
0.0
 20
0.0
 30
0.0
  9
$UCSXDIR
 10
1.0
 20
0.0
 30
0.0
  9
$UCSYDIR
 10
0.0
 20
1.0
 30
0.0
  9
$UCSORTHOREF
  2

  9
$UCSORTHOVIEW
 70
0
  9
$UCSORGTOP
 10
0.0
 20
0.0
 30
0.0
  9
$UCSORGBOTTOM
 10
0.0
 20
0.0
 30
0.0
  9
$UCSORGLEFT
 10
0.0
 20
0.0
 30
0.0
  9
$UCSORGRIGHT
 10
0.0
 20
0.0
 30
0.0
  9
$UCSORGFRONT
 10
0.0
 20
0.0
 30
0.0
  9
$UCSORGBACK
 10
0.0
 20
0.0
 30
0.0
  9
$PUCSBASE
  2

  9
$PUCSNAME
  2

  9
$PUCSORG
 10
0.0
 20
0.0
 30
0.0
  9
$PUCSXDIR
 10
1.0
 20
0.0
 30
0.0
  9
$PUCSYDIR
 10
0.0
 20
1.0
 30
0.0
  9
$PUCSORTHOREF
  2

  9
$PUCSORTHOVIEW
 70
0
  9
$PUCSORGTOP
 10
0.0
 20
0.0
 30
0.0
  9
$PUCSORGBOTTOM
 10
0.0
 20
0.0
 30
0.0
  9
$PUCSORGLEFT
 10
0.0
 20
0.0
 30
0.0
  9
$PUCSORGRIGHT
 10
0.0
 20
0.0
 30
0.0
  9
$PUCSORGFRONT
 10
0.0
 20
0.0
 30
0.0
  9
$PUCSORGBACK
 10
0.0
 20
0.0
 30
0.0
  9
$USERI1
 70
0
  9
$USERI2
 70
0
  9
$USERI3
 70
0
  9
$USERI4
 70
0
  9
$USERI5
 70
0
  9
$USERR1
 40
0.0
  9
$USERR2
 40
0.0
  9
$USERR3
 40
0.0
  9
$USERR4
 40
0.0
  9
$USERR5
 40
0.0
  9
$WORLDVIEW
 70
1
  9
$SHADEDGE
 70
3
  9
$SHADEDIF
 70
70
  9
$TILEMODE
 70
1
  9
$MAXACTVP
 70
64
  9
$PINSBASE
 10
0.0
 20
0.0
 30
0.0
  9
$PLIMCHECK
 70
0
  9
$PEXTMIN
 10
1e+20
 20
1e+20
 30
1e+20
  9
$PEXTMAX
 10
-1e+20
 20
-1e+20
 30
-1e+20
  9
$PLIMMIN
 10
0.0
 20
0.0
  9
$PLIMMAX
 10
420.0
 20
297.0
  9
$UNITMODE
 70
0
  9
$VISRETAIN
 70
1
  9
$PLINEGEN
 70
0
  9
$PSLTSCALE
 70
1
  9
$TREEDEPTH
 70
3020
  9
$CMLSTYLE
  2
Standard
  9
$CMLJUST
 70
0
  9
$CMLSCALE
 40
20.0
  9
$PROXYGRAPHICS
 70
1
  9
$MEASUREMENT
 70
1
  9
$CELWEIGHT
370
-1
  9
$ENDCAPS
280
0
  9
$JOINSTYLE
280
0
  9
$LWDISPLAY
290
0
  9
$INSUNITS
 70
4
  9
$HYPERLINKBASE
  1

  9
$STYLESHEET
  1

  9
$XEDIT
290
1
  9
$CEPSNTYPE
380
0
  9
$PSTYLEMODE
290
1
  9
$FINGERPRINTGUID
  2
{00000000-0000-0000-0000-000000000000}
  9
$VERSIONGUID
  2
{00000000-0000-0000-0000-000000000000}
  9
$EXTNAMES
290
1
  9
$PSVPSCALE
 40
0.0
  9
$OLESTARTUP
290
0
  9
$SORTENTS
280
127
  9
$INDEXCTL
280
0
  9
$HIDETEXT
280
1
  9
$XCLIPFRAME
280
1
  9
$HALOGAP
280
0
  9
$OBSCOLOR
 70
257
  9
$OBSLTYPE
280
0
  9
$INTERSECTIONDISPLAY
280
0
  9
$INTERSECTIONCOLOR
 70
257
  9
$DIMASSOC
280
2
  9
$PROJECTNAME
  1

  9
$CAMERADISPLAY
290
0
  9
$LENSLENGTH
 40
50.0
  9
$CAMERAHEIGHT
 40
0.0
  9
$STEPSPERSEC
 40
24.0
  9
$STEPSIZE
 40
100.0
  9
$3DDWFPREC
 40
2.0
  9
$PSOLWIDTH
 40
0.005
  9
$PSOLHEIGHT
 40
0.08
  9
$LOFTANG1
 40
1.570796326795
  9
$LOFTANG2
 40
1.570796326795
  9
$LOFTMAG1
 40
0.0
  9
$LOFTMAG2
 40
0.0
  9
$LOFTPARAM
 70
7
  9
$LOFTNORMALS
280
1
  9
$LATITUDE
 40
37.795
  9
$LONGITUDE
 40
-122.394
  9
$NORTHDIRECTION
 40
0.0
  9
$TIMEZONE
 70
-8000
  9
$LIGHTGLYPHDISPLAY
280
1
  9
$TILEMODELIGHTSYNCH
280
1
  9
$CMATERIAL
347
20
  9
$SOLIDHIST
280
0
  9
$SHOWHIST
280
1
  9
$DWFFRAME
280
2
  9
$DGNFRAME
280
2
  9
$REALWORLDSCALE
290
1
  9
$INTERFERECOLOR
 62
256
  9
$CSHADOW
280
0
  9
$SHADOWPLANELOCATION
 40
0.0
  0
ENDSEC
  0
SECTION
  2
CLASSES
  0
CLASS
  1
ACDBDETAILVIEWSTYLE
  2
AcDbDetailViewStyle
  3
ObjectDBX Classes
 90
1025
 91
0
280
0
281
0
  0
CLASS
  1
ACDBDICTIONARYWDFLT
  2
AcDbDictionaryWithDefault
  3
ObjectDBX Classes
 90
0
 91
0
280
0
281
0
  0
CLASS
  1
ACDBPLACEHOLDER
  2
AcDbPlaceHolder
  3
ObjectDBX Classes
 90
0
 91
0
280
0
281
0
  0
CLASS
  1
ACDBSECTIONVIEWSTYLE
  2
AcDbSectionViewStyle
  3
ObjectDBX Classes
 90
1025
 91
0
280
0
281
0
  0
CLASS
  1
CELLSTYLEMAP
  2
AcDbCellStyleMap
  3
ObjectDBX Classes
 90
1152
 91
0
280
0
281
0
  0
CLASS
  1
DICTIONARYVAR
  2
AcDbDictionaryVar
  3
ObjectDBX Classes
 90
0
 91
0
280
0
281
0
  0
CLASS
  1
LAYOUT
  2
AcDbLayout
  3
ObjectDBX Classes
 90
0
 91
0
280
0
281
0
  0
CLASS
  1
MATERIAL
  2
AcDbMaterial
  3
ObjectDBX Classes
 90
1153
 91
0
280
0
281
0
  0
CLASS
  1
MENTALRAYRENDERSETTINGS
  2
AcDbMentalRayRenderSettings
  3
SCENEOE
 90
1024
 91
0
280
0
281
0
  0
CLASS
  1
MLEADERSTYLE
  2
AcDbMLeaderStyle
  3
ACDB_MLEADERSTYLE_CLASS
 90
4095
 91
0
280
0
281
0
  0
CLASS
  1
RASTERVARIABLES
  2
AcDbRasterVariables
  3
ISM
 90
0
 91
0
280
0
281
0
  0
CLASS
  1
SCALE
  2
AcDbScale
  3
ObjectDBX Classes
 90
1153
 91
0
280
0
281
0
  0
CLASS
  1
SUN
  2
AcDbSun
  3
SCENEOE
 90
1153
 91
0
280
0
281
0
  0
CLASS
  1
TABLESTYLE
  2
AcDbTableStyle
  3
ObjectDBX Classes
 90
4095
 91
0
280
0
281
0
  0
CLASS
  1
VISUALSTYLE
  2
AcDbVisualStyle
  3
ObjectDBX Classes
 90
4095
 91
0
280
0
281
0
  0
ENDSEC
  0
SECTION
  2
TABLES
  0
TABLE
  2
VPORT
  5
8
330
0
100
AcDbSymbolTable
 70
1
  0
VPORT
  5
76
330
8
100
AcDbSymbolTableRecord
100
AcDbViewportTableRecord
  2
*Active
 70
0
 10
0.0
 20
0.0
 11
1.0
 21
1.0
 12
135.00000000000006
 22
132.5
 13
0.0
 23
0.0
 14
0.5
 24
0.5
 15
0.5
 25
0.5
 16
0.0
 26
0.0
 36
1.0
 17
0.0
 27
0.0
 37
0.0
 40
265.0
 41
1.34
 42
50.0
 43
0.0
 44
0.0
 50
0.0
 51
0.0
 71
0
 72
1000
 73
1
 74
3
 75
0
 76
0
 77
0
 78
0
281
0
 65
1
110
0.0
120
0.0
130
0.0
111
1.0
121
0.0
131
0.0
112
0.0
122
1.0
132
0.0
 79
0
146
0.0
  0
ENDTAB
  0
TABLE
  2
LTYPE
  5
2
330
0
100
AcDbSymbolTable
 70
3
  0
LTYPE
  5
24
330
2
100
AcDbSymbolTableRecord
100
AcDbLinetypeTableRecord
  2
ByBlock
 70
0
  3

 72
65
 73
0
 40
0.0
  0
LTYPE
  5
25
330
2
100
AcDbSymbolTableRecord
100
AcDbLinetypeTableRecord
  2
ByLayer
 70
0
  3

 72
65
 73
0
 40
0.0
  0
LTYPE
  5
26
330
2
100
AcDbSymbolTableRecord
100
AcDbLinetypeTableRecord
  2
Continuous
 70
0
  3

 72
65
 73
0
 40
0.0
  0
ENDTAB
  0
TABLE
  2
LAYER
  5
1
330
0
100
AcDbSymbolTable
 70
3
  0
LAYER
  5
27
330
1
100
AcDbSymbolTableRecord
100
AcDbLayerTableRecord
  2
0
 70
0
 62
7
  6
Continuous
370
-3
390
13
347
21
  0
LAYER
  5
28
330
1
100
AcDbSymbolTableRecord
100
AcDbLayerTableRecord
  2
Defpoints
 70
0
 62
7
  6
Continuous
290
0
370
-3
390
13
347
21
  0
LAYER
  5
2F
330
1
100
AcDbSymbolTableRecord
100
AcDbLayerTableRecord
  2
CUT
 70
0
 62
7
  6
Continuous
370
-3
390
13
347
21
  0
ENDTAB
  0
TABLE
  2
STYLE
  5
5
330
0
100
AcDbSymbolTable
 70
1
  0
STYLE
  5
29
330
5
100
AcDbSymbolTableRecord
100
AcDbTextStyleTableRecord
  2
Standard
 70
0
 40
0.0
 41
1.0
 50
0.0
 71
0
 42
2.5
  3
txt
  4

  0
ENDTAB
  0
TABLE
  2
VIEW
  5
7
330
0
100
AcDbSymbolTable
 70
0
  0
ENDTAB
  0
TABLE
  2
UCS
  5
6
330
0
100
AcDbSymbolTable
 70
0
  0
ENDTAB
  0
TABLE
  2
APPID
  5
3
330
0
100
AcDbSymbolTable
 70
3
  0
APPID
  5
2A
330
3
100
AcDbSymbolTableRecord
100
AcDbRegAppTableRecord
  2
ACAD
 70
0
  0
APPID
  5
77
330
3
100
AcDbSymbolTableRecord
100
AcDbRegAppTableRecord
  2
HATCHBACKGROUNDCOLOR
 70
0
  0
APPID
  5
78
330
3
100
AcDbSymbolTableRecord
100
AcDbRegAppTableRecord
  2
EZDXF
 70
0
  0
ENDTAB
  0
TABLE
  2
DIMSTYLE
  5
4
330
0
100
AcDbSymbolTable
 70
1
100
AcDbDimStyleTable
  0
DIMSTYLE
105
2B
330
4
100
AcDbSymbolTableRecord
100
AcDbDimStyleTableRecord
  2
Standard
 70
0
 40
1.0
 41
2.5
 42
0.625
 43
3.75
 44
1.25
 45
0.0
 46
0.0
 47
0.0
 48
0.0
 49
2.5
140
2.5
141
2.5
142
0.0
143
0.03937007874
144
1.0
145
0.0
146
1.0
147
0.625
148
0.0
 69
0
 70
0
 71
0
 72
0
 73
0
 74
0
 75
0
 76
0
 77
1
 78
8
 79
3
170
0
171
3
172
1
173
0
174
0
175
0
176
0
177
0
178
0
179
2
271
2
272
2
273
2
274
3
275
0
276
0
277
2
278
44
279
0
280
0
281
0
282
0
283
0
284
8
285
0
286
0
288
0
289
3
290
0
371
-2
372
-2
  0
ENDTAB
  0
TABLE
  2
BLOCK_RECORD
  5
9
330
0
100
AcDbSymbolTable
 70
2
  0
BLOCK_RECORD
  5
17
330
9
100
AcDbSymbolTableRecord
100
AcDbBlockTableRecord
  2
*Model_Space
340
1A
 70
0
280
1
281
0
  0
BLOCK_RECORD
  5
1B
330
9
100
AcDbSymbolTableRecord
100
AcDbBlockTableRecord
  2
*Paper_Space
340
1E
 70
0
280
1
281
0
  0
ENDTAB
  0
ENDSEC
  0
SECTION
  2
BLOCKS
  0
BLOCK
  5
18
330
17
100
AcDbEntity
  8
0
100
AcDbBlockBegin
  2
*Model_Space
 70
0
 10
0.0
 20
0.0
 30
0.0
  3
*Model_Space
  1

  0
ENDBLK
  5
19
330
17
100
AcDbEntity
  8
0
100
AcDbBlockEnd
  0
BLOCK
  5
1C
330
1B
100
AcDbEntity
  8
0
100
AcDbBlockBegin
  2
*Paper_Space
 70
0
 10
0.0
 20
0.0
 30
0.0
  3
*Paper_Space
  1

  0
ENDBLK
  5
1D
330
1B
100
AcDbEntity
  8
0
100
AcDbBlockEnd
  0
ENDSEC
  0
SECTION
  2
ENTITIES
  0
SPLINE
  5
30
330
17
100
AcDbEntity
  8
CUT
100
AcDbSpline
 70
0
 71
3
 72
125
 73
121
 74
0
 40
0.0
 40
0.0
 40
0.0
 40
0.0
 40
0.0005266961194929095
 40
0.0005266961194929095
 40
0.0005266961194929095
 40
0.0035251994891310813
 40
0.0035251994891310813
 40
0.0035251994891310813
 40
0.006523702858769253
 40
0.006523702858769253
 40
0.006523702858769253
 40
0.014283897337597239
 40
0.014283897337597239
 40
0.014283897337597239
 40
0.026623476951258065
 40
0.026623476951258065
 40
0.026623476951258065
 40
0.0591607019669331
 40
0.0591607019669331
 40
0.0591607019669331
 40
0.11754254063090594
 40
0.11754254063090594
 40
0.11754254063090594
 40
0.18041838716001005
 40
0.18041838716001005
 40
0.18041838716001005
 40
0.2455418086944365
 40
0.2455418086944365
 40
0.2455418086944365
 40
0.2702455613449602
 40
0.2702455613449602
 40
0.2702455613449602
 40
0.30168551136824334
 40
0.30168551136824334
 40
0.30168551136824334
 40
0.36791855320931083
 40
0.36791855320931083
 40
0.36791855320931083
 40
0.49249890328098417
 40
0.49249890328098417
 40
0.49249890328098417
 40
0.5183119105552507
 40
0.5183119105552507
 40
0.5183119105552507
 40
0.5351398744622989
 40
0.5351398744622989
 40
0.5351398744622989
 40
0.5474789057736386
 40
0.5474789057736386
 40
0.5474789057736386
 40
0.5534995383768162
 40
0.5534995383768162
 40
0.5534995383768162
 40
0.559520170979994
 40
0.559520170979994
 40
0.559520170979994
 40
0.5604986128218479
 40
0.5604986128218479
 40
0.5604986128218479
 40
0.5614770546637019
 40
0.5614770546637019
 40
0.5614770546637019
 40
0.5615987237990321
 40
0.5615987237990321
 40
0.5615987237990321
 40
0.5629050959383787
 40
0.5629050959383787
 40
0.5629050959383787
 40
0.5642114680777253
 40
0.5642114680777253
 40
0.5642114680777253
 40
0.5668242123564184
 40
0.5668242123564184
 40
0.5668242123564184
 40
0.5721496806899503
 40
0.5721496806899503
 40
0.5721496806899503
 40
0.580875584663547
 40
0.580875584663547
 40
0.580875584663547
 40
0.6123483343920122
 40
0.6123483343920122
 40
0.6123483343920122
 40
0.6735472353097475
 40
0.6735472353097475
 40
0.6735472353097475
 40
0.7102663841917863
 40
0.7102663841917863
 40
0.7102663841917863
 40
0.74436674894201
 40
0.74436674894201
 40
0.74436674894201
 40
0.7767242811022331
 40
0.7767242811022331
 40
0.7767242811022331
 40
0.80908816765083
 40
0.80908816765083
 40
0.80908816765083
 40
0.8362042590465225
 40
0.8362042590465225
 40
0.8362042590465225
 40
0.8746886189284685
 40
0.8746886189284685
 40
0.8746886189284685
 40
0.9035525545900717
 40
0.9035525545900717
 40
0.9035525545900717
 40
0.935915077729418
 40
0.935915077729418
 40
0.935915077729418
 40
0.9700264298466855
 40
0.9700264298466855
 40
0.9700264298466855
 40
0.9822715623659398
 40
0.9822715623659398
 40
0.9822715623659398
 40
0.9910182339304034
 40
0.9910182339304034
 40
0.9910182339304034
 40
1.0
 40
1.0
 40
1.0
 40
1.0
 10
18.352941176470626
 20
39.99999999999999
 30
0.0
 10
18.344941036597607
 20
39.9996296442518
 30
0.0
 10
18.345181991741033
 20
39.99916980127343
 30
0.0
 10
18.353664041900903
 20
39.99862047106482
 30
0.0
 10
18.397424126668707
 20
39.99619285898276
 30
0.0
 10
18.461701380944987
 20
39.994053290503615
 30
0.0
 10
18.506769490647578
 20
39.9887083560351
 30
0.0
 10
18.553285935662696
 20
39.98329324165317
 30
0.0
 10
18.592261984763752
 20
39.97532462245296
 30
0.0
 10
18.623697637950716
 20
39.96480249843443
 30
0.0
 10
18.71249073169806
 20
39.938650127867106
 30
0.0
 10
18.830559809743907
 20
39.91091724610156
 30
0.0
 10
18.940596725380228
 20
39.878492010020445
 30
0.0
 10
19.117547117689416
 20
39.82693136552032
 30
0.0
 10
19.27507085924808
 20
39.75829304847045
 30
0.0
 10
19.431802229211446
 20
39.68012289541141
 30
0.0
 10
19.84971665375042
 20
39.475207505160796
 30
0.0
 10
20.23454633720354
 20
39.20038403418978
 30
0.0
 10
20.55665289075386
 20
38.8671110255387
 30
0.0
 10
21.140900436423134
 20
38.27231868547198
 30
0.0
 10
21.522309701674917
 20
37.47723607352455
 30
0.0
 10
21.59563515311837
 20
36.64462322693465
 30
0.0
 10
21.6803637029119
 20
35.74818059134192
 30
0.0
 10
21.416275154951876
 20
34.832381469922744
 30
0.0
 10
20.89995232250033
 20
34.09847181370467
 30
0.0
 10
20.369003830672778
 20
33.33638268351477
 30
0.0
 10
19.561036207384564
 20
32.75894583751542
 30
0.0
 10
18.649734844172798
 20
32.55575792633641
 30
0.0
 10
18.3026789794047
 20
32.47814940402958
 30
0.0
 10
17.951929066599494
 20
32.45357668560838
 30
0.0
 10
17.597485105757123
 20
32.48203977107267
 30
0.0
 10
17.14917295618527
 20
32.51741545763491
 30
0.0
 10
16.710357449828624
 20
32.63777078695155
 30
0.0
 10
16.29887000208099
 20
32.81666411249525
 30
0.0
 10
15.428670408382198
 20
33.196757256178884
 30
0.0
 10
14.687660202090779
 20
33.81234696286244
 30
0.0
 10
14.018505857809187
 20
34.474727776879035
 30
0.0
 10
12.758446176388103
 20
35.73037602830583
 30
0.0
 10
11.718921194474548
 20
37.18674907503035
 30
0.0
 10
10.450695918305778
 20
38.43470012022873
 30
0.0
 10
10.1883954284359
 20
38.693899987096835
 30
0.0
 10
9.913232119214511
 20
38.938421452771365
 30
0.0
 10
9.625205990641662
 20
39.16826451725243
 30
0.0
 10
9.437220575093853
 20
39.31784031337659
 30
0.0
 10
9.240514666538672
 20
39.45612689731432
 30
0.0
 10
9.035088264976125
 20
39.58312426906562
 30
0.0
 10
8.883598662448772
 20
39.6752772337566
 30
0.0
 10
8.734886788701917
 20
39.760492114821
 30
0.0
 10
8.572708989729097
 20
39.83235175670921
 30
0.0
 10
8.492647745655827
 20
39.86764581791646
 30
0.0
 10
8.40113294951671
 20
39.90137767027314
 30
0.0
 10
8.317864016695374
 20
39.92823503053942
 30
0.0
 10
8.230581158143755
 20
39.95488681988968
 30
0.0
 10
8.17599717590066
 20
39.98204777194456
 30
0.0
 10
8.072688117329342
 20
39.993391590593596
 30
0.0
 10
8.057829908146052
 20
39.99497402442144
 30
0.0
 10
8.044375545780092
 20
39.99610062842923
 30
0.0
 10
8.03232503023146
 20
39.996771402616844
 30
0.0
 10
8.019408113932602
 20
39.99761211052735
 30
0.0
 10
8.001775675097711
 20
39.99863832687512
 30
0.0
 10
8.000043867979182
 20
39.99990504868179
 30
0.0
 10
8.000241276516853
 20
40.00005885705259
 30
0.0
 10
8.000438685054528
 20
40.00021266542336
 30
0.0
 10
8.000636093592203
 20
40.000366473794166
 30
0.0
 10
8.00682648595315
 20
40.00192628967912
 30
0.0
 10
8.033107511956969
 20
40.00298103399394
 30
0.0
 10
8.056053835055419
 20
40.00505223993079
 30
0.0
 10
8.080130457900045
 20
40.007098400735174
 30
0.0
 10
8.10180978649365
 20
40.00986373292609
 30
0.0
 10
8.121091820836208
 20
40.013348236503454
 30
0.0
 10
8.160104339300332
 20
40.020547534524994
 30
0.0
 10
8.184602596050011
 20
40.0282691085348
 30
0.0
 10
8.222747503070003
 20
40.04068406373291
 30
0.0
 10
8.303661897299744
 20
40.066765419410736
 30
0.0
 10
8.403750877907736
 20
40.098874689531094
 30
0.0
 10
8.49595992897301
 20
40.135519607098644
 30
0.0
 10
8.645123093345193
 20
40.19706645819436
 30
0.0
 10
8.787834574253608
 20
40.2687134140795
 30
0.0
 10
8.924094371698239
 20
40.35046047475396
 30
0.0
 10
9.424625497179232
 20
40.64125285516894
 30
0.0
 10
9.869049070907899
 20
41.01403338620389
 30
0.0
 10
10.288203353448235
 20
41.40881473954035
 30
0.0
 10
11.101501285475655
 20
42.18165586402019
 30
0.0
 10
11.814476335567624
 20
43.050182749340166
 30
0.0
 10
12.543179536767312
 20
43.90081418917045
 30
0.0
 10
12.980181169502481
 20
44.41178668986833
 30
0.0
 10
13.421661986105924
 20
44.9197518954205
 30
0.0
 10
13.89326564154906
 20
45.399455212878536
 30
0.0
 10
14.331243404785326
 20
45.84413394484557
 30
0.0
 10
14.795862911819766
 20
46.265924916275196
 30
0.0
 10
15.308933238019982
 20
46.62329298774447
 30
0.0
 10
15.794778529243436
 20
46.961407129429425
 30
0.0
 10
16.32829187329121
 20
47.2407082396296
 30
0.0
 10
16.90198014424293
 20
47.39590146928506
 30
0.0
 10
17.473944930985148
 20
47.55257595032699
 30
0.0
 10
18.085028526319405
 20
47.57559623375227
 30
0.0
 10
18.66402993131658
 20
47.440991089243944
 30
0.0
 10
19.14909872147013
 20
47.32990307425867
 30
0.0
 10
19.60829411017759
 20
47.113330992563185
 30
0.0
 10
20.008100755213565
 20
46.81798284238285
 30
0.0
 10
20.576288017976008
 20
46.39901501132811
 30
0.0
 10
21.027156652614227
 20
45.82428979105025
 30
0.0
 10
21.303447847360506
 20
45.17500661791514
 30
0.0
 10
21.510995406163495
 20
44.688312373652195
 30
0.0
 10
21.619430405597544
 20
44.15846784761197
 30
0.0
 10
21.610436443536102
 20
43.62895364739956
 30
0.0
 10
21.60183818477674
 20
43.03535664765541
 30
0.0
 10
21.441971000050184
 20
42.445126027654695
 30
0.0
 10
21.15138096140025
 20
41.92768491368015
 30
0.0
 10
20.84619412856881
 20
41.38119207938425
 30
0.0
 10
20.401355705287333
 20
40.91673247380233
 30
0.0
 10
19.879071782530573
 20
40.5741764111618
 30
0.0
 10
19.69115074440662
 20
40.4507185995344
 30
0.0
 10
19.494303133487673
 20
40.34367976793172
 30
0.0
 10
19.288528949773735
 20
40.253059916353955
 30
0.0
 10
19.141698289172954
 20
40.18827817474652
 30
0.0
 10
18.99122782698767
 20
40.13368913825947
 30
0.0
 10
18.837117563217852
 20
40.08929280689283
 30
0.0
 10
18.678965043049207
 20
40.045358328545554
 30
0.0
 10
18.51747234565706
 20
40.007137012596694
 30
0.0
 10
18.352941176470623
 20
40.0
 30
0.0
  0
SPLINE
  5
31
330
17
100
AcDbEntity
  8
CUT
100
AcDbSpline
 70
0
 71
3
 72
125
 73
121
 74
0
 40
0.0
 40
0.0
 40
0.0
 40
0.0
 40
0.0005266961193582899
 40
0.0005266961193582899
 40
0.0005266961193582899
 40
0.003525199488355367
 40
0.003525199488355367
 40
0.003525199488355367
 40
0.006523702857352444
 40
0.006523702857352444
 40
0.006523702857352444
 40
0.014283897334254114
 40
0.014283897334254114
 40
0.014283897334254114
 40
0.026623476944815108
 40
0.026623476944815108
 40
0.026623476944815108
 40
0.05916070195203321
 40
0.05916070195203321
 40
0.05916070195203321
 40
0.11754254060678739
 40
0.11754254060678739
 40
0.11754254060678739
 40
0.18041838713193178
 40
0.18041838713193178
 40
0.18041838713193178
 40
0.24554180866207767
 40
0.24554180866207767
 40
0.24554180866207767
 40
0.2702455613106702
 40
0.2702455613106702
 40
0.2702455613106702
 40
0.30168551133413707
 40
0.30168551133413707
 40
0.30168551133413707
 40
0.3679185531805545
 40
0.3679185531805545
 40
0.3679185531805545
 40
0.4924989032610213
 40
0.4924989032610213
 40
0.4924989032610213
 40
0.5183119105368781
 40
0.5183119105368781
 40
0.5183119105368781
 40
0.5351398744448957
 40
0.5351398744448957
 40
0.5351398744448957
 40
0.5474789057569329
 40
0.5474789057569329
 40
0.5474789057569329
 40
0.5534995383603354
 40
0.5534995383603354
 40
0.5534995383603354
 40
0.5595201709637377
 40
0.5595201709637377
 40
0.5595201709637377
 40
0.5604986128056395
 40
0.5604986128056395
 40
0.5604986128056395
 40
0.5614770546475412
 40
0.5614770546475412
 40
0.5614770546475412
 40
0.5615987237828806
 40
0.5615987237828806
 40
0.5615987237828806
 40
0.5629050959222882
 40
0.5629050959222882
 40
0.5629050959222882
 40
0.5642114680616959
 40
0.5642114680616959
 40
0.5642114680616959
 40
0.5668242123405112
 40
0.5668242123405112
 40
0.5668242123405112
 40
0.5721496806742791
 40
0.5721496806742791
 40
0.5721496806742791
 40
0.5808755846482555
 40
0.5808755846482555
 40
0.5808755846482555
 40
0.6123483343785513
 40
0.6123483343785513
 40
0.6123483343785513
 40
0.673547235301582
 40
0.673547235301582
 40
0.673547235301582
 40
0.7102663841868956
 40
0.7102663841868956
 40
0.7102663841868956
 40
0.7443667489399725
 40
0.7443667489399725
 40
0.7443667489399725
 40
0.7767242811005904
 40
0.7767242811005904
 40
0.7767242811005904
 40
0.8090881676492875
 40
0.8090881676492875
 40
0.8090881676492875
 40
0.8362042590452132
 40
0.8362042590452132
 40
0.8362042590452132
 40
0.8746886189275263
 40
0.8746886189275263
 40
0.8746886189275263
 40
0.9035525545893806
 40
0.9035525545893806
 40
0.9035525545893806
 40
0.9359150777290017
 40
0.9359150777290017
 40
0.9359150777290017
 40
0.9700264298465037
 40
0.9700264298465037
 40
0.9700264298465037
 40
0.9822715623658396
 40
0.9822715623658396
 40
0.9822715623658396
 40
0.991018233930359
 40
0.991018233930359
 40
0.991018233930359
 40
1.0
 40
1.0
 40
1.0
 40
1.0
 10
18.352941176470626
 20
108.0
 30
0.0
 10
18.344941036597795
 20
107.99962964425175
 30
0.0
 10
18.345181991741242
 20
107.99916980127344
 30
0.0
 10
18.353664041900906
 20
107.99862047106478
 30
0.0
 10
18.397424126668614
 20
107.99619285898272
 30
0.0
 10
18.46170138094506
 20
107.99405329050359
 30
0.0
 10
18.506769490647606
 20
107.98870835603506
 30
0.0
 10
18.55328593566267
 20
107.98329324165314
 30
0.0
 10
18.592261984763702
 20
107.97532462245296
 30
0.0
 10
18.62369763795069
 20
107.9648024984344
 30
0.0
 10
18.712490731698082
 20
107.93865012786723
 30
0.0
 10
18.83055980974389
 20
107.91091724610153
 30
0.0
 10
18.94059672538022
 20
107.87849201002044
 30
0.0
 10
19.117547117689412
 20
107.82693136552025
 30
0.0
 10
19.27507085924808
 20
107.75829304847048
 30
0.0
 10
19.43180222921144
 20
107.6801228954114
 30
0.0
 10
19.849716653731427
 20
107.47520750517002
 30
0.0
 10
20.23454633718432
 20
107.20038403420827
 30
0.0
 10
20.556652890753863
 20
106.86711102553868
 30
0.0
 10
21.14090043653484
 20
106.27231868533059
 30
0.0
 10
21.522309701664327
 20
105.47723607346522
 30
0.0
 10
21.595635153118362
 20
104.64462322693467
 30
0.0
 10
21.68036370291054
 20
103.74818059132593
 30
0.0
 10
21.41627515494959
 20
102.83238146992261
 30
0.0
 10
20.899952322500322
 20
102.09847181370466
 30
0.0
 10
20.36900383068208
 20
101.33638268352702
 30
0.0
 10
19.561036207395308
 20
100.75894583751726
 30
0.0
 10
18.649734844172787
 20
100.55575792633641
 30
0.0
 10
18.302678979404806
 20
100.47814940402962
 30
0.0
 10
17.951929066599572
 20
100.4535766856084
 30
0.0
 10
17.597485105757126
 20
100.48203977107262
 30
0.0
 10
17.149172956155258
 20
100.51741545763907
 30
0.0
 10
16.710357449813134
 20
100.63777078695888
 30
0.0
 10
16.298870002080996
 20
100.81666411249529
 30
0.0
 10
15.42867040833741
 20
101.19675725620219
 30
0.0
 10
14.687660202072255
 20
101.81234696288531
 30
0.0
 10
14.018505857809215
 20
102.47472777687898
 30
0.0
 10
12.758446176408274
 20
103.73037602828308
 30
0.0
 10
11.718921194468072
 20
105.18674907503731
 30
0.0
 10
10.450695918305794
 20
106.43470012022871
 30
0.0
 10
10.188395428436811
 20
106.6938999870961
 30
0.0
 10
9.913232119215435
 20
106.93842145277054
 30
0.0
 10
9.625205990641682
 20
107.16826451725247
 30
0.0
 10
9.437220575094015
 20
107.31784031337648
 30
0.0
 10
9.240514666538827
 20
107.4561268973142
 30
0.0
 10
9.035088264976139
 20
107.58312426906562
 30
0.0
 10
8.883598662448787
 20
107.67527723375656
 30
0.0
 10
8.734886788701939
 20
107.76049211482103
 30
0.0
 10
8.572708989729119
 20
107.83235175670919
 30
0.0
 10
8.492647745655958
 20
107.86764581791643
 30
0.0
 10
8.401132949516649
 20
107.90137767027312
 30
0.0
 10
8.3178640166954
 20
107.92823503053947
 30
0.0
 10
8.230581158143776
 20
107.95488681988971
 30
0.0
 10
8.175997175900628
 20
107.98204777194448
 30
0.0
 10
8.07268811732936
 20
107.99339159059356
 30
0.0
 10
8.057829908146086
 20
107.99497402442141
 30
0.0
 10
8.044375545780133
 20
107.99610062842926
 30
0.0
 10
8.03232503023148
 20
107.99677140261689
 30
0.0
 10
8.019408113932627
 20
107.99761211052733
 30
0.0
 10
8.00177567509773
 20
107.9986383268752
 30
0.0
 10
8.000043867979183
 20
107.99990504868184
 30
0.0
 10
8.000241276516851
 20
108.00005885705258
 30
0.0
 10
8.000438685054524
 20
108.0002126654234
 30
0.0
 10
8.000636093592195
 20
108.00036647379419
 30
0.0
 10
8.006826485953118
 20
108.00192628967918
 30
0.0
 10
8.033107511956961
 20
108.00298103399395
 30
0.0
 10
8.056053835055387
 20
108.00505223993082
 30
0.0
 10
8.080130457900001
 20
108.00709840073517
 30
0.0
 10
8.101809786493607
 20
108.00986373292616
 30
0.0
 10
8.121091820836185
 20
108.01334823650348
 30
0.0
 10
8.160104339300359
 20
108.020547534525
 30
0.0
 10
8.184602596049935
 20
108.0282691085348
 30
0.0
 10
8.222747503069977
 20
108.04068406373293
 30
0.0
 10
8.303661897299712
 20
108.06676541941079
 30
0.0
 10
8.4037508779077
 20
108.09887468953102
 30
0.0
 10
8.495959928972985
 20
108.13551960709863
 30
0.0
 10
8.64512309334518
 20
108.19706645819436
 30
0.0
 10
8.787834574253582
 20
108.26871341407944
 30
0.0
 10
8.92409437169822
 20
108.35046047475393
 30
0.0
 10
9.424625497187684
 20
108.64125285517419
 30
0.0
 10
9.869049070918042
 20
109.0140333862134
 30
0.0
 10
10.288203353448214
 20
109.4088147395403
 30
0.0
 10
11.101501285469148
 20
110.18165586401297
 30
0.0
 10
11.814476335571758
 20
111.05018274934488
 30
0.0
 10
12.54317953676729
 20
111.90081418917043
 30
0.0
 10
12.980181169502767
 20
112.41178668986863
 30
0.0
 10
13.421661986105992
 20
112.91975189542062
 30
0.0
 10
13.893265641549032
 20
113.39945521287852
 30
0.0
 10
14.331243404783006
 20
113.84413394484284
 30
0.0
 10
14.79586291181248
 20
114.26592491626953
 30
0.0
 10
15.308933238019963
 20
114.6232929877445
 30
0.0
 10
15.794778529225761
 20
114.96140712941825
 30
0.0
 10
16.328291873286606
 20
115.24070823962936
 30
0.0
 10
16.901980144242906
 20
115.39590146928508
 30
0.0
 10
17.47394493098591
 20
115.552575950327
 30
0.0
 10
18.085028526319043
 20
115.57559623375225
 30
0.0
 10
18.664029931316556
 20
115.44099108924394
 30
0.0
 10
19.149098721476708
 20
115.32990307425605
 30
0.0
 10
19.608294110173315
 20
115.11333099256517
 30
0.0
 10
20.008100755213537
 20
114.81798284238288
 30
0.0
 10
20.576288017976168
 20
114.399015011328
 30
0.0
 10
21.027156652614224
 20
113.82428979105019
 30
0.0
 10
21.3034478473605
 20
113.17500661791514
 30
0.0
 10
21.510995406163474
 20
112.68831237365214
 30
0.0
 10
21.619430405597523
 20
112.15846784761217
 30
0.0
 10
21.610436443536102
 20
111.62895364739961
 30
0.0
 10
21.601838184776764
 20
111.03535664765546
 30
0.0
 10
21.441971000050202
 20
110.44512602765475
 30
0.0
 10
21.151380961400264
 20
109.9276849136802
 30
0.0
 10
20.846194128568957
 20
109.3811920793845
 30
0.0
 10
20.401355705287376
 20
108.91673247380227
 30
0.0
 10
19.87907178253061
 20
108.57417641116184
 30
0.0
 10
19.691150744406652
 20
108.45071859953435
 30
0.0
 10
19.494303133487715
 20
108.34367976793183
 30
0.0
 10
19.28852894977376
 20
108.25305991635398
 30
0.0
 10
19.14169828917298
 20
108.18827817474651
 30
0.0
 10
18.991227826987693
 20
108.13368913825954
 30
0.0
 10
18.83711756321789
 20
108.08929280689287
 30
0.0
 10
18.678965043049224
 20
108.04535832854552
 30
0.0
 10
18.51747234565706
 20
108.00713701259669
 30
0.0
 10
18.352941176470626
 20
108.0
 30
0.0
  0
SPLINE
  5
32
330
17
100
AcDbEntity
  8
CUT
100
AcDbSpline
 70
0
 71
3
 72
125
 73
121
 74
0
 40
0.0
 40
0.0
 40
0.0
 40
0.0
 40
0.0005266961193406039
 40
0.0005266961193406039
 40
0.0005266961193406039
 40
0.003525199488172936
 40
0.003525199488172936
 40
0.003525199488172936
 40
0.006523702857005268
 40
0.006523702857005268
 40
0.006523702857005268
 40
0.014283897333507382
 40
0.014283897333507382
 40
0.014283897333507382
 40
0.026623476943311027
 40
0.026623476943311027
 40
0.026623476943311027
 40
0.05916070194926049
 40
0.05916070194926049
 40
0.05916070194926049
 40
0.11754254059908847
 40
0.11754254059908847
 40
0.11754254059908847
 40
0.18041838711452085
 40
0.18041838711452085
 40
0.18041838711452085
 40
0.2455418086398902
 40
0.2455418086398902
 40
0.2455418086398902
 40
0.27024556128732286
 40
0.27024556128732286
 40
0.27024556128732286
 40
0.3016855113096038
 40
0.3016855113096038
 40
0.3016855113096038
 40
0.3679185531612405
 40
0.3679185531612405
 40
0.3679185531612405
 40
0.492498903258674
 40
0.492498903258674
 40
0.492498903258674
 40
0.5183119105400066
 40
0.5183119105400066
 40
0.5183119105400066
 40
0.5351398744519974
 40
0.5351398744519974
 40
0.5351398744519974
 40
0.5474789057670393
 40
0.5474789057670393
 40
0.5474789057670393
 40
0.5534995383719379
 40
0.5534995383719379
 40
0.5534995383719379
 40
0.5595201709768364
 40
0.5595201709768364
 40
0.5595201709768364
 40
0.5604986128189754
 40
0.5604986128189754
 40
0.5604986128189754
 40
0.5614770546611144
 40
0.5614770546611144
 40
0.5614770546611144
 40
0.5615987237964999
 40
0.5615987237964999
 40
0.5615987237964999
 40
0.5629050959359101
 40
0.5629050959359101
 40
0.5629050959359101
 40
0.5642114680753203
 40
0.5642114680753203
 40
0.5642114680753203
 40
0.5668242123541406
 40
0.5668242123541406
 40
0.5668242123541406
 40
0.5721496806877786
 40
0.5721496806877786
 40
0.5721496806877786
 40
0.5808755846615319
 40
0.5808755846615319
 40
0.5808755846615319
 40
0.6123483343899581
 40
0.6123483343899581
 40
0.6123483343899581
 40
0.6735472353063787
 40
0.6735472353063787
 40
0.6735472353063787
 40
0.7102663841876391
 40
0.7102663841876391
 40
0.7102663841876391
 40
0.7443667489372795
 40
0.7443667489372795
 40
0.7443667489372795
 40
0.7767242810979674
 40
0.7767242810979674
 40
0.7767242810979674
 40
0.8090881676472423
 40
0.8090881676472423
 40
0.8090881676472423
 40
0.8362042590434982
 40
0.8362042590434982
 40
0.8362042590434982
 40
0.8746886189261933
 40
0.8746886189261933
 40
0.8746886189261933
 40
0.9035525545883832
 40
0.9035525545883832
 40
0.9035525545883832
 40
0.9359150777283428
 40
0.9359150777283428
 40
0.9359150777283428
 40
0.9700264298461801
 40
0.9700264298461801
 40
0.9700264298461801
 40
0.9822715623656387
 40
0.9822715623656387
 40
0.9822715623656387
 40
0.9910182339302384
 40
0.9910182339302384
 40
0.9910182339302384
 40
1.0
 40
1.0
 40
1.0
 40
1.0
 10
18.352941176470626
 20
176.0
 30
0.0
 10
18.344941036597714
 20
175.99962964425183
 30
0.0
 10
18.345181991741136
 20
175.99916980127333
 30
0.0
 10
18.353664041900906
 20
175.9986204710648
 30
0.0
 10
18.397424126668636
 20
175.99619285898268
 30
0.0
 10
18.461701380945073
 20
175.9940532905036
 30
0.0
 10
18.506769490647635
 20
175.98870835603506
 30
0.0
 10
18.553285935662668
 20
175.9832932416531
 30
0.0
 10
18.59226198476369
 20
175.97532462245306
 30
0.0
 10
18.62369763795071
 20
175.96480249843444
 30
0.0
 10
18.712490731698047
 20
175.93865012786708
 30
0.0
 10
18.830559809743903
 20
175.91091724610158
 30
0.0
 10
18.94059672538023
 20
175.8784920100204
 30
0.0
 10
19.11754711768938
 20
175.82693136552035
 30
0.0
 10
19.275070859248114
 20
175.75829304847048
 30
0.0
 10
19.43180222921145
 20
175.68012289541144
 30
0.0
 10
19.849716653747414
 20
175.47520750516244
 30
0.0
 10
20.23454633720443
 20
175.20038403418937
 30
0.0
 10
20.556652890753867
 20
174.86711102553866
 30
0.0
 10
21.140900436451897
 20
174.27231868543467
 30
0.0
 10
21.522309701672448
 20
173.47723607350986
 30
0.0
 10
21.595635153118366
 20
172.64462322693467
 30
0.0
 10
21.680363702912576
 20
171.74818059134458
 30
0.0
 10
21.416275154949258
 20
170.83238146991513
 30
0.0
 10
20.89995232250031
 20
170.09847181370466
 30
0.0
 10
20.36900383063892
 20
169.336382683478
 30
0.0
 10
19.561036207371867
 20
168.7589458375175
 30
0.0
 10
18.64973484417278
 20
168.55575792633638
 30
0.0
 10
18.302678979404654
 20
168.47814940402958
 30
0.0
 10
17.951929066599423
 20
168.4535766856084
 30
0.0
 10
17.59748510575711
 20
168.4820397710726
 30
0.0
 10
17.149172956160992
 20
168.51741545763824
 30
0.0
 10
16.710357449815827
 20
168.6377707869576
 30
0.0
 10
16.29887000208098
 20
168.81666411249526
 30
0.0
 10
15.4286704081957
 20
169.1967572562843
 30
0.0
 10
14.687660202070349
 20
169.8123469629049
 30
0.0
 10
14.018505857809188
 20
170.474727776879
 30
0.0
 10
12.75844617639415
 20
171.7303760282991
 30
0.0
 10
11.71892119446429
 20
173.1867490750419
 30
0.0
 10
10.45069591830578
 20
174.43470012022874
 30
0.0
 10
10.188395428429782
 20
174.69389998710216
 30
0.0
 10
9.913232119208411
 20
174.93842145277685
 30
0.0
 10
9.625205990641664
 20
175.16826451725242
 30
0.0
 10
9.437220575094011
 20
175.31784031337648
 30
0.0
 10
9.240514666538834
 20
175.45612689731428
 30
0.0
 10
9.035088264976126
 20
175.5831242690656
 30
0.0
 10
8.883598662448776
 20
175.6752772337566
 30
0.0
 10
8.734886788701912
 20
175.76049211482098
 30
0.0
 10
8.572708989729101
 20
175.83235175670916
 30
0.0
 10
8.492647745655882
 20
175.86764581791644
 30
0.0
 10
8.40113294951664
 20
175.90137767027312
 30
0.0
 10
8.31786401669538
 20
175.92823503053947
 30
0.0
 10
8.230581158143723
 20
175.95488681988968
 30
0.0
 10
8.175997175900665
 20
175.98204777194454
 30
0.0
 10
8.07268811732933
 20
175.99339159059355
 30
0.0
 10
8.057829908146056
 20
175.99497402442134
 30
0.0
 10
8.04437554578011
 20
175.99610062842928
 30
0.0
 10
8.032325030231462
 20
175.9967714026168
 30
0.0
 10
8.019408113932611
 20
175.99761211052729
 30
0.0
 10
8.001775675097713
 20
175.99863832687498
 30
0.0
 10
8.000043867979183
 20
175.9999050486818
 30
0.0
 10
8.000241276516856
 20
176.00005885705258
 30
0.0
 10
8.000438685054528
 20
176.00021266542336
 30
0.0
 10
8.000636093592204
 20
176.00036647379417
 30
0.0
 10
8.006826485953125
 20
176.00192628967912
 30
0.0
 10
8.033107511957056
 20
176.00298103399405
 30
0.0
 10
8.056053835055428
 20
176.00505223993085
 30
0.0
 10
8.080130457899989
 20
176.00709840073503
 30
0.0
 10
8.101809786493588
 20
176.0098637329261
 30
0.0
 10
8.121091820836197
 20
176.01334823650365
 30
0.0
 10
8.160104339300771
 20
176.0205475345249
 30
0.0
 10
8.184602596049546
 20
176.0282691085348
 30
0.0
 10
8.222747503070005
 20
176.04068406373293
 30
0.0
 10
8.303661897299724
 20
176.06676541941087
 30
0.0
 10
8.403750877907715
 20
176.09887468953104
 30
0.0
 10
8.495959928973006
 20
176.1355196070987
 30
0.0
 10
8.645123093345195
 20
176.19706645819429
 30
0.0
 10
8.787834574253608
 20
176.2687134140795
 30
0.0
 10
8.924094371698239
 20
176.350460474754
 30
0.0
 10
9.424625497172658
 20
176.64125285516522
 30
0.0
 10
9.86904907089525
 20
177.01403338619238
 30
0.0
 10
10.288203353448232
 20
177.40881473954025
 30
0.0
 10
11.101501285470292
 20
178.18165586401452
 30
0.0
 10
11.814476335566813
 20
179.05018274933903
 30
0.0
 10
12.543179536767303
 20
179.9008141891704
 30
0.0
 10
12.980181169502975
 20
180.411786689869
 30
0.0
 10
13.421661986105931
 20
180.91975189542063
 30
0.0
 10
13.893265641549057
 20
181.39945521287848
 30
0.0
 10
14.331243404787122
 20
181.84413394484747
 30
0.0
 10
14.795862911825264
 20
182.2659249162795
 30
0.0
 10
15.308933238019982
 20
182.62329298774446
 30
0.0
 10
15.7947785292497
 20
182.96140712943333
 30
0.0
 10
16.328291873292766
 20
183.24070823962975
 30
0.0
 10
16.901980144242927
 20
183.39590146928504
 30
0.0
 10
17.47394493098805
 20
183.5525759503273
 30
0.0
 10
18.085028526319007
 20
183.5755962337521
 30
0.0
 10
18.66402993131657
 20
183.4409910892439
 30
0.0
 10
19.1490987214709
 20
183.3299030742579
 30
0.0
 10
19.608294110174473
 20
183.1133309925651
 30
0.0
 10
20.00810075521356
 20
182.8179828423829
 30
0.0
 10
20.57628801797385
 20
182.39901501132988
 30
0.0
 10
21.027156652614025
 20
181.82428979105117
 30
0.0
 10
21.3034478473605
 20
181.1750066179152
 30
0.0
 10
21.510995406163445
 20
180.68831237365265
 30
0.0
 10
21.6194304055975
 20
180.158467847612
 30
0.0
 10
21.610436443536102
 20
179.62895364739964
 30
0.0
 10
21.601838184776753
 20
179.0353566476556
 30
0.0
 10
21.441971000050422
 20
178.4451260276553
 30
0.0
 10
21.15138096140025
 20
177.92768491368014
 30
0.0
 10
20.84619412856911
 20
177.38119207938487
 30
0.0
 10
20.40135570528733
 20
176.91673247380209
 30
0.0
 10
19.879071782530573
 20
176.57417641116183
 30
0.0
 10
19.691150744406624
 20
176.4507185995344
 30
0.0
 10
19.494303133487673
 20
176.34367976793175
 30
0.0
 10
19.288528949773735
 20
176.253059916354
 30
0.0
 10
19.141698289172954
 20
176.1882781747465
 30
0.0
 10
18.99122782698766
 20
176.13368913825957
 30
0.0
 10
18.837117563217856
 20
176.0892928068928
 30
0.0
 10
18.6789650430492
 20
176.04535832854552
 30
0.0
 10
18.517472345657083
 20
176.0071370125967
 30
0.0
 10
18.352941176470626
 20
175.99999999999997
 30
0.0
  0
SPLINE
  5
33
330
17
100
AcDbEntity
  8
CUT
100
AcDbSpline
 70
0
 71
3
 72
125
 73
121
 74
0
 40
0.0
 40
0.0
 40
0.0
 40
0.0
 40
0.0005266961196635335
 40
0.0005266961196635335
 40
0.0005266961196635335
 40
0.003525199490266931
 40
0.003525199490266931
 40
0.003525199490266931
 40
0.006523702860870328
 40
0.006523702860870328
 40
0.006523702860870328
 40
0.014283897341753435
 40
0.014283897341753435
 40
0.014283897341753435
 40
0.02662347695836432
 40
0.02662347695836432
 40
0.02662347695836432
 40
0.059160701982035185
 40
0.059160701982035185
 40
0.059160701982035185
 40
0.1175425406545088
 40
0.1175425406545088
 40
0.1175425406545088
 40
0.18041838719199846
 40
0.18041838719199846
 40
0.18041838719199846
 40
0.24554180873671563
 40
0.24554180873671563
 40
0.24554180873671563
 40
0.27024556139103434
 40
0.27024556139103434
 40
0.27024556139103434
 40
0.3016855114168165
 40
0.3016855114168165
 40
0.3016855114168165
 40
0.3679185532725878
 40
0.3679185532725878
 40
0.3679185532725878
 40
0.49249890338071045
 40
0.49249890338071045
 40
0.49249890338071045
 40
0.5183119106634998
 40
0.5183119106634998
 40
0.5183119106634998
 40
0.5351398745763335
 40
0.5351398745763335
 40
0.5351398745763335
 40
0.5474789058918336
 40
0.5474789058918336
 40
0.5474789058918336
 40
0.5534995384970509
 40
0.5534995384970509
 40
0.5534995384970509
 40
0.5595201711022684
 40
0.5595201711022684
 40
0.5595201711022684
 40
0.5604986129444619
 40
0.5604986129444619
 40
0.5604986129444619
 40
0.5614770547866554
 40
0.5614770547866554
 40
0.5614770547866554
 40
0.5615987239220719
 40
0.5615987239220719
 40
0.5615987239220719
 40
0.5629050960610592
 40
0.5629050960610592
 40
0.5629050960610592
 40
0.5642114682000465
 40
0.5642114682000465
 40
0.5642114682000465
 40
0.5668242124780212
 40
0.5668242124780212
 40
0.5668242124780212
 40
0.5721496808100424
 40
0.5721496808100424
 40
0.5721496808100424
 40
0.5808755847811444
 40
0.5808755847811444
 40
0.5808755847811444
 40
0.6123483345005523
 40
0.6123483345005523
 40
0.6123483345005523
 40
0.6735472354003423
 40
0.6735472354003423
 40
0.6735472354003423
 40
0.7102663842719468
 40
0.7102663842719468
 40
0.7102663842719468
 40
0.744366749012618
 40
0.744366749012618
 40
0.744366749012618
 40
0.7767242811639926
 40
0.7767242811639926
 40
0.7767242811639926
 40
0.8090881677036152
 40
0.8090881677036152
 40
0.8090881677036152
 40
0.8362042590917804
 40
0.8362042590917804
 40
0.8362042590917804
 40
0.874688618963013
 40
0.874688618963013
 40
0.874688618963013
 40
0.9035525546166028
 40
0.9035525546166028
 40
0.9035525546166028
 40
0.9359150777469929
 40
0.9359150777469929
 40
0.9359150777469929
 40
0.9700264298548847
 40
0.9700264298548847
 40
0.9700264298548847
 40
0.9822715623707734
 40
0.9822715623707734
 40
0.9822715623707734
 40
0.9910182339328348
 40
0.9910182339328348
 40
0.9910182339328348
 40
1.0
 40
1.0
 40
1.0
 40
1.0
 10
20.352941176470623
 20
73.99999999999999
 30
0.0
 10
20.344941036597444
 20
73.99962964425188
 30
0.0
 10
20.345181991740883
 20
73.9991698012735
 30
0.0
 10
20.353664041900885
 20
73.99862047106484
 30
0.0
 10
20.397424126668568
 20
73.99619285898281
 30
0.0
 10
20.461701380945104
 20
73.99405329050349
 30
0.0
 10
20.506769490647613
 20
73.9887083560351
 30
0.0
 10
20.553285935662675
 20
73.98329324165316
 30
0.0
 10
20.59226198476369
 20
73.97532462245296
 30
0.0
 10
20.62369763795069
 20
73.96480249843442
 30
0.0
 10
20.71249073169805
 20
73.93865012786702
 30
0.0
 10
20.83055980974391
 20
73.9109172461016
 30
0.0
 10
20.940596725380217
 20
73.87849201002044
 30
0.0
 10
21.11754711768932
 20
73.82693136552041
 30
0.0
 10
21.27507085924815
 20
73.75829304847039
 30
0.0
 10
21.431802229211428
 20
73.68012289541142
 30
0.0
 10
21.849716653727192
 20
73.4752075051731
 30
0.0
 10
22.234546337189027
 20
73.2003840342045
 30
0.0
 10
22.556652890753867
 20
72.86711102553868
 30
0.0
 10
23.14090043639695
 20
72.27231868550547
 30
0.0
 10
23.522309701677717
 20
71.47723607353733
 30
0.0
 10
23.59563515311837
 20
70.64462322693467
 30
0.0
 10
23.68036370291273
 20
69.74818059133439
 30
0.0
 10
23.41627515494605
 20
68.83238146991293
 30
0.0
 10
22.89995232250033
 20
68.09847181370465
 30
0.0
 10
22.36900383067018
 20
67.33638268351272
 30
0.0
 10
21.561036207382962
 20
66.7589458375145
 30
0.0
 10
20.649734844172787
 20
66.5557579263364
 30
0.0
 10
20.30267897940478
 20
66.47814940402964
 30
0.0
 10
19.951929066599558
 20
66.45357668560835
 30
0.0
 10
19.597485105757134
 20
66.48203977107265
 30
0.0
 10
19.149172956202708
 20
66.51741545763247
 30
0.0
 10
18.71035744983774
 20
66.63777078694724
 30
0.0
 10
18.298870002081
 20
66.81666411249526
 30
0.0
 10
17.428670408201423
 20
67.19675725628157
 30
0.0
 10
16.687660202074202
 20
67.81234696290058
 30
0.0
 10
16.01850585780921
 20
68.47472777687899
 30
0.0
 10
14.758446176384853
 20
69.73037602830945
 30
0.0
 10
13.718921194467539
 20
71.18674907503836
 30
0.0
 10
12.450695918305797
 20
72.43470012022871
 30
0.0
 10
12.188395428431573
 20
72.69389998710064
 30
0.0
 10
11.913232119210202
 20
72.93842145277522
 30
0.0
 10
11.625205990641682
 20
73.1682645172524
 30
0.0
 10
11.437220575094052
 20
73.31784031337646
 30
0.0
 10
11.24051466653887
 20
73.45612689731419
 30
0.0
 10
11.035088264976137
 20
73.5831242690656
 30
0.0
 10
10.883598662448794
 20
73.67527723375662
 30
0.0
 10
10.73488678870192
 20
73.76049211482099
 30
0.0
 10
10.57270898972912
 20
73.83235175670922
 30
0.0
 10
10.49264774565588
 20
73.86764581791644
 30
0.0
 10
10.401132949516716
 20
73.90137767027312
 30
0.0
 10
10.31786401669538
 20
73.92823503053947
 30
0.0
 10
10.230581158143895
 20
73.9548868198897
 30
0.0
 10
10.175997175900557
 20
73.98204777194451
 30
0.0
 10
10.072688117329355
 20
73.99339159059356
 30
0.0
 10
10.057829908146092
 20
73.99497402442147
 30
0.0
 10
10.044375545780138
 20
73.99610062842918
 30
0.0
 10
10.032325030231478
 20
73.99677140261683
 30
0.0
 10
10.01940811393263
 20
73.99761211052743
 30
0.0
 10
10.00177567509772
 20
73.99863832687508
 30
0.0
 10
10.000043867979189
 20
73.99990504868182
 30
0.0
 10
10.000241276516855
 20
74.00005885705262
 30
0.0
 10
10.000438685054531
 20
74.00021266542338
 30
0.0
 10
10.000636093592197
 20
74.00036647379417
 30
0.0
 10
10.006826485953127
 20
74.00192628967915
 30
0.0
 10
10.033107511956965
 20
74.00298103399398
 30
0.0
 10
10.05605383505539
 20
74.0050522399308
 30
0.0
 10
10.080130457900003
 20
74.00709840073519
 30
0.0
 10
10.10180978649361
 20
74.00986373292612
 30
0.0
 10
10.121091820836192
 20
74.01334823650346
 30
0.0
 10
10.160104339300466
 20
74.0205475345251
 30
0.0
 10
10.184602596049832
 20
74.02826910853477
 30
0.0
 10
10.222747503069977
 20
74.04068406373293
 30
0.0
 10
10.303661897299722
 20
74.06676541941067
 30
0.0
 10
10.403750877907703
 20
74.09887468953114
 30
0.0
 10
10.495959928972985
 20
74.13551960709864
 30
0.0
 10
10.645123093345168
 20
74.1970664581943
 30
0.0
 10
10.787834574253589
 20
74.26871341407949
 30
0.0
 10
10.924094371698224
 20
74.35046047475399
 30
0.0
 10
11.424625497179504
 20
74.64125285516938
 30
0.0
 10
11.869049070901726
 20
75.0140333861986
 30
0.0
 10
12.288203353448218
 20
75.40881473954033
 30
0.0
 10
13.101501285474562
 20
76.1816558640186
 30
0.0
 10
13.814476335573726
 20
77.0501827493475
 30
0.0
 10
14.543179536767287
 20
77.9008141891704
 30
0.0
 10
14.980181169501304
 20
78.41178668986696
 30
0.0
 10
15.421661986105363
 20
78.91975189541992
 30
0.0
 10
15.893265641549036
 20
79.39945521287851
 30
0.0
 10
16.331243404787504
 20
79.84413394484804
 30
0.0
 10
16.79586291182728
 20
80.26592491628101
 30
0.0
 10
17.308933238019954
 20
80.62329298774445
 30
0.0
 10
17.794778529244272
 20
80.96140712943003
 30
0.0
 10
18.32829187329156
 20
81.2407082396296
 30
0.0
 10
18.901980144242902
 20
81.39590146928504
 30
0.0
 10
19.473944930989198
 20
81.55257595032748
 30
0.0
 10
20.085028526317984
 20
81.57559623375202
 30
0.0
 10
20.664029931316552
 20
81.44099108924394
 30
0.0
 10
21.14909872146927
 20
81.32990307425892
 30
0.0
 10
21.6082941101774
 20
81.11333099256335
 30
0.0
 10
22.008100755213537
 20
80.81798284238285
 30
0.0
 10
22.57628801797432
 20
80.39901501132934
 30
0.0
 10
23.02715665261255
 20
79.82428979105346
 30
0.0
 10
23.303447847360506
 20
79.1750066179152
 30
0.0
 10
23.510995406163513
 20
78.68831237365222
 30
0.0
 10
23.61943040559754
 20
78.15846784761187
 30
0.0
 10
23.610436443536106
 20
77.6289536473996
 30
0.0
 10
23.60183818477656
 20
77.03535664765526
 30
0.0
 10
23.44197100005082
 20
76.44512602765616
 30
0.0
 10
23.151380961400257
 20
75.92768491368021
 30
0.0
 10
22.84619412856886
 20
75.38119207938425
 30
0.0
 10
22.40135570528735
 20
74.91673247380227
 30
0.0
 10
21.879071782530605
 20
74.57417641116187
 30
0.0
 10
21.691150744406652
 20
74.45071859953438
 30
0.0
 10
21.494303133487705
 20
74.34367976793179
 30
0.0
 10
21.28852894977376
 20
74.25305991635399
 30
0.0
 10
21.141698289172982
 20
74.18827817474653
 30
0.0
 10
20.991227826987693
 20
74.1336891382595
 30
0.0
 10
20.83711756321789
 20
74.08929280689286
 30
0.0
 10
20.678965043049235
 20
74.04535832854565
 30
0.0
 10
20.517472345657072
 20
74.00713701259662
 30
0.0
 10
20.352941176470626
 20
74.00000000000001
 30
0.0
  0
SPLINE
  5
34
330
17
100
AcDbEntity
  8
CUT
100
AcDbSpline
 70
0
 71
3
 72
125
 73
121
 74
0
 40
0.0
 40
0.0
 40
0.0
 40
0.0
 40
0.0005266961192873182
 40
0.0005266961192873182
 40
0.0005266961192873182
 40
0.003525199487841464
 40
0.003525199487841464
 40
0.003525199487841464
 40
0.00652370285639561
 40
0.00652370285639561
 40
0.00652370285639561
 40
0.014283897332091384
 40
0.014283897332091384
 40
0.014283897332091384
 40
0.02662347694097103
 40
0.02662347694097103
 40
0.02662347694097103
 40
0.059160701944150934
 40
0.059160701944150934
 40
0.059160701944150934
 40
0.11754254059316692
 40
0.11754254059316692
 40
0.11754254059316692
 40
0.18041838710872696
 40
0.18041838710872696
 40
0.18041838710872696
 40
0.24554180863229016
 40
0.24554180863229016
 40
0.24554180863229016
 40
0.2702455612790028
 40
0.2702455612790028
 40
0.2702455612790028
 40
0.3016855112966172
 40
0.3016855112966172
 40
0.3016855112966172
 40
0.3679185531357458
 40
0.3679185531357458
 40
0.3679185531357458
 40
0.49249890321158024
 40
0.49249890321158024
 40
0.49249890321158024
 40
0.5183119104886473
 40
0.5183119104886473
 40
0.5183119104886473
 40
0.5351398743979902
 40
0.5351398743979902
 40
0.5351398743979902
 40
0.5474789057110578
 40
0.5474789057110578
 40
0.5474789057110578
 40
0.5534995383150572
 40
0.5534995383150572
 40
0.5534995383150572
 40
0.5595201709190564
 40
0.5595201709190564
 40
0.5595201709190564
 40
0.5604986127610496
 40
0.5604986127610496
 40
0.5604986127610496
 40
0.5614770546030429
 40
0.5614770546030429
 40
0.5614770546030429
 40
0.5615987237384024
 40
0.5615987237384024
 40
0.5615987237384024
 40
0.5629050958778498
 40
0.5629050958778498
 40
0.5629050958778498
 40
0.5642114680172972
 40
0.5642114680172972
 40
0.5642114680172972
 40
0.5668242122961918
 40
0.5668242122961918
 40
0.5668242122961918
 40
0.5721496806300671
 40
0.5721496806300671
 40
0.5721496806300671
 40
0.5808755846041989
 40
0.5808755846041989
 40
0.5808755846041989
 40
0.6123483343348831
 40
0.6123483343348831
 40
0.6123483343348831
 40
0.673547235259586
 40
0.673547235259586
 40
0.673547235259586
 40
0.71026638414597
 40
0.71026638414597
 40
0.71026638414597
 40
0.7443667489003324
 40
0.7443667489003324
 40
0.7443667489003324
 40
0.776724281065701
 40
0.776724281065701
 40
0.776724281065701
 40
0.8090881676196109
 40
0.8090881676196109
 40
0.8090881676196109
 40
0.8362042590198371
 40
0.8362042590198371
 40
0.8362042590198371
 40
0.8746886189080763
 40
0.8746886189080763
 40
0.8746886189080763
 40
0.9035525545744086
 40
0.9035525545744086
 40
0.9035525545744086
 40
0.9359150777190024
 40
0.9359150777190024
 40
0.9359150777190024
 40
0.9700264298418189
 40
0.9700264298418189
 40
0.9700264298418189
 40
0.9822715623630645
 40
0.9822715623630645
 40
0.9822715623630645
 40
0.9910182339289453
 40
0.9910182339289453
 40
0.9910182339289453
 40
1.0
 40
1.0
 40
1.0
 40
1.0
 10
20.352941176470626
 20
142.0
 30
0.0
 10
20.344941036597593
 20
141.9996296442517
 30
0.0
 10
20.345181991741043
 20
141.9991698012734
 30
0.0
 10
20.353664041900906
 20
141.99862047106484
 30
0.0
 10
20.397424126668597
 20
141.9961928589826
 30
0.0
 10
20.46170138094513
 20
141.9940532905037
 30
0.0
 10
20.50676949064759
 20
141.98870835603506
 30
0.0
 10
20.55328593566269
 20
141.98329324165312
 30
0.0
 10
20.592261984763724
 20
141.97532462245297
 30
0.0
 10
20.623697637950713
 20
141.96480249843444
 30
0.0
 10
20.712490731698033
 20
141.9386501278672
 30
0.0
 10
20.83055980974391
 20
141.91091724610158
 30
0.0
 10
20.940596725380228
 20
141.87849201002035
 30
0.0
 10
21.117547117689462
 20
141.8269313655205
 30
0.0
 10
21.27507085924805
 20
141.75829304847042
 30
0.0
 10
21.43180222921145
 20
141.68012289541144
 30
0.0
 10
21.84971665375475
 20
141.47520750515903
 30
0.0
 10
22.234546337210226
 20
141.20038403418346
 30
0.0
 10
22.556652890753877
 20
140.8671110255387
 30
0.0
 10
23.14090043647596
 20
140.27231868540431
 30
0.0
 10
23.52230970167036
 20
139.47723607349636
 30
0.0
 10
23.595635153118373
 20
138.64462322693467
 30
0.0
 10
23.680363702910967
 20
137.7481805913224
 30
0.0
 10
23.416275154944607
 20
136.83238146991138
 30
0.0
 10
22.89995232250032
 20
136.09847181370458
 30
0.0
 10
22.369003830654243
 20
135.33638268349324
 30
0.0
 10
21.561036207372403
 20
134.75894583751472
 30
0.0
 10
20.64973484417278
 20
134.55575792633638
 30
0.0
 10
20.30267897940467
 20
134.4781494040296
 30
0.0
 10
19.951929066599448
 20
134.45357668560843
 30
0.0
 10
19.597485105757094
 20
134.48203977107266
 30
0.0
 10
19.149172956191805
 20
134.51741545763392
 30
0.0
 10
18.710357449831832
 20
134.63777078695003
 30
0.0
 10
18.298870002080974
 20
134.81666411249523
 30
0.0
 10
17.428670408202088
 20
135.1967572562807
 30
0.0
 10
16.68766020206516
 20
135.81234696290818
 30
0.0
 10
16.01850585780919
 20
136.474727776879
 30
0.0
 10
14.758446176384652
 20
137.7303760283098
 30
0.0
 10
13.718921194470607
 20
139.18674907503487
 30
0.0
 10
12.45069591830578
 20
140.43470012022874
 30
0.0
 10
12.188395428427505
 20
140.6938999871042
 30
0.0
 10
11.913232119206127
 20
140.9384214527789
 30
0.0
 10
11.625205990641668
 20
141.1682645172524
 30
0.0
 10
11.437220575093946
 20
141.31784031337654
 30
0.0
 10
11.24051466653877
 20
141.45612689731436
 30
0.0
 10
11.03508826497613
 20
141.58312426906562
 30
0.0
 10
10.88359866244878
 20
141.67527723375665
 30
0.0
 10
10.734886788701898
 20
141.7604921148209
 30
0.0
 10
10.572708989729096
 20
141.83235175670922
 30
0.0
 10
10.492647745655818
 20
141.86764581791644
 30
0.0
 10
10.401132949516724
 20
141.90137767027304
 30
0.0
 10
10.317864016695358
 20
141.9282350305395
 30
0.0
 10
10.230581158143778
 20
141.95488681988965
 30
0.0
 10
10.175997175900626
 20
141.98204777194445
 30
0.0
 10
10.072688117329328
 20
141.99339159059355
 30
0.0
 10
10.057829908146056
 20
141.99497402442142
 30
0.0
 10
10.0443755457801
 20
141.99610062842922
 30
0.0
 10
10.032325030231462
 20
141.99677140261676
 30
0.0
 10
10.019408113932615
 20
141.99761211052729
 30
0.0
 10
10.00177567509772
 20
141.99863832687512
 30
0.0
 10
10.00004386797918
 20
141.99990504868168
 30
0.0
 10
10.000241276516855
 20
142.00005885705266
 30
0.0
 10
10.000438685054533
 20
142.00021266542328
 30
0.0
 10
10.0006360935922
 20
142.00036647379417
 30
0.0
 10
10.006826485953141
 20
142.0019262896792
 30
0.0
 10
10.033107511957004
 20
142.00298103399396
 30
0.0
 10
10.056053835055424
 20
142.00505223993076
 30
0.0
 10
10.080130457900026
 20
142.0070984007353
 30
0.0
 10
10.101809786493618
 20
142.00986373292605
 30
0.0
 10
10.121091820836202
 20
142.01334823650353
 30
0.0
 10
10.16010433930051
 20
142.02054753452506
 30
0.0
 10
10.184602596049798
 20
142.02826910853486
 30
0.0
 10
10.222747503070003
 20
142.04068406373293
 30
0.0
 10
10.30366189729973
 20
142.0667654194106
 30
0.0
 10
10.403750877907719
 20
142.09887468953124
 30
0.0
 10
10.495959928973003
 20
142.13551960709864
 30
0.0
 10
10.645123093345195
 20
142.1970664581943
 30
0.0
 10
10.787834574253612
 20
142.26871341407946
 30
0.0
 10
10.924094371698237
 20
142.350460474754
 30
0.0
 10
11.42462549718908
 20
142.64125285517503
 30
0.0
 10
11.869049070918495
 20
143.0140333862139
 30
0.0
 10
12.288203353448234
 20
143.40881473954033
 30
0.0
 10
13.101501285467625
 20
144.18165586401147
 30
0.0
 10
13.814476335572538
 20
145.0501827493456
 30
0.0
 10
14.543179536767305
 20
145.90081418917043
 30
0.0
 10
14.980181169501627
 20
146.41178668986726
 30
0.0
 10
15.421661986105509
 20
146.91975189542012
 30
0.0
 10
15.893265641549057
 20
147.39945521287848
 30
0.0
 10
16.331243404787003
 20
147.8441339448475
 30
0.0
 10
16.795862911824237
 20
148.2659249162786
 30
0.0
 10
17.308933238019982
 20
148.6232929877445
 30
0.0
 10
17.794778529251694
 20
148.96140712943475
 30
0.0
 10
18.328291873293285
 20
149.2407082396296
 30
0.0
 10
18.901980144242934
 20
149.39590146928504
 30
0.0
 10
19.47394493099068
 20
149.55257595032776
 30
0.0
 10
20.085028526319118
 20
149.57559623375178
 30
0.0
 10
20.66402993131657
 20
149.44099108924394
 30
0.0
 10
21.149098721472363
 20
149.32990307425766
 30
0.0
 10
21.60829411017552
 20
149.11333099256422
 30
0.0
 10
22.008100755213558
 20
148.81798284238292
 30
0.0
 10
22.576288017977717
 20
148.39901501132613
 30
0.0
 10
23.02715665261317
 20
147.82428979105157
 30
0.0
 10
23.303447847360506
 20
147.17500661791516
 30
0.0
 10
23.510995406163552
 20
146.688312373652
 30
0.0
 10
23.619430405597527
 20
146.15846784761197
 30
0.0
 10
23.6104364435361
 20
145.62895364739958
 30
0.0
 10
23.601838184776636
 20
145.03535664765596
 30
0.0
 10
23.441971000050987
 20
144.44512602765639
 30
0.0
 10
23.151380961400253
 20
143.92768491368017
 30
0.0
 10
22.84619412856875
 20
143.3811920793842
 30
0.0
 10
22.40135570528723
 20
142.91673247380217
 30
0.0
 10
21.879071782530577
 20
142.57417641116183
 30
0.0
 10
21.69115074440666
 20
142.45071859953433
 30
0.0
 10
21.494303133487715
 20
142.34367976793177
 30
0.0
 10
21.288528949773735
 20
142.253059916354
 30
0.0
 10
21.141698289172957
 20
142.18827817474656
 30
0.0
 10
20.99122782698767
 20
142.13368913825948
 30
0.0
 10
20.83711756321786
 20
142.08929280689284
 30
0.0
 10
20.67896504304922
 20
142.04535832854563
 30
0.0
 10
20.517472345657062
 20
142.00713701259664
 30
0.0
 10
20.352941176470626
 20
142.0
 30
0.0
  0
SPLINE
  5
35
330
17
100
AcDbEntity
  8
CUT
100
AcDbSpline
 70
0
 71
3
 72
125
 73
121
 74
0
 40
0.0
 40
0.0
 40
0.0
 40
0.0
 40
0.0005266961194314447
 40
0.0005266961194314447
 40
0.0005266961194314447
 40
0.0035251994888955995
 40
0.0035251994888955995
 40
0.0035251994888955995
 40
0.006523702858359754
 40
0.006523702858359754
 40
0.006523702858359754
 40
0.014283897336589385
 40
0.014283897336589385
 40
0.014283897336589385
 40
0.02662347694943868
 40
0.02662347694943868
 40
0.02662347694943868
 40
0.059160701961967266
 40
0.059160701961967266
 40
0.059160701961967266
 40
0.11754254061800945
 40
0.11754254061800945
 40
0.11754254061800945
 40
0.18041838714046346
 40
0.18041838714046346
 40
0.18041838714046346
 40
0.2455418086731427
 40
0.2455418086731427
 40
0.2455418086731427
 40
0.27024556132293115
 40
0.27024556132293115
 40
0.27024556132293115
 40
0.30168551134780275
 40
0.30168551134780275
 40
0.30168551134780275
 40
0.3679185532034819
 40
0.3679185532034819
 40
0.3679185532034819
 40
0.49249890330990437
 40
0.49249890330990437
 40
0.49249890330990437
 40
0.5183119105918161
 40
0.5183119105918161
 40
0.5183119105918161
 40
0.5351398745038342
 40
0.5351398745038342
 40
0.5351398745038342
 40
0.5474789058188925
 40
0.5474789058188925
 40
0.5474789058188925
 40
0.5534995384237222
 40
0.5534995384237222
 40
0.5534995384237222
 40
0.5595201710285519
 40
0.5595201710285519
 40
0.5595201710285519
 40
0.5604986128706916
 40
0.5604986128706916
 40
0.5604986128706916
 40
0.5614770547128313
 40
0.5614770547128313
 40
0.5614770547128313
 40
0.5615987238482244
 40
0.5615987238482244
 40
0.5615987238482244
 40
0.5629050959874544
 40
0.5629050959874544
 40
0.5629050959874544
 40
0.5642114681266845
 40
0.5642114681266845
 40
0.5642114681266845
 40
0.5668242124051447
 40
0.5668242124051447
 40
0.5668242124051447
 40
0.5721496807380971
 40
0.5721496807380971
 40
0.5721496807380971
 40
0.5808755847107215
 40
0.5808755847107215
 40
0.5808755847107215
 40
0.6123483344355628
 40
0.6123483344355628
 40
0.6123483344355628
 40
0.6735472353476084
 40
0.6735472353476084
 40
0.6735472353476084
 40
0.7102663842265222
 40
0.7102663842265222
 40
0.7102663842265222
 40
0.7443667489736839
 40
0.7443667489736839
 40
0.7443667489736839
 40
0.776724281129914
 40
0.776724281129914
 40
0.776724281129914
 40
0.8090881676742837
 40
0.8090881676742837
 40
0.8090881676742837
 40
0.8362042590665315
 40
0.8362042590665315
 40
0.8362042590665315
 40
0.8746886189437008
 40
0.8746886189437008
 40
0.8746886189437008
 40
0.9035525546018336
 40
0.9035525546018336
 40
0.9035525546018336
 40
0.9359150777372824
 40
0.9359150777372824
 40
0.9359150777372824
 40
0.970026429850359
 40
0.970026429850359
 40
0.970026429850359
 40
0.9822715623681032
 40
0.9822715623681032
 40
0.9822715623681032
 40
0.9910182339314862
 40
0.9910182339314862
 40
0.9910182339314862
 40
1.0
 40
1.0
 40
1.0
 40
1.0
 10
20.352941176470626
 20
210.0
 30
0.0
 10
20.34494103659771
 20
209.99962964425168
 30
0.0
 10
20.345181991741157
 20
209.9991698012734
 30
0.0
 10
20.35366404190091
 20
209.9986204710649
 30
0.0
 10
20.39742412666871
 20
209.9961928589826
 30
0.0
 10
20.461701380945
 20
209.99405329050362
 30
0.0
 10
20.5067694906476
 20
209.98870835603506
 30
0.0
 10
20.553285935662693
 20
209.9832932416532
 30
0.0
 10
20.592261984763706
 20
209.9753246224529
 30
0.0
 10
20.623697637950713
 20
209.96480249843447
 30
0.0
 10
20.712490731698068
 20
209.93865012786728
 30
0.0
 10
20.830559809743903
 20
209.91091724610138
 30
0.0
 10
20.940596725380228
 20
209.87849201002038
 30
0.0
 10
21.117547117689455
 20
209.82693136552015
 30
0.0
 10
21.27507085924804
 20
209.75829304847042
 30
0.0
 10
21.431802229211446
 20
209.6801228954114
 30
0.0
 10
21.84971665373125
 20
209.4752075051702
 30
0.0
 10
22.234546337186007
 20
209.20038403420696
 30
0.0
 10
22.55665289075387
 20
208.86711102553866
 30
0.0
 10
23.140900436425188
 20
208.27231868547054
 30
0.0
 10
23.52230970167916
 20
207.47723607351114
 30
0.0
 10
23.59563515311836
 20
206.6446232269346
 30
0.0
 10
23.68036370291218
 20
205.74818059131002
 30
0.0
 10
23.416275154939406
 20
204.83238146990794
 30
0.0
 10
22.89995232250032
 20
204.09847181370463
 30
0.0
 10
22.36900383065869
 20
203.33638268350123
 30
0.0
 10
21.56103620737919
 20
202.75894583751457
 30
0.0
 10
20.649734844172777
 20
202.55575792633638
 30
0.0
 10
20.302678979404657
 20
202.47814940402958
 30
0.0
 10
19.95192906659944
 20
202.4535766856083
 30
0.0
 10
19.597485105757094
 20
202.48203977107264
 30
0.0
 10
19.14917295615913
 20
202.51741545763835
 30
0.0
 10
18.71035744981507
 20
202.63777078695816
 30
0.0
 10
18.29887000208098
 20
202.81666411249526
 30
0.0
 10
17.428670408222622
 20
203.19675725627027
 30
0.0
 10
16.687660202087493
 20
203.8123469628864
 30
0.0
 10
16.0185058578092
 20
204.47472777687898
 30
0.0
 10
14.758446176389752
 20
205.73037602830414
 30
0.0
 10
13.718921194469232
 20
207.18674907503623
 30
0.0
 10
12.450695918305783
 20
208.4347001202288
 30
0.0
 10
12.188395428435898
 20
208.69389998709696
 30
0.0
 10
11.913232119214502
 20
208.9384214527713
 30
0.0
 10
11.625205990641668
 20
209.16826451725248
 30
0.0
 10
11.437220575093985
 20
209.3178403133764
 30
0.0
 10
11.240514666538822
 20
209.4561268973143
 30
0.0
 10
11.035088264976128
 20
209.58312426906556
 30
0.0
 10
10.88359866244877
 20
209.67527723375662
 30
0.0
 10
10.734886788701916
 20
209.76049211482095
 30
0.0
 10
10.572708989729101
 20
209.83235175670922
 30
0.0
 10
10.492647745655884
 20
209.86764581791653
 30
0.0
 10
10.401132949516635
 20
209.90137767027304
 30
0.0
 10
10.317864016695383
 20
209.9282350305395
 30
0.0
 10
10.23058115814377
 20
209.9548868198895
 30
0.0
 10
10.175997175900571
 20
209.9820477719446
 30
0.0
 10
10.072688117329335
 20
209.99339159059355
 30
0.0
 10
10.057829908146072
 20
209.99497402442145
 30
0.0
 10
10.044375545780118
 20
209.9961006284292
 30
0.0
 10
10.032325030231464
 20
209.99677140261676
 30
0.0
 10
10.019408113932606
 20
209.99761211052723
 30
0.0
 10
10.001775675097711
 20
209.99863832687504
 30
0.0
 10
10.000043867979185
 20
209.99990504868177
 30
0.0
 10
10.000241276516856
 20
210.00005885705258
 30
0.0
 10
10.000438685054528
 20
210.0002126654233
 30
0.0
 10
10.0006360935922
 20
210.00036647379414
 30
0.0
 10
10.006826485953136
 20
210.00192628967906
 30
0.0
 10
10.033107511957027
 20
210.00298103399408
 30
0.0
 10
10.05605383505542
 20
210.00505223993082
 30
0.0
 10
10.08013045789999
 20
210.00709840073512
 30
0.0
 10
10.10180978649359
 20
210.00986373292614
 30
0.0
 10
10.12109182083619
 20
210.01334823650348
 30
0.0
 10
10.160104339300636
 20
210.0205475345251
 30
0.0
 10
10.184602596049698
 20
210.0282691085348
 30
0.0
 10
10.222747503070009
 20
210.040684063733
 30
0.0
 10
10.303661897299731
 20
210.06676541941084
 30
0.0
 10
10.40375087790772
 20
210.09887468953102
 30
0.0
 10
10.495959928973
 20
210.13551960709867
 30
0.0
 10
10.64512309334518
 20
210.19706645819429
 30
0.0
 10
10.78783457425361
 20
210.26871341407963
 30
0.0
 10
10.924094371698246
 20
210.35046047475404
 30
0.0
 10
11.424625497180532
 20
210.64125285516965
 30
0.0
 10
11.869049070910222
 20
211.01403338620608
 30
0.0
 10
12.288203353448235
 20
211.4088147395403
 30
0.0
 10
13.101501285470787
 20
212.18165586401477
 30
0.0
 10
13.814476335572994
 20
213.05018274934633
 30
0.0
 10
14.543179536767308
 20
213.90081418917046
 30
0.0
 10
14.980181169499605
 20
214.41178668986498
 30
0.0
 10
15.421661986104324
 20
214.91975189541878
 30
0.0
 10
15.893265641549052
 20
215.3994552128784
 30
0.0
 10
16.33124340478463
 20
215.844133944845
 30
0.0
 10
16.795862911817416
 20
216.26592491627324
 30
0.0
 10
17.30893323801998
 20
216.6232929877445
 30
0.0
 10
17.794778529233454
 20
216.96140712942318
 30
0.0
 10
18.32829187328865
 20
217.24070823962953
 30
0.0
 10
18.901980144242923
 20
217.39590146928498
 30
0.0
 10
19.473944930989884
 20
217.5525759503278
 30
0.0
 10
20.085028526319704
 20
217.5755962337518
 30
0.0
 10
20.664029931316573
 20
217.44099108924388
 30
0.0
 10
21.149098721472534
 20
217.3299030742575
 30
0.0
 10
21.608294110175784
 20
217.1133309925642
 30
0.0
 10
22.008100755213558
 20
216.81798284238283
 30
0.0
 10
22.576288017981096
 20
216.39901501132334
 30
0.0
 10
23.027156652614185
 20
215.8242897910489
 30
0.0
 10
23.303447847360506
 20
215.17500661791513
 30
0.0
 10
23.510995406163598
 20
214.68831237365202
 30
0.0
 10
23.619430405597548
 20
214.15846784761152
 30
0.0
 10
23.610436443536106
 20
213.6289536473996
 30
0.0
 10
23.601838184776707
 20
213.0353566476559
 30
0.0
 10
23.44197100005064
 20
212.44512602765562
 30
0.0
 10
23.151380961400246
 20
211.92768491368017
 30
0.0
 10
22.84619412856913
 20
211.3811920793846
 30
0.0
 10
22.401355705287386
 20
210.91673247380237
 30
0.0
 10
21.87907178253057
 20
210.5741764111618
 30
0.0
 10
21.69115074440667
 20
210.45071859953455
 30
0.0
 10
21.494303133487715
 20
210.34367976793177
 30
0.0
 10
21.288528949773724
 20
210.25305991635395
 30
0.0
 10
21.141698289172954
 20
210.18827817474647
 30
0.0
 10
20.99122782698767
 20
210.13368913825957
 30
0.0
 10
20.837117563217856
 20
210.08929280689284
 30
0.0
 10
20.67896504304921
 20
210.04535832854546
 30
0.0
 10
20.517472345657062
 20
210.0071370125968
 30
0.0
 10
20.352941176470626
 20
210.0
 30
0.0
  0
LINE
  5
36
330
17
100
AcDbEntity
  8
CUT
100
AcDbLine
 10
4.296563105299356e-14
 20
29.444444444444443
 30
0.0
 11
6.000000000000043
 21
29.444444444444443
 31
0.0
  0
LINE
  5
37
330
17
100
AcDbEntity
  8
CUT
100
AcDbLine
 10
4.296563105299356e-14
 20
58.888888888888886
 30
0.0
 11
4.296563105299356e-14
 21
29.444444444444443
 31
0.0
  0
LINE
  5
38
330
17
100
AcDbEntity
  8
CUT
100
AcDbLine
 10
4.296563105299356e-14
 20
88.33333333333333
 30
0.0
 11
6.000000000000043
 21
88.33333333333333
 31
0.0
  0
LINE
  5
39
330
17
100
AcDbEntity
  8
CUT
100
AcDbLine
 10
4.296563105299356e-14
 20
117.77777777777777
 30
0.0
 11
4.296563105299356e-14
 21
88.33333333333333
 31
0.0
  0
LINE
  5
3A
330
17
100
AcDbEntity
  8
CUT
100
AcDbLine
 10
4.296563105299356e-14
 20
147.22222222222223
 30
0.0
 11
6.000000000000043
 21
147.22222222222223
 31
0.0
  0
LINE
  5
3B
330
17
100
AcDbEntity
  8
CUT
100
AcDbLine
 10
4.296563105299356e-14
 20
176.66666666666666
 30
0.0
 11
4.296563105299356e-14
 21
147.22222222222223
 31
0.0
  0
LINE
  5
3C
330
17
100
AcDbEntity
  8
CUT
100
AcDbLine
 10
4.296563105299356e-14
 20
206.1111111111111
 30
0.0
 11
6.000000000000043
 21
206.1111111111111
 31
0.0
  0
LINE
  5
3D
330
17
100
AcDbEntity
  8
CUT
100
AcDbLine
 10
4.296563105299356e-14
 20
235.55555555555554
 30
0.0
 11
4.296563105299356e-14
 21
206.1111111111111
 31
0.0
  0
LINE
  5
3E
330
17
100
AcDbEntity
  8
CUT
100
AcDbLine
 10
6.000000000000043
 20
6.0
 30
0.0
 11
30.000000000000043
 21
6.0
 31
0.0
  0
LINE
  5
3F
330
17
100
AcDbEntity
  8
CUT
100
AcDbLine
 10
6.000000000000043
 20
29.444444444444443
 30
0.0
 11
6.000000000000043
 21
6.0
 31
0.0
  0
LINE
  5
40
330
17
100
AcDbEntity
  8
CUT
100
AcDbLine
 10
6.000000000000043
 20
58.888888888888886
 30
0.0
 11
4.296563105299356e-14
 21
58.888888888888886
 31
0.0
  0
LINE
  5
41
330
17
100
AcDbEntity
  8
CUT
100
AcDbLine
 10
6.000000000000043
 20
88.33333333333333
 30
0.0
 11
6.000000000000043
 21
58.888888888888886
 31
0.0
  0
LINE
  5
42
330
17
100
AcDbEntity
  8
CUT
100
AcDbLine
 10
6.000000000000043
 20
117.77777777777777
 30
0.0
 11
4.296563105299356e-14
 21
117.77777777777777
 31
0.0
  0
LINE
  5
43
330
17
100
AcDbEntity
  8
CUT
100
AcDbLine
 10
6.000000000000043
 20
147.22222222222223
 30
0.0
 11
6.000000000000043
 21
117.77777777777777
 31
0.0
  0
LINE
  5
44
330
17
100
AcDbEntity
  8
CUT
100
AcDbLine
 10
6.000000000000043
 20
176.66666666666666
 30
0.0
 11
4.296563105299356e-14
 21
176.66666666666666
 31
0.0
  0
LINE
  5
45
330
17
100
AcDbEntity
  8
CUT
100
AcDbLine
 10
6.000000000000043
 20
206.1111111111111
 30
0.0
 11
6.000000000000043
 21
176.66666666666666
 31
0.0
  0
LINE
  5
46
330
17
100
AcDbEntity
  8
CUT
100
AcDbLine
 10
6.000000000000043
 20
235.55555555555554
 30
0.0
 11
4.296563105299356e-14
 21
235.55555555555554
 31
0.0
  0
LINE
  5
47
330
17
100
AcDbEntity
  8
CUT
100
AcDbLine
 10
6.000000000000043
 20
265.0
 30
0.0
 11
6.000000000000043
 21
235.55555555555554
 31
0.0
  0
LINE
  5
48
330
17
100
AcDbEntity
  8
CUT
100
AcDbLine
 10
30.000000000000043
 20
0.0
 30
0.0
 11
60.00000000000004
 21
0.0
 31
0.0
  0
LINE
  5
49
330
17
100
AcDbEntity
  8
CUT
100
AcDbLine
 10
30.000000000000043
 20
6.0
 30
0.0
 11
30.000000000000043
 21
0.0
 31
0.0
  0
LINE
  5
4A
330
17
100
AcDbEntity
  8
CUT
100
AcDbLine
 10
30.000000000000043
 20
64.5
 30
0.0
 11
30.000000000000043
 21
94.5
 31
0.0
  0
LINE
  5
4B
330
17
100
AcDbEntity
  8
CUT
100
AcDbLine
 10
30.000000000000043
 20
94.5
 30
0.0
 11
36.00000000000004
 21
94.5
 31
0.0
  0
LINE
  5
4C
330
17
100
AcDbEntity
  8
CUT
100
AcDbLine
 10
30.000000000000043
 20
157.25
 30
0.0
 11
30.000000000000043
 21
187.25
 31
0.0
  0
LINE
  5
4D
330
17
100
AcDbEntity
  8
CUT
100
AcDbLine
 10
30.000000000000043
 20
187.25
 30
0.0
 11
36.00000000000004
 21
187.25
 31
0.0
  0
LINE
  5
4E
330
17
100
AcDbEntity
  8
CUT
100
AcDbLine
 10
36.00000000000004
 20
64.5
 30
0.0
 11
30.000000000000043
 21
64.5
 31
0.0
  0
LINE
  5
4F
330
17
100
AcDbEntity
  8
CUT
100
AcDbLine
 10
36.00000000000004
 20
94.5
 30
0.0
 11
36.00000000000004
 21
64.5
 31
0.0
  0
LINE
  5
50
330
17
100
AcDbEntity
  8
CUT
100
AcDbLine
 10
36.00000000000004
 20
157.25
 30
0.0
 11
30.000000000000043
 21
157.25
 31
0.0
  0
LINE
  5
51
330
17
100
AcDbEntity
  8
CUT
100
AcDbLine
 10
36.00000000000004
 20
187.25
 30
0.0
 11
36.00000000000004
 21
157.25
 31
0.0
  0
LINE
  5
52
330
17
100
AcDbEntity
  8
CUT
100
AcDbLine
 10
60.00000000000004
 20
0.0
 30
0.0
 11
60.00000000000004
 21
6.0
 31
0.0
  0
LINE
  5
53
330
17
100
AcDbEntity
  8
CUT
100
AcDbLine
 10
60.00000000000004
 20
6.0
 30
0.0
 11
90.00000000000004
 21
6.0
 31
0.0
  0
LINE
  5
54
330
17
100
AcDbEntity
  8
CUT
100
AcDbLine
 10
90.00000000000004
 20
0.0
 30
0.0
 11
120.00000000000004
 21
0.0
 31
0.0
  0
LINE
  5
55
330
17
100
AcDbEntity
  8
CUT
100
AcDbLine
 10
90.00000000000004
 20
6.0
 30
0.0
 11
90.00000000000004
 21
0.0
 31
0.0
  0
LINE
  5
56
330
17
100
AcDbEntity
  8
CUT
100
AcDbLine
 10
120.00000000000004
 20
0.0
 30
0.0
 11
120.00000000000004
 21
6.0
 31
0.0
  0
LINE
  5
57
330
17
100
AcDbEntity
  8
CUT
100
AcDbLine
 10
120.00000000000004
 20
6.0
 30
0.0
 11
150.00000000000006
 21
6.0
 31
0.0
  0
LINE
  5
58
330
17
100
AcDbEntity
  8
CUT
100
AcDbLine
 10
150.00000000000006
 20
0.0
 30
0.0
 11
180.00000000000006
 21
0.0
 31
0.0
  0
LINE
  5
59
330
17
100
AcDbEntity
  8
CUT
100
AcDbLine
 10
150.00000000000006
 20
6.0
 30
0.0
 11
150.00000000000006
 21
0.0
 31
0.0
  0
LINE
  5
5A
330
17
100
AcDbEntity
  8
CUT
100
AcDbLine
 10
180.00000000000006
 20
0.0
 30
0.0
 11
180.00000000000006
 21
6.0
 31
0.0
  0
LINE
  5
5B
330
17
100
AcDbEntity
  8
CUT
100
AcDbLine
 10
180.00000000000006
 20
6.0
 30
0.0
 11
210.00000000000006
 21
6.0
 31
0.0
  0
LINE
  5
5C
330
17
100
AcDbEntity
  8
CUT
100
AcDbLine
 10
210.00000000000006
 20
0.0
 30
0.0
 11
240.00000000000006
 21
0.0
 31
0.0
  0
LINE
  5
5D
330
17
100
AcDbEntity
  8
CUT
100
AcDbLine
 10
210.00000000000006
 20
6.0
 30
0.0
 11
210.00000000000006
 21
0.0
 31
0.0
  0
LINE
  5
5E
330
17
100
AcDbEntity
  8
CUT
100
AcDbLine
 10
235.70000000000005
 20
252.7
 30
0.0
 11
235.70000000000005
 21
259.3
 31
0.0
  0
LINE
  5
5F
330
17
100
AcDbEntity
  8
CUT
100
AcDbLine
 10
235.70000000000005
 20
259.3
 30
0.0
 11
252.30000000000007
 21
259.3
 31
0.0
  0
LINE
  5
60
330
17
100
AcDbEntity
  8
CUT
100
AcDbLine
 10
240.00000000000006
 20
0.0
 30
0.0
 11
240.00000000000006
 21
6.0
 31
0.0
  0
LINE
  5
61
330
17
100
AcDbEntity
  8
CUT
100
AcDbLine
 10
240.00000000000006
 20
6.0
 30
0.0
 11
264.00000000000006
 21
6.0
 31
0.0
  0
LINE
  5
62
330
17
100
AcDbEntity
  8
CUT
100
AcDbLine
 10
252.30000000000007
 20
252.7
 30
0.0
 11
235.70000000000005
 21
252.7
 31
0.0
  0
LINE
  5
63
330
17
100
AcDbEntity
  8
CUT
100
AcDbLine
 10
252.30000000000007
 20
259.3
 30
0.0
 11
252.30000000000007
 21
252.7
 31
0.0
  0
LINE
  5
64
330
17
100
AcDbEntity
  8
CUT
100
AcDbLine
 10
264.00000000000006
 20
6.0
 30
0.0
 11
264.00000000000006
 21
29.444444444444443
 31
0.0
  0
LINE
  5
65
330
17
100
AcDbEntity
  8
CUT
100
AcDbLine
 10
264.00000000000006
 20
29.444444444444443
 30
0.0
 11
270.00000000000006
 21
29.444444444444443
 31
0.0
  0
LINE
  5
66
330
17
100
AcDbEntity
  8
CUT
100
AcDbLine
 10
264.00000000000006
 20
58.888888888888886
 30
0.0
 11
264.00000000000006
 21
88.33333333333333
 31
0.0
  0
LINE
  5
67
330
17
100
AcDbEntity
  8
CUT
100
AcDbLine
 10
264.00000000000006
 20
88.33333333333333
 30
0.0
 11
270.00000000000006
 21
88.33333333333333
 31
0.0
  0
LINE
  5
68
330
17
100
AcDbEntity
  8
CUT
100
AcDbLine
 10
264.00000000000006
 20
117.77777777777777
 30
0.0
 11
264.00000000000006
 21
147.22222222222223
 31
0.0
  0
LINE
  5
69
330
17
100
AcDbEntity
  8
CUT
100
AcDbLine
 10
264.00000000000006
 20
147.22222222222223
 30
0.0
 11
270.00000000000006
 21
147.22222222222223
 31
0.0
  0
LINE
  5
6A
330
17
100
AcDbEntity
  8
CUT
100
AcDbLine
 10
264.00000000000006
 20
176.66666666666666
 30
0.0
 11
264.00000000000006
 21
206.1111111111111
 31
0.0
  0
LINE
  5
6B
330
17
100
AcDbEntity
  8
CUT
100
AcDbLine
 10
264.00000000000006
 20
206.1111111111111
 30
0.0
 11
270.00000000000006
 21
206.1111111111111
 31
0.0
  0
LINE
  5
6C
330
17
100
AcDbEntity
  8
CUT
100
AcDbLine
 10
264.00000000000006
 20
235.55555555555554
 30
0.0
 11
264.00000000000006
 21
265.0
 31
0.0
  0
LINE
  5
6D
330
17
100
AcDbEntity
  8
CUT
100
AcDbLine
 10
264.00000000000006
 20
265.0
 30
0.0
 11
6.000000000000043
 21
265.0
 31
0.0
  0
LINE
  5
6E
330
17
100
AcDbEntity
  8
CUT
100
AcDbLine
 10
270.00000000000006
 20
29.444444444444443
 30
0.0
 11
270.00000000000006
 21
58.888888888888886
 31
0.0
  0
LINE
  5
6F
330
17
100
AcDbEntity
  8
CUT
100
AcDbLine
 10
270.00000000000006
 20
58.888888888888886
 30
0.0
 11
264.00000000000006
 21
58.888888888888886
 31
0.0
  0
LINE
  5
70
330
17
100
AcDbEntity
  8
CUT
100
AcDbLine
 10
270.00000000000006
 20
88.33333333333333
 30
0.0
 11
270.00000000000006
 21
117.77777777777777
 31
0.0
  0
LINE
  5
71
330
17
100
AcDbEntity
  8
CUT
100
AcDbLine
 10
270.00000000000006
 20
117.77777777777777
 30
0.0
 11
264.00000000000006
 21
117.77777777777777
 31
0.0
  0
LINE
  5
72
330
17
100
AcDbEntity
  8
CUT
100
AcDbLine
 10
270.00000000000006
 20
147.22222222222223
 30
0.0
 11
270.00000000000006
 21
176.66666666666666
 31
0.0
  0
LINE
  5
73
330
17
100
AcDbEntity
  8
CUT
100
AcDbLine
 10
270.00000000000006
 20
176.66666666666666
 30
0.0
 11
264.00000000000006
 21
176.66666666666666
 31
0.0
  0
LINE
  5
74
330
17
100
AcDbEntity
  8
CUT
100
AcDbLine
 10
270.00000000000006
 20
206.1111111111111
 30
0.0
 11
270.00000000000006
 21
235.55555555555554
 31
0.0
  0
LINE
  5
75
330
17
100
AcDbEntity
  8
CUT
100
AcDbLine
 10
270.00000000000006
 20
235.55555555555554
 30
0.0
 11
264.00000000000006
 21
235.55555555555554
 31
0.0
  0
ENDSEC
  0
SECTION
  2
OBJECTS
  0
DICTIONARY
  5
A
330
0
100
AcDbDictionary
281
1
  3
ACAD_COLOR
350
B
  3
ACAD_GROUP
350
C
  3
ACAD_LAYOUT
350
D
  3
ACAD_MATERIAL
350
E
  3
ACAD_MLEADERSTYLE
350
F
  3
ACAD_MLINESTYLE
350
10
  3
ACAD_PLOTSETTINGS
350
11
  3
ACAD_PLOTSTYLENAME
350
12
  3
ACAD_SCALELIST
350
14
  3
ACAD_TABLESTYLE
350
15
  3
ACAD_VISUALSTYLE
350
16
  3
EZDXF_META
350
2D
  0
DICTIONARY
  5
B
330
A
100
AcDbDictionary
281
1
  0
DICTIONARY
  5
C
330
A
100
AcDbDictionary
281
1
  0
DICTIONARY
  5
D
330
A
100
AcDbDictionary
281
1
  3
Model
350
1A
  3
Layout1
350
1E
  0
DICTIONARY
  5
E
330
A
100
AcDbDictionary
281
1
  3
ByBlock
350
1F
  3
ByLayer
350
20
  3
Global
350
21
  0
DICTIONARY
  5
F
330
A
100
AcDbDictionary
281
1
  3
Standard
350
2C
  0
DICTIONARY
  5
10
330
A
100
AcDbDictionary
281
1
  3
Standard
350
22
  0
DICTIONARY
  5
11
330
A
100
AcDbDictionary
281
1
  0
ACDBDICTIONARYWDFLT
  5
12
330
A
100
AcDbDictionary
281
1
  3
Normal
350
13
100
AcDbDictionaryWithDefault
340
13
  0
ACDBPLACEHOLDER
  5
13
330
12
  0
DICTIONARY
  5
14
330
A
100
AcDbDictionary
281
1
  0
DICTIONARY
  5
15
330
A
100
AcDbDictionary
281
1
  0
DICTIONARY
  5
16
330
A
100
AcDbDictionary
281
1
  0
LAYOUT
  5
1A
330
D
100
AcDbPlotSettings
  1

  4
A3
  6

 40
7.5
 41
20.0
 42
7.5
 43
20.0
 44
420.0
 45
297.0
 46
0.0
 47
0.0
 48
0.0
 49
0.0
140
0.0
141
0.0
142
1.0
143
1.0
 70
1024
 72
1
 73
0
 74
5
  7

 75
16
 76
0
 77
2
 78
300
147
1.0
148
0.0
149
0.0
100
AcDbLayout
  1
Model
 70
1
 71
0
 10
0.0
 20
0.0
 11
420.0
 21
297.0
 12
0.0
 22
0.0
 32
0.0
 14
1e+20
 24
1e+20
 34
1e+20
 15
-1e+20
 25
-1e+20
 35
-1e+20
146
0.0
 13
0.0
 23
0.0
 33
0.0
 16
1.0
 26
0.0
 36
0.0
 17
0.0
 27
1.0
 37
0.0
 76
1
330
17
  0
LAYOUT
  5
1E
330
D
100
AcDbPlotSettings
  1

  4
A3
  6

 40
7.5
 41
20.0
 42
7.5
 43
20.0
 44
420.0
 45
297.0
 46
0.0
 47
0.0
 48
0.0
 49
0.0
140
0.0
141
0.0
142
1.0
143
1.0
 70
0
 72
1
 73
0
 74
5
  7

 75
16
 76
0
 77
2
 78
300
147
1.0
148
0.0
149
0.0
100
AcDbLayout
  1
Layout1
 70
1
 71
1
 10
0.0
 20
0.0
 11
420.0
 21
297.0
 12
0.0
 22
0.0
 32
0.0
 14
1e+20
 24
1e+20
 34
1e+20
 15
-1e+20
 25
-1e+20
 35
-1e+20
146
0.0
 13
0.0
 23
0.0
 33
0.0
 16
1.0
 26
0.0
 36
0.0
 17
0.0
 27
1.0
 37
0.0
 76
1
330
1B
  0
MATERIAL
  5
1F
102
{ACAD_REACTORS
330
E
102
}
330
E
100
AcDbMaterial
  1
ByBlock
  2

 70
0
 40
1.0
 71
1
 41
1.0
 91
-1023410177
 42
1.0
 72
1
  3

 73
1
 74
1
 75
1
 44
0.5
 73
0
 45
1.0
 46
1.0
 77
1
  4

 78
1
 79
1
170
1
 48
1.0
171
1
  6

172
1
173
1
174
1
140
1.0
141
1.0
175
1
  7

176
1
177
1
178
1
143
1.0
179
1
  8

270
1
271
1
272
1
145
1.0
146
1.0
273
1
  9

274
1
275
1
276
1
 42
1.0
 72
1
  3

 73
1
 74
1
 75
1
 94
63
  0
MATERIAL
  5
20
102
{ACAD_REACTORS
330
E
102
}
330
E
100
AcDbMaterial
  1
ByLayer
  2

 70
0
 40
1.0
 71
1
 41
1.0
 91
-1023410177
 42
1.0
 72
1
  3

 73
1
 74
1
 75
1
 44
0.5
 73
0
 45
1.0
 46
1.0
 77
1
  4

 78
1
 79
1
170
1
 48
1.0
171
1
  6

172
1
173
1
174
1
140
1.0
141
1.0
175
1
  7

176
1
177
1
178
1
143
1.0
179
1
  8

270
1
271
1
272
1
145
1.0
146
1.0
273
1
  9

274
1
275
1
276
1
 42
1.0
 72
1
  3

 73
1
 74
1
 75
1
 94
63
  0
MATERIAL
  5
21
102
{ACAD_REACTORS
330
E
102
}
330
E
100
AcDbMaterial
  1
Global
  2

 70
0
 40
1.0
 71
1
 41
1.0
 91
-1023410177
 42
1.0
 72
1
  3

 73
1
 74
1
 75
1
 44
0.5
 73
0
 45
1.0
 46
1.0
 77
1
  4

 78
1
 79
1
170
1
 48
1.0
171
1
  6

172
1
173
1
174
1
140
1.0
141
1.0
175
1
  7

176
1
177
1
178
1
143
1.0
179
1
  8

270
1
271
1
272
1
145
1.0
146
1.0
273
1
  9

274
1
275
1
276
1
 42
1.0
 72
1
  3

 73
1
 74
1
 75
1
 94
63
  0
MLINESTYLE
  5
22
102
{ACAD_REACTORS
330
10
102
}
330
10
100
AcDbMlineStyle
  2
Standard
 70
0
  3

 62
256
 51
90.0
 52
90.0
 71
2
 49
0.5
 62
256
  6
BYLAYER
 49
-0.5
 62
256
  6
BYLAYER
  0
MLEADERSTYLE
  5
2C
102
{ACAD_REACTORS
330
F
102
}
330
F
100
AcDbMLeaderStyle
179
2
170
2
171
1
172
0
 90
2
 40
0.0
 41
0.0
173
1
 91
-1056964608
 92
-2
290
1
 42
2.0
291
1
 43
8.0
  3
Standard
 44
4.0
300

342
29
174
1
175
1
176
0
178
1
 93
-1056964608
 45
4.0
292
0
297
0
 46
4.0
 94
-1056964608
 47
1.0
 49
1.0
140
1.0
294
1
141
0.0
177
0
142
1.0
295
0
296
0
143
3.75
271
0
272
9
273
9
  0
DICTIONARY
  5
2D
330
A
100
AcDbDictionary
280
1
281
1
  3
CREATED_BY_EZDXF
350
2E
  3
WRITTEN_BY_EZDXF
350
79
  0
DICTIONARYVAR
  5
2E
330
2D
100
DictionaryVariables
280
0
  1
0.0 @ 2000-01-01T00:00:00.000000+00:00
  0
DICTIONARYVAR
  5
79
330
2D
100
DictionaryVariables
280
0
  1
0.0 @ 2000-01-01T00:00:00.000000+00:00
  0
ENDSEC
  0
EOF
