  0
SECTION
  2
HEADER
  9
$ACADVER
  1
AC1027
  9
$ACADMAINTVER
 70
105
  9
$DWGCODEPAGE
  3
ANSI_1252
  9
$LASTSAVEDBY
  1
ezdxf
  9
$REQUIREDVERSIONS
160
0
  9
$INSBASE
 10
0.0
 20
0.0
 30
0.0
  9
$EXTMIN
 10
1e+20
 20
1e+20
 30
1e+20
  9
$EXTMAX
 10
-1e+20
 20
-1e+20
 30
-1e+20
  9
$LIMMIN
 10
0.0
 20
0.0
  9
$LIMMAX
 10
420.0
 20
297.0
  9
$ORTHOMODE
 70
0
  9
$REGENMODE
 70
1
  9
$FILLMODE
 70
1
  9
$QTEXTMODE
 70
0
  9
$MIRRTEXT
 70
1
  9
$LTSCALE
 40
1.0
  9
$ATTMODE
 70
1
  9
$TEXTSIZE
 40
2.5
  9
$TRACEWID
 40
1.0
  9
$TEXTSTYLE
  7
Standard
  9
$CLAYER
  8
0
  9
$CELTYPE
  6
ByLayer
  9
$CECOLOR
 62
256
  9
$CELTSCALE
 40
1.0
  9
$DISPSILH
 70
0
  9
$DIMSCALE
 40
1.0
  9
$DIMASZ
 40
2.5
  9
$DIMEXO
 40
0.625
  9
$DIMDLI
 40
3.75
  9
$DIMRND
 40
0.0
  9
$DIMDLE
 40
0.0
  9
$DIMEXE
 40
1.25
  9
$DIMTP
 40
0.0
  9
$DIMTM
 40
0.0
  9
$DIMTXT
 40
2.5
  9
$DIMCEN
 40
2.5
  9
$DIMTSZ
 40
0.0
  9
$DIMTOL
 70
0
  9
$DIMLIM
 70
0
  9
$DIMTIH
 70
0
  9
$DIMTOH
 70
0
  9
$DIMSE1
 70
0
  9
$DIMSE2
 70
0
  9
$DIMTAD
 70
1
  9
$DIMZIN
 70
8
  9
$DIMBLK
  1

  9
$DIMASO
 70
1
  9
$DIMSHO
 70
1
  9
$DIMPOST
  1

  9
$DIMAPOST
  1

  9
$DIMALT
 70
0
  9
$DIMALTD
 70
3
  9
$DIMALTF
 40
0.03937007874
  9
$DIMLFAC
 40
1.0
  9
$DIMTOFL
 70
1
  9
$DIMTVP
 40
0.0
  9
$DIMTIX
 70
0
  9
$DIMSOXD
 70
0
  9
$DIMSAH
 70
0
  9
$DIMBLK1
  1

  9
$DIMBLK2
  1

  9
$DIMSTYLE
  2
ISO-25
  9
$DIMCLRD
 70
0
  9
$DIMCLRE
 70
0
  9
$DIMCLRT
 70
0
  9
$DIMTFAC
 40
1.0
  9
$DIMGAP
 40
0.625
  9
$DIMJUST
 70
0
  9
$DIMSD1
 70
0
  9
$DIMSD2
 70
0
  9
$DIMTOLJ
 70
0
  9
$DIMTZIN
 70
8
  9
$DIMALTZ
 70
0
  9
$DIMALTTZ
 70
0
  9
$DIMUPT
 70
0
  9
$DIMDEC
 70
2
  9
$DIMTDEC
 70
2
  9
$DIMALTU
 70
2
  9
$DIMALTTD
 70
3
  9
$DIMTXSTY
  7
Standard
  9
$DIMAUNIT
 70
0
  9
$DIMADEC
 70
0
  9
$DIMALTRND
 40
0.0
  9
$DIMAZIN
 70
0
  9
$DIMDSEP
 70
44
  9
$DIMATFIT
 70
3
  9
$DIMFRAC
 70
0
  9
$DIMLDRBLK
  1

  9
$DIMLUNIT
 70
2
  9
$DIMLWD
 70
-2
  9
$DIMLWE
 70
-2
  9
$DIMTMOVE
 70
0
  9
$DIMFXL
 40
1.0
  9
$DIMFXLON
 70
0
  9
$DIMJOGANG
 40
0.785398163397
  9
$DIMTFILL
 70
0
  9
$DIMTFILLCLR
 70
0
  9
$DIMARCSYM
 70
0
  9
$DIMLTYPE
  6

  9
$DIMLTEX1
  6

  9
$DIMLTEX2
  6

  9
$DIMTXTDIRECTION
 70
0
  9
$LUNITS
 70
2
  9
$LUPREC
 70
4
  9
$SKETCHINC
 40
1.0
  9
$FILLETRAD
 40
10.0
  9
$AUNITS
 70
0
  9
$AUPREC
 70
2
  9
$MENU
  1
.
  9
$ELEVATION
 40
0.0
  9
$PELEVATION
 40
0.0
  9
$THICKNESS
 40
0.0
  9
$LIMCHECK
 70
0
  9
$CHAMFERA
 40
0.0
  9
$CHAMFERB
 40
0.0
  9
$CHAMFERC
 40
0.0
  9
$CHAMFERD
 40
0.0
  9
$SKPOLY
 70
0
  9
$TDCREATE
 40
2451545.0
  9
$TDUCREATE
 40
2451545.0
  9
$TDUPDATE
 40
2451545.0
  9
$TDUUPDATE
 40
2451545.0
  9
$TDINDWG
 40
0.0
  9
$TDUSRTIMER
 40
0.0
  9
$USRTIMER
 70
1
  9
$ANGBASE
 50
0.0
  9
$ANGDIR
 70
0
  9
$PDMODE
 70
0
  9
$PDSIZE
 40
0.0
  9
$PLINEWID
 40
0.0
  9
$SPLFRAME
 70
0
  9
$SPLINETYPE
 70
6
  9
$SPLINESEGS
 70
8
  9
$HANDSEED
  5
24A
  9
$SURFTAB1
 70
6
  9
$SURFTAB2
 70
6
  9
$SURFTYPE
 70
6
  9
$SURFU
 70
6
  9
$SURFV
 70
6
  9
$UCSBASE
  2

  9
$UCSNAME
  2

  9
$UCSORG
 10
0.0
 20
0.0
 30
0.0
  9
$UCSXDIR
 10
1.0
 20
0.0
 30
0.0
  9
$UCSYDIR
 10
0.0
 20
1.0
 30
0.0
  9
$UCSORTHOREF
  2

  9
$UCSORTHOVIEW
 70
0
  9
$UCSORGTOP
 10
0.0
 20
0.0
 30
0.0
  9
$UCSORGBOTTOM
 10
0.0
 20
0.0
 30
0.0
  9
$UCSORGLEFT
 10
0.0
 20
0.0
 30
0.0
  9
$UCSORGRIGHT
 10
0.0
 20
0.0
 30
0.0
  9
$UCSORGFRONT
 10
0.0
 20
0.0
 30
0.0
  9
$UCSORGBACK
 10
0.0
 20
0.0
 30
0.0
  9
$PUCSBASE
  2

  9
$PUCSNAME
  2

  9
$PUCSORG
 10
0.0
 20
0.0
 30
0.0
  9
$PUCSXDIR
 10
1.0
 20
0.0
 30
0.0
  9
$PUCSYDIR
 10
0.0
 20
1.0
 30
0.0
  9
$PUCSORTHOREF
  2

  9
$PUCSORTHOVIEW
 70
0
  9
$PUCSORGTOP
 10
0.0
 20
0.0
 30
0.0
  9
$PUCSORGBOTTOM
 10
0.0
 20
0.0
 30
0.0
  9
$PUCSORGLEFT
 10
0.0
 20
0.0
 30
0.0
  9
$PUCSORGRIGHT
 10
0.0
 20
0.0
 30
0.0
  9
$PUCSORGFRONT
 10
0.0
 20
0.0
 30
0.0
  9
$PUCSORGBACK
 10
0.0
 20
0.0
 30
0.0
  9
$USERI1
 70
0
  9
$USERI2
 70
0
  9
$USERI3
 70
0
  9
$USERI4
 70
0
  9
$USERI5
 70
0
  9
$USERR1
 40
0.0
  9
$USERR2
 40
0.0
  9
$USERR3
 40
0.0
  9
$USERR4
 40
0.0
  9
$USERR5
 40
0.0
  9
$WORLDVIEW
 70
1
  9
$SHADEDGE
 70
3
  9
$SHADEDIF
 70
70
  9
$TILEMODE
 70
1
  9
$MAXACTVP
 70
64
  9
$PINSBASE
 10
0.0
 20
0.0
 30
0.0
  9
$PLIMCHECK
 70
0
  9
$PEXTMIN
 10
1e+20
 20
1e+20
 30
1e+20
  9
$PEXTMAX
 10
-1e+20
 20
-1e+20
 30
-1e+20
  9
$PLIMMIN
 10
0.0
 20
0.0
  9
$PLIMMAX
 10
420.0
 20
297.0
  9
$UNITMODE
 70
0
  9
$VISRETAIN
 70
1
  9
$PLINEGEN
 70
0
  9
$PSLTSCALE
 70
1
  9
$TREEDEPTH
 70
3020
  9
$CMLSTYLE
  2
Standard
  9
$CMLJUST
 70
0
  9
$CMLSCALE
 40
20.0
  9
$PROXYGRAPHICS
 70
1
  9
$MEASUREMENT
 70
1
  9
$CELWEIGHT
370
-1
  9
$ENDCAPS
280
0
  9
$JOINSTYLE
280
0
  9
$LWDISPLAY
290
0
  9
$INSUNITS
 70
4
  9
$HYPERLINKBASE
  1

  9
$STYLESHEET
  1

  9
$XEDIT
290
1
  9
$CEPSNTYPE
380
0
  9
$PSTYLEMODE
290
1
  9
$FINGERPRINTGUID
  2
{00000000-0000-0000-0000-000000000000}
  9
$VERSIONGUID
  2
{00000000-0000-0000-0000-000000000000}
  9
$EXTNAMES
290
1
  9
$PSVPSCALE
 40
0.0
  9
$OLESTARTUP
290
0
  9
$SORTENTS
280
127
  9
$INDEXCTL
280
0
  9
$HIDETEXT
280
1
  9
$XCLIPFRAME
280
1
  9
$HALOGAP
280
0
  9
$OBSCOLOR
 70
257
  9
$OBSLTYPE
280
0
  9
$INTERSECTIONDISPLAY
280
0
  9
$INTERSECTIONCOLOR
 70
257
  9
$DIMASSOC
280
2
  9
$PROJECTNAME
  1

  9
$CAMERADISPLAY
290
0
  9
$LENSLENGTH
 40
50.0
  9
$CAMERAHEIGHT
 40
0.0
  9
$STEPSPERSEC
 40
24.0
  9
$STEPSIZE
 40
100.0
  9
$3DDWFPREC
 40
2.0
  9
$PSOLWIDTH
 40
0.005
  9
$PSOLHEIGHT
 40
0.08
  9
$LOFTANG1
 40
1.570796326795
  9
$LOFTANG2
 40
1.570796326795
  9
$LOFTMAG1
 40
0.0
  9
$LOFTMAG2
 40
0.0
  9
$LOFTPARAM
 70
7
  9
$LOFTNORMALS
280
1
  9
$LATITUDE
 40
37.795
  9
$LONGITUDE
 40
-122.394
  9
$NORTHDIRECTION
 40
0.0
  9
$TIMEZONE
 70
-8000
  9
$LIGHTGLYPHDISPLAY
280
1
  9
$TILEMODELIGHTSYNCH
280
1
  9
$CMATERIAL
347
20
  9
$SOLIDHIST
280
0
  9
$SHOWHIST
280
1
  9
$DWFFRAME
280
2
  9
$DGNFRAME
280
2
  9
$REALWORLDSCALE
290
1
  9
$INTERFERECOLOR
 62
256
  9
$CSHADOW
280
0
  9
$SHADOWPLANELOCATION
 40
0.0
  0
ENDSEC
  0
SECTION
  2
CLASSES
  0
CLASS
  1
ACDBDETAILVIEWSTYLE
  2
AcDbDetailViewStyle
  3
ObjectDBX Classes
 90
1025
 91
0
280
0
281
0
  0
CLASS
  1
ACDBDICTIONARYWDFLT
  2
AcDbDictionaryWithDefault
  3
ObjectDBX Classes
 90
0
 91
0
280
0
281
0
  0
CLASS
  1
ACDBPLACEHOLDER
  2
AcDbPlaceHolder
  3
ObjectDBX Classes
 90
0
 91
0
280
0
281
0
  0
CLASS
  1
ACDBSECTIONVIEWSTYLE
  2
AcDbSectionViewStyle
  3
ObjectDBX Classes
 90
1025
 91
0
280
0
281
0
  0
CLASS
  1
CELLSTYLEMAP
  2
AcDbCellStyleMap
  3
ObjectDBX Classes
 90
1152
 91
0
280
0
281
0
  0
CLASS
  1
DICTIONARYVAR
  2
AcDbDictionaryVar
  3
ObjectDBX Classes
 90
0
 91
0
280
0
281
0
  0
CLASS
  1
LAYOUT
  2
AcDbLayout
  3
ObjectDBX Classes
 90
0
 91
0
280
0
281
0
  0
CLASS
  1
MATERIAL
  2
AcDbMaterial
  3
ObjectDBX Classes
 90
1153
 91
0
280
0
281
0
  0
CLASS
  1
MENTALRAYRENDERSETTINGS
  2
AcDbMentalRayRenderSettings
  3
SCENEOE
 90
1024
 91
0
280
0
281
0
  0
CLASS
  1
MLEADERSTYLE
  2
AcDbMLeaderStyle
  3
ACDB_MLEADERSTYLE_CLASS
 90
4095
 91
0
280
0
281
0
  0
CLASS
  1
RASTERVARIABLES
  2
AcDbRasterVariables
  3
ISM
 90
0
 91
0
280
0
281
0
  0
CLASS
  1
SCALE
  2
AcDbScale
  3
ObjectDBX Classes
 90
1153
 91
0
280
0
281
0
  0
CLASS
  1
SUN
  2
AcDbSun
  3
SCENEOE
 90
1153
 91
0
280
0
281
0
  0
CLASS
  1
TABLESTYLE
  2
AcDbTableStyle
  3
ObjectDBX Classes
 90
4095
 91
0
280
0
281
0
  0
CLASS
  1
VISUALSTYLE
  2
AcDbVisualStyle
  3
ObjectDBX Classes
 90
4095
 91
0
280
0
281
0
  0
ENDSEC
  0
SECTION
  2
TABLES
  0
TABLE
  2
VPORT
  5
8
330
0
100
AcDbSymbolTable
 70
1
  0
VPORT
  5
246
330
8
100
AcDbSymbolTableRecord
100
AcDbViewportTableRecord
  2
*Active
 70
0
 10
0.0
 20
0.0
 11
1.0
 21
1.0
 12
196.5
 22
298.0
 13
0.0
 23
0.0
 14
0.5
 24
0.5
 15
0.5
 25
0.5
 16
0.0
 26
0.0
 36
1.0
 17
0.0
 27
0.0
 37
0.0
 40
115.0
 41
1.34
 42
50.0
 43
0.0
 44
0.0
 50
0.0
 51
0.0
 71
0
 72
1000
 73
1
 74
3
 75
0
 76
0
 77
0
 78
0
281
0
 65
1
110
0.0
120
0.0
130
0.0
111
1.0
121
0.0
131
0.0
112
0.0
122
1.0
132
0.0
 79
0
146
0.0
  0
ENDTAB
  0
TABLE
  2
LTYPE
  5
2
330
0
100
AcDbSymbolTable
 70
3
  0
LTYPE
  5
24
330
2
100
AcDbSymbolTableRecord
100
AcDbLinetypeTableRecord
  2
ByBlock
 70
0
  3

 72
65
 73
0
 40
0.0
  0
LTYPE
  5
25
330
2
100
AcDbSymbolTableRecord
100
AcDbLinetypeTableRecord
  2
ByLayer
 70
0
  3

 72
65
 73
0
 40
0.0
  0
LTYPE
  5
26
330
2
100
AcDbSymbolTableRecord
100
AcDbLinetypeTableRecord
  2
Continuous
 70
0
  3

 72
65
 73
0
 40
0.0
  0
ENDTAB
  0
TABLE
  2
LAYER
  5
1
330
0
100
AcDbSymbolTable
 70
4
  0
LAYER
  5
27
330
1
100
AcDbSymbolTableRecord
100
AcDbLayerTableRecord
  2
0
 70
0
 62
7
  6
Continuous
370
-3
390
13
347
21
  0
LAYER
  5
28
330
1
100
AcDbSymbolTableRecord
100
AcDbLayerTableRecord
  2
Defpoints
 70
0
 62
7
  6
Continuous
290
0
370
-3
390
13
347
21
  0
LAYER
  5
2F
330
1
100
AcDbSymbolTableRecord
100
AcDbLayerTableRecord
  2
CUT
 70
0
 62
7
  6
Continuous
370
-3
390
13
347
21
  0
LAYER
  5
3C
330
1
100
AcDbSymbolTableRecord
100
AcDbLayerTableRecord
  2
ENGRAVE
 70
0
 62
7
  6
Continuous
370
-3
390
13
347
21
  0
ENDTAB
  0
TABLE
  2
STYLE
  5
5
330
0
100
AcDbSymbolTable
 70
1
  0
STYLE
  5
29
330
5
100
AcDbSymbolTableRecord
100
AcDbTextStyleTableRecord
  2
Standard
 70
0
 40
0.0
 41
1.0
 50
0.0
 71
0
 42
2.5
  3
txt
  4

  0
ENDTAB
  0
TABLE
  2
VIEW
  5
7
330
0
100
AcDbSymbolTable
 70
0
  0
ENDTAB
  0
TABLE
  2
UCS
  5
6
330
0
100
AcDbSymbolTable
 70
0
  0
ENDTAB
  0
TABLE
  2
APPID
  5
3
330
0
100
AcDbSymbolTable
 70
3
  0
APPID
  5
2A
330
3
100
AcDbSymbolTableRecord
100
AcDbRegAppTableRecord
  2
ACAD
 70
0
  0
APPID
  5
247
330
3
100
AcDbSymbolTableRecord
100
AcDbRegAppTableRecord
  2
HATCHBACKGROUNDCOLOR
 70
0
  0
APPID
  5
248
330
3
100
AcDbSymbolTableRecord
100
AcDbRegAppTableRecord
  2
EZDXF
 70
0
  0
ENDTAB
  0
TABLE
  2
DIMSTYLE
  5
4
330
0
100
AcDbSymbolTable
 70
1
100
AcDbDimStyleTable
  0
DIMSTYLE
105
2B
330
4
100
AcDbSymbolTableRecord
100
AcDbDimStyleTableRecord
  2
Standard
 70
0
 40
1.0
 41
2.5
 42
0.625
 43
3.75
 44
1.25
 45
0.0
 46
0.0
 47
0.0
 48
0.0
 49
2.5
140
2.5
141
2.5
142
0.0
143
0.03937007874
144
1.0
145
0.0
146
1.0
147
0.625
148
0.0
 69
0
 70
0
 71
0
 72
0
 73
0
 74
0
 75
0
 76
0
 77
1
 78
8
 79
3
170
0
171
3
172
1
173
0
174
0
175
0
176
0
177
0
178
0
179
2
271
2
272
2
273
2
274
3
275
0
276
0
277
2
278
44
279
0
280
0
281
0
282
0
283
0
284
8
285
0
286
0
288
0
289
3
290
0
371
-2
372
-2
  0
ENDTAB
  0
TABLE
  2
BLOCK_RECORD
  5
9
330
0
100
AcDbSymbolTable
 70
2
  0
BLOCK_RECORD
  5
17
330
9
100
AcDbSymbolTableRecord
100
AcDbBlockTableRecord
  2
*Model_Space
340
1A
 70
0
280
1
281
0
  0
BLOCK_RECORD
  5
1B
330
9
100
AcDbSymbolTableRecord
100
AcDbBlockTableRecord
  2
*Paper_Space
340
1E
 70
0
280
1
281
0
  0
ENDTAB
  0
ENDSEC
  0
SECTION
  2
BLOCKS
  0
BLOCK
  5
18
330
17
100
AcDbEntity
  8
0
100
AcDbBlockBegin
  2
*Model_Space
 70
0
 10
0.0
 20
0.0
 30
0.0
  3
*Model_Space
  1

  0
ENDBLK
  5
19
330
17
100
AcDbEntity
  8
0
100
AcDbBlockEnd
  0
BLOCK
  5
1C
330
1B
100
AcDbEntity
  8
0
100
AcDbBlockBegin
  2
*Paper_Space
 70
0
 10
0.0
 20
0.0
 30
0.0
  3
*Paper_Space
  1

  0
ENDBLK
  5
1D
330
1B
100
AcDbEntity
  8
0
100
AcDbBlockEnd
  0
ENDSEC
  0
SECTION
  2
ENTITIES
  0
LINE
  5
30
330
17
100
AcDbEntity
  8
CUT
100
AcDbLine
 10
81.5
 20
270.0
 30
0.0
 11
126.5
 21
270.0
 31
0.0
  0
LINE
  5
31
330
17
100
AcDbEntity
  8
CUT
100
AcDbLine
 10
81.5
 20
332.0
 30
0.0
 11
81.5
 21
270.0
 31
0.0
  0
LINE
  5
32
330
17
100
AcDbEntity
  8
CUT
100
AcDbLine
 10
126.5
 20
264.0
 30
0.0
 11
156.5
 21
264.0
 31
0.0
  0
LINE
  5
33
330
17
100
AcDbEntity
  8
CUT
100
AcDbLine
 10
126.5
 20
270.0
 30
0.0
 11
126.5
 21
264.0
 31
0.0
  0
LINE
  5
34
330
17
100
AcDbEntity
  8
CUT
100
AcDbLine
 10
156.5
 20
264.0
 30
0.0
 11
156.5
 21
270.0
 31
0.0
  0
LINE
  5
35
330
17
100
AcDbEntity
  8
CUT
100
AcDbLine
 10
156.5
 20
270.0
 30
0.0
 11
236.5
 21
270.0
 31
0.0
  0
LINE
  5
36
330
17
100
AcDbEntity
  8
CUT
100
AcDbLine
 10
236.5
 20
264.0
 30
0.0
 11
266.5
 21
264.0
 31
0.0
  0
LINE
  5
37
330
17
100
AcDbEntity
  8
CUT
100
AcDbLine
 10
236.5
 20
270.0
 30
0.0
 11
236.5
 21
264.0
 31
0.0
  0
LINE
  5
38
330
17
100
AcDbEntity
  8
CUT
100
AcDbLine
 10
266.5
 20
264.0
 30
0.0
 11
266.5
 21
270.0
 31
0.0
  0
LINE
  5
39
330
17
100
AcDbEntity
  8
CUT
100
AcDbLine
 10
266.5
 20
270.0
 30
0.0
 11
311.5
 21
270.0
 31
0.0
  0
LINE
  5
3A
330
17
100
AcDbEntity
  8
CUT
100
AcDbLine
 10
311.5
 20
270.0
 30
0.0
 11
311.5
 21
332.0
 31
0.0
  0
LINE
  5
3B
330
17
100
AcDbEntity
  8
CUT
100
AcDbLine
 10
311.5
 20
332.0
 30
0.0
 11
81.5
 21
332.0
 31
0.0
  0
SPLINE
  5
3D
330
17
100
AcDbEntity
  8
ENGRAVE
100
AcDbSpline
 70
0
 71
2
 72
6
 73
3
 74
0
 40
0.0
 40
0.0
 40
0.0
 40
1.0
 40
1.0
 40
1.0
 10
140.9003601485253
 20
295.862695352708
 30
0.0
 10
140.7653503829003
 20
296.117675821458
 30
0.0
 10
140.6453308516503
 20
296.237695352708
 30
0.0
  0
SPLINE
  5
3E
330
17
100
AcDbEntity
  8
ENGRAVE
100
AcDbSpline
 70
0
 71
2
 72
6
 73
3
 74
0
 40
0.0
 40
0.0
 40
0.0
 40
1.0
 40
1.0
 40
1.0
 10
140.6453308516503
 20
296.237695352708
 30
0.0
 10
140.4953308516503
 20
296.417675821458
 30
0.0
 10
140.7353210860253
 20
297.122656290208
 30
0.0
  0
SPLINE
  5
3F
330
17
100
AcDbEntity
  8
ENGRAVE
100
AcDbSpline
 70
0
 71
2
 72
6
 73
3
 74
0
 40
0.0
 40
0.0
 40
0.0
 40
1.0
 40
1.0
 40
1.0
 10
141.0353699141503
 20
295.487695352708
 30
0.0
 10
141.0353699141503
 20
295.607714883958
 30
0.0
 10
140.9003601485253
 20
295.862695352708
 30
0.0
  0
SPLINE
  5
40
330
17
100
AcDbEntity
  8
ENGRAVE
100
AcDbSpline
 70
0
 71
2
 72
6
 73
3
 74
0
 40
0.0
 40
0.0
 40
0.0
 40
1.0
 40
1.0
 40
1.0
 10
141.4403503829003
 20
295.127685587083
 30
0.0
 10
141.0353699141503
 20
295.367675821458
 30
0.0
 10
141.0353699141503
 20
295.487695352708
 30
0.0
  0
SPLINE
  5
41
330
17
100
AcDbEntity
  8
ENGRAVE
100
AcDbSpline
 70
0
 71
2
 72
6
 73
3
 74
0
 40
0.0
 40
0.0
 40
0.0
 40
1.0
 40
1.0
 40
1.0
 10
141.96535038290028
 20
294.647656290208
 30
0.0
 10
141.8453308516503
 20
294.887695352708
 30
0.0
 10
141.4403503829003
 20
295.127685587083
 30
0.0
  0
SPLINE
  5
42
330
17
100
AcDbEntity
  8
ENGRAVE
100
AcDbSpline
 70
0
 71
2
 72
6
 73
3
 74
0
 40
0.0
 40
0.0
 40
0.0
 40
1.0
 40
1.0
 40
1.0
 10
140.7353210860253
 20
297.122656290208
 30
0.0
 10
140.9753113204003
 20
297.827636758958
 30
0.0
 10
141.45534061727528
 20
298.847656290208
 30
0.0
  0
SPLINE
  5
43
330
17
100
AcDbEntity
  8
ENGRAVE
100
AcDbSpline
 70
0
 71
2
 72
6
 73
3
 74
0
 40
0.0
 40
0.0
 40
0.0
 40
1.0
 40
1.0
 40
1.0
 10
144.5003601485253
 20
294.632666055833
 30
0.0
 10
142.98536991415028
 20
293.987695352708
 30
0.0
 10
141.96535038290028
 20
294.647656290208
 30
0.0
  0
SPLINE
  5
44
330
17
100
AcDbEntity
  8
ENGRAVE
100
AcDbSpline
 70
0
 71
2
 72
6
 73
3
 74
0
 40
0.0
 40
0.0
 40
0.0
 40
1.0
 40
1.0
 40
1.0
 10
141.45534061727528
 20
298.847656290208
 30
0.0
 10
141.9353699141503
 20
299.867675821458
 30
0.0
 10
142.5052917891503
 20
300.917675821458
 30
0.0
  0
SPLINE
  5
45
330
17
100
AcDbEntity
  8
ENGRAVE
100
AcDbSpline
 70
0
 71
2
 72
6
 73
3
 74
0
 40
0.0
 40
0.0
 40
0.0
 40
1.0
 40
1.0
 40
1.0
 10
142.5052917891503
 20
300.917675821458
 30
0.0
 10
142.7453308516503
 20
301.157714883958
 30
0.0
 10
142.9853210860253
 20
301.547705118333
 30
0.0
  0
SPLINE
  5
46
330
17
100
AcDbEntity
  8
ENGRAVE
100
AcDbSpline
 70
0
 71
2
 72
6
 73
3
 74
0
 40
0.0
 40
0.0
 40
0.0
 40
1.0
 40
1.0
 40
1.0
 10
142.9853210860253
 20
301.547705118333
 30
0.0
 10
143.2253113204003
 20
301.937695352708
 30
0.0
 10
143.3453308516503
 20
302.057714883958
 30
0.0
  0
SPLINE
  5
47
330
17
100
AcDbEntity
  8
ENGRAVE
100
AcDbSpline
 70
0
 71
2
 72
6
 73
3
 74
0
 40
0.0
 40
0.0
 40
0.0
 40
1.0
 40
1.0
 40
1.0
 10
143.3453308516503
 20
302.057714883958
 30
0.0
 10
143.3453308516503
 20
302.177636758958
 30
0.0
 10
143.43532108602528
 20
302.282666055833
 30
0.0
  0
SPLINE
  5
48
330
17
100
AcDbEntity
  8
ENGRAVE
100
AcDbSpline
 70
0
 71
2
 72
6
 73
3
 74
0
 40
0.0
 40
0.0
 40
0.0
 40
1.0
 40
1.0
 40
1.0
 10
143.8253601485253
 20
297.752685587083
 30
0.0
 10
143.6153503829003
 20
297.137695352708
 30
0.0
 10
143.6153503829003
 20
297.137695352708
 30
0.0
  0
SPLINE
  5
49
330
17
100
AcDbEntity
  8
ENGRAVE
100
AcDbSpline
 70
0
 71
2
 72
6
 73
3
 74
0
 40
0.0
 40
0.0
 40
0.0
 40
1.0
 40
1.0
 40
1.0
 10
143.43532108602528
 20
302.282666055833
 30
0.0
 10
143.5253113204003
 20
302.387695352708
 30
0.0
 10
143.6453308516503
 20
302.387695352708
 30
0.0
  0
SPLINE
  5
4A
330
17
100
AcDbEntity
  8
ENGRAVE
100
AcDbSpline
 70
0
 71
2
 72
6
 73
3
 74
0
 40
0.0
 40
0.0
 40
0.0
 40
1.0
 40
1.0
 40
1.0
 10
144.42531132040028
 20
299.027636758958
 30
0.0
 10
144.0353699141503
 20
298.367675821458
 30
0.0
 10
143.8253601485253
 20
297.752685587083
 30
0.0
  0
SPLINE
  5
4B
330
17
100
AcDbEntity
  8
ENGRAVE
100
AcDbSpline
 70
0
 71
2
 72
6
 73
3
 74
0
 40
0.0
 40
0.0
 40
0.0
 40
1.0
 40
1.0
 40
1.0
 10
143.8853699141503
 20
302.867675821458
 30
0.0
 10
143.94533085165028
 20
302.987695352708
 30
0.0
 10
144.2603210860253
 20
303.347705118333
 30
0.0
  0
SPLINE
  5
4C
330
17
100
AcDbEntity
  8
ENGRAVE
100
AcDbSpline
 70
0
 71
2
 72
6
 73
3
 74
0
 40
0.0
 40
0.0
 40
0.0
 40
1.0
 40
1.0
 40
1.0
 10
143.6153503829003
 20
297.137695352708
 30
0.0
 10
143.8253113204003
 20
297.107714883958
 30
0.0
 10
144.2753113204003
 20
297.362695352708
 30
0.0
  0
SPLINE
  5
4D
330
17
100
AcDbEntity
  8
ENGRAVE
100
AcDbSpline
 70
0
 71
2
 72
6
 73
3
 74
0
 40
0.0
 40
0.0
 40
0.0
 40
1.0
 40
1.0
 40
1.0
 10
146.57033085165028
 20
302.222656290208
 30
0.0
 10
145.65529178915028
 20
301.127636758958
 30
0.0
 10
144.42531132040028
 20
299.027636758958
 30
0.0
  0
SPLINE
  5
4E
330
17
100
AcDbEntity
  8
ENGRAVE
100
AcDbSpline
 70
0
 71
2
 72
6
 73
3
 74
0
 40
0.0
 40
0.0
 40
0.0
 40
1.0
 40
1.0
 40
1.0
 10
148.1453308516503
 20
297.437695352708
 30
0.0
 10
146.0153503829003
 20
295.277636758958
 30
0.0
 10
144.5003601485253
 20
294.632666055833
 30
0.0
  0
SPLINE
  5
4F
330
17
100
AcDbEntity
  8
ENGRAVE
100
AcDbSpline
 70
0
 71
2
 72
6
 73
3
 74
0
 40
0.0
 40
0.0
 40
0.0
 40
1.0
 40
1.0
 40
1.0
 10
144.2603210860253
 20
303.347705118333
 30
0.0
 10
144.5753113204003
 20
303.707714883958
 30
0.0
 10
145.0253113204003
 20
304.142675821458
 30
0.0
  0
SPLINE
  5
50
330
17
100
AcDbEntity
  8
ENGRAVE
100
AcDbSpline
 70
0
 71
2
 72
6
 73
3
 74
0
 40
0.0
 40
0.0
 40
0.0
 40
1.0
 40
1.0
 40
1.0
 10
144.2753113204003
 20
297.362695352708
 30
0.0
 10
144.7253113204003
 20
297.617675821458
 30
0.0
 10
145.4753113204003
 20
298.217675821458
 30
0.0
  0
SPLINE
  5
51
330
17
100
AcDbEntity
  8
ENGRAVE
100
AcDbSpline
 70
0
 71
2
 72
6
 73
3
 74
0
 40
0.0
 40
0.0
 40
0.0
 40
1.0
 40
1.0
 40
1.0
 10
145.0253113204003
 20
304.142675821458
 30
0.0
 10
145.4753113204003
 20
304.577636758958
 30
0.0
 10
145.9403015547753
 20
304.967675821458
 30
0.0
  0
SPLINE
  5
52
330
17
100
AcDbEntity
  8
ENGRAVE
100
AcDbSpline
 70
0
 71
2
 72
6
 73
3
 74
0
 40
0.0
 40
0.0
 40
0.0
 40
1.0
 40
1.0
 40
1.0
 10
148.0853699141503
 20
303.317675821458
 30
0.0
 10
147.48536991415028
 20
303.317675821458
 30
0.0
 10
146.57033085165028
 20
302.222656290208
 30
0.0
  0
SPLINE
  5
53
330
17
100
AcDbEntity
  8
ENGRAVE
100
AcDbSpline
 70
0
 71
2
 72
6
 73
3
 74
0
 40
0.0
 40
0.0
 40
0.0
 40
1.0
 40
1.0
 40
1.0
 10
145.9403015547753
 20
304.967675821458
 30
0.0
 10
146.40529178915028
 20
305.357714883958
 30
0.0
 10
146.7052917891503
 20
305.537695352708
 30
0.0
  0
SPLINE
  5
54
330
17
100
AcDbEntity
  8
ENGRAVE
100
AcDbSpline
 70
0
 71
2
 72
6
 73
3
 74
0
 40
0.0
 40
0.0
 40
0.0
 40
1.0
 40
1.0
 40
1.0
 10
145.4753113204003
 20
298.217675821458
 30
0.0
 10
146.4953308516503
 20
299.087695352708
 30
0.0
 10
147.1553406172753
 20
299.657666055833
 30
0.0
  0
SPLINE
  5
55
330
17
100
AcDbEntity
  8
ENGRAVE
100
AcDbSpline
 70
0
 71
2
 72
6
 73
3
 74
0
 40
0.0
 40
0.0
 40
0.0
 40
1.0
 40
1.0
 40
1.0
 10
146.7052917891503
 20
305.537695352708
 30
0.0
 10
147.3353699141503
 20
305.957714883958
 30
0.0
 10
148.0103699141503
 20
305.927685587083
 30
0.0
  0
SPLINE
  5
56
330
17
100
AcDbEntity
  8
ENGRAVE
100
AcDbSpline
 70
0
 71
2
 72
6
 73
3
 74
0
 40
0.0
 40
0.0
 40
0.0
 40
1.0
 40
1.0
 40
1.0
 10
148.5653015547753
 20
303.107666055833
 30
0.0
 10
148.3253113204003
 20
303.317675821458
 30
0.0
 10
148.0853699141503
 20
303.317675821458
 30
0.0
  0
SPLINE
  5
57
330
17
100
AcDbEntity
  8
ENGRAVE
100
AcDbSpline
 70
0
 71
2
 72
6
 73
3
 74
0
 40
0.0
 40
0.0
 40
0.0
 40
1.0
 40
1.0
 40
1.0
 10
148.5203308516503
 20
297.842675821458
 30
0.0
 10
148.3253113204003
 20
297.617675821458
 30
0.0
 10
148.1453308516503
 20
297.437695352708
 30
0.0
  0
SPLINE
  5
58
330
17
100
AcDbEntity
  8
ENGRAVE
100
AcDbSpline
 70
0
 71
2
 72
6
 73
3
 74
0
 40
0.0
 40
0.0
 40
0.0
 40
1.0
 40
1.0
 40
1.0
 10
147.1553406172753
 20
299.657666055833
 30
0.0
 10
147.8153503829003
 20
300.227636758958
 30
0.0
 10
148.44533085165028
 20
301.127636758958
 30
0.0
  0
SPLINE
  5
59
330
17
100
AcDbEntity
  8
ENGRAVE
100
AcDbSpline
 70
0
 71
2
 72
6
 73
3
 74
0
 40
0.0
 40
0.0
 40
0.0
 40
1.0
 40
1.0
 40
1.0
 10
148.8353699141503
 20
298.217675821458
 30
0.0
 10
148.71535038290028
 20
298.067675821458
 30
0.0
 10
148.5203308516503
 20
297.842675821458
 30
0.0
  0
SPLINE
  5
5A
330
17
100
AcDbEntity
  8
ENGRAVE
100
AcDbSpline
 70
0
 71
2
 72
6
 73
3
 74
0
 40
0.0
 40
0.0
 40
0.0
 40
1.0
 40
1.0
 40
1.0
 10
149.1052917891503
 20
302.207714883958
 30
0.0
 10
148.8052917891503
 20
302.897656290208
 30
0.0
 10
148.5653015547753
 20
303.107666055833
 30
0.0
  0
SPLINE
  5
5B
330
17
100
AcDbEntity
  8
ENGRAVE
100
AcDbSpline
 70
0
 71
2
 72
6
 73
3
 74
0
 40
0.0
 40
0.0
 40
0.0
 40
1.0
 40
1.0
 40
1.0
 10
149.06032108602528
 20
297.572656290208
 30
0.0
 10
148.8653503829003
 20
298.067675821458
 30
0.0
 10
148.8353699141503
 20
298.217675821458
 30
0.0
  0
SPLINE
  5
5C
330
17
100
AcDbEntity
  8
ENGRAVE
100
AcDbSpline
 70
0
 71
2
 72
6
 73
3
 74
0
 40
0.0
 40
0.0
 40
0.0
 40
1.0
 40
1.0
 40
1.0
 10
149.3753113204003
 20
296.897656290208
 30
0.0
 10
149.2552917891503
 20
297.077636758958
 30
0.0
 10
149.06032108602528
 20
297.572656290208
 30
0.0
  0
SPLINE
  5
5D
330
17
100
AcDbEntity
  8
ENGRAVE
100
AcDbSpline
 70
0
 71
2
 72
6
 73
3
 74
0
 40
0.0
 40
0.0
 40
0.0
 40
1.0
 40
1.0
 40
1.0
 10
148.0103699141503
 20
305.927685587083
 30
0.0
 10
148.6853699141503
 20
305.897656290208
 30
0.0
 10
149.1653503829003
 20
305.507714883958
 30
0.0
  0
SPLINE
  5
5E
330
17
100
AcDbEntity
  8
ENGRAVE
100
AcDbSpline
 70
0
 71
2
 72
6
 73
3
 74
0
 40
0.0
 40
0.0
 40
0.0
 40
1.0
 40
1.0
 40
1.0
 10
150.9953308516503
 20
295.187695352708
 30
0.0
 10
150.0953308516503
 20
295.517675821458
 30
0.0
 10
149.3753113204003
 20
296.897656290208
 30
0.0
  0
SPLINE
  5
5F
330
17
100
AcDbEntity
  8
ENGRAVE
100
AcDbSpline
 70
0
 71
2
 72
6
 73
3
 74
0
 40
0.0
 40
0.0
 40
0.0
 40
1.0
 40
1.0
 40
1.0
 10
149.1653503829003
 20
305.507714883958
 30
0.0
 10
149.2552917891503
 20
305.417675821458
 30
0.0
 10
149.57033085165028
 20
305.147656290208
 30
0.0
  0
SPLINE
  5
60
330
17
100
AcDbEntity
  8
ENGRAVE
100
AcDbSpline
 70
0
 71
2
 72
6
 73
3
 74
0
 40
0.0
 40
0.0
 40
0.0
 40
1.0
 40
1.0
 40
1.0
 10
149.57033085165028
 20
305.147656290208
 30
0.0
 10
149.8853699141503
 20
304.877636758958
 30
0.0
 10
150.2903503829003
 20
304.547656290208
 30
0.0
  0
SPLINE
  5
61
330
17
100
AcDbEntity
  8
ENGRAVE
100
AcDbSpline
 70
0
 71
2
 72
6
 73
3
 74
0
 40
0.0
 40
0.0
 40
0.0
 40
1.0
 40
1.0
 40
1.0
 10
152.8853699141503
 20
294.977636758958
 30
0.0
 10
151.8953308516503
 20
294.857714883958
 30
0.0
 10
150.9953308516503
 20
295.187695352708
 30
0.0
  0
SPLINE
  5
62
330
17
100
AcDbEntity
  8
ENGRAVE
100
AcDbSpline
 70
0
 71
2
 72
6
 73
3
 74
0
 40
0.0
 40
0.0
 40
0.0
 40
1.0
 40
1.0
 40
1.0
 10
150.2903503829003
 20
304.547656290208
 30
0.0
 10
150.69533085165028
 20
304.217675821458
 30
0.0
 10
150.9953308516503
 20
303.947656290208
 30
0.0
  0
SPLINE
  5
63
330
17
100
AcDbEntity
  8
ENGRAVE
100
AcDbSpline
 70
0
 71
2
 72
6
 73
3
 74
0
 40
0.0
 40
0.0
 40
0.0
 40
1.0
 40
1.0
 40
1.0
 10
151.5953308516503
 20
301.457714883958
 30
0.0
 10
151.2052917891503
 20
300.257714883958
 30
0.0
 10
151.3853210860253
 20
299.357714883958
 30
0.0
  0
SPLINE
  5
64
330
17
100
AcDbEntity
  8
ENGRAVE
100
AcDbSpline
 70
0
 71
2
 72
6
 73
3
 74
0
 40
0.0
 40
0.0
 40
0.0
 40
1.0
 40
1.0
 40
1.0
 10
151.3853210860253
 20
299.357714883958
 30
0.0
 10
151.5653503829003
 20
298.457714883958
 30
0.0
 10
151.9552917891503
 20
297.797656290208
 30
0.0
  0
SPLINE
  5
65
330
17
100
AcDbEntity
  8
ENGRAVE
100
AcDbSpline
 70
0
 71
2
 72
6
 73
3
 74
0
 40
0.0
 40
0.0
 40
0.0
 40
1.0
 40
1.0
 40
1.0
 10
153.4403503829003
 20
295.352685587083
 30
0.0
 10
153.1853699141503
 20
295.037695352708
 30
0.0
 10
152.8853699141503
 20
294.977636758958
 30
0.0
  0
SPLINE
  5
66
330
17
100
AcDbEntity
  8
ENGRAVE
100
AcDbSpline
 70
0
 71
2
 72
6
 73
3
 74
0
 40
0.0
 40
0.0
 40
0.0
 40
1.0
 40
1.0
 40
1.0
 10
151.9552917891503
 20
297.797656290208
 30
0.0
 10
152.2552917891503
 20
297.167675821458
 30
0.0
 10
153.0353699141503
 20
297.047656290208
 30
0.0
  0
SPLINE
  5
67
330
17
100
AcDbEntity
  8
ENGRAVE
100
AcDbSpline
 70
0
 71
2
 72
6
 73
3
 74
0
 40
0.0
 40
0.0
 40
0.0
 40
1.0
 40
1.0
 40
1.0
 10
153.69533085165028
 20
296.387695352708
 30
0.0
 10
153.69533085165028
 20
295.667675821458
 30
0.0
 10
153.4403503829003
 20
295.352685587083
 30
0.0
  0
SPLINE
  5
68
330
17
100
AcDbEntity
  8
ENGRAVE
100
AcDbSpline
 70
0
 71
2
 72
6
 73
3
 74
0
 40
0.0
 40
0.0
 40
0.0
 40
1.0
 40
1.0
 40
1.0
 10
153.0353699141503
 20
297.047656290208
 30
0.0
 10
153.2753113204003
 20
297.017675821458
 30
0.0
 10
153.4853210860253
 20
296.867675821458
 30
0.0
  0
SPLINE
  5
69
330
17
100
AcDbEntity
  8
ENGRAVE
100
AcDbSpline
 70
0
 71
2
 72
6
 73
3
 74
0
 40
0.0
 40
0.0
 40
0.0
 40
1.0
 40
1.0
 40
1.0
 10
153.4853210860253
 20
296.867675821458
 30
0.0
 10
153.69533085165028
 20
296.717675821458
 30
0.0
 10
153.69533085165028
 20
296.387695352708
 30
0.0
  0
SPLINE
  5
6A
330
17
100
AcDbEntity
  8
ENGRAVE
100
AcDbSpline
 70
0
 71
2
 72
6
 73
3
 74
0
 40
0.0
 40
0.0
 40
0.0
 40
1.0
 40
1.0
 40
1.0
 10
154.3852722579003
 20
295.997656290208
 30
0.0
 10
154.2052917891503
 20
296.327636758958
 30
0.0
 10
154.3552917891503
 20
297.212646524583
 30
0.0
  0
SPLINE
  5
6B
330
17
100
AcDbEntity
  8
ENGRAVE
100
AcDbSpline
 70
0
 71
2
 72
6
 73
3
 74
0
 40
0.0
 40
0.0
 40
0.0
 40
1.0
 40
1.0
 40
1.0
 10
154.9702820235253
 20
295.187695352708
 30
0.0
 10
154.5352722579003
 20
295.517675821458
 30
0.0
 10
154.3852722579003
 20
295.997656290208
 30
0.0
  0
SPLINE
  5
6C
330
17
100
AcDbEntity
  8
ENGRAVE
100
AcDbSpline
 70
0
 71
2
 72
6
 73
3
 74
0
 40
0.0
 40
0.0
 40
0.0
 40
1.0
 40
1.0
 40
1.0
 10
154.3552917891503
 20
297.212646524583
 30
0.0
 10
154.5052917891503
 20
298.097656290208
 30
0.0
 10
154.9253113204003
 20
300.047656290208
 30
0.0
  0
SPLINE
  5
6D
330
17
100
AcDbEntity
  8
ENGRAVE
100
AcDbSpline
 70
0
 71
2
 72
6
 73
3
 74
0
 40
0.0
 40
0.0
 40
0.0
 40
1.0
 40
1.0
 40
1.0
 10
155.9453308516503
 20
294.827636758958
 30
0.0
 10
155.4052917891503
 20
294.857714883958
 30
0.0
 10
154.9702820235253
 20
295.187695352708
 30
0.0
  0
SPLINE
  5
6E
330
17
100
AcDbEntity
  8
ENGRAVE
100
AcDbSpline
 70
0
 71
2
 72
6
 73
3
 74
0
 40
0.0
 40
0.0
 40
0.0
 40
1.0
 40
1.0
 40
1.0
 10
154.9253113204003
 20
300.047656290208
 30
0.0
 10
155.0753113204003
 20
300.647656290208
 30
0.0
 10
155.2103210860253
 20
301.052685587083
 30
0.0
  0
SPLINE
  5
6F
330
17
100
AcDbEntity
  8
ENGRAVE
100
AcDbSpline
 70
0
 71
2
 72
6
 73
3
 74
0
 40
0.0
 40
0.0
 40
0.0
 40
1.0
 40
1.0
 40
1.0
 10
155.2103210860253
 20
301.052685587083
 30
0.0
 10
155.3453308516503
 20
301.457714883958
 30
0.0
 10
155.5553406172753
 20
301.952685587083
 30
0.0
  0
SPLINE
  5
70
330
17
100
AcDbEntity
  8
ENGRAVE
100
AcDbSpline
 70
0
 71
2
 72
6
 73
3
 74
0
 40
0.0
 40
0.0
 40
0.0
 40
1.0
 40
1.0
 40
1.0
 10
156.4253113204003
 20
295.307666055833
 30
0.0
 10
156.0352722579003
 20
294.827636758958
 30
0.0
 10
155.9453308516503
 20
294.827636758958
 30
0.0
  0
SPLINE
  5
71
330
17
100
AcDbEntity
  8
ENGRAVE
100
AcDbSpline
 70
0
 71
2
 72
6
 73
3
 74
0
 40
0.0
 40
0.0
 40
0.0
 40
1.0
 40
1.0
 40
1.0
 10
155.5553406172753
 20
301.952685587083
 30
0.0
 10
155.7653503829003
 20
302.447656290208
 30
0.0
 10
156.0953308516503
 20
303.257714883958
 30
0.0
  0
SPLINE
  5
72
330
17
100
AcDbEntity
  8
ENGRAVE
100
AcDbSpline
 70
0
 71
2
 72
6
 73
3
 74
0
 40
0.0
 40
0.0
 40
0.0
 40
1.0
 40
1.0
 40
1.0
 10
156.2153015547753
 20
304.052636758958
 30
0.0
 10
156.1852722579003
 20
304.427636758958
 30
0.0
 10
156.1552917891503
 20
304.667675821458
 30
0.0
  0
SPLINE
  5
73
330
17
100
AcDbEntity
  8
ENGRAVE
100
AcDbSpline
 70
0
 71
2
 72
6
 73
3
 74
0
 40
0.0
 40
0.0
 40
0.0
 40
1.0
 40
1.0
 40
1.0
 10
156.0953308516503
 20
303.257714883958
 30
0.0
 10
156.2453308516503
 20
303.677636758958
 30
0.0
 10
156.2153015547753
 20
304.052636758958
 30
0.0
  0
SPLINE
  5
74
330
17
100
AcDbEntity
  8
ENGRAVE
100
AcDbSpline
 70
0
 71
2
 72
6
 73
3
 74
0
 40
0.0
 40
0.0
 40
0.0
 40
1.0
 40
1.0
 40
1.0
 10
157.3253113204003
 20
296.387695352708
 30
0.0
 10
156.8153503829003
 20
295.787695352708
 30
0.0
 10
156.4253113204003
 20
295.307666055833
 30
0.0
  0
SPLINE
  5
75
330
17
100
AcDbEntity
  8
ENGRAVE
100
AcDbSpline
 70
0
 71
2
 72
6
 73
3
 74
0
 40
0.0
 40
0.0
 40
0.0
 40
1.0
 40
1.0
 40
1.0
 10
156.1552917891503
 20
304.667675821458
 30
0.0
 10
156.1552917891503
 20
305.117675821458
 30
0.0
 10
156.4403015547753
 20
305.387695352708
 30
0.0
  0
SPLINE
  5
76
330
17
100
AcDbEntity
  8
ENGRAVE
100
AcDbSpline
 70
0
 71
2
 72
6
 73
3
 74
0
 40
0.0
 40
0.0
 40
0.0
 40
1.0
 40
1.0
 40
1.0
 10
156.4403015547753
 20
305.387695352708
 30
0.0
 10
156.7253113204003
 20
305.657714883958
 30
0.0
 10
157.0853210860253
 20
305.762695352708
 30
0.0
  0
SPLINE
  5
77
330
17
100
AcDbEntity
  8
ENGRAVE
100
AcDbSpline
 70
0
 71
2
 72
6
 73
3
 74
0
 40
0.0
 40
0.0
 40
0.0
 40
1.0
 40
1.0
 40
1.0
 10
158.2253113204003
 20
297.347656290208
 30
0.0
 10
157.8352722579003
 20
296.987695352708
 30
0.0
 10
157.3253113204003
 20
296.387695352708
 30
0.0
  0
SPLINE
  5
78
330
17
100
AcDbEntity
  8
ENGRAVE
100
AcDbSpline
 70
0
 71
2
 72
6
 73
3
 74
0
 40
0.0
 40
0.0
 40
0.0
 40
1.0
 40
1.0
 40
1.0
 10
157.0853210860253
 20
305.762695352708
 30
0.0
 10
157.4453308516503
 20
305.867675821458
 30
0.0
 10
157.6552917891503
 20
305.807714883958
 30
0.0
  0
SPLINE
  5
79
330
17
100
AcDbEntity
  8
ENGRAVE
100
AcDbSpline
 70
0
 71
2
 72
6
 73
3
 74
0
 40
0.0
 40
0.0
 40
0.0
 40
1.0
 40
1.0
 40
1.0
 10
157.8952820235253
 20
300.737646524583
 30
0.0
 10
157.8352722579003
 20
300.497656290208
 30
0.0
 10
157.8352722579003
 20
300.377636758958
 30
0.0
  0
SPLINE
  5
7A
330
17
100
AcDbEntity
  8
ENGRAVE
100
AcDbSpline
 70
0
 71
2
 72
6
 73
3
 74
0
 40
0.0
 40
0.0
 40
0.0
 40
1.0
 40
1.0
 40
1.0
 10
158.4352722579003
 20
301.997656290208
 30
0.0
 10
157.9552917891503
 20
300.977636758958
 30
0.0
 10
157.8952820235253
 20
300.737646524583
 30
0.0
  0
SPLINE
  5
7B
330
17
100
AcDbEntity
  8
ENGRAVE
100
AcDbSpline
 70
0
 71
2
 72
6
 73
3
 74
0
 40
0.0
 40
0.0
 40
0.0
 40
1.0
 40
1.0
 40
1.0
 10
157.8352722579003
 20
300.377636758958
 30
0.0
 10
157.8653503829003
 20
300.287695352708
 30
0.0
 10
158.1053406172753
 20
300.467675821458
 30
0.0
  0
SPLINE
  5
7C
330
17
100
AcDbEntity
  8
ENGRAVE
100
AcDbSpline
 70
0
 71
2
 72
6
 73
3
 74
0
 40
0.0
 40
0.0
 40
0.0
 40
1.0
 40
1.0
 40
1.0
 10
159.1852722579003
 20
298.382666055833
 30
0.0
 10
158.7352722579003
 20
297.887695352708
 30
0.0
 10
158.2253113204003
 20
297.347656290208
 30
0.0
  0
SPLINE
  5
7D
330
17
100
AcDbEntity
  8
ENGRAVE
100
AcDbSpline
 70
0
 71
2
 72
6
 73
3
 74
0
 40
0.0
 40
0.0
 40
0.0
 40
1.0
 40
1.0
 40
1.0
 10
158.1053406172753
 20
300.467675821458
 30
0.0
 10
158.3453308516503
 20
300.647656290208
 30
0.0
 10
158.6903015547753
 20
300.962646524583
 30
0.0
  0
SPLINE
  5
7E
330
17
100
AcDbEntity
  8
ENGRAVE
100
AcDbSpline
 70
0
 71
2
 72
6
 73
3
 74
0
 40
0.0
 40
0.0
 40
0.0
 40
1.0
 40
1.0
 40
1.0
 10
159.0052917891503
 20
303.407666055833
 30
0.0
 10
158.8552917891503
 20
303.047656290208
 30
0.0
 10
158.7653503829003
 20
302.807714883958
 30
0.0
  0
SPLINE
  5
7F
330
17
100
AcDbEntity
  8
ENGRAVE
100
AcDbSpline
 70
0
 71
2
 72
6
 73
3
 74
0
 40
0.0
 40
0.0
 40
0.0
 40
1.0
 40
1.0
 40
1.0
 10
157.6552917891503
 20
305.807714883958
 30
0.0
 10
158.4953308516503
 20
305.717675821458
 30
0.0
 10
158.7953308516503
 20
305.207666055833
 30
0.0
  0
SPLINE
  5
80
330
17
100
AcDbEntity
  8
ENGRAVE
100
AcDbSpline
 70
0
 71
2
 72
6
 73
3
 74
0
 40
0.0
 40
0.0
 40
0.0
 40
1.0
 40
1.0
 40
1.0
 10
159.1253113204003
 20
304.217675821458
 30
0.0
 10
159.1552917891503
 20
303.767675821458
 30
0.0
 10
159.0052917891503
 20
303.407666055833
 30
0.0
  0
SPLINE
  5
81
330
17
100
AcDbEntity
  8
ENGRAVE
100
AcDbSpline
 70
0
 71
2
 72
6
 73
3
 74
0
 40
0.0
 40
0.0
 40
0.0
 40
1.0
 40
1.0
 40
1.0
 10
158.7953308516503
 20
305.207666055833
 30
0.0
 10
159.0953308516503
 20
304.697656290208
 30
0.0
 10
159.1253113204003
 20
304.217675821458
 30
0.0
  0
SPLINE
  5
82
330
17
100
AcDbEntity
  8
ENGRAVE
100
AcDbSpline
 70
0
 71
2
 72
6
 73
3
 74
0
 40
0.0
 40
0.0
 40
0.0
 40
1.0
 40
1.0
 40
1.0
 10
159.8153503829003
 20
299.057714883958
 30
0.0
 10
159.6352722579003
 20
298.877636758958
 30
0.0
 10
159.1852722579003
 20
298.382666055833
 30
0.0
  0
SPLINE
  5
83
330
17
100
AcDbEntity
  8
ENGRAVE
100
AcDbSpline
 70
0
 71
2
 72
6
 73
3
 74
0
 40
0.0
 40
0.0
 40
0.0
 40
1.0
 40
1.0
 40
1.0
 10
158.6903015547753
 20
300.962646524583
 30
0.0
 10
159.0352722579003
 20
301.277636758958
 30
0.0
 10
159.3352722579003
 20
301.517675821458
 30
0.0
  0
SPLINE
  5
84
330
17
100
AcDbEntity
  8
ENGRAVE
100
AcDbSpline
 70
0
 71
2
 72
6
 73
3
 74
0
 40
0.0
 40
0.0
 40
0.0
 40
1.0
 40
1.0
 40
1.0
 10
160.1903015547753
 20
299.477685587083
 30
0.0
 10
159.9953308516503
 20
299.237695352708
 30
0.0
 10
159.8153503829003
 20
299.057714883958
 30
0.0
  0
SPLINE
  5
85
330
17
100
AcDbEntity
  8
ENGRAVE
100
AcDbSpline
 70
0
 71
2
 72
6
 73
3
 74
0
 40
0.0
 40
0.0
 40
0.0
 40
1.0
 40
1.0
 40
1.0
 10
160.2653503829003
 20
295.997656290208
 30
0.0
 10
160.1153503829003
 20
296.297656290208
 30
0.0
 10
160.1753113204003
 20
296.507714883958
 30
0.0
  0
SPLINE
  5
86
330
17
100
AcDbEntity
  8
ENGRAVE
100
AcDbSpline
 70
0
 71
2
 72
6
 73
3
 74
0
 40
0.0
 40
0.0
 40
0.0
 40
1.0
 40
1.0
 40
1.0
 10
160.5052917891503
 20
299.717675821458
 30
0.0
 10
160.3852722579003
 20
299.717675821458
 30
0.0
 10
160.1903015547753
 20
299.477685587083
 30
0.0
  0
SPLINE
  5
87
330
17
100
AcDbEntity
  8
ENGRAVE
100
AcDbSpline
 70
0
 71
2
 72
6
 73
3
 74
0
 40
0.0
 40
0.0
 40
0.0
 40
1.0
 40
1.0
 40
1.0
 10
160.6253113204003
 20
295.517675821458
 30
0.0
 10
160.4153503829003
 20
295.697656290208
 30
0.0
 10
160.2653503829003
 20
295.997656290208
 30
0.0
  0
SPLINE
  5
88
330
17
100
AcDbEntity
  8
ENGRAVE
100
AcDbSpline
 70
0
 71
2
 72
6
 73
3
 74
0
 40
0.0
 40
0.0
 40
0.0
 40
1.0
 40
1.0
 40
1.0
 10
160.9552917891503
 20
300.182666055833
 30
0.0
 10
160.6253113204003
 20
299.897656290208
 30
0.0
 10
160.5052917891503
 20
299.717675821458
 30
0.0
  0
SPLINE
  5
89
330
17
100
AcDbEntity
  8
ENGRAVE
100
AcDbSpline
 70
0
 71
2
 72
6
 73
3
 74
0
 40
0.0
 40
0.0
 40
0.0
 40
1.0
 40
1.0
 40
1.0
 10
161.6903015547753
 20
295.157666055833
 30
0.0
 10
161.2552917891503
 20
294.947656290208
 30
0.0
 10
160.9253113204003
 20
295.247656290208
 30
0.0
  0
SPLINE
  5
8A
330
17
100
AcDbEntity
  8
ENGRAVE
100
AcDbSpline
 70
0
 71
2
 72
6
 73
3
 74
0
 40
0.0
 40
0.0
 40
0.0
 40
1.0
 40
1.0
 40
1.0
 10
161.4653503829003
 20
300.497656290208
 30
0.0
 10
161.2852722579003
 20
300.467675821458
 30
0.0
 10
160.9552917891503
 20
300.182666055833
 30
0.0
  0
SPLINE
  5
8B
330
17
100
AcDbEntity
  8
ENGRAVE
100
AcDbSpline
 70
0
 71
2
 72
6
 73
3
 74
0
 40
0.0
 40
0.0
 40
0.0
 40
1.0
 40
1.0
 40
1.0
 10
159.3352722579003
 20
301.517675821458
 30
0.0
 10
160.1153503829003
 20
302.207714883958
 30
0.0
 10
161.1053406172753
 20
302.882714883958
 30
0.0
  0
SPLINE
  5
8C
330
17
100
AcDbEntity
  8
ENGRAVE
100
AcDbSpline
 70
0
 71
2
 72
6
 73
3
 74
0
 40
0.0
 40
0.0
 40
0.0
 40
1.0
 40
1.0
 40
1.0
 10
161.6003113204003
 20
300.272705118333
 30
0.0
 10
161.6753113204003
 20
300.557714883958
 30
0.0
 10
161.4653503829003
 20
300.497656290208
 30
0.0
  0
SPLINE
  5
8D
330
17
100
AcDbEntity
  8
ENGRAVE
100
AcDbSpline
 70
0
 71
2
 72
6
 73
3
 74
0
 40
0.0
 40
0.0
 40
0.0
 40
1.0
 40
1.0
 40
1.0
 10
161.0153503829003
 20
298.847656290208
 30
0.0
 10
161.5253113204003
 20
299.987695352708
 30
0.0
 10
161.6003113204003
 20
300.272705118333
 30
0.0
  0
SPLINE
  5
8E
330
17
100
AcDbEntity
  8
ENGRAVE
100
AcDbSpline
 70
0
 71
2
 72
6
 73
3
 74
0
 40
0.0
 40
0.0
 40
0.0
 40
1.0
 40
1.0
 40
1.0
 10
162.5603210860253
 20
295.802685587083
 30
0.0
 10
162.1253113204003
 20
295.367675821458
 30
0.0
 10
161.6903015547753
 20
295.157666055833
 30
0.0
  0
SPLINE
  5
8F
330
17
100
AcDbEntity
  8
ENGRAVE
100
AcDbSpline
 70
0
 71
2
 72
6
 73
3
 74
0
 40
0.0
 40
0.0
 40
0.0
 40
1.0
 40
1.0
 40
1.0
 10
163.3552917891503
 20
296.537695352708
 30
0.0
 10
162.9953308516503
 20
296.237695352708
 30
0.0
 10
162.5603210860253
 20
295.802685587083
 30
0.0
  0
SPLINE
  5
90
330
17
100
AcDbEntity
  8
ENGRAVE
100
AcDbSpline
 70
0
 71
2
 72
6
 73
3
 74
0
 40
0.0
 40
0.0
 40
0.0
 40
1.0
 40
1.0
 40
1.0
 10
161.1053406172753
 20
302.882714883958
 30
0.0
 10
162.0953308516503
 20
303.557714883958
 30
0.0
 10
162.6953308516503
 20
303.737695352708
 30
0.0
  0
SPLINE
  5
91
330
17
100
AcDbEntity
  8
ENGRAVE
100
AcDbSpline
 70
0
 71
2
 72
6
 73
3
 74
0
 40
0.0
 40
0.0
 40
0.0
 40
1.0
 40
1.0
 40
1.0
 10
165.7403015547753
 20
298.832666055833
 30
0.0
 10
164.8552917891503
 20
298.127636758958
 30
0.0
 10
163.3552917891503
 20
296.537695352708
 30
0.0
  0
SPLINE
  5
92
330
17
100
AcDbEntity
  8
ENGRAVE
100
AcDbSpline
 70
0
 71
2
 72
6
 73
3
 74
0
 40
0.0
 40
0.0
 40
0.0
 40
1.0
 40
1.0
 40
1.0
 10
162.6953308516503
 20
303.737695352708
 30
0.0
 10
163.2052917891503
 20
303.647656290208
 30
0.0
 10
163.6403015547753
 20
303.227685587083
 30
0.0
  0
SPLINE
  5
93
330
17
100
AcDbEntity
  8
ENGRAVE
100
AcDbSpline
 70
0
 71
2
 72
6
 73
3
 74
0
 40
0.0
 40
0.0
 40
0.0
 40
1.0
 40
1.0
 40
1.0
 10
163.7753113204003
 20
299.972705118333
 30
0.0
 10
163.6852722579003
 20
299.687695352708
 30
0.0
 10
163.6852722579003
 20
299.687695352708
 30
0.0
  0
SPLINE
  5
94
330
17
100
AcDbEntity
  8
ENGRAVE
100
AcDbSpline
 70
0
 71
2
 72
6
 73
3
 74
0
 40
0.0
 40
0.0
 40
0.0
 40
1.0
 40
1.0
 40
1.0
 10
163.9553406172753
 20
300.587695352708
 30
0.0
 10
163.8653503829003
 20
300.257714883958
 30
0.0
 10
163.7753113204003
 20
299.972705118333
 30
0.0
  0
SPLINE
  5
95
330
17
100
AcDbEntity
  8
ENGRAVE
100
AcDbSpline
 70
0
 71
2
 72
6
 73
3
 74
0
 40
0.0
 40
0.0
 40
0.0
 40
1.0
 40
1.0
 40
1.0
 10
164.0753113204003
 20
301.037695352708
 30
0.0
 10
164.0453308516503
 20
300.917675821458
 30
0.0
 10
163.9553406172753
 20
300.587695352708
 30
0.0
  0
SPLINE
  5
96
330
17
100
AcDbEntity
  8
ENGRAVE
100
AcDbSpline
 70
0
 71
2
 72
6
 73
3
 74
0
 40
0.0
 40
0.0
 40
0.0
 40
1.0
 40
1.0
 40
1.0
 10
163.6852722579003
 20
299.687695352708
 30
0.0
 10
163.6852722579003
 20
299.687695352708
 30
0.0
 10
164.0753113204003
 20
300.077685587083
 30
0.0
  0
SPLINE
  5
97
330
17
100
AcDbEntity
  8
ENGRAVE
100
AcDbSpline
 70
0
 71
2
 72
6
 73
3
 74
0
 40
0.0
 40
0.0
 40
0.0
 40
1.0
 40
1.0
 40
1.0
 10
164.2403015547753
 20
301.697705118333
 30
0.0
 10
164.1352722579003
 20
301.337695352708
 30
0.0
 10
164.0753113204003
 20
301.037695352708
 30
0.0
  0
SPLINE
  5
98
330
17
100
AcDbEntity
  8
ENGRAVE
100
AcDbSpline
 70
0
 71
2
 72
6
 73
3
 74
0
 40
0.0
 40
0.0
 40
0.0
 40
1.0
 40
1.0
 40
1.0
 10
163.6403015547753
 20
303.227685587083
 30
0.0
 10
164.0753113204003
 20
302.807714883958
 30
0.0
 10
164.1953308516503
 20
302.507714883958
 30
0.0
  0
SPLINE
  5
99
330
17
100
AcDbEntity
  8
ENGRAVE
100
AcDbSpline
 70
0
 71
2
 72
6
 73
3
 74
0
 40
0.0
 40
0.0
 40
0.0
 40
1.0
 40
1.0
 40
1.0
 10
164.1953308516503
 20
302.507714883958
 30
0.0
 10
164.3453308516503
 20
302.057714883958
 30
0.0
 10
164.2403015547753
 20
301.697705118333
 30
0.0
  0
SPLINE
  5
9A
330
17
100
AcDbEntity
  8
ENGRAVE
100
AcDbSpline
 70
0
 71
2
 72
6
 73
3
 74
0
 40
0.0
 40
0.0
 40
0.0
 40
1.0
 40
1.0
 40
1.0
 10
164.0753113204003
 20
300.077685587083
 30
0.0
 10
164.4653503829003
 20
300.467675821458
 30
0.0
 10
164.9453308516503
 20
300.767675821458
 30
0.0
  0
SPLINE
  5
9B
330
17
100
AcDbEntity
  8
ENGRAVE
100
AcDbSpline
 70
0
 71
2
 72
6
 73
3
 74
0
 40
0.0
 40
0.0
 40
0.0
 40
1.0
 40
1.0
 40
1.0
 10
166.8653503829003
 20
299.507714883958
 30
0.0
 10
166.6253113204003
 20
299.537695352708
 30
0.0
 10
165.7403015547753
 20
298.832666055833
 30
0.0
  0
SPLINE
  5
9C
330
17
100
AcDbEntity
  8
ENGRAVE
100
AcDbSpline
 70
0
 71
2
 72
6
 73
3
 74
0
 40
0.0
 40
0.0
 40
0.0
 40
1.0
 40
1.0
 40
1.0
 10
167.5403503829003
 20
288.227685587083
 30
0.0
 10
166.86535038290032
 20
288.617675821458
 30
0.0
 10
166.7153503829003
 20
289.097656290208
 30
0.0
  0
SPLINE
  5
9D
330
17
100
AcDbEntity
  8
ENGRAVE
100
AcDbSpline
 70
0
 71
2
 72
6
 73
3
 74
0
 40
0.0
 40
0.0
 40
0.0
 40
1.0
 40
1.0
 40
1.0
 10
167.1503113204003
 20
296.117675821458
 30
0.0
 10
166.8052917891503
 20
296.777636758958
 30
0.0
 10
166.8352722579003
 20
297.827636758958
 30
0.0
  0
SPLINE
  5
9E
330
17
100
AcDbEntity
  8
ENGRAVE
100
AcDbSpline
 70
0
 71
2
 72
6
 73
3
 74
0
 40
0.0
 40
0.0
 40
0.0
 40
1.0
 40
1.0
 40
1.0
 10
166.9703308516503
 20
299.102636758958
 30
0.0
 10
167.0753113204003
 20
299.477636758958
 30
0.0
 10
166.8653503829003
 20
299.507714883958
 30
0.0
  0
SPLINE
  5
9F
330
17
100
AcDbEntity
  8
ENGRAVE
100
AcDbSpline
 70
0
 71
2
 72
6
 73
3
 74
0
 40
0.0
 40
0.0
 40
0.0
 40
1.0
 40
1.0
 40
1.0
 10
166.7153503829003
 20
289.097656290208
 30
0.0
 10
166.53536991415032
 20
289.787695352708
 30
0.0
 10
166.8953308516503
 20
290.117675821458
 30
0.0
  0
SPLINE
  5
A0
330
17
100
AcDbEntity
  8
ENGRAVE
100
AcDbSpline
 70
0
 71
2
 72
6
 73
3
 74
0
 40
0.0
 40
0.0
 40
0.0
 40
1.0
 40
1.0
 40
1.0
 10
166.8352722579003
 20
297.827636758958
 30
0.0
 10
166.8653503829003
 20
298.727636758958
 30
0.0
 10
166.9703308516503
 20
299.102636758958
 30
0.0
  0
SPLINE
  5
A1
330
17
100
AcDbEntity
  8
ENGRAVE
100
AcDbSpline
 70
0
 71
2
 72
6
 73
3
 74
0
 40
0.0
 40
0.0
 40
0.0
 40
1.0
 40
1.0
 40
1.0
 10
167.9453308516503
 20
295.127685587083
 30
0.0
 10
167.4953308516503
 20
295.457714883958
 30
0.0
 10
167.1503113204003
 20
296.117675821458
 30
0.0
  0
SPLINE
  5
A2
330
17
100
AcDbEntity
  8
ENGRAVE
100
AcDbSpline
 70
0
 71
2
 72
6
 73
3
 74
0
 40
0.0
 40
0.0
 40
0.0
 40
1.0
 40
1.0
 40
1.0
 10
164.9453308516503
 20
300.767675821458
 30
0.0
 10
166.4453308516503
 20
301.907714883958
 30
0.0
 10
167.3303406172753
 20
302.222705118333
 30
0.0
  0
SPLINE
  5
A3
330
17
100
AcDbEntity
  8
ENGRAVE
100
AcDbSpline
 70
0
 71
2
 72
6
 73
3
 74
0
 40
0.0
 40
0.0
 40
0.0
 40
1.0
 40
1.0
 40
1.0
 10
169.2053406172753
 20
287.702685587083
 30
0.0
 10
168.2153503829003
 20
287.837695352708
 30
0.0
 10
167.5403503829003
 20
288.227685587083
 30
0.0
  0
SPLINE
  5
A4
330
17
100
AcDbEntity
  8
ENGRAVE
100
AcDbSpline
 70
0
 71
2
 72
6
 73
3
 74
0
 40
0.0
 40
0.0
 40
0.0
 40
1.0
 40
1.0
 40
1.0
 10
166.8953308516503
 20
290.117675821458
 30
0.0
 10
167.2552917891503
 20
290.447656290208
 30
0.0
 10
167.7503113204003
 20
290.507666055833
 30
0.0
  0
SPLINE
  5
A5
330
17
100
AcDbEntity
  8
ENGRAVE
100
AcDbSpline
 70
0
 71
2
 72
6
 73
3
 74
0
 40
0.0
 40
0.0
 40
0.0
 40
1.0
 40
1.0
 40
1.0
 10
168.6052917891503
 20
294.737695352708
 30
0.0
 10
168.3953308516503
 20
294.797656290208
 30
0.0
 10
167.9453308516503
 20
295.127685587083
 30
0.0
  0
SPLINE
  5
A6
330
17
100
AcDbEntity
  8
ENGRAVE
100
AcDbSpline
 70
0
 71
2
 72
6
 73
3
 74
0
 40
0.0
 40
0.0
 40
0.0
 40
1.0
 40
1.0
 40
1.0
 10
167.7503113204003
 20
290.507666055833
 30
0.0
 10
168.24533085165032
 20
290.567675821458
 30
0.0
 10
168.3953308516503
 20
290.387695352708
 30
0.0
  0
SPLINE
  5
A7
330
17
100
AcDbEntity
  8
ENGRAVE
100
AcDbSpline
 70
0
 71
2
 72
6
 73
3
 74
0
 40
0.0
 40
0.0
 40
0.0
 40
1.0
 40
1.0
 40
1.0
 10
169.6103210860253
 20
294.767675821458
 30
0.0
 10
169.1153503829003
 20
294.707714883958
 30
0.0
 10
168.6052917891503
 20
294.737695352708
 30
0.0
  0
SPLINE
  5
A8
330
17
100
AcDbEntity
  8
ENGRAVE
100
AcDbSpline
 70
0
 71
2
 72
6
 73
3
 74
0
 40
0.0
 40
0.0
 40
0.0
 40
1.0
 40
1.0
 40
1.0
 10
167.3303406172753
 20
302.222705118333
 30
0.0
 10
168.2153503829003
 20
302.537695352708
 30
0.0
 10
168.8453308516503
 20
301.697656290208
 30
0.0
  0
SPLINE
  5
A9
330
17
100
AcDbEntity
  8
ENGRAVE
100
AcDbSpline
 70
0
 71
2
 72
6
 73
3
 74
0
 40
0.0
 40
0.0
 40
0.0
 40
1.0
 40
1.0
 40
1.0
 10
168.3953308516503
 20
290.387695352708
 30
0.0
 10
168.63536991415032
 20
290.237695352708
 30
0.0
 10
169.16036991415032
 20
289.937695352708
 30
0.0
  0
SPLINE
  5
AA
330
17
100
AcDbEntity
  8
ENGRAVE
100
AcDbSpline
 70
0
 71
2
 72
6
 73
3
 74
0
 40
0.0
 40
0.0
 40
0.0
 40
1.0
 40
1.0
 40
1.0
 10
171.2753113204003
 20
287.777636758958
 30
0.0
 10
170.1953308516503
 20
287.567675821458
 30
0.0
 10
169.2053406172753
 20
287.702685587083
 30
0.0
  0
SPLINE
  5
AB
330
17
100
AcDbEntity
  8
ENGRAVE
100
AcDbSpline
 70
0
 71
2
 72
6
 73
3
 74
0
 40
0.0
 40
0.0
 40
0.0
 40
1.0
 40
1.0
 40
1.0
 10
168.8453308516503
 20
301.697656290208
 30
0.0
 10
169.2052917891503
 20
301.367675821458
 30
0.0
 10
169.3103210860253
 20
300.797656290208
 30
0.0
  0
SPLINE
  5
AC
330
17
100
AcDbEntity
  8
ENGRAVE
100
AcDbSpline
 70
0
 71
2
 72
6
 73
3
 74
0
 40
0.0
 40
0.0
 40
0.0
 40
1.0
 40
1.0
 40
1.0
 10
169.3103210860253
 20
300.797656290208
 30
0.0
 10
169.4153503829003
 20
300.227636758958
 30
0.0
 10
169.4153503829003
 20
299.267675821458
 30
0.0
  0
SPLINE
  5
AD
330
17
100
AcDbEntity
  8
ENGRAVE
100
AcDbSpline
 70
0
 71
2
 72
6
 73
3
 74
0
 40
0.0
 40
0.0
 40
0.0
 40
1.0
 40
1.0
 40
1.0
 10
169.4153503829003
 20
299.267675821458
 30
0.0
 10
169.4753113204003
 20
298.667675821458
 30
0.0
 10
169.5503113204003
 20
297.962695352708
 30
0.0
  0
SPLINE
  5
AE
330
17
100
AcDbEntity
  8
ENGRAVE
100
AcDbSpline
 70
0
 71
2
 72
6
 73
3
 74
0
 40
0.0
 40
0.0
 40
0.0
 40
1.0
 40
1.0
 40
1.0
 10
170.5552917891503
 20
295.097656290208
 30
0.0
 10
170.1052917891503
 20
294.827636758958
 30
0.0
 10
169.6103210860253
 20
294.767675821458
 30
0.0
  0
SPLINE
  5
AF
330
17
100
AcDbEntity
  8
ENGRAVE
100
AcDbSpline
 70
0
 71
2
 72
6
 73
3
 74
0
 40
0.0
 40
0.0
 40
0.0
 40
1.0
 40
1.0
 40
1.0
 10
169.5503113204003
 20
297.962695352708
 30
0.0
 10
169.6253113204003
 20
297.257714883958
 30
0.0
 10
169.7453308516503
 20
297.107714883958
 30
0.0
  0
SPLINE
  5
B0
330
17
100
AcDbEntity
  8
ENGRAVE
100
AcDbSpline
 70
0
 71
2
 72
6
 73
3
 74
0
 40
0.0
 40
0.0
 40
0.0
 40
1.0
 40
1.0
 40
1.0
 10
169.7453308516503
 20
297.107714883958
 30
0.0
 10
169.8352722579003
 20
296.987695352708
 30
0.0
 10
170.07531132040032
 20
296.882666055833
 30
0.0
  0
SPLINE
  5
B1
330
17
100
AcDbEntity
  8
ENGRAVE
100
AcDbSpline
 70
0
 71
2
 72
6
 73
3
 74
0
 40
0.0
 40
0.0
 40
0.0
 40
1.0
 40
1.0
 40
1.0
 10
169.16036991415032
 20
289.937695352708
 30
0.0
 10
169.6853699141503
 20
289.637695352708
 30
0.0
 10
170.4653503829003
 20
289.787695352708
 30
0.0
  0
SPLINE
  5
B2
330
17
100
AcDbEntity
  8
ENGRAVE
100
AcDbSpline
 70
0
 71
2
 72
6
 73
3
 74
0
 40
0.0
 40
0.0
 40
0.0
 40
1.0
 40
1.0
 40
1.0
 10
170.07531132040032
 20
296.882666055833
 30
0.0
 10
170.3153503829003
 20
296.777636758958
 30
0.0
 10
170.5253113204003
 20
296.717675821458
 30
0.0
  0
SPLINE
  5
B3
330
17
100
AcDbEntity
  8
ENGRAVE
100
AcDbSpline
 70
0
 71
2
 72
6
 73
3
 74
0
 40
0.0
 40
0.0
 40
0.0
 40
1.0
 40
1.0
 40
1.0
 10
170.9903015547753
 20
295.952685587083
 30
0.0
 10
171.03527225790032
 20
295.397656290208
 30
0.0
 10
170.5552917891503
 20
295.097656290208
 30
0.0
  0
SPLINE
  5
B4
330
17
100
AcDbEntity
  8
ENGRAVE
100
AcDbSpline
 70
0
 71
2
 72
6
 73
3
 74
0
 40
0.0
 40
0.0
 40
0.0
 40
1.0
 40
1.0
 40
1.0
 10
170.5253113204003
 20
296.717675821458
 30
0.0
 10
170.9453308516503
 20
296.507714883958
 30
0.0
 10
170.9903015547753
 20
295.952685587083
 30
0.0
  0
SPLINE
  5
B5
330
17
100
AcDbEntity
  8
ENGRAVE
100
AcDbSpline
 70
0
 71
2
 72
6
 73
3
 74
0
 40
0.0
 40
0.0
 40
0.0
 40
1.0
 40
1.0
 40
1.0
 10
172.2803406172753
 20
288.242675821458
 30
0.0
 10
171.6953308516503
 20
287.867675821458
 30
0.0
 10
171.2753113204003
 20
287.777636758958
 30
0.0
  0
SPLINE
  5
B6
330
17
100
AcDbEntity
  8
ENGRAVE
100
AcDbSpline
 70
0
 71
2
 72
6
 73
3
 74
0
 40
0.0
 40
0.0
 40
0.0
 40
1.0
 40
1.0
 40
1.0
 10
170.4653503829003
 20
289.787695352708
 30
0.0
 10
171.1552917891503
 20
289.937695352708
 30
0.0
 10
171.6953308516503
 20
290.447705118333
 30
0.0
  0
SPLINE
  5
B7
330
17
100
AcDbEntity
  8
ENGRAVE
100
AcDbSpline
 70
0
 71
2
 72
6
 73
3
 74
0
 40
0.0
 40
0.0
 40
0.0
 40
1.0
 40
1.0
 40
1.0
 10
173.4203308516503
 20
289.052685587083
 30
0.0
 10
172.86535038290032
 20
288.617675821458
 30
0.0
 10
172.2803406172753
 20
288.242675821458
 30
0.0
  0
SPLINE
  5
B8
330
17
100
AcDbEntity
  8
ENGRAVE
100
AcDbSpline
 70
0
 71
2
 72
6
 73
3
 74
0
 40
0.0
 40
0.0
 40
0.0
 40
1.0
 40
1.0
 40
1.0
 10
172.46032108602532
 20
299.327685587083
 30
0.0
 10
172.4153503829003
 20
300.137695352708
 30
0.0
 10
172.4303406172753
 20
301.007666055833
 30
0.0
  0
SPLINE
  5
B9
330
17
100
AcDbEntity
  8
ENGRAVE
100
AcDbSpline
 70
0
 71
2
 72
6
 73
3
 74
0
 40
0.0
 40
0.0
 40
0.0
 40
1.0
 40
1.0
 40
1.0
 10
172.61032108602532
 20
297.992675821458
 30
0.0
 10
172.5052917891503
 20
298.517675821458
 30
0.0
 10
172.46032108602532
 20
299.327685587083
 30
0.0
  0
SPLINE
  5
BA
330
17
100
AcDbEntity
  8
ENGRAVE
100
AcDbSpline
 70
0
 71
2
 72
6
 73
3
 74
0
 40
0.0
 40
0.0
 40
0.0
 40
1.0
 40
1.0
 40
1.0
 10
172.4303406172753
 20
301.007666055833
 30
0.0
 10
172.4453308516503
 20
301.877636758958
 30
0.0
 10
172.5052917891503
 20
302.597656290208
 30
0.0
  0
SPLINE
  5
BB
330
17
100
AcDbEntity
  8
ENGRAVE
100
AcDbSpline
 70
0
 71
2
 72
6
 73
3
 74
0
 40
0.0
 40
0.0
 40
0.0
 40
1.0
 40
1.0
 40
1.0
 10
172.8953308516503
 20
297.467675821458
 30
0.0
 10
172.7153503829003
 20
297.467675821458
 30
0.0
 10
172.61032108602532
 20
297.992675821458
 30
0.0
  0
SPLINE
  5
BC
330
17
100
AcDbEntity
  8
ENGRAVE
100
AcDbSpline
 70
0
 71
2
 72
6
 73
3
 74
0
 40
0.0
 40
0.0
 40
0.0
 40
1.0
 40
1.0
 40
1.0
 10
172.5052917891503
 20
302.597656290208
 30
0.0
 10
172.6253113204003
 20
303.107714883958
 30
0.0
 10
172.6253113204003
 20
303.722705118333
 30
0.0
  0
SPLINE
  5
BD
330
17
100
AcDbEntity
  8
ENGRAVE
100
AcDbSpline
 70
0
 71
2
 72
6
 73
3
 74
0
 40
0.0
 40
0.0
 40
0.0
 40
1.0
 40
1.0
 40
1.0
 10
171.6953308516503
 20
290.447705118333
 30
0.0
 10
172.2353699141503
 20
290.957714883958
 30
0.0
 10
172.6552917891503
 20
291.527636758958
 30
0.0
  0
SPLINE
  5
BE
330
17
100
AcDbEntity
  8
ENGRAVE
100
AcDbSpline
 70
0
 71
2
 72
6
 73
3
 74
0
 40
0.0
 40
0.0
 40
0.0
 40
1.0
 40
1.0
 40
1.0
 10
172.6253113204003
 20
303.722705118333
 30
0.0
 10
172.6253113204003
 20
304.337695352708
 30
0.0
 10
172.6552917891503
 20
304.697656290208
 30
0.0
  0
SPLINE
  5
BF
330
17
100
AcDbEntity
  8
ENGRAVE
100
AcDbSpline
 70
0
 71
2
 72
6
 73
3
 74
0
 40
0.0
 40
0.0
 40
0.0
 40
1.0
 40
1.0
 40
1.0
 10
172.6552917891503
 20
304.697656290208
 30
0.0
 10
172.6253113204003
 20
305.177636758958
 30
0.0
 10
172.85031132040032
 20
305.477636758958
 30
0.0
  0
SPLINE
  5
C0
330
17
100
AcDbEntity
  8
ENGRAVE
100
AcDbSpline
 70
0
 71
2
 72
6
 73
3
 74
0
 40
0.0
 40
0.0
 40
0.0
 40
1.0
 40
1.0
 40
1.0
 10
173.0903503829003
 20
296.462646524583
 30
0.0
 10
172.8353699141503
 20
296.927636758958
 30
0.0
 10
172.8953308516503
 20
297.137695352708
 30
0.0
  0
SPLINE
  5
C1
330
17
100
AcDbEntity
  8
ENGRAVE
100
AcDbSpline
 70
0
 71
2
 72
6
 73
3
 74
0
 40
0.0
 40
0.0
 40
0.0
 40
1.0
 40
1.0
 40
1.0
 10
173.7503113204003
 20
295.502685587083
 30
0.0
 10
173.34533085165032
 20
295.997656290208
 30
0.0
 10
173.0903503829003
 20
296.462646524583
 30
0.0
  0
SPLINE
  5
C2
330
17
100
AcDbEntity
  8
ENGRAVE
100
AcDbSpline
 70
0
 71
2
 72
6
 73
3
 74
0
 40
0.0
 40
0.0
 40
0.0
 40
1.0
 40
1.0
 40
1.0
 10
172.85031132040032
 20
305.477636758958
 30
0.0
 10
173.07531132040032
 20
305.777636758958
 30
0.0
 10
173.1953308516503
 20
305.867675821458
 30
0.0
  0
SPLINE
  5
C3
330
17
100
AcDbEntity
  8
ENGRAVE
100
AcDbSpline
 70
0
 71
2
 72
6
 73
3
 74
0
 40
0.0
 40
0.0
 40
0.0
 40
1.0
 40
1.0
 40
1.0
 10
174.2753113204003
 20
289.757714883958
 30
0.0
 10
173.97531132040032
 20
289.487695352708
 30
0.0
 10
173.4203308516503
 20
289.052685587083
 30
0.0
  0
SPLINE
  5
C4
330
17
100
AcDbEntity
  8
ENGRAVE
100
AcDbSpline
 70
0
 71
2
 72
6
 73
3
 74
0
 40
0.0
 40
0.0
 40
0.0
 40
1.0
 40
1.0
 40
1.0
 10
172.6552917891503
 20
291.527636758958
 30
0.0
 10
172.8953308516503
 20
291.887695352708
 30
0.0
 10
173.4353210860253
 20
292.787695352708
 30
0.0
  0
SPLINE
  5
C5
330
17
100
AcDbEntity
  8
ENGRAVE
100
AcDbSpline
 70
0
 71
2
 72
6
 73
3
 74
0
 40
0.0
 40
0.0
 40
0.0
 40
1.0
 40
1.0
 40
1.0
 10
174.57531132040032
 20
294.737695352708
 30
0.0
 10
174.1552917891503
 20
295.007714883958
 30
0.0
 10
173.7503113204003
 20
295.502685587083
 30
0.0
  0
SPLINE
  5
C6
330
17
100
AcDbEntity
  8
ENGRAVE
100
AcDbSpline
 70
0
 71
2
 72
6
 73
3
 74
0
 40
0.0
 40
0.0
 40
0.0
 40
1.0
 40
1.0
 40
1.0
 10
175.64035038290032
 20
291.632666055833
 30
0.0
 10
174.99533085165032
 20
290.627636758958
 30
0.0
 10
174.2753113204003
 20
289.757714883958
 30
0.0
  0
SPLINE
  5
C7
330
17
100
AcDbEntity
  8
ENGRAVE
100
AcDbSpline
 70
0
 71
2
 72
6
 73
3
 74
0
 40
0.0
 40
0.0
 40
0.0
 40
1.0
 40
1.0
 40
1.0
 10
173.4353210860253
 20
292.787695352708
 30
0.0
 10
173.97531132040032
 20
293.687695352708
 30
0.0
 10
174.57531132040032
 20
294.737695352708
 30
0.0
  0
SPLINE
  5
C8
330
17
100
AcDbEntity
  8
ENGRAVE
100
AcDbSpline
 70
0
 71
2
 72
6
 73
3
 74
0
 40
0.0
 40
0.0
 40
0.0
 40
1.0
 40
1.0
 40
1.0
 10
173.1953308516503
 20
305.867675821458
 30
0.0
 10
174.30529178915032
 20
306.347656290208
 30
0.0
 10
174.81530155477532
 20
305.357666055833
 30
0.0
  0
SPLINE
  5
C9
330
17
100
AcDbEntity
  8
ENGRAVE
100
AcDbSpline
 70
0
 71
2
 72
6
 73
3
 74
0
 40
0.0
 40
0.0
 40
0.0
 40
1.0
 40
1.0
 40
1.0
 10
175.1753113204003
 20
302.207714883958
 30
0.0
 10
175.0853699141503
 20
300.587695352708
 30
0.0
 10
175.1453308516503
 20
299.192675821458
 30
0.0
  0
SPLINE
  5
CA
330
17
100
AcDbEntity
  8
ENGRAVE
100
AcDbSpline
 70
0
 71
2
 72
6
 73
3
 74
0
 40
0.0
 40
0.0
 40
0.0
 40
1.0
 40
1.0
 40
1.0
 10
174.81530155477532
 20
305.357666055833
 30
0.0
 10
175.32531132040032
 20
304.367675821458
 30
0.0
 10
175.1753113204003
 20
302.207714883958
 30
0.0
  0
SPLINE
  5
CB
330
17
100
AcDbEntity
  8
ENGRAVE
100
AcDbSpline
 70
0
 71
2
 72
6
 73
3
 74
0
 40
0.0
 40
0.0
 40
0.0
 40
1.0
 40
1.0
 40
1.0
 10
176.97531132040032
 20
293.747656290208
 30
0.0
 10
176.28536991415032
 20
292.637695352708
 30
0.0
 10
175.64035038290032
 20
291.632666055833
 30
0.0
  0
SPLINE
  5
CC
330
17
100
AcDbEntity
  8
ENGRAVE
100
AcDbSpline
 70
0
 71
2
 72
6
 73
3
 74
0
 40
0.0
 40
0.0
 40
0.0
 40
1.0
 40
1.0
 40
1.0
 10
175.1453308516503
 20
299.192675821458
 30
0.0
 10
175.20529178915032
 20
297.797656290208
 30
0.0
 10
175.74533085165032
 20
297.167675821458
 30
0.0
  0
SPLINE
  5
CD
330
17
100
AcDbEntity
  8
ENGRAVE
100
AcDbSpline
 70
0
 71
2
 72
6
 73
3
 74
0
 40
0.0
 40
0.0
 40
0.0
 40
1.0
 40
1.0
 40
1.0
 10
175.74533085165032
 20
297.167675821458
 30
0.0
 10
175.8353699141503
 20
297.407714883958
 30
0.0
 10
175.9403503829003
 20
297.647705118333
 30
0.0
  0
SPLINE
  5
CE
330
17
100
AcDbEntity
  8
ENGRAVE
100
AcDbSpline
 70
0
 71
2
 72
6
 73
3
 74
0
 40
0.0
 40
0.0
 40
0.0
 40
1.0
 40
1.0
 40
1.0
 10
175.9403503829003
 20
297.647705118333
 30
0.0
 10
176.0453308516503
 20
297.887695352708
 30
0.0
 10
176.1953308516503
 20
298.067675821458
 30
0.0
  0
SPLINE
  5
CF
330
17
100
AcDbEntity
  8
ENGRAVE
100
AcDbSpline
 70
0
 71
2
 72
6
 73
3
 74
0
 40
0.0
 40
0.0
 40
0.0
 40
1.0
 40
1.0
 40
1.0
 10
176.1953308516503
 20
298.067675821458
 30
0.0
 10
176.3753113204003
 20
298.427636758958
 30
0.0
 10
176.5103210860253
 20
298.742675821458
 30
0.0
  0
SPLINE
  5
D0
330
17
100
AcDbEntity
  8
ENGRAVE
100
AcDbSpline
 70
0
 71
2
 72
6
 73
3
 74
0
 40
0.0
 40
0.0
 40
0.0
 40
1.0
 40
1.0
 40
1.0
 10
176.5103210860253
 20
298.742675821458
 30
0.0
 10
176.6453308516503
 20
299.057714883958
 30
0.0
 10
176.6753113204003
 20
299.177636758958
 30
0.0
  0
SPLINE
  5
D1
330
17
100
AcDbEntity
  8
ENGRAVE
100
AcDbSpline
 70
0
 71
2
 72
6
 73
3
 74
0
 40
0.0
 40
0.0
 40
0.0
 40
1.0
 40
1.0
 40
1.0
 10
176.6753113204003
 20
299.177636758958
 30
0.0
 10
176.70529178915032
 20
299.327636758958
 30
0.0
 10
176.9453308516503
 20
299.777636758958
 30
0.0
  0
SPLINE
  5
D2
330
17
100
AcDbEntity
  8
ENGRAVE
100
AcDbSpline
 70
0
 71
2
 72
6
 73
3
 74
0
 40
0.0
 40
0.0
 40
0.0
 40
1.0
 40
1.0
 40
1.0
 10
177.6052917891503
 20
295.217675821458
 30
0.0
 10
177.30529178915032
 20
294.587695352708
 30
0.0
 10
176.97531132040032
 20
293.747656290208
 30
0.0
  0
SPLINE
  5
D3
330
17
100
AcDbEntity
  8
ENGRAVE
100
AcDbSpline
 70
0
 71
2
 72
6
 73
3
 74
0
 40
0.0
 40
0.0
 40
0.0
 40
1.0
 40
1.0
 40
1.0
 10
176.9453308516503
 20
299.777636758958
 30
0.0
 10
177.1853699141503
 20
300.227636758958
 30
0.0
 10
177.3953308516503
 20
300.677636758958
 30
0.0
  0
SPLINE
  5
D4
330
17
100
AcDbEntity
  8
ENGRAVE
100
AcDbSpline
 70
0
 71
2
 72
6
 73
3
 74
0
 40
0.0
 40
0.0
 40
0.0
 40
1.0
 40
1.0
 40
1.0
 10
178.2953308516503
 20
296.597656290208
 30
0.0
 10
177.9052917891503
 20
295.847656290208
 30
0.0
 10
177.6052917891503
 20
295.217675821458
 30
0.0
  0
SPLINE
  5
D5
330
17
100
AcDbEntity
  8
ENGRAVE
100
AcDbSpline
 70
0
 71
2
 72
6
 73
3
 74
0
 40
0.0
 40
0.0
 40
0.0
 40
1.0
 40
1.0
 40
1.0
 10
177.3953308516503
 20
300.677636758958
 30
0.0
 10
177.5453308516503
 20
301.127636758958
 30
0.0
 10
177.84533085165032
 20
301.997656290208
 30
0.0
  0
SPLINE
  5
D6
330
17
100
AcDbEntity
  8
ENGRAVE
100
AcDbSpline
 70
0
 71
2
 72
6
 73
3
 74
0
 40
0.0
 40
0.0
 40
0.0
 40
1.0
 40
1.0
 40
1.0
 10
179.22531132040032
 20
298.547656290208
 30
0.0
 10
178.6853699141503
 20
297.347656290208
 30
0.0
 10
178.2953308516503
 20
296.597656290208
 30
0.0
  0
SPLINE
  5
D7
330
17
100
AcDbEntity
  8
ENGRAVE
100
AcDbSpline
 70
0
 71
2
 72
6
 73
3
 74
0
 40
0.0
 40
0.0
 40
0.0
 40
1.0
 40
1.0
 40
1.0
 10
177.84533085165032
 20
301.997656290208
 30
0.0
 10
178.1453308516503
 20
302.867675821458
 30
0.0
 10
178.4453308516503
 20
303.407714883958
 30
0.0
  0
SPLINE
  5
D8
330
17
100
AcDbEntity
  8
ENGRAVE
100
AcDbSpline
 70
0
 71
2
 72
6
 73
3
 74
0
 40
0.0
 40
0.0
 40
0.0
 40
1.0
 40
1.0
 40
1.0
 10
178.4453308516503
 20
303.407714883958
 30
0.0
 10
178.80529178915032
 20
304.097656290208
 30
0.0
 10
179.0302917891503
 20
304.532666055833
 30
0.0
  0
SPLINE
  5
D9
330
17
100
AcDbEntity
  8
ENGRAVE
100
AcDbSpline
 70
0
 71
2
 72
6
 73
3
 74
0
 40
0.0
 40
0.0
 40
0.0
 40
1.0
 40
1.0
 40
1.0
 10
179.5703308516503
 20
299.342675821458
 30
0.0
 10
179.3753113204003
 20
298.907714883958
 30
0.0
 10
179.22531132040032
 20
298.547656290208
 30
0.0
  0
SPLINE
  5
DA
330
17
100
AcDbEntity
  8
ENGRAVE
100
AcDbSpline
 70
0
 71
2
 72
6
 73
3
 74
0
 40
0.0
 40
0.0
 40
0.0
 40
1.0
 40
1.0
 40
1.0
 10
179.0302917891503
 20
304.532666055833
 30
0.0
 10
179.2552917891503
 20
304.967675821458
 30
0.0
 10
179.5253113204003
 20
305.057714883958
 30
0.0
  0
SPLINE
  5
DB
330
17
100
AcDbEntity
  8
ENGRAVE
100
AcDbSpline
 70
0
 71
2
 72
6
 73
3
 74
0
 40
0.0
 40
0.0
 40
0.0
 40
1.0
 40
1.0
 40
1.0
 10
179.9153503829003
 20
300.137695352708
 30
0.0
 10
179.76535038290032
 20
299.777636758958
 30
0.0
 10
179.5703308516503
 20
299.342675821458
 30
0.0
  0
SPLINE
  5
DC
330
17
100
AcDbEntity
  8
ENGRAVE
100
AcDbSpline
 70
0
 71
2
 72
6
 73
3
 74
0
 40
0.0
 40
0.0
 40
0.0
 40
1.0
 40
1.0
 40
1.0
 10
180.3503601485253
 20
300.902685587083
 30
0.0
 10
180.0653503829003
 20
300.317675821458
 30
0.0
 10
179.9153503829003
 20
300.137695352708
 30
0.0
  0
SPLINE
  5
DD
330
17
100
AcDbEntity
  8
ENGRAVE
100
AcDbSpline
 70
0
 71
2
 72
6
 73
3
 74
0
 40
0.0
 40
0.0
 40
0.0
 40
1.0
 40
1.0
 40
1.0
 10
180.8753113204003
 20
302.207714883958
 30
0.0
 10
180.63536991415032
 20
301.487695352708
 30
0.0
 10
180.3503601485253
 20
300.902685587083
 30
0.0
  0
SPLINE
  5
DE
330
17
100
AcDbEntity
  8
ENGRAVE
100
AcDbSpline
 70
0
 71
2
 72
6
 73
3
 74
0
 40
0.0
 40
0.0
 40
0.0
 40
1.0
 40
1.0
 40
1.0
 10
179.5253113204003
 20
305.057714883958
 30
0.0
 10
180.0052917891503
 20
305.417675821458
 30
0.0
 10
180.6052917891503
 20
305.087695352708
 30
0.0
  0
SPLINE
  5
DF
330
17
100
AcDbEntity
  8
ENGRAVE
100
AcDbSpline
 70
0
 71
2
 72
6
 73
3
 74
0
 40
0.0
 40
0.0
 40
0.0
 40
1.0
 40
1.0
 40
1.0
 10
181.37033085165032
 20
303.542675821458
 30
0.0
 10
181.32531132040032
 20
303.047656290208
 30
0.0
 10
180.8753113204003
 20
302.207714883958
 30
0.0
  0
SPLINE
  5
E0
330
17
100
AcDbEntity
  8
ENGRAVE
100
AcDbSpline
 70
0
 71
2
 72
6
 73
3
 74
0
 40
0.0
 40
0.0
 40
0.0
 40
1.0
 40
1.0
 40
1.0
 10
180.6052917891503
 20
305.087695352708
 30
0.0
 10
180.9653503829003
 20
304.727636758958
 30
0.0
 10
181.1903503829003
 20
304.382666055833
 30
0.0
  0
SPLINE
  5
E1
330
17
100
AcDbEntity
  8
ENGRAVE
100
AcDbSpline
 70
0
 71
2
 72
6
 73
3
 74
0
 40
0.0
 40
0.0
 40
0.0
 40
1.0
 40
1.0
 40
1.0
 10
181.1903503829003
 20
304.382666055833
 30
0.0
 10
181.4153503829003
 20
304.037695352708
 30
0.0
 10
181.37033085165032
 20
303.542675821458
 30
0.0
  0
SPLINE
  5
E2
330
17
100
AcDbEntity
  8
ENGRAVE
100
AcDbSpline
 70
0
 71
2
 72
6
 73
3
 74
0
 40
0.0
 40
0.0
 40
0.0
 40
1.0
 40
1.0
 40
1.0
 10
184.10031132040032
 20
306.932714883958
 30
0.0
 10
183.8153503829003
 20
307.007714883958
 30
0.0
 10
183.6052917891503
 20
307.187695352708
 30
0.0
  0
SPLINE
  5
E3
330
17
100
AcDbEntity
  8
ENGRAVE
100
AcDbSpline
 70
0
 71
2
 72
6
 73
3
 74
0
 40
0.0
 40
0.0
 40
0.0
 40
1.0
 40
1.0
 40
1.0
 10
183.6052917891503
 20
307.187695352708
 30
0.0
 10
183.51535038290032
 20
307.517675821458
 30
0.0
 10
183.6653503829003
 20
307.862695352708
 30
0.0
  0
SPLINE
  5
E4
330
17
100
AcDbEntity
  8
ENGRAVE
100
AcDbSpline
 70
0
 71
2
 72
6
 73
3
 74
0
 40
0.0
 40
0.0
 40
0.0
 40
1.0
 40
1.0
 40
1.0
 10
183.6653503829003
 20
307.862695352708
 30
0.0
 10
183.8153503829003
 20
308.207714883958
 30
0.0
 10
183.9653503829003
 20
308.417675821458
 30
0.0
  0
SPLINE
  5
E5
330
17
100
AcDbEntity
  8
ENGRAVE
100
AcDbSpline
 70
0
 71
2
 72
6
 73
3
 74
0
 40
0.0
 40
0.0
 40
0.0
 40
1.0
 40
1.0
 40
1.0
 10
184.86535038290032
 20
306.947656290208
 30
0.0
 10
184.3852722579003
 20
306.857714883958
 30
0.0
 10
184.10031132040032
 20
306.932714883958
 30
0.0
  0
SPLINE
  5
E6
330
17
100
AcDbEntity
  8
ENGRAVE
100
AcDbSpline
 70
0
 71
2
 72
6
 73
3
 74
0
 40
0.0
 40
0.0
 40
0.0
 40
1.0
 40
1.0
 40
1.0
 10
183.9653503829003
 20
308.417675821458
 30
0.0
 10
184.32531132040032
 20
309.017675821458
 30
0.0
 10
184.7903015547753
 20
309.842675821458
 30
0.0
  0
SPLINE
  5
E7
330
17
100
AcDbEntity
  8
ENGRAVE
100
AcDbSpline
 70
0
 71
2
 72
6
 73
3
 74
0
 40
0.0
 40
0.0
 40
0.0
 40
1.0
 40
1.0
 40
1.0
 10
185.4053406172753
 20
307.097656290208
 30
0.0
 10
185.1953308516503
 20
307.067675821458
 30
0.0
 10
184.86535038290032
 20
306.947656290208
 30
0.0
  0
SPLINE
  5
E8
330
17
100
AcDbEntity
  8
ENGRAVE
100
AcDbSpline
 70
0
 71
2
 72
6
 73
3
 74
0
 40
0.0
 40
0.0
 40
0.0
 40
1.0
 40
1.0
 40
1.0
 10
185.5403015547753
 20
294.722705118333
 30
0.0
 10
185.07531132040032
 20
295.187695352708
 30
0.0
 10
185.16525272665032
 20
295.547656290208
 30
0.0
  0
SPLINE
  5
E9
330
17
100
AcDbEntity
  8
ENGRAVE
100
AcDbSpline
 70
0
 71
2
 72
6
 73
3
 74
0
 40
0.0
 40
0.0
 40
0.0
 40
1.0
 40
1.0
 40
1.0
 10
185.16525272665032
 20
295.547656290208
 30
0.0
 10
185.22531132040032
 20
295.727636758958
 30
0.0
 10
185.37531132040033
 20
295.877636758958
 30
0.0
  0
SPLINE
  5
EA
330
17
100
AcDbEntity
  8
ENGRAVE
100
AcDbSpline
 70
0
 71
2
 72
6
 73
3
 74
0
 40
0.0
 40
0.0
 40
0.0
 40
1.0
 40
1.0
 40
1.0
 10
184.7903015547753
 20
309.842675821458
 30
0.0
 10
185.2552917891503
 20
310.667675821458
 30
0.0
 10
185.4052917891503
 20
311.117675821458
 30
0.0
  0
SPLINE
  5
EB
330
17
100
AcDbEntity
  8
ENGRAVE
100
AcDbSpline
 70
0
 71
2
 72
6
 73
3
 74
0
 40
0.0
 40
0.0
 40
0.0
 40
1.0
 40
1.0
 40
1.0
 10
185.5852722579003
 20
307.247656290208
 30
0.0
 10
185.61535038290032
 20
307.127636758958
 30
0.0
 10
185.4053406172753
 20
307.097656290208
 30
0.0
  0
SPLINE
  5
EC
330
17
100
AcDbEntity
  8
ENGRAVE
100
AcDbSpline
 70
0
 71
2
 72
6
 73
3
 74
0
 40
0.0
 40
0.0
 40
0.0
 40
1.0
 40
1.0
 40
1.0
 10
187.02531132040033
 20
293.837695352708
 30
0.0
 10
186.00529178915033
 20
294.257714883958
 30
0.0
 10
185.5403015547753
 20
294.722705118333
 30
0.0
  0
SPLINE
  5
ED
330
17
100
AcDbEntity
  8
ENGRAVE
100
AcDbSpline
 70
0
 71
2
 72
6
 73
3
 74
0
 40
0.0
 40
0.0
 40
0.0
 40
1.0
 40
1.0
 40
1.0
 10
186.57531132040032
 20
308.552685587083
 30
0.0
 10
186.09533085165032
 20
307.847656290208
 30
0.0
 10
185.5852722579003
 20
307.247656290208
 30
0.0
  0
SPLINE
  5
EE
330
17
100
AcDbEntity
  8
ENGRAVE
100
AcDbSpline
 70
0
 71
2
 72
6
 73
3
 74
0
 40
0.0
 40
0.0
 40
0.0
 40
1.0
 40
1.0
 40
1.0
 10
185.4052917891503
 20
311.117675821458
 30
0.0
 10
185.4653503829003
 20
311.447656290208
 30
0.0
 10
185.60031132040032
 20
311.972656290208
 30
0.0
  0
SPLINE
  5
EF
330
17
100
AcDbEntity
  8
ENGRAVE
100
AcDbSpline
 70
0
 71
2
 72
6
 73
3
 74
0
 40
0.0
 40
0.0
 40
0.0
 40
1.0
 40
1.0
 40
1.0
 10
185.60031132040032
 20
311.972656290208
 30
0.0
 10
185.7352722579003
 20
312.497656290208
 30
0.0
 10
185.7352722579003
 20
313.067675821458
 30
0.0
  0
SPLINE
  5
F0
330
17
100
AcDbEntity
  8
ENGRAVE
100
AcDbSpline
 70
0
 71
2
 72
6
 73
3
 74
0
 40
0.0
 40
0.0
 40
0.0
 40
1.0
 40
1.0
 40
1.0
 10
185.7352722579003
 20
313.067675821458
 30
0.0
 10
185.7352722579003
 20
313.217675821458
 30
0.0
 10
185.81027225790032
 20
313.547656290208
 30
0.0
  0
SPLINE
  5
F1
330
17
100
AcDbEntity
  8
ENGRAVE
100
AcDbSpline
 70
0
 71
2
 72
6
 73
3
 74
0
 40
0.0
 40
0.0
 40
0.0
 40
1.0
 40
1.0
 40
1.0
 10
186.03527225790032
 20
299.582666055833
 30
0.0
 10
185.85529178915033
 20
300.167675821458
 30
0.0
 10
185.85529178915033
 20
300.647656290208
 30
0.0
  0
SPLINE
  5
F2
330
17
100
AcDbEntity
  8
ENGRAVE
100
AcDbSpline
 70
0
 71
2
 72
6
 73
3
 74
0
 40
0.0
 40
0.0
 40
0.0
 40
1.0
 40
1.0
 40
1.0
 10
186.4253113204003
 20
298.997656290208
 30
0.0
 10
186.21525272665033
 20
298.997656290208
 30
0.0
 10
186.03527225790032
 20
299.582666055833
 30
0.0
  0
SPLINE
  5
F3
330
17
100
AcDbEntity
  8
ENGRAVE
100
AcDbSpline
 70
0
 71
2
 72
6
 73
3
 74
0
 40
0.0
 40
0.0
 40
0.0
 40
1.0
 40
1.0
 40
1.0
 10
185.81027225790032
 20
313.547656290208
 30
0.0
 10
185.8852722579003
 20
313.877636758958
 30
0.0
 10
186.03527225790032
 20
314.147656290208
 30
0.0
  0
SPLINE
  5
F4
330
17
100
AcDbEntity
  8
ENGRAVE
100
AcDbSpline
 70
0
 71
2
 72
6
 73
3
 74
0
 40
0.0
 40
0.0
 40
0.0
 40
1.0
 40
1.0
 40
1.0
 10
185.37531132040033
 20
295.877636758958
 30
0.0
 10
185.52531132040033
 20
296.027636758958
 30
0.0
 10
186.0503113204003
 20
296.012646524583
 30
0.0
  0
SPLINE
  5
F5
330
17
100
AcDbEntity
  8
ENGRAVE
100
AcDbSpline
 70
0
 71
2
 72
6
 73
3
 74
0
 40
0.0
 40
0.0
 40
0.0
 40
1.0
 40
1.0
 40
1.0
 10
186.03527225790032
 20
314.147656290208
 30
0.0
 10
186.18527225790032
 20
314.417675821458
 30
0.0
 10
186.3352722579003
 20
314.327636758958
 30
0.0
  0
SPLINE
  5
F6
330
17
100
AcDbEntity
  8
ENGRAVE
100
AcDbSpline
 70
0
 71
2
 72
6
 73
3
 74
0
 40
0.0
 40
0.0
 40
0.0
 40
1.0
 40
1.0
 40
1.0
 10
185.85529178915033
 20
300.647656290208
 30
0.0
 10
185.85529178915033
 20
301.547656290208
 30
0.0
 10
186.41027225790032
 20
302.417675821458
 30
0.0
  0
SPLINE
  5
F7
330
17
100
AcDbEntity
  8
ENGRAVE
100
AcDbSpline
 70
0
 71
2
 72
6
 73
3
 74
0
 40
0.0
 40
0.0
 40
0.0
 40
1.0
 40
1.0
 40
1.0
 10
186.84528202352533
 20
298.217675821458
 30
0.0
 10
186.30529178915032
 20
298.637695352708
 30
0.0
 10
186.4253113204003
 20
298.847656290208
 30
0.0
  0
SPLINE
  5
F8
330
17
100
AcDbEntity
  8
ENGRAVE
100
AcDbSpline
 70
0
 71
2
 72
6
 73
3
 74
0
 40
0.0
 40
0.0
 40
0.0
 40
1.0
 40
1.0
 40
1.0
 10
187.2352722579003
 20
309.917675821458
 30
0.0
 10
187.05529178915032
 20
309.257714883958
 30
0.0
 10
186.57531132040032
 20
308.552685587083
 30
0.0
  0
SPLINE
  5
F9
330
17
100
AcDbEntity
  8
ENGRAVE
100
AcDbSpline
 70
0
 71
2
 72
6
 73
3
 74
0
 40
0.0
 40
0.0
 40
0.0
 40
1.0
 40
1.0
 40
1.0
 10
188.04523319540033
 20
297.257714883958
 30
0.0
 10
187.3852722579003
 20
297.797656290208
 30
0.0
 10
186.84528202352533
 20
298.217675821458
 30
0.0
  0
SPLINE
  5
FA
330
17
100
AcDbEntity
  8
ENGRAVE
100
AcDbSpline
 70
0
 71
2
 72
6
 73
3
 74
0
 40
0.0
 40
0.0
 40
0.0
 40
1.0
 40
1.0
 40
1.0
 10
188.42023319540033
 20
293.582666055833
 30
0.0
 10
187.5952331954003
 20
293.597656290208
 30
0.0
 10
187.02531132040033
 20
293.837695352708
 30
0.0
  0
SPLINE
  5
FB
330
17
100
AcDbEntity
  8
ENGRAVE
100
AcDbSpline
 70
0
 71
2
 72
6
 73
3
 74
0
 40
0.0
 40
0.0
 40
0.0
 40
1.0
 40
1.0
 40
1.0
 10
186.3352722579003
 20
314.327636758958
 30
0.0
 10
186.6052917891503
 20
314.207714883958
 30
0.0
 10
187.0253113204003
 20
313.997705118333
 30
0.0
  0
SPLINE
  5
FC
330
17
100
AcDbEntity
  8
ENGRAVE
100
AcDbSpline
 70
0
 71
2
 72
6
 73
3
 74
0
 40
0.0
 40
0.0
 40
0.0
 40
1.0
 40
1.0
 40
1.0
 10
187.6853210860253
 20
311.357666055833
 30
0.0
 10
187.4153503829003
 20
310.517675821458
 30
0.0
 10
187.2352722579003
 20
309.917675821458
 30
0.0
  0
SPLINE
  5
FD
330
17
100
AcDbEntity
  8
ENGRAVE
100
AcDbSpline
 70
0
 71
2
 72
6
 73
3
 74
0
 40
0.0
 40
0.0
 40
0.0
 40
1.0
 40
1.0
 40
1.0
 10
186.41027225790032
 20
302.417675821458
 30
0.0
 10
186.96525272665033
 20
303.287695352708
 30
0.0
 10
187.5952331954003
 20
303.947656290208
 30
0.0
  0
SPLINE
  5
FE
330
17
100
AcDbEntity
  8
ENGRAVE
100
AcDbSpline
 70
0
 71
2
 72
6
 73
3
 74
0
 40
0.0
 40
0.0
 40
0.0
 40
1.0
 40
1.0
 40
1.0
 10
186.0503113204003
 20
296.012646524583
 30
0.0
 10
186.57531132040032
 20
295.997656290208
 30
0.0
 10
187.68527225790032
 20
295.727636758958
 30
0.0
  0
SPLINE
  5
FF
330
17
100
AcDbEntity
  8
ENGRAVE
100
AcDbSpline
 70
0
 71
2
 72
6
 73
3
 74
0
 40
0.0
 40
0.0
 40
0.0
 40
1.0
 40
1.0
 40
1.0
 10
188.01535038290032
 20
312.917675821458
 30
0.0
 10
187.95529178915032
 20
312.197656290208
 30
0.0
 10
187.6853210860253
 20
311.357666055833
 30
0.0
  0
SPLINE
  5
100
330
17
100
AcDbEntity
  8
ENGRAVE
100
AcDbSpline
 70
0
 71
2
 72
6
 73
3
 74
0
 40
0.0
 40
0.0
 40
0.0
 40
1.0
 40
1.0
 40
1.0
 10
187.0253113204003
 20
313.997705118333
 30
0.0
 10
187.4453308516503
 20
313.787695352708
 30
0.0
 10
187.7603210860253
 20
313.517675821458
 30
0.0
  0
SPLINE
  5
101
330
17
100
AcDbEntity
  8
ENGRAVE
100
AcDbSpline
 70
0
 71
2
 72
6
 73
3
 74
0
 40
0.0
 40
0.0
 40
0.0
 40
1.0
 40
1.0
 40
1.0
 10
187.7603210860253
 20
313.517675821458
 30
0.0
 10
188.07531132040032
 20
313.247656290208
 30
0.0
 10
188.01535038290032
 20
312.917675821458
 30
0.0
  0
SPLINE
  5
102
330
17
100
AcDbEntity
  8
ENGRAVE
100
AcDbSpline
 70
0
 71
2
 72
6
 73
3
 74
0
 40
0.0
 40
0.0
 40
0.0
 40
1.0
 40
1.0
 40
1.0
 10
188.5102722579003
 20
296.927636758958
 30
0.0
 10
188.31525272665033
 20
297.077636758958
 30
0.0
 10
188.04523319540033
 20
297.257714883958
 30
0.0
  0
SPLINE
  5
103
330
17
100
AcDbEntity
  8
ENGRAVE
100
AcDbSpline
 70
0
 71
2
 72
6
 73
3
 74
0
 40
0.0
 40
0.0
 40
0.0
 40
1.0
 40
1.0
 40
1.0
 10
189.99523319540032
 20
293.702685587083
 30
0.0
 10
189.24523319540032
 20
293.567675821458
 30
0.0
 10
188.42023319540033
 20
293.582666055833
 30
0.0
  0
SPLINE
  5
104
330
17
100
AcDbEntity
  8
ENGRAVE
100
AcDbSpline
 70
0
 71
2
 72
6
 73
3
 74
0
 40
0.0
 40
0.0
 40
0.0
 40
1.0
 40
1.0
 40
1.0
 10
188.54025272665032
 20
300.842675821458
 30
0.0
 10
188.43527225790032
 20
300.617675821458
 30
0.0
 10
188.46525272665033
 20
300.377636758958
 30
0.0
  0
SPLINE
  5
105
330
17
100
AcDbEntity
  8
ENGRAVE
100
AcDbSpline
 70
0
 71
2
 72
6
 73
3
 74
0
 40
0.0
 40
0.0
 40
0.0
 40
1.0
 40
1.0
 40
1.0
 10
188.76525272665032
 20
296.627636758958
 30
0.0
 10
188.70529178915032
 20
296.777636758958
 30
0.0
 10
188.5102722579003
 20
296.927636758958
 30
0.0
  0
SPLINE
  5
106
330
17
100
AcDbEntity
  8
ENGRAVE
100
AcDbSpline
 70
0
 71
2
 72
6
 73
3
 74
0
 40
0.0
 40
0.0
 40
0.0
 40
1.0
 40
1.0
 40
1.0
 10
188.6753113204003
 20
301.337695352708
 30
0.0
 10
188.64523319540032
 20
301.067675821458
 30
0.0
 10
188.54025272665032
 20
300.842675821458
 30
0.0
  0
SPLINE
  5
107
330
17
100
AcDbEntity
  8
ENGRAVE
100
AcDbSpline
 70
0
 71
2
 72
6
 73
3
 74
0
 40
0.0
 40
0.0
 40
0.0
 40
1.0
 40
1.0
 40
1.0
 10
187.68527225790032
 20
295.727636758958
 30
0.0
 10
188.19523319540033
 20
295.727636758958
 30
0.0
 10
188.66027225790032
 20
295.787646524583
 30
0.0
  0
SPLINE
  5
108
330
17
100
AcDbEntity
  8
ENGRAVE
100
AcDbSpline
 70
0
 71
2
 72
6
 73
3
 74
0
 40
0.0
 40
0.0
 40
0.0
 40
1.0
 40
1.0
 40
1.0
 10
189.1552917891503
 20
301.997656290208
 30
0.0
 10
188.85529178915033
 20
301.577636758958
 30
0.0
 10
188.6753113204003
 20
301.337695352708
 30
0.0
  0
SPLINE
  5
109
330
17
100
AcDbEntity
  8
ENGRAVE
100
AcDbSpline
 70
0
 71
2
 72
6
 73
3
 74
0
 40
0.0
 40
0.0
 40
0.0
 40
1.0
 40
1.0
 40
1.0
 10
189.30529178915032
 20
296.387695352708
 30
0.0
 10
189.06525272665033
 20
296.627636758958
 30
0.0
 10
188.76525272665032
 20
296.627636758958
 30
0.0
  0
SPLINE
  5
10A
330
17
100
AcDbEntity
  8
ENGRAVE
100
AcDbSpline
 70
0
 71
2
 72
6
 73
3
 74
0
 40
0.0
 40
0.0
 40
0.0
 40
1.0
 40
1.0
 40
1.0
 10
188.46525272665033
 20
300.377636758958
 30
0.0
 10
188.49523319540032
 20
300.077636758958
 30
0.0
 10
188.76525272665032
 20
299.807666055833
 30
0.0
  0
SPLINE
  5
10B
330
17
100
AcDbEntity
  8
ENGRAVE
100
AcDbSpline
 70
0
 71
2
 72
6
 73
3
 74
0
 40
0.0
 40
0.0
 40
0.0
 40
1.0
 40
1.0
 40
1.0
 10
189.69528202352532
 20
302.702685587083
 30
0.0
 10
189.45529178915032
 20
302.417675821458
 30
0.0
 10
189.1552917891503
 20
301.997656290208
 30
0.0
  0
SPLINE
  5
10C
330
17
100
AcDbEntity
  8
ENGRAVE
100
AcDbSpline
 70
0
 71
2
 72
6
 73
3
 74
0
 40
0.0
 40
0.0
 40
0.0
 40
1.0
 40
1.0
 40
1.0
 10
189.51530155477533
 20
296.162695352708
 30
0.0
 10
189.45529178915032
 20
296.267675821458
 30
0.0
 10
189.30529178915032
 20
296.387695352708
 30
0.0
  0
SPLINE
  5
10D
330
17
100
AcDbEntity
  8
ENGRAVE
100
AcDbSpline
 70
0
 71
2
 72
6
 73
3
 74
0
 40
0.0
 40
0.0
 40
0.0
 40
1.0
 40
1.0
 40
1.0
 10
188.66027225790032
 20
295.787646524583
 30
0.0
 10
189.12531132040033
 20
295.847656290208
 30
0.0
 10
189.4253113204003
 20
295.997656290208
 30
0.0
  0
SPLINE
  5
10E
330
17
100
AcDbEntity
  8
ENGRAVE
100
AcDbSpline
 70
0
 71
2
 72
6
 73
3
 74
0
 40
0.0
 40
0.0
 40
0.0
 40
1.0
 40
1.0
 40
1.0
 10
187.5952331954003
 20
303.947656290208
 30
0.0
 10
188.43527225790032
 20
304.757714883958
 30
0.0
 10
189.48527225790033
 20
305.507714883958
 30
0.0
  0
SPLINE
  5
10F
330
17
100
AcDbEntity
  8
ENGRAVE
100
AcDbSpline
 70
0
 71
2
 72
6
 73
3
 74
0
 40
0.0
 40
0.0
 40
0.0
 40
1.0
 40
1.0
 40
1.0
 10
189.4253113204003
 20
295.997656290208
 30
0.0
 10
189.57531132040032
 20
296.057714883958
 30
0.0
 10
189.51530155477533
 20
296.162695352708
 30
0.0
  0
SPLINE
  5
110
330
17
100
AcDbEntity
  8
ENGRAVE
100
AcDbSpline
 70
0
 71
2
 72
6
 73
3
 74
0
 40
0.0
 40
0.0
 40
0.0
 40
1.0
 40
1.0
 40
1.0
 10
188.76525272665032
 20
299.807666055833
 30
0.0
 10
189.03527225790032
 20
299.537695352708
 30
0.0
 10
189.54523319540033
 20
299.117675821458
 30
0.0
  0
SPLINE
  5
111
330
17
100
AcDbEntity
  8
ENGRAVE
100
AcDbSpline
 70
0
 71
2
 72
6
 73
3
 74
0
 40
0.0
 40
0.0
 40
0.0
 40
1.0
 40
1.0
 40
1.0
 10
189.93527225790032
 20
302.837695352708
 30
0.0
 10
189.93527225790032
 20
302.987695352708
 30
0.0
 10
189.69528202352532
 20
302.702685587083
 30
0.0
  0
SPLINE
  5
112
330
17
100
AcDbEntity
  8
ENGRAVE
100
AcDbSpline
 70
0
 71
2
 72
6
 73
3
 74
0
 40
0.0
 40
0.0
 40
0.0
 40
1.0
 40
1.0
 40
1.0
 10
190.10026249227533
 20
302.897705118333
 30
0.0
 10
190.05529178915032
 20
302.837695352708
 30
0.0
 10
189.93527225790032
 20
302.837695352708
 30
0.0
  0
SPLINE
  5
113
330
17
100
AcDbEntity
  8
ENGRAVE
100
AcDbSpline
 70
0
 71
2
 72
6
 73
3
 74
0
 40
0.0
 40
0.0
 40
0.0
 40
1.0
 40
1.0
 40
1.0
 10
191.04523319540033
 20
293.987695352708
 30
0.0
 10
190.74523319540032
 20
293.837695352708
 30
0.0
 10
189.99523319540032
 20
293.702685587083
 30
0.0
  0
SPLINE
  5
114
330
17
100
AcDbEntity
  8
ENGRAVE
100
AcDbSpline
 70
0
 71
2
 72
6
 73
3
 74
0
 40
0.0
 40
0.0
 40
0.0
 40
1.0
 40
1.0
 40
1.0
 10
190.26525272665032
 20
303.167675821458
 30
0.0
 10
190.14523319540032
 20
302.957714883958
 30
0.0
 10
190.10026249227533
 20
302.897705118333
 30
0.0
  0
SPLINE
  5
115
330
17
100
AcDbEntity
  8
ENGRAVE
100
AcDbSpline
 70
0
 71
2
 72
6
 73
3
 74
0
 40
0.0
 40
0.0
 40
0.0
 40
1.0
 40
1.0
 40
1.0
 10
191.1052429610253
 20
303.782666055833
 30
0.0
 10
190.56525272665033
 20
303.437695352708
 30
0.0
 10
190.26525272665032
 20
303.167675821458
 30
0.0
  0
SPLINE
  5
116
330
17
100
AcDbEntity
  8
ENGRAVE
100
AcDbSpline
 70
0
 71
2
 72
6
 73
3
 74
0
 40
0.0
 40
0.0
 40
0.0
 40
1.0
 40
1.0
 40
1.0
 10
192.24528202352533
 20
295.022656290208
 30
0.0
 10
191.85529178915033
 20
294.347656290208
 30
0.0
 10
191.04523319540033
 20
293.987695352708
 30
0.0
  0
SPLINE
  5
117
330
17
100
AcDbEntity
  8
ENGRAVE
100
AcDbSpline
 70
0
 71
2
 72
6
 73
3
 74
0
 40
0.0
 40
0.0
 40
0.0
 40
1.0
 40
1.0
 40
1.0
 10
192.14025272665032
 20
304.367675821458
 30
0.0
 10
191.64523319540032
 20
304.127636758958
 30
0.0
 10
191.1052429610253
 20
303.782666055833
 30
0.0
  0
SPLINE
  5
118
330
17
100
AcDbEntity
  8
ENGRAVE
100
AcDbSpline
 70
0
 71
2
 72
6
 73
3
 74
0
 40
0.0
 40
0.0
 40
0.0
 40
1.0
 40
1.0
 40
1.0
 10
189.54523319540033
 20
299.117675821458
 30
0.0
 10
190.5952331954003
 20
298.337695352708
 30
0.0
 10
191.12023319540032
 20
297.887695352708
 30
0.0
  0
SPLINE
  5
119
330
17
100
AcDbEntity
  8
ENGRAVE
100
AcDbSpline
 70
0
 71
2
 72
6
 73
3
 74
0
 40
0.0
 40
0.0
 40
0.0
 40
1.0
 40
1.0
 40
1.0
 10
191.12023319540032
 20
297.887695352708
 30
0.0
 10
191.64523319540032
 20
297.437695352708
 30
0.0
 10
191.8552429610253
 20
297.167675821458
 30
0.0
  0
SPLINE
  5
11A
330
17
100
AcDbEntity
  8
ENGRAVE
100
AcDbSpline
 70
0
 71
2
 72
6
 73
3
 74
0
 40
0.0
 40
0.0
 40
0.0
 40
1.0
 40
1.0
 40
1.0
 10
189.48527225790033
 20
305.507714883958
 30
0.0
 10
190.53527225790032
 20
306.257714883958
 30
0.0
 10
191.91525272665032
 20
306.617675821458
 30
0.0
  0
SPLINE
  5
11B
330
17
100
AcDbEntity
  8
ENGRAVE
100
AcDbSpline
 70
0
 71
2
 72
6
 73
3
 74
0
 40
0.0
 40
0.0
 40
0.0
 40
1.0
 40
1.0
 40
1.0
 10
192.02023319540032
 20
302.042675821458
 30
0.0
 10
191.94523319540033
 20
302.177636758958
 30
0.0
 10
191.94523319540033
 20
302.297656290208
 30
0.0
  0
SPLINE
  5
11C
330
17
100
AcDbEntity
  8
ENGRAVE
100
AcDbSpline
 70
0
 71
2
 72
6
 73
3
 74
0
 40
0.0
 40
0.0
 40
0.0
 40
1.0
 40
1.0
 40
1.0
 10
192.0952331954003
 20
301.907714883958
 30
0.0
 10
192.0952331954003
 20
301.907714883958
 30
0.0
 10
192.02023319540032
 20
302.042675821458
 30
0.0
  0
SPLINE
  5
11D
330
17
100
AcDbEntity
  8
ENGRAVE
100
AcDbSpline
 70
0
 71
2
 72
6
 73
3
 74
0
 40
0.0
 40
0.0
 40
0.0
 40
1.0
 40
1.0
 40
1.0
 10
191.94523319540033
 20
302.297656290208
 30
0.0
 10
191.94523319540033
 20
302.417675821458
 30
0.0
 10
192.03527225790032
 20
302.522656290208
 30
0.0
  0
SPLINE
  5
11E
330
17
100
AcDbEntity
  8
ENGRAVE
100
AcDbSpline
 70
0
 71
2
 72
6
 73
3
 74
0
 40
0.0
 40
0.0
 40
0.0
 40
1.0
 40
1.0
 40
1.0
 10
192.3652527266503
 20
301.607666055833
 30
0.0
 10
192.21525272665033
 20
301.727636758958
 30
0.0
 10
192.0952331954003
 20
301.907714883958
 30
0.0
  0
SPLINE
  5
11F
330
17
100
AcDbEntity
  8
ENGRAVE
100
AcDbSpline
 70
0
 71
2
 72
6
 73
3
 74
0
 40
0.0
 40
0.0
 40
0.0
 40
1.0
 40
1.0
 40
1.0
 10
191.8552429610253
 20
297.167675821458
 30
0.0
 10
192.06525272665033
 20
296.897656290208
 30
0.0
 10
192.12531132040033
 20
296.627636758958
 30
0.0
  0
SPLINE
  5
120
330
17
100
AcDbEntity
  8
ENGRAVE
100
AcDbSpline
 70
0
 71
2
 72
6
 73
3
 74
0
 40
0.0
 40
0.0
 40
0.0
 40
1.0
 40
1.0
 40
1.0
 10
192.03527225790032
 20
302.522656290208
 30
0.0
 10
192.12531132040033
 20
302.627636758958
 30
0.0
 10
192.12531132040033
 20
302.627636758958
 30
0.0
  0
SPLINE
  5
121
330
17
100
AcDbEntity
  8
ENGRAVE
100
AcDbSpline
 70
0
 71
2
 72
6
 73
3
 74
0
 40
0.0
 40
0.0
 40
0.0
 40
1.0
 40
1.0
 40
1.0
 10
192.78527225790032
 20
304.607714883958
 30
0.0
 10
192.6352722579003
 20
304.607714883958
 30
0.0
 10
192.14025272665032
 20
304.367675821458
 30
0.0
  0
SPLINE
  5
122
330
17
100
AcDbEntity
  8
ENGRAVE
100
AcDbSpline
 70
0
 71
2
 72
6
 73
3
 74
0
 40
0.0
 40
0.0
 40
0.0
 40
1.0
 40
1.0
 40
1.0
 10
192.12531132040033
 20
296.627636758958
 30
0.0
 10
192.6352722579003
 20
295.697656290208
 30
0.0
 10
192.24528202352533
 20
295.022656290208
 30
0.0
  0
SPLINE
  5
123
330
17
100
AcDbEntity
  8
ENGRAVE
100
AcDbSpline
 70
0
 71
2
 72
6
 73
3
 74
0
 40
0.0
 40
0.0
 40
0.0
 40
1.0
 40
1.0
 40
1.0
 10
192.69523319540033
 20
301.367675821458
 30
0.0
 10
192.51525272665032
 20
301.487695352708
 30
0.0
 10
192.3652527266503
 20
301.607666055833
 30
0.0
  0
SPLINE
  5
124
330
17
100
AcDbEntity
  8
ENGRAVE
100
AcDbSpline
 70
0
 71
2
 72
6
 73
3
 74
0
 40
0.0
 40
0.0
 40
0.0
 40
1.0
 40
1.0
 40
1.0
 10
193.47526249227533
 20
301.397705118333
 30
0.0
 10
192.96525272665033
 20
301.157714883958
 30
0.0
 10
192.69523319540033
 20
301.367675821458
 30
0.0
  0
SPLINE
  5
125
330
17
100
AcDbEntity
  8
ENGRAVE
100
AcDbSpline
 70
0
 71
2
 72
6
 73
3
 74
0
 40
0.0
 40
0.0
 40
0.0
 40
1.0
 40
1.0
 40
1.0
 10
193.1753113204003
 20
304.337695352708
 30
0.0
 10
193.1753113204003
 20
304.607714883958
 30
0.0
 10
192.78527225790032
 20
304.607714883958
 30
0.0
  0
SPLINE
  5
126
330
17
100
AcDbEntity
  8
ENGRAVE
100
AcDbSpline
 70
0
 71
2
 72
6
 73
3
 74
0
 40
0.0
 40
0.0
 40
0.0
 40
1.0
 40
1.0
 40
1.0
 10
191.91525272665032
 20
306.617675821458
 30
0.0
 10
192.33527225790033
 20
306.707714883958
 30
0.0
 10
192.8752624922753
 20
306.707714883958
 30
0.0
  0
SPLINE
  5
127
330
17
100
AcDbEntity
  8
ENGRAVE
100
AcDbSpline
 70
0
 71
2
 72
6
 73
3
 74
0
 40
0.0
 40
0.0
 40
0.0
 40
1.0
 40
1.0
 40
1.0
 10
192.12531132040033
 20
302.627636758958
 30
0.0
 10
192.72531132040032
 20
303.197656290208
 30
0.0
 10
192.95031132040032
 20
303.662646524583
 30
0.0
  0
SPLINE
  5
128
330
17
100
AcDbEntity
  8
ENGRAVE
100
AcDbSpline
 70
0
 71
2
 72
6
 73
3
 74
0
 40
0.0
 40
0.0
 40
0.0
 40
1.0
 40
1.0
 40
1.0
 10
192.95031132040032
 20
303.662646524583
 30
0.0
 10
193.1753113204003
 20
304.127636758958
 30
0.0
 10
193.1753113204003
 20
304.337695352708
 30
0.0
  0
SPLINE
  5
129
330
17
100
AcDbEntity
  8
ENGRAVE
100
AcDbSpline
 70
0
 71
2
 72
6
 73
3
 74
0
 40
0.0
 40
0.0
 40
0.0
 40
1.0
 40
1.0
 40
1.0
 10
194.55529178915032
 20
302.027636758958
 30
0.0
 10
193.98527225790033
 20
301.637695352708
 30
0.0
 10
193.47526249227533
 20
301.397705118333
 30
0.0
  0
SPLINE
  5
12A
330
17
100
AcDbEntity
  8
ENGRAVE
100
AcDbSpline
 70
0
 71
2
 72
6
 73
3
 74
0
 40
0.0
 40
0.0
 40
0.0
 40
1.0
 40
1.0
 40
1.0
 10
192.8752624922753
 20
306.707714883958
 30
0.0
 10
193.41525272665032
 20
306.707714883958
 30
0.0
 10
193.6552917891503
 20
306.557714883958
 30
0.0
  0
SPLINE
  5
12B
330
17
100
AcDbEntity
  8
ENGRAVE
100
AcDbSpline
 70
0
 71
2
 72
6
 73
3
 74
0
 40
0.0
 40
0.0
 40
0.0
 40
1.0
 40
1.0
 40
1.0
 10
193.6552917891503
 20
306.557714883958
 30
0.0
 10
193.89523319540032
 20
306.707714883958
 30
0.0
 10
194.25524296102532
 20
306.482714883958
 30
0.0
  0
SPLINE
  5
12C
330
17
100
AcDbEntity
  8
ENGRAVE
100
AcDbSpline
 70
0
 71
2
 72
6
 73
3
 74
0
 40
0.0
 40
0.0
 40
0.0
 40
1.0
 40
1.0
 40
1.0
 10
195.00529178915033
 20
302.717675821458
 30
0.0
 10
195.00529178915033
 20
302.417675821458
 30
0.0
 10
194.55529178915032
 20
302.027636758958
 30
0.0
  0
SPLINE
  5
12D
330
17
100
AcDbEntity
  8
ENGRAVE
100
AcDbSpline
 70
0
 71
2
 72
6
 73
3
 74
0
 40
0.0
 40
0.0
 40
0.0
 40
1.0
 40
1.0
 40
1.0
 10
194.25524296102532
 20
306.482714883958
 30
0.0
 10
194.6152527266503
 20
306.257714883958
 30
0.0
 10
194.97526249227533
 20
305.867675821458
 30
0.0
  0
SPLINE
  5
12E
330
17
100
AcDbEntity
  8
ENGRAVE
100
AcDbSpline
 70
0
 71
2
 72
6
 73
3
 74
0
 40
0.0
 40
0.0
 40
0.0
 40
1.0
 40
1.0
 40
1.0
 10
195.08029178915032
 20
302.882666055833
 30
0.0
 10
195.00529178915033
 20
302.867675821458
 30
0.0
 10
195.00529178915033
 20
302.717675821458
 30
0.0
  0
SPLINE
  5
12F
330
17
100
AcDbEntity
  8
ENGRAVE
100
AcDbSpline
 70
0
 71
2
 72
6
 73
3
 74
0
 40
0.0
 40
0.0
 40
0.0
 40
1.0
 40
1.0
 40
1.0
 10
195.1552917891503
 20
302.897656290208
 30
0.0
 10
195.1552917891503
 20
302.897656290208
 30
0.0
 10
195.08029178915032
 20
302.882666055833
 30
0.0
  0
SPLINE
  5
130
330
17
100
AcDbEntity
  8
ENGRAVE
100
AcDbSpline
 70
0
 71
2
 72
6
 73
3
 74
0
 40
0.0
 40
0.0
 40
0.0
 40
1.0
 40
1.0
 40
1.0
 10
195.42526249227532
 20
303.287646524583
 30
0.0
 10
195.3652527266503
 20
302.897656290208
 30
0.0
 10
195.1552917891503
 20
302.897656290208
 30
0.0
  0
SPLINE
  5
131
330
17
100
AcDbEntity
  8
ENGRAVE
100
AcDbSpline
 70
0
 71
2
 72
6
 73
3
 74
0
 40
0.0
 40
0.0
 40
0.0
 40
1.0
 40
1.0
 40
1.0
 10
195.5002624922753
 20
304.202636758958
 30
0.0
 10
195.48527225790033
 20
303.677636758958
 30
0.0
 10
195.42526249227532
 20
303.287646524583
 30
0.0
  0
SPLINE
  5
132
330
17
100
AcDbEntity
  8
ENGRAVE
100
AcDbSpline
 70
0
 71
2
 72
6
 73
3
 74
0
 40
0.0
 40
0.0
 40
0.0
 40
1.0
 40
1.0
 40
1.0
 10
195.51525272665032
 20
305.087695352708
 30
0.0
 10
195.51525272665032
 20
304.727636758958
 30
0.0
 10
195.5002624922753
 20
304.202636758958
 30
0.0
  0
SPLINE
  5
133
330
17
100
AcDbEntity
  8
ENGRAVE
100
AcDbSpline
 70
0
 71
2
 72
6
 73
3
 74
0
 40
0.0
 40
0.0
 40
0.0
 40
1.0
 40
1.0
 40
1.0
 10
194.97526249227533
 20
305.867675821458
 30
0.0
 10
195.33527225790033
 20
305.477636758958
 30
0.0
 10
195.51525272665032
 20
305.087695352708
 30
0.0
  0
SPLINE
  5
134
330
17
100
AcDbEntity
  8
ENGRAVE
100
AcDbSpline
 70
0
 71
2
 72
6
 73
3
 74
0
 40
0.0
 40
0.0
 40
0.0
 40
1.0
 40
1.0
 40
1.0
 10
204.9352234297753
 20
295.007666055833
 30
0.0
 10
204.51525272665032
 20
295.397656290208
 30
0.0
 10
204.5452331954003
 20
295.757714883958
 30
0.0
  0
SPLINE
  5
135
330
17
100
AcDbEntity
  8
ENGRAVE
100
AcDbSpline
 70
0
 71
2
 72
6
 73
3
 74
0
 40
0.0
 40
0.0
 40
0.0
 40
1.0
 40
1.0
 40
1.0
 10
204.5452331954003
 20
295.757714883958
 30
0.0
 10
204.5752136641503
 20
296.237695352708
 30
0.0
 10
204.8752136641503
 20
296.507666055833
 30
0.0
  0
SPLINE
  5
136
330
17
100
AcDbEntity
  8
ENGRAVE
100
AcDbSpline
 70
0
 71
2
 72
6
 73
3
 74
0
 40
0.0
 40
0.0
 40
0.0
 40
1.0
 40
1.0
 40
1.0
 10
206.0602234297753
 20
294.332666055833
 30
0.0
 10
205.3551941329003
 20
294.617675821458
 30
0.0
 10
204.9352234297753
 20
295.007666055833
 30
0.0
  0
SPLINE
  5
137
330
17
100
AcDbEntity
  8
ENGRAVE
100
AcDbSpline
 70
0
 71
2
 72
6
 73
3
 74
0
 40
0.0
 40
0.0
 40
0.0
 40
1.0
 40
1.0
 40
1.0
 10
204.8752136641503
 20
296.507666055833
 30
0.0
 10
205.1752136641503
 20
296.777636758958
 30
0.0
 10
205.8352722579003
 20
296.687695352708
 30
0.0
  0
SPLINE
  5
138
330
17
100
AcDbEntity
  8
ENGRAVE
100
AcDbSpline
 70
0
 71
2
 72
6
 73
3
 74
0
 40
0.0
 40
0.0
 40
0.0
 40
1.0
 40
1.0
 40
1.0
 10
207.51525272665032
 20
294.047656290208
 30
0.0
 10
206.76525272665032
 20
294.047656290208
 30
0.0
 10
206.0602234297753
 20
294.332666055833
 30
0.0
  0
SPLINE
  5
139
330
17
100
AcDbEntity
  8
ENGRAVE
100
AcDbSpline
 70
0
 71
2
 72
6
 73
3
 74
0
 40
0.0
 40
0.0
 40
0.0
 40
1.0
 40
1.0
 40
1.0
 10
206.5252136641503
 20
302.447656290208
 30
0.0
 10
206.3752136641503
 20
302.927636758958
 30
0.0
 10
206.3152527266503
 20
303.047656290208
 30
0.0
  0
SPLINE
  5
13A
330
17
100
AcDbEntity
  8
ENGRAVE
100
AcDbSpline
 70
0
 71
2
 72
6
 73
3
 74
0
 40
0.0
 40
0.0
 40
0.0
 40
1.0
 40
1.0
 40
1.0
 10
206.5552429610253
 20
308.432666055833
 30
0.0
 10
206.4352722579003
 20
308.837695352708
 30
0.0
 10
206.49523319540032
 20
308.987695352708
 30
0.0
  0
SPLINE
  5
13B
330
17
100
AcDbEntity
  8
ENGRAVE
100
AcDbSpline
 70
0
 71
2
 72
6
 73
3
 74
0
 40
0.0
 40
0.0
 40
0.0
 40
1.0
 40
1.0
 40
1.0
 10
206.8551941329003
 20
301.757714883958
 30
0.0
 10
206.6752136641503
 20
301.967675821458
 30
0.0
 10
206.5252136641503
 20
302.447656290208
 30
0.0
  0
SPLINE
  5
13C
330
17
100
AcDbEntity
  8
ENGRAVE
100
AcDbSpline
 70
0
 71
2
 72
6
 73
3
 74
0
 40
0.0
 40
0.0
 40
0.0
 40
1.0
 40
1.0
 40
1.0
 10
206.3152527266503
 20
303.047656290208
 30
0.0
 10
206.28527225790032
 20
303.197656290208
 30
0.0
 10
206.52526249227532
 20
303.407666055833
 30
0.0
  0
SPLINE
  5
13D
330
17
100
AcDbEntity
  8
ENGRAVE
100
AcDbSpline
 70
0
 71
2
 72
6
 73
3
 74
0
 40
0.0
 40
0.0
 40
0.0
 40
1.0
 40
1.0
 40
1.0
 10
206.87023319540032
 20
307.667675821458
 30
0.0
 10
206.6752136641503
 20
308.027636758958
 30
0.0
 10
206.5552429610253
 20
308.432666055833
 30
0.0
  0
SPLINE
  5
13E
330
17
100
AcDbEntity
  8
ENGRAVE
100
AcDbSpline
 70
0
 71
2
 72
6
 73
3
 74
0
 40
0.0
 40
0.0
 40
0.0
 40
1.0
 40
1.0
 40
1.0
 10
207.6352234297753
 20
301.412646524583
 30
0.0
 10
207.24523319540032
 20
301.547656290208
 30
0.0
 10
206.8551941329003
 20
301.757714883958
 30
0.0
  0
SPLINE
  5
13F
330
17
100
AcDbEntity
  8
ENGRAVE
100
AcDbSpline
 70
0
 71
2
 72
6
 73
3
 74
0
 40
0.0
 40
0.0
 40
0.0
 40
1.0
 40
1.0
 40
1.0
 10
207.2152527266503
 20
307.247656290208
 30
0.0
 10
207.0652527266503
 20
307.307714883958
 30
0.0
 10
206.87023319540032
 20
307.667675821458
 30
0.0
  0
SPLINE
  5
140
330
17
100
AcDbEntity
  8
ENGRAVE
100
AcDbSpline
 70
0
 71
2
 72
6
 73
3
 74
0
 40
0.0
 40
0.0
 40
0.0
 40
1.0
 40
1.0
 40
1.0
 10
206.49523319540032
 20
308.987695352708
 30
0.0
 10
206.5551941329003
 20
309.107714883958
 30
0.0
 10
206.9301941329003
 20
309.362695352708
 30
0.0
  0
SPLINE
  5
141
330
17
100
AcDbEntity
  8
ENGRAVE
100
AcDbSpline
 70
0
 71
2
 72
6
 73
3
 74
0
 40
0.0
 40
0.0
 40
0.0
 40
1.0
 40
1.0
 40
1.0
 10
207.6801941329003
 20
307.337646524583
 30
0.0
 10
207.3051941329003
 20
307.247656290208
 30
0.0
 10
207.2152527266503
 20
307.247656290208
 30
0.0
  0
SPLINE
  5
142
330
17
100
AcDbEntity
  8
ENGRAVE
100
AcDbSpline
 70
0
 71
2
 72
6
 73
3
 74
0
 40
0.0
 40
0.0
 40
0.0
 40
1.0
 40
1.0
 40
1.0
 10
206.52526249227532
 20
303.407666055833
 30
0.0
 10
206.76525272665032
 20
303.617675821458
 30
0.0
 10
207.48522342977532
 20
304.052685587083
 30
0.0
  0
SPLINE
  5
143
330
17
100
AcDbEntity
  8
ENGRAVE
100
AcDbSpline
 70
0
 71
2
 72
6
 73
3
 74
0
 40
0.0
 40
0.0
 40
0.0
 40
1.0
 40
1.0
 40
1.0
 10
209.6902038985253
 20
294.302685587083
 30
0.0
 10
208.47521366415032
 20
294.107714883958
 30
0.0
 10
207.51525272665032
 20
294.047656290208
 30
0.0
  0
SPLINE
  5
144
330
17
100
AcDbEntity
  8
ENGRAVE
100
AcDbSpline
 70
0
 71
2
 72
6
 73
3
 74
0
 40
0.0
 40
0.0
 40
0.0
 40
1.0
 40
1.0
 40
1.0
 10
208.2952331954003
 20
301.307714883958
 30
0.0
 10
208.0252136641503
 20
301.277636758958
 30
0.0
 10
207.6352234297753
 20
301.412646524583
 30
0.0
  0
SPLINE
  5
145
330
17
100
AcDbEntity
  8
ENGRAVE
100
AcDbSpline
 70
0
 71
2
 72
6
 73
3
 74
0
 40
0.0
 40
0.0
 40
0.0
 40
1.0
 40
1.0
 40
1.0
 10
208.4301941329003
 20
307.562646524583
 30
0.0
 10
208.0551941329003
 20
307.427636758958
 30
0.0
 10
207.6801941329003
 20
307.337646524583
 30
0.0
  0
SPLINE
  5
146
330
17
100
AcDbEntity
  8
ENGRAVE
100
AcDbSpline
 70
0
 71
2
 72
6
 73
3
 74
0
 40
0.0
 40
0.0
 40
0.0
 40
1.0
 40
1.0
 40
1.0
 10
206.9301941329003
 20
309.362695352708
 30
0.0
 10
207.3051941329003
 20
309.617675821458
 30
0.0
 10
207.7852234297753
 20
309.902685587083
 30
0.0
  0
SPLINE
  5
147
330
17
100
AcDbEntity
  8
ENGRAVE
100
AcDbSpline
 70
0
 71
2
 72
6
 73
3
 74
0
 40
0.0
 40
0.0
 40
0.0
 40
1.0
 40
1.0
 40
1.0
 10
209.8402527266503
 20
301.052685587083
 30
0.0
 10
208.8952331954003
 20
301.367675821458
 30
0.0
 10
208.2952331954003
 20
301.307714883958
 30
0.0
  0
SPLINE
  5
148
330
17
100
AcDbEntity
  8
ENGRAVE
100
AcDbSpline
 70
0
 71
2
 72
6
 73
3
 74
0
 40
0.0
 40
0.0
 40
0.0
 40
1.0
 40
1.0
 40
1.0
 10
208.8352722579003
 20
307.757714883958
 30
0.0
 10
208.8051941329003
 20
307.697656290208
 30
0.0
 10
208.4301941329003
 20
307.562646524583
 30
0.0
  0
SPLINE
  5
149
330
17
100
AcDbEntity
  8
ENGRAVE
100
AcDbSpline
 70
0
 71
2
 72
6
 73
3
 74
0
 40
0.0
 40
0.0
 40
0.0
 40
1.0
 40
1.0
 40
1.0
 10
207.7852234297753
 20
309.902685587083
 30
0.0
 10
208.26525272665032
 20
310.187695352708
 30
0.0
 10
208.5952331954003
 20
310.337695352708
 30
0.0
  0
SPLINE
  5
14A
330
17
100
AcDbEntity
  8
ENGRAVE
100
AcDbSpline
 70
0
 71
2
 72
6
 73
3
 74
0
 40
0.0
 40
0.0
 40
0.0
 40
1.0
 40
1.0
 40
1.0
 10
209.3302429610253
 20
307.967675821458
 30
0.0
 10
208.8652527266503
 20
307.847656290208
 30
0.0
 10
208.8352722579003
 20
307.757714883958
 30
0.0
  0
SPLINE
  5
14B
330
17
100
AcDbEntity
  8
ENGRAVE
100
AcDbSpline
 70
0
 71
2
 72
6
 73
3
 74
0
 40
0.0
 40
0.0
 40
0.0
 40
1.0
 40
1.0
 40
1.0
 10
205.8352722579003
 20
296.687695352708
 30
0.0
 10
207.3352722579003
 20
296.387695352708
 30
0.0
 10
208.9252624922753
 20
296.702685587083
 30
0.0
  0
SPLINE
  5
14C
330
17
100
AcDbEntity
  8
ENGRAVE
100
AcDbSpline
 70
0
 71
2
 72
6
 73
3
 74
0
 40
0.0
 40
0.0
 40
0.0
 40
1.0
 40
1.0
 40
1.0
 10
210.3052429610253
 20
308.177685587083
 30
0.0
 10
209.7952331954003
 20
308.087695352708
 30
0.0
 10
209.3302429610253
 20
307.967675821458
 30
0.0
  0
SPLINE
  5
14D
330
17
100
AcDbEntity
  8
ENGRAVE
100
AcDbSpline
 70
0
 71
2
 72
6
 73
3
 74
0
 40
0.0
 40
0.0
 40
0.0
 40
1.0
 40
1.0
 40
1.0
 10
207.48522342977532
 20
304.052685587083
 30
0.0
 10
208.20519413290032
 20
304.487695352708
 30
0.0
 10
209.5852722579003
 20
305.237695352708
 30
0.0
  0
SPLINE
  5
14E
330
17
100
AcDbEntity
  8
ENGRAVE
100
AcDbSpline
 70
0
 71
2
 72
6
 73
3
 74
0
 40
0.0
 40
0.0
 40
0.0
 40
1.0
 40
1.0
 40
1.0
 10
211.74523319540032
 20
294.977636758958
 30
0.0
 10
210.9051941329003
 20
294.497656290208
 30
0.0
 10
209.6902038985253
 20
294.302685587083
 30
0.0
  0
SPLINE
  5
14F
330
17
100
AcDbEntity
  8
ENGRAVE
100
AcDbSpline
 70
0
 71
2
 72
6
 73
3
 74
0
 40
0.0
 40
0.0
 40
0.0
 40
1.0
 40
1.0
 40
1.0
 10
211.3551941329003
 20
300.317675821458
 30
0.0
 10
210.78527225790032
 20
300.737695352708
 30
0.0
 10
209.8402527266503
 20
301.052685587083
 30
0.0
  0
SPLINE
  5
150
330
17
100
AcDbEntity
  8
ENGRAVE
100
AcDbSpline
 70
0
 71
2
 72
6
 73
3
 74
0
 40
0.0
 40
0.0
 40
0.0
 40
1.0
 40
1.0
 40
1.0
 10
208.5952331954003
 20
310.337695352708
 30
0.0
 10
209.01525272665032
 20
310.457714883958
 30
0.0
 10
209.8402527266503
 20
310.562695352708
 30
0.0
  0
SPLINE
  5
151
330
17
100
AcDbEntity
  8
ENGRAVE
100
AcDbSpline
 70
0
 71
2
 72
6
 73
3
 74
0
 40
0.0
 40
0.0
 40
0.0
 40
1.0
 40
1.0
 40
1.0
 10
210.9652527266503
 20
308.207714883958
 30
0.0
 10
210.8152527266503
 20
308.267675821458
 30
0.0
 10
210.3052429610253
 20
308.177685587083
 30
0.0
  0
SPLINE
  5
152
330
17
100
AcDbEntity
  8
ENGRAVE
100
AcDbSpline
 70
0
 71
2
 72
6
 73
3
 74
0
 40
0.0
 40
0.0
 40
0.0
 40
1.0
 40
1.0
 40
1.0
 10
210.9352234297753
 20
303.467675821458
 30
0.0
 10
210.5452331954003
 20
303.317675821458
 30
0.0
 10
210.5452331954003
 20
303.257714883958
 30
0.0
  0
SPLINE
  5
153
330
17
100
AcDbEntity
  8
ENGRAVE
100
AcDbSpline
 70
0
 71
2
 72
6
 73
3
 74
0
 40
0.0
 40
0.0
 40
0.0
 40
1.0
 40
1.0
 40
1.0
 10
210.5452331954003
 20
303.257714883958
 30
0.0
 10
210.5452331954003
 20
303.257714883958
 30
0.0
 10
210.8302429610253
 20
303.212695352708
 30
0.0
  0
SPLINE
  5
154
330
17
100
AcDbEntity
  8
ENGRAVE
100
AcDbSpline
 70
0
 71
2
 72
6
 73
3
 74
0
 40
0.0
 40
0.0
 40
0.0
 40
1.0
 40
1.0
 40
1.0
 10
211.7752136641503
 20
303.797656290208
 30
0.0
 10
211.3252136641503
 20
303.617675821458
 30
0.0
 10
210.9352234297753
 20
303.467675821458
 30
0.0
  0
SPLINE
  5
155
330
17
100
AcDbEntity
  8
ENGRAVE
100
AcDbSpline
 70
0
 71
2
 72
6
 73
3
 74
0
 40
0.0
 40
0.0
 40
0.0
 40
1.0
 40
1.0
 40
1.0
 10
211.53527225790032
 20
308.372656290208
 30
0.0
 10
211.0852722579003
 20
308.327636758958
 30
0.0
 10
211.0852722579003
 20
308.207714883958
 30
0.0
  0
SPLINE
  5
156
330
17
100
AcDbEntity
  8
ENGRAVE
100
AcDbSpline
 70
0
 71
2
 72
6
 73
3
 74
0
 40
0.0
 40
0.0
 40
0.0
 40
1.0
 40
1.0
 40
1.0
 10
208.9252624922753
 20
296.702685587083
 30
0.0
 10
210.51525272665032
 20
297.017675821458
 30
0.0
 10
211.3551941329003
 20
297.857714883958
 30
0.0
  0
SPLINE
  5
157
330
17
100
AcDbEntity
  8
ENGRAVE
100
AcDbSpline
 70
0
 71
2
 72
6
 73
3
 74
0
 40
0.0
 40
0.0
 40
0.0
 40
1.0
 40
1.0
 40
1.0
 10
212.1952331954003
 20
299.192675821458
 30
0.0
 10
212.22521366415032
 20
299.747656290208
 30
0.0
 10
211.3551941329003
 20
300.317675821458
 30
0.0
  0
SPLINE
  5
158
330
17
100
AcDbEntity
  8
ENGRAVE
100
AcDbSpline
 70
0
 71
2
 72
6
 73
3
 74
0
 40
0.0
 40
0.0
 40
0.0
 40
1.0
 40
1.0
 40
1.0
 10
210.8302429610253
 20
303.212695352708
 30
0.0
 10
211.1152527266503
 20
303.167675821458
 30
0.0
 10
211.4602234297753
 20
303.092675821458
 30
0.0
  0
SPLINE
  5
159
330
17
100
AcDbEntity
  8
ENGRAVE
100
AcDbSpline
 70
0
 71
2
 72
6
 73
3
 74
0
 40
0.0
 40
0.0
 40
0.0
 40
1.0
 40
1.0
 40
1.0
 10
209.8402527266503
 20
310.562695352708
 30
0.0
 10
210.6652527266503
 20
310.667675821458
 30
0.0
 10
211.4902527266503
 20
310.742675821458
 30
0.0
  0
SPLINE
  5
15A
330
17
100
AcDbEntity
  8
ENGRAVE
100
AcDbSpline
 70
0
 71
2
 72
6
 73
3
 74
0
 40
0.0
 40
0.0
 40
0.0
 40
1.0
 40
1.0
 40
1.0
 10
209.5852722579003
 20
305.237695352708
 30
0.0
 10
210.8452331954003
 20
305.927636758958
 30
0.0
 10
211.5202331954003
 20
306.302636758958
 30
0.0
  0
SPLINE
  5
15B
330
17
100
AcDbEntity
  8
ENGRAVE
100
AcDbSpline
 70
0
 71
2
 72
6
 73
3
 74
0
 40
0.0
 40
0.0
 40
0.0
 40
1.0
 40
1.0
 40
1.0
 10
212.7352722579003
 20
308.357714883958
 30
0.0
 10
211.9852722579003
 20
308.417675821458
 30
0.0
 10
211.53527225790032
 20
308.372656290208
 30
0.0
  0
SPLINE
  5
15C
330
17
100
AcDbEntity
  8
ENGRAVE
100
AcDbSpline
 70
0
 71
2
 72
6
 73
3
 74
0
 40
0.0
 40
0.0
 40
0.0
 40
1.0
 40
1.0
 40
1.0
 10
213.5902527266503
 20
296.582714883958
 30
0.0
 10
212.7952331954003
 20
295.607714883958
 30
0.0
 10
211.74523319540032
 20
294.977636758958
 30
0.0
  0
SPLINE
  5
15D
330
17
100
AcDbEntity
  8
ENGRAVE
100
AcDbSpline
 70
0
 71
2
 72
6
 73
3
 74
0
 40
0.0
 40
0.0
 40
0.0
 40
1.0
 40
1.0
 40
1.0
 10
212.4352722579003
 20
304.127636758958
 30
0.0
 10
212.22521366415032
 20
303.977636758958
 30
0.0
 10
211.7752136641503
 20
303.797656290208
 30
0.0
  0
SPLINE
  5
15E
330
17
100
AcDbEntity
  8
ENGRAVE
100
AcDbSpline
 70
0
 71
2
 72
6
 73
3
 74
0
 40
0.0
 40
0.0
 40
0.0
 40
1.0
 40
1.0
 40
1.0
 10
211.4602234297753
 20
303.092675821458
 30
0.0
 10
211.8051941329003
 20
303.017675821458
 30
0.0
 10
211.95519413290032
 20
302.867675821458
 30
0.0
  0
SPLINE
  5
15F
330
17
100
AcDbEntity
  8
ENGRAVE
100
AcDbSpline
 70
0
 71
2
 72
6
 73
3
 74
0
 40
0.0
 40
0.0
 40
0.0
 40
1.0
 40
1.0
 40
1.0
 10
211.3551941329003
 20
297.857714883958
 30
0.0
 10
212.1652527266503
 20
298.637695352708
 30
0.0
 10
212.1952331954003
 20
299.192675821458
 30
0.0
  0
SPLINE
  5
160
330
17
100
AcDbEntity
  8
ENGRAVE
100
AcDbSpline
 70
0
 71
2
 72
6
 73
3
 74
0
 40
0.0
 40
0.0
 40
0.0
 40
1.0
 40
1.0
 40
1.0
 10
213.5302429610253
 20
304.772705118333
 30
0.0
 10
213.1252136641503
 20
304.457714883958
 30
0.0
 10
212.4352722579003
 20
304.127636758958
 30
0.0
  0
SPLINE
  5
161
330
17
100
AcDbEntity
  8
ENGRAVE
100
AcDbSpline
 70
0
 71
2
 72
6
 73
3
 74
0
 40
0.0
 40
0.0
 40
0.0
 40
1.0
 40
1.0
 40
1.0
 10
211.5202331954003
 20
306.302636758958
 30
0.0
 10
212.1952331954003
 20
306.677636758958
 30
0.0
 10
212.5702331954003
 20
306.902636758958
 30
0.0
  0
SPLINE
  5
162
330
17
100
AcDbEntity
  8
ENGRAVE
100
AcDbSpline
 70
0
 71
2
 72
6
 73
3
 74
0
 40
0.0
 40
0.0
 40
0.0
 40
1.0
 40
1.0
 40
1.0
 10
211.4902527266503
 20
310.742675821458
 30
0.0
 10
212.3152527266503
 20
310.817675821458
 30
0.0
 10
212.6752136641503
 20
310.787695352708
 30
0.0
  0
SPLINE
  5
163
330
17
100
AcDbEntity
  8
ENGRAVE
100
AcDbSpline
 70
0
 71
2
 72
6
 73
3
 74
0
 40
0.0
 40
0.0
 40
0.0
 40
1.0
 40
1.0
 40
1.0
 10
213.5452331954003
 20
307.997705118333
 30
0.0
 10
213.51525272665032
 20
308.207714883958
 30
0.0
 10
212.7352722579003
 20
308.357714883958
 30
0.0
  0
SPLINE
  5
164
330
17
100
AcDbEntity
  8
ENGRAVE
100
AcDbSpline
 70
0
 71
2
 72
6
 73
3
 74
0
 40
0.0
 40
0.0
 40
0.0
 40
1.0
 40
1.0
 40
1.0
 10
212.5702331954003
 20
306.902636758958
 30
0.0
 10
212.9452331954003
 20
307.127636758958
 30
0.0
 10
213.2152527266503
 20
307.367675821458
 30
0.0
  0
SPLINE
  5
165
330
17
100
AcDbEntity
  8
ENGRAVE
100
AcDbSpline
 70
0
 71
2
 72
6
 73
3
 74
0
 40
0.0
 40
0.0
 40
0.0
 40
1.0
 40
1.0
 40
1.0
 10
214.6852722579003
 20
305.567675821458
 30
0.0
 10
213.9352722579003
 20
305.087695352708
 30
0.0
 10
213.5302429610253
 20
304.772705118333
 30
0.0
  0
SPLINE
  5
166
330
17
100
AcDbEntity
  8
ENGRAVE
100
AcDbSpline
 70
0
 71
2
 72
6
 73
3
 74
0
 40
0.0
 40
0.0
 40
0.0
 40
1.0
 40
1.0
 40
1.0
 10
213.2152527266503
 20
307.367675821458
 30
0.0
 10
213.5752136641503
 20
307.787695352708
 30
0.0
 10
213.5452331954003
 20
307.997705118333
 30
0.0
  0
SPLINE
  5
167
330
17
100
AcDbEntity
  8
ENGRAVE
100
AcDbSpline
 70
0
 71
2
 72
6
 73
3
 74
0
 40
0.0
 40
0.0
 40
0.0
 40
1.0
 40
1.0
 40
1.0
 10
211.95519413290032
 20
302.867675821458
 30
0.0
 10
212.8252136641503
 20
302.567675821458
 30
0.0
 10
213.5602234297753
 20
301.832666055833
 30
0.0
  0
SPLINE
  5
168
330
17
100
AcDbEntity
  8
ENGRAVE
100
AcDbSpline
 70
0
 71
2
 72
6
 73
3
 74
0
 40
0.0
 40
0.0
 40
0.0
 40
1.0
 40
1.0
 40
1.0
 10
214.7002624922753
 20
298.652685587083
 30
0.0
 10
214.3852722579003
 20
297.557714883958
 30
0.0
 10
213.5902527266503
 20
296.582714883958
 30
0.0
  0
SPLINE
  5
169
330
17
100
AcDbEntity
  8
ENGRAVE
100
AcDbSpline
 70
0
 71
2
 72
6
 73
3
 74
0
 40
0.0
 40
0.0
 40
0.0
 40
1.0
 40
1.0
 40
1.0
 10
213.5602234297753
 20
301.832666055833
 30
0.0
 10
214.2952331954003
 20
301.097656290208
 30
0.0
 10
214.5952331954003
 20
300.677636758958
 30
0.0
  0
SPLINE
  5
16A
330
17
100
AcDbEntity
  8
ENGRAVE
100
AcDbSpline
 70
0
 71
2
 72
6
 73
3
 74
0
 40
0.0
 40
0.0
 40
0.0
 40
1.0
 40
1.0
 40
1.0
 10
215.84020389852532
 20
307.007666055833
 30
0.0
 10
215.5551941329003
 20
306.347656290208
 30
0.0
 10
214.6852722579003
 20
305.567675821458
 30
0.0
  0
SPLINE
  5
16B
330
17
100
AcDbEntity
  8
ENGRAVE
100
AcDbSpline
 70
0
 71
2
 72
6
 73
3
 74
0
 40
0.0
 40
0.0
 40
0.0
 40
1.0
 40
1.0
 40
1.0
 10
214.5952331954003
 20
300.677636758958
 30
0.0
 10
215.01525272665032
 20
299.747656290208
 30
0.0
 10
214.7002624922753
 20
298.652685587083
 30
0.0
  0
SPLINE
  5
16C
330
17
100
AcDbEntity
  8
ENGRAVE
100
AcDbSpline
 70
0
 71
2
 72
6
 73
3
 74
0
 40
0.0
 40
0.0
 40
0.0
 40
1.0
 40
1.0
 40
1.0
 10
212.6752136641503
 20
310.787695352708
 30
0.0
 10
214.0551941329003
 20
310.637695352708
 30
0.0
 10
214.8952331954003
 20
310.082666055833
 30
0.0
  0
SPLINE
  5
16D
330
17
100
AcDbEntity
  8
ENGRAVE
100
AcDbSpline
 70
0
 71
2
 72
6
 73
3
 74
0
 40
0.0
 40
0.0
 40
0.0
 40
1.0
 40
1.0
 40
1.0
 10
215.97521366415032
 20
308.327636758958
 30
0.0
 10
216.1252136641503
 20
307.667675821458
 30
0.0
 10
215.84020389852532
 20
307.007666055833
 30
0.0
  0
SPLINE
  5
16E
330
17
100
AcDbEntity
  8
ENGRAVE
100
AcDbSpline
 70
0
 71
2
 72
6
 73
3
 74
0
 40
0.0
 40
0.0
 40
0.0
 40
1.0
 40
1.0
 40
1.0
 10
214.8952331954003
 20
310.082666055833
 30
0.0
 10
215.7352722579003
 20
309.527636758958
 30
0.0
 10
215.97521366415032
 20
308.327636758958
 30
0.0
  0
SPLINE
  5
16F
330
17
100
AcDbEntity
  8
ENGRAVE
100
AcDbSpline
 70
0
 71
2
 72
6
 73
3
 74
0
 40
0.0
 40
0.0
 40
0.0
 40
1.0
 40
1.0
 40
1.0
 10
218.1952331954003
 20
297.062646524583
 30
0.0
 10
217.74523319540032
 20
298.127636758958
 30
0.0
 10
217.6702331954003
 20
299.237646524583
 30
0.0
  0
SPLINE
  5
170
330
17
100
AcDbEntity
  8
ENGRAVE
100
AcDbSpline
 70
0
 71
2
 72
6
 73
3
 74
0
 40
0.0
 40
0.0
 40
0.0
 40
1.0
 40
1.0
 40
1.0
 10
217.6702331954003
 20
299.237646524583
 30
0.0
 10
217.5952331954003
 20
300.347656290208
 30
0.0
 10
217.74523319540032
 20
301.337695352708
 30
0.0
  0
SPLINE
  5
171
330
17
100
AcDbEntity
  8
ENGRAVE
100
AcDbSpline
 70
0
 71
2
 72
6
 73
3
 74
0
 40
0.0
 40
0.0
 40
0.0
 40
1.0
 40
1.0
 40
1.0
 10
219.6652527266503
 20
295.127636758958
 30
0.0
 10
218.6452331954003
 20
295.997656290208
 30
0.0
 10
218.1952331954003
 20
297.062646524583
 30
0.0
  0
SPLINE
  5
172
330
17
100
AcDbEntity
  8
ENGRAVE
100
AcDbSpline
 70
0
 71
2
 72
6
 73
3
 74
0
 40
0.0
 40
0.0
 40
0.0
 40
1.0
 40
1.0
 40
1.0
 10
217.74523319540032
 20
301.337695352708
 30
0.0
 10
218.0752136641503
 20
303.257714883958
 30
0.0
 10
219.1252136641503
 20
305.162695352708
 30
0.0
  0
SPLINE
  5
173
330
17
100
AcDbEntity
  8
ENGRAVE
100
AcDbSpline
 70
0
 71
2
 72
6
 73
3
 74
0
 40
0.0
 40
0.0
 40
0.0
 40
1.0
 40
1.0
 40
1.0
 10
220.5802429610253
 20
294.632714883958
 30
0.0
 10
219.99523319540032
 20
294.857714883958
 30
0.0
 10
219.6652527266503
 20
295.127636758958
 30
0.0
  0
SPLINE
  5
174
330
17
100
AcDbEntity
  8
ENGRAVE
100
AcDbSpline
 70
0
 71
2
 72
6
 73
3
 74
0
 40
0.0
 40
0.0
 40
0.0
 40
1.0
 40
1.0
 40
1.0
 10
220.4902527266503
 20
301.832666055833
 30
0.0
 10
220.2952331954003
 20
301.367675821458
 30
0.0
 10
220.2352722579003
 20
301.127636758958
 30
0.0
  0
SPLINE
  5
175
330
17
100
AcDbEntity
  8
ENGRAVE
100
AcDbSpline
 70
0
 71
2
 72
6
 73
3
 74
0
 40
0.0
 40
0.0
 40
0.0
 40
1.0
 40
1.0
 40
1.0
 10
220.2352722579003
 20
299.507714883958
 30
0.0
 10
220.2352722579003
 20
298.997656290208
 30
0.0
 10
220.26525272665032
 20
298.757666055833
 30
0.0
  0
SPLINE
  5
176
330
17
100
AcDbEntity
  8
ENGRAVE
100
AcDbSpline
 70
0
 71
2
 72
6
 73
3
 74
0
 40
0.0
 40
0.0
 40
0.0
 40
1.0
 40
1.0
 40
1.0
 10
220.26525272665032
 20
298.757666055833
 30
0.0
 10
220.2952331954003
 20
298.517675821458
 30
0.0
 10
220.37023319540032
 20
298.367675821458
 30
0.0
  0
SPLINE
  5
177
330
17
100
AcDbEntity
  8
ENGRAVE
100
AcDbSpline
 70
0
 71
2
 72
6
 73
3
 74
0
 40
0.0
 40
0.0
 40
0.0
 40
1.0
 40
1.0
 40
1.0
 10
220.8952331954003
 20
302.777685587083
 30
0.0
 10
220.6852722579003
 20
302.297656290208
 30
0.0
 10
220.4902527266503
 20
301.832666055833
 30
0.0
  0
SPLINE
  5
178
330
17
100
AcDbEntity
  8
ENGRAVE
100
AcDbSpline
 70
0
 71
2
 72
6
 73
3
 74
0
 40
0.0
 40
0.0
 40
0.0
 40
1.0
 40
1.0
 40
1.0
 10
221.7202331954003
 20
294.257714883958
 30
0.0
 10
221.1652527266503
 20
294.407714883958
 30
0.0
 10
220.5802429610253
 20
294.632714883958
 30
0.0
  0
SPLINE
  5
179
330
17
100
AcDbEntity
  8
ENGRAVE
100
AcDbSpline
 70
0
 71
2
 72
6
 73
3
 74
0
 40
0.0
 40
0.0
 40
0.0
 40
1.0
 40
1.0
 40
1.0
 10
220.37023319540032
 20
298.367675821458
 30
0.0
 10
220.4452331954003
 20
298.217675821458
 30
0.0
 10
220.5952331954003
 20
297.917675821458
 30
0.0
  0
SPLINE
  5
17A
330
17
100
AcDbEntity
  8
ENGRAVE
100
AcDbSpline
 70
0
 71
2
 72
6
 73
3
 74
0
 40
0.0
 40
0.0
 40
0.0
 40
1.0
 40
1.0
 40
1.0
 10
221.2551941329003
 20
303.467675821458
 30
0.0
 10
221.1051941329003
 20
303.257714883958
 30
0.0
 10
220.8952331954003
 20
302.777685587083
 30
0.0
  0
SPLINE
  5
17B
330
17
100
AcDbEntity
  8
ENGRAVE
100
AcDbSpline
 70
0
 71
2
 72
6
 73
3
 74
0
 40
0.0
 40
0.0
 40
0.0
 40
1.0
 40
1.0
 40
1.0
 10
220.5952331954003
 20
297.917675821458
 30
0.0
 10
220.7152527266503
 20
297.707714883958
 30
0.0
 10
220.9702331954003
 20
297.422705118333
 30
0.0
  0
SPLINE
  5
17C
330
17
100
AcDbEntity
  8
ENGRAVE
100
AcDbSpline
 70
0
 71
2
 72
6
 73
3
 74
0
 40
0.0
 40
0.0
 40
0.0
 40
1.0
 40
1.0
 40
1.0
 10
221.4352234297753
 20
303.887695352708
 30
0.0
 10
221.3452331954003
 20
303.707714883958
 30
0.0
 10
221.2551941329003
 20
303.467675821458
 30
0.0
  0
SPLINE
  5
17D
330
17
100
AcDbEntity
  8
ENGRAVE
100
AcDbSpline
 70
0
 71
2
 72
6
 73
3
 74
0
 40
0.0
 40
0.0
 40
0.0
 40
1.0
 40
1.0
 40
1.0
 10
220.9702331954003
 20
297.422705118333
 30
0.0
 10
221.22521366415032
 20
297.137695352708
 30
0.0
 10
221.3152527266503
 20
297.017675821458
 30
0.0
  0
SPLINE
  5
17E
330
17
100
AcDbEntity
  8
ENGRAVE
100
AcDbSpline
 70
0
 71
2
 72
6
 73
3
 74
0
 40
0.0
 40
0.0
 40
0.0
 40
1.0
 40
1.0
 40
1.0
 10
221.5252136641503
 20
304.187695352708
 30
0.0
 10
221.5252136641503
 20
304.067675821458
 30
0.0
 10
221.4352234297753
 20
303.887695352708
 30
0.0
  0
SPLINE
  5
17F
330
17
100
AcDbEntity
  8
ENGRAVE
100
AcDbSpline
 70
0
 71
2
 72
6
 73
3
 74
0
 40
0.0
 40
0.0
 40
0.0
 40
1.0
 40
1.0
 40
1.0
 10
221.9002136641503
 20
304.862695352708
 30
0.0
 10
221.5252136641503
 20
304.307714883958
 30
0.0
 10
221.5252136641503
 20
304.187695352708
 30
0.0
  0
SPLINE
  5
180
330
17
100
AcDbEntity
  8
ENGRAVE
100
AcDbSpline
 70
0
 71
2
 72
6
 73
3
 74
0
 40
0.0
 40
0.0
 40
0.0
 40
1.0
 40
1.0
 40
1.0
 10
219.1252136641503
 20
305.162695352708
 30
0.0
 10
220.1752136641503
 20
307.067675821458
 30
0.0
 10
221.6452331954003
 20
308.327636758958
 30
0.0
  0
SPLINE
  5
181
330
17
100
AcDbEntity
  8
ENGRAVE
100
AcDbSpline
 70
0
 71
2
 72
6
 73
3
 74
0
 40
0.0
 40
0.0
 40
0.0
 40
1.0
 40
1.0
 40
1.0
 10
222.4852722579003
 20
294.107714883958
 30
0.0
 10
222.2752136641503
 20
294.107714883958
 30
0.0
 10
221.7202331954003
 20
294.257714883958
 30
0.0
  0
SPLINE
  5
182
330
17
100
AcDbEntity
  8
ENGRAVE
100
AcDbSpline
 70
0
 71
2
 72
6
 73
3
 74
0
 40
0.0
 40
0.0
 40
0.0
 40
1.0
 40
1.0
 40
1.0
 10
221.3152527266503
 20
297.017675821458
 30
0.0
 10
221.6452331954003
 20
296.717675821458
 30
0.0
 10
221.7502136641503
 20
296.792675821458
 30
0.0
  0
SPLINE
  5
183
330
17
100
AcDbEntity
  8
ENGRAVE
100
AcDbSpline
 70
0
 71
2
 72
6
 73
3
 74
0
 40
0.0
 40
0.0
 40
0.0
 40
1.0
 40
1.0
 40
1.0
 10
222.8152527266503
 20
305.957714883958
 30
0.0
 10
222.2752136641503
 20
305.417675821458
 30
0.0
 10
221.9002136641503
 20
304.862695352708
 30
0.0
  0
SPLINE
  5
184
330
17
100
AcDbEntity
  8
ENGRAVE
100
AcDbSpline
 70
0
 71
2
 72
6
 73
3
 74
0
 40
0.0
 40
0.0
 40
0.0
 40
1.0
 40
1.0
 40
1.0
 10
221.7502136641503
 20
296.792675821458
 30
0.0
 10
221.8551941329003
 20
296.867675821458
 30
0.0
 10
222.4252136641503
 20
296.987695352708
 30
0.0
  0
SPLINE
  5
185
330
17
100
AcDbEntity
  8
ENGRAVE
100
AcDbSpline
 70
0
 71
2
 72
6
 73
3
 74
0
 40
0.0
 40
0.0
 40
0.0
 40
1.0
 40
1.0
 40
1.0
 10
223.4602234297753
 20
294.452685587083
 30
0.0
 10
222.8152527266503
 20
294.107714883958
 30
0.0
 10
222.4852722579003
 20
294.107714883958
 30
0.0
  0
SPLINE
  5
186
330
17
100
AcDbEntity
  8
ENGRAVE
100
AcDbSpline
 70
0
 71
2
 72
6
 73
3
 74
0
 40
0.0
 40
0.0
 40
0.0
 40
1.0
 40
1.0
 40
1.0
 10
223.88024296102532
 20
307.232666055833
 30
0.0
 10
223.47521366415032
 20
306.767675821458
 30
0.0
 10
222.8152527266503
 20
305.957714883958
 30
0.0
  0
SPLINE
  5
187
330
17
100
AcDbEntity
  8
ENGRAVE
100
AcDbSpline
 70
0
 71
2
 72
6
 73
3
 74
0
 40
0.0
 40
0.0
 40
0.0
 40
1.0
 40
1.0
 40
1.0
 10
222.4252136641503
 20
296.987695352708
 30
0.0
 10
222.7551941329003
 20
296.987695352708
 30
0.0
 10
223.0551941329003
 20
297.092675821458
 30
0.0
  0
SPLINE
  5
188
330
17
100
AcDbEntity
  8
ENGRAVE
100
AcDbSpline
 70
0
 71
2
 72
6
 73
3
 74
0
 40
0.0
 40
0.0
 40
0.0
 40
1.0
 40
1.0
 40
1.0
 10
221.6452331954003
 20
308.327636758958
 30
0.0
 10
222.4252136641503
 20
309.017675821458
 30
0.0
 10
223.2052429610253
 20
309.497656290208
 30
0.0
  0
SPLINE
  5
189
330
17
100
AcDbEntity
  8
ENGRAVE
100
AcDbSpline
 70
0
 71
2
 72
6
 73
3
 74
0
 40
0.0
 40
0.0
 40
0.0
 40
1.0
 40
1.0
 40
1.0
 10
224.7652038985253
 20
295.262646524583
 30
0.0
 10
224.1051941329003
 20
294.797656290208
 30
0.0
 10
223.4602234297753
 20
294.452685587083
 30
0.0
  0
SPLINE
  5
18A
330
17
100
AcDbEntity
  8
ENGRAVE
100
AcDbSpline
 70
0
 71
2
 72
6
 73
3
 74
0
 40
0.0
 40
0.0
 40
0.0
 40
1.0
 40
1.0
 40
1.0
 10
223.0551941329003
 20
297.092675821458
 30
0.0
 10
223.3551941329003
 20
297.197656290208
 30
0.0
 10
223.5652527266503
 20
297.407714883958
 30
0.0
  0
SPLINE
  5
18B
330
17
100
AcDbEntity
  8
ENGRAVE
100
AcDbSpline
 70
0
 71
2
 72
6
 73
3
 74
0
 40
0.0
 40
0.0
 40
0.0
 40
1.0
 40
1.0
 40
1.0
 10
224.28527225790032
 20
307.277636758958
 30
0.0
 10
224.28527225790032
 20
307.697656290208
 30
0.0
 10
223.88024296102532
 20
307.232666055833
 30
0.0
  0
SPLINE
  5
18C
330
17
100
AcDbEntity
  8
ENGRAVE
100
AcDbSpline
 70
0
 71
2
 72
6
 73
3
 74
0
 40
0.0
 40
0.0
 40
0.0
 40
1.0
 40
1.0
 40
1.0
 10
224.5402527266503
 20
307.037646524583
 30
0.0
 10
224.28527225790032
 20
307.127636758958
 30
0.0
 10
224.28527225790032
 20
307.277636758958
 30
0.0
  0
SPLINE
  5
18D
330
17
100
AcDbEntity
  8
ENGRAVE
100
AcDbSpline
 70
0
 71
2
 72
6
 73
3
 74
0
 40
0.0
 40
0.0
 40
0.0
 40
1.0
 40
1.0
 40
1.0
 10
225.0051941329003
 20
307.067675821458
 30
0.0
 10
224.7952331954003
 20
306.947656290208
 30
0.0
 10
224.5402527266503
 20
307.037646524583
 30
0.0
  0
SPLINE
  5
18E
330
17
100
AcDbEntity
  8
ENGRAVE
100
AcDbSpline
 70
0
 71
2
 72
6
 73
3
 74
0
 40
0.0
 40
0.0
 40
0.0
 40
1.0
 40
1.0
 40
1.0
 10
223.5652527266503
 20
297.407714883958
 30
0.0
 10
224.1051941329003
 20
297.767675821458
 30
0.0
 10
224.60021366415032
 20
298.367675821458
 30
0.0
  0
SPLINE
  5
18F
330
17
100
AcDbEntity
  8
ENGRAVE
100
AcDbSpline
 70
0
 71
2
 72
6
 73
3
 74
0
 40
0.0
 40
0.0
 40
0.0
 40
1.0
 40
1.0
 40
1.0
 10
225.72521366415032
 20
296.027636758958
 30
0.0
 10
225.4252136641503
 20
295.727636758958
 30
0.0
 10
224.7652038985253
 20
295.262646524583
 30
0.0
  0
SPLINE
  5
190
330
17
100
AcDbEntity
  8
ENGRAVE
100
AcDbSpline
 70
0
 71
2
 72
6
 73
3
 74
0
 40
0.0
 40
0.0
 40
0.0
 40
1.0
 40
1.0
 40
1.0
 10
223.2052429610253
 20
309.497656290208
 30
0.0
 10
223.9852722579003
 20
309.977636758958
 30
0.0
 10
224.8852722579003
 20
310.187695352708
 30
0.0
  0
SPLINE
  5
191
330
17
100
AcDbEntity
  8
ENGRAVE
100
AcDbSpline
 70
0
 71
2
 72
6
 73
3
 74
0
 40
0.0
 40
0.0
 40
0.0
 40
1.0
 40
1.0
 40
1.0
 10
225.5902527266503
 20
307.322656290208
 30
0.0
 10
225.24523319540032
 20
307.217675821458
 30
0.0
 10
225.0051941329003
 20
307.067675821458
 30
0.0
  0
SPLINE
  5
192
330
17
100
AcDbEntity
  8
ENGRAVE
100
AcDbSpline
 70
0
 71
2
 72
6
 73
3
 74
0
 40
0.0
 40
0.0
 40
0.0
 40
1.0
 40
1.0
 40
1.0
 10
224.60021366415032
 20
298.367675821458
 30
0.0
 10
225.0952331954003
 20
298.967675821458
 30
0.0
 10
225.4252136641503
 20
299.747656290208
 30
0.0
  0
SPLINE
  5
193
330
17
100
AcDbEntity
  8
ENGRAVE
100
AcDbSpline
 70
0
 71
2
 72
6
 73
3
 74
0
 40
0.0
 40
0.0
 40
0.0
 40
1.0
 40
1.0
 40
1.0
 10
226.1452331954003
 20
307.427636758958
 30
0.0
 10
225.9352722579003
 20
307.427636758958
 30
0.0
 10
225.5902527266503
 20
307.322656290208
 30
0.0
  0
SPLINE
  5
194
330
17
100
AcDbEntity
  8
ENGRAVE
100
AcDbSpline
 70
0
 71
2
 72
6
 73
3
 74
0
 40
0.0
 40
0.0
 40
0.0
 40
1.0
 40
1.0
 40
1.0
 10
226.6702331954003
 20
297.077685587083
 30
0.0
 10
226.26525272665032
 20
296.567675821458
 30
0.0
 10
225.72521366415032
 20
296.027636758958
 30
0.0
  0
SPLINE
  5
195
330
17
100
AcDbEntity
  8
ENGRAVE
100
AcDbSpline
 70
0
 71
2
 72
6
 73
3
 74
0
 40
0.0
 40
0.0
 40
0.0
 40
1.0
 40
1.0
 40
1.0
 10
224.8852722579003
 20
310.187695352708
 30
0.0
 10
225.2152527266503
 20
310.277636758958
 30
0.0
 10
225.8302429610253
 20
310.292675821458
 30
0.0
  0
SPLINE
  5
196
330
17
100
AcDbEntity
  8
ENGRAVE
100
AcDbSpline
 70
0
 71
2
 72
6
 73
3
 74
0
 40
0.0
 40
0.0
 40
0.0
 40
1.0
 40
1.0
 40
1.0
 10
225.4252136641503
 20
299.747656290208
 30
0.0
 10
225.7551941329003
 20
300.197656290208
 30
0.0
 10
225.9502136641503
 20
300.692675821458
 30
0.0
  0
SPLINE
  5
197
330
17
100
AcDbEntity
  8
ENGRAVE
100
AcDbSpline
 70
0
 71
2
 72
6
 73
3
 74
0
 40
0.0
 40
0.0
 40
0.0
 40
1.0
 40
1.0
 40
1.0
 10
226.5502136641503
 20
307.337646524583
 30
0.0
 10
226.3551941329003
 20
307.427636758958
 30
0.0
 10
226.1452331954003
 20
307.427636758958
 30
0.0
  0
SPLINE
  5
198
330
17
100
AcDbEntity
  8
ENGRAVE
100
AcDbSpline
 70
0
 71
2
 72
6
 73
3
 74
0
 40
0.0
 40
0.0
 40
0.0
 40
1.0
 40
1.0
 40
1.0
 10
226.8652527266503
 20
307.157714883958
 30
0.0
 10
226.74523319540032
 20
307.247656290208
 30
0.0
 10
226.5502136641503
 20
307.337646524583
 30
0.0
  0
SPLINE
  5
199
330
17
100
AcDbEntity
  8
ENGRAVE
100
AcDbSpline
 70
0
 71
2
 72
6
 73
3
 74
0
 40
0.0
 40
0.0
 40
0.0
 40
1.0
 40
1.0
 40
1.0
 10
225.9502136641503
 20
300.692675821458
 30
0.0
 10
226.1452331954003
 20
301.187695352708
 30
0.0
 10
226.5652527266503
 20
302.387695352708
 30
0.0
  0
SPLINE
  5
19A
330
17
100
AcDbEntity
  8
ENGRAVE
100
AcDbSpline
 70
0
 71
2
 72
6
 73
3
 74
0
 40
0.0
 40
0.0
 40
0.0
 40
1.0
 40
1.0
 40
1.0
 10
225.8302429610253
 20
310.292675821458
 30
0.0
 10
226.4452331954003
 20
310.307714883958
 30
0.0
 10
226.6551941329003
 20
310.307714883958
 30
0.0
  0
SPLINE
  5
19B
330
17
100
AcDbEntity
  8
ENGRAVE
100
AcDbSpline
 70
0
 71
2
 72
6
 73
3
 74
0
 40
0.0
 40
0.0
 40
0.0
 40
1.0
 40
1.0
 40
1.0
 10
227.0752136641503
 20
297.707714883958
 30
0.0
 10
227.0752136641503
 20
297.587695352708
 30
0.0
 10
226.6702331954003
 20
297.077685587083
 30
0.0
  0
SPLINE
  5
19C
330
17
100
AcDbEntity
  8
ENGRAVE
100
AcDbSpline
 70
0
 71
2
 72
6
 73
3
 74
0
 40
0.0
 40
0.0
 40
0.0
 40
1.0
 40
1.0
 40
1.0
 10
227.1052429610253
 20
306.782666055833
 30
0.0
 10
227.0752136641503
 20
306.917675821458
 30
0.0
 10
226.8652527266503
 20
307.157714883958
 30
0.0
  0
SPLINE
  5
19D
330
17
100
AcDbEntity
  8
ENGRAVE
100
AcDbSpline
 70
0
 71
2
 72
6
 73
3
 74
0
 40
0.0
 40
0.0
 40
0.0
 40
1.0
 40
1.0
 40
1.0
 10
226.5652527266503
 20
302.387695352708
 30
0.0
 10
226.8051941329003
 20
302.717675821458
 30
0.0
 10
226.8952331954003
 20
303.197656290208
 30
0.0
  0
SPLINE
  5
19E
330
17
100
AcDbEntity
  8
ENGRAVE
100
AcDbSpline
 70
0
 71
2
 72
6
 73
3
 74
0
 40
0.0
 40
0.0
 40
0.0
 40
1.0
 40
1.0
 40
1.0
 10
226.8952331954003
 20
303.197656290208
 30
0.0
 10
226.9852722579003
 20
303.677636758958
 30
0.0
 10
226.9852722579003
 20
304.007714883958
 30
0.0
  0
SPLINE
  5
19F
330
17
100
AcDbEntity
  8
ENGRAVE
100
AcDbSpline
 70
0
 71
2
 72
6
 73
3
 74
0
 40
0.0
 40
0.0
 40
0.0
 40
1.0
 40
1.0
 40
1.0
 10
226.9852722579003
 20
304.007714883958
 30
0.0
 10
226.9852722579003
 20
304.337695352708
 30
0.0
 10
227.0002624922753
 20
304.907666055833
 30
0.0
  0
SPLINE
  5
1A0
330
17
100
AcDbEntity
  8
ENGRAVE
100
AcDbSpline
 70
0
 71
2
 72
6
 73
3
 74
0
 40
0.0
 40
0.0
 40
0.0
 40
1.0
 40
1.0
 40
1.0
 10
227.1502136641503
 20
297.812646524583
 30
0.0
 10
227.0752136641503
 20
297.797656290208
 30
0.0
 10
227.0752136641503
 20
297.707714883958
 30
0.0
  0
SPLINE
  5
1A1
330
17
100
AcDbEntity
  8
ENGRAVE
100
AcDbSpline
 70
0
 71
2
 72
6
 73
3
 74
0
 40
0.0
 40
0.0
 40
0.0
 40
1.0
 40
1.0
 40
1.0
 10
227.1352722579003
 20
305.867675821458
 30
0.0
 10
227.1352722579003
 20
306.647656290208
 30
0.0
 10
227.1052429610253
 20
306.782666055833
 30
0.0
  0
SPLINE
  5
1A2
330
17
100
AcDbEntity
  8
ENGRAVE
100
AcDbSpline
 70
0
 71
2
 72
6
 73
3
 74
0
 40
0.0
 40
0.0
 40
0.0
 40
1.0
 40
1.0
 40
1.0
 10
227.0002624922753
 20
304.907666055833
 30
0.0
 10
227.01525272665032
 20
305.477636758958
 30
0.0
 10
227.1352722579003
 20
305.867675821458
 30
0.0
  0
SPLINE
  5
1A3
330
17
100
AcDbEntity
  8
ENGRAVE
100
AcDbSpline
 70
0
 71
2
 72
6
 73
3
 74
0
 40
0.0
 40
0.0
 40
0.0
 40
1.0
 40
1.0
 40
1.0
 10
227.22521366415032
 20
297.827636758958
 30
0.0
 10
227.22521366415032
 20
297.827636758958
 30
0.0
 10
227.1502136641503
 20
297.812646524583
 30
0.0
  0
SPLINE
  5
1A4
330
17
100
AcDbEntity
  8
ENGRAVE
100
AcDbSpline
 70
0
 71
2
 72
6
 73
3
 74
0
 40
0.0
 40
0.0
 40
0.0
 40
1.0
 40
1.0
 40
1.0
 10
227.4802429610253
 20
298.097656290208
 30
0.0
 10
227.3152527266503
 20
297.827636758958
 30
0.0
 10
227.22521366415032
 20
297.827636758958
 30
0.0
  0
SPLINE
  5
1A5
330
17
100
AcDbEntity
  8
ENGRAVE
100
AcDbSpline
 70
0
 71
2
 72
6
 73
3
 74
0
 40
0.0
 40
0.0
 40
0.0
 40
1.0
 40
1.0
 40
1.0
 10
227.7952331954003
 20
298.682666055833
 30
0.0
 10
227.6452331954003
 20
298.367675821458
 30
0.0
 10
227.4802429610253
 20
298.097656290208
 30
0.0
  0
SPLINE
  5
1A6
330
17
100
AcDbEntity
  8
ENGRAVE
100
AcDbSpline
 70
0
 71
2
 72
6
 73
3
 74
0
 40
0.0
 40
0.0
 40
0.0
 40
1.0
 40
1.0
 40
1.0
 10
227.9452331954003
 20
299.087695352708
 30
0.0
 10
227.9452331954003
 20
298.997656290208
 30
0.0
 10
227.7952331954003
 20
298.682666055833
 30
0.0
  0
SPLINE
  5
1A7
330
17
100
AcDbEntity
  8
ENGRAVE
100
AcDbSpline
 70
0
 71
2
 72
6
 73
3
 74
0
 40
0.0
 40
0.0
 40
0.0
 40
1.0
 40
1.0
 40
1.0
 10
228.0952331954003
 20
299.507714883958
 30
0.0
 10
227.97521366415032
 20
299.387695352708
 30
0.0
 10
227.9002136641503
 20
299.297705118333
 30
0.0
  0
SPLINE
  5
1A8
330
17
100
AcDbEntity
  8
ENGRAVE
100
AcDbSpline
 70
0
 71
2
 72
6
 73
3
 74
0
 40
0.0
 40
0.0
 40
0.0
 40
1.0
 40
1.0
 40
1.0
 10
227.9002136641503
 20
299.297705118333
 30
0.0
 10
227.8252136641503
 20
299.207714883958
 30
0.0
 10
227.9452331954003
 20
299.087695352708
 30
0.0
  0
SPLINE
  5
1A9
330
17
100
AcDbEntity
  8
ENGRAVE
100
AcDbSpline
 70
0
 71
2
 72
6
 73
3
 74
0
 40
0.0
 40
0.0
 40
0.0
 40
1.0
 40
1.0
 40
1.0
 10
226.6551941329003
 20
310.307714883958
 30
0.0
 10
227.2551941329003
 20
310.307714883958
 30
0.0
 10
227.9902038985253
 20
310.052685587083
 30
0.0
  0
SPLINE
  5
1AA
330
17
100
AcDbEntity
  8
ENGRAVE
100
AcDbSpline
 70
0
 71
2
 72
6
 73
3
 74
0
 40
0.0
 40
0.0
 40
0.0
 40
1.0
 40
1.0
 40
1.0
 10
228.48522342977532
 20
300.347656290208
 30
0.0
 10
228.2152527266503
 20
299.747656290208
 30
0.0
 10
228.0952331954003
 20
299.507714883958
 30
0.0
  0
SPLINE
  5
1AB
330
17
100
AcDbEntity
  8
ENGRAVE
100
AcDbSpline
 70
0
 71
2
 72
6
 73
3
 74
0
 40
0.0
 40
0.0
 40
0.0
 40
1.0
 40
1.0
 40
1.0
 10
228.8752136641503
 20
301.187695352708
 30
0.0
 10
228.7551941329003
 20
300.947656290208
 30
0.0
 10
228.48522342977532
 20
300.347656290208
 30
0.0
  0
SPLINE
  5
1AC
330
17
100
AcDbEntity
  8
ENGRAVE
100
AcDbSpline
 70
0
 71
2
 72
6
 73
3
 74
0
 40
0.0
 40
0.0
 40
0.0
 40
1.0
 40
1.0
 40
1.0
 10
228.8902038985253
 20
301.472705118333
 30
0.0
 10
228.8752136641503
 20
301.307714883958
 30
0.0
 10
228.8752136641503
 20
301.187695352708
 30
0.0
  0
SPLINE
  5
1AD
330
17
100
AcDbEntity
  8
ENGRAVE
100
AcDbSpline
 70
0
 71
2
 72
6
 73
3
 74
0
 40
0.0
 40
0.0
 40
0.0
 40
1.0
 40
1.0
 40
1.0
 10
228.99523319540032
 20
301.817675821458
 30
0.0
 10
228.9051941329003
 20
301.637695352708
 30
0.0
 10
228.8902038985253
 20
301.472705118333
 30
0.0
  0
SPLINE
  5
1AE
330
17
100
AcDbEntity
  8
ENGRAVE
100
AcDbSpline
 70
0
 71
2
 72
6
 73
3
 74
0
 40
0.0
 40
0.0
 40
0.0
 40
1.0
 40
1.0
 40
1.0
 10
229.2502624922753
 20
302.657666055833
 30
0.0
 10
229.1152527266503
 20
302.087695352708
 30
0.0
 10
228.99523319540032
 20
301.817675821458
 30
0.0
  0
SPLINE
  5
1AF
330
17
100
AcDbEntity
  8
ENGRAVE
100
AcDbSpline
 70
0
 71
2
 72
6
 73
3
 74
0
 40
0.0
 40
0.0
 40
0.0
 40
1.0
 40
1.0
 40
1.0
 10
229.5202331954003
 20
303.887646524583
 30
0.0
 10
229.3852722579003
 20
303.227636758958
 30
0.0
 10
229.2502624922753
 20
302.657666055833
 30
0.0
  0
SPLINE
  5
1B0
330
17
100
AcDbEntity
  8
ENGRAVE
100
AcDbSpline
 70
0
 71
2
 72
6
 73
3
 74
0
 40
0.0
 40
0.0
 40
0.0
 40
1.0
 40
1.0
 40
1.0
 10
227.9902038985253
 20
310.052685587083
 30
0.0
 10
228.72521366415032
 20
309.797656290208
 30
0.0
 10
229.2652038985253
 20
309.452685587083
 30
0.0
  0
SPLINE
  5
1B1
330
17
100
AcDbEntity
  8
ENGRAVE
100
AcDbSpline
 70
0
 71
2
 72
6
 73
3
 74
0
 40
0.0
 40
0.0
 40
0.0
 40
1.0
 40
1.0
 40
1.0
 10
229.7752136641503
 20
308.387646524583
 30
0.0
 10
229.74523319540032
 20
308.177636758958
 30
0.0
 10
229.5051941329003
 20
308.297656290208
 30
0.0
  0
SPLINE
  5
1B2
330
17
100
AcDbEntity
  8
ENGRAVE
100
AcDbSpline
 70
0
 71
2
 72
6
 73
3
 74
0
 40
0.0
 40
0.0
 40
0.0
 40
1.0
 40
1.0
 40
1.0
 10
229.7301941329003
 20
305.132666055833
 30
0.0
 10
229.6551941329003
 20
304.547656290208
 30
0.0
 10
229.5202331954003
 20
303.887646524583
 30
0.0
  0
SPLINE
  5
1B3
330
17
100
AcDbEntity
  8
ENGRAVE
100
AcDbSpline
 70
0
 71
2
 72
6
 73
3
 74
0
 40
0.0
 40
0.0
 40
0.0
 40
1.0
 40
1.0
 40
1.0
 10
229.5051941329003
 20
307.397656290208
 30
0.0
 10
229.6252136641503
 20
307.157714883958
 30
0.0
 10
229.71520389852532
 20
306.752685587083
 30
0.0
  0
SPLINE
  5
1B4
330
17
100
AcDbEntity
  8
ENGRAVE
100
AcDbSpline
 70
0
 71
2
 72
6
 73
3
 74
0
 40
0.0
 40
0.0
 40
0.0
 40
1.0
 40
1.0
 40
1.0
 10
229.8051941329003
 20
306.017675821458
 30
0.0
 10
229.8051941329003
 20
305.717675821458
 30
0.0
 10
229.7301941329003
 20
305.132666055833
 30
0.0
  0
SPLINE
  5
1B5
330
17
100
AcDbEntity
  8
ENGRAVE
100
AcDbSpline
 70
0
 71
2
 72
6
 73
3
 74
0
 40
0.0
 40
0.0
 40
0.0
 40
1.0
 40
1.0
 40
1.0
 10
229.8051941329003
 20
308.807714883958
 30
0.0
 10
229.8051941329003
 20
308.597656290208
 30
0.0
 10
229.7752136641503
 20
308.387646524583
 30
0.0
  0
SPLINE
  5
1B6
330
17
100
AcDbEntity
  8
ENGRAVE
100
AcDbSpline
 70
0
 71
2
 72
6
 73
3
 74
0
 40
0.0
 40
0.0
 40
0.0
 40
1.0
 40
1.0
 40
1.0
 10
229.71520389852532
 20
306.752685587083
 30
0.0
 10
229.8051941329003
 20
306.347656290208
 30
0.0
 10
229.8051941329003
 20
306.017675821458
 30
0.0
  0
SPLINE
  5
1B7
330
17
100
AcDbEntity
  8
ENGRAVE
100
AcDbSpline
 70
0
 71
2
 72
6
 73
3
 74
0
 40
0.0
 40
0.0
 40
0.0
 40
1.0
 40
1.0
 40
1.0
 10
229.2652038985253
 20
309.452685587083
 30
0.0
 10
229.8051941329003
 20
309.107714883958
 30
0.0
 10
229.8051941329003
 20
308.807714883958
 30
0.0
  0
SPLINE
  5
1B8
330
17
100
AcDbEntity
  8
ENGRAVE
100
AcDbSpline
 70
0
 71
2
 72
6
 73
3
 74
0
 40
0.0
 40
0.0
 40
0.0
 40
1.0
 40
1.0
 40
1.0
 10
230.3452331954003
 20
296.147656290208
 30
0.0
 10
230.22521366415032
 20
296.237695352708
 30
0.0
 10
230.2102234297753
 20
296.942675821458
 30
0.0
  0
SPLINE
  5
1B9
330
17
100
AcDbEntity
  8
ENGRAVE
100
AcDbSpline
 70
0
 71
2
 72
6
 73
3
 74
0
 40
0.0
 40
0.0
 40
0.0
 40
1.0
 40
1.0
 40
1.0
 10
230.2102234297753
 20
296.942675821458
 30
0.0
 10
230.1952331954003
 20
297.647656290208
 30
0.0
 10
230.2852234297753
 20
298.517675821458
 30
0.0
  0
SPLINE
  5
1BA
330
17
100
AcDbEntity
  8
ENGRAVE
100
AcDbSpline
 70
0
 71
2
 72
6
 73
3
 74
0
 40
0.0
 40
0.0
 40
0.0
 40
1.0
 40
1.0
 40
1.0
 10
230.4202331954003
 20
296.057666055833
 30
0.0
 10
230.3452331954003
 20
296.147656290208
 30
0.0
 10
230.3452331954003
 20
296.147656290208
 30
0.0
  0
SPLINE
  5
1BB
330
17
100
AcDbEntity
  8
ENGRAVE
100
AcDbSpline
 70
0
 71
2
 72
6
 73
3
 74
0
 40
0.0
 40
0.0
 40
0.0
 40
1.0
 40
1.0
 40
1.0
 10
230.49523319540032
 20
295.907714883958
 30
0.0
 10
230.49523319540032
 20
295.967675821458
 30
0.0
 10
230.4202331954003
 20
296.057666055833
 30
0.0
  0
SPLINE
  5
1BC
330
17
100
AcDbEntity
  8
ENGRAVE
100
AcDbSpline
 70
0
 71
2
 72
6
 73
3
 74
0
 40
0.0
 40
0.0
 40
0.0
 40
1.0
 40
1.0
 40
1.0
 10
230.90026249227532
 20
295.172705118333
 30
0.0
 10
230.5852722579003
 20
295.607714883958
 30
0.0
 10
230.49523319540032
 20
295.907714883958
 30
0.0
  0
SPLINE
  5
1BD
330
17
100
AcDbEntity
  8
ENGRAVE
100
AcDbSpline
 70
0
 71
2
 72
6
 73
3
 74
0
 40
0.0
 40
0.0
 40
0.0
 40
1.0
 40
1.0
 40
1.0
 10
230.2852234297753
 20
298.517675821458
 30
0.0
 10
230.3752136641503
 20
299.387695352708
 30
0.0
 10
230.49523319540032
 20
299.897656290208
 30
0.0
  0
SPLINE
  5
1BE
330
17
100
AcDbEntity
  8
ENGRAVE
100
AcDbSpline
 70
0
 71
2
 72
6
 73
3
 74
0
 40
0.0
 40
0.0
 40
0.0
 40
1.0
 40
1.0
 40
1.0
 10
230.7202331954003
 20
304.997656290208
 30
0.0
 10
230.5852722579003
 20
305.177636758958
 30
0.0
 10
230.5852722579003
 20
305.297656290208
 30
0.0
  0
SPLINE
  5
1BF
330
17
100
AcDbEntity
  8
ENGRAVE
100
AcDbSpline
 70
0
 71
2
 72
6
 73
3
 74
0
 40
0.0
 40
0.0
 40
0.0
 40
1.0
 40
1.0
 40
1.0
 10
231.0652527266503
 20
304.757714883958
 30
0.0
 10
230.8551941329003
 20
304.817675821458
 30
0.0
 10
230.7202331954003
 20
304.997656290208
 30
0.0
  0
SPLINE
  5
1C0
330
17
100
AcDbEntity
  8
ENGRAVE
100
AcDbSpline
 70
0
 71
2
 72
6
 73
3
 74
0
 40
0.0
 40
0.0
 40
0.0
 40
1.0
 40
1.0
 40
1.0
 10
230.5852722579003
 20
305.297656290208
 30
0.0
 10
230.5852722579003
 20
305.537695352708
 30
0.0
 10
230.8552429610253
 20
305.987695352708
 30
0.0
  0
SPLINE
  5
1C1
330
17
100
AcDbEntity
  8
ENGRAVE
100
AcDbSpline
 70
0
 71
2
 72
6
 73
3
 74
0
 40
0.0
 40
0.0
 40
0.0
 40
1.0
 40
1.0
 40
1.0
 10
231.6052429610253
 20
294.392675821458
 30
0.0
 10
231.2152527266503
 20
294.737695352708
 30
0.0
 10
230.90026249227532
 20
295.172705118333
 30
0.0
  0
SPLINE
  5
1C2
330
17
100
AcDbEntity
  8
ENGRAVE
100
AcDbSpline
 70
0
 71
2
 72
6
 73
3
 74
0
 40
0.0
 40
0.0
 40
0.0
 40
1.0
 40
1.0
 40
1.0
 10
230.49523319540032
 20
299.897656290208
 30
0.0
 10
230.6452331954003
 20
300.377636758958
 30
0.0
 10
230.9452331954003
 20
301.202636758958
 30
0.0
  0
SPLINE
  5
1C3
330
17
100
AcDbEntity
  8
ENGRAVE
100
AcDbSpline
 70
0
 71
2
 72
6
 73
3
 74
0
 40
0.0
 40
0.0
 40
0.0
 40
1.0
 40
1.0
 40
1.0
 10
230.8552429610253
 20
305.987695352708
 30
0.0
 10
231.1252136641503
 20
306.437695352708
 30
0.0
 10
231.24523319540032
 20
306.437695352708
 30
0.0
  0
SPLINE
  5
1C4
330
17
100
AcDbEntity
  8
ENGRAVE
100
AcDbSpline
 70
0
 71
2
 72
6
 73
3
 74
0
 40
0.0
 40
0.0
 40
0.0
 40
1.0
 40
1.0
 40
1.0
 10
230.9452331954003
 20
301.202636758958
 30
0.0
 10
231.24523319540032
 20
302.027636758958
 30
0.0
 10
231.45519413290032
 20
302.687695352708
 30
0.0
  0
SPLINE
  5
1C5
330
17
100
AcDbEntity
  8
ENGRAVE
100
AcDbSpline
 70
0
 71
2
 72
6
 73
3
 74
0
 40
0.0
 40
0.0
 40
0.0
 40
1.0
 40
1.0
 40
1.0
 10
232.3252136641503
 20
293.987695352708
 30
0.0
 10
231.99523319540032
 20
294.047656290208
 30
0.0
 10
231.6052429610253
 20
294.392675821458
 30
0.0
  0
SPLINE
  5
1C6
330
17
100
AcDbEntity
  8
ENGRAVE
100
AcDbSpline
 70
0
 71
2
 72
6
 73
3
 74
0
 40
0.0
 40
0.0
 40
0.0
 40
1.0
 40
1.0
 40
1.0
 10
231.24523319540032
 20
306.437695352708
 30
0.0
 10
231.3952331954003
 20
306.407714883958
 30
0.0
 10
231.8002136641503
 20
306.407714883958
 30
0.0
  0
SPLINE
  5
1C7
330
17
100
AcDbEntity
  8
ENGRAVE
100
AcDbSpline
 70
0
 71
2
 72
6
 73
3
 74
0
 40
0.0
 40
0.0
 40
0.0
 40
1.0
 40
1.0
 40
1.0
 10
234.45519413290032
 20
294.017675821458
 30
0.0
 10
233.1051941329003
 20
293.837695352708
 30
0.0
 10
232.3252136641503
 20
293.987695352708
 30
0.0
  0
SPLINE
  5
1C8
330
17
100
AcDbEntity
  8
ENGRAVE
100
AcDbSpline
 70
0
 71
2
 72
6
 73
3
 74
0
 40
0.0
 40
0.0
 40
0.0
 40
1.0
 40
1.0
 40
1.0
 10
233.09020389852532
 20
299.792675821458
 30
0.0
 10
232.8051941329003
 20
298.637695352708
 30
0.0
 10
232.5952331954003
 20
297.497656290208
 30
0.0
  0
SPLINE
  5
1C9
330
17
100
AcDbEntity
  8
ENGRAVE
100
AcDbSpline
 70
0
 71
2
 72
6
 73
3
 74
0
 40
0.0
 40
0.0
 40
0.0
 40
1.0
 40
1.0
 40
1.0
 10
231.8002136641503
 20
306.407714883958
 30
0.0
 10
232.20519413290032
 20
306.407714883958
 30
0.0
 10
232.5952331954003
 20
306.437695352708
 30
0.0
  0
SPLINE
  5
1CA
330
17
100
AcDbEntity
  8
ENGRAVE
100
AcDbSpline
 70
0
 71
2
 72
6
 73
3
 74
0
 40
0.0
 40
0.0
 40
0.0
 40
1.0
 40
1.0
 40
1.0
 10
232.5952331954003
 20
297.497656290208
 30
0.0
 10
232.5051941329003
 20
296.927636758958
 30
0.0
 10
232.6402038985253
 20
296.672656290208
 30
0.0
  0
SPLINE
  5
1CB
330
17
100
AcDbEntity
  8
ENGRAVE
100
AcDbSpline
 70
0
 71
2
 72
6
 73
3
 74
0
 40
0.0
 40
0.0
 40
0.0
 40
1.0
 40
1.0
 40
1.0
 10
232.5952331954003
 20
306.437695352708
 30
0.0
 10
232.9852722579003
 20
306.467675821458
 30
0.0
 10
233.0752136641503
 20
306.497656290208
 30
0.0
  0
SPLINE
  5
1CC
330
17
100
AcDbEntity
  8
ENGRAVE
100
AcDbSpline
 70
0
 71
2
 72
6
 73
3
 74
0
 40
0.0
 40
0.0
 40
0.0
 40
1.0
 40
1.0
 40
1.0
 10
233.7952331954003
 20
302.207714883958
 30
0.0
 10
233.3752136641503
 20
300.947656290208
 30
0.0
 10
233.09020389852532
 20
299.792675821458
 30
0.0
  0
SPLINE
  5
1CD
330
17
100
AcDbEntity
  8
ENGRAVE
100
AcDbSpline
 70
0
 71
2
 72
6
 73
3
 74
0
 40
0.0
 40
0.0
 40
0.0
 40
1.0
 40
1.0
 40
1.0
 10
233.0752136641503
 20
306.497656290208
 30
0.0
 10
233.1952331954003
 20
306.557714883958
 30
0.0
 10
233.3152527266503
 20
306.662695352708
 30
0.0
  0
SPLINE
  5
1CE
330
17
100
AcDbEntity
  8
ENGRAVE
100
AcDbSpline
 70
0
 71
2
 72
6
 73
3
 74
0
 40
0.0
 40
0.0
 40
0.0
 40
1.0
 40
1.0
 40
1.0
 10
232.6402038985253
 20
296.672656290208
 30
0.0
 10
232.7752136641503
 20
296.417675821458
 30
0.0
 10
233.4051941329003
 20
296.357714883958
 30
0.0
  0
SPLINE
  5
1CF
330
17
100
AcDbEntity
  8
ENGRAVE
100
AcDbSpline
 70
0
 71
2
 72
6
 73
3
 74
0
 40
0.0
 40
0.0
 40
0.0
 40
1.0
 40
1.0
 40
1.0
 10
233.3152527266503
 20
306.662695352708
 30
0.0
 10
233.4352722579003
 20
306.767675821458
 30
0.0
 10
233.49523319540032
 20
306.977636758958
 30
0.0
  0
SPLINE
  5
1D0
330
17
100
AcDbEntity
  8
ENGRAVE
100
AcDbSpline
 70
0
 71
2
 72
6
 73
3
 74
0
 40
0.0
 40
0.0
 40
0.0
 40
1.0
 40
1.0
 40
1.0
 10
233.49523319540032
 20
306.977636758958
 30
0.0
 10
233.6452331954003
 20
307.307714883958
 30
0.0
 10
233.76525272665032
 20
307.487695352708
 30
0.0
  0
SPLINE
  5
1D1
330
17
100
AcDbEntity
  8
ENGRAVE
100
AcDbSpline
 70
0
 71
2
 72
6
 73
3
 74
0
 40
0.0
 40
0.0
 40
0.0
 40
1.0
 40
1.0
 40
1.0
 10
234.3952331954003
 20
303.317675821458
 30
0.0
 10
234.1551941329003
 20
302.807714883958
 30
0.0
 10
233.7952331954003
 20
302.207714883958
 30
0.0
  0
SPLINE
  5
1D2
330
17
100
AcDbEntity
  8
ENGRAVE
100
AcDbSpline
 70
0
 71
2
 72
6
 73
3
 74
0
 40
0.0
 40
0.0
 40
0.0
 40
1.0
 40
1.0
 40
1.0
 10
233.76525272665032
 20
307.487695352708
 30
0.0
 10
233.8852722579003
 20
307.667675821458
 30
0.0
 10
234.0952331954003
 20
308.027636758958
 30
0.0
  0
SPLINE
  5
1D3
330
17
100
AcDbEntity
  8
ENGRAVE
100
AcDbSpline
 70
0
 71
2
 72
6
 73
3
 74
0
 40
0.0
 40
0.0
 40
0.0
 40
1.0
 40
1.0
 40
1.0
 10
233.4051941329003
 20
296.357714883958
 30
0.0
 10
233.7352722579003
 20
296.327636758958
 30
0.0
 10
234.3652527266503
 20
296.372656290208
 30
0.0
  0
SPLINE
  5
1D4
330
17
100
AcDbEntity
  8
ENGRAVE
100
AcDbSpline
 70
0
 71
2
 72
6
 73
3
 74
0
 40
0.0
 40
0.0
 40
0.0
 40
1.0
 40
1.0
 40
1.0
 10
234.7551941329003
 20
303.947656290208
 30
0.0
 10
234.6352722579003
 20
303.827636758958
 30
0.0
 10
234.3952331954003
 20
303.317675821458
 30
0.0
  0
SPLINE
  5
1D5
330
17
100
AcDbEntity
  8
ENGRAVE
100
AcDbSpline
 70
0
 71
2
 72
6
 73
3
 74
0
 40
0.0
 40
0.0
 40
0.0
 40
1.0
 40
1.0
 40
1.0
 10
234.0952331954003
 20
308.027636758958
 30
0.0
 10
234.3051941329003
 20
308.417675821458
 30
0.0
 10
234.4402038985253
 20
308.687695352708
 30
0.0
  0
SPLINE
  5
1D6
330
17
100
AcDbEntity
  8
ENGRAVE
100
AcDbSpline
 70
0
 71
2
 72
6
 73
3
 74
0
 40
0.0
 40
0.0
 40
0.0
 40
1.0
 40
1.0
 40
1.0
 10
237.1551941329003
 20
295.037695352708
 30
0.0
 10
235.8051941329003
 20
294.197656290208
 30
0.0
 10
234.45519413290032
 20
294.017675821458
 30
0.0
  0
SPLINE
  5
1D7
330
17
100
AcDbEntity
  8
ENGRAVE
100
AcDbSpline
 70
0
 71
2
 72
6
 73
3
 74
0
 40
0.0
 40
0.0
 40
0.0
 40
1.0
 40
1.0
 40
1.0
 10
234.9802429610253
 20
304.322705118333
 30
0.0
 10
234.8752136641503
 20
304.187695352708
 30
0.0
 10
234.7551941329003
 20
303.947656290208
 30
0.0
  0
SPLINE
  5
1D8
330
17
100
AcDbEntity
  8
ENGRAVE
100
AcDbSpline
 70
0
 71
2
 72
6
 73
3
 74
0
 40
0.0
 40
0.0
 40
0.0
 40
1.0
 40
1.0
 40
1.0
 10
234.4402038985253
 20
308.687695352708
 30
0.0
 10
234.5752136641503
 20
308.957714883958
 30
0.0
 10
234.8752136641503
 20
309.437695352708
 30
0.0
  0
SPLINE
  5
1D9
330
17
100
AcDbEntity
  8
ENGRAVE
100
AcDbSpline
 70
0
 71
2
 72
6
 73
3
 74
0
 40
0.0
 40
0.0
 40
0.0
 40
1.0
 40
1.0
 40
1.0
 10
235.3252136641503
 20
304.517675821458
 30
0.0
 10
235.0852722579003
 20
304.457714883958
 30
0.0
 10
234.9802429610253
 20
304.322705118333
 30
0.0
  0
SPLINE
  5
1DA
330
17
100
AcDbEntity
  8
ENGRAVE
100
AcDbSpline
 70
0
 71
2
 72
6
 73
3
 74
0
 40
0.0
 40
0.0
 40
0.0
 40
1.0
 40
1.0
 40
1.0
 10
234.8752136641503
 20
309.437695352708
 30
0.0
 10
235.0252136641503
 20
309.647656290208
 30
0.0
 10
235.2052429610253
 20
309.947656290208
 30
0.0
  0
SPLINE
  5
1DB
330
17
100
AcDbEntity
  8
ENGRAVE
100
AcDbSpline
 70
0
 71
2
 72
6
 73
3
 74
0
 40
0.0
 40
0.0
 40
0.0
 40
1.0
 40
1.0
 40
1.0
 10
235.6852234297753
 20
304.577636758958
 30
0.0
 10
235.5652527266503
 20
304.577636758958
 30
0.0
 10
235.3252136641503
 20
304.517675821458
 30
0.0
  0
SPLINE
  5
1DC
330
17
100
AcDbEntity
  8
ENGRAVE
100
AcDbSpline
 70
0
 71
2
 72
6
 73
3
 74
0
 40
0.0
 40
0.0
 40
0.0
 40
1.0
 40
1.0
 40
1.0
 10
234.3652527266503
 20
296.372656290208
 30
0.0
 10
234.99523319540032
 20
296.417675821458
 30
0.0
 10
235.4152527266503
 20
296.537695352708
 30
0.0
  0
SPLINE
  5
1DD
330
17
100
AcDbEntity
  8
ENGRAVE
100
AcDbSpline
 70
0
 71
2
 72
6
 73
3
 74
0
 40
0.0
 40
0.0
 40
0.0
 40
1.0
 40
1.0
 40
1.0
 10
235.2052429610253
 20
309.947656290208
 30
0.0
 10
235.3852722579003
 20
310.247656290208
 30
0.0
 10
235.6551941329003
 20
310.457714883958
 30
0.0
  0
SPLINE
  5
1DE
330
17
100
AcDbEntity
  8
ENGRAVE
100
AcDbSpline
 70
0
 71
2
 72
6
 73
3
 74
0
 40
0.0
 40
0.0
 40
0.0
 40
1.0
 40
1.0
 40
1.0
 10
236.1952331954003
 20
304.607714883958
 30
0.0
 10
235.8051941329003
 20
304.577636758958
 30
0.0
 10
235.6852234297753
 20
304.577636758958
 30
0.0
  0
SPLINE
  5
1DF
330
17
100
AcDbEntity
  8
ENGRAVE
100
AcDbSpline
 70
0
 71
2
 72
6
 73
3
 74
0
 40
0.0
 40
0.0
 40
0.0
 40
1.0
 40
1.0
 40
1.0
 10
235.4152527266503
 20
296.537695352708
 30
0.0
 10
235.74523319540032
 20
296.687695352708
 30
0.0
 10
236.1052429610253
 20
296.852685587083
 30
0.0
  0
SPLINE
  5
1E0
330
17
100
AcDbEntity
  8
ENGRAVE
100
AcDbSpline
 70
0
 71
2
 72
6
 73
3
 74
0
 40
0.0
 40
0.0
 40
0.0
 40
1.0
 40
1.0
 40
1.0
 10
236.9452331954003
 20
304.622705118333
 30
0.0
 10
236.4352722579003
 20
304.607714883958
 30
0.0
 10
236.1952331954003
 20
304.607714883958
 30
0.0
  0
SPLINE
  5
1E1
330
17
100
AcDbEntity
  8
ENGRAVE
100
AcDbSpline
 70
0
 71
2
 72
6
 73
3
 74
0
 40
0.0
 40
0.0
 40
0.0
 40
1.0
 40
1.0
 40
1.0
 10
236.49523319540032
 20
307.427636758958
 30
0.0
 10
236.01525272665032
 20
306.767675821458
 30
0.0
 10
236.3152527266503
 20
306.677685587083
 30
0.0
  0
SPLINE
  5
1E2
330
17
100
AcDbEntity
  8
ENGRAVE
100
AcDbSpline
 70
0
 71
2
 72
6
 73
3
 74
0
 40
0.0
 40
0.0
 40
0.0
 40
1.0
 40
1.0
 40
1.0
 10
237.0802429610253
 20
308.342675821458
 30
0.0
 10
236.76525272665032
 20
307.937695352708
 30
0.0
 10
236.49523319540032
 20
307.427636758958
 30
0.0
  0
SPLINE
  5
1E3
330
17
100
AcDbEntity
  8
ENGRAVE
100
AcDbSpline
 70
0
 71
2
 72
6
 73
3
 74
0
 40
0.0
 40
0.0
 40
0.0
 40
1.0
 40
1.0
 40
1.0
 10
235.6551941329003
 20
310.457714883958
 30
0.0
 10
235.9252136641503
 20
310.697656290208
 30
0.0
 10
236.5402038985253
 20
310.802685587083
 30
0.0
  0
SPLINE
  5
1E4
330
17
100
AcDbEntity
  8
ENGRAVE
100
AcDbSpline
 70
0
 71
2
 72
6
 73
3
 74
0
 40
0.0
 40
0.0
 40
0.0
 40
1.0
 40
1.0
 40
1.0
 10
236.1052429610253
 20
296.852685587083
 30
0.0
 10
236.4652527266503
 20
297.017675821458
 30
0.0
 10
236.76525272665032
 20
297.197656290208
 30
0.0
  0
SPLINE
  5
1E5
330
17
100
AcDbEntity
  8
ENGRAVE
100
AcDbSpline
 70
0
 71
2
 72
6
 73
3
 74
0
 40
0.0
 40
0.0
 40
0.0
 40
1.0
 40
1.0
 40
1.0
 10
238.1752136641503
 20
304.757714883958
 30
0.0
 10
237.45519413290032
 20
304.637695352708
 30
0.0
 10
236.9452331954003
 20
304.622705118333
 30
0.0
  0
SPLINE
  5
1E6
330
17
100
AcDbEntity
  8
ENGRAVE
100
AcDbSpline
 70
0
 71
2
 72
6
 73
3
 74
0
 40
0.0
 40
0.0
 40
0.0
 40
1.0
 40
1.0
 40
1.0
 10
237.6352722579003
 20
309.257714883958
 30
0.0
 10
237.3952331954003
 20
308.747656290208
 30
0.0
 10
237.0802429610253
 20
308.342675821458
 30
0.0
  0
SPLINE
  5
1E7
330
17
100
AcDbEntity
  8
ENGRAVE
100
AcDbSpline
 70
0
 71
2
 72
6
 73
3
 74
0
 40
0.0
 40
0.0
 40
0.0
 40
1.0
 40
1.0
 40
1.0
 10
238.26525272665032
 20
296.072656290208
 30
0.0
 10
238.1152527266503
 20
295.577636758958
 30
0.0
 10
237.1551941329003
 20
295.037695352708
 30
0.0
  0
SPLINE
  5
1E8
330
17
100
AcDbEntity
  8
ENGRAVE
100
AcDbSpline
 70
0
 71
2
 72
6
 73
3
 74
0
 40
0.0
 40
0.0
 40
0.0
 40
1.0
 40
1.0
 40
1.0
 10
236.76525272665032
 20
297.197656290208
 30
0.0
 10
237.03527225790032
 20
297.347656290208
 30
0.0
 10
237.3052429610253
 20
297.512646524583
 30
0.0
  0
SPLINE
  5
1E9
330
17
100
AcDbEntity
  8
ENGRAVE
100
AcDbSpline
 70
0
 71
2
 72
6
 73
3
 74
0
 40
0.0
 40
0.0
 40
0.0
 40
1.0
 40
1.0
 40
1.0
 10
237.3052429610253
 20
297.512646524583
 30
0.0
 10
237.5752136641503
 20
297.677636758958
 30
0.0
 10
237.5752136641503
 20
297.677636758958
 30
0.0
  0
SPLINE
  5
1EA
330
17
100
AcDbEntity
  8
ENGRAVE
100
AcDbSpline
 70
0
 71
2
 72
6
 73
3
 74
0
 40
0.0
 40
0.0
 40
0.0
 40
1.0
 40
1.0
 40
1.0
 10
236.5402038985253
 20
310.802685587083
 30
0.0
 10
237.1551941329003
 20
310.907714883958
 30
0.0
 10
237.6051941329003
 20
310.517675821458
 30
0.0
  0
SPLINE
  5
1EB
330
17
100
AcDbEntity
  8
ENGRAVE
100
AcDbSpline
 70
0
 71
2
 72
6
 73
3
 74
0
 40
0.0
 40
0.0
 40
0.0
 40
1.0
 40
1.0
 40
1.0
 10
237.8752136641503
 20
309.947656290208
 30
0.0
 10
237.9051941329003
 20
309.677636758958
 30
0.0
 10
237.6352722579003
 20
309.257714883958
 30
0.0
  0
SPLINE
  5
1EC
330
17
100
AcDbEntity
  8
ENGRAVE
100
AcDbSpline
 70
0
 71
2
 72
6
 73
3
 74
0
 40
0.0
 40
0.0
 40
0.0
 40
1.0
 40
1.0
 40
1.0
 10
237.6051941329003
 20
310.517675821458
 30
0.0
 10
237.8452331954003
 20
310.217675821458
 30
0.0
 10
237.8752136641503
 20
309.947656290208
 30
0.0
  0
SPLINE
  5
1ED
330
17
100
AcDbEntity
  8
ENGRAVE
100
AcDbSpline
 70
0
 71
2
 72
6
 73
3
 74
0
 40
0.0
 40
0.0
 40
0.0
 40
1.0
 40
1.0
 40
1.0
 10
236.3152527266503
 20
306.677685587083
 30
0.0
 10
236.6152527266503
 20
306.587695352708
 30
0.0
 10
237.99523319540032
 20
306.797656290208
 30
0.0
  0
SPLINE
  5
1EE
330
17
100
AcDbEntity
  8
ENGRAVE
100
AcDbSpline
 70
0
 71
2
 72
6
 73
3
 74
0
 40
0.0
 40
0.0
 40
0.0
 40
1.0
 40
1.0
 40
1.0
 10
237.5752136641503
 20
297.677636758958
 30
0.0
 10
237.72521366415032
 20
297.917675821458
 30
0.0
 10
238.0102234297753
 20
297.602685587083
 30
0.0
  0
SPLINE
  5
1EF
330
17
100
AcDbEntity
  8
ENGRAVE
100
AcDbSpline
 70
0
 71
2
 72
6
 73
3
 74
0
 40
0.0
 40
0.0
 40
0.0
 40
1.0
 40
1.0
 40
1.0
 10
239.5552429610253
 20
304.907714883958
 30
0.0
 10
239.3152527266503
 20
304.757714883958
 30
0.0
 10
238.1752136641503
 20
304.757714883958
 30
0.0
  0
SPLINE
  5
1F0
330
17
100
AcDbEntity
  8
ENGRAVE
100
AcDbSpline
 70
0
 71
2
 72
6
 73
3
 74
0
 40
0.0
 40
0.0
 40
0.0
 40
1.0
 40
1.0
 40
1.0
 10
238.4152527266503
 20
296.927636758958
 30
0.0
 10
238.4152527266503
 20
296.567675821458
 30
0.0
 10
238.26525272665032
 20
296.072656290208
 30
0.0
  0
SPLINE
  5
1F1
330
17
100
AcDbEntity
  8
ENGRAVE
100
AcDbSpline
 70
0
 71
2
 72
6
 73
3
 74
0
 40
0.0
 40
0.0
 40
0.0
 40
1.0
 40
1.0
 40
1.0
 10
238.0102234297753
 20
297.602685587083
 30
0.0
 10
238.2952331954003
 20
297.287695352708
 30
0.0
 10
238.4152527266503
 20
296.927636758958
 30
0.0
  0
SPLINE
  5
1F2
330
17
100
AcDbEntity
  8
ENGRAVE
100
AcDbSpline
 70
0
 71
2
 72
6
 73
3
 74
0
 40
0.0
 40
0.0
 40
0.0
 40
1.0
 40
1.0
 40
1.0
 10
237.99523319540032
 20
306.797656290208
 30
0.0
 10
238.8652527266503
 20
306.947656290208
 30
0.0
 10
239.25524296102532
 20
306.617675821458
 30
0.0
  0
SPLINE
  5
1F3
330
17
100
AcDbEntity
  8
ENGRAVE
100
AcDbSpline
 70
0
 71
2
 72
6
 73
3
 74
0
 40
0.0
 40
0.0
 40
0.0
 40
1.0
 40
1.0
 40
1.0
 10
239.70519413290032
 20
305.777636758958
 30
0.0
 10
239.7952331954003
 20
305.057714883958
 30
0.0
 10
239.5552429610253
 20
304.907714883958
 30
0.0
  0
SPLINE
  5
1F4
330
17
100
AcDbEntity
  8
ENGRAVE
100
AcDbSpline
 70
0
 71
2
 72
6
 73
3
 74
0
 40
0.0
 40
0.0
 40
0.0
 40
1.0
 40
1.0
 40
1.0
 10
239.25524296102532
 20
306.617675821458
 30
0.0
 10
239.6452331954003
 20
306.287695352708
 30
0.0
 10
239.70519413290032
 20
305.777636758958
 30
0.0
  0
SPLINE
  5
1F5
330
17
100
AcDbEntity
  8
ENGRAVE
100
AcDbSpline
 70
0
 71
2
 72
6
 73
3
 74
0
 40
0.0
 40
0.0
 40
0.0
 40
1.0
 40
1.0
 40
1.0
 10
240.3652527266503
 20
295.667675821458
 30
0.0
 10
239.91525272665032
 20
296.177636758958
 30
0.0
 10
239.8552429610253
 20
296.582666055833
 30
0.0
  0
SPLINE
  5
1F6
330
17
100
AcDbEntity
  8
ENGRAVE
100
AcDbSpline
 70
0
 71
2
 72
6
 73
3
 74
0
 40
0.0
 40
0.0
 40
0.0
 40
1.0
 40
1.0
 40
1.0
 10
239.8552429610253
 20
296.582666055833
 30
0.0
 10
239.79523319540033
 20
296.987695352708
 30
0.0
 10
239.88517460165033
 20
297.677636758958
 30
0.0
  0
SPLINE
  5
1F7
330
17
100
AcDbEntity
  8
ENGRAVE
100
AcDbSpline
 70
0
 71
2
 72
6
 73
3
 74
0
 40
0.0
 40
0.0
 40
0.0
 40
1.0
 40
1.0
 40
1.0
 10
239.88517460165033
 20
297.677636758958
 30
0.0
 10
240.0351746016503
 20
298.157714883958
 30
0.0
 10
240.24518436727533
 20
298.967675821458
 30
0.0
  0
SPLINE
  5
1F8
330
17
100
AcDbEntity
  8
ENGRAVE
100
AcDbSpline
 70
0
 71
2
 72
6
 73
3
 74
0
 40
0.0
 40
0.0
 40
0.0
 40
1.0
 40
1.0
 40
1.0
 10
240.83019413290032
 20
295.322656290208
 30
0.0
 10
240.5752136641503
 20
295.517675821458
 30
0.0
 10
240.3652527266503
 20
295.667675821458
 30
0.0
  0
SPLINE
  5
1F9
330
17
100
AcDbEntity
  8
ENGRAVE
100
AcDbSpline
 70
0
 71
2
 72
6
 73
3
 74
0
 40
0.0
 40
0.0
 40
0.0
 40
1.0
 40
1.0
 40
1.0
 10
240.24518436727533
 20
298.967675821458
 30
0.0
 10
240.45519413290032
 20
299.777636758958
 30
0.0
 10
240.75519413290033
 20
300.707714883958
 30
0.0
  0
SPLINE
  5
1FA
330
17
100
AcDbEntity
  8
ENGRAVE
100
AcDbSpline
 70
0
 71
2
 72
6
 73
3
 74
0
 40
0.0
 40
0.0
 40
0.0
 40
1.0
 40
1.0
 40
1.0
 10
241.29523319540033
 20
295.157714883958
 30
0.0
 10
241.08517460165032
 20
295.127636758958
 30
0.0
 10
240.83019413290032
 20
295.322656290208
 30
0.0
  0
SPLINE
  5
1FB
330
17
100
AcDbEntity
  8
ENGRAVE
100
AcDbSpline
 70
0
 71
2
 72
6
 73
3
 74
0
 40
0.0
 40
0.0
 40
0.0
 40
1.0
 40
1.0
 40
1.0
 10
240.75519413290033
 20
300.707714883958
 30
0.0
 10
240.81525272665033
 20
301.067675821458
 30
0.0
 10
240.9802429610253
 20
301.562695352708
 30
0.0
  0
SPLINE
  5
1FC
330
17
100
AcDbEntity
  8
ENGRAVE
100
AcDbSpline
 70
0
 71
2
 72
6
 73
3
 74
0
 40
0.0
 40
0.0
 40
0.0
 40
1.0
 40
1.0
 40
1.0
 10
242.3152038985253
 20
295.622705118333
 30
0.0
 10
241.89523319540032
 20
295.187695352708
 30
0.0
 10
241.29523319540033
 20
295.157714883958
 30
0.0
  0
SPLINE
  5
1FD
330
17
100
AcDbEntity
  8
ENGRAVE
100
AcDbSpline
 70
0
 71
2
 72
6
 73
3
 74
0
 40
0.0
 40
0.0
 40
0.0
 40
1.0
 40
1.0
 40
1.0
 10
240.9802429610253
 20
301.562695352708
 30
0.0
 10
241.14523319540032
 20
302.057714883958
 30
0.0
 10
241.3252136641503
 20
302.522705118333
 30
0.0
  0
SPLINE
  5
1FE
330
17
100
AcDbEntity
  8
ENGRAVE
100
AcDbSpline
 70
0
 71
2
 72
6
 73
3
 74
0
 40
0.0
 40
0.0
 40
0.0
 40
1.0
 40
1.0
 40
1.0
 10
241.3252136641503
 20
302.522705118333
 30
0.0
 10
241.50519413290033
 20
302.987695352708
 30
0.0
 10
241.5952331954003
 20
303.227636758958
 30
0.0
  0
SPLINE
  5
1FF
330
17
100
AcDbEntity
  8
ENGRAVE
100
AcDbSpline
 70
0
 71
2
 72
6
 73
3
 74
0
 40
0.0
 40
0.0
 40
0.0
 40
1.0
 40
1.0
 40
1.0
 10
241.5952331954003
 20
303.227636758958
 30
0.0
 10
241.8051941329003
 20
303.977636758958
 30
0.0
 10
242.03019413290033
 20
304.667675821458
 30
0.0
  0
SPLINE
  5
200
330
17
100
AcDbEntity
  8
ENGRAVE
100
AcDbSpline
 70
0
 71
2
 72
6
 73
3
 74
0
 40
0.0
 40
0.0
 40
0.0
 40
1.0
 40
1.0
 40
1.0
 10
243.0952331954003
 20
296.507714883958
 30
0.0
 10
242.73517460165033
 20
296.057714883958
 30
0.0
 10
242.3152038985253
 20
295.622705118333
 30
0.0
  0
SPLINE
  5
201
330
17
100
AcDbEntity
  8
ENGRAVE
100
AcDbSpline
 70
0
 71
2
 72
6
 73
3
 74
0
 40
0.0
 40
0.0
 40
0.0
 40
1.0
 40
1.0
 40
1.0
 10
242.03019413290033
 20
304.667675821458
 30
0.0
 10
242.25519413290033
 20
305.357714883958
 30
0.0
 10
242.5852234297753
 20
306.257714883958
 30
0.0
  0
SPLINE
  5
202
330
17
100
AcDbEntity
  8
ENGRAVE
100
AcDbSpline
 70
0
 71
2
 72
6
 73
3
 74
0
 40
0.0
 40
0.0
 40
0.0
 40
1.0
 40
1.0
 40
1.0
 10
244.86520389852532
 20
298.382666055833
 30
0.0
 10
243.8452331954003
 20
297.467675821458
 30
0.0
 10
243.0952331954003
 20
296.507714883958
 30
0.0
  0
SPLINE
  5
203
330
17
100
AcDbEntity
  8
ENGRAVE
100
AcDbSpline
 70
0
 71
2
 72
6
 73
3
 74
0
 40
0.0
 40
0.0
 40
0.0
 40
1.0
 40
1.0
 40
1.0
 10
243.21520389852532
 20
300.257666055833
 30
0.0
 10
243.15519413290033
 20
300.017675821458
 30
0.0
 10
243.12521366415032
 20
299.777636758958
 30
0.0
  0
SPLINE
  5
204
330
17
100
AcDbEntity
  8
ENGRAVE
100
AcDbSpline
 70
0
 71
2
 72
6
 73
3
 74
0
 40
0.0
 40
0.0
 40
0.0
 40
1.0
 40
1.0
 40
1.0
 10
243.3051941329003
 20
300.647656290208
 30
0.0
 10
243.27521366415033
 20
300.497656290208
 30
0.0
 10
243.21520389852532
 20
300.257666055833
 30
0.0
  0
SPLINE
  5
205
330
17
100
AcDbEntity
  8
ENGRAVE
100
AcDbSpline
 70
0
 71
2
 72
6
 73
3
 74
0
 40
0.0
 40
0.0
 40
0.0
 40
1.0
 40
1.0
 40
1.0
 10
243.48522342977532
 20
301.217675821458
 30
0.0
 10
243.39523319540032
 20
300.887695352708
 30
0.0
 10
243.3051941329003
 20
300.647656290208
 30
0.0
  0
SPLINE
  5
206
330
17
100
AcDbEntity
  8
ENGRAVE
100
AcDbSpline
 70
0
 71
2
 72
6
 73
3
 74
0
 40
0.0
 40
0.0
 40
0.0
 40
1.0
 40
1.0
 40
1.0
 10
242.5852234297753
 20
306.257714883958
 30
0.0
 10
242.91525272665032
 20
307.157714883958
 30
0.0
 10
243.39523319540032
 20
308.537695352708
 30
0.0
  0
SPLINE
  5
207
330
17
100
AcDbEntity
  8
ENGRAVE
100
AcDbSpline
 70
0
 71
2
 72
6
 73
3
 74
0
 40
0.0
 40
0.0
 40
0.0
 40
1.0
 40
1.0
 40
1.0
 10
243.60519413290032
 20
301.727636758958
 30
0.0
 10
243.5752136641503
 20
301.547656290208
 30
0.0
 10
243.48522342977532
 20
301.217675821458
 30
0.0
  0
SPLINE
  5
208
330
17
100
AcDbEntity
  8
ENGRAVE
100
AcDbSpline
 70
0
 71
2
 72
6
 73
3
 74
0
 40
0.0
 40
0.0
 40
0.0
 40
1.0
 40
1.0
 40
1.0
 10
243.12521366415032
 20
299.777636758958
 30
0.0
 10
243.27521366415033
 20
299.957714883958
 30
0.0
 10
243.54523319540033
 20
300.212695352708
 30
0.0
  0
SPLINE
  5
209
330
17
100
AcDbEntity
  8
ENGRAVE
100
AcDbSpline
 70
0
 71
2
 72
6
 73
3
 74
0
 40
0.0
 40
0.0
 40
0.0
 40
1.0
 40
1.0
 40
1.0
 10
243.7102234297753
 20
301.937646524583
 30
0.0
 10
243.60519413290032
 20
301.727636758958
 30
0.0
 10
243.60519413290032
 20
301.727636758958
 30
0.0
  0
SPLINE
  5
20A
330
17
100
AcDbEntity
  8
ENGRAVE
100
AcDbSpline
 70
0
 71
2
 72
6
 73
3
 74
0
 40
0.0
 40
0.0
 40
0.0
 40
1.0
 40
1.0
 40
1.0
 10
243.93517460165032
 20
302.387695352708
 30
0.0
 10
243.81525272665033
 20
302.147656290208
 30
0.0
 10
243.7102234297753
 20
301.937646524583
 30
0.0
  0
SPLINE
  5
20B
330
17
100
AcDbEntity
  8
ENGRAVE
100
AcDbSpline
 70
0
 71
2
 72
6
 73
3
 74
0
 40
0.0
 40
0.0
 40
0.0
 40
1.0
 40
1.0
 40
1.0
 10
244.22018436727532
 20
302.987646524583
 30
0.0
 10
244.0551941329003
 20
302.627636758958
 30
0.0
 10
243.93517460165032
 20
302.387695352708
 30
0.0
  0
SPLINE
  5
20C
330
17
100
AcDbEntity
  8
ENGRAVE
100
AcDbSpline
 70
0
 71
2
 72
6
 73
3
 74
0
 40
0.0
 40
0.0
 40
0.0
 40
1.0
 40
1.0
 40
1.0
 10
244.41525272665032
 20
303.497656290208
 30
0.0
 10
244.38517460165033
 20
303.347656290208
 30
0.0
 10
244.22018436727532
 20
302.987646524583
 30
0.0
  0
SPLINE
  5
20D
330
17
100
AcDbEntity
  8
ENGRAVE
100
AcDbSpline
 70
0
 71
2
 72
6
 73
3
 74
0
 40
0.0
 40
0.0
 40
0.0
 40
1.0
 40
1.0
 40
1.0
 10
243.54523319540033
 20
300.212695352708
 30
0.0
 10
243.81525272665033
 20
300.467675821458
 30
0.0
 10
244.23517460165033
 20
300.857714883958
 30
0.0
  0
SPLINE
  5
20E
330
17
100
AcDbEntity
  8
ENGRAVE
100
AcDbSpline
 70
0
 71
2
 72
6
 73
3
 74
0
 40
0.0
 40
0.0
 40
0.0
 40
1.0
 40
1.0
 40
1.0
 10
243.39523319540032
 20
308.537695352708
 30
0.0
 10
244.0551941329003
 20
310.337695352708
 30
0.0
 10
244.38522342977532
 20
311.237695352708
 30
0.0
  0
SPLINE
  5
20F
330
17
100
AcDbEntity
  8
ENGRAVE
100
AcDbSpline
 70
0
 71
2
 72
6
 73
3
 74
0
 40
0.0
 40
0.0
 40
0.0
 40
1.0
 40
1.0
 40
1.0
 10
245.31525272665033
 20
305.927685587083
 30
0.0
 10
244.8652527266503
 20
304.607714883958
 30
0.0
 10
244.41525272665032
 20
303.497656290208
 30
0.0
  0
SPLINE
  5
210
330
17
100
AcDbEntity
  8
ENGRAVE
100
AcDbSpline
 70
0
 71
2
 72
6
 73
3
 74
0
 40
0.0
 40
0.0
 40
0.0
 40
1.0
 40
1.0
 40
1.0
 10
246.83019413290032
 20
299.897656290208
 30
0.0
 10
245.88517460165033
 20
299.297656290208
 30
0.0
 10
244.86520389852532
 20
298.382666055833
 30
0.0
  0
SPLINE
  5
211
330
17
100
AcDbEntity
  8
ENGRAVE
100
AcDbSpline
 70
0
 71
2
 72
6
 73
3
 74
0
 40
0.0
 40
0.0
 40
0.0
 40
1.0
 40
1.0
 40
1.0
 10
244.38522342977532
 20
311.237695352708
 30
0.0
 10
244.71525272665033
 20
312.137695352708
 30
0.0
 10
244.8652527266503
 20
312.527685587083
 30
0.0
  0
SPLINE
  5
212
330
17
100
AcDbEntity
  8
ENGRAVE
100
AcDbSpline
 70
0
 71
2
 72
6
 73
3
 74
0
 40
0.0
 40
0.0
 40
0.0
 40
1.0
 40
1.0
 40
1.0
 10
244.23517460165033
 20
300.857714883958
 30
0.0
 10
244.71525272665033
 20
301.277636758958
 30
0.0
 10
245.0752136641503
 20
301.577636758958
 30
0.0
  0
SPLINE
  5
213
330
17
100
AcDbEntity
  8
ENGRAVE
100
AcDbSpline
 70
0
 71
2
 72
6
 73
3
 74
0
 40
0.0
 40
0.0
 40
0.0
 40
1.0
 40
1.0
 40
1.0
 10
244.8652527266503
 20
312.527685587083
 30
0.0
 10
245.01525272665032
 20
312.917675821458
 30
0.0
 10
245.0752136641503
 20
313.157714883958
 30
0.0
  0
SPLINE
  5
214
330
17
100
AcDbEntity
  8
ENGRAVE
100
AcDbSpline
 70
0
 71
2
 72
6
 73
3
 74
0
 40
0.0
 40
0.0
 40
0.0
 40
1.0
 40
1.0
 40
1.0
 10
246.2302429610253
 20
308.582666055833
 30
0.0
 10
245.76525272665032
 20
307.247656290208
 30
0.0
 10
245.31525272665033
 20
305.927685587083
 30
0.0
  0
SPLINE
  5
215
330
17
100
AcDbEntity
  8
ENGRAVE
100
AcDbSpline
 70
0
 71
2
 72
6
 73
3
 74
0
 40
0.0
 40
0.0
 40
0.0
 40
1.0
 40
1.0
 40
1.0
 10
245.0752136641503
 20
313.157714883958
 30
0.0
 10
245.0752136641503
 20
313.397656290208
 30
0.0
 10
245.42023319540033
 20
313.622656290208
 30
0.0
  0
SPLINE
  5
216
330
17
100
AcDbEntity
  8
ENGRAVE
100
AcDbSpline
 70
0
 71
2
 72
6
 73
3
 74
0
 40
0.0
 40
0.0
 40
0.0
 40
1.0
 40
1.0
 40
1.0
 10
245.0752136641503
 20
301.577636758958
 30
0.0
 10
245.43517460165032
 20
301.877636758958
 30
0.0
 10
245.79523319540033
 20
302.117675821458
 30
0.0
  0
SPLINE
  5
217
330
17
100
AcDbEntity
  8
ENGRAVE
100
AcDbSpline
 70
0
 71
2
 72
6
 73
3
 74
0
 40
0.0
 40
0.0
 40
0.0
 40
1.0
 40
1.0
 40
1.0
 10
245.42023319540033
 20
313.622656290208
 30
0.0
 10
245.76525272665032
 20
313.847656290208
 30
0.0
 10
246.0351746016503
 20
313.847656290208
 30
0.0
  0
SPLINE
  5
218
330
17
100
AcDbEntity
  8
ENGRAVE
100
AcDbSpline
 70
0
 71
2
 72
6
 73
3
 74
0
 40
0.0
 40
0.0
 40
0.0
 40
1.0
 40
1.0
 40
1.0
 10
247.17521366415033
 20
310.997656290208
 30
0.0
 10
246.69523319540033
 20
309.917675821458
 30
0.0
 10
246.2302429610253
 20
308.582666055833
 30
0.0
  0
SPLINE
  5
219
330
17
100
AcDbEntity
  8
ENGRAVE
100
AcDbSpline
 70
0
 71
2
 72
6
 73
3
 74
0
 40
0.0
 40
0.0
 40
0.0
 40
1.0
 40
1.0
 40
1.0
 10
245.79523319540033
 20
302.117675821458
 30
0.0
 10
246.12521366415032
 20
302.357714883958
 30
0.0
 10
246.41022342977533
 20
302.567675821458
 30
0.0
  0
SPLINE
  5
21A
330
17
100
AcDbEntity
  8
ENGRAVE
100
AcDbSpline
 70
0
 71
2
 72
6
 73
3
 74
0
 40
0.0
 40
0.0
 40
0.0
 40
1.0
 40
1.0
 40
1.0
 10
246.41022342977533
 20
302.567675821458
 30
0.0
 10
246.69523319540033
 20
302.777636758958
 30
0.0
 10
246.69523319540033
 20
302.777636758958
 30
0.0
  0
SPLINE
  5
21B
330
17
100
AcDbEntity
  8
ENGRAVE
100
AcDbSpline
 70
0
 71
2
 72
6
 73
3
 74
0
 40
0.0
 40
0.0
 40
0.0
 40
1.0
 40
1.0
 40
1.0
 10
248.22521366415032
 20
300.497656290208
 30
0.0
 10
247.77521366415033
 20
300.497656290208
 30
0.0
 10
246.83019413290032
 20
299.897656290208
 30
0.0
  0
SPLINE
  5
21C
330
17
100
AcDbEntity
  8
ENGRAVE
100
AcDbSpline
 70
0
 71
2
 72
6
 73
3
 74
0
 40
0.0
 40
0.0
 40
0.0
 40
1.0
 40
1.0
 40
1.0
 10
246.69523319540033
 20
302.777636758958
 30
0.0
 10
246.75519413290033
 20
302.867675821458
 30
0.0
 10
246.83019413290032
 20
302.987695352708
 30
0.0
  0
SPLINE
  5
21D
330
17
100
AcDbEntity
  8
ENGRAVE
100
AcDbSpline
 70
0
 71
2
 72
6
 73
3
 74
0
 40
0.0
 40
0.0
 40
0.0
 40
1.0
 40
1.0
 40
1.0
 10
246.0351746016503
 20
313.847656290208
 30
0.0
 10
246.45519413290032
 20
313.817675821458
 30
0.0
 10
246.84518436727532
 20
313.352685587083
 30
0.0
  0
SPLINE
  5
21E
330
17
100
AcDbEntity
  8
ENGRAVE
100
AcDbSpline
 70
0
 71
2
 72
6
 73
3
 74
0
 40
0.0
 40
0.0
 40
0.0
 40
1.0
 40
1.0
 40
1.0
 10
246.83019413290032
 20
302.987695352708
 30
0.0
 10
246.90519413290033
 20
303.107714883958
 30
0.0
 10
246.99523319540032
 20
303.137695352708
 30
0.0
  0
SPLINE
  5
21F
330
17
100
AcDbEntity
  8
ENGRAVE
100
AcDbSpline
 70
0
 71
2
 72
6
 73
3
 74
0
 40
0.0
 40
0.0
 40
0.0
 40
1.0
 40
1.0
 40
1.0
 10
247.38517460165033
 20
312.242675821458
 30
0.0
 10
247.5351746016503
 20
311.597656290208
 30
0.0
 10
247.17521366415033
 20
310.997656290208
 30
0.0
  0
SPLINE
  5
220
330
17
100
AcDbEntity
  8
ENGRAVE
100
AcDbSpline
 70
0
 71
2
 72
6
 73
3
 74
0
 40
0.0
 40
0.0
 40
0.0
 40
1.0
 40
1.0
 40
1.0
 10
246.99523319540032
 20
303.137695352708
 30
0.0
 10
247.0551941329003
 20
303.197656290208
 30
0.0
 10
247.20519413290032
 20
303.302685587083
 30
0.0
  0
SPLINE
  5
221
330
17
100
AcDbEntity
  8
ENGRAVE
100
AcDbSpline
 70
0
 71
2
 72
6
 73
3
 74
0
 40
0.0
 40
0.0
 40
0.0
 40
1.0
 40
1.0
 40
1.0
 10
246.84518436727532
 20
313.352685587083
 30
0.0
 10
247.23517460165033
 20
312.887695352708
 30
0.0
 10
247.38517460165033
 20
312.242675821458
 30
0.0
  0
SPLINE
  5
222
330
17
100
AcDbEntity
  8
ENGRAVE
100
AcDbSpline
 70
0
 71
2
 72
6
 73
3
 74
0
 40
0.0
 40
0.0
 40
0.0
 40
1.0
 40
1.0
 40
1.0
 10
247.20519413290032
 20
303.302685587083
 30
0.0
 10
247.35519413290032
 20
303.407714883958
 30
0.0
 10
247.50519413290033
 20
303.527636758958
 30
0.0
  0
SPLINE
  5
223
330
17
100
AcDbEntity
  8
ENGRAVE
100
AcDbSpline
 70
0
 71
2
 72
6
 73
3
 74
0
 40
0.0
 40
0.0
 40
0.0
 40
1.0
 40
1.0
 40
1.0
 10
248.52521366415033
 20
299.912646524583
 30
0.0
 10
248.5551941329003
 20
300.497656290208
 30
0.0
 10
248.22521366415032
 20
300.497656290208
 30
0.0
  0
SPLINE
  5
224
330
17
100
AcDbEntity
  8
ENGRAVE
100
AcDbSpline
 70
0
 71
2
 72
6
 73
3
 74
0
 40
0.0
 40
0.0
 40
0.0
 40
1.0
 40
1.0
 40
1.0
 10
248.54020389852533
 20
296.537646524583
 30
0.0
 10
248.3452331954003
 20
297.077636758958
 30
0.0
 10
248.37521366415032
 20
298.007714883958
 30
0.0
  0
SPLINE
  5
225
330
17
100
AcDbEntity
  8
ENGRAVE
100
AcDbSpline
 70
0
 71
2
 72
6
 73
3
 74
0
 40
0.0
 40
0.0
 40
0.0
 40
1.0
 40
1.0
 40
1.0
 10
248.37521366415032
 20
298.007714883958
 30
0.0
 10
248.49523319540032
 20
299.327636758958
 30
0.0
 10
248.52521366415033
 20
299.912646524583
 30
0.0
  0
SPLINE
  5
226
330
17
100
AcDbEntity
  8
ENGRAVE
100
AcDbSpline
 70
0
 71
2
 72
6
 73
3
 74
0
 40
0.0
 40
0.0
 40
0.0
 40
1.0
 40
1.0
 40
1.0
 10
249.3051941329003
 20
295.607714883958
 30
0.0
 10
248.73517460165033
 20
295.997656290208
 30
0.0
 10
248.54020389852533
 20
296.537646524583
 30
0.0
  0
SPLINE
  5
227
330
17
100
AcDbEntity
  8
ENGRAVE
100
AcDbSpline
 70
0
 71
2
 72
6
 73
3
 74
0
 40
0.0
 40
0.0
 40
0.0
 40
1.0
 40
1.0
 40
1.0
 10
250.4602234297753
 20
295.397656290208
 30
0.0
 10
249.90519413290033
 20
295.277636758958
 30
0.0
 10
249.3051941329003
 20
295.607714883958
 30
0.0
  0
SPLINE
  5
228
330
17
100
AcDbEntity
  8
ENGRAVE
100
AcDbSpline
 70
0
 71
2
 72
6
 73
3
 74
0
 40
0.0
 40
0.0
 40
0.0
 40
1.0
 40
1.0
 40
1.0
 10
247.50519413290033
 20
303.527636758958
 30
0.0
 10
248.3452331954003
 20
304.067675821458
 30
0.0
 10
249.33517460165032
 20
304.067675821458
 30
0.0
  0
SPLINE
  5
229
330
17
100
AcDbEntity
  8
ENGRAVE
100
AcDbSpline
 70
0
 71
2
 72
6
 73
3
 74
0
 40
0.0
 40
0.0
 40
0.0
 40
1.0
 40
1.0
 40
1.0
 10
249.33517460165032
 20
304.067675821458
 30
0.0
 10
249.69523319540033
 20
304.067675821458
 30
0.0
 10
250.0852234297753
 20
303.782666055833
 30
0.0
  0
SPLINE
  5
22A
330
17
100
AcDbEntity
  8
ENGRAVE
100
AcDbSpline
 70
0
 71
2
 72
6
 73
3
 74
0
 40
0.0
 40
0.0
 40
0.0
 40
1.0
 40
1.0
 40
1.0
 10
251.73517460165033
 20
295.997656290208
 30
0.0
 10
251.01525272665032
 20
295.517675821458
 30
0.0
 10
250.4602234297753
 20
295.397656290208
 30
0.0
  0
SPLINE
  5
22B
330
17
100
AcDbEntity
  8
ENGRAVE
100
AcDbSpline
 70
0
 71
2
 72
6
 73
3
 74
0
 40
0.0
 40
0.0
 40
0.0
 40
1.0
 40
1.0
 40
1.0
 10
250.0852234297753
 20
303.782666055833
 30
0.0
 10
250.47521366415032
 20
303.497656290208
 30
0.0
 10
250.8051941329003
 20
302.987695352708
 30
0.0
  0
SPLINE
  5
22C
330
17
100
AcDbEntity
  8
ENGRAVE
100
AcDbSpline
 70
0
 71
2
 72
6
 73
3
 74
0
 40
0.0
 40
0.0
 40
0.0
 40
1.0
 40
1.0
 40
1.0
 10
251.06022342977533
 20
299.777685587083
 30
0.0
 10
250.92521366415033
 20
299.117675821458
 30
0.0
 10
250.8652527266503
 20
298.787695352708
 30
0.0
  0
SPLINE
  5
22D
330
17
100
AcDbEntity
  8
ENGRAVE
100
AcDbSpline
 70
0
 71
2
 72
6
 73
3
 74
0
 40
0.0
 40
0.0
 40
0.0
 40
1.0
 40
1.0
 40
1.0
 10
251.19523319540033
 20
300.677636758958
 30
0.0
 10
251.19523319540033
 20
300.437695352708
 30
0.0
 10
251.06022342977533
 20
299.777685587083
 30
0.0
  0
SPLINE
  5
22E
330
17
100
AcDbEntity
  8
ENGRAVE
100
AcDbSpline
 70
0
 71
2
 72
6
 73
3
 74
0
 40
0.0
 40
0.0
 40
0.0
 40
1.0
 40
1.0
 40
1.0
 10
250.8051941329003
 20
302.987695352708
 30
0.0
 10
251.31525272665033
 20
302.267675821458
 30
0.0
 10
251.19523319540033
 20
300.677636758958
 30
0.0
  0
SPLINE
  5
22F
330
17
100
AcDbEntity
  8
ENGRAVE
100
AcDbSpline
 70
0
 71
2
 72
6
 73
3
 74
0
 40
0.0
 40
0.0
 40
0.0
 40
1.0
 40
1.0
 40
1.0
 10
250.83517460165032
 20
297.767675821458
 30
0.0
 10
251.16525272665032
 20
297.887695352708
 30
0.0
 10
251.4802429610253
 20
297.797705118333
 30
0.0
  0
SPLINE
  5
230
330
17
100
AcDbEntity
  8
ENGRAVE
100
AcDbSpline
 70
0
 71
2
 72
6
 73
3
 74
0
 40
0.0
 40
0.0
 40
0.0
 40
1.0
 40
1.0
 40
1.0
 10
252.27521366415033
 20
296.627636758958
 30
0.0
 10
252.0351746016503
 20
296.177636758958
 30
0.0
 10
251.73517460165033
 20
295.997656290208
 30
0.0
  0
SPLINE
  5
231
330
17
100
AcDbEntity
  8
ENGRAVE
100
AcDbSpline
 70
0
 71
2
 72
6
 73
3
 74
0
 40
0.0
 40
0.0
 40
0.0
 40
1.0
 40
1.0
 40
1.0
 10
251.4802429610253
 20
297.797705118333
 30
0.0
 10
251.79523319540033
 20
297.707714883958
 30
0.0
 10
251.79523319540033
 20
297.707714883958
 30
0.0
  0
SPLINE
  5
232
330
17
100
AcDbEntity
  8
ENGRAVE
100
AcDbSpline
 70
0
 71
2
 72
6
 73
3
 74
0
 40
0.0
 40
0.0
 40
0.0
 40
1.0
 40
1.0
 40
1.0
 10
251.79523319540033
 20
297.707714883958
 30
0.0
 10
251.94523319540033
 20
297.617675821458
 30
0.0
 10
252.08024296102533
 20
297.497656290208
 30
0.0
  0
SPLINE
  5
233
330
17
100
AcDbEntity
  8
ENGRAVE
100
AcDbSpline
 70
0
 71
2
 72
6
 73
3
 74
0
 40
0.0
 40
0.0
 40
0.0
 40
1.0
 40
1.0
 40
1.0
 10
252.33517460165032
 20
297.317675821458
 30
0.0
 10
252.51525272665032
 20
297.077636758958
 30
0.0
 10
252.27521366415033
 20
296.627636758958
 30
0.0
  0
SPLINE
  5
234
330
17
100
AcDbEntity
  8
ENGRAVE
100
AcDbSpline
 70
0
 71
2
 72
6
 73
3
 74
0
 40
0.0
 40
0.0
 40
0.0
 40
1.0
 40
1.0
 40
1.0
 10
252.08024296102533
 20
297.497656290208
 30
0.0
 10
252.21525272665033
 20
297.377636758958
 30
0.0
 10
252.33517460165032
 20
297.317675821458
 30
0.0
  0
LINE
  5
235
330
17
100
AcDbEntity
  8
ENGRAVE
100
AcDbLine
 10
143.8853699141503
 20
302.867675821458
 30
0.0
 11
143.6453308516503
 21
302.387695352708
 31
0.0
  0
LINE
  5
236
330
17
100
AcDbEntity
  8
ENGRAVE
100
AcDbLine
 10
149.1052917891503
 20
302.207714883958
 30
0.0
 11
148.44533085165028
 21
301.127636758958
 31
0.0
  0
LINE
  5
237
330
17
100
AcDbEntity
  8
ENGRAVE
100
AcDbLine
 10
151.5953308516503
 20
301.457714883958
 30
0.0
 11
152.1052917891503
 21
302.957714883958
 31
0.0
  0
LINE
  5
238
330
17
100
AcDbEntity
  8
ENGRAVE
100
AcDbLine
 10
152.1052917891503
 20
302.957714883958
 30
0.0
 11
150.9953308516503
 21
303.947656290208
 31
0.0
  0
LINE
  5
239
330
17
100
AcDbEntity
  8
ENGRAVE
100
AcDbLine
 10
158.4352722579003
 20
301.997656290208
 30
0.0
 11
158.7653503829003
 21
302.807714883958
 31
0.0
  0
LINE
  5
23A
330
17
100
AcDbEntity
  8
ENGRAVE
100
AcDbLine
 10
160.6253113204003
 20
295.517675821458
 30
0.0
 11
160.9253113204003
 21
295.247656290208
 31
0.0
  0
LINE
  5
23B
330
17
100
AcDbEntity
  8
ENGRAVE
100
AcDbLine
 10
161.0153503829003
 20
298.847656290208
 30
0.0
 11
160.1753113204003
 21
296.507714883958
 31
0.0
  0
LINE
  5
23C
330
17
100
AcDbEntity
  8
ENGRAVE
100
AcDbLine
 10
172.8953308516503
 20
297.467675821458
 30
0.0
 11
172.8953308516503
 21
297.137695352708
 31
0.0
  0
LINE
  5
23D
330
17
100
AcDbEntity
  8
ENGRAVE
100
AcDbLine
 10
186.4253113204003
 20
298.997656290208
 30
0.0
 11
186.4253113204003
 21
298.847656290208
 31
0.0
  0
LINE
  5
23E
330
17
100
AcDbEntity
  8
ENGRAVE
100
AcDbLine
 10
210.9652527266503
 20
308.207714883958
 30
0.0
 11
211.0852722579003
 21
308.207714883958
 31
0.0
  0
LINE
  5
23F
330
17
100
AcDbEntity
  8
ENGRAVE
100
AcDbLine
 10
220.2352722579003
 20
299.507714883958
 30
0.0
 11
220.2352722579003
 21
301.127636758958
 31
0.0
  0
LINE
  5
240
330
17
100
AcDbEntity
  8
ENGRAVE
100
AcDbLine
 10
229.20519413290032
 20
308.297656290208
 30
0.0
 11
229.5051941329003
 21
308.297656290208
 31
0.0
  0
LINE
  5
241
330
17
100
AcDbEntity
  8
ENGRAVE
100
AcDbLine
 10
229.5051941329003
 20
307.397656290208
 30
0.0
 11
229.20519413290032
 21
308.297656290208
 31
0.0
  0
LINE
  5
242
330
17
100
AcDbEntity
  8
ENGRAVE
100
AcDbLine
 10
231.0652527266503
 20
304.757714883958
 30
0.0
 11
232.26525272665032
 21
304.427636758958
 31
0.0
  0
LINE
  5
243
330
17
100
AcDbEntity
  8
ENGRAVE
100
AcDbLine
 10
232.26525272665032
 20
304.427636758958
 30
0.0
 11
231.45519413290032
 21
302.687695352708
 31
0.0
  0
LINE
  5
244
330
17
100
AcDbEntity
  8
ENGRAVE
100
AcDbLine
 10
250.5952331954003
 20
297.767675821458
 30
0.0
 11
250.8652527266503
 21
298.787695352708
 31
0.0
  0
LINE
  5
245
330
17
100
AcDbEntity
  8
ENGRAVE
100
AcDbLine
 10
250.83517460165032
 20
297.767675821458
 30
0.0
 11
250.5952331954003
 21
297.767675821458
 31
0.0
  0
ENDSEC
  0
SECTION
  2
OBJECTS
  0
DICTIONARY
  5
A
330
0
100
AcDbDictionary
281
1
  3
ACAD_COLOR
350
B
  3
ACAD_GROUP
350
C
  3
ACAD_LAYOUT
350
D
  3
ACAD_MATERIAL
350
E
  3
ACAD_MLEADERSTYLE
350
F
  3
ACAD_MLINESTYLE
350
10
  3
ACAD_PLOTSETTINGS
350
11
  3
ACAD_PLOTSTYLENAME
350
12
  3
ACAD_SCALELIST
350
14
  3
ACAD_TABLESTYLE
350
15
  3
ACAD_VISUALSTYLE
350
16
  3
EZDXF_META
350
2D
  0
DICTIONARY
  5
B
330
A
100
AcDbDictionary
281
1
  0
DICTIONARY
  5
C
330
A
100
AcDbDictionary
281
1
  0
DICTIONARY
  5
D
330
A
100
AcDbDictionary
281
1
  3
Model
350
1A
  3
Layout1
350
1E
  0
DICTIONARY
  5
E
330
A
100
AcDbDictionary
281
1
  3
ByBlock
350
1F
  3
ByLayer
350
20
  3
Global
350
21
  0
DICTIONARY
  5
F
330
A
100
AcDbDictionary
281
1
  3
Standard
350
2C
  0
DICTIONARY
  5
10
330
A
100
AcDbDictionary
281
1
  3
Standard
350
22
  0
DICTIONARY
  5
11
330
A
100
AcDbDictionary
281
1
  0
ACDBDICTIONARYWDFLT
  5
12
330
A
100
AcDbDictionary
281
1
  3
Normal
350
13
100
AcDbDictionaryWithDefault
340
13
  0
ACDBPLACEHOLDER
  5
13
330
12
  0
DICTIONARY
  5
14
330
A
100
AcDbDictionary
281
1
  0
DICTIONARY
  5
15
330
A
100
AcDbDictionary
281
1
  0
DICTIONARY
  5
16
330
A
100
AcDbDictionary
281
1
  0
LAYOUT
  5
1A
330
D
100
AcDbPlotSettings
  1

  4
A3
  6

 40
7.5
 41
20.0
 42
7.5
 43
20.0
 44
420.0
 45
297.0
 46
0.0
 47
0.0
 48
0.0
 49
0.0
140
0.0
141
0.0
142
1.0
143
1.0
 70
1024
 72
1
 73
0
 74
5
  7

 75
16
 76
0
 77
2
 78
300
147
1.0
148
0.0
149
0.0
100
AcDbLayout
  1
Model
 70
1
 71
0
 10
0.0
 20
0.0
 11
420.0
 21
297.0
 12
0.0
 22
0.0
 32
0.0
 14
1e+20
 24
1e+20
 34
1e+20
 15
-1e+20
 25
-1e+20
 35
-1e+20
146
0.0
 13
0.0
 23
0.0
 33
0.0
 16
1.0
 26
0.0
 36
0.0
 17
0.0
 27
1.0
 37
0.0
 76
1
330
17
  0
LAYOUT
  5
1E
330
D
100
AcDbPlotSettings
  1

  4
A3
  6

 40
7.5
 41
20.0
 42
7.5
 43
20.0
 44
420.0
 45
297.0
 46
0.0
 47
0.0
 48
0.0
 49
0.0
140
0.0
141
0.0
142
1.0
143
1.0
 70
0
 72
1
 73
0
 74
5
  7

 75
16
 76
0
 77
2
 78
300
147
1.0
148
0.0
149
0.0
100
AcDbLayout
  1
Layout1
 70
1
 71
1
 10
0.0
 20
0.0
 11
420.0
 21
297.0
 12
0.0
 22
0.0
 32
0.0
 14
1e+20
 24
1e+20
 34
1e+20
 15
-1e+20
 25
-1e+20
 35
-1e+20
146
0.0
 13
0.0
 23
0.0
 33
0.0
 16
1.0
 26
0.0
 36
0.0
 17
0.0
 27
1.0
 37
0.0
 76
1
330
1B
  0
MATERIAL
  5
1F
102
{ACAD_REACTORS
330
E
102
}
330
E
100
AcDbMaterial
  1
ByBlock
  2

 70
0
 40
1.0
 71
1
 41
1.0
 91
-1023410177
 42
1.0
 72
1
  3

 73
1
 74
1
 75
1
 44
0.5
 73
0
 45
1.0
 46
1.0
 77
1
  4

 78
1
 79
1
170
1
 48
1.0
171
1
  6

172
1
173
1
174
1
140
1.0
141
1.0
175
1
  7

176
1
177
1
178
1
143
1.0
179
1
  8

270
1
271
1
272
1
145
1.0
146
1.0
273
1
  9

274
1
275
1
276
1
 42
1.0
 72
1
  3

 73
1
 74
1
 75
1
 94
63
  0
MATERIAL
  5
20
102
{ACAD_REACTORS
330
E
102
}
330
E
100
AcDbMaterial
  1
ByLayer
  2

 70
0
 40
1.0
 71
1
 41
1.0
 91
-1023410177
 42
1.0
 72
1
  3

 73
1
 74
1
 75
1
 44
0.5
 73
0
 45
1.0
 46
1.0
 77
1
  4

 78
1
 79
1
170
1
 48
1.0
171
1
  6

172
1
173
1
174
1
140
1.0
141
1.0
175
1
  7

176
1
177
1
178
1
143
1.0
179
1
  8

270
1
271
1
272
1
145
1.0
146
1.0
273
1
  9

274
1
275
1
276
1
 42
1.0
 72
1
  3

 73
1
 74
1
 75
1
 94
63
  0
MATERIAL
  5
21
102
{ACAD_REACTORS
330
E
102
}
330
E
100
AcDbMaterial
  1
Global
  2

 70
0
 40
1.0
 71
1
 41
1.0
 91
-1023410177
 42
1.0
 72
1
  3

 73
1
 74
1
 75
1
 44
0.5
 73
0
 45
1.0
 46
1.0
 77
1
  4

 78
1
 79
1
170
1
 48
1.0
171
1
  6

172
1
173
1
174
1
140
1.0
141
1.0
175
1
  7

176
1
177
1
178
1
143
1.0
179
1
  8

270
1
271
1
272
1
145
1.0
146
1.0
273
1
  9

274
1
275
1
276
1
 42
1.0
 72
1
  3

 73
1
 74
1
 75
1
 94
63
  0
MLINESTYLE
  5
22
102
{ACAD_REACTORS
330
10
102
}
330
10
100
AcDbMlineStyle
  2
Standard
 70
0
  3

 62
256
 51
90.0
 52
90.0
 71
2
 49
0.5
 62
256
  6
BYLAYER
 49
-0.5
 62
256
  6
BYLAYER
  0
MLEADERSTYLE
  5
2C
102
{ACAD_REACTORS
330
F
102
}
330
F
100
AcDbMLeaderStyle
179
2
170
2
171
1
172
0
 90
2
 40
0.0
 41
0.0
173
1
 91
-1056964608
 92
-2
290
1
 42
2.0
291
1
 43
8.0
  3
Standard
 44
4.0
300

342
29
174
1
175
1
176
0
178
1
 93
-1056964608
 45
4.0
292
0
297
0
 46
4.0
 94
-1056964608
 47
1.0
 49
1.0
140
1.0
294
1
141
0.0
177
0
142
1.0
295
0
296
0
143
3.75
271
0
272
9
273
9
  0
DICTIONARY
  5
2D
330
A
100
AcDbDictionary
280
1
281
1
  3
CREATED_BY_EZDXF
350
2E
  3
WRITTEN_BY_EZDXF
350
249
  0
DICTIONARYVAR
  5
2E
330
2D
100
DictionaryVariables
280
0
  1
0.0 @ 2000-01-01T00:00:00.000000+00:00
  0
DICTIONARYVAR
  5
249
330
2D
100
DictionaryVariables
280
0
  1
0.0 @ 2000-01-01T00:00:00.000000+00:00
  0
ENDSEC
  0
EOF
